<svg width="1289" height="636" viewBox="0 0 1289 636" fill="none" xmlns="http://www.w3.org/2000/svg">
<path d="M4.40559 4.43262H1182C1238.61 4.43262 1284.5 50.3206 1284.5 106.931V115.945C1284.5 172.555 1238.61 218.442 1182 218.442H106.904C50.2936 218.442 4.40559 264.33 4.40559 320.94C4.40559 377.55 50.2936 423.438 106.904 423.438H1182C1238.61 423.438 1284.5 469.326 1284.5 525.936V529.769C1284.5 586.379 1238.61 632.267 1182 632.267H4.40559" stroke="#4277FF" stroke-width="7.17672" stroke-miterlimit="10"/>
<path d="M5.99953 84.796L5.99953 25.9323L30.9446 25.9323C37.1191 25.9323 41.8117 27.5788 45.1048 31.0365C47.4923 33.5063 48.8918 36.8817 48.8918 41.0804C48.8918 47.5842 45.2694 51.6182 39.4242 53.4294V53.6764C46.0927 55.2406 51.2793 60.0156 51.2793 67.919C51.2793 72.4469 49.7151 76.3163 46.9983 79.1977C43.7052 82.7378 38.601 84.796 32.2618 84.796H5.99953ZM13.4089 78.1275H31.9325C36.1312 78.1275 39.1773 77.0572 41.1531 75.1637C42.7996 73.4349 43.7876 71.1297 43.7876 68.3306C43.7876 61.0035 38.601 57.3811 31.4385 57.3811H13.4089L13.4089 78.1275ZM13.4089 51.1243H30.039C37.2014 51.1243 41.4824 47.5842 41.4824 41.492C41.4824 35.8115 37.613 32.3538 31.0269 32.3538L13.4089 32.3538L13.4089 51.1243ZM58.9814 84.796L58.9814 25.9323L86.4785 25.9323C96.8517 25.9323 103.85 32.4361 103.85 42.0683C103.85 49.2308 100.721 54.335 93.641 56.6402V56.8872C99.6508 59.0277 101.544 63.144 102.121 71.8707C102.779 81.3382 103.767 83.7257 104.837 84.4667V84.796H96.8517C95.6168 83.7257 95.3698 81.5029 94.7112 71.6237C94.1349 62.9794 90.6772 59.9333 82.7738 59.9333L66.3908 59.9333L66.3908 84.796H58.9814ZM66.3908 32.3538V53.9234H83.8441C92.0768 53.9234 96.1931 49.8071 96.1931 43.1386C96.1931 35.9761 92.9 32.3538 84.2557 32.3538H66.3908ZM139.439 86.0309C121.657 86.0309 110.625 72.9409 110.625 55.323C110.625 37.705 121.657 24.615 139.439 24.615C157.222 24.615 168.254 37.705 168.254 55.323C168.254 72.9409 157.222 86.0309 139.439 86.0309ZM139.439 79.5271C153.27 79.5271 160.679 69.1539 160.679 55.323C160.679 41.492 153.27 31.0365 139.439 31.0365C125.608 31.0365 118.199 41.492 118.199 55.323C118.199 69.1539 125.608 79.5271 139.439 79.5271ZM169.498 84.796L191.15 25.9323H199.465L221.199 84.796H213.131L206.875 66.8487H183.411L177.072 84.796H169.498ZM192.55 41.0804L185.552 60.8389L204.816 60.8389L198.066 41.0804C196.913 37.7873 195.431 32.7654 195.431 32.7654H195.266C195.266 32.7654 193.702 37.705 192.55 41.0804ZM227.575 84.796V25.9323L248.98 25.9323C266.68 25.9323 275.077 37.952 275.077 55.5699C275.077 73.1879 266.104 84.796 248.403 84.796L227.575 84.796ZM234.984 78.2922L248.156 78.2922C261.987 78.2922 267.503 69.4009 267.503 55.5699C267.503 41.739 262.563 32.3538 248.733 32.3538L234.984 32.3538V78.2922Z" fill="#0035BB"/>
<path d="M986.928 190.988V132.124H1008.33C1026.03 132.124 1034.43 144.144 1034.43 161.762C1034.43 179.38 1025.46 190.988 1007.76 190.988H986.928ZM994.337 184.484H1007.51C1021.34 184.484 1026.86 175.593 1026.86 161.762C1026.86 147.931 1021.92 138.545 1008.09 138.545H994.337V184.484ZM1069.8 192.223C1052.01 192.223 1040.98 179.133 1040.98 161.515C1040.98 143.897 1052.01 130.807 1069.8 130.807C1087.58 130.807 1098.61 143.897 1098.61 161.515C1098.61 179.133 1087.58 192.223 1069.8 192.223ZM1069.8 185.719C1083.63 185.719 1091.04 175.346 1091.04 161.515C1091.04 147.684 1083.63 137.228 1069.8 137.228C1055.97 137.228 1048.56 147.684 1048.56 161.515C1048.56 175.346 1055.97 185.719 1069.8 185.719ZM1107.44 190.988V132.124H1149.02V138.628H1114.85V157.234H1145.89V163.49H1114.85V184.155H1150.01V190.988H1107.44ZM1179.26 192.14C1162.71 192.14 1154.81 182.92 1154.15 171.065H1161.39C1162.38 181.026 1168.47 186.213 1179.59 186.213C1187.74 186.213 1193.58 182.508 1193.58 175.181C1193.58 167.113 1186.5 165.219 1175.96 162.914C1165.59 160.609 1156.7 157.645 1156.7 146.531C1156.7 136.817 1164.77 130.971 1176.71 130.971C1191.44 130.971 1197.53 138.463 1199.02 149.33H1192.02C1190.95 140.933 1185.51 136.734 1176.87 136.734C1168.88 136.734 1163.62 140.11 1163.62 146.202C1163.62 152.87 1170.2 154.846 1179.01 156.575C1190.45 158.88 1200.91 161.679 1200.91 174.934C1200.91 185.966 1191.94 192.14 1179.26 192.14Z" fill="#0035BB"/>
<path d="M367.463 353.457V346.953H414.06V353.457H394.467V405.817H387.057V353.457H367.463ZM421.417 405.817V346.953H428.826V371.981H460.275V346.953H467.684V405.817H460.275V377.99H428.826V405.817H421.417ZM478.904 405.817V346.953H486.314V405.817H478.904ZM497.472 405.817V346.953H505.293L532.132 387.87C534.108 390.916 536.413 395.444 536.413 395.444H536.578V346.953L543.493 346.953V405.817H535.919L508.916 364.818C507.022 361.937 504.552 357.491 504.552 357.491H504.388V405.817H497.472ZM600.658 405.817L598.517 398.078H598.352C594.071 404.088 587.732 407.052 579.993 407.052C563.446 407.052 552.332 394.456 552.332 376.591C552.332 359.302 562.129 345.718 580.652 345.718C594.318 345.718 602.716 353.128 604.609 364.653H596.953C595.306 356.832 589.79 352.14 580.487 352.14C566.327 352.14 559.906 362.76 559.906 376.591C559.906 390.998 568.303 400.63 580.24 400.63C592.343 400.63 598.023 392.398 598.023 382.518V381.119H580.323V374.697H605.432V405.817H600.658ZM637.061 406.969C620.514 406.969 612.61 397.749 611.952 385.894H619.197C620.184 395.855 626.277 401.042 637.391 401.042C645.541 401.042 651.386 397.337 651.386 390.01C651.386 381.942 644.306 380.049 633.768 377.743C623.395 375.438 614.504 372.475 614.504 361.36C614.504 351.646 622.572 345.801 634.509 345.801C649.246 345.801 655.338 353.292 656.82 364.159H649.822C648.752 355.762 643.318 351.563 634.674 351.563C626.688 351.563 621.419 354.939 621.419 361.031C621.419 367.7 628.005 369.675 636.814 371.404C648.258 373.709 658.713 376.509 658.713 389.763C658.713 400.795 649.74 406.969 637.061 406.969Z" fill="#0035BB"/>
<path d="M707.078 606.44V547.576H728.483C737.1 547.576 743.604 550.238 747.994 555.562C752.385 560.886 754.58 568.103 754.58 577.214C754.58 586.27 752.303 593.405 747.747 598.619C743.192 603.833 736.578 606.44 727.907 606.44H707.078ZM714.487 599.936H727.66C740.557 599.936 747.006 592.362 747.006 577.214C747.006 561.736 740.75 553.998 728.236 553.998H714.487V599.936ZM763.521 606.44V547.576H770.93V606.44H763.521ZM782.089 606.44V547.576H822.017V554.08H789.498V572.439H816.584V578.696H789.498V606.44H782.089ZM829.684 606.44V547.576H869.612V554.08H837.093V572.439H864.179V578.696H837.093V606.44H829.684ZM877.279 606.44V547.576H918.854V554.08H884.688V572.686H915.726V578.943H884.688V599.607H919.842V606.44H877.279ZM928.492 606.44V547.576H955.989C961.148 547.576 965.32 549.058 968.503 552.022C971.741 554.986 973.36 558.882 973.36 563.712C973.36 571.231 969.957 576.089 963.152 578.284V578.531C966.061 579.574 968.119 581.22 969.326 583.471C970.589 585.666 971.357 589.014 971.631 593.515C972.18 601.034 973.086 605.232 974.348 606.111V606.44H966.362C965.759 605.946 965.32 604.903 965.045 603.312C964.826 601.72 964.551 598.372 964.222 593.268C963.948 588.987 962.877 585.968 961.011 584.212C959.2 582.455 956.291 581.577 952.285 581.577H935.902V606.44H928.492ZM935.902 553.998V575.567H953.355C957.416 575.567 960.49 574.634 962.575 572.768C964.661 570.847 965.704 568.185 965.704 564.783C965.704 561.105 964.771 558.388 962.905 556.632C961.039 554.876 957.993 553.998 953.766 553.998H935.902ZM982.358 606.44V547.576H1023.93V554.08H989.768V572.686H1020.8V578.943H989.768V599.607H1024.92V606.44H982.358ZM1033.57 606.44V547.576H1041.39L1068.23 588.493L1072.51 596.067H1072.68V547.576H1079.59V606.44L1072.02 606.44L1045.01 565.441L1040.65 558.114H1040.49V606.44H1033.57ZM1086.95 554.08V547.576H1133.55V554.08H1113.95V606.44H1106.54V554.08H1086.95ZM1140.9 606.44V547.576H1148.31V599.607H1179.18V606.44H1140.9ZM1194.43 606.44V581.495L1173.11 547.576H1181.34L1198.22 575.567H1198.39L1215.51 547.576H1223.41L1201.84 581.66V606.44H1194.43Z" fill="#0035BB"/>
</svg>
