<svg width="1633" height="918" viewBox="0 0 1633 918" fill="none" xmlns="http://www.w3.org/2000/svg">
<rect width="1632" height="918" transform="translate(0.757812)" fill="white"/>
<path d="M44.0938 132.906H1472.17C1540.82 132.906 1596.47 188.555 1596.47 257.206V268.137C1596.47 336.788 1540.82 392.437 1472.17 392.437H168.393C99.7423 392.437 44.0938 448.085 44.0938 516.737C44.0938 585.388 99.7423 641.036 168.393 641.036H1472.17C1540.82 641.036 1596.47 696.685 1596.47 765.336V769.984C1596.47 838.635 1540.82 894.283 1472.17 894.283H44.0938" stroke="#344899" stroke-width="8" stroke-miterlimit="10"/>
<path d="M43.7469 95.7188L43.7469 24.2187L74.0469 24.2187C81.5802 24.2187 87.3135 26.2854 91.2469 30.4187C94.3135 33.6187 95.8469 37.6854 95.8469 42.6187C95.8469 50.2187 92.0135 55.2187 84.3469 57.6187V57.9187C88.6135 58.9187 92.0802 60.9187 94.7469 63.9187C97.4135 66.8521 98.7469 70.6187 98.7469 75.2187C98.7469 80.6854 97.0135 85.2521 93.5469 88.9187C89.3469 93.4521 83.3802 95.7187 75.6469 95.7188H43.7469ZM52.7469 87.6187H75.2469C80.1802 87.6187 83.9135 86.4187 86.4469 84.0187C88.5802 81.7521 89.6469 78.9854 89.6469 75.7187C89.6469 71.3854 88.2802 68.0854 85.5469 65.8187C82.8135 63.5521 79.1802 62.4187 74.6469 62.4187L52.7469 62.4187L52.7469 87.6187ZM52.7469 54.8187L72.9469 54.8187C77.2802 54.8187 80.6802 53.7854 83.1469 51.7187C85.6135 49.6521 86.8469 46.7854 86.8469 43.1187C86.8469 39.6521 85.7135 36.9521 83.4469 35.0187C81.2469 33.0187 78.1469 32.0187 74.1469 32.0187L52.7469 32.0187L52.7469 54.8187ZM104.102 95.7187L104.102 24.2187L137.502 24.2187C143.769 24.2187 148.836 26.0187 152.702 29.6187C156.636 33.2187 158.602 37.9521 158.602 43.8187C158.602 52.9521 154.469 58.8521 146.202 61.5187V61.8187C149.736 63.0854 152.236 65.0854 153.702 67.8187C155.236 70.4854 156.169 74.5521 156.502 80.0187C157.169 89.1521 158.269 94.2521 159.802 95.3187V95.7187H150.102C149.369 95.1187 148.836 93.8521 148.502 91.9187C148.236 89.9854 147.902 85.9187 147.502 79.7187C147.169 74.5187 145.869 70.8521 143.602 68.7187C141.402 66.5854 137.869 65.5187 133.002 65.5187H113.102L113.102 95.7187H104.102ZM113.102 32.0187V58.2187H134.302C139.236 58.2187 142.969 57.0854 145.502 54.8187C148.036 52.4854 149.302 49.2521 149.302 45.1187C149.302 40.6521 148.169 37.3521 145.902 35.2187C143.636 33.0854 139.936 32.0187 134.802 32.0187H113.102ZM223.232 86.7187C216.899 93.7187 208.432 97.2188 197.832 97.2188C187.232 97.2188 178.732 93.7187 172.332 86.7187C165.999 79.7187 162.832 70.7854 162.832 59.9187C162.832 49.0521 165.999 40.1187 172.332 33.1187C178.732 26.1187 187.232 22.6187 197.832 22.6187C208.432 22.6187 216.899 26.1187 223.232 33.1187C229.632 40.1187 232.832 49.0521 232.832 59.9187C232.832 70.7854 229.632 79.7187 223.232 86.7187ZM178.832 81.1187C183.365 86.5854 189.699 89.3187 197.832 89.3187C205.965 89.3187 212.299 86.5854 216.832 81.1187C221.365 75.6521 223.632 68.5854 223.632 59.9187C223.632 51.2521 221.365 44.1854 216.832 38.7187C212.299 33.1854 205.965 30.4187 197.832 30.4187C189.699 30.4187 183.365 33.1854 178.832 38.7187C174.299 44.1854 172.032 51.2521 172.032 59.9187C172.032 68.5854 174.299 75.6521 178.832 81.1187ZM230.344 95.7187L256.644 24.2187H266.744L293.144 95.7187H283.344L275.744 73.9187H247.244L239.544 95.7187H230.344ZM258.344 42.6187L249.844 66.6187H273.244L265.044 42.6187L261.844 32.5187H261.644C260.377 36.5187 259.277 39.8854 258.344 42.6187ZM296.888 95.7187V24.2187L322.888 24.2187C333.354 24.2187 341.254 27.4521 346.588 33.9187C351.921 40.3854 354.588 49.1521 354.588 60.2187C354.588 71.2187 351.821 79.8854 346.288 86.2187C340.754 92.5521 332.721 95.7187 322.188 95.7187H296.888ZM305.888 87.8187H321.888C337.554 87.8187 345.388 78.6187 345.388 60.2187C345.388 41.4187 337.788 32.0187 322.588 32.0187H305.888V87.8187Z" fill="#344899"/>
<path d="M1172.68 355.375V283.875H1198.68C1209.15 283.875 1217.05 287.108 1222.38 293.575C1227.71 300.042 1230.38 308.808 1230.38 319.875C1230.38 330.875 1227.61 339.542 1222.08 345.875C1216.55 352.208 1208.51 355.375 1197.98 355.375H1172.68ZM1181.68 347.475H1197.68C1213.35 347.475 1221.18 338.275 1221.18 319.875C1221.18 301.075 1213.58 291.675 1198.38 291.675H1181.68V347.475ZM1294.74 346.375C1288.4 353.375 1279.94 356.875 1269.34 356.875C1258.74 356.875 1250.24 353.375 1243.84 346.375C1237.5 339.375 1234.34 330.442 1234.34 319.575C1234.34 308.708 1237.5 299.775 1243.84 292.775C1250.24 285.775 1258.74 282.275 1269.34 282.275C1279.94 282.275 1288.4 285.775 1294.74 292.775C1301.14 299.775 1304.34 308.708 1304.34 319.575C1304.34 330.442 1301.14 339.375 1294.74 346.375ZM1250.34 340.775C1254.87 346.242 1261.2 348.975 1269.34 348.975C1277.47 348.975 1283.8 346.242 1288.34 340.775C1292.87 335.308 1295.14 328.242 1295.14 319.575C1295.14 310.908 1292.87 303.842 1288.34 298.375C1283.8 292.842 1277.47 290.075 1269.34 290.075C1261.2 290.075 1254.87 292.842 1250.34 298.375C1245.8 303.842 1243.54 310.908 1243.54 319.575C1243.54 328.242 1245.8 335.308 1250.34 340.775ZM1311.07 355.375V283.875L1361.57 283.875V291.775L1320.07 291.775V314.375L1357.77 314.375V321.975H1320.07V347.075H1362.77V355.375H1311.07ZM1394.3 356.775C1384.7 356.775 1377.3 354.408 1372.1 349.675C1366.96 344.942 1364.2 338.775 1363.8 331.175L1372.6 331.175C1373.8 343.442 1381.16 349.575 1394.7 349.575C1399.83 349.575 1403.93 348.442 1407 346.175C1410.13 343.842 1411.7 340.508 1411.7 336.175C1411.7 334.242 1411.33 332.542 1410.6 331.075C1409.86 329.608 1408.96 328.408 1407.9 327.475C1406.9 326.542 1405.36 325.675 1403.3 324.875C1401.23 324.075 1399.3 323.442 1397.5 322.975C1395.76 322.508 1393.36 321.942 1390.3 321.275C1386.63 320.475 1383.6 319.675 1381.2 318.875C1378.8 318.008 1376.4 316.842 1374 315.375C1371.6 313.908 1369.8 312.042 1368.6 309.775C1367.46 307.442 1366.9 304.642 1366.9 301.375C1366.9 295.508 1369.1 290.908 1373.5 287.575C1377.96 284.175 1383.86 282.475 1391.2 282.475C1407.26 282.475 1416.3 289.908 1418.3 304.775H1409.8C1409.13 299.708 1407.23 295.908 1404.1 293.375C1400.96 290.775 1396.73 289.475 1391.4 289.475C1386.46 289.475 1382.53 290.475 1379.6 292.475C1376.73 294.475 1375.3 297.308 1375.3 300.975C1375.3 302.575 1375.6 304.008 1376.2 305.275C1376.86 306.475 1377.7 307.508 1378.7 308.375C1379.76 309.175 1381.13 309.908 1382.8 310.575C1384.53 311.242 1386.23 311.808 1387.9 312.275C1389.56 312.675 1391.6 313.108 1394 313.575C1397.33 314.242 1400.06 314.875 1402.2 315.475C1404.33 316.008 1406.7 316.842 1409.3 317.975C1411.9 319.108 1413.9 320.408 1415.3 321.875C1416.76 323.342 1418 325.275 1419 327.675C1420.06 330.008 1420.6 332.742 1420.6 335.875C1420.6 342.408 1418.16 347.542 1413.3 351.275C1408.5 354.942 1402.16 356.775 1394.3 356.775Z" fill="#344899"/>
<path d="M498.829 540.634V532.734H555.429V540.634H531.629V604.234H522.629V540.634H498.829ZM560.364 604.234V532.734H569.364V563.134H607.564V532.734H616.564V604.234H607.564V570.434H569.364V604.234H560.364ZM626.193 604.234V532.734H635.193V604.234H626.193ZM644.747 604.234V532.734H654.247L686.847 582.434L692.047 591.634H692.247V532.734H700.647V604.234H691.447L658.647 554.434L653.347 545.534H653.147V604.234H644.747ZM766.083 604.234L763.483 594.834H763.283C758.083 602.101 750.649 605.734 740.983 605.734C730.983 605.734 722.883 602.301 716.683 595.434C710.483 588.568 707.383 579.668 707.383 568.734C707.383 557.801 710.383 548.834 716.383 541.834C722.449 534.768 730.916 531.234 741.783 531.234C749.916 531.234 756.483 533.301 761.483 537.434C766.549 541.501 769.683 547.101 770.883 554.234H761.583C760.583 549.368 758.383 545.634 754.983 543.034C751.583 540.368 747.116 539.034 741.583 539.034C733.316 539.034 727.083 541.768 722.883 547.234C718.683 552.701 716.583 559.868 716.583 568.734C716.583 577.468 718.883 584.534 723.483 589.934C728.083 595.268 734.016 597.934 741.283 597.934C748.283 597.934 753.616 595.868 757.283 591.734C761.016 587.601 762.883 582.334 762.883 575.934V574.234H741.383V566.434H771.883V604.234H766.083ZM806.302 605.634C796.702 605.634 789.302 603.268 784.102 598.534C778.968 593.801 776.202 587.634 775.802 580.034H784.602C785.802 592.301 793.168 598.434 806.702 598.434C811.835 598.434 815.935 597.301 819.002 595.034C822.135 592.701 823.702 589.368 823.702 585.034C823.702 583.101 823.335 581.401 822.602 579.934C821.868 578.468 820.968 577.268 819.902 576.334C818.902 575.401 817.368 574.534 815.302 573.734C813.235 572.934 811.302 572.301 809.502 571.834C807.768 571.368 805.368 570.801 802.302 570.134C798.635 569.334 795.602 568.534 793.202 567.734C790.802 566.868 788.402 565.701 786.002 564.234C783.602 562.768 781.802 560.901 780.602 558.634C779.468 556.301 778.902 553.501 778.902 550.234C778.902 544.368 781.102 539.768 785.502 536.434C789.968 533.034 795.868 531.334 803.202 531.334C819.268 531.334 828.302 538.768 830.302 553.634H821.802C821.135 548.568 819.235 544.768 816.102 542.234C812.968 539.634 808.735 538.334 803.402 538.334C798.468 538.334 794.535 539.334 791.602 541.334C788.735 543.334 787.302 546.168 787.302 549.834C787.302 551.434 787.602 552.868 788.202 554.134C788.868 555.334 789.702 556.368 790.702 557.234C791.768 558.034 793.135 558.768 794.802 559.434C796.535 560.101 798.235 560.668 799.902 561.134C801.568 561.534 803.602 561.968 806.002 562.434C809.335 563.101 812.068 563.734 814.202 564.334C816.335 564.868 818.702 565.701 821.302 566.834C823.902 567.968 825.902 569.268 827.302 570.734C828.768 572.201 830.002 574.134 831.002 576.534C832.068 578.868 832.602 581.601 832.602 584.734C832.602 591.268 830.168 596.401 825.302 600.134C820.502 603.801 814.168 605.634 806.302 605.634Z" fill="#344899"/>
<path d="M872.247 857.32V785.82H898.247C908.714 785.82 916.614 789.054 921.947 795.52C927.28 801.987 929.947 810.754 929.947 821.82C929.947 832.82 927.18 841.487 921.647 847.82C916.114 854.154 908.08 857.32 897.547 857.32H872.247ZM881.247 849.42H897.247C912.914 849.42 920.747 840.22 920.747 821.82C920.747 803.02 913.147 793.62 897.947 793.62H881.247V849.42ZM936.806 857.32V785.82H945.806V857.32H936.806ZM955.36 857.32V785.82H1003.86V793.72H964.36V816.02H997.26V823.62H964.36V857.32H955.36ZM1009.17 857.32V785.82H1057.67V793.72H1018.17V816.02H1051.07V823.62H1018.17V857.32H1009.17ZM1062.99 857.32V785.82H1113.49V793.72H1071.99V816.32H1109.69V823.92H1071.99V849.02H1114.69V857.32H1062.99ZM1121.19 857.32V785.82H1154.59C1160.86 785.82 1165.93 787.62 1169.79 791.22C1173.73 794.82 1175.69 799.554 1175.69 805.42C1175.69 814.554 1171.56 820.454 1163.29 823.12V823.42C1166.83 824.687 1169.33 826.687 1170.79 829.42C1172.33 832.087 1173.26 836.154 1173.59 841.62C1174.26 850.754 1175.36 855.854 1176.89 856.92V857.32H1167.19C1166.46 856.72 1165.93 855.454 1165.59 853.52C1165.33 851.587 1164.99 847.52 1164.59 841.32C1164.26 836.12 1162.96 832.454 1160.69 830.32C1158.49 828.187 1154.96 827.12 1150.09 827.12H1130.19V857.32H1121.19ZM1130.19 793.62V819.82H1151.39C1156.33 819.82 1160.06 818.687 1162.59 816.42C1165.13 814.087 1166.39 810.854 1166.39 806.72C1166.39 802.254 1165.26 798.954 1162.99 796.82C1160.73 794.687 1157.03 793.62 1151.89 793.62H1130.19ZM1182.62 857.32V785.82L1233.12 785.82V793.72L1191.62 793.72V816.32H1229.32V823.92H1191.62V849.02H1234.32V857.32H1182.62ZM1240.83 857.32V785.82H1250.33L1282.93 835.52L1288.13 844.72H1288.33V785.82H1296.73V857.32H1287.53L1254.73 807.52L1249.43 798.62H1249.23V857.32H1240.83ZM1301.66 793.72V785.82H1358.26V793.72H1334.46V857.32H1325.46V793.72H1301.66ZM1363.2 857.32V785.82H1372.2V849.02H1409.7V857.32H1363.2ZM1424.22 857.32V827.02L1398.32 785.82H1408.32L1428.82 819.82H1429.02L1449.82 785.82H1459.42L1433.22 827.22V857.32H1424.22Z" fill="#344899"/>
</svg>
