<svg width="398" height="388" viewBox="0 0 398 388" fill="none" xmlns="http://www.w3.org/2000/svg">
<rect width="397" height="388" transform="translate(0.5)" fill="#CED7E9"/>
<mask id="mask0_1111_571" style="mask-type:luminance" maskUnits="userSpaceOnUse" x="196" y="162" width="188" height="208">
<path d="M383.268 177.398L196.125 162.234V369.495H383.268V177.398Z" fill="white"/>
</mask>
<g mask="url(#mask0_1111_571)">
<path d="M227.773 272.209H334.304C359.52 272.209 380.037 251.691 380.037 226.476C380.037 201.261 359.52 180.75 334.304 180.75H208.406V355.263" stroke="#2E499E" stroke-width="0.673675"/>
<path d="M227.744 275.148H334.303C361.137 275.148 382.974 253.311 382.974 226.476C382.974 199.642 361.137 177.805 334.303 177.805H205.148V355.262" stroke="#2E499E" stroke-width="0.673675"/>
</g>
<path d="M10.4851 129.638H339.056C361.708 129.638 380.136 111.223 380.136 88.5845C380.136 65.9463 361.708 47.5312 339.056 47.5312H10.4843" stroke="#2E499E" stroke-width="0.673675"/>
<path d="M10.5148 132.579H339.246C363.513 132.579 383.266 112.847 383.266 88.5865C383.266 64.3256 363.52 44.5938 339.246 44.5938H10.5078" stroke="#2E499E" stroke-width="0.673675"/>
<path d="M383.256 366.233H59.0749C33.9096 366.233 13.4395 345.756 13.4395 320.597C13.4395 295.439 33.9096 274.962 59.0749 274.955L185.878 274.954M185.878 272.022L59.0749 272.022C33.9096 272.022 13.4395 251.546 13.4395 226.387C13.4395 201.228 33.9162 180.745 59.0749 180.745L185.878 180.744M185.878 177.805L59.0749 177.805C32.2935 177.805 10.5 199.599 10.5 226.38C10.5 249.078 26.1485 268.185 47.2238 273.485C26.1485 278.792 10.5 297.899 10.5 320.597C10.5 347.385 32.2935 369.172 59.0749 369.172H383.256" stroke="#2E499E" stroke-width="0.673675" stroke-miterlimit="10"/>
<path d="M243.92 169.383L243.568 169.253L243.383 169.758H243.92V169.383ZM253.388 143.643V143.268H253.127L253.036 143.513L253.388 143.643ZM257.024 143.643L257.376 143.513L257.286 143.268H257.024V143.643ZM266.528 169.383V169.758H267.067L266.88 169.253L266.528 169.383ZM263 169.383L262.646 169.506L262.734 169.758H263V169.383ZM260.264 161.535L260.619 161.411L260.531 161.16H260.264V161.535ZM250.004 161.535V161.16H249.739L249.651 161.41L250.004 161.535ZM247.232 169.383V169.758H247.498L247.586 169.508L247.232 169.383ZM254 150.267L254.354 150.392L254.355 150.388L254 150.267ZM250.94 158.907L250.587 158.782L250.41 159.282H250.94V158.907ZM259.364 158.907V159.282H259.889L259.719 158.786L259.364 158.907ZM256.412 150.267L256.055 150.38L256.058 150.388L256.412 150.267ZM255.26 146.631L255.618 146.518L255.535 146.256H255.26V146.631ZM255.188 146.631V146.256H254.914L254.831 146.518L255.188 146.631ZM244.272 169.512L253.74 143.772L253.036 143.513L243.568 169.253L244.272 169.512ZM253.388 144.018H257.024V143.268H253.388V144.018ZM256.673 143.773L266.177 169.513L266.88 169.253L257.376 143.513L256.673 143.773ZM266.528 169.008H263V169.758H266.528V169.008ZM263.355 169.259L260.619 161.411L259.91 161.658L262.646 169.506L263.355 169.259ZM260.264 161.16H250.004V161.91H260.264V161.16ZM249.651 161.41L246.879 169.258L247.586 169.508L250.358 161.66L249.651 161.41ZM247.232 169.008H243.92V169.758H247.232V169.008ZM253.647 150.142L250.587 158.782L251.294 159.032L254.354 150.392L253.647 150.142ZM250.94 159.282H259.364V158.532H250.94V159.282ZM259.719 158.786L256.767 150.146L256.058 150.388L259.01 159.028L259.719 158.786ZM256.77 150.154L255.618 146.518L254.903 146.744L256.055 150.38L256.77 150.154ZM255.26 146.256H255.188V147.006H255.26V146.256ZM254.831 146.518C254.375 147.956 253.98 149.165 253.646 150.146L254.355 150.388C254.693 149.4 255.089 148.186 255.546 146.744L254.831 146.518ZM267.876 169.383H267.501V169.758H267.876V169.383ZM267.876 143.643V143.268H267.501V143.643H267.876ZM271.296 143.643L271.61 143.437L271.499 143.268H271.296V143.643ZM283.032 161.535L283.359 161.35L283.353 161.34L283.346 161.329L283.032 161.535ZM284.904 164.847L284.578 165.031L284.685 165.222H284.904V164.847ZM284.976 164.847V165.222H285.351V164.847H284.976ZM284.976 143.643V143.268H284.601V143.643H284.976ZM288 143.643H288.375V143.268H288V143.643ZM288 169.383V169.758H288.375V169.383H288ZM284.688 169.383L284.375 169.589L284.486 169.758H284.688V169.383ZM272.88 151.455L272.558 151.647L272.562 151.654L272.567 151.661L272.88 151.455ZM270.972 148.251L271.294 148.059L271.185 147.876H270.972V148.251ZM270.9 148.251V147.876H270.525V148.251H270.9ZM270.9 169.383V169.758H271.275V169.383H270.9ZM268.251 169.383V143.643H267.501V169.383H268.251ZM267.876 144.018H271.296V143.268H267.876V144.018ZM270.983 143.848L282.719 161.74L283.346 161.329L271.61 143.437L270.983 143.848ZM282.706 161.719L284.578 165.031L285.231 164.662L283.359 161.35L282.706 161.719ZM284.904 165.222H284.976V164.472H284.904V165.222ZM285.351 164.847V143.643H284.601V164.847H285.351ZM284.976 144.018H288V143.268H284.976V144.018ZM287.625 143.643V169.383H288.375V143.643H287.625ZM288 169.008L284.688 169.008V169.758L288 169.758V169.008ZM285.001 169.177L273.193 151.249L272.567 151.661L284.375 169.589L285.001 169.177ZM273.202 151.263L271.294 148.059L270.65 148.443L272.558 151.647L273.202 151.263ZM270.972 147.876H270.9V148.626H270.972V147.876ZM270.525 148.251V169.383H271.275V148.251H270.525ZM270.9 169.008H267.876V169.758H270.9V169.008ZM291.397 169.383H291.022V169.758H291.397V169.383ZM291.397 143.643V143.268H291.022V143.643H291.397ZM309.289 147.135L309 147.373L309.289 147.135ZM309.181 165.963L309.464 166.21L309.181 165.963ZM294.637 166.539H294.262V166.914H294.637V166.539ZM294.637 146.451V146.076H294.262V146.451H294.637ZM291.772 169.383V143.643H291.022V169.383H291.772ZM291.397 144.018H300.757V143.268H291.397V144.018ZM300.757 144.018C304.444 144.018 307.168 145.153 309 147.373L309.578 146.896C307.57 144.461 304.607 143.268 300.757 143.268V144.018ZM309 147.373C310.849 149.615 311.794 152.678 311.794 156.603H312.544C312.544 152.56 311.569 149.31 309.578 146.896L309 147.373ZM311.794 156.603C311.794 160.501 310.815 163.523 308.899 165.716L309.464 166.21C311.532 163.842 312.544 160.625 312.544 156.603H311.794ZM308.899 165.716C306.995 167.895 304.218 169.008 300.505 169.008V169.758C304.376 169.758 307.383 168.591 309.464 166.21L308.899 165.716ZM300.505 169.008H291.397V169.758H300.505V169.008ZM294.637 166.914H300.397V166.164H294.637V166.914ZM300.397 166.914C303.292 166.914 305.527 166.061 307.028 164.298C308.519 162.546 309.232 159.959 309.232 156.603H308.482C308.482 159.87 307.785 162.251 306.457 163.812C305.138 165.361 303.142 166.164 300.397 166.164V166.914ZM309.232 156.603C309.232 153.178 308.541 150.54 307.097 148.753C305.64 146.951 303.467 146.076 300.649 146.076V146.826C303.304 146.826 305.235 147.643 306.514 149.225C307.805 150.822 308.482 153.26 308.482 156.603H309.232ZM300.649 146.076H294.637V146.826H300.649V146.076ZM294.262 146.451V166.539H295.012V146.451H294.262Z" fill="#344899"/>
<path d="M12.9198 36.6641H12.5448V37.0391H12.9198V36.6641ZM12.9198 10.9241V10.5491H12.5448V10.9241H12.9198ZM30.8118 14.4161L30.5225 14.6547L30.8118 14.4161ZM30.7038 33.2441L30.9862 33.4908L30.7038 33.2441ZM16.1598 33.8201H15.7848V34.1951H16.1598V33.8201ZM16.1598 13.7321V13.3571H15.7848V13.7321H16.1598ZM13.2948 36.6641L13.2948 10.9241H12.5448L12.5448 36.6641H13.2948ZM12.9198 11.2991L22.2798 11.2991V10.5491L12.9198 10.5491V11.2991ZM22.2798 11.2991C25.9662 11.2991 28.691 12.434 30.5225 14.6547L31.1011 14.1775C29.0926 11.7421 26.1294 10.5491 22.2798 10.5491V11.2991ZM30.5225 14.6547C32.3715 16.8966 33.3168 19.959 33.3168 23.8841H34.0668C34.0668 19.8411 33.0921 16.5915 31.1011 14.1775L30.5225 14.6547ZM33.3168 23.8841C33.3168 27.7818 32.3373 30.8044 30.4214 32.9973L30.9862 33.4908C33.0543 31.1237 34.0668 27.9063 34.0668 23.8841H33.3168ZM30.4214 32.9973C28.518 35.176 25.7411 36.2891 22.0278 36.2891V37.0391C25.8986 37.0391 28.9057 35.8721 30.9862 33.4908L30.4214 32.9973ZM22.0278 36.2891H12.9198V37.0391H22.0278V36.2891ZM16.1598 34.1951H21.9198V33.4451H16.1598V34.1951ZM21.9198 34.1951C24.8148 34.1951 27.0492 33.3422 28.5503 31.5792C30.0416 29.8277 30.7548 27.2404 30.7548 23.8841H30.0048C30.0048 27.1517 29.308 29.5324 27.9793 31.093C26.6604 32.6419 24.6648 33.4451 21.9198 33.4451V34.1951ZM30.7548 23.8841C30.7548 20.4593 30.0642 17.8212 28.6194 16.0343C27.1624 14.2321 24.9892 13.3571 22.1718 13.3571V14.1071C24.8264 14.1071 26.7573 14.924 28.0362 16.5058C29.3275 18.1029 30.0048 20.5408 30.0048 23.8841H30.7548ZM22.1718 13.3571L16.1598 13.3571V14.1071L22.1718 14.1071V13.3571ZM15.7848 13.7321L15.7848 33.8201H16.5348L16.5348 13.7321H15.7848ZM36.0892 36.6641H35.7142V37.0391H36.0892V36.6641ZM36.0892 10.9241V10.5491H35.7142V10.9241H36.0892ZM54.2692 10.9241H54.6442V10.5491H54.2692V10.9241ZM54.2692 13.7681V14.1431H54.6442V13.7681H54.2692ZM39.3292 13.7681V13.3931H38.9542V13.7681H39.3292ZM39.3292 21.9041H38.9542V22.2791H39.3292V21.9041ZM52.9012 21.9041H53.2762V21.5291H52.9012V21.9041ZM52.9012 24.6401V25.0151H53.2762V24.6401H52.9012ZM39.3292 24.6401V24.2651H38.9542V24.6401H39.3292ZM39.3292 33.6761H38.9542V34.0511H39.3292V33.6761ZM54.7012 33.6761H55.0762V33.3011H54.7012V33.6761ZM54.7012 36.6641V37.0391H55.0762V36.6641H54.7012ZM36.4642 36.6641V10.9241H35.7142V36.6641H36.4642ZM36.0892 11.2991L54.2692 11.2991V10.5491L36.0892 10.5491V11.2991ZM53.8942 10.9241V13.7681H54.6442V10.9241H53.8942ZM54.2692 13.3931L39.3292 13.3931V14.1431L54.2692 14.1431V13.3931ZM38.9542 13.7681V21.9041H39.7042V13.7681L38.9542 13.7681ZM39.3292 22.2791H52.9012V21.5291H39.3292V22.2791ZM52.5262 21.9041V24.6401H53.2762V21.9041H52.5262ZM52.9012 24.2651H39.3292V25.0151H52.9012V24.2651ZM38.9542 24.6401V33.6761H39.7042V24.6401H38.9542ZM39.3292 34.0511L54.7012 34.0511V33.3011L39.3292 33.3011V34.0511ZM54.3262 33.6761V36.6641H55.0762V33.6761H54.3262ZM54.7012 36.2891L36.0892 36.2891V37.0391L54.7012 37.0391V36.2891ZM57.0437 36.6641H56.6687V37.0391H57.0437V36.6641ZM57.0437 10.9241V10.5491H56.6687V10.9241H57.0437ZM73.8917 13.4081L73.6046 13.6494L73.607 13.6521L73.8917 13.4081ZM73.5317 23.8841L73.7898 24.1562L73.5317 23.8841ZM60.2837 25.8641V25.4891H59.9087V25.8641H60.2837ZM60.2837 36.6641V37.0391H60.6587V36.6641H60.2837ZM60.2837 13.7321V13.3571H59.9087V13.7321H60.2837ZM60.2837 23.2361H59.9087V23.6111H60.2837V23.2361ZM71.0477 21.9761L70.7936 21.7002L70.79 21.7036L71.0477 21.9761ZM71.0477 14.9561L70.7939 15.2323L70.8018 15.2392L71.0477 14.9561ZM57.4187 36.6641L57.4187 10.9241H56.6687L56.6687 36.6641H57.4187ZM57.0437 11.2991L67.7717 11.2991V10.5491L57.0437 10.5491V11.2991ZM67.7717 11.2991C70.3782 11.2991 72.3008 12.0982 73.6047 13.6494L74.1788 13.1668C72.6986 11.4059 70.5412 10.5491 67.7717 10.5491V11.2991ZM73.607 13.6521C74.6956 14.9222 75.2447 16.4654 75.2447 18.3041H75.9947C75.9947 16.3027 75.3918 14.5819 74.1764 13.164L73.607 13.6521ZM75.2447 18.3041C75.2447 20.6287 74.5732 22.3797 73.2737 23.612L73.7898 24.1562C75.2743 22.7484 75.9947 20.7795 75.9947 18.3041H75.2447ZM73.2737 23.612C71.9768 24.8418 70.0097 25.4891 67.3037 25.4891V26.2391C70.1178 26.2391 72.3026 25.5664 73.7898 24.1562L73.2737 23.612ZM67.3037 25.4891H60.2837V26.2391H67.3037V25.4891ZM59.9087 25.8641L59.9087 36.6641H60.6587L60.6587 25.8641H59.9087ZM60.2837 36.2891H57.0437V37.0391H60.2837V36.2891ZM59.9087 13.7321V23.2361H60.6587V13.7321H59.9087ZM60.2837 23.6111H67.0517V22.8611H60.2837V23.6111ZM67.0517 23.6111C68.8805 23.6111 70.3218 23.179 71.3054 22.2485L70.79 21.7036C69.9977 22.4532 68.775 22.8611 67.0517 22.8611V23.6111ZM71.3018 22.2519C72.3074 21.3257 72.7907 20.04 72.7907 18.4481H72.0407C72.0407 19.8801 71.612 20.9465 70.7937 21.7002L71.3018 22.2519ZM72.7907 18.4481C72.7907 16.8351 72.3089 15.5546 71.2936 14.6729L70.8018 15.2392C71.6106 15.9415 72.0407 16.989 72.0407 18.4481H72.7907ZM71.3015 14.6799C70.322 13.7799 68.9463 13.3571 67.2317 13.3571V14.1071C68.8291 14.1071 69.9975 14.5002 70.794 15.2322L71.3015 14.6799ZM67.2317 13.3571L60.2837 13.3571V14.1071L67.2317 14.1071V13.3571ZM77.2951 36.6641H76.9201V37.0391H77.2951V36.6641ZM77.2951 10.9241V10.5491H76.9201V10.9241H77.2951ZM81.4351 10.9241L81.7844 10.7876L81.6912 10.5491H81.4351V10.9241ZM89.7871 32.3081L89.4378 32.4445L89.531 32.6831H89.7871V32.3081ZM89.8591 32.3081V32.6831H90.1161L90.2088 32.4435L89.8591 32.3081ZM98.1391 10.9241V10.5491H97.8822L97.7894 10.7887L98.1391 10.9241ZM102.351 10.9241H102.726V10.5491H102.351V10.9241ZM102.351 36.6641V37.0391H102.726V36.6641H102.351ZM99.2551 36.6641H98.8801V37.0391H99.2551V36.6641ZM99.2551 15.4961H99.6301V15.1211H99.2551V15.4961ZM99.1831 15.4961V15.1211H98.9144L98.828 15.3756L99.1831 15.4961ZM98.0311 18.7361L98.3801 18.8734L98.3814 18.87L98.0311 18.7361ZM90.9751 36.6641V37.0391H91.2305L91.3241 36.8014L90.9751 36.6641ZM88.4911 36.6641L88.1422 36.8014L88.2357 37.0391H88.4911V36.6641ZM81.4351 18.7361L81.0816 18.8618L81.0862 18.8734L81.4351 18.7361ZM80.2831 15.4961L80.6365 15.3704L80.5478 15.1211H80.2831V15.4961ZM80.2111 15.4961V15.1211H79.8361V15.4961H80.2111ZM80.2111 36.6641V37.0391H80.5861V36.6641H80.2111ZM77.6701 36.6641V10.9241H76.9201V36.6641H77.6701ZM77.2951 11.2991H81.4351V10.5491H77.2951V11.2991ZM81.0858 11.0605L89.4378 32.4445L90.1364 32.1716L81.7844 10.7876L81.0858 11.0605ZM89.7871 32.6831H89.8591V31.9331H89.7871V32.6831ZM90.2088 32.4435L98.4888 11.0595L97.7894 10.7887L89.5094 32.1727L90.2088 32.4435ZM98.1391 11.2991H102.351V10.5491H98.1391V11.2991ZM101.976 10.9241V36.6641H102.726V10.9241H101.976ZM102.351 36.2891H99.2551V37.0391H102.351V36.2891ZM99.6301 36.6641V15.4961H98.8801V36.6641H99.6301ZM99.2551 15.1211H99.1831V15.8711H99.2551V15.1211ZM98.828 15.3756C98.3727 16.7175 97.9904 17.7925 97.6809 18.6021L98.3814 18.87C98.6958 18.0477 99.0815 16.9627 99.5382 15.6165L98.828 15.3756ZM97.6822 18.5987L90.6262 36.5267L91.3241 36.8014L98.3801 18.8734L97.6822 18.5987ZM90.9751 36.2891H88.4911V37.0391H90.9751V36.2891ZM88.8401 36.5267L81.7841 18.5987L81.0862 18.8734L88.1422 36.8014L88.8401 36.5267ZM81.7885 18.6104L80.6365 15.3704L79.9298 15.6217L81.0818 18.8617L81.7885 18.6104ZM80.2831 15.1211H80.2111V15.8711H80.2831V15.1211ZM79.8361 15.4961V36.6641H80.5861V15.4961H79.8361ZM80.2111 36.2891H77.2951V37.0391H80.2111V36.2891ZM103.686 36.6641L103.334 36.5346L103.148 37.0391H103.686V36.6641ZM113.154 10.9241V10.5491H112.892L112.802 10.7946L113.154 10.9241ZM116.79 10.9241L117.142 10.7942L117.051 10.5491H116.79V10.9241ZM126.294 36.6641V37.0391H126.832L126.646 36.5342L126.294 36.6641ZM122.766 36.6641L122.412 36.7875L122.5 37.0391H122.766V36.6641ZM120.03 28.8161L120.384 28.6926L120.296 28.4411H120.03V28.8161ZM109.77 28.8161V28.4411H109.505L109.416 28.6912L109.77 28.8161ZM106.998 36.6641V37.0391H107.263L107.352 36.789L106.998 36.6641ZM113.766 17.5481L114.119 17.6733L114.121 17.6692L113.766 17.5481ZM110.706 26.1881L110.352 26.0629L110.175 26.5631H110.706V26.1881ZM119.13 26.1881V26.5631H119.654L119.485 26.0668L119.13 26.1881ZM116.178 17.5481L115.82 17.6614L115.823 17.6693L116.178 17.5481ZM115.026 13.9121L115.383 13.7988L115.3 13.5371H115.026V13.9121ZM114.954 13.9121V13.5371H114.679L114.596 13.7989L114.954 13.9121ZM104.038 36.7935L113.506 11.0535L112.802 10.7946L103.334 36.5346L104.038 36.7935ZM113.154 11.2991L116.79 11.2991V10.5491L113.154 10.5491V11.2991ZM116.438 11.054L125.942 36.794L126.646 36.5342L117.142 10.7942L116.438 11.054ZM126.294 36.2891H122.766V37.0391H126.294V36.2891ZM123.12 36.5406L120.384 28.6926L119.676 28.9395L122.412 36.7875L123.12 36.5406ZM120.03 28.4411L109.77 28.4411V29.1911L120.03 29.1911V28.4411ZM109.416 28.6912L106.644 36.5392L107.352 36.789L110.124 28.941L109.416 28.6912ZM106.998 36.2891H103.686V37.0391H106.998V36.2891ZM113.412 17.4229L110.352 26.0629L111.059 26.3133L114.119 17.6733L113.412 17.4229ZM110.706 26.5631L119.13 26.5631V25.8131L110.706 25.8131V26.5631ZM119.485 26.0668L116.533 17.4268L115.823 17.6693L118.775 26.3093L119.485 26.0668ZM116.535 17.4348L115.383 13.7988L114.668 14.0253L115.82 17.6613L116.535 17.4348ZM115.026 13.5371H114.954V14.2871H115.026V13.5371ZM114.596 13.7989C114.141 15.2373 113.746 16.4464 113.411 17.4269L114.121 17.6692C114.458 16.6817 114.855 15.4669 115.311 14.0253L114.596 13.7989ZM127.642 36.6641H127.267V37.0391H127.642V36.6641ZM127.642 10.9241V10.5491H127.267V10.9241H127.642ZM144.49 13.4081L144.203 13.6494L144.205 13.6521L144.49 13.4081ZM144.13 23.8841L144.388 24.1562L144.13 23.8841ZM130.882 25.8641V25.4891H130.507V25.8641H130.882ZM130.882 36.6641V37.0391H131.257V36.6641H130.882ZM130.882 13.7321V13.3571H130.507V13.7321H130.882ZM130.882 23.2361H130.507V23.6111H130.882V23.2361ZM141.646 21.9761L141.392 21.7002L141.388 21.7036L141.646 21.9761ZM141.646 14.9561L141.392 15.2323L141.4 15.2392L141.646 14.9561ZM128.017 36.6641V10.9241H127.267V36.6641H128.017ZM127.642 11.2991L138.37 11.2991V10.5491L127.642 10.5491V11.2991ZM138.37 11.2991C140.976 11.2991 142.899 12.0982 144.203 13.6494L144.777 13.1668C143.297 11.4059 141.139 10.5491 138.37 10.5491V11.2991ZM144.205 13.6521C145.294 14.9222 145.843 16.4654 145.843 18.3041H146.593C146.593 16.3027 145.99 14.5819 144.774 13.164L144.205 13.6521ZM145.843 18.3041C145.843 20.6287 145.171 22.3797 143.872 23.612L144.388 24.1562C145.872 22.7484 146.593 20.7795 146.593 18.3041H145.843ZM143.872 23.612C142.575 24.8418 140.608 25.4891 137.902 25.4891V26.2391C140.716 26.2391 142.901 25.5664 144.388 24.1562L143.872 23.612ZM137.902 25.4891H130.882V26.2391H137.902V25.4891ZM130.507 25.8641V36.6641H131.257V25.8641H130.507ZM130.882 36.2891H127.642V37.0391H130.882V36.2891ZM130.507 13.7321V23.2361H131.257V13.7321H130.507ZM130.882 23.6111H137.65V22.8611H130.882V23.6111ZM137.65 23.6111C139.478 23.6111 140.92 23.179 141.903 22.2485L141.388 21.7036C140.596 22.4532 139.373 22.8611 137.65 22.8611V23.6111ZM141.9 22.2519C142.905 21.3257 143.389 20.04 143.389 18.4481H142.639C142.639 19.8801 142.21 20.9465 141.392 21.7002L141.9 22.2519ZM143.389 18.4481C143.389 16.8351 142.907 15.5546 141.892 14.6729L141.4 15.2392C142.209 15.9415 142.639 16.989 142.639 18.4481H143.389ZM141.899 14.6799C140.92 13.7799 139.544 13.3571 137.83 13.3571V14.1071C139.427 14.1071 140.595 14.5002 141.392 15.2322L141.899 14.6799ZM137.83 13.3571L130.882 13.3571V14.1071L137.83 14.1071V13.3571Z" fill="#344899"/>
<path d="M57.6871 263.344H57.3121V263.719H57.6871V263.344ZM57.6871 237.604V237.229H57.3121V237.604H57.6871ZM74.5351 240.088L74.248 240.329L74.2504 240.332L74.5351 240.088ZM74.1751 250.564L74.4331 250.836L74.1751 250.564ZM60.9271 252.544V252.169H60.5521V252.544H60.9271ZM60.9271 263.344L60.9271 263.719H61.3021L61.3021 263.344H60.9271ZM60.9271 240.412V240.037H60.5521V240.412H60.9271ZM60.9271 249.916H60.5521V250.291H60.9271V249.916ZM71.6911 248.656L71.437 248.38L71.4334 248.383L71.6911 248.656ZM71.6911 241.636L71.4372 241.912L71.4452 241.919L71.6911 241.636ZM58.0621 263.344L58.0621 237.604H57.3121L57.3121 263.344H58.0621ZM57.6871 237.979H68.4151V237.229H57.6871V237.979ZM68.4151 237.979C71.0216 237.979 72.9442 238.778 74.248 240.329L74.8221 239.846C73.342 238.086 71.1846 237.229 68.4151 237.229V237.979ZM74.2504 240.332C75.339 241.602 75.8881 243.145 75.8881 244.984H76.6381C76.6381 242.982 76.0352 241.262 74.8198 239.844L74.2504 240.332ZM75.8881 244.984C75.8881 247.308 75.2165 249.059 73.917 250.292L74.4331 250.836C75.9176 249.428 76.6381 247.459 76.6381 244.984H75.8881ZM73.917 250.292C72.6201 251.521 70.653 252.169 67.9471 252.169V252.919C70.7611 252.919 72.946 252.246 74.4331 250.836L73.917 250.292ZM67.9471 252.169H60.9271V252.919H67.9471V252.169ZM60.5521 252.544V263.344H61.3021V252.544H60.5521ZM60.9271 262.969H57.6871V263.719H60.9271L60.9271 262.969ZM60.5521 240.412V249.916H61.3021V240.412H60.5521ZM60.9271 250.291H67.6951V249.541H60.9271V250.291ZM67.6951 250.291C69.5238 250.291 70.9651 249.859 71.9488 248.928L71.4334 248.383C70.641 249.133 69.4183 249.541 67.6951 249.541V250.291ZM71.9451 248.932C72.9508 248.005 73.4341 246.72 73.4341 245.128H72.6841C72.6841 246.56 72.2554 247.626 71.437 248.38L71.9451 248.932ZM73.4341 245.128C73.4341 243.515 72.9522 242.234 71.937 241.353L71.4452 241.919C72.2539 242.621 72.6841 243.669 72.6841 245.128H73.4341ZM71.9448 241.36C70.9653 240.46 69.5897 240.037 67.8751 240.037V240.787C69.4725 240.787 70.6408 241.18 71.4373 241.912L71.9448 241.36ZM67.8751 240.037H60.9271V240.787H67.8751V240.037ZM73.9177 263.344L73.5658 263.214L73.3802 263.719H73.9177V263.344ZM83.3857 237.604V237.229H83.1241L83.0338 237.474L83.3857 237.604ZM87.0217 237.604L87.3735 237.474L87.283 237.229H87.0217V237.604ZM96.5257 263.344V263.719H97.0639L96.8775 263.214L96.5257 263.344ZM92.9977 263.344L92.6436 263.467L92.7313 263.719H92.9977V263.344ZM90.2617 255.496L90.6158 255.372L90.5281 255.121H90.2617V255.496ZM80.0017 255.496V255.121H79.7365L79.6481 255.371L80.0017 255.496ZM77.2297 263.344V263.719H77.495L77.5833 263.469L77.2297 263.344ZM83.9977 244.228L84.3512 244.353L84.3526 244.349L83.9977 244.228ZM80.9377 252.868L80.5842 252.743L80.4071 253.243H80.9377V252.868ZM89.3617 252.868V253.243H89.8861L89.7166 252.747L89.3617 252.868ZM86.4097 244.228L86.0522 244.341L86.0549 244.349L86.4097 244.228ZM85.2577 240.592L85.6152 240.478L85.5323 240.217H85.2577V240.592ZM85.1857 240.592V240.217H84.9111L84.8282 240.479L85.1857 240.592ZM74.2697 263.473L83.7377 237.733L83.0338 237.474L73.5658 263.214L74.2697 263.473ZM83.3857 237.979H87.0217V237.229H83.3857V237.979ZM86.6699 237.734L96.1739 263.474L96.8775 263.214L87.3735 237.474L86.6699 237.734ZM96.5257 262.969H92.9977V263.719H96.5257V262.969ZM93.3518 263.22L90.6158 255.372L89.9076 255.619L92.6436 263.467L93.3518 263.22ZM90.2617 255.121H80.0017V255.871H90.2617V255.121ZM79.6481 255.371L76.8761 263.219L77.5833 263.469L80.3553 255.621L79.6481 255.371ZM77.2297 262.969H73.9177V263.719H77.2297V262.969ZM83.6442 244.103L80.5842 252.743L81.2912 252.993L84.3512 244.353L83.6442 244.103ZM80.9377 253.243H89.3617V252.493H80.9377V253.243ZM89.7166 252.747L86.7646 244.107L86.0549 244.349L89.0069 252.989L89.7166 252.747ZM86.7672 244.114L85.6152 240.478L84.9002 240.705L86.0522 244.341L86.7672 244.114ZM85.2577 240.217H85.1857V240.967H85.2577V240.217ZM84.8282 240.479C84.3727 241.917 83.9776 243.126 83.6429 244.107L84.3526 244.349C84.6898 243.361 85.0867 242.147 85.5432 240.705L84.8282 240.479ZM93.0191 240.448H92.6441V240.823H93.0191V240.448ZM93.0191 237.604V237.229H92.6441V237.604H93.0191ZM113.395 237.604H113.77V237.229H113.395V237.604ZM113.395 240.448V240.823H113.77V240.448H113.395ZM104.827 240.448V240.073H104.452V240.448H104.827ZM104.827 263.344V263.719H105.202V263.344H104.827ZM101.587 263.344H101.212V263.719H101.587V263.344ZM101.587 240.448H101.962V240.073H101.587V240.448ZM93.3941 240.448V237.604H92.6441V240.448H93.3941ZM93.0191 237.979H113.395V237.229H93.0191V237.979ZM113.02 237.604V240.448H113.77V237.604H113.02ZM113.395 240.073H104.827V240.823H113.395V240.073ZM104.452 240.448V263.344H105.202V240.448H104.452ZM104.827 262.969H101.587V263.719H104.827V262.969ZM101.962 263.344V240.448H101.212V263.344H101.962ZM101.587 240.073H93.0191V240.823H101.587V240.073ZM115.244 263.344H114.869V263.719H115.244V263.344ZM115.244 237.604V237.229H114.869V237.604H115.244ZM118.484 237.604H118.859V237.229H118.484V237.604ZM118.484 263.344V263.719H118.859V263.344H118.484ZM115.619 263.344V237.604H114.869V263.344H115.619ZM115.244 237.979H118.484V237.229H115.244V237.979ZM118.109 237.604V263.344H118.859V237.604H118.109ZM118.484 262.969H115.244V263.719H118.484V262.969ZM121.923 263.344H121.548V263.719H121.923V263.344ZM121.923 237.604V237.229H121.548V237.604H121.923ZM140.103 237.604H140.478V237.229H140.103V237.604ZM140.103 240.448V240.823H140.478V240.448H140.103ZM125.163 240.448V240.073H124.788V240.448H125.163ZM125.163 248.584H124.788V248.959H125.163V248.584ZM138.735 248.584H139.11V248.209H138.735V248.584ZM138.735 251.32V251.695H139.11V251.32H138.735ZM125.163 251.32V250.945H124.788V251.32H125.163ZM125.163 260.356H124.788V260.731H125.163V260.356ZM140.535 260.356H140.91V259.981H140.535V260.356ZM140.535 263.344V263.719H140.91V263.344H140.535ZM122.298 263.344V237.604H121.548V263.344H122.298ZM121.923 237.979L140.103 237.979V237.229L121.923 237.229V237.979ZM139.728 237.604V240.448H140.478V237.604H139.728ZM140.103 240.073H125.163V240.823H140.103V240.073ZM124.788 240.448V248.584H125.538V240.448H124.788ZM125.163 248.959H138.735V248.209H125.163V248.959ZM138.36 248.584V251.32H139.11V248.584H138.36ZM138.735 250.945H125.163V251.695H138.735V250.945ZM124.788 251.32V260.356H125.538V251.32H124.788ZM125.163 260.731H140.535V259.981H125.163V260.731ZM140.16 260.356V263.344H140.91V260.356H140.16ZM140.535 262.969H121.923V263.719H140.535V262.969ZM142.878 263.344H142.503V263.719H142.878V263.344ZM142.878 237.604V237.229H142.503V237.604H142.878ZM146.298 237.604L146.611 237.398L146.5 237.229H146.298V237.604ZM158.034 255.496L158.36 255.311L158.354 255.3L158.347 255.29L158.034 255.496ZM159.906 258.808L159.579 258.992L159.687 259.183H159.906V258.808ZM159.978 258.808V259.183H160.353V258.808H159.978ZM159.978 237.604V237.229H159.603V237.604H159.978ZM163.002 237.604H163.377V237.229H163.002V237.604ZM163.002 263.344V263.719H163.377V263.344H163.002ZM159.69 263.344L159.377 263.55L159.488 263.719H159.69V263.344ZM147.882 245.416L147.56 245.608L147.564 245.615L147.569 245.622L147.882 245.416ZM145.974 242.212L146.296 242.02L146.187 241.837H145.974V242.212ZM145.902 242.212V241.837H145.527V242.212H145.902ZM145.902 263.344V263.719H146.277V263.344H145.902ZM143.253 263.344V237.604H142.503V263.344H143.253ZM142.878 237.979H146.298V237.229H142.878V237.979ZM145.984 237.809L157.72 255.701L158.347 255.29L146.611 237.398L145.984 237.809ZM157.707 255.68L159.579 258.992L160.232 258.623L158.36 255.311L157.707 255.68ZM159.906 259.183H159.978V258.433H159.906V259.183ZM160.353 258.808V237.604H159.603V258.808H160.353ZM159.978 237.979H163.002V237.229H159.978V237.979ZM162.627 237.604V263.344H163.377V237.604H162.627ZM163.002 262.969H159.69V263.719H163.002V262.969ZM160.003 263.137L148.195 245.209L147.569 245.622L159.377 263.55L160.003 263.137ZM148.204 245.224L146.296 242.02L145.652 242.404L147.56 245.608L148.204 245.224ZM145.974 241.837H145.902V242.587H145.974V241.837ZM145.527 242.212V263.344H146.277V242.212H145.527ZM145.902 262.969H142.878V263.719H145.902V262.969ZM164.779 240.448H164.404V240.823H164.779V240.448ZM164.779 237.604V237.229H164.404V237.604H164.779ZM185.155 237.604H185.53V237.229H185.155V237.604ZM185.155 240.448V240.823H185.53V240.448H185.155ZM176.587 240.448V240.073H176.212V240.448H176.587ZM176.587 263.344V263.719H176.962V263.344H176.587ZM173.347 263.344H172.972V263.719H173.347V263.344ZM173.347 240.448H173.722V240.073H173.347V240.448ZM165.154 240.448V237.604H164.404V240.448H165.154ZM164.779 237.979H185.155V237.229H164.779V237.979ZM184.78 237.604V240.448H185.53V237.604H184.78ZM185.155 240.073H176.587V240.823H185.155V240.073ZM176.212 240.448V263.344H176.962V240.448H176.212ZM176.587 262.969H173.347V263.719H176.587V262.969ZM173.722 263.344V240.448H172.972V263.344H173.722ZM173.347 240.073H164.779V240.823H173.347V240.073Z" fill="#344899"/>
<path d="M266.113 358.25H265.738V358.625H266.113V358.25ZM266.113 332.51V332.135H265.738V332.51H266.113ZM269.353 332.51H269.728V332.135H269.353V332.51ZM269.353 358.25V358.625H269.728V358.25H269.353ZM266.488 358.25V332.51H265.738V358.25H266.488ZM266.113 332.885H269.353V332.135H266.113V332.885ZM268.978 332.51V358.25H269.728V332.51H268.978ZM269.353 357.875H266.113V358.625H269.353V357.875ZM272.793 358.25H272.418V358.625H272.793V358.25ZM272.793 332.51V332.135H272.418V332.51H272.793ZM276.933 332.51L277.282 332.374L277.189 332.135H276.933V332.51ZM285.285 353.894L284.935 354.03L285.029 354.269H285.285V353.894ZM285.357 353.894V354.269H285.614L285.706 354.029L285.357 353.894ZM293.637 332.51V332.135H293.38L293.287 332.375L293.637 332.51ZM297.849 332.51H298.224V332.135H297.849V332.51ZM297.849 358.25V358.625H298.224V358.25H297.849ZM294.753 358.25H294.378V358.625H294.753V358.25ZM294.753 337.082H295.128V336.707H294.753V337.082ZM294.681 337.082V336.707H294.412L294.326 336.962L294.681 337.082ZM293.529 340.322L293.878 340.459L293.879 340.456L293.529 340.322ZM286.473 358.25V358.625H286.728L286.822 358.387L286.473 358.25ZM283.989 358.25L283.64 358.387L283.733 358.625H283.989V358.25ZM276.933 340.322L276.579 340.448L276.584 340.459L276.933 340.322ZM275.781 337.082L276.134 336.956L276.045 336.707H275.781V337.082ZM275.709 337.082V336.707H275.334V337.082H275.709ZM275.709 358.25V358.625H276.084V358.25H275.709ZM273.168 358.25V332.51H272.418V358.25H273.168ZM272.793 332.885H276.933V332.135H272.793V332.885ZM276.583 332.646L284.935 354.03L285.634 353.758L277.282 332.374L276.583 332.646ZM285.285 354.269H285.357V353.519H285.285V354.269ZM285.706 354.029L293.986 332.645L293.287 332.375L285.007 353.759L285.706 354.029ZM293.637 332.885H297.849V332.135H293.637V332.885ZM297.474 332.51V358.25H298.224V332.51H297.474ZM297.849 357.875H294.753V358.625H297.849V357.875ZM295.128 358.25V337.082H294.378V358.25H295.128ZM294.753 336.707H294.681V337.457H294.753V336.707ZM294.326 336.962C293.87 338.303 293.488 339.378 293.178 340.188L293.879 340.456C294.193 339.634 294.579 338.549 295.036 337.202L294.326 336.962ZM293.18 340.185L286.124 358.113L286.822 358.387L293.878 340.459L293.18 340.185ZM286.473 357.875H283.989V358.625H286.473V357.875ZM284.338 358.113L277.282 340.185L276.584 340.459L283.64 358.387L284.338 358.113ZM277.286 340.196L276.134 336.956L275.427 337.208L276.579 340.448L277.286 340.196ZM275.781 336.707H275.709V337.457H275.781V336.707ZM275.334 337.082V358.25H276.084V337.082H275.334ZM275.709 357.875H272.793V358.625H275.709V357.875ZM301.236 358.25H300.861V358.625H301.236V358.25ZM301.236 332.51V332.135H300.861V332.51H301.236ZM318.084 334.994L317.796 335.235L317.799 335.238L318.084 334.994ZM317.724 345.47L317.982 345.742L317.724 345.47ZM304.476 347.45V347.075H304.101V347.45H304.476ZM304.476 358.25V358.625H304.851V358.25H304.476ZM304.476 335.318V334.943H304.101V335.318H304.476ZM304.476 344.822H304.101V345.197H304.476V344.822ZM315.24 343.562L314.985 343.286L314.982 343.29L315.24 343.562ZM315.24 336.542L314.986 336.818L314.994 336.825L315.24 336.542ZM301.611 358.25V332.51H300.861V358.25H301.611ZM301.236 332.885H311.964V332.135H301.236V332.885ZM311.964 332.885C314.57 332.885 316.493 333.684 317.796 335.235L318.371 334.753C316.89 332.992 314.733 332.135 311.964 332.135V332.885ZM317.799 335.238C318.887 336.508 319.437 338.051 319.437 339.89H320.187C320.187 337.889 319.584 336.168 318.368 334.75L317.799 335.238ZM319.437 339.89C319.437 342.215 318.765 343.966 317.465 345.198L317.982 345.742C319.466 344.334 320.187 342.365 320.187 339.89H319.437ZM317.465 345.198C316.169 346.428 314.201 347.075 311.496 347.075V347.825C314.31 347.825 316.494 347.152 317.982 345.742L317.465 345.198ZM311.496 347.075H304.476V347.825H311.496V347.075ZM304.101 347.45V358.25H304.851V347.45H304.101ZM304.476 357.875H301.236V358.625H304.476V357.875ZM304.101 335.318V344.822H304.851V335.318H304.101ZM304.476 345.197H311.244V344.447H304.476V345.197ZM311.244 345.197C313.072 345.197 314.514 344.765 315.497 343.834L314.982 343.29C314.189 344.039 312.967 344.447 311.244 344.447V345.197ZM315.494 343.838C316.499 342.912 316.983 341.626 316.983 340.034H316.233C316.233 341.466 315.804 342.532 314.985 343.286L315.494 343.838ZM316.983 340.034C316.983 338.421 316.501 337.141 315.485 336.259L314.994 336.825C315.802 337.527 316.233 338.575 316.233 340.034H316.983ZM315.493 336.266C314.514 335.366 313.138 334.943 311.424 334.943V335.693C313.021 335.693 314.189 336.086 314.986 336.818L315.493 336.266ZM311.424 334.943H304.476V335.693H311.424V334.943ZM317.466 358.25L317.114 358.121L316.929 358.625H317.466V358.25ZM326.934 332.51V332.135H326.673L326.582 332.381L326.934 332.51ZM330.57 332.51L330.922 332.38L330.831 332.135H330.57V332.51ZM340.074 358.25V358.625H340.612L340.426 358.12L340.074 358.25ZM336.546 358.25L336.192 358.373L336.28 358.625H336.546V358.25ZM333.81 350.402L334.164 350.279L334.077 350.027H333.81V350.402ZM323.55 350.402V350.027H323.285L323.197 350.277L323.55 350.402ZM320.778 358.25V358.625H321.043L321.132 358.375L320.778 358.25ZM327.546 339.134L327.9 339.259L327.901 339.255L327.546 339.134ZM324.486 347.774L324.133 347.649L323.956 348.149H324.486V347.774ZM332.91 347.774V348.149H333.435L333.265 347.653L332.91 347.774ZM329.958 339.134L329.601 339.247L329.603 339.255L329.958 339.134ZM328.806 335.498L329.164 335.385L329.081 335.123H328.806V335.498ZM328.734 335.498V335.123H328.46L328.377 335.385L328.734 335.498ZM317.818 358.379L327.286 332.639L326.582 332.381L317.114 358.121L317.818 358.379ZM326.934 332.885H330.57V332.135H326.934V332.885ZM330.218 332.64L339.722 358.38L340.426 358.12L330.922 332.38L330.218 332.64ZM340.074 357.875H336.546V358.625H340.074V357.875ZM336.9 358.127L334.164 350.279L333.456 350.525L336.192 358.373L336.9 358.127ZM333.81 350.027H323.55V350.777H333.81V350.027ZM323.197 350.277L320.425 358.125L321.132 358.375L323.904 350.527L323.197 350.277ZM320.778 357.875H317.466V358.625H320.778V357.875ZM327.193 339.009L324.133 347.649L324.84 347.899L327.9 339.259L327.193 339.009ZM324.486 348.149H332.91V347.399H324.486V348.149ZM333.265 347.653L330.313 339.013L329.603 339.255L332.555 347.895L333.265 347.653ZM330.316 339.021L329.164 335.385L328.449 335.611L329.601 339.247L330.316 339.021ZM328.806 335.123H328.734V335.873H328.806V335.123ZM328.377 335.385C327.921 336.823 327.526 338.032 327.191 339.013L327.901 339.255C328.238 338.268 328.635 337.053 329.092 335.611L328.377 335.385ZM342.496 355.01L342.215 355.258L342.496 355.01ZM342.46 335.75L342.177 335.504L342.177 335.504L342.46 335.75ZM358.48 334.202L358.721 333.915V333.915L358.48 334.202ZM361.72 340.142V340.517H362.154L362.091 340.087L361.72 340.142ZM358.552 340.142L358.184 340.212L358.242 340.517H358.552V340.142ZM356.176 336.218L355.944 336.512L355.947 336.515L356.176 336.218ZM344.836 337.73L345.13 337.963L345.132 337.961L344.836 337.73ZM344.908 353.03L344.619 353.269L344.623 353.273L344.908 353.03ZM356.68 353.894L356.408 353.636L356.405 353.639L356.68 353.894ZM358.84 348.818V348.443H358.495L358.467 348.787L358.84 348.818ZM362.044 348.818L362.419 348.825L362.426 348.443H362.044V348.818ZM361.144 352.742L360.8 352.594L360.798 352.597L361.144 352.742ZM358.948 356.054L358.687 355.785L358.687 355.785L358.948 356.054ZM351.244 358.379C347.717 358.379 344.907 357.169 342.777 354.762L342.215 355.258C344.501 357.843 347.523 359.129 351.244 359.129V358.379ZM342.777 354.762C340.64 352.346 339.559 349.224 339.559 345.362H338.809C338.809 349.372 339.936 352.682 342.215 355.258L342.777 354.762ZM339.559 345.362C339.559 341.548 340.628 338.436 342.744 335.996L342.177 335.504C339.924 338.104 338.809 341.4 338.809 345.362H339.559ZM342.743 335.996C344.872 333.544 347.739 332.309 351.388 332.309V331.559C347.549 331.559 344.465 332.868 342.177 335.504L342.743 335.996ZM351.388 332.309C354.25 332.309 356.522 333.047 358.239 334.489L358.721 333.915C356.839 332.333 354.382 331.559 351.388 331.559V332.309ZM358.239 334.489C359.965 335.939 361.002 337.834 361.349 340.197L362.091 340.087C361.719 337.554 360.596 335.489 358.721 333.915L358.239 334.489ZM361.72 339.767H358.552V340.517H361.72V339.767ZM358.921 340.072C358.592 338.353 357.753 336.963 356.406 335.921L355.947 336.515C357.144 337.441 357.889 338.667 358.184 340.212L358.921 340.072ZM356.408 335.924C355.079 334.875 353.371 334.367 351.316 334.367V335.117C353.246 335.117 354.778 335.593 355.944 336.512L356.408 335.924ZM351.316 334.367C348.453 334.367 346.179 335.407 344.541 337.499L345.132 337.961C346.613 336.069 348.66 335.117 351.316 335.117V334.367ZM344.542 337.497C342.918 339.546 342.121 342.178 342.121 345.362H342.871C342.871 342.306 343.634 339.85 345.13 337.963L344.542 337.497ZM342.121 345.362C342.121 348.594 342.943 351.242 344.619 353.269L345.197 352.791C343.658 350.93 342.871 348.466 342.871 345.362H342.121ZM344.623 353.273C346.33 355.282 348.585 356.285 351.352 356.285V355.535C348.791 355.535 346.75 354.618 345.194 352.787L344.623 353.273ZM351.352 356.285C353.732 356.285 355.619 355.588 356.955 354.149L356.405 353.639C355.246 354.888 353.581 355.535 351.352 355.535V356.285ZM356.953 354.152C358.29 352.739 359.04 350.964 359.214 348.849L358.467 348.787C358.305 350.752 357.615 352.361 356.408 353.636L356.953 354.152ZM358.84 349.193H362.044V348.443H358.84V349.193ZM361.669 348.811C361.646 350.028 361.359 351.288 360.8 352.594L361.489 352.89C362.081 351.508 362.394 350.152 362.419 348.825L361.669 348.811ZM360.798 352.597C360.263 353.877 359.558 354.937 358.687 355.785L359.21 356.323C360.162 355.395 360.921 354.247 361.49 352.887L360.798 352.597ZM358.687 355.785C356.926 357.5 354.463 358.379 351.244 358.379V359.129C354.602 359.129 357.274 358.208 359.21 356.323L358.687 355.785ZM361.706 335.354H361.331V335.729H361.706V335.354ZM361.706 332.51V332.135H361.331V332.51H361.706ZM382.082 332.51H382.457V332.135H382.082V332.51ZM382.082 335.354V335.729H382.457V335.354H382.082ZM373.514 335.354V334.979H373.139V335.354H373.514ZM373.514 358.25V358.625H373.889V358.25H373.514ZM370.274 358.25H369.899V358.625H370.274V358.25ZM370.274 335.354H370.649V334.979H370.274V335.354ZM362.081 335.354V332.51H361.331V335.354H362.081ZM361.706 332.885H382.082V332.135H361.706V332.885ZM381.707 332.51V335.354H382.457V332.51H381.707ZM382.082 334.979H373.514V335.729H382.082V334.979ZM373.139 335.354V358.25H373.889V335.354H373.139ZM373.514 357.875H370.274V358.625H373.514V357.875ZM370.649 358.25V335.354H369.899V358.25H370.649ZM370.274 334.979H361.706V335.729H370.274V334.979Z" fill="#344899"/>
</svg>
