<svg width="397" height="388" viewBox="0 0 397 388" fill="none" xmlns="http://www.w3.org/2000/svg">
<rect width="397" height="388" fill="#4773CD"/>
<path d="M156.978 37.0703V11.3303L160.398 11.3303L172.134 29.2223L174.006 32.5343H174.078V11.3303H177.102V37.0703H173.79L161.982 19.1423L160.074 15.9383H160.002V37.0703H156.978ZM180.499 37.0703V11.3303L198.679 11.3303V14.1743L183.739 14.1743V22.3103H197.311V25.0463H183.739V34.0823H199.111V37.0703H180.499ZM206.206 37.0703L199.546 11.3303H202.93L206.998 28.0703L207.97 32.4263H208.042C208.45 30.6023 208.81 29.1263 209.122 27.9983L213.766 11.3303L217.258 11.3303L221.758 27.9983L222.802 32.4263H222.874C223.282 30.5783 223.618 29.1263 223.882 28.0703L228.166 11.3303H231.442L224.278 37.0703L221.182 37.0703L216.466 18.9263L215.53 15.0023H215.458C215.098 16.6103 214.774 17.9183 214.486 18.9263L209.446 37.0703H206.206Z" fill="white"/>
<path d="M9.10219 37.0703L18.5702 11.3303H22.2062L31.7102 37.0703H28.1822L25.4462 29.2223L15.1862 29.2223L12.4142 37.0703H9.10219ZM19.1822 17.9543L16.1222 26.5943H24.5462L21.5942 17.9543L20.4422 14.3183H20.3702C19.9142 15.7583 19.5182 16.9703 19.1822 17.9543Z" fill="white"/>
<path d="M112.711 203.383V203.383C112.711 171.898 138.235 146.375 169.719 146.375H226.732" stroke="#D3BBDB" stroke-width="3"/>
<path d="M190.683 146.375H300.084C327.396 146.375 349.537 124.234 349.537 96.9222V96.9222C349.537 69.6102 327.396 47.4694 300.084 47.4694L8.30957 47.4694" stroke="#D3BBDB" stroke-width="3"/>
<path d="M171.821 132.83C169.541 135.35 166.493 136.61 162.677 136.61C158.861 136.61 155.801 135.35 153.497 132.83C151.217 130.31 150.077 127.094 150.077 123.182C150.077 119.27 151.217 116.054 153.497 113.534C155.801 111.014 158.861 109.754 162.677 109.754C166.493 109.754 169.541 111.014 171.821 113.534C174.125 116.054 175.277 119.27 175.277 123.182C175.277 127.094 174.125 130.31 171.821 132.83ZM155.837 130.814C157.469 132.782 159.749 133.766 162.677 133.766C165.605 133.766 167.885 132.782 169.517 130.814C171.149 128.846 171.965 126.302 171.965 123.182C171.965 120.062 171.149 117.518 169.517 115.55C167.885 113.558 165.605 112.562 162.677 112.562C159.749 112.562 157.469 113.558 155.837 115.55C154.205 117.518 153.389 120.062 153.389 123.182C153.389 126.302 154.205 128.846 155.837 130.814ZM177.699 136.07V110.33H181.119L192.855 128.222L194.727 131.534H194.799V110.33H197.823V136.07H194.511L182.703 118.142L180.795 114.938H180.723V136.07H177.699ZM207.748 136.07L217.216 110.33H220.852L230.356 136.07H226.828L224.092 128.222L213.832 128.222L211.06 136.07H207.748ZM217.828 116.954L214.768 125.594H223.192L220.24 116.954L219.088 113.318H219.016C218.56 114.758 218.164 115.97 217.828 116.954Z" fill="white"/>
<path d="M110.699 262.648V236.908H120.059C123.827 236.908 126.671 238.072 128.591 240.4C130.511 242.728 131.471 245.884 131.471 249.868C131.471 253.828 130.475 256.948 128.483 259.228C126.491 261.508 123.599 262.648 119.807 262.648H110.699ZM113.939 259.804H119.699C125.339 259.804 128.159 256.492 128.159 249.868C128.159 243.1 125.423 239.716 119.951 239.716H113.939V259.804ZM133.868 262.648V236.908H152.048V239.752H137.108V247.888H150.68V250.624H137.108V259.66H152.48V262.648H133.868ZM165.383 263.152C161.759 263.152 158.843 261.904 156.635 259.408C154.427 256.912 153.323 253.696 153.323 249.76C153.323 245.872 154.415 242.668 156.599 240.148C158.807 237.604 161.783 236.332 165.527 236.332C168.455 236.332 170.819 237.088 172.619 238.6C174.419 240.112 175.499 242.092 175.859 244.54H172.691C172.379 242.908 171.587 241.6 170.315 240.616C169.067 239.632 167.447 239.14 165.455 239.14C162.695 239.14 160.535 240.136 158.975 242.128C157.415 244.096 156.635 246.64 156.635 249.76C156.635 252.928 157.439 255.484 159.047 257.428C160.679 259.348 162.827 260.308 165.491 260.308C167.795 260.308 169.571 259.636 170.819 258.292C172.091 256.948 172.811 255.256 172.979 253.216H176.183C176.159 254.488 175.859 255.796 175.283 257.14C174.731 258.46 173.999 259.564 173.087 260.452C171.239 262.252 168.671 263.152 165.383 263.152ZM175.799 262.648L185.267 236.908L188.903 236.908L198.407 262.648H194.879L192.143 254.8H181.883L179.111 262.648H175.799ZM185.879 243.532L182.819 252.172H191.243L188.291 243.532L187.139 239.896H187.067C186.611 241.336 186.215 242.548 185.879 243.532ZM199.755 262.648V236.908H209.115C212.883 236.908 215.727 238.072 217.647 240.4C219.567 242.728 220.527 245.884 220.527 249.868C220.527 253.828 219.531 256.948 217.539 259.228C215.547 261.508 212.655 262.648 208.863 262.648H199.755ZM202.995 259.804H208.755C214.395 259.804 217.215 256.492 217.215 249.868C217.215 243.1 214.479 239.716 209.007 239.716H202.995V259.804ZM222.925 262.648V236.908H241.105V239.752H226.165V247.888H239.737V250.624H226.165V259.66H241.537V262.648H222.925ZM252.887 263.152C249.431 263.152 246.767 262.3 244.895 260.596C243.047 258.892 242.051 256.672 241.907 253.936H245.075C245.507 258.352 248.159 260.56 253.031 260.56C254.879 260.56 256.355 260.152 257.459 259.336C258.587 258.496 259.151 257.296 259.151 255.736C259.151 255.04 259.019 254.428 258.755 253.9C258.491 253.372 258.167 252.94 257.783 252.604C257.423 252.268 256.871 251.956 256.127 251.668C255.383 251.38 254.687 251.152 254.039 250.984C253.415 250.816 252.551 250.612 251.447 250.372C250.127 250.084 249.035 249.796 248.171 249.508C247.307 249.196 246.443 248.776 245.579 248.248C244.715 247.72 244.067 247.048 243.635 246.232C243.227 245.392 243.023 244.384 243.023 243.208C243.023 241.096 243.815 239.44 245.399 238.24C247.007 237.016 249.131 236.404 251.771 236.404C257.555 236.404 260.807 239.08 261.527 244.432H258.467C258.227 242.608 257.543 241.24 256.415 240.328C255.287 239.392 253.763 238.924 251.843 238.924C250.067 238.924 248.651 239.284 247.595 240.004C246.563 240.724 246.047 241.744 246.047 243.064C246.047 243.64 246.155 244.156 246.371 244.612C246.611 245.044 246.911 245.416 247.271 245.728C247.655 246.016 248.147 246.28 248.747 246.52C249.371 246.76 249.983 246.964 250.583 247.132C251.183 247.276 251.915 247.432 252.779 247.6C253.979 247.84 254.963 248.068 255.731 248.284C256.499 248.476 257.351 248.776 258.287 249.184C259.223 249.592 259.943 250.06 260.447 250.588C260.975 251.116 261.419 251.812 261.779 252.676C262.163 253.516 262.355 254.5 262.355 255.628C262.355 257.98 261.479 259.828 259.727 261.172C257.999 262.492 255.719 263.152 252.887 263.152ZM263.93 252.388V249.328H274.298V252.388H263.93ZM297.419 259.408C295.139 261.928 292.091 263.188 288.275 263.188C284.459 263.188 281.399 261.928 279.095 259.408C276.815 256.888 275.675 253.672 275.675 249.76C275.675 245.848 276.815 242.632 279.095 240.112C281.399 237.592 284.459 236.332 288.275 236.332C292.091 236.332 295.139 237.592 297.419 240.112C299.723 242.632 300.875 245.848 300.875 249.76C300.875 253.672 299.723 256.888 297.419 259.408ZM281.435 257.392C283.067 259.36 285.347 260.344 288.275 260.344C291.203 260.344 293.483 259.36 295.115 257.392C296.747 255.424 297.563 252.88 297.563 249.76C297.563 246.64 296.747 244.096 295.115 242.128C293.483 240.136 291.203 239.14 288.275 239.14C285.347 239.14 283.067 240.136 281.435 242.128C279.803 244.096 278.987 246.64 278.987 249.76C278.987 252.88 279.803 255.424 281.435 257.392ZM303.297 262.648V236.908H306.537V259.66H320.037V262.648H303.297ZM321.791 262.648V236.908H331.151C334.919 236.908 337.763 238.072 339.683 240.4C341.603 242.728 342.563 245.884 342.563 249.868C342.563 253.828 341.567 256.948 339.575 259.228C337.583 261.508 334.691 262.648 330.899 262.648H321.791ZM325.031 259.804H330.791C336.431 259.804 339.251 256.492 339.251 249.868C339.251 243.1 336.515 239.716 331.043 239.716H325.031V259.804Z" fill="white"/>
<path d="M35.6903 327.359L35.6903 301.619H39.8303L48.1823 323.003H48.2543L56.5343 301.619H60.7463V327.359H57.6503V306.191H57.5783C57.1223 307.535 56.7383 308.615 56.4263 309.431L49.3703 327.359H46.8863L39.8303 309.431L38.6783 306.191H38.6063V327.359H35.6903ZM71.4051 327.359V316.451L62.0811 301.619H65.6811L73.0611 313.859H73.1331L80.6211 301.619H84.0771L74.6451 316.523V327.359H71.4051ZM93.6742 327.863C90.2182 327.863 87.5542 327.011 85.6822 325.307C83.8342 323.603 82.8382 321.383 82.6942 318.647H85.8622C86.2942 323.063 88.9462 325.271 93.8182 325.271C95.6662 325.271 97.1422 324.863 98.2462 324.047C99.3742 323.207 99.9382 322.007 99.9382 320.447C99.9382 319.751 99.8062 319.139 99.5422 318.611C99.2782 318.083 98.9542 317.651 98.5702 317.315C98.2102 316.979 97.6582 316.667 96.9142 316.379C96.1702 316.091 95.4742 315.863 94.8262 315.695C94.2022 315.527 93.3382 315.323 92.2342 315.083C90.9142 314.795 89.8222 314.507 88.9582 314.219C88.0942 313.907 87.2302 313.487 86.3662 312.959C85.5022 312.431 84.8542 311.759 84.4222 310.943C84.0142 310.103 83.8102 309.095 83.8102 307.919C83.8102 305.807 84.6022 304.151 86.1862 302.951C87.7942 301.727 89.9182 301.115 92.5582 301.115C98.3422 301.115 101.594 303.791 102.314 309.143H99.2542C99.0142 307.319 98.3302 305.951 97.2022 305.039C96.0742 304.103 94.5502 303.635 92.6302 303.635C90.8542 303.635 89.4382 303.995 88.3822 304.715C87.3502 305.435 86.8342 306.455 86.8342 307.775C86.8342 308.351 86.9422 308.867 87.1582 309.323C87.3982 309.755 87.6982 310.127 88.0582 310.439C88.4422 310.727 88.9342 310.991 89.5342 311.231C90.1582 311.471 90.7702 311.675 91.3702 311.843C91.9702 311.987 92.7022 312.143 93.5662 312.311C94.7662 312.551 95.7502 312.779 96.5182 312.995C97.2862 313.187 98.1382 313.487 99.0742 313.895C100.01 314.303 100.73 314.771 101.234 315.299C101.762 315.827 102.206 316.523 102.566 317.387C102.95 318.227 103.142 319.211 103.142 320.339C103.142 322.691 102.266 324.539 100.514 325.883C98.7862 327.203 96.5062 327.863 93.6742 327.863ZM102.524 304.463V301.619H122.9V304.463H114.332V327.359H111.092V304.463H102.524ZM124.676 327.359V301.619H142.856V304.463H127.916V312.599H141.488V315.335H127.916V324.371H143.288V327.359H124.676ZM145.631 327.359V301.619H157.655C159.911 301.619 161.735 302.267 163.127 303.563C164.543 304.859 165.251 306.563 165.251 308.675C165.251 311.963 163.763 314.087 160.787 315.047V315.155C162.059 315.611 162.959 316.331 163.487 317.315C164.039 318.275 164.375 319.739 164.495 321.707C164.735 324.995 165.131 326.831 165.683 327.215V327.359H162.191C161.927 327.143 161.735 326.687 161.615 325.991C161.519 325.295 161.399 323.831 161.255 321.599C161.135 319.727 160.667 318.407 159.851 317.639C159.059 316.871 157.787 316.487 156.035 316.487H148.871V327.359H145.631ZM148.871 304.427V313.859H156.503C158.279 313.859 159.623 313.451 160.535 312.635C161.447 311.795 161.903 310.631 161.903 309.143C161.903 307.535 161.495 306.347 160.679 305.579C159.863 304.811 158.531 304.427 156.683 304.427H148.871ZM174.49 327.359V316.451L165.166 301.619H168.766L176.146 313.859H176.218L183.706 301.619H187.162L177.73 316.523V327.359H174.49Z" fill="white"/>
<path d="M370.244 95.0872V101.863C370.231 105.507 372.069 107.236 375.023 107.242C378.124 107.242 379.751 105.341 379.751 102.055V95.1L370.244 95.0872ZM382.578 91.8586L382.565 102.604C382.565 105.309 381.659 107.395 380.07 108.729C378.807 109.807 377.109 110.458 375.163 110.452C370.442 110.452 367.596 107.74 367.602 102.112V95.0808L356.8 95.0681V91.8203L382.578 91.8522V91.8586Z" fill="#292D74"/>
<path d="M381.029 118.891L375.018 136.074L372.332 135.136L377.264 121.016L369.575 118.323L365.09 131.155L362.506 130.249L366.991 117.424L358.448 114.437L353.369 128.966L350.542 127.977L356.699 110.386L381.029 118.891Z" fill="#292D74"/>
<path d="M357.65 140.716L352.616 146.465C350.236 149.177 350.408 151.723 352.603 153.643C354.964 155.71 357.101 155.672 359.603 152.826L364.758 146.943L357.656 140.716H357.65ZM369.001 146.356L361.064 155.411C358.071 158.824 353.905 159.252 350.733 156.47C348.373 154.402 347.601 151.901 348.883 148.902L348.8 148.832C346.363 150.191 344.461 149.63 341.418 147.301C338.113 144.787 337.041 144.423 336.485 144.557L336.377 144.461L338.68 141.833C339.389 141.737 340.193 142.292 343.638 144.927C346.65 147.231 348.653 146.975 350.931 144.372L355.659 138.98L347.473 131.802L349.61 129.365L368.988 146.356H369.001Z" fill="#292D74"/>
<path d="M340.467 152.094L337.634 153.524C335.279 149.823 331.872 149 327.533 151.195C324.349 152.803 322.792 155.406 324.241 158.271C325.836 161.423 328.975 160.766 333.55 159.585C338.061 158.437 342.119 157.837 344.314 162.182C346.235 165.979 344.231 169.858 339.567 172.213C333.805 175.122 329.945 173.399 327.22 169.443L329.958 168.059C332.038 171.128 334.986 171.696 338.367 169.992C341.487 168.416 342.878 166.055 341.679 163.675C340.364 161.072 337.397 161.595 333.614 162.661C328.688 164.02 324.049 164.99 321.427 159.809C319.251 155.495 321.535 151.31 326.493 148.808C332.963 145.541 337.87 147.583 340.473 152.088" fill="#292D74"/>
<path d="M316.248 167.119L309.523 167.929C305.905 168.363 304.412 170.399 304.763 173.334C305.133 176.409 307.226 177.794 310.487 177.398L317.391 176.563L316.248 167.113V167.119ZM320.951 178.968L310.283 180.257C307.596 180.582 305.414 179.938 303.902 178.521C302.677 177.398 301.828 175.797 301.598 173.863C301.031 169.174 303.372 166.022 308.955 165.352L315.936 164.509L314.641 153.771L317.863 153.382L320.951 178.974V178.968Z" fill="#292D74"/>
<path d="M298.369 180.573H280.165V177.72H295.128V169.572H281.537V166.835H295.128V157.787H279.731V154.795H298.369V180.573Z" fill="#292D74"/>
<path d="M278.92 167.702C278.92 175.276 274.377 181.153 266.701 181.153C260.678 181.153 257.041 177.688 256.352 172.935H259.523C260.135 176.144 262.694 178.339 266.771 178.339C272.431 178.339 275.602 173.758 275.602 167.702C275.602 161.647 272.106 157.136 266.733 157.136C261.865 157.136 259.561 160.454 259.236 164.238H256.026C256.065 161.679 257.29 158.795 259.127 156.989C260.933 155.222 263.562 154.284 266.842 154.284C274.16 154.284 278.92 159.873 278.92 167.696" fill="#292D74"/>
<path d="M256.344 180.573H235.938V177.72H244.52V154.795H247.762V177.72H256.344V180.573Z" fill="#292D74"/>
<path d="M234.104 154.795H230.856V180.573H234.104V154.795Z" fill="#292D74"/>
<path d="M229.46 180.574H225.963L219.621 161.394C219.225 160.207 218.613 157.936 218.613 157.936H218.542C218.542 157.936 217.93 160.246 217.534 161.394L211.262 180.574H207.874L216.922 154.797H220.489L229.466 180.574H229.46Z" fill="#292D74"/>
<path d="M206.521 180.573H188.317V177.72H203.279V169.572H189.682V166.835H203.279V157.787H187.883V154.795H206.521V180.573Z" fill="#292D74"/>
<path d="M112.714 203.383L112.714 226.547" stroke="#D3BBDB" stroke-width="3"/>
<path d="M112.711 271.273V293.938" stroke="#D3BBDB" stroke-width="3"/>
<circle cx="113.68" cy="358.734" r="20.0938" stroke="#D3BBDB" stroke-width="3"/>
</svg>
