<svg width="1920" height="1080" viewBox="0 0 1920 1080" fill="none" xmlns="http://www.w3.org/2000/svg">
<rect width="1920" height="1080" fill="#4773CD"/>
<mask id="mask0_1009_8323" style="mask-type:luminance" maskUnits="userSpaceOnUse" x="638" y="181" width="1198" height="516">
<path d="M1835.33 181.289H638.336V696.792H1835.33V181.289Z" fill="white"/>
</mask>
<g mask="url(#mask0_1009_8323)">
<path d="M1800.56 308.843V327.948C1800.52 338.22 1805.7 343.095 1814.03 343.113C1822.78 343.113 1827.36 337.752 1827.36 328.488V308.879L1800.56 308.843ZM1835.33 299.741L1835.3 330.035C1835.3 337.662 1832.74 343.545 1828.26 347.305C1824.7 350.345 1819.92 352.18 1814.43 352.162C1801.12 352.162 1793.09 344.516 1793.11 328.65V308.825L1762.66 308.789V299.633L1835.33 299.723V299.741Z" fill="#292D74"/>
</g>
<path d="M1830.96 375.972L1814.01 424.417L1806.44 421.773L1820.35 381.962L1798.67 374.371L1786.02 410.548L1778.74 407.993L1791.38 371.834L1767.3 363.415L1752.98 404.377L1745.01 401.589L1762.37 351.992L1830.96 375.972Z" fill="#292D74"/>
<path d="M1765.04 437.534L1750.85 453.743C1744.14 461.388 1744.62 468.566 1750.81 473.981C1757.47 479.809 1763.49 479.701 1770.54 471.678L1785.08 455.092L1765.06 437.534H1765.04ZM1797.04 453.437L1774.66 478.964C1766.23 488.588 1754.48 489.793 1745.54 481.95C1738.88 476.122 1736.71 469.07 1740.32 460.615L1740.09 460.417C1733.22 464.249 1727.86 462.665 1719.27 456.099C1709.96 449.012 1706.93 447.986 1705.37 448.364L1705.06 448.094L1711.56 440.682C1713.55 440.413 1715.82 441.978 1725.53 449.407C1734.03 455.901 1739.67 455.182 1746.1 447.842L1759.43 432.641L1736.35 412.403L1742.37 405.531L1797.01 453.437H1797.04Z" fill="#292D74"/>
<path d="M1716.59 469.604L1708.6 473.634C1701.96 463.2 1692.36 460.88 1680.13 467.068C1671.15 471.601 1666.76 478.941 1670.84 487.018C1675.34 495.905 1684.19 494.052 1697.09 490.724C1709.81 487.486 1721.25 485.795 1727.44 498.046C1732.85 508.749 1727.2 519.687 1714.05 526.325C1697.81 534.528 1686.93 529.671 1679.24 518.518L1686.96 514.614C1692.83 523.267 1701.14 524.868 1710.67 520.065C1719.47 515.621 1723.39 508.965 1720.01 502.255C1716.3 494.915 1707.94 496.391 1697.27 499.395C1683.38 503.227 1670.3 505.961 1662.91 491.354C1656.78 479.193 1663.22 467.392 1677.19 460.34C1695.43 451.129 1709.27 456.886 1716.61 469.586" fill="#292D74"/>
<path d="M1648.32 511.981L1629.36 514.266C1619.16 515.489 1614.95 521.228 1615.94 529.503C1616.98 538.174 1622.88 542.077 1632.07 540.962L1651.54 538.605L1648.32 511.963V511.981ZM1661.58 545.387L1631.5 549.021C1623.92 549.939 1617.77 548.122 1613.51 544.128C1610.06 540.962 1607.66 536.447 1607.01 530.996C1605.41 517.774 1612.02 508.887 1627.76 506.998L1647.44 504.623L1643.79 474.347L1652.87 473.25L1661.58 545.405V545.387Z" fill="#292D74"/>
<path d="M1597.92 549.872H1546.6V541.831H1588.78V518.859H1550.47V511.141H1588.78V485.632H1545.38V477.195H1597.92V549.872Z" fill="#292D74"/>
<path d="M1543.07 513.574C1543.07 534.927 1530.26 551.495 1508.62 551.495C1491.64 551.495 1481.38 541.727 1479.44 528.325H1488.38C1490.11 537.374 1497.32 543.562 1508.82 543.562C1524.77 543.562 1533.71 530.646 1533.71 513.574C1533.71 496.502 1523.86 483.783 1508.71 483.783C1494.98 483.783 1488.49 493.138 1487.57 503.806H1478.52C1478.63 496.592 1482.09 488.461 1487.27 483.37C1492.36 478.387 1499.77 475.742 1509.02 475.742C1529.65 475.742 1543.07 491.501 1543.07 513.556" fill="#292D74"/>
<path d="M1479.43 549.872H1421.9V541.831H1446.09V477.195H1455.23V541.831H1479.43V549.872Z" fill="#292D74"/>
<path d="M1416.73 477.195H1407.57V549.872H1416.73V477.195Z" fill="#292D74"/>
<path d="M1403.63 549.888H1393.77L1375.89 495.812C1374.78 492.466 1373.05 486.062 1373.05 486.062H1372.85C1372.85 486.062 1371.12 492.574 1370.01 495.812L1352.33 549.888H1342.77L1368.28 477.211H1378.34L1403.65 549.888H1403.63Z" fill="#292D74"/>
<path d="M1338.97 549.872H1287.65V541.831H1329.83V518.859H1291.49V511.141H1329.83V485.632H1286.42V477.195H1338.97V549.872Z" fill="#292D74"/>
<path d="M29.8359 185.336L1607.82 185.336C1678.2 185.336 1735.24 242.38 1735.24 312.755C1735.24 383.129 1678.2 440.173 1607.82 440.173H1087.43C1017.05 440.173 960.008 497.218 960.008 567.592V600.177" stroke="#D3BBDB" stroke-width="8"/>
<path d="M960 740.109L960 803.047" stroke="#D3BBDB" stroke-width="8"/>
<path d="M547.992 148.461L574.292 76.9609H584.392L610.792 148.461H600.992L593.392 126.661H564.892L557.192 148.461H547.992ZM575.992 95.3609L567.492 119.361H590.892L582.692 95.3609L579.492 85.2609H579.292C578.026 89.2609 576.926 92.6276 575.992 95.3609Z" fill="white"/>
<path d="M1363.35 148.461V76.9609H1372.85L1405.45 126.661L1410.65 135.861H1410.85V76.9609H1419.25V148.461H1410.05L1377.25 98.6609L1371.95 89.7609H1371.75V148.461H1363.35ZM1428.68 148.461V76.9609H1479.18V84.8609H1437.68V107.461H1475.38V115.061L1437.68 115.061V140.161L1480.38 140.161V148.461H1428.68ZM1500.09 148.461L1481.59 76.9609L1490.99 76.9609L1502.29 123.461L1504.99 135.561H1505.19C1506.32 130.494 1507.32 126.394 1508.19 123.261L1521.09 76.9609H1530.79L1543.29 123.261L1546.19 135.561H1546.39C1547.52 130.428 1548.46 126.394 1549.19 123.461L1561.09 76.9609H1570.19L1550.29 148.461H1541.69L1528.59 98.0609L1525.99 87.1609H1525.79C1524.79 91.6276 1523.89 95.2609 1523.09 98.0609L1509.09 148.461H1500.09Z" fill="white"/>
<path d="M1113.67 394.242C1107.34 401.242 1098.87 404.742 1088.27 404.742C1077.67 404.742 1069.17 401.242 1062.77 394.242C1056.44 387.242 1053.27 378.309 1053.27 367.442C1053.27 356.576 1056.44 347.642 1062.77 340.642C1069.17 333.642 1077.67 330.142 1088.27 330.142C1098.87 330.142 1107.34 333.642 1113.67 340.642C1120.07 347.642 1123.27 356.576 1123.27 367.442C1123.27 378.309 1120.07 387.242 1113.67 394.242ZM1069.27 388.642C1073.81 394.109 1080.14 396.842 1088.27 396.842C1096.41 396.842 1102.74 394.109 1107.27 388.642C1111.81 383.176 1114.07 376.109 1114.07 367.442C1114.07 358.776 1111.81 351.709 1107.27 346.242C1102.74 340.709 1096.41 337.942 1088.27 337.942C1080.14 337.942 1073.81 340.709 1069.27 346.242C1064.74 351.709 1062.47 358.776 1062.47 367.442C1062.47 376.109 1064.74 383.176 1069.27 388.642ZM1130 403.242V331.742H1139.5L1172.1 381.442L1177.3 390.642H1177.5V331.742H1185.9V403.242H1176.7L1143.9 353.442L1138.6 344.542H1138.4V403.242H1130ZM1213.47 403.242L1239.77 331.742H1249.87L1276.27 403.242L1266.47 403.242L1258.87 381.442L1230.37 381.442L1222.67 403.242H1213.47ZM1241.47 350.142L1232.97 374.142L1256.37 374.142L1248.17 350.142L1244.97 340.042H1244.77C1243.51 344.042 1242.41 347.409 1241.47 350.142Z" fill="white"/>
<path d="M368.52 706.086V634.586H394.52C404.987 634.586 412.887 637.819 418.22 644.286C423.554 650.753 426.22 659.519 426.22 670.586C426.22 681.586 423.454 690.253 417.92 696.586C412.387 702.919 404.354 706.086 393.82 706.086H368.52ZM377.52 698.186H393.52C409.187 698.186 417.02 688.986 417.02 670.586C417.02 651.786 409.42 642.386 394.22 642.386H377.52V698.186ZM432.88 706.086V634.586H483.38V642.486H441.88V665.086H479.58V672.686H441.88V697.786H484.58V706.086H432.88ZM520.422 707.486C510.355 707.486 502.255 704.019 496.122 697.086C489.989 690.153 486.922 681.219 486.922 670.286C486.922 659.486 489.955 650.586 496.022 643.586C502.155 636.519 510.422 632.986 520.822 632.986C528.955 632.986 535.522 635.086 540.522 639.286C545.522 643.486 548.522 648.986 549.522 655.786H540.722C539.855 651.253 537.655 647.619 534.122 644.886C530.655 642.153 526.155 640.786 520.622 640.786C512.955 640.786 506.955 643.553 502.622 649.086C498.289 654.553 496.122 661.619 496.122 670.286C496.122 679.086 498.355 686.186 502.822 691.586C507.355 696.919 513.322 699.586 520.722 699.586C527.122 699.586 532.055 697.719 535.522 693.986C539.055 690.253 541.055 685.553 541.522 679.886H550.422C550.355 683.419 549.522 687.053 547.922 690.786C546.389 694.453 544.355 697.519 541.822 699.986C536.689 704.986 529.555 707.486 520.422 707.486ZM549.355 706.086L575.655 634.586H585.755L612.155 706.086H602.355L594.755 684.286H566.255L558.555 706.086H549.355ZM577.355 652.986L568.855 676.986H592.255L584.055 652.986L580.855 642.886H580.655C579.389 646.886 578.289 650.253 577.355 652.986ZM615.899 706.086V634.586H641.899C652.366 634.586 660.266 637.819 665.599 644.286C670.933 650.753 673.599 659.519 673.599 670.586C673.599 681.586 670.833 690.253 665.299 696.586C659.766 702.919 651.733 706.086 641.199 706.086H615.899ZM624.899 698.186H640.899C656.566 698.186 664.399 688.986 664.399 670.586C664.399 651.786 656.799 642.386 641.599 642.386H624.899V698.186ZM680.259 706.086V634.586L730.759 634.586V642.486L689.259 642.486V665.086L726.959 665.086V672.686H689.259V697.786H731.959V706.086H680.259ZM763.489 707.486C753.889 707.486 746.489 705.119 741.289 700.386C736.156 695.653 733.389 689.486 732.989 681.886L741.789 681.886C742.989 694.153 750.356 700.286 763.889 700.286C769.022 700.286 773.122 699.153 776.189 696.886C779.322 694.553 780.889 691.219 780.889 686.886C780.889 684.953 780.522 683.253 779.789 681.786C779.056 680.319 778.156 679.119 777.089 678.186C776.089 677.253 774.556 676.386 772.489 675.586C770.422 674.786 768.489 674.153 766.689 673.686C764.956 673.219 762.556 672.653 759.489 671.986C755.822 671.186 752.789 670.386 750.389 669.586C747.989 668.719 745.589 667.553 743.189 666.086C740.789 664.619 738.989 662.753 737.789 660.486C736.656 658.153 736.089 655.353 736.089 652.086C736.089 646.219 738.289 641.619 742.689 638.286C747.156 634.886 753.056 633.186 760.389 633.186C776.456 633.186 785.489 640.619 787.489 655.486H778.989C778.322 650.419 776.422 646.619 773.289 644.086C770.156 641.486 765.922 640.186 760.589 640.186C755.656 640.186 751.722 641.186 748.789 643.186C745.922 645.186 744.489 648.019 744.489 651.686C744.489 653.286 744.789 654.719 745.389 655.986C746.056 657.186 746.889 658.219 747.889 659.086C748.956 659.886 750.322 660.619 751.989 661.286C753.722 661.953 755.422 662.519 757.089 662.986C758.756 663.386 760.789 663.819 763.189 664.286C766.522 664.953 769.256 665.586 771.389 666.186C773.522 666.719 775.889 667.553 778.489 668.686C781.089 669.819 783.089 671.119 784.489 672.586C785.956 674.053 787.189 675.986 788.189 678.386C789.256 680.719 789.789 683.453 789.789 686.586C789.789 693.119 787.356 698.253 782.489 701.986C777.689 705.653 771.356 707.486 763.489 707.486ZM794.163 677.586V669.086H822.963V677.586H794.163ZM887.189 697.086C880.856 704.086 872.389 707.586 861.789 707.586C851.189 707.586 842.689 704.086 836.289 697.086C829.956 690.086 826.789 681.153 826.789 670.286C826.789 659.419 829.956 650.486 836.289 643.486C842.689 636.486 851.189 632.986 861.789 632.986C872.389 632.986 880.856 636.486 887.189 643.486C893.589 650.486 896.789 659.419 896.789 670.286C896.789 681.153 893.589 690.086 887.189 697.086ZM842.789 691.486C847.322 696.953 853.656 699.686 861.789 699.686C869.922 699.686 876.256 696.953 880.789 691.486C885.322 686.019 887.589 678.953 887.589 670.286C887.589 661.619 885.322 654.553 880.789 649.086C876.256 643.553 869.922 640.786 861.789 640.786C853.656 640.786 847.322 643.553 842.789 649.086C838.256 654.553 835.989 661.619 835.989 670.286C835.989 678.953 838.256 686.019 842.789 691.486ZM903.516 706.086V634.586H912.516V697.786H950.016V706.086H903.516ZM954.888 706.086V634.586H980.888C991.354 634.586 999.254 637.819 1004.59 644.286C1009.92 650.753 1012.59 659.519 1012.59 670.586C1012.59 681.586 1009.82 690.253 1004.29 696.586C998.754 702.919 990.721 706.086 980.188 706.086H954.888ZM963.888 698.186H979.888C995.554 698.186 1003.39 688.986 1003.39 670.586C1003.39 651.786 995.788 642.386 980.588 642.386H963.888V698.186Z" fill="white"/>
<path d="M745.184 909.484V837.984H756.684L779.884 897.384H780.084L803.084 837.984H814.784V909.484H806.184V850.684H805.984C804.718 854.418 803.651 857.418 802.784 859.684L783.184 909.484H776.284L756.684 859.684L753.484 850.684H753.284V909.484H745.184ZM844.392 909.484V879.184L818.492 837.984H828.492L848.992 871.984H849.192L869.992 837.984H879.592L853.392 879.384V909.484H844.392ZM906.251 910.884C896.651 910.884 889.251 908.518 884.051 903.784C878.917 899.051 876.151 892.884 875.751 885.284H884.551C885.751 897.551 893.117 903.684 906.651 903.684C911.784 903.684 915.884 902.551 918.951 900.284C922.084 897.951 923.651 894.618 923.651 890.284C923.651 888.351 923.284 886.651 922.551 885.184C921.817 883.718 920.917 882.518 919.851 881.584C918.851 880.651 917.317 879.784 915.251 878.984C913.184 878.184 911.251 877.551 909.451 877.084C907.717 876.618 905.317 876.051 902.251 875.384C898.584 874.584 895.551 873.784 893.151 872.984C890.751 872.118 888.351 870.951 885.951 869.484C883.551 868.018 881.751 866.151 880.551 863.884C879.417 861.551 878.851 858.751 878.851 855.484C878.851 849.618 881.051 845.018 885.451 841.684C889.917 838.284 895.817 836.584 903.151 836.584C919.217 836.584 928.251 844.018 930.251 858.884H921.751C921.084 853.818 919.184 850.018 916.051 847.484C912.917 844.884 908.684 843.584 903.351 843.584C898.417 843.584 894.484 844.584 891.551 846.584C888.684 848.584 887.251 851.418 887.251 855.084C887.251 856.684 887.551 858.118 888.151 859.384C888.817 860.584 889.651 861.618 890.651 862.484C891.717 863.284 893.084 864.018 894.751 864.684C896.484 865.351 898.184 865.918 899.851 866.384C901.517 866.784 903.551 867.218 905.951 867.684C909.284 868.351 912.017 868.984 914.151 869.584C916.284 870.118 918.651 870.951 921.251 872.084C923.851 873.218 925.851 874.518 927.251 875.984C928.717 877.451 929.951 879.384 930.951 881.784C932.017 884.118 932.551 886.851 932.551 889.984C932.551 896.518 930.117 901.651 925.251 905.384C920.451 909.051 914.117 910.884 906.251 910.884ZM930.833 845.884V837.984H987.433V845.884H963.633V909.484H954.633V845.884H930.833ZM992.368 909.484V837.984H1042.87V845.884H1001.37V868.484H1039.07V876.084H1001.37V901.184H1044.07V909.484H992.368ZM1050.58 909.484V837.984H1083.98C1090.24 837.984 1095.31 839.784 1099.18 843.384C1103.11 846.984 1105.08 851.718 1105.08 857.584C1105.08 866.718 1100.94 872.618 1092.68 875.284V875.584C1096.21 876.851 1098.71 878.851 1100.18 881.584C1101.71 884.251 1102.64 888.318 1102.98 893.784C1103.64 902.918 1104.74 908.018 1106.28 909.084V909.484H1096.58C1095.84 908.884 1095.31 907.618 1094.98 905.684C1094.71 903.751 1094.38 899.684 1093.98 893.484C1093.64 888.284 1092.34 884.618 1090.08 882.484C1087.88 880.351 1084.34 879.284 1079.48 879.284H1059.58V909.484H1050.58ZM1059.58 845.784V871.984H1080.78C1085.71 871.984 1089.44 870.851 1091.98 868.584C1094.51 866.251 1095.78 863.018 1095.78 858.884C1095.78 854.418 1094.64 851.118 1092.38 848.984C1090.11 846.851 1086.41 845.784 1081.28 845.784H1059.58ZM1130.74 909.484V879.184L1104.84 837.984H1114.84L1135.34 871.984H1135.54L1156.34 837.984H1165.94L1139.74 879.384V909.484L1130.74 909.484Z" fill="white"/>
<circle cx="959.996" cy="992.965" r="49.0352" stroke="#D3BBDB" stroke-width="8"/>
<path d="M43.6248 63.6776C39.9262 63.6776 36.9758 62.3083 34.7736 59.5697C32.5997 56.831 31.5127 53.1466 31.5127 48.5163C31.5127 43.886 32.6138 40.2016 34.816 37.4629C37.0182 34.7243 39.9686 33.355 43.6671 33.355C47.3939 33.355 50.3302 34.7243 52.4759 37.4629C54.6499 40.1733 55.7369 43.8578 55.7369 48.5163C55.7369 53.1466 54.6499 56.831 52.4759 59.5697C50.3302 62.3083 47.3798 63.6776 43.6248 63.6776ZM43.6671 58.765C47.7045 58.765 49.7232 55.3488 49.7232 48.5163C49.7232 45.2977 49.2291 42.7849 48.2409 40.978C47.2528 39.1711 45.7282 38.2676 43.6671 38.2676C41.5779 38.2676 40.025 39.1711 39.0086 40.978C38.0205 42.7849 37.5264 45.2977 37.5264 48.5163C37.5264 51.7349 38.0205 54.2477 39.0086 56.0546C40.025 57.8615 41.5779 58.765 43.6671 58.765ZM70.383 63.6776C66.6845 63.6776 63.7341 62.3083 61.5319 59.5697C59.3579 56.831 58.2709 53.1466 58.2709 48.5163C58.2709 43.886 59.372 40.2016 61.5742 37.4629C63.7764 34.7243 66.7268 33.355 70.4254 33.355C74.1522 33.355 77.0885 34.7243 79.2342 37.4629C81.4082 40.1733 82.4951 43.8578 82.4951 48.5163C82.4951 53.1466 81.4082 56.831 79.2342 59.5697C77.0885 62.3083 74.1381 63.6776 70.383 63.6776ZM70.4254 58.765C74.4628 58.765 76.4814 55.3488 76.4814 48.5163C76.4814 45.2977 75.9874 42.7849 74.9992 40.978C74.011 39.1711 72.4864 38.2676 70.4254 38.2676C68.3361 38.2676 66.7833 39.1711 65.7669 40.978C64.7787 42.7849 64.2846 45.2977 64.2846 48.5163C64.2846 51.7349 64.7787 54.2477 65.7669 56.0546C66.7833 57.8615 68.3361 58.765 70.4254 58.765ZM91.0528 63V42.7567H84.4886V38.9452C88.8365 38.7758 91.2787 37.0536 91.8151 33.7785H96.8548V63H91.0528Z" fill="white"/>
</svg>
