<svg width="1920" height="1080" viewBox="0 0 1920 1080" fill="none" xmlns="http://www.w3.org/2000/svg">
<rect width="1920" height="1080" fill="#292D74"/>
<path d="M1867.18 452.539L159.254 452.539C88.8799 452.539 29.8354 511.993 29.8354 585.339C29.8354 658.685 88.8799 719.743 159.254 719.743H761.648" stroke="#DA2F62" stroke-width="8"/>
<path d="M41.3291 986.946L1749.25 986.946C1819.63 986.946 1878.67 927.493 1878.67 854.147C1878.67 780.801 1819.63 719.743 1749.25 719.743H751.52" stroke="#DA2F62" stroke-width="8"/>
<path d="M414.438 416.922C401.875 416.922 395.875 409.922 395.375 400.922H400.875C401.625 408.484 406.25 412.422 414.688 412.422C420.875 412.422 425.313 409.609 425.313 404.047C425.313 397.922 419.938 396.484 411.938 394.734C404.063 392.984 397.313 390.734 397.313 382.297C397.313 374.922 403.438 370.484 412.5 370.484C423.688 370.484 428.313 376.172 429.438 384.422H424.125C423.313 378.047 419.188 374.859 412.625 374.859C406.563 374.859 402.563 377.422 402.563 382.047C402.563 387.109 407.563 388.609 414.25 389.922C422.938 391.672 430.875 393.797 430.875 403.859C430.875 412.234 424.063 416.922 414.438 416.922ZM454.061 416.922C441.374 416.922 433.124 407.234 433.124 393.672C433.124 380.547 440.999 370.359 454.311 370.359C464.749 370.359 471.061 376.359 472.249 384.609H466.749C465.686 379.047 461.249 375.234 454.186 375.234C444.374 375.234 438.874 383.172 438.874 393.672C438.874 404.609 444.936 411.984 454.249 411.984C462.686 411.984 466.686 406.234 467.249 399.672H472.811C472.749 404.109 470.624 409.109 467.436 412.234C464.311 415.297 459.749 416.922 454.061 416.922ZM472.145 416.047L488.582 371.359H494.895L511.395 416.047H505.27L500.52 402.422H482.707L477.895 416.047H472.145ZM489.645 382.859L484.332 397.859H498.957L493.832 382.859C492.957 380.359 491.832 376.547 491.832 376.547H491.707C491.707 376.547 490.52 380.297 489.645 382.859ZM513.734 416.047V371.359H519.359V410.859H542.797V416.047H513.734ZM545.841 416.047V371.359L577.404 371.359V376.297L551.466 376.297V390.422H575.029V395.172H551.466V410.859H578.154V416.047H545.841ZM582.004 416.047V409.859H588.066V416.047H582.004Z" fill="white"/>
<path d="M872.4 686.128C857.325 686.128 850.125 677.728 849.525 666.928H856.125C857.025 676.003 862.575 680.728 872.7 680.728C880.125 680.728 885.45 677.353 885.45 670.678C885.45 663.328 879 661.603 869.4 659.503C859.95 657.403 851.85 654.703 851.85 644.578C851.85 635.728 859.2 630.403 870.075 630.403C883.5 630.403 889.05 637.228 890.4 647.128H884.025C883.05 639.478 878.1 635.653 870.225 635.653C862.95 635.653 858.15 638.728 858.15 644.278C858.15 650.353 864.15 652.153 872.175 653.728C882.6 655.828 892.125 658.378 892.125 670.453C892.125 680.503 883.95 686.128 872.4 686.128ZM919.948 686.128C904.723 686.128 894.823 674.503 894.823 658.228C894.823 642.478 904.273 630.253 920.248 630.253C932.773 630.253 940.348 637.453 941.773 647.353H935.173C933.898 640.678 928.573 636.103 920.098 636.103C908.323 636.103 901.723 645.628 901.723 658.228C901.723 671.353 908.998 680.203 920.173 680.203C930.298 680.203 935.098 673.303 935.773 665.428H942.448C942.373 670.753 939.823 676.753 935.998 680.503C932.248 684.178 926.773 686.128 919.948 686.128ZM941.648 685.078L961.373 631.453H968.948L988.748 685.078H981.398L975.698 668.728H954.323L948.548 685.078H941.648ZM962.648 645.253L956.273 663.253H973.823L967.673 645.253C966.623 642.253 965.273 637.678 965.273 637.678H965.123C965.123 637.678 963.698 642.178 962.648 645.253ZM991.556 685.078V631.453H998.306V678.853H1026.43V685.078H991.556ZM1030.08 685.078V631.453H1067.96V637.378H1036.83V654.328H1065.11V660.028H1036.83V678.853H1068.86V685.078H1030.08ZM1073.48 685.078V677.653H1080.75V685.078H1073.48Z" fill="white"/>
<path d="M1498.7 950.666C1478.6 950.666 1469 939.466 1468.2 925.066H1477C1478.2 937.166 1485.6 943.466 1499.1 943.466C1509 943.466 1516.1 938.966 1516.1 930.066C1516.1 920.266 1507.5 917.966 1494.7 915.166C1482.1 912.366 1471.3 908.766 1471.3 895.266C1471.3 883.466 1481.1 876.366 1495.6 876.366C1513.5 876.366 1520.9 885.466 1522.7 898.666H1514.2C1512.9 888.466 1506.3 883.366 1495.8 883.366C1486.1 883.366 1479.7 887.466 1479.7 894.866C1479.7 902.966 1487.7 905.366 1498.4 907.466C1512.3 910.266 1525 913.666 1525 929.766C1525 943.166 1514.1 950.666 1498.7 950.666ZM1562.1 950.666C1541.8 950.666 1528.6 935.166 1528.6 913.466C1528.6 892.466 1541.2 876.166 1562.5 876.166C1579.2 876.166 1589.3 885.766 1591.2 898.966H1582.4C1580.7 890.066 1573.6 883.966 1562.3 883.966C1546.6 883.966 1537.8 896.666 1537.8 913.466C1537.8 930.966 1547.5 942.766 1562.4 942.766C1575.9 942.766 1582.3 933.566 1583.2 923.066H1592.1C1592 930.166 1588.6 938.166 1583.5 943.166C1578.5 948.066 1571.2 950.666 1562.1 950.666ZM1591.03 949.266L1617.33 877.766H1627.43L1653.83 949.266H1644.03L1636.43 927.466H1607.93L1600.23 949.266H1591.03ZM1619.03 896.166L1610.53 920.166H1633.93L1625.73 896.166C1624.33 892.166 1622.53 886.066 1622.53 886.066H1622.33C1622.33 886.066 1620.43 892.066 1619.03 896.166ZM1657.58 949.266V877.766H1666.58V940.966H1704.08V949.266H1657.58ZM1708.95 949.266V877.766H1759.45V885.666H1717.95V908.266H1755.65V915.866H1717.95V940.966H1760.65V949.266H1708.95ZM1766.81 949.266V939.366H1776.51V949.266H1766.81Z" fill="white"/>
<path d="M43.8485 63.5929C35.3361 63.5929 31.2705 58.8497 30.9317 52.7513H34.6585C35.1667 57.8756 38.3006 60.5437 44.0179 60.5437C48.2105 60.5437 51.2174 58.6379 51.2174 54.8688C51.2174 50.7185 47.5753 49.7444 42.1544 48.5586C36.8184 47.3728 32.2446 45.8482 32.2446 40.131C32.2446 35.1337 36.3949 32.1268 42.5356 32.1268C50.1163 32.1268 53.2502 35.9807 54.0125 41.5709H50.4127C49.8621 37.2512 47.0671 35.0913 42.6203 35.0913C38.5123 35.0913 35.802 36.8277 35.802 39.9616C35.802 43.3919 39.1899 44.4084 43.7214 45.2977C49.6081 46.4835 54.9865 47.9234 54.9865 54.7417C54.9865 60.4166 50.3704 63.5929 43.8485 63.5929ZM71.1209 63.5929C62.5238 63.5929 56.9336 57.0287 56.9336 47.8387C56.9336 38.9452 62.2697 32.0422 71.2903 32.0422C78.3627 32.0422 82.6401 36.1077 83.4447 41.6979H79.7179C78.998 37.9288 75.9911 35.3454 71.2056 35.3454C64.5566 35.3454 60.8298 40.7239 60.8298 47.8387C60.8298 55.2499 64.9378 60.2472 71.2479 60.2472C76.9652 60.2472 79.6756 56.3511 80.0567 51.9043H83.8259C83.7835 54.9111 82.3436 58.2991 80.1838 60.4166C78.0663 62.4918 74.9747 63.5929 71.1209 63.5929ZM83.7977 63L94.9358 32.7197H99.2131L110.394 63H106.243L103.025 53.7677H90.9549L87.6939 63H83.7977ZM95.6557 40.5122L92.056 50.6762H101.966L98.4932 40.5122C97.9003 38.8181 97.138 36.2348 97.138 36.2348H97.0533C97.0533 36.2348 96.2486 38.7758 95.6557 40.5122ZM112.403 63V32.7197H116.214V59.4849H132.095V63H112.403ZM134.582 63V32.7197H155.968V36.0654H138.393V45.6365H154.359V48.8551H138.393V59.4849H156.477V63H134.582ZM159.509 63V58.8073H163.617V63H159.509Z" fill="white"/>
</svg>
