<svg width="1920" height="1080" viewBox="0 0 1920 1080" fill="none" xmlns="http://www.w3.org/2000/svg">
<rect width="1920" height="1080" fill="#4773CD"/>
<path d="M1813.7 321.114V340.219C1813.66 350.491 1818.84 355.366 1827.17 355.384C1835.91 355.384 1840.5 350.023 1840.5 340.759V321.15L1813.7 321.114ZM1848.47 312.012L1848.43 342.306C1848.43 349.933 1845.88 355.816 1841.4 359.576C1837.84 362.616 1833.05 364.451 1827.57 364.433C1814.25 364.433 1806.23 356.787 1806.25 340.921V321.096L1775.79 321.06V311.904L1848.47 311.994V312.012Z" fill="#292D74"/>
<path d="M1844.1 388.243L1827.15 436.688L1819.58 434.044L1833.48 394.233L1811.81 386.642L1799.16 422.818L1791.87 420.264L1804.52 384.105L1780.43 375.686L1766.11 416.648L1758.14 413.86L1775.5 364.263L1844.1 388.243Z" fill="#292D74"/>
<path d="M1778.18 449.805L1763.98 466.014C1757.27 473.659 1757.76 480.837 1763.95 486.252C1770.6 492.08 1776.63 491.972 1783.68 483.949L1798.22 467.363L1778.19 449.805H1778.18ZM1810.18 465.708L1787.8 491.235C1779.36 500.859 1767.62 502.064 1758.68 494.221C1752.02 488.392 1749.84 481.341 1753.46 472.886L1753.22 472.688C1746.35 476.519 1740.99 474.936 1732.41 468.37C1723.09 461.282 1720.07 460.257 1718.51 460.635L1718.2 460.365L1724.69 452.953C1726.69 452.684 1728.96 454.249 1738.67 461.678C1747.16 468.172 1752.81 467.453 1759.23 460.113L1772.56 444.912L1749.48 424.674L1755.51 417.802L1810.14 465.708H1810.18Z" fill="#292D74"/>
<path d="M1729.72 481.879L1721.74 485.908C1715.1 475.475 1705.49 473.154 1693.26 479.342C1684.28 483.876 1679.89 491.215 1683.98 499.293C1688.47 508.179 1697.32 506.326 1710.22 502.998C1722.94 499.76 1734.38 498.069 1740.57 510.32C1745.99 521.024 1740.34 531.961 1727.19 538.599C1710.94 546.802 1700.06 541.945 1692.38 530.792L1700.09 526.888C1705.96 535.541 1714.27 537.142 1723.81 532.339C1732.6 527.896 1736.52 521.24 1733.14 514.53C1729.44 507.19 1721.07 508.665 1710.4 511.669C1696.52 515.501 1683.44 518.235 1676.04 503.628C1669.91 491.467 1676.35 479.666 1690.33 472.614C1708.57 463.404 1722.4 469.16 1729.74 481.861" fill="#292D74"/>
<path d="M1661.45 524.25L1642.49 526.535C1632.29 527.758 1628.08 533.497 1629.07 541.772C1630.12 550.443 1636.02 554.346 1645.21 553.231L1664.67 550.874L1661.45 524.232V524.25ZM1674.71 557.656L1644.63 561.29C1637.06 562.208 1630.91 560.391 1626.64 556.397C1623.19 553.231 1620.8 548.716 1620.15 543.265C1618.55 530.043 1625.15 521.156 1640.89 519.267L1660.57 516.893L1656.92 486.616L1666.01 485.519L1674.71 557.674V557.656Z" fill="#292D74"/>
<path d="M1611.06 562.143H1559.73V554.102H1601.92V531.13H1563.6V523.412H1601.92V497.903H1558.51V489.466H1611.06V562.143Z" fill="#292D74"/>
<path d="M1556.21 525.845C1556.21 547.198 1543.4 563.766 1521.76 563.766C1504.77 563.766 1494.52 553.998 1492.58 540.596H1501.52C1503.24 549.645 1510.46 555.833 1521.95 555.833C1537.91 555.833 1546.85 542.917 1546.85 525.845C1546.85 508.773 1536.99 496.054 1521.85 496.054C1508.12 496.054 1501.63 505.409 1500.71 516.076H1491.66C1491.77 508.863 1495.22 500.732 1500.4 495.641C1505.49 490.658 1512.9 488.013 1522.15 488.013C1542.78 488.013 1556.21 503.772 1556.21 525.827" fill="#292D74"/>
<path d="M1492.56 562.143H1435.03V554.102H1459.23V489.466H1468.37V554.102H1492.56V562.143Z" fill="#292D74"/>
<path d="M1429.86 489.466H1420.71V562.143H1429.86V489.466Z" fill="#292D74"/>
<path d="M1416.77 562.159H1406.91L1389.03 508.083C1387.91 504.737 1386.19 498.333 1386.19 498.333H1385.99C1385.99 498.333 1384.26 504.845 1383.15 508.083L1365.46 562.159H1355.91L1381.42 489.482H1391.47L1416.79 562.159H1416.77Z" fill="#292D74"/>
<path d="M1352.1 562.143H1300.78V554.102H1342.97V531.13H1304.63V523.412H1342.97V497.903H1299.56V489.466H1352.1V562.143Z" fill="#292D74"/>
<path d="M29.8359 185.336L1605.82 185.336C1676.2 185.336 1735.24 244.789 1735.24 318.135C1735.24 391.482 1676.2 452.539 1605.82 452.539H1003.43C933 452.539 876.618 506.871 876.618 580.217" stroke="#D3BBDB" stroke-width="8"/>
<path d="M876.344 718.078L876.344 844.73" stroke="#D3BBDB" stroke-width="8"/>
<path d="M465 148.469L491.3 76.9687H501.4L527.8 148.469H518L510.4 126.669H481.9L474.2 148.469H465ZM493 95.3687L484.5 119.369H507.9L499.7 95.3687L496.5 85.2687H496.3C495.033 89.2687 493.933 92.6354 493 95.3687Z" fill="white"/>
<path d="M1235.35 148.469V76.9687H1244.85L1277.45 126.669L1282.65 135.869H1282.85V76.9687H1291.25V148.469H1282.05L1249.25 98.6687L1243.95 89.7687H1243.75V148.469H1235.35ZM1300.68 148.469V76.9687H1351.18V84.8687H1309.68V107.469H1347.38V115.069L1309.68 115.069V140.169L1352.38 140.169V148.469H1300.68ZM1372.09 148.469L1353.59 76.9687L1362.99 76.9687L1374.29 123.469L1376.99 135.569H1377.19C1378.32 130.502 1379.32 126.402 1380.19 123.269L1393.09 76.9687H1402.79L1415.29 123.269L1418.19 135.569H1418.39C1419.52 130.435 1420.46 126.402 1421.19 123.469L1433.09 76.9687H1442.19L1422.29 148.469H1413.69L1400.59 98.0687L1397.99 87.1687H1397.79C1396.79 91.6354 1395.89 95.2687 1395.09 98.0687L1381.09 148.469H1372.09Z" fill="white"/>
<path d="M1031.26 407.047C1024.92 414.047 1016.46 417.547 1005.86 417.547C995.257 417.547 986.757 414.047 980.357 407.047C974.024 400.047 970.857 391.114 970.857 380.247C970.857 369.38 974.024 360.447 980.357 353.447C986.757 346.447 995.257 342.947 1005.86 342.947C1016.46 342.947 1024.92 346.447 1031.26 353.447C1037.66 360.447 1040.86 369.38 1040.86 380.247C1040.86 391.114 1037.66 400.047 1031.26 407.047ZM986.857 401.447C991.391 406.914 997.724 409.647 1005.86 409.647C1013.99 409.647 1020.32 406.914 1024.86 401.447C1029.39 395.98 1031.66 388.914 1031.66 380.247C1031.66 371.58 1029.39 364.514 1024.86 359.047C1020.32 353.514 1013.99 350.747 1005.86 350.747C997.724 350.747 991.391 353.514 986.857 359.047C982.324 364.514 980.057 371.58 980.057 380.247C980.057 388.914 982.324 395.98 986.857 401.447ZM1047.58 416.047V344.547H1057.08L1089.68 394.247L1094.88 403.447H1095.08V344.547H1103.48V416.047H1094.28L1061.48 366.247L1056.18 357.347H1055.98V416.047H1047.58ZM1131.06 416.047L1157.36 344.547H1167.46L1193.86 416.047L1184.06 416.047L1176.46 394.247L1147.96 394.247L1140.26 416.047H1131.06ZM1159.06 362.947L1150.56 386.947L1173.96 386.947L1165.76 362.947L1162.56 352.847H1162.36C1161.09 356.847 1159.99 360.214 1159.06 362.947Z" fill="white"/>
<path d="M284.7 685.078V613.578H310.7C321.167 613.578 329.067 616.811 334.4 623.278C339.733 629.745 342.4 638.511 342.4 649.578C342.4 660.578 339.633 669.245 334.1 675.578C328.567 681.911 320.533 685.078 310 685.078H284.7ZM293.7 677.178H309.7C325.367 677.178 333.2 667.978 333.2 649.578C333.2 630.778 325.6 621.378 310.4 621.378H293.7V677.178ZM349.059 685.078V613.578H399.559V621.478H358.059V644.078H395.759V651.678H358.059V676.778H400.759V685.078H349.059ZM436.602 686.478C426.535 686.478 418.435 683.011 412.302 676.078C406.168 669.145 403.102 660.211 403.102 649.278C403.102 638.478 406.135 629.578 412.202 622.578C418.335 615.511 426.602 611.978 437.002 611.978C445.135 611.978 451.702 614.078 456.702 618.278C461.702 622.478 464.702 627.978 465.702 634.778H456.902C456.035 630.245 453.835 626.611 450.302 623.878C446.835 621.145 442.335 619.778 436.802 619.778C429.135 619.778 423.135 622.545 418.802 628.078C414.468 633.545 412.302 640.611 412.302 649.278C412.302 658.078 414.535 665.178 419.002 670.578C423.535 675.911 429.502 678.578 436.902 678.578C443.302 678.578 448.235 676.711 451.702 672.978C455.235 669.245 457.235 664.545 457.702 658.878H466.602C466.535 662.411 465.702 666.045 464.102 669.778C462.568 673.445 460.535 676.511 458.002 678.978C452.868 683.978 445.735 686.478 436.602 686.478ZM465.535 685.078L491.835 613.578H501.935L528.335 685.078H518.535L510.935 663.278H482.435L474.735 685.078H465.535ZM493.535 631.978L485.035 655.978H508.435L500.235 631.978L497.035 621.878H496.835C495.568 625.878 494.468 629.245 493.535 631.978ZM532.079 685.078V613.578H558.079C568.546 613.578 576.446 616.811 581.779 623.278C587.112 629.745 589.779 638.511 589.779 649.578C589.779 660.578 587.012 669.245 581.479 675.578C575.946 681.911 567.912 685.078 557.379 685.078H532.079ZM541.079 677.178H557.079C572.746 677.178 580.579 667.978 580.579 649.578C580.579 630.778 572.979 621.378 557.779 621.378H541.079V677.178ZM596.438 685.078V613.578L646.938 613.578V621.478L605.438 621.478V644.078L643.138 644.078V651.678H605.438V676.778H648.138V685.078H596.438ZM679.669 686.478C670.069 686.478 662.669 684.111 657.469 679.378C652.335 674.645 649.569 668.478 649.169 660.878L657.969 660.878C659.169 673.145 666.535 679.278 680.069 679.278C685.202 679.278 689.302 678.145 692.369 675.878C695.502 673.545 697.069 670.211 697.069 665.878C697.069 663.945 696.702 662.245 695.969 660.778C695.235 659.311 694.335 658.111 693.269 657.178C692.269 656.245 690.735 655.378 688.669 654.578C686.602 653.778 684.669 653.145 682.869 652.678C681.135 652.211 678.735 651.645 675.669 650.978C672.002 650.178 668.969 649.378 666.569 648.578C664.169 647.711 661.769 646.545 659.369 645.078C656.969 643.611 655.169 641.745 653.969 639.478C652.835 637.145 652.269 634.345 652.269 631.078C652.269 625.211 654.469 620.611 658.869 617.278C663.335 613.878 669.235 612.178 676.569 612.178C692.635 612.178 701.669 619.611 703.669 634.478H695.169C694.502 629.411 692.602 625.611 689.469 623.078C686.335 620.478 682.102 619.178 676.769 619.178C671.835 619.178 667.902 620.178 664.969 622.178C662.102 624.178 660.669 627.011 660.669 630.678C660.669 632.278 660.969 633.711 661.569 634.978C662.235 636.178 663.069 637.211 664.069 638.078C665.135 638.878 666.502 639.611 668.169 640.278C669.902 640.945 671.602 641.511 673.269 641.978C674.935 642.378 676.969 642.811 679.369 643.278C682.702 643.945 685.435 644.578 687.569 645.178C689.702 645.711 692.069 646.545 694.669 647.678C697.269 648.811 699.269 650.111 700.669 651.578C702.135 653.045 703.369 654.978 704.369 657.378C705.435 659.711 705.969 662.445 705.969 665.578C705.969 672.111 703.535 677.245 698.669 680.978C693.869 684.645 687.535 686.478 679.669 686.478ZM710.343 656.578V648.078H739.143V656.578H710.343ZM803.369 676.078C797.035 683.078 788.569 686.578 777.969 686.578C767.369 686.578 758.869 683.078 752.469 676.078C746.135 669.078 742.969 660.145 742.969 649.278C742.969 638.411 746.135 629.478 752.469 622.478C758.869 615.478 767.369 611.978 777.969 611.978C788.569 611.978 797.035 615.478 803.369 622.478C809.769 629.478 812.969 638.411 812.969 649.278C812.969 660.145 809.769 669.078 803.369 676.078ZM758.969 670.478C763.502 675.945 769.835 678.678 777.969 678.678C786.102 678.678 792.435 675.945 796.969 670.478C801.502 665.011 803.769 657.945 803.769 649.278C803.769 640.611 801.502 633.545 796.969 628.078C792.435 622.545 786.102 619.778 777.969 619.778C769.835 619.778 763.502 622.545 758.969 628.078C754.435 633.545 752.169 640.611 752.169 649.278C752.169 657.945 754.435 665.011 758.969 670.478ZM819.696 685.078V613.578H828.696V676.778H866.196V685.078H819.696ZM871.067 685.078V613.578H897.067C907.534 613.578 915.434 616.811 920.767 623.278C926.101 629.745 928.767 638.511 928.767 649.578C928.767 660.578 926.001 669.245 920.467 675.578C914.934 681.911 906.901 685.078 896.367 685.078H871.067ZM880.067 677.178H896.067C911.734 677.178 919.567 667.978 919.567 649.578C919.567 630.778 911.967 621.378 896.767 621.378H880.067V677.178Z" fill="white"/>
<path d="M772.184 949.266V877.766H783.684L806.884 937.166H807.084L830.084 877.766H841.784V949.266H833.184V890.466H832.984C831.718 894.199 830.651 897.199 829.784 899.466L810.184 949.266H803.284L783.684 899.466L780.484 890.466H780.284V949.266H772.184ZM871.392 949.266V918.966L845.492 877.766H855.492L875.992 911.766H876.192L896.992 877.766H906.592L880.392 919.166V949.266H871.392ZM933.251 950.666C923.651 950.666 916.251 948.299 911.051 943.566C905.917 938.832 903.151 932.666 902.751 925.066H911.551C912.751 937.332 920.117 943.466 933.651 943.466C938.784 943.466 942.884 942.332 945.951 940.066C949.084 937.732 950.651 934.399 950.651 930.066C950.651 928.132 950.284 926.432 949.551 924.966C948.817 923.499 947.917 922.299 946.851 921.366C945.851 920.432 944.317 919.566 942.251 918.766C940.184 917.966 938.251 917.332 936.451 916.866C934.717 916.399 932.317 915.832 929.251 915.166C925.584 914.366 922.551 913.566 920.151 912.766C917.751 911.899 915.351 910.732 912.951 909.266C910.551 907.799 908.751 905.932 907.551 903.666C906.417 901.332 905.851 898.532 905.851 895.266C905.851 889.399 908.051 884.799 912.451 881.466C916.917 878.066 922.817 876.366 930.151 876.366C946.217 876.366 955.251 883.799 957.251 898.666H948.751C948.084 893.599 946.184 889.799 943.051 887.266C939.917 884.666 935.684 883.366 930.351 883.366C925.417 883.366 921.484 884.366 918.551 886.366C915.684 888.366 914.251 891.199 914.251 894.866C914.251 896.466 914.551 897.899 915.151 899.166C915.817 900.366 916.651 901.399 917.651 902.266C918.717 903.066 920.084 903.799 921.751 904.466C923.484 905.132 925.184 905.699 926.851 906.166C928.517 906.566 930.551 906.999 932.951 907.466C936.284 908.132 939.017 908.766 941.151 909.366C943.284 909.899 945.651 910.732 948.251 911.866C950.851 912.999 952.851 914.299 954.251 915.766C955.717 917.232 956.951 919.166 957.951 921.566C959.017 923.899 959.551 926.632 959.551 929.766C959.551 936.299 957.117 941.432 952.251 945.166C947.451 948.832 941.117 950.666 933.251 950.666ZM957.833 885.666V877.766H1014.43V885.666H990.633V949.266H981.633V885.666H957.833ZM1019.37 949.266V877.766H1069.87V885.666H1028.37V908.266H1066.07V915.866H1028.37V940.966H1071.07V949.266H1019.37ZM1077.58 949.266V877.766H1110.98C1117.24 877.766 1122.31 879.566 1126.18 883.166C1130.11 886.766 1132.08 891.499 1132.08 897.366C1132.08 906.499 1127.94 912.399 1119.68 915.066V915.366C1123.21 916.632 1125.71 918.632 1127.18 921.366C1128.71 924.032 1129.64 928.099 1129.98 933.566C1130.64 942.699 1131.74 947.799 1133.28 948.866V949.266H1123.58C1122.84 948.666 1122.31 947.399 1121.98 945.466C1121.71 943.532 1121.38 939.466 1120.98 933.266C1120.64 928.066 1119.34 924.399 1117.08 922.266C1114.88 920.132 1111.34 919.066 1106.48 919.066H1086.58V949.266H1077.58ZM1086.58 885.566V911.766H1107.78C1112.71 911.766 1116.44 910.632 1118.98 908.366C1121.51 906.032 1122.78 902.799 1122.78 898.666C1122.78 894.199 1121.64 890.899 1119.38 888.766C1117.11 886.632 1113.41 885.566 1108.28 885.566H1086.58ZM1157.74 949.266V918.966L1131.84 877.766H1141.84L1162.34 911.766H1162.54L1183.34 877.766H1192.94L1166.74 919.166V949.266L1157.74 949.266Z" fill="white"/>
<circle cx="876.344" cy="1014.85" r="28.25" stroke="#D3BBDB" stroke-width="8"/>
<path d="M43.6248 63.6776C39.9262 63.6776 36.9758 62.3083 34.7736 59.5697C32.5997 56.831 31.5127 53.1466 31.5127 48.5163C31.5127 43.886 32.6138 40.2016 34.816 37.4629C37.0182 34.7243 39.9686 33.355 43.6671 33.355C47.3939 33.355 50.3302 34.7243 52.4759 37.4629C54.6499 40.1733 55.7369 43.8578 55.7369 48.5163C55.7369 53.1466 54.6499 56.831 52.4759 59.5697C50.3302 62.3083 47.3798 63.6776 43.6248 63.6776ZM43.6671 58.765C47.7045 58.765 49.7232 55.3488 49.7232 48.5163C49.7232 45.2977 49.2291 42.7849 48.2409 40.978C47.2528 39.1711 45.7282 38.2676 43.6671 38.2676C41.5779 38.2676 40.025 39.1711 39.0086 40.978C38.0205 42.7849 37.5264 45.2977 37.5264 48.5163C37.5264 51.7349 38.0205 54.2477 39.0086 56.0546C40.025 57.8615 41.5779 58.765 43.6671 58.765ZM70.383 63.6776C66.6845 63.6776 63.7341 62.3083 61.5319 59.5697C59.3579 56.831 58.2709 53.1466 58.2709 48.5163C58.2709 43.886 59.372 40.2016 61.5742 37.4629C63.7764 34.7243 66.7268 33.355 70.4254 33.355C74.1522 33.355 77.0885 34.7243 79.2342 37.4629C81.4082 40.1733 82.4951 43.8578 82.4951 48.5163C82.4951 53.1466 81.4082 56.831 79.2342 59.5697C77.0885 62.3083 74.1381 63.6776 70.383 63.6776ZM70.4254 58.765C74.4628 58.765 76.4814 55.3488 76.4814 48.5163C76.4814 45.2977 75.9874 42.7849 74.9992 40.978C74.011 39.1711 72.4864 38.2676 70.4254 38.2676C68.3361 38.2676 66.7833 39.1711 65.7669 40.978C64.7787 42.7849 64.2846 45.2977 64.2846 48.5163C64.2846 51.7349 64.7787 54.2477 65.7669 56.0546C66.7833 57.8615 68.3361 58.765 70.4254 58.765ZM91.0528 63V42.7567H84.4886V38.9452C88.8365 38.7758 91.2787 37.0536 91.8151 33.7785H96.8548V63H91.0528Z" fill="white"/>
</svg>
