<svg width="768" height="960" viewBox="0 0 768 960" fill="none" xmlns="http://www.w3.org/2000/svg">
<rect width="768" height="960" rx="31.25" fill="#4773CD"/>
<path d="M346.524 495.056C350.166 495.056 353.107 494.021 355.099 492.073C357.137 490.079 358.507 486.894 358.554 484.065H354.99C354.632 488.254 352.064 491.918 346.648 491.918C340.673 491.918 336.782 487.219 336.782 480.247C336.782 473.275 340.315 468.498 346.602 468.498C351.13 468.498 353.978 470.925 354.663 474.48H358.196C357.433 469.224 353.387 465.391 346.68 465.391C338.136 465.391 333.078 471.883 333.078 480.247C333.078 488.61 338.369 495.072 346.508 495.072" fill="#D3BBDB"/>
<path d="M374.845 482.46L379.016 471.623L383.264 482.46H374.845ZM376.962 466.352L377.88 468.655L369.538 489.895C368.698 492.091 367.251 492.925 365.492 493.049V494.641H375.966V493.049C372.324 492.848 371.188 491.936 372.153 489.463L374.083 484.438H384.027L385.988 489.463C386.953 491.936 385.832 492.848 382.175 493.049V494.641H394.049V493.049C392.29 492.925 390.843 492.013 390.003 489.895L380.821 466.352H376.977H376.962Z" fill="#D3BBDB"/>
<path d="M411.091 495.442C413.892 495.442 416.305 493.927 417.394 491.423H417.518L418.125 494.808H420.849V479.117H411.792V482.58H416.927V484.327C416.927 488.748 415.278 491.902 411.48 491.902C407.076 491.902 404.897 487.96 404.897 480.107C404.897 472.253 406.983 468.08 411.48 468.08C414.733 468.08 416.491 469.749 416.616 473.768H420.74C420.413 467.631 416.896 464.57 411.402 464.57C404.788 464.57 400.773 470.738 400.773 480.107C400.773 489.475 404.384 495.442 411.122 495.442" fill="#D3BBDB"/>
<path d="M444.938 495.056C448.595 495.056 451.521 494.021 453.513 492.073C455.552 490.079 456.921 486.894 456.968 484.065H453.404C453.046 488.254 450.478 491.918 445.063 491.918C439.087 491.918 435.196 487.219 435.196 480.247C435.196 473.275 438.729 468.498 445.016 468.498C449.544 468.498 452.392 470.925 453.077 474.48H456.61C455.847 469.224 451.801 465.391 445.094 465.391C436.55 465.391 431.492 471.883 431.492 480.247C431.492 488.61 436.783 495.072 444.922 495.072" fill="#D3BBDB"/>
<path d="M473.267 482.46L477.438 471.623L481.686 482.46H473.267ZM475.399 466.352L476.317 468.655L467.976 489.895C467.136 492.091 465.688 492.925 463.93 493.049V494.641H474.403V493.049C470.762 492.848 469.626 491.936 470.59 489.463L472.52 484.438H482.464L484.425 489.463C485.39 491.936 484.27 492.848 480.612 493.049V494.641H492.487V493.049C490.728 492.925 489.281 492.013 488.44 489.895L479.259 466.352H475.415H475.399Z" fill="#D3BBDB"/>
<path d="M509.521 495.442C512.322 495.442 514.734 493.927 515.824 491.423H515.948L516.555 494.808H519.278V479.117H510.221V482.58H515.357V484.327C515.357 488.748 513.707 491.902 509.894 491.902C505.49 491.902 503.312 487.96 503.312 480.107C503.312 472.253 505.397 468.08 509.894 468.08C513.147 468.08 514.905 469.749 515.03 473.768H519.154C518.827 467.631 515.31 464.57 509.817 464.57C503.203 464.57 499.188 470.738 499.188 480.107C499.188 489.475 502.798 495.442 509.536 495.442" fill="#D3BBDB"/>
<path d="M543.36 495.056C547.001 495.056 549.943 494.021 551.935 492.073C553.973 490.079 555.343 486.894 555.39 484.065H551.826C551.468 488.254 548.9 491.918 543.484 491.918C537.508 491.918 533.618 487.219 533.618 480.247C533.618 473.275 537.151 468.498 543.438 468.498C547.966 468.498 550.814 470.925 551.499 474.48H555.032C554.269 469.224 550.223 465.391 543.516 465.391C534.972 465.391 529.914 471.883 529.914 480.247C529.914 488.61 535.205 495.072 543.344 495.072" fill="#D3BBDB"/>
<path d="M571.681 482.46L575.852 471.623L580.1 482.46H571.681ZM573.813 466.352L574.731 468.655L566.39 489.895C565.55 492.091 564.102 492.925 562.344 493.049V494.641H572.817V493.049C569.176 492.848 568.04 491.936 569.004 489.463L570.934 484.438H580.878L582.839 489.463C583.804 491.936 582.684 492.848 579.027 493.049V494.641H590.901V493.049C589.142 492.925 587.695 492.013 586.854 489.895L577.673 466.352H573.829H573.813Z" fill="#D3BBDB"/>
<path d="M607.943 495.442C610.744 495.442 613.156 493.927 614.245 491.423H614.37L614.977 494.808H617.7V479.117H608.643V482.58H613.779V484.327C613.779 488.748 612.129 491.902 608.316 491.902C603.912 491.902 601.733 487.96 601.733 480.107C601.733 472.254 603.819 468.08 608.316 468.08C611.569 468.08 613.327 469.749 613.452 473.784H617.576C617.249 467.647 613.732 464.586 608.238 464.586C601.624 464.586 597.609 470.754 597.609 480.122C597.609 489.49 601.22 495.457 607.958 495.457" fill="#D3BBDB"/>
<path d="M640.235 495.056C643.876 495.056 646.818 494.021 648.81 492.073C650.848 490.079 652.218 486.894 652.265 484.065H648.701C648.343 488.254 645.775 491.918 640.359 491.918C634.383 491.918 630.493 487.219 630.493 480.247C630.493 473.275 634.026 468.498 640.313 468.498C644.841 468.498 647.689 470.925 648.374 474.48H651.907C651.144 469.224 647.098 465.391 640.391 465.391C631.847 465.391 626.789 471.883 626.789 480.247C626.789 488.61 632.08 495.072 640.219 495.072" fill="#D3BBDB"/>
<path d="M668.556 482.46L672.727 471.623L676.975 482.46H668.556ZM670.673 466.352L671.591 468.655L663.249 489.895C662.409 492.091 660.962 492.925 659.203 493.049V494.641H669.677V493.049C666.035 492.848 664.899 491.936 665.864 489.463L667.794 484.438H677.738L679.699 489.463C680.664 491.936 679.543 492.848 675.886 493.049V494.641H687.76V493.049C686.001 492.925 684.554 492.013 683.714 489.895L674.532 466.352H670.688H670.673Z" fill="#D3BBDB"/>
<path d="M704.802 495.442C707.603 495.442 710.016 493.927 711.105 491.423H711.229L711.836 494.808H714.56V479.117H705.502V482.58H710.638V484.327C710.638 488.748 708.988 491.902 705.191 491.902C700.787 491.902 698.608 487.96 698.608 480.107C698.608 472.253 700.694 468.08 705.191 468.08C708.444 468.08 710.202 469.749 710.327 473.768H714.451C714.124 467.631 710.607 464.57 705.113 464.57C698.499 464.57 694.484 470.738 694.484 480.107C694.484 489.475 698.095 495.442 704.833 495.442" fill="#D3BBDB"/>
<path d="M726.931 939.127H333.905C312.818 939.127 295.731 922.153 295.731 901.206V532.155C295.731 511.208 278.643 494.234 257.557 494.234H91.2266" stroke="#D3BBDB" stroke-width="1.25" stroke-miterlimit="10"/>
<path d="M714.544 939.127H333.905C312.818 939.127 295.731 922.153 295.731 901.206V532.155C295.731 511.208 278.643 494.234 257.557 494.234H91.2266" stroke="#D3BBDB" stroke-width="1.25" stroke-miterlimit="10"/>
<path d="M714.544 20.8672H333.905C312.818 20.8672 295.731 37.8411 295.731 58.788V427.839C295.731 448.786 278.643 465.76 257.557 465.76H91.2266" stroke="#D3BBDB" stroke-width="1.25" stroke-miterlimit="10"/>
<path d="M77.4673 371.738C77.4673 367.913 74.3494 364.812 70.5032 364.812C66.657 364.812 63.5391 367.913 63.5391 371.738V414.111C63.5391 417.936 66.657 421.037 70.5032 421.037C74.3494 421.037 77.4673 417.936 77.4673 414.111V371.738Z" fill="#D3BBDB"/>
<path d="M77.4673 427.98C77.4673 424.155 74.3494 421.055 70.5032 421.055C66.657 421.055 63.5391 424.155 63.5391 427.98V522.419C63.5391 526.244 66.657 529.345 70.5032 529.345C74.3494 529.345 77.4673 526.244 77.4673 522.419V427.98Z" fill="#D3BBDB"/>
<path d="M77.4829 465.773H63.5391V494.218H77.4829" fill="#344899"/>
<path d="M719.398 489.734H724.441V494.65H719.398V489.734Z" fill="#D3BBDB"/>
<path d="M725.906 489.734H730.948V494.65H725.906V489.734Z" fill="#D3BBDB"/>
<path d="M732.391 489.734H737.433V494.65H732.391V489.734Z" fill="#D3BBDB"/>
<path d="M31.2 90.7344L41.55 37.1094H48.15L43.725 59.9094H70.425L74.85 37.1094H81.525L71.175 90.7344H64.5L69.375 65.3094H42.675L37.8 90.7344H31.2ZM83.6279 42.9594L84.7529 37.1094H125.478L124.353 42.9594H107.253L98.0279 90.7344H91.4279L100.653 42.9594H83.6279ZM124.939 42.9594L126.064 37.1094H166.789L165.664 42.9594H148.564L139.339 90.7344H132.739L141.964 42.9594H124.939Z" fill="#D3BBDB"/>
<path d="M590.21 243.325H447.411H359.219C347.469 243.325 337.945 233.865 337.945 222.193C337.945 210.522 347.469 201.061 359.219 201.061H464.856H587.611H693.248C704.998 201.061 714.522 191.6 714.522 179.928C714.522 168.257 704.998 158.796 693.248 158.796H605.057H447.395H359.203C347.454 158.796 337.93 149.335 337.93 137.664C337.93 125.992 347.454 116.531 359.203 116.531H714.522" stroke="#CED7E9" stroke-width="2.5" stroke-miterlimit="10" stroke-linecap="round"/>
<path d="M551.59 255.537C558.509 255.537 564.118 249.966 564.118 243.093C564.118 236.22 558.509 230.648 551.59 230.648C544.671 230.648 539.062 236.22 539.062 243.093C539.062 249.966 544.671 255.537 551.59 255.537Z" fill="#CED7E9"/>
<path d="M509.184 255.537C516.103 255.537 521.712 249.966 521.712 243.093C521.712 236.22 516.103 230.648 509.184 230.648C502.265 230.648 496.656 236.22 496.656 243.093C496.656 249.966 502.265 255.537 509.184 255.537Z" fill="#CED7E9"/>
<path d="M466.77 255.537C473.689 255.537 479.297 249.966 479.297 243.093C479.297 236.22 473.689 230.648 466.77 230.648C459.851 230.648 454.242 236.22 454.242 243.093C454.242 249.966 459.851 255.537 466.77 255.537Z" fill="#CED7E9"/>
<path d="M424.364 255.537C431.282 255.537 436.891 249.966 436.891 243.093C436.891 236.22 431.282 230.648 424.364 230.648C417.445 230.648 411.836 236.22 411.836 243.093C411.836 249.966 417.445 255.537 424.364 255.537Z" fill="#CED7E9"/>
<path d="M381.957 255.537C388.876 255.537 394.485 249.966 394.485 243.093C394.485 236.22 388.876 230.648 381.957 230.648C375.039 230.648 369.43 236.22 369.43 243.093C369.43 249.966 375.039 255.537 381.957 255.537Z" fill="#CED7E9"/>
<path d="M678.825 213.428C685.743 213.428 691.352 207.856 691.352 200.984C691.352 194.111 685.743 188.539 678.825 188.539C671.906 188.539 666.297 194.111 666.297 200.984C666.297 207.856 671.906 213.428 678.825 213.428Z" fill="#CED7E9"/>
<path d="M636.418 213.428C643.337 213.428 648.946 207.856 648.946 200.984C648.946 194.111 643.337 188.539 636.418 188.539C629.499 188.539 623.891 194.111 623.891 200.984C623.891 207.856 629.499 213.428 636.418 213.428Z" fill="#CED7E9"/>
<path d="M593.996 213.428C600.915 213.428 606.524 207.856 606.524 200.984C606.524 194.111 600.915 188.539 593.996 188.539C587.078 188.539 581.469 194.111 581.469 200.984C581.469 207.856 587.078 213.428 593.996 213.428Z" fill="#CED7E9"/>
<path d="M551.59 213.428C558.509 213.428 564.118 207.856 564.118 200.984C564.118 194.111 558.509 188.539 551.59 188.539C544.671 188.539 539.062 194.111 539.062 200.984C539.062 207.856 544.671 213.428 551.59 213.428Z" fill="#CED7E9"/>
<path d="M509.184 213.428C516.103 213.428 521.712 207.856 521.712 200.984C521.712 194.111 516.103 188.539 509.184 188.539C502.265 188.539 496.656 194.111 496.656 200.984C496.656 207.856 502.265 213.428 509.184 213.428Z" fill="#CED7E9"/>
<path d="M466.77 213.428C473.689 213.428 479.297 207.856 479.297 200.984C479.297 194.111 473.689 188.539 466.77 188.539C459.851 188.539 454.242 194.111 454.242 200.984C454.242 207.856 459.851 213.428 466.77 213.428Z" fill="#CED7E9"/>
<path d="M424.364 213.428C431.282 213.428 436.891 207.856 436.891 200.984C436.891 194.111 431.282 188.539 424.364 188.539C417.445 188.539 411.836 194.111 411.836 200.984C411.836 207.856 417.445 213.428 424.364 213.428Z" fill="#CED7E9"/>
<path d="M381.957 213.428C388.876 213.428 394.485 207.856 394.485 200.984C394.485 194.111 388.876 188.539 381.957 188.539C375.039 188.539 369.43 194.111 369.43 200.984C369.43 207.856 375.039 213.428 381.957 213.428Z" fill="#CED7E9"/>
<path d="M678.825 171.334C685.743 171.334 691.352 165.763 691.352 158.89C691.352 152.017 685.743 146.445 678.825 146.445C671.906 146.445 666.297 152.017 666.297 158.89C666.297 165.763 671.906 171.334 678.825 171.334Z" fill="#CED7E9"/>
<path d="M636.418 171.334C643.337 171.334 648.946 165.763 648.946 158.89C648.946 152.017 643.337 146.445 636.418 146.445C629.499 146.445 623.891 152.017 623.891 158.89C623.891 165.763 629.499 171.334 636.418 171.334Z" fill="#CED7E9"/>
<path d="M593.996 171.334C600.915 171.334 606.524 165.763 606.524 158.89C606.524 152.017 600.915 146.445 593.996 146.445C587.078 146.445 581.469 152.017 581.469 158.89C581.469 165.763 587.078 171.334 593.996 171.334Z" fill="#CED7E9"/>
<path d="M551.59 171.334C558.509 171.334 564.118 165.763 564.118 158.89C564.118 152.017 558.509 146.445 551.59 146.445C544.671 146.445 539.062 152.017 539.062 158.89C539.062 165.763 544.671 171.334 551.59 171.334Z" fill="#CED7E9"/>
<path d="M509.184 171.334C516.103 171.334 521.712 165.763 521.712 158.89C521.712 152.017 516.103 146.445 509.184 146.445C502.265 146.445 496.656 152.017 496.656 158.89C496.656 165.763 502.265 171.334 509.184 171.334Z" fill="#CED7E9"/>
<path d="M466.77 171.334C473.689 171.334 479.297 165.763 479.297 158.89C479.297 152.017 473.689 146.445 466.77 146.445C459.851 146.445 454.242 152.017 454.242 158.89C454.242 165.763 459.851 171.334 466.77 171.334Z" fill="#CED7E9"/>
<path d="M424.364 171.334C431.282 171.334 436.891 165.763 436.891 158.89C436.891 152.017 431.282 146.445 424.364 146.445C417.445 146.445 411.836 152.017 411.836 158.89C411.836 165.763 417.445 171.334 424.364 171.334Z" fill="#CED7E9"/>
<path d="M381.957 171.334C388.876 171.334 394.485 165.763 394.485 158.89C394.485 152.017 388.876 146.445 381.957 146.445C375.039 146.445 369.43 152.017 369.43 158.89C369.43 165.763 375.039 171.334 381.957 171.334Z" fill="#CED7E9"/>
<path d="M678.825 129.24C685.743 129.24 691.352 123.669 691.352 116.796C691.352 109.923 685.743 104.352 678.825 104.352C671.906 104.352 666.297 109.923 666.297 116.796C666.297 123.669 671.906 129.24 678.825 129.24Z" fill="#CED7E9"/>
<path d="M636.418 129.24C643.337 129.24 648.946 123.669 648.946 116.796C648.946 109.923 643.337 104.352 636.418 104.352C629.499 104.352 623.891 109.923 623.891 116.796C623.891 123.669 629.499 129.24 636.418 129.24Z" fill="#CED7E9"/>
<path d="M593.996 129.24C600.915 129.24 606.524 123.669 606.524 116.796C606.524 109.923 600.915 104.352 593.996 104.352C587.078 104.352 581.469 109.923 581.469 116.796C581.469 123.669 587.078 129.24 593.996 129.24Z" fill="#CED7E9"/>
<path d="M551.59 129.24C558.509 129.24 564.118 123.669 564.118 116.796C564.118 109.923 558.509 104.352 551.59 104.352C544.671 104.352 539.062 109.923 539.062 116.796C539.062 123.669 544.671 129.24 551.59 129.24Z" fill="#CED7E9"/>
<path d="M509.184 129.24C516.103 129.24 521.712 123.669 521.712 116.796C521.712 109.923 516.103 104.352 509.184 104.352C502.265 104.352 496.656 109.923 496.656 116.796C496.656 123.669 502.265 129.24 509.184 129.24Z" fill="#CED7E9"/>
<path d="M466.77 129.24C473.689 129.24 479.297 123.669 479.297 116.796C479.297 109.923 473.689 104.352 466.77 104.352C459.851 104.352 454.242 109.923 454.242 116.796C454.242 123.669 459.851 129.24 466.77 129.24Z" fill="#CED7E9"/>
<path d="M424.364 129.24C431.282 129.24 436.891 123.669 436.891 116.796C436.891 109.923 431.282 104.352 424.364 104.352C417.445 104.352 411.836 109.923 411.836 116.796C411.836 123.669 417.445 129.24 424.364 129.24Z" fill="#CED7E9"/>
<path d="M381.957 129.24C388.876 129.24 394.485 123.669 394.485 116.796C394.485 109.923 388.876 104.352 381.957 104.352C375.039 104.352 369.43 109.923 369.43 116.796C369.43 123.669 375.039 129.24 381.957 129.24Z" fill="#CED7E9"/>
<path d="M339.551 234.623C346.47 234.623 352.079 229.052 352.079 222.179C352.079 215.306 346.47 209.734 339.551 209.734C332.632 209.734 327.023 215.306 327.023 222.179C327.023 229.052 332.632 234.623 339.551 234.623Z" fill="#CED7E9"/>
<path d="M339.551 148.037C346.47 148.037 352.079 142.466 352.079 135.593C352.079 128.72 346.47 123.148 339.551 123.148C332.632 123.148 327.023 128.72 327.023 135.593C327.023 142.466 332.632 148.037 339.551 148.037Z" fill="#CED7E9"/>
<path d="M714.543 188.014C721.462 188.014 727.071 182.442 727.071 175.569C727.071 168.697 721.462 163.125 714.543 163.125C707.624 163.125 702.016 168.697 702.016 175.569C702.016 182.442 707.624 188.014 714.543 188.014Z" fill="#CED7E9"/>
<path d="M714.538 841.988H605.072H447.41H359.219C347.469 841.988 337.945 832.527 337.945 820.855C337.945 809.184 347.469 799.723 359.219 799.723H464.856H587.611H693.248C704.998 799.723 714.522 790.262 714.522 778.591C714.522 766.919 704.998 757.458 693.248 757.458H605.057H447.395H359.203C347.454 757.458 337.93 747.997 337.93 736.326C337.93 724.654 347.454 715.194 359.203 715.194H464.84H587.596H693.233C704.982 715.194 714.506 705.733 714.506 694.061C714.506 682.39 704.982 672.929 693.233 672.929H605.041H447.379H359.188C347.438 672.929 337.914 663.468 337.914 651.796C337.914 640.125 347.438 630.664 359.188 630.664H714.506" stroke="url(#paint0_linear_976_4660)" stroke-width="2.5" stroke-miterlimit="10" stroke-linecap="round"/>
<path d="M678.825 855.529C685.743 855.529 691.352 849.958 691.352 843.085C691.352 836.212 685.743 830.641 678.825 830.641C671.906 830.641 666.297 836.212 666.297 843.085C666.297 849.958 671.906 855.529 678.825 855.529Z" fill="#CED7E9"/>
<path d="M636.418 855.529C643.337 855.529 648.946 849.958 648.946 843.085C648.946 836.212 643.337 830.641 636.418 830.641C629.499 830.641 623.891 836.212 623.891 843.085C623.891 849.958 629.499 855.529 636.418 855.529Z" fill="#CED7E9"/>
<path d="M593.996 855.529C600.915 855.529 606.524 849.958 606.524 843.085C606.524 836.212 600.915 830.641 593.996 830.641C587.078 830.641 581.469 836.212 581.469 843.085C581.469 849.958 587.078 855.529 593.996 855.529Z" fill="#CED7E9"/>
<path d="M551.59 855.529C558.509 855.529 564.118 849.958 564.118 843.085C564.118 836.212 558.509 830.641 551.59 830.641C544.671 830.641 539.062 836.212 539.062 843.085C539.062 849.958 544.671 855.529 551.59 855.529Z" fill="#CED7E9"/>
<path d="M509.184 855.529C516.103 855.529 521.712 849.958 521.712 843.085C521.712 836.212 516.103 830.641 509.184 830.641C502.265 830.641 496.656 836.212 496.656 843.085C496.656 849.958 502.265 855.529 509.184 855.529Z" fill="#CED7E9"/>
<path d="M466.77 855.529C473.689 855.529 479.297 849.958 479.297 843.085C479.297 836.212 473.689 830.641 466.77 830.641C459.851 830.641 454.242 836.212 454.242 843.085C454.242 849.958 459.851 855.529 466.77 855.529Z" fill="#CED7E9"/>
<path d="M424.364 855.529C431.282 855.529 436.891 849.958 436.891 843.085C436.891 836.212 431.282 830.641 424.364 830.641C417.445 830.641 411.836 836.212 411.836 843.085C411.836 849.958 417.445 855.529 424.364 855.529Z" fill="#CED7E9"/>
<path d="M381.957 855.529C388.876 855.529 394.485 849.958 394.485 843.085C394.485 836.212 388.876 830.641 381.957 830.641C375.039 830.641 369.43 836.212 369.43 843.085C369.43 849.958 375.039 855.529 381.957 855.529Z" fill="#CED7E9"/>
<path d="M678.825 810.467C685.743 810.467 691.352 804.895 691.352 798.023C691.352 791.15 685.743 785.578 678.825 785.578C671.906 785.578 666.297 791.15 666.297 798.023C666.297 804.895 671.906 810.467 678.825 810.467Z" fill="#CED7E9"/>
<path d="M636.418 810.467C643.337 810.467 648.946 804.895 648.946 798.023C648.946 791.15 643.337 785.578 636.418 785.578C629.499 785.578 623.891 791.15 623.891 798.023C623.891 804.895 629.499 810.467 636.418 810.467Z" fill="#CED7E9"/>
<path d="M593.996 810.467C600.915 810.467 606.524 804.895 606.524 798.023C606.524 791.15 600.915 785.578 593.996 785.578C587.078 785.578 581.469 791.15 581.469 798.023C581.469 804.895 587.078 810.467 593.996 810.467Z" fill="#CED7E9"/>
<path d="M551.59 810.467C558.509 810.467 564.118 804.895 564.118 798.023C564.118 791.15 558.509 785.578 551.59 785.578C544.671 785.578 539.062 791.15 539.062 798.023C539.062 804.895 544.671 810.467 551.59 810.467Z" fill="#CED7E9"/>
<path d="M509.184 810.467C516.103 810.467 521.712 804.895 521.712 798.023C521.712 791.15 516.103 785.578 509.184 785.578C502.265 785.578 496.656 791.15 496.656 798.023C496.656 804.895 502.265 810.467 509.184 810.467Z" fill="#CED7E9"/>
<path d="M466.77 810.467C473.689 810.467 479.297 804.895 479.297 798.023C479.297 791.15 473.689 785.578 466.77 785.578C459.851 785.578 454.242 791.15 454.242 798.023C454.242 804.895 459.851 810.467 466.77 810.467Z" fill="#CED7E9"/>
<path d="M424.364 810.467C431.282 810.467 436.891 804.895 436.891 798.023C436.891 791.15 431.282 785.578 424.364 785.578C417.445 785.578 411.836 791.15 411.836 798.023C411.836 804.895 417.445 810.467 424.364 810.467Z" fill="#CED7E9"/>
<path d="M381.957 810.467C388.876 810.467 394.485 804.895 394.485 798.023C394.485 791.15 388.876 785.578 381.957 785.578C375.039 785.578 369.43 791.15 369.43 798.023C369.43 804.895 375.039 810.467 381.957 810.467Z" fill="#CED7E9"/>
<path d="M678.825 769.655C685.743 769.655 691.352 764.083 691.352 757.21C691.352 750.337 685.743 744.766 678.825 744.766C671.906 744.766 666.297 750.337 666.297 757.21C666.297 764.083 671.906 769.655 678.825 769.655Z" fill="#CED7E9"/>
<path d="M636.418 769.655C643.337 769.655 648.946 764.083 648.946 757.21C648.946 750.337 643.337 744.766 636.418 744.766C629.499 744.766 623.891 750.337 623.891 757.21C623.891 764.083 629.499 769.655 636.418 769.655Z" fill="#CED7E9"/>
<path d="M593.996 769.655C600.915 769.655 606.524 764.083 606.524 757.21C606.524 750.337 600.915 744.766 593.996 744.766C587.078 744.766 581.469 750.337 581.469 757.21C581.469 764.083 587.078 769.655 593.996 769.655Z" fill="#CED7E9"/>
<path d="M551.59 769.655C558.509 769.655 564.118 764.083 564.118 757.21C564.118 750.337 558.509 744.766 551.59 744.766C544.671 744.766 539.062 750.337 539.062 757.21C539.062 764.083 544.671 769.655 551.59 769.655Z" fill="#CED7E9"/>
<path d="M509.184 769.655C516.103 769.655 521.712 764.083 521.712 757.21C521.712 750.337 516.103 744.766 509.184 744.766C502.265 744.766 496.656 750.337 496.656 757.21C496.656 764.083 502.265 769.655 509.184 769.655Z" fill="#CED7E9"/>
<path d="M466.77 769.655C473.689 769.655 479.297 764.083 479.297 757.21C479.297 750.337 473.689 744.766 466.77 744.766C459.851 744.766 454.242 750.337 454.242 757.21C454.242 764.083 459.851 769.655 466.77 769.655Z" fill="#CED7E9"/>
<path d="M424.364 769.655C431.282 769.655 436.891 764.083 436.891 757.21C436.891 750.337 431.282 744.766 424.364 744.766C417.445 744.766 411.836 750.337 411.836 757.21C411.836 764.083 417.445 769.655 424.364 769.655Z" fill="#CED7E9"/>
<path d="M381.957 769.655C388.876 769.655 394.485 764.083 394.485 757.21C394.485 750.337 388.876 744.766 381.957 744.766C375.039 744.766 369.43 750.337 369.43 757.21C369.43 764.083 375.039 769.655 381.957 769.655Z" fill="#CED7E9"/>
<path d="M678.825 727.561C685.743 727.561 691.352 721.989 691.352 715.116C691.352 708.243 685.743 702.672 678.825 702.672C671.906 702.672 666.297 708.243 666.297 715.116C666.297 721.989 671.906 727.561 678.825 727.561Z" fill="url(#paint1_linear_976_4660)"/>
<path d="M636.418 727.561C643.337 727.561 648.946 721.989 648.946 715.116C648.946 708.243 643.337 702.672 636.418 702.672C629.499 702.672 623.891 708.243 623.891 715.116C623.891 721.989 629.499 727.561 636.418 727.561Z" fill="url(#paint2_linear_976_4660)"/>
<path d="M593.996 727.561C600.915 727.561 606.524 721.989 606.524 715.116C606.524 708.243 600.915 702.672 593.996 702.672C587.078 702.672 581.469 708.243 581.469 715.116C581.469 721.989 587.078 727.561 593.996 727.561Z" fill="url(#paint3_linear_976_4660)"/>
<path d="M551.59 727.561C558.509 727.561 564.118 721.989 564.118 715.116C564.118 708.243 558.509 702.672 551.59 702.672C544.671 702.672 539.062 708.243 539.062 715.116C539.062 721.989 544.671 727.561 551.59 727.561Z" fill="#CED7E9"/>
<path d="M509.184 727.561C516.103 727.561 521.712 721.989 521.712 715.116C521.712 708.243 516.103 702.672 509.184 702.672C502.265 702.672 496.656 708.243 496.656 715.116C496.656 721.989 502.265 727.561 509.184 727.561Z" fill="#CED7E9"/>
<path d="M466.77 727.561C473.689 727.561 479.297 721.989 479.297 715.116C479.297 708.243 473.689 702.672 466.77 702.672C459.851 702.672 454.242 708.243 454.242 715.116C454.242 721.989 459.851 727.561 466.77 727.561Z" fill="#CED7E9"/>
<path d="M424.364 727.561C431.282 727.561 436.891 721.989 436.891 715.116C436.891 708.243 431.282 702.672 424.364 702.672C417.445 702.672 411.836 708.243 411.836 715.116C411.836 721.989 417.445 727.561 424.364 727.561Z" fill="#CED7E9"/>
<path d="M381.957 727.561C388.876 727.561 394.485 721.989 394.485 715.116C394.485 708.243 388.876 702.672 381.957 702.672C375.039 702.672 369.43 708.243 369.43 715.116C369.43 721.989 375.039 727.561 381.957 727.561Z" fill="#CED7E9"/>
<path d="M678.825 685.467C685.743 685.467 691.352 679.895 691.352 673.023C691.352 666.15 685.743 660.578 678.825 660.578C671.906 660.578 666.297 666.15 666.297 673.023C666.297 679.895 671.906 685.467 678.825 685.467Z" fill="#FF8FA3"/>
<path d="M636.418 685.467C643.337 685.467 648.946 679.895 648.946 673.023C648.946 666.15 643.337 660.578 636.418 660.578C629.499 660.578 623.891 666.15 623.891 673.023C623.891 679.895 629.499 685.467 636.418 685.467Z" fill="#FF8FA3"/>
<path d="M593.996 685.467C600.915 685.467 606.524 679.895 606.524 673.023C606.524 666.15 600.915 660.578 593.996 660.578C587.078 660.578 581.469 666.15 581.469 673.023C581.469 679.895 587.078 685.467 593.996 685.467Z" fill="#FF8FA3"/>
<path d="M551.59 685.467C558.509 685.467 564.118 679.895 564.118 673.023C564.118 666.15 558.509 660.578 551.59 660.578C544.671 660.578 539.062 666.15 539.062 673.023C539.062 679.895 544.671 685.467 551.59 685.467Z" fill="#FF8FA3"/>
<path d="M509.184 685.467C516.103 685.467 521.712 679.895 521.712 673.023C521.712 666.15 516.103 660.578 509.184 660.578C502.265 660.578 496.656 666.15 496.656 673.023C496.656 679.895 502.265 685.467 509.184 685.467Z" fill="#FF8FA3"/>
<path d="M466.77 685.467C473.689 685.467 479.297 679.895 479.297 673.023C479.297 666.15 473.689 660.578 466.77 660.578C459.851 660.578 454.242 666.15 454.242 673.023C454.242 679.895 459.851 685.467 466.77 685.467Z" fill="#FF8FA3"/>
<path d="M424.364 685.467C431.282 685.467 436.891 679.895 436.891 673.023C436.891 666.15 431.282 660.578 424.364 660.578C417.445 660.578 411.836 666.15 411.836 673.023C411.836 679.895 417.445 685.467 424.364 685.467Z" fill="#FF8FA3"/>
<path d="M381.957 685.467C388.876 685.467 394.485 679.895 394.485 673.023C394.485 666.15 388.876 660.578 381.957 660.578C375.039 660.578 369.43 666.15 369.43 673.023C369.43 679.895 375.039 685.467 381.957 685.467Z" fill="#FF8FA3"/>
<path d="M678.825 643.358C685.743 643.358 691.352 637.786 691.352 630.913C691.352 624.04 685.743 618.469 678.825 618.469C671.906 618.469 666.297 624.04 666.297 630.913C666.297 637.786 671.906 643.358 678.825 643.358Z" fill="#FF8FA3"/>
<path d="M636.418 643.358C643.337 643.358 648.946 637.786 648.946 630.913C648.946 624.04 643.337 618.469 636.418 618.469C629.499 618.469 623.891 624.04 623.891 630.913C623.891 637.786 629.499 643.358 636.418 643.358Z" fill="#FF8FA3"/>
<path d="M593.996 643.358C600.915 643.358 606.524 637.786 606.524 630.913C606.524 624.04 600.915 618.469 593.996 618.469C587.078 618.469 581.469 624.04 581.469 630.913C581.469 637.786 587.078 643.358 593.996 643.358Z" fill="#FF8FA3"/>
<path d="M551.59 643.358C558.509 643.358 564.118 637.786 564.118 630.913C564.118 624.04 558.509 618.469 551.59 618.469C544.671 618.469 539.062 624.04 539.062 630.913C539.062 637.786 544.671 643.358 551.59 643.358Z" fill="#FF8FA3"/>
<path d="M509.184 643.358C516.103 643.358 521.712 637.786 521.712 630.913C521.712 624.04 516.103 618.469 509.184 618.469C502.265 618.469 496.656 624.04 496.656 630.913C496.656 637.786 502.265 643.358 509.184 643.358Z" fill="#FF8FA3"/>
<path d="M466.77 643.358C473.689 643.358 479.297 637.786 479.297 630.913C479.297 624.04 473.689 618.469 466.77 618.469C459.851 618.469 454.242 624.04 454.242 630.913C454.242 637.786 459.851 643.358 466.77 643.358Z" fill="#FF8FA3"/>
<path d="M424.364 643.358C431.282 643.358 436.891 637.786 436.891 630.913C436.891 624.04 431.282 618.469 424.364 618.469C417.445 618.469 411.836 624.04 411.836 630.913C411.836 637.786 417.445 643.358 424.364 643.358Z" fill="#FF8FA3"/>
<path d="M381.957 643.358C388.876 643.358 394.485 637.786 394.485 630.913C394.485 624.04 388.876 618.469 381.957 618.469C375.039 618.469 369.43 624.04 369.43 630.913C369.43 637.786 375.039 643.358 381.957 643.358Z" fill="#FF8FA3"/>
<path d="M339.551 835.358C346.47 835.358 352.079 829.786 352.079 822.913C352.079 816.04 346.47 810.469 339.551 810.469C332.632 810.469 327.023 816.04 327.023 822.913C327.023 829.786 332.632 835.358 339.551 835.358Z" fill="#CED7E9"/>
<path d="M339.551 748.756C346.47 748.756 352.079 743.184 352.079 736.312C352.079 729.439 346.47 723.867 339.551 723.867C332.632 723.867 327.023 729.439 327.023 736.312C327.023 743.184 332.632 748.756 339.551 748.756Z" fill="#CED7E9"/>
<path d="M339.551 662.154C346.47 662.154 352.079 656.583 352.079 649.71C352.079 642.837 346.47 637.266 339.551 637.266C332.632 637.266 327.023 642.837 327.023 649.71C327.023 656.583 332.632 662.154 339.551 662.154Z" fill="#FF8FA3"/>
<path d="M714.543 788.748C721.462 788.748 727.071 783.177 727.071 776.304C727.071 769.431 721.462 763.859 714.543 763.859C707.624 763.859 702.016 769.431 702.016 776.304C702.016 783.177 707.624 788.748 714.543 788.748Z" fill="#CED7E9"/>
<path d="M714.543 702.147C721.462 702.147 727.071 696.575 727.071 689.702C727.071 682.829 721.462 677.258 714.543 677.258C707.624 677.258 702.016 682.829 702.016 689.702C702.016 696.575 707.624 702.147 714.543 702.147Z" fill="url(#paint4_linear_976_4660)"/>
<path d="M348.82 458.076V427.328H414.836V458.076" stroke="white" stroke-width="1.25" stroke-miterlimit="10"/>
<path d="M381.828 427.328L381.828 246.398" stroke="white" stroke-width="1.25" stroke-miterlimit="10"/>
<path d="M384.95 246.061C385.971 244.42 385.46 242.267 383.807 241.253C382.155 240.238 379.988 240.746 378.966 242.388C377.945 244.029 378.457 246.182 380.109 247.196C381.761 248.211 383.929 247.703 384.95 246.061Z" fill="white"/>
<path d="M415.789 502.938V533.685H349.758V502.938" stroke="white" stroke-width="1.25" stroke-miterlimit="10"/>
<path d="M381.828 533.594V631.819" stroke="white" stroke-width="1.25" stroke-miterlimit="10"/>
<path d="M378.312 631.634C378.312 633.567 379.884 635.128 381.83 635.128C383.775 635.128 385.347 633.567 385.347 631.634C385.347 629.702 383.775 628.141 381.83 628.141C379.884 628.141 378.312 629.702 378.312 631.634Z" fill="white"/>
<path d="M30.99 120.094V107.224H33.6V112.264H38.658V107.224H41.268V120.094H38.658V114.424H33.6V120.094H30.99ZM51.234 120.094H48.876V119.014H48.822C48.486 119.47 48.114 119.806 47.706 120.022C47.31 120.238 46.8 120.346 46.176 120.346C45.168 120.346 44.382 120.046 43.818 119.446C43.254 118.846 42.972 118.036 42.972 117.016V110.86H45.402V116.602C45.402 117.718 45.912 118.276 46.932 118.276C47.496 118.276 47.946 118.084 48.282 117.7C48.618 117.316 48.786 116.812 48.786 116.188V110.86H51.234V120.094ZM55.2114 110.86V112.12H55.2654C55.9014 111.112 56.8134 110.608 58.0014 110.608C58.9494 110.608 59.7174 110.932 60.3054 111.58C60.8934 112.216 61.1874 113.044 61.1874 114.064V120.094H58.7394V114.424C58.7394 113.92 58.5954 113.512 58.3074 113.2C58.0314 112.888 57.6414 112.732 57.1374 112.732C56.5974 112.732 56.1474 112.93 55.7874 113.326C55.4394 113.722 55.2654 114.232 55.2654 114.856V120.094H52.8174V110.86H55.2114ZM61.9805 112.48V110.86H63.2585V107.98H65.6525V110.86H67.2365V112.48H65.6525V117.376C65.6525 117.988 65.9585 118.294 66.5705 118.294L67.2905 118.276V120.076C66.9185 120.1 66.4085 120.112 65.7605 120.112C65.0525 120.112 64.4585 119.944 63.9785 119.608C63.4985 119.26 63.2585 118.69 63.2585 117.898V112.48H61.9805ZM68.4971 120.094V110.86H70.9451V120.094H68.4971ZM68.4971 109.42V107.224H70.9451V109.42H68.4971ZM74.9165 110.86V112.12H74.9705C75.6065 111.112 76.5185 110.608 77.7065 110.608C78.6545 110.608 79.4225 110.932 80.0105 111.58C80.5985 112.216 80.8925 113.044 80.8925 114.064V120.094H78.4445V114.424C78.4445 113.92 78.3005 113.512 78.0125 113.2C77.7365 112.888 77.3465 112.732 76.8425 112.732C76.3025 112.732 75.8525 112.93 75.4925 113.326C75.1445 113.722 74.9705 114.232 74.9705 114.856V120.094H72.5225V110.86H74.9165ZM86.4694 123.244C85.2214 123.244 84.2194 122.992 83.4634 122.488C82.7194 121.984 82.2814 121.276 82.1494 120.364H84.5794C84.8194 121.048 85.4374 121.39 86.4334 121.39C87.8014 121.39 88.4854 120.748 88.4854 119.464V118.456H88.4314C87.7954 119.176 86.9914 119.536 86.0194 119.536C84.9274 119.536 83.9734 119.134 83.1574 118.33C82.3534 117.526 81.9514 116.458 81.9514 115.126C81.9514 113.758 82.3234 112.666 83.0674 111.85C83.8114 111.022 84.7714 110.608 85.9474 110.608C87.0634 110.608 87.9154 111.016 88.5034 111.832H88.5394V110.86H90.8974V119.392C90.8974 120.592 90.5314 121.528 89.7994 122.2C89.0554 122.896 87.9454 123.244 86.4694 123.244ZM86.4334 117.574C87.1654 117.574 87.7114 117.34 88.0714 116.872C88.4314 116.404 88.6114 115.804 88.6114 115.072C88.6114 114.352 88.4194 113.758 88.0354 113.29C87.6634 112.81 87.1234 112.57 86.4154 112.57C85.7914 112.57 85.2874 112.798 84.9034 113.254C84.5314 113.71 84.3454 114.322 84.3454 115.09C84.3454 115.87 84.5314 116.482 84.9034 116.926C85.2874 117.358 85.7974 117.574 86.4334 117.574ZM91.9336 112.48V110.86H93.2116V107.98H95.6056V110.86H97.1896V112.48H95.6056V117.376C95.6056 117.988 95.9116 118.294 96.5236 118.294L97.2436 118.276V120.076C96.8716 120.1 96.3616 120.112 95.7136 120.112C95.0056 120.112 94.4116 119.944 93.9316 119.608C93.4516 119.26 93.2116 118.69 93.2116 117.898V112.48H91.9336ZM98.4502 120.094V110.86H100.898V120.094H98.4502ZM98.4502 109.42V107.224H100.898V109.42H98.4502ZM104.87 110.86V112.12H104.924C105.56 111.112 106.472 110.608 107.66 110.608C108.608 110.608 109.376 110.932 109.964 111.58C110.552 112.216 110.846 113.044 110.846 114.064V120.094H108.398V114.424C108.398 113.92 108.254 113.512 107.966 113.2C107.69 112.888 107.3 112.732 106.796 112.732C106.256 112.732 105.806 112.93 105.446 113.326C105.098 113.722 104.924 114.232 104.924 114.856V120.094H102.476V110.86H104.87ZM117.247 122.452C116.335 120.604 115.879 118.702 115.879 116.746C115.879 113.026 117.361 109.618 120.325 106.522H122.503C121.195 108.046 120.163 109.714 119.407 111.526C118.651 113.338 118.273 115.18 118.273 117.052C118.273 118.876 118.591 120.676 119.227 122.452H117.247ZM120.881 120.094L123.365 107.224H125.939L124.967 112.282H129.701L130.673 107.224H133.247L130.763 120.094H128.189L129.287 114.406H124.553L123.455 120.094H120.881ZM134.079 109.402L134.493 107.224H144.501L144.087 109.402H140.361L138.291 120.094H135.717L137.787 109.402H134.079ZM144.696 109.402L145.11 107.224H155.118L154.704 109.402H150.978L148.908 120.094H146.334L148.404 109.402H144.696ZM157.973 106.522C158.885 108.37 159.341 110.272 159.341 112.228C159.341 115.948 157.859 119.356 154.895 122.452H152.717C154.025 120.928 155.057 119.26 155.813 117.448C156.569 115.636 156.947 113.794 156.947 111.922C156.947 110.098 156.629 108.298 155.993 106.522H157.973ZM173.611 120.094L173.521 118.366H173.485C172.693 119.698 171.487 120.364 169.867 120.364C167.983 120.364 166.477 119.74 165.349 118.492C164.233 117.244 163.675 115.648 163.675 113.704C163.675 111.496 164.377 109.744 165.781 108.448C166.861 107.464 168.241 106.972 169.921 106.972C171.493 106.972 172.747 107.362 173.683 108.142C174.631 108.922 175.213 109.966 175.429 111.274H172.873C172.717 110.626 172.393 110.11 171.901 109.726C171.409 109.33 170.767 109.132 169.975 109.132C168.811 109.132 167.911 109.558 167.275 110.41C166.651 111.262 166.339 112.36 166.339 113.704C166.339 115.036 166.663 116.128 167.311 116.98C167.971 117.832 168.847 118.258 169.939 118.258C170.899 118.258 171.691 117.964 172.315 117.376C172.939 116.776 173.251 116.098 173.251 115.342V115.27H170.155V113.254H175.573V120.094H173.611ZM181.538 120.364C180.05 120.364 178.88 119.908 178.028 118.996C177.176 118.072 176.75 116.896 176.75 115.468C176.75 114.088 177.176 112.936 178.028 112.012C178.88 111.076 179.972 110.608 181.304 110.608C182.756 110.608 183.878 111.112 184.67 112.12C185.462 113.128 185.858 114.478 185.858 116.17H179.162C179.258 116.902 179.504 117.472 179.9 117.88C180.296 118.276 180.836 118.474 181.52 118.474C182.42 118.474 183.014 118.096 183.302 117.34H185.714C185.534 118.204 185.078 118.924 184.346 119.5C183.614 120.076 182.678 120.364 181.538 120.364ZM181.34 112.498C180.152 112.498 179.438 113.158 179.198 114.478H183.302C183.266 113.89 183.068 113.416 182.708 113.056C182.348 112.684 181.892 112.498 181.34 112.498ZM189.385 110.86V112.12H189.439C190.075 111.112 190.987 110.608 192.175 110.608C193.123 110.608 193.891 110.932 194.479 111.58C195.067 112.216 195.361 113.044 195.361 114.064V120.094H192.913V114.424C192.913 113.92 192.769 113.512 192.481 113.2C192.205 112.888 191.815 112.732 191.311 112.732C190.771 112.732 190.321 112.93 189.961 113.326C189.613 113.722 189.439 114.232 189.439 114.856V120.094H186.991V110.86H189.385ZM201.208 120.364C199.72 120.364 198.55 119.908 197.698 118.996C196.846 118.072 196.42 116.896 196.42 115.468C196.42 114.088 196.846 112.936 197.698 112.012C198.55 111.076 199.642 110.608 200.974 110.608C202.426 110.608 203.548 111.112 204.34 112.12C205.132 113.128 205.528 114.478 205.528 116.17H198.832C198.928 116.902 199.174 117.472 199.57 117.88C199.966 118.276 200.506 118.474 201.19 118.474C202.09 118.474 202.684 118.096 202.972 117.34H205.384C205.204 118.204 204.748 118.924 204.016 119.5C203.284 120.076 202.348 120.364 201.208 120.364ZM201.01 112.498C199.822 112.498 199.108 113.158 198.868 114.478H202.972C202.936 113.89 202.738 113.416 202.378 113.056C202.018 112.684 201.562 112.498 201.01 112.498ZM35.976 142.382C34.236 142.382 32.886 142.016 31.926 141.284C30.966 140.54 30.462 139.484 30.414 138.116H32.97C33.054 138.884 33.324 139.436 33.78 139.772C34.248 140.108 34.944 140.276 35.868 140.276C36.6 140.276 37.2 140.144 37.668 139.88C38.136 139.604 38.37 139.184 38.37 138.62C38.37 138.416 38.34 138.236 38.28 138.08C38.232 137.912 38.124 137.768 37.956 137.648C37.788 137.516 37.644 137.414 37.524 137.342C37.404 137.258 37.182 137.174 36.858 137.09C36.534 136.994 36.288 136.928 36.12 136.892C35.952 136.844 35.64 136.766 35.184 136.658C34.632 136.526 34.176 136.412 33.816 136.316C33.468 136.22 33.078 136.07 32.646 135.866C32.226 135.662 31.89 135.44 31.638 135.2C31.398 134.948 31.194 134.624 31.026 134.228C30.858 133.82 30.774 133.358 30.774 132.842C30.774 131.606 31.224 130.658 32.124 129.998C33.036 129.326 34.23 128.99 35.706 128.99C37.17 128.99 38.34 129.338 39.216 130.034C40.092 130.73 40.578 131.72 40.674 133.004H38.172C38.1 132.38 37.836 131.9 37.38 131.564C36.936 131.228 36.372 131.06 35.688 131.06C34.98 131.06 34.416 131.198 33.996 131.474C33.576 131.75 33.366 132.116 33.366 132.572C33.366 133.064 33.57 133.424 33.978 133.652C34.398 133.88 35.13 134.108 36.174 134.336C36.798 134.468 37.308 134.594 37.704 134.714C38.1 134.822 38.526 134.984 38.982 135.2C39.45 135.404 39.81 135.632 40.062 135.884C40.326 136.136 40.542 136.472 40.71 136.892C40.89 137.3 40.98 137.774 40.98 138.314C40.98 139.586 40.518 140.582 39.594 141.302C38.67 142.022 37.464 142.382 35.976 142.382ZM50.1888 140.978C49.2888 141.902 48.1308 142.364 46.7148 142.364C45.2988 142.364 44.1408 141.902 43.2408 140.978C42.3408 140.042 41.8908 138.878 41.8908 137.486C41.8908 136.094 42.3408 134.936 43.2408 134.012C44.1408 133.076 45.2988 132.608 46.7148 132.608C48.1308 132.608 49.2888 133.076 50.1888 134.012C51.0888 134.936 51.5388 136.094 51.5388 137.486C51.5388 138.878 51.0888 140.042 50.1888 140.978ZM46.7148 140.492C47.4468 140.492 48.0168 140.222 48.4248 139.682C48.8448 139.13 49.0548 138.398 49.0548 137.486C49.0548 136.574 48.8448 135.842 48.4248 135.29C48.0168 134.738 47.4468 134.462 46.7148 134.462C45.9708 134.462 45.3948 134.738 44.9868 135.29C44.5788 135.83 44.3748 136.562 44.3748 137.486C44.3748 138.398 44.5788 139.13 44.9868 139.682C45.3948 140.222 45.9708 140.492 46.7148 140.492ZM52.6768 142.094V132.86H55.0348V134.102H55.0888C55.6768 133.106 56.5708 132.608 57.7708 132.608C58.3468 132.608 58.8568 132.758 59.3008 133.058C59.7568 133.346 60.0988 133.736 60.3268 134.228H60.3628C61.0348 133.148 61.9588 132.608 63.1348 132.608C64.0948 132.608 64.8388 132.902 65.3668 133.49C65.9068 134.066 66.1768 134.864 66.1768 135.884V142.094H63.7288V136.298C63.7288 135.242 63.2548 134.714 62.3068 134.714C61.7908 134.714 61.3828 134.9 61.0828 135.272C60.7948 135.632 60.6508 136.118 60.6508 136.73V142.094H58.2028V136.298C58.2028 135.242 57.7288 134.714 56.7808 134.714C56.2888 134.714 55.8868 134.9 55.5748 135.272C55.2748 135.632 55.1248 136.118 55.1248 136.73V142.094H52.6768ZM73.5025 142.094C73.3825 141.938 73.2865 141.596 73.2145 141.068H73.1785C72.9145 141.464 72.5785 141.77 72.1705 141.986C71.7625 142.202 71.1925 142.31 70.4605 142.31C69.4885 142.31 68.7085 142.064 68.1205 141.572C67.5325 141.08 67.2385 140.384 67.2385 139.484C67.2385 138.548 67.5625 137.864 68.2105 137.432C68.8585 136.988 69.7705 136.682 70.9465 136.514C71.8105 136.394 72.3985 136.274 72.7105 136.154C73.0225 136.022 73.1785 135.794 73.1785 135.47C73.1785 135.134 73.0465 134.87 72.7825 134.678C72.5185 134.474 72.1345 134.372 71.6305 134.372C70.5145 134.372 69.9205 134.804 69.8485 135.668H67.6705C67.7065 134.792 68.0605 134.066 68.7325 133.49C69.4045 132.914 70.3765 132.626 71.6485 132.626C74.2405 132.626 75.5365 133.76 75.5365 136.028V140.726C75.5365 141.422 75.6445 141.848 75.8605 142.004V142.094H73.5025ZM71.0545 140.6C71.7265 140.6 72.2545 140.426 72.6385 140.078C73.0345 139.73 73.2325 139.316 73.2325 138.836V137.45C72.9685 137.606 72.3985 137.786 71.5225 137.99C70.8265 138.146 70.3345 138.326 70.0465 138.53C69.7585 138.722 69.6145 139.022 69.6145 139.43C69.6145 140.21 70.0945 140.6 71.0545 140.6ZM76.377 134.48V132.86H77.655V129.98H80.049V132.86H81.633V134.48H80.049V139.376C80.049 139.988 80.355 140.294 80.967 140.294L81.687 140.276V142.076C81.315 142.1 80.805 142.112 80.157 142.112C79.449 142.112 78.855 141.944 78.375 141.608C77.895 141.26 77.655 140.69 77.655 139.898V134.48H76.377ZM82.8936 142.094V132.86H85.3416V142.094H82.8936ZM82.8936 131.42V129.224H85.3416V131.42H82.8936ZM91.203 142.364C89.775 142.364 88.629 141.902 87.765 140.978C86.901 140.054 86.469 138.89 86.469 137.486C86.469 136.082 86.889 134.918 87.729 133.994C88.581 133.07 89.697 132.608 91.077 132.608C92.241 132.608 93.189 132.914 93.921 133.526C94.653 134.138 95.103 134.96 95.271 135.992H92.877C92.793 135.572 92.601 135.23 92.301 134.966C92.001 134.702 91.629 134.57 91.185 134.57C90.465 134.57 89.913 134.828 89.529 135.344C89.145 135.86 88.953 136.574 88.953 137.486C88.953 138.386 89.139 139.1 89.511 139.628C89.883 140.144 90.429 140.402 91.149 140.402C92.217 140.402 92.835 139.88 93.003 138.836H95.361C95.277 139.856 94.863 140.702 94.119 141.374C93.375 142.034 92.403 142.364 91.203 142.364ZM99.6682 142.094V129.224H102.278V142.094H99.6682ZM106.469 132.86V134.12H106.523C107.159 133.112 108.071 132.608 109.259 132.608C110.207 132.608 110.975 132.932 111.563 133.58C112.151 134.216 112.445 135.044 112.445 136.064V142.094H109.997V136.424C109.997 135.92 109.853 135.512 109.565 135.2C109.289 134.888 108.899 134.732 108.395 134.732C107.855 134.732 107.405 134.93 107.045 135.326C106.697 135.722 106.523 136.232 106.523 136.856V142.094H104.075V132.86H106.469ZM117.698 142.364C116.378 142.364 115.346 142.076 114.602 141.5C113.858 140.912 113.45 140.114 113.378 139.106H115.646C115.802 140.126 116.474 140.636 117.662 140.636C118.202 140.636 118.616 140.54 118.904 140.348C119.204 140.156 119.354 139.898 119.354 139.574C119.354 139.454 119.33 139.346 119.282 139.25C119.246 139.154 119.174 139.07 119.066 138.998C118.97 138.914 118.88 138.848 118.796 138.8C118.724 138.752 118.592 138.704 118.4 138.656C118.208 138.608 118.058 138.572 117.95 138.548C117.854 138.524 117.68 138.494 117.428 138.458C117.188 138.41 117.02 138.374 116.924 138.35C116.42 138.254 116.006 138.158 115.682 138.062C115.37 137.954 115.04 137.804 114.692 137.612C114.344 137.408 114.08 137.138 113.9 136.802C113.732 136.454 113.648 136.04 113.648 135.56C113.648 134.6 113.996 133.868 114.692 133.364C115.4 132.86 116.306 132.608 117.41 132.608C118.598 132.608 119.528 132.884 120.2 133.436C120.884 133.976 121.274 134.72 121.37 135.668H119.156C119.06 134.768 118.466 134.318 117.374 134.318C116.882 134.318 116.492 134.408 116.204 134.588C115.928 134.768 115.79 135.02 115.79 135.344C115.79 135.452 115.808 135.554 115.844 135.65C115.892 135.734 115.964 135.812 116.06 135.884C116.168 135.944 116.27 135.998 116.366 136.046C116.462 136.082 116.6 136.124 116.78 136.172C116.96 136.208 117.116 136.244 117.248 136.28C117.38 136.304 117.56 136.34 117.788 136.388C118.016 136.424 118.196 136.454 118.328 136.478C118.712 136.562 119.024 136.64 119.264 136.712C119.516 136.772 119.804 136.88 120.128 137.036C120.452 137.18 120.704 137.348 120.884 137.54C121.076 137.72 121.238 137.972 121.37 138.296C121.514 138.608 121.586 138.974 121.586 139.394C121.586 140.306 121.226 141.032 120.506 141.572C119.798 142.1 118.862 142.364 117.698 142.364ZM121.975 134.48V132.86H123.253V129.98H125.647V132.86H127.231V134.48H125.647V139.376C125.647 139.988 125.953 140.294 126.565 140.294L127.285 140.276V142.076C126.913 142.1 126.403 142.112 125.755 142.112C125.047 142.112 124.453 141.944 123.973 141.608C123.493 141.26 123.253 140.69 123.253 139.898V134.48H121.975ZM134.393 142.094C134.273 141.938 134.177 141.596 134.105 141.068H134.069C133.805 141.464 133.469 141.77 133.061 141.986C132.653 142.202 132.083 142.31 131.351 142.31C130.379 142.31 129.599 142.064 129.011 141.572C128.423 141.08 128.129 140.384 128.129 139.484C128.129 138.548 128.453 137.864 129.101 137.432C129.749 136.988 130.661 136.682 131.837 136.514C132.701 136.394 133.289 136.274 133.601 136.154C133.913 136.022 134.069 135.794 134.069 135.47C134.069 135.134 133.937 134.87 133.673 134.678C133.409 134.474 133.025 134.372 132.521 134.372C131.405 134.372 130.811 134.804 130.739 135.668H128.561C128.597 134.792 128.951 134.066 129.623 133.49C130.295 132.914 131.267 132.626 132.539 132.626C135.131 132.626 136.427 133.76 136.427 136.028V140.726C136.427 141.422 136.535 141.848 136.751 142.004V142.094H134.393ZM131.945 140.6C132.617 140.6 133.145 140.426 133.529 140.078C133.925 139.73 134.123 139.316 134.123 138.836V137.45C133.859 137.606 133.289 137.786 132.413 137.99C131.717 138.146 131.225 138.326 130.937 138.53C130.649 138.722 130.505 139.022 130.505 139.43C130.505 140.21 130.985 140.6 131.945 140.6ZM143.131 142.364C141.883 142.364 140.965 141.89 140.377 140.942H140.341V142.094H137.983V129.224H140.431V133.976H140.485C141.073 133.064 141.931 132.608 143.059 132.608C144.223 132.608 145.177 133.064 145.921 133.976C146.665 134.876 147.037 136.046 147.037 137.486C147.037 138.974 146.677 140.162 145.957 141.05C145.237 141.926 144.295 142.364 143.131 142.364ZM142.591 140.312C143.215 140.312 143.695 140.066 144.031 139.574C144.379 139.082 144.553 138.386 144.553 137.486C144.553 136.598 144.373 135.896 144.013 135.38C143.665 134.852 143.161 134.588 142.501 134.588C141.085 134.588 140.377 135.572 140.377 137.54C140.377 138.392 140.575 139.07 140.971 139.574C141.367 140.066 141.907 140.312 142.591 140.312ZM148.179 142.094V132.86H150.627V142.094H148.179ZM148.179 131.42V129.224H150.627V131.42H148.179ZM152.24 142.094V129.224H154.688V142.094H152.24ZM156.3 142.094V132.86H158.748V142.094H156.3ZM156.3 131.42V129.224H158.748V131.42H156.3ZM159.785 134.48V132.86H161.063V129.98H163.457V132.86H165.041V134.48H163.457V139.376C163.457 139.988 163.763 140.294 164.375 140.294L165.095 140.276V142.076C164.723 142.1 164.213 142.112 163.565 142.112C162.857 142.112 162.263 141.944 161.783 141.608C161.303 141.26 161.063 140.69 161.063 139.898V134.48H159.785ZM166.676 145.118V143.192H167.54C168.452 143.192 168.908 142.772 168.908 141.932C168.908 141.524 168.674 140.69 168.206 139.43L165.722 132.86H168.296L169.664 137.018L170.258 139.034H170.294C170.462 138.254 170.642 137.582 170.834 137.018L172.13 132.86H174.596L171.374 142.328C171.014 143.384 170.606 144.11 170.15 144.506C169.706 144.914 169.028 145.118 168.116 145.118H166.676Z" fill="white"/>
<path d="M440.492 433.844H438.028V442.328H435.746V433.844H433.296V431.912H440.492V433.844ZM447.441 442.328L445.789 438.492H444.865V442.328H442.555V431.912H446.027C448.421 431.912 449.597 433.284 449.597 435.258C449.597 436.588 449.037 437.582 448.001 438.1L449.933 442.328H447.441ZM444.865 433.844V436.686H445.971C446.909 436.686 447.315 436.196 447.315 435.258C447.315 434.334 446.909 433.844 445.943 433.844H444.865ZM457.933 442.328H452.277V440.522H453.957V433.718H452.277V431.912H457.933V433.718H456.239V440.522H457.933V442.328ZM464.644 438.632H463.076V442.328H460.766V431.912H464.238C466.8 431.912 467.892 433.34 467.892 435.328C467.892 437.288 466.786 438.632 464.644 438.632ZM463.076 433.844V436.826H464.14C465.106 436.826 465.596 436.294 465.596 435.328C465.596 434.334 465.12 433.844 464.14 433.844H463.076ZM470.236 442.328V431.912H472.518V440.368H476.578V442.328H470.236ZM485.865 440.368V442.328H478.977V431.912H485.809V433.816H481.245V436.014H485.193V437.82H481.245V440.368H485.865ZM495.125 433.844H492.661V442.328H490.379V433.844H487.929V431.912H495.125V433.844ZM511.18 442.328L509.528 438.492H508.604V442.328H506.294V431.912H509.766C512.16 431.912 513.336 433.284 513.336 435.258C513.336 436.588 512.776 437.582 511.74 438.1L513.672 442.328H511.18ZM508.604 433.844V436.686H509.71C510.648 436.686 511.054 436.196 511.054 435.258C511.054 434.334 510.648 433.844 509.682 433.844H508.604ZM522.287 440.368V442.328H515.399V431.912H522.231V433.816H517.667V436.014H521.615V437.82H517.667V440.368H522.287ZM528.382 438.632H526.814V442.328H524.504V431.912H527.976C530.538 431.912 531.63 433.34 531.63 435.328C531.63 437.288 530.524 438.632 528.382 438.632ZM526.814 433.844V436.826H527.878C528.844 436.826 529.334 436.294 529.334 435.328C529.334 434.334 528.858 433.844 527.878 433.844H526.814ZM540.498 440.368V442.328H533.61V431.912H540.442V433.816H535.878V436.014H539.826V437.82H535.878V440.368H540.498ZM547.615 442.328L547.181 440.228H544.955L544.521 442.328H542.337L544.815 431.912H547.489L549.981 442.328H547.615ZM545.515 437.54L545.291 438.59H546.845L546.635 437.54C546.355 436.14 546.117 433.956 546.117 433.956H546.075C546.075 433.956 545.767 436.322 545.515 437.54ZM558.863 433.844H556.399V442.328H554.117V433.844H551.667V431.912H558.863V433.844ZM564.454 442.58C562.13 442.58 560.632 441.39 560.59 439.052H562.816C562.9 440.354 563.474 440.76 564.44 440.76C565.112 440.76 565.896 440.424 565.896 439.458C565.896 438.506 565.196 438.296 563.922 437.988C562.172 437.568 560.842 436.91 560.842 434.838C560.842 432.752 562.354 431.73 564.356 431.73C566.316 431.73 567.73 432.766 567.786 434.852H565.63C565.56 433.914 565.028 433.466 564.272 433.466C563.544 433.466 562.97 433.83 562.97 434.586C562.97 435.44 563.712 435.664 565.154 436C566.694 436.35 568.052 437.078 568.052 439.234C568.052 441.432 566.624 442.58 564.454 442.58Z" fill="white"/>
<path d="M387.992 897.578L386.34 893.742H385.416V897.578H383.106V887.162H386.578C388.972 887.162 390.148 888.534 390.148 890.508C390.148 891.838 389.588 892.832 388.552 893.35L390.484 897.578H387.992ZM385.416 889.094V891.936H386.522C387.46 891.936 387.866 891.446 387.866 890.508C387.866 889.584 387.46 889.094 386.494 889.094H385.416ZM398.483 897.578H392.827V895.772H394.507V888.968H392.827V887.162H398.483V888.968H396.789V895.772H398.483V897.578ZM404.845 897.83C402.521 897.83 401.023 896.64 400.981 894.302H403.207C403.291 895.604 403.865 896.01 404.831 896.01C405.503 896.01 406.287 895.674 406.287 894.708C406.287 893.756 405.587 893.546 404.313 893.238C402.563 892.818 401.233 892.16 401.233 890.088C401.233 888.002 402.745 886.98 404.747 886.98C406.707 886.98 408.121 888.016 408.177 890.102H406.021C405.951 889.164 405.419 888.716 404.663 888.716C403.935 888.716 403.361 889.08 403.361 889.836C403.361 890.69 404.103 890.914 405.545 891.25C407.085 891.6 408.443 892.328 408.443 894.484C408.443 896.682 407.015 897.83 404.845 897.83ZM415.378 897.578L413.306 892.958L412.69 893.896V897.578H410.422V887.162H412.69V889.192C412.69 889.962 412.662 890.704 412.634 891.236L415.21 887.162H417.604L414.79 891.208L417.758 897.578H415.378ZM435.927 887.162L433.351 897.578H430.803L428.227 887.162H430.593L431.559 892.02C431.839 893.42 432.077 895.534 432.077 895.534H432.119C432.119 895.534 432.427 893.252 432.679 892.02L433.729 887.162H435.927ZM442.639 897.578L442.205 895.478H439.979L439.545 897.578H437.361L439.839 887.162H442.513L445.005 897.578H442.639ZM440.539 892.79L440.315 893.84H441.869L441.659 892.79C441.379 891.39 441.141 889.206 441.141 889.206H441.099C441.099 889.206 440.791 891.572 440.539 892.79ZM451.73 897.578L450.078 893.742H449.154V897.578H446.844V887.162H450.316C452.71 887.162 453.886 888.534 453.886 890.508C453.886 891.838 453.326 892.832 452.29 893.35L454.222 897.578H451.73ZM449.154 889.094V891.936H450.26C451.198 891.936 451.604 891.446 451.604 890.508C451.604 889.584 451.198 889.094 450.232 889.094H449.154ZM462.222 897.578H456.566V895.772H458.246V888.968H456.566V887.162H462.222V888.968H460.528V895.772H462.222V897.578ZM469.955 897.578L469.521 895.478H467.295L466.861 897.578H464.677L467.155 887.162H469.829L472.321 897.578H469.955ZM467.855 892.79L467.631 893.84H469.185L468.975 892.79C468.695 891.39 468.457 889.206 468.457 889.206H468.415C468.415 889.206 468.107 891.572 467.855 892.79ZM474.175 897.578V887.162H476.583L477.857 890.48C478.291 891.6 479.061 893.952 479.061 893.952H479.131C479.131 893.952 478.963 891.46 478.963 890.172V887.162H481.049V897.578H478.641L477.381 894.316C476.947 893.182 476.177 890.802 476.177 890.802H476.107C476.107 890.802 476.275 893.308 476.275 894.596V897.578H474.175ZM490.308 889.094H487.844V897.578H485.562V889.094H483.112V887.162H490.308V889.094Z" fill="white"/>
<path d="M386.606 917.802C384.422 917.802 382.826 916.542 382.798 914.344H384.114C384.156 915.814 385.024 916.696 386.564 916.696C387.824 916.696 388.706 915.912 388.706 914.512C388.706 913.252 387.964 912.58 386.354 912.58H385.724V911.544H386.34C387.824 911.544 388.426 910.83 388.426 909.766C388.426 908.674 387.6 907.974 386.508 907.974C385.178 907.974 384.436 908.884 384.422 910.13H383.12C383.134 908.254 384.394 906.924 386.55 906.924C388.356 906.924 389.742 908.002 389.742 909.78C389.742 910.928 389.07 911.656 388.09 911.978V912.02C389.476 912.384 390.092 913.308 390.092 914.624C390.092 916.64 388.566 917.802 386.606 917.802ZM395.935 917.802C394.815 917.802 394.031 917.41 393.429 916.822C392.393 915.828 392.057 914.372 392.057 912.314C392.057 910.704 392.393 909.248 393.051 908.338C393.709 907.442 394.619 906.924 395.907 906.924C397.909 906.924 398.847 908.254 399.029 909.486H397.699C397.601 908.8 397.055 908.03 395.935 908.03C394.059 908.03 393.401 909.598 393.331 912.356H393.359C394.017 911.264 394.843 910.788 396.047 910.788C397.881 910.788 399.253 912.342 399.267 914.26C399.281 916.206 397.853 917.802 395.935 917.802ZM395.907 916.724C397.167 916.724 398.007 915.716 398.007 914.302C398.007 912.888 397.139 911.88 395.865 911.88C394.479 911.88 393.583 912.902 393.583 914.288C393.583 915.716 394.563 916.724 395.907 916.724ZM413.866 917.802C411.584 917.802 410.31 915.646 410.31 912.37C410.31 909.08 411.5 906.938 413.866 906.938C416.232 906.938 417.422 909.08 417.422 912.37C417.422 915.646 416.148 917.802 413.866 917.802ZM413.88 916.542C415.35 916.542 415.952 914.918 415.952 912.37C415.952 909.808 415.378 908.17 413.88 908.17C412.382 908.17 411.766 909.808 411.766 912.37C411.766 914.918 412.396 916.542 413.88 916.542ZM425.086 917.578L423.07 913.28H421.236V917.578H419.794V907.162H423.518C425.31 907.162 426.528 908.422 426.528 910.2C426.528 911.712 425.772 912.734 424.54 913.112L426.696 917.578H425.086ZM421.236 908.408V912.118H423.238C424.512 912.118 425.1 911.502 425.1 910.256C425.1 909.024 424.498 908.408 423.308 908.408H421.236ZM437.711 917.578V907.162H439.559L440.525 911.824C440.791 913.084 441.155 915.898 441.155 915.898H441.197C441.197 915.898 441.589 913.084 441.841 911.824L442.793 907.162H444.655V917.578H443.423V911.992C443.423 910.788 443.563 908.17 443.563 908.17H443.507C443.507 908.17 443.129 910.648 442.919 911.754L441.799 917.578H440.539L439.419 911.754C439.209 910.648 438.831 908.17 438.831 908.17H438.775C438.775 908.17 438.915 910.788 438.915 911.992V917.578H437.711ZM450.288 917.802C448.006 917.802 446.732 915.646 446.732 912.37C446.732 909.08 447.922 906.938 450.288 906.938C452.654 906.938 453.844 909.08 453.844 912.37C453.844 915.646 452.57 917.802 450.288 917.802ZM450.302 916.542C451.772 916.542 452.374 914.918 452.374 912.37C452.374 909.808 451.8 908.17 450.302 908.17C448.804 908.17 448.188 909.808 448.188 912.37C448.188 914.918 448.818 916.542 450.302 916.542ZM461.508 917.578L459.492 913.28H457.658V917.578H456.216V907.162H459.94C461.732 907.162 462.95 908.422 462.95 910.2C462.95 911.712 462.194 912.734 460.962 913.112L463.118 917.578H461.508ZM457.658 908.408V912.118H459.66C460.934 912.118 461.522 911.502 461.522 910.256C461.522 909.024 460.92 908.408 459.73 908.408H457.658ZM471.803 916.276V917.578H465.321V907.162H471.719V908.422H466.749V911.572H471.229V912.762H466.749V916.276H471.803ZM490.322 908.422H487.424V917.578H485.982V908.422H483.098V907.162H490.322V908.422ZM497.93 917.578L495.914 913.28H494.08V917.578H492.638V907.162H496.362C498.154 907.162 499.372 908.422 499.372 910.2C499.372 911.712 498.616 912.734 497.384 913.112L499.54 917.578H497.93ZM494.08 908.408V912.118H496.082C497.356 912.118 497.944 911.502 497.944 910.256C497.944 909.024 497.342 908.408 496.152 908.408H494.08ZM507.567 917.578H502.275V916.444H504.207V908.31H502.275V907.162H507.567V908.31H505.635V916.444H507.567V917.578ZM514.349 913.294H512.291V917.578H510.849V907.162H514.489C516.407 907.162 517.555 908.422 517.555 910.214C517.555 912.132 516.463 913.294 514.349 913.294ZM512.291 908.408V912.132H514.209C515.483 912.132 516.127 911.418 516.127 910.256C516.127 909.038 515.413 908.408 514.265 908.408H512.291ZM519.954 917.578V907.162H521.382V916.276H526.324V917.578H519.954ZM535.542 916.276V917.578H529.06V907.162H535.458V908.422H530.488V911.572H534.968V912.762H530.488V916.276H535.542ZM544.955 908.422H542.057V917.578H540.615V908.422H537.731V907.162H544.955V908.422ZM561.668 917.578L559.652 913.28H557.818V917.578H556.376V907.162H560.1C561.892 907.162 563.11 908.422 563.11 910.2C563.11 911.712 562.354 912.734 561.122 913.112L563.278 917.578H561.668ZM557.818 908.408V912.118H559.82C561.094 912.118 561.682 911.502 561.682 910.256C561.682 909.024 561.08 908.408 559.89 908.408H557.818ZM571.963 916.276V917.578H565.481V907.162H571.879V908.422H566.909V911.572H571.389V912.762H566.909V916.276H571.963ZM578.087 913.294H576.029V917.578H574.587V907.162H578.227C580.145 907.162 581.293 908.422 581.293 910.214C581.293 912.132 580.201 913.294 578.087 913.294ZM576.029 908.408V912.132H577.947C579.221 912.132 579.865 911.418 579.865 910.256C579.865 909.038 579.151 908.408 578.003 908.408H576.029ZM590.174 916.276V917.578H583.692V907.162H590.09V908.422H585.12V911.572H589.6V912.762H585.12V916.276H590.174ZM598.188 917.578L597.432 914.68H594.422L593.652 917.578H592.224L595.122 907.162H596.802L599.728 917.578H598.188ZM595.43 910.886L594.716 913.56H597.152L596.452 910.886C596.186 909.864 595.962 908.534 595.962 908.534H595.934C595.934 908.534 595.682 909.92 595.43 910.886ZM608.693 908.422H605.795V917.578H604.353V908.422H601.469V907.162H608.693V908.422ZM614.285 917.788C611.807 917.788 610.505 916.332 610.421 914.204H611.835C611.975 915.912 612.815 916.64 614.313 916.64C615.489 916.64 616.399 916.01 616.399 914.75C616.399 913.392 615.713 913.098 613.669 912.608C612.143 912.244 610.771 911.628 610.771 909.752C610.771 908.016 612.129 906.966 614.033 906.966C616.231 906.966 617.323 908.184 617.505 910.032H616.119C615.979 908.702 615.237 908.086 614.033 908.086C612.899 908.086 612.115 908.646 612.115 909.682C612.115 910.816 612.871 911.11 614.621 911.502C616.259 911.866 617.799 912.482 617.799 914.708C617.799 916.654 616.329 917.788 614.285 917.788Z" fill="white"/>
<path d="M40.238 500.832C40.238 503.296 38.222 504.71 34.834 504.71C31.446 504.71 29.402 503.282 29.402 500.776C29.402 498.704 30.774 497.472 33.056 497.332V499.614C31.88 499.628 31.292 500.146 31.292 500.818C31.292 501.966 32.524 502.386 34.834 502.386C37.158 502.386 38.348 501.882 38.348 500.846C38.348 500.062 37.774 499.586 36.346 499.544V497.276C38.838 497.402 40.238 498.508 40.238 500.832ZM40 490.733H35.534V493.099H40V495.367H29.584V493.099H33.644V490.733H29.584V488.479H40V490.733ZM40 481.375L36.164 483.027V483.951H40V486.261H29.584V482.789C29.584 480.395 30.956 479.219 32.93 479.219C34.26 479.219 35.254 479.779 35.772 480.815L40 478.883V481.375ZM31.516 483.951H34.358V482.845C34.358 481.907 33.868 481.501 32.93 481.501C32.006 481.501 31.516 481.907 31.516 482.873V483.951ZM40.252 473.698C40.252 476.19 38.208 477.408 34.834 477.408C31.446 477.408 29.402 476.204 29.402 473.698C29.402 471.206 31.446 470.016 34.834 470.016C38.208 470.016 40.252 471.22 40.252 473.698ZM38.376 473.684C38.376 472.634 37.102 472.34 34.834 472.34C32.538 472.34 31.25 472.634 31.25 473.684C31.25 474.734 32.538 475.084 34.834 475.084C37.102 475.084 38.376 474.734 38.376 473.684ZM40 468.498H29.584V465.418L32.748 465.026C34.092 464.858 37.774 464.634 37.774 464.634V464.564C37.774 464.564 34.092 464.368 32.748 464.214L29.584 463.85V460.714H40V462.646H37.494C35.884 462.646 31.208 462.492 31.208 462.492V462.576C31.208 462.576 35.254 463.038 36.556 463.206L40 463.668V465.572L36.556 466.076C35.254 466.272 31.208 466.706 31.208 466.706V466.79C31.208 466.79 35.884 466.594 37.494 466.594H40V468.498ZM40.252 455.487C40.252 457.979 38.208 459.197 34.834 459.197C31.446 459.197 29.402 457.993 29.402 455.487C29.402 452.995 31.446 451.805 34.834 451.805C38.208 451.805 40.252 453.009 40.252 455.487ZM38.376 455.473C38.376 454.423 37.102 454.129 34.834 454.129C32.538 454.129 31.25 454.423 31.25 455.473C31.25 456.523 32.538 456.873 34.834 456.873C37.102 456.873 38.376 456.523 38.376 455.473ZM40.252 446.311C40.252 448.635 39.062 450.133 36.724 450.175V447.949C38.026 447.865 38.432 447.291 38.432 446.325C38.432 445.653 38.096 444.869 37.13 444.869C36.178 444.869 35.968 445.569 35.66 446.843C35.24 448.593 34.582 449.923 32.51 449.923C30.424 449.923 29.402 448.411 29.402 446.409C29.402 444.449 30.438 443.035 32.524 442.979L32.524 445.135C31.586 445.205 31.138 445.737 31.138 446.493C31.138 447.221 31.502 447.795 32.258 447.795C33.112 447.795 33.336 447.053 33.672 445.611C34.022 444.071 34.75 442.713 36.906 442.713C39.104 442.713 40.252 444.141 40.252 446.311ZM40.252 437.276C40.252 439.768 38.208 440.986 34.834 440.986C31.446 440.986 29.402 439.782 29.402 437.276C29.402 434.784 31.446 433.594 34.834 433.594C38.208 433.594 40.252 434.798 40.252 437.276ZM38.376 437.262C38.376 436.212 37.102 435.918 34.834 435.918C32.538 435.918 31.25 436.212 31.25 437.262C31.25 438.312 32.538 438.662 34.834 438.662C37.102 438.662 38.376 438.312 38.376 437.262ZM40 432.076H29.584V428.996L32.748 428.604C34.092 428.436 37.774 428.212 37.774 428.212V428.142C37.774 428.142 34.092 427.946 32.748 427.792L29.584 427.428V424.292H40V426.224H37.494C35.884 426.224 31.208 426.07 31.208 426.07V426.154C31.208 426.154 35.254 426.616 36.556 426.784L40 427.246V429.15L36.556 429.654C35.254 429.85 31.208 430.284 31.208 430.284V430.368C31.208 430.368 35.884 430.172 37.494 430.172H40V432.076ZM38.04 415.635H40V422.523H29.584L29.584 415.691H31.488V420.255H33.686V416.307H35.492V420.255H38.04V415.635ZM37.522 397.284V398.166H40V400.378H37.522V404.452H35.492L29.472 400.406V398.166H35.842V397.284H37.522ZM35.898 403.122H35.926C35.926 403.122 35.842 402.268 35.842 401.764V400.378H33.308C32.72 400.378 31.642 400.308 31.642 400.308V400.336C31.642 400.336 32.594 400.798 33.168 401.162L34.624 402.086C35.17 402.436 35.898 403.122 35.898 403.122Z" fill="white"/>
<path d="M383.12 52.3047V41.8887H385.528L386.802 45.2067C387.236 46.3267 388.006 48.6787 388.006 48.6787H388.076C388.076 48.6787 387.908 46.1867 387.908 44.8987V41.8887H389.994V52.3047H387.586L386.326 49.0427C385.892 47.9087 385.122 45.5287 385.122 45.5287H385.052C385.052 45.5287 385.22 48.0347 385.22 49.3227V52.3047H383.12ZM395.669 52.5567C393.177 52.5567 391.959 50.5127 391.959 47.1387C391.959 43.7507 393.163 41.7067 395.669 41.7067C398.161 41.7067 399.351 43.7507 399.351 47.1387C399.351 50.5127 398.147 52.5567 395.669 52.5567ZM395.683 50.6807C396.733 50.6807 397.027 49.4067 397.027 47.1387C397.027 44.8427 396.733 43.5547 395.683 43.5547C394.633 43.5547 394.283 44.8427 394.283 47.1387C394.283 49.4067 394.633 50.6807 395.683 50.6807ZM406.203 52.3047L404.551 48.4687H403.627V52.3047H401.317V41.8887H404.789C407.183 41.8887 408.359 43.2607 408.359 45.2347C408.359 46.5647 407.799 47.5587 406.763 48.0767L408.695 52.3047H406.203ZM403.627 43.8207V46.6627H404.733C405.671 46.6627 406.077 46.1727 406.077 45.2347C406.077 44.3107 405.671 43.8207 404.705 43.8207H403.627ZM409.974 52.3047V41.8887H413.054L413.446 45.0527C413.614 46.3967 413.838 50.0787 413.838 50.0787H413.908C413.908 50.0787 414.104 46.3967 414.258 45.0527L414.622 41.8887H417.758V52.3047H415.826V49.7987C415.826 48.1887 415.98 43.5127 415.98 43.5127H415.896C415.896 43.5127 415.434 47.5587 415.266 48.8607L414.804 52.3047H412.9L412.396 48.8607C412.2 47.5587 411.766 43.5127 411.766 43.5127H411.682C411.682 43.5127 411.878 48.1887 411.878 49.7987V52.3047H409.974ZM424.428 52.3047L423.994 50.2047H421.768L421.334 52.3047H419.15L421.628 41.8887H424.302L426.794 52.3047H424.428ZM422.328 47.5167L422.104 48.5667H423.658L423.448 47.5167C423.168 46.1167 422.93 43.9327 422.93 43.9327H422.888C422.888 43.9327 422.58 46.2987 422.328 47.5167ZM428.997 52.3047V41.8887H431.279V50.3447H435.339V52.3047H428.997ZM454.138 41.8887L451.562 52.3047H449.014L446.438 41.8887H448.804L449.77 46.7467C450.05 48.1467 450.288 50.2607 450.288 50.2607H450.33C450.33 50.2607 450.638 47.9787 450.89 46.7467L451.94 41.8887H454.138ZM460.85 52.3047L460.416 50.2047H458.19L457.756 52.3047H455.572L458.05 41.8887H460.724L463.216 52.3047H460.85ZM458.75 47.5167L458.526 48.5667H460.08L459.87 47.5167C459.59 46.1167 459.352 43.9327 459.352 43.9327H459.31C459.31 43.9327 459.002 46.2987 458.75 47.5167ZM469.941 52.3047L468.289 48.4687H467.365V52.3047H465.055V41.8887H468.527C470.921 41.8887 472.097 43.2607 472.097 45.2347C472.097 46.5647 471.537 47.5587 470.501 48.0767L472.433 52.3047H469.941ZM467.365 43.8207V46.6627H468.471C469.409 46.6627 469.815 46.1727 469.815 45.2347C469.815 44.3107 469.409 43.8207 468.443 43.8207H467.365ZM480.433 52.3047H474.777V50.4987H476.457V43.6947H474.777V41.8887H480.433V43.6947H478.739V50.4987H480.433V52.3047ZM488.166 52.3047L487.732 50.2047H485.506L485.072 52.3047H482.888L485.366 41.8887H488.04L490.532 52.3047H488.166ZM486.066 47.5167L485.842 48.5667H487.396L487.186 47.5167C486.906 46.1167 486.668 43.9327 486.668 43.9327H486.626C486.626 43.9327 486.318 46.2987 486.066 47.5167ZM492.386 52.3047V41.8887H494.794L496.068 45.2067C496.502 46.3267 497.272 48.6787 497.272 48.6787H497.342C497.342 48.6787 497.174 46.1867 497.174 44.8987V41.8887H499.26V52.3047H496.852L495.592 49.0427C495.158 47.9087 494.388 45.5287 494.388 45.5287H494.318C494.318 45.5287 494.486 48.0347 494.486 49.3227V52.3047H492.386ZM508.519 43.8207H506.055V52.3047H503.773V43.8207H501.323V41.8887H508.519V43.8207Z" fill="white"/>
<path d="M386.564 72.3047V64.8147H383.834V63.9187C385.78 63.8767 386.704 63.1767 386.872 61.8187H387.922V72.3047H386.564ZM393.569 68.9027V67.7267H397.741V68.9027H393.569ZM404.817 72.5287C402.633 72.5287 401.037 71.2687 401.009 69.0707H402.325C402.367 70.5407 403.235 71.4227 404.775 71.4227C406.035 71.4227 406.917 70.6387 406.917 69.2387C406.917 67.9787 406.175 67.3067 404.565 67.3067H403.935V66.2707H404.551C406.035 66.2707 406.637 65.5567 406.637 64.4927C406.637 63.4007 405.811 62.7007 404.719 62.7007C403.389 62.7007 402.647 63.6107 402.633 64.8567H401.331C401.345 62.9807 402.605 61.6507 404.761 61.6507C406.567 61.6507 407.953 62.7287 407.953 64.5067C407.953 65.6547 407.281 66.3827 406.301 66.7047V66.7467C407.687 67.1107 408.303 68.0347 408.303 69.3507C408.303 71.3667 406.777 72.5287 404.817 72.5287ZM413.81 72.5147C411.71 72.5147 410.31 71.2407 410.184 69.6307H411.514C411.724 70.6387 412.424 71.3527 413.782 71.3527C415.168 71.3527 416.05 70.2887 416.05 68.8327C416.05 67.3487 415.084 66.4947 413.894 66.4947C412.788 66.4947 412.088 66.9987 411.71 67.4747H410.422L411.5 61.8887H416.82V63.0647H412.452L411.808 66.3127H411.836C412.396 65.7387 413.124 65.3607 414.146 65.3607C415.826 65.3607 417.422 66.5927 417.422 68.8607C417.422 71.0727 415.882 72.5147 413.81 72.5147ZM435.689 63.1487H432.791V72.3047H431.349V63.1487H428.465V61.8887H435.689V63.1487ZM443.297 72.3047L441.281 68.0067H439.447V72.3047H438.005V61.8887H441.729C443.521 61.8887 444.739 63.1487 444.739 64.9267C444.739 66.4387 443.983 67.4607 442.751 67.8387L444.907 72.3047H443.297ZM439.447 63.1347V66.8447H441.449C442.723 66.8447 443.311 66.2287 443.311 64.9827C443.311 63.7507 442.709 63.1347 441.519 63.1347H439.447ZM452.934 72.3047H447.642V71.1707H449.574V63.0367H447.642V61.8887H452.934V63.0367H451.002V71.1707H452.934V72.3047ZM459.716 68.0207H457.658V72.3047H456.216V61.8887H459.856C461.774 61.8887 462.922 63.1487 462.922 64.9407C462.922 66.8587 461.83 68.0207 459.716 68.0207ZM457.658 63.1347V66.8587H459.576C460.85 66.8587 461.494 66.1447 461.494 64.9827C461.494 63.7647 460.78 63.1347 459.632 63.1347H457.658ZM465.321 72.3047V61.8887H466.749V71.0027H471.691V72.3047H465.321ZM480.909 71.0027V72.3047H474.427V61.8887H480.825V63.1487H475.855V66.2987H480.335V67.4887H475.855V71.0027H480.909ZM490.322 63.1487H487.424V72.3047H485.982V63.1487H483.098V61.8887H490.322V63.1487ZM507.035 72.3047L505.019 68.0067H503.185V72.3047H501.743V61.8887H505.467C507.259 61.8887 508.477 63.1487 508.477 64.9267C508.477 66.4387 507.721 67.4607 506.489 67.8387L508.645 72.3047H507.035ZM503.185 63.1347V66.8447H505.187C506.461 66.8447 507.049 66.2287 507.049 64.9827C507.049 63.7507 506.447 63.1347 505.257 63.1347H503.185ZM517.331 71.0027V72.3047H510.849V61.8887H517.247V63.1487H512.277V66.2987H516.757V67.4887H512.277V71.0027H517.331ZM523.454 68.0207H521.396V72.3047H519.954V61.8887H523.594C525.512 61.8887 526.66 63.1487 526.66 64.9407C526.66 66.8587 525.568 68.0207 523.454 68.0207ZM521.396 63.1347V66.8587H523.314C524.588 66.8587 525.232 66.1447 525.232 64.9827C525.232 63.7647 524.518 63.1347 523.37 63.1347H521.396ZM535.542 71.0027V72.3047H529.06V61.8887H535.458V63.1487H530.488V66.2987H534.968V67.4887H530.488V71.0027H535.542ZM543.555 72.3047L542.799 69.4067H539.789L539.019 72.3047H537.591L540.489 61.8887H542.169L545.095 72.3047H543.555ZM540.797 65.6127L540.083 68.2867H542.519L541.819 65.6127C541.553 64.5907 541.329 63.2607 541.329 63.2607H541.301C541.301 63.2607 541.049 64.6467 540.797 65.6127ZM554.06 63.1487H551.162V72.3047H549.72V63.1487H546.836V61.8887H554.06V63.1487ZM559.652 72.5147C557.174 72.5147 555.872 71.0587 555.788 68.9307H557.202C557.342 70.6387 558.182 71.3667 559.68 71.3667C560.856 71.3667 561.766 70.7367 561.766 69.4767C561.766 68.1187 561.08 67.8247 559.036 67.3347C557.51 66.9707 556.138 66.3547 556.138 64.4787C556.138 62.7427 557.496 61.6927 559.4 61.6927C561.598 61.6927 562.69 62.9107 562.872 64.7587H561.486C561.346 63.4287 560.604 62.8127 559.4 62.8127C558.266 62.8127 557.482 63.3727 557.482 64.4087C557.482 65.5427 558.238 65.8367 559.988 66.2287C561.626 66.5927 563.166 67.2087 563.166 69.4347C563.166 71.3807 561.696 72.5147 559.652 72.5147Z" fill="white"/>
<defs>
<linearGradient id="paint0_linear_976_4660" x1="526.226" y1="630.664" x2="526.226" y2="721.752" gradientUnits="userSpaceOnUse">
<stop stop-color="#FF97B4"/>
<stop offset="1" stop-color="#CED7E9"/>
</linearGradient>
<linearGradient id="paint1_linear_976_4660" x1="666.297" y1="715.116" x2="691.352" y2="715.116" gradientUnits="userSpaceOnUse">
<stop stop-color="#CED7E9"/>
<stop offset="1" stop-color="#FF97B4"/>
</linearGradient>
<linearGradient id="paint2_linear_976_4660" x1="623.891" y1="715.116" x2="666.936" y2="715.116" gradientUnits="userSpaceOnUse">
<stop stop-color="#CED7E9"/>
<stop offset="1" stop-color="#FF97B4"/>
</linearGradient>
<linearGradient id="paint3_linear_976_4660" x1="581.469" y1="715.116" x2="632.998" y2="715.116" gradientUnits="userSpaceOnUse">
<stop stop-color="#CED7E9"/>
<stop offset="1" stop-color="#FF97B4"/>
</linearGradient>
<linearGradient id="paint4_linear_976_4660" x1="716.845" y1="702.147" x2="709.144" y2="680.737" gradientUnits="userSpaceOnUse">
<stop stop-color="#CED7E9"/>
<stop offset="1" stop-color="#FF97B4"/>
</linearGradient>
</defs>
</svg>
