<svg width="1920" height="1080" viewBox="0 0 1920 1080" fill="none" xmlns="http://www.w3.org/2000/svg">
<g clip-path="url(#clip0_1219_481)">
<rect width="1920" height="1080" fill="#DA2F62"/>
<mask id="mask0_1219_481" style="mask-type:luminance" maskUnits="userSpaceOnUse" x="133" y="180" width="1954" height="812">
<path d="M2086.42 180.719H133.185V991.156H2086.42V180.719Z" fill="white"/>
</mask>
<g mask="url(#mask0_1219_481)">
<path d="M1408.32 986.372C1408.32 983.734 1410.46 981.586 1413.1 981.586C1415.74 981.586 1417.89 983.734 1417.89 986.372C1417.89 989.01 1415.74 991.159 1413.1 991.159C1410.46 991.159 1408.32 989.01 1408.32 986.372ZM1379.77 986.372C1379.77 983.734 1381.92 981.586 1384.55 981.586C1387.21 981.586 1389.34 983.734 1389.34 986.372C1389.34 989.01 1387.21 991.159 1384.55 991.159C1381.92 991.159 1379.77 989.01 1379.77 986.372ZM1351.24 986.372C1351.24 983.734 1353.37 981.586 1356.02 981.586C1358.66 981.586 1360.81 983.734 1360.81 986.372C1360.81 989.01 1358.66 991.159 1356.02 991.159C1353.37 991.159 1351.24 989.01 1351.24 986.372ZM1322.69 986.372C1322.69 983.734 1324.84 981.586 1327.48 981.586C1330.11 981.586 1332.26 983.734 1332.26 986.372C1332.26 989.01 1330.11 991.159 1327.48 991.159C1324.84 991.159 1322.69 989.01 1322.69 986.372ZM1294.14 986.372C1294.14 983.734 1296.29 981.586 1298.95 981.586C1301.58 981.586 1303.73 983.734 1303.73 986.372C1303.73 989.01 1301.58 991.159 1298.95 991.159C1296.29 991.159 1294.14 989.01 1294.14 986.372ZM1265.61 986.372C1265.61 983.734 1267.74 981.586 1270.4 981.586C1273.04 981.586 1275.18 983.734 1275.18 986.372C1275.18 989.01 1273.04 991.159 1270.4 991.159C1267.74 991.159 1265.61 989.01 1265.61 986.372ZM1237.06 986.372C1237.06 983.734 1239.21 981.586 1241.85 981.586C1244.51 981.586 1246.65 983.734 1246.65 986.372C1246.65 989.01 1244.51 991.159 1241.85 991.159C1239.21 991.159 1237.06 989.01 1237.06 986.372ZM1208.53 986.372C1208.53 983.734 1210.66 981.586 1213.32 981.586C1215.96 981.586 1218.11 983.734 1218.11 986.372C1218.11 989.01 1215.96 991.159 1213.32 991.159C1210.66 991.159 1208.53 989.01 1208.53 986.372ZM1179.98 986.372C1179.98 983.734 1182.13 981.586 1184.77 981.586C1187.41 981.586 1189.56 983.734 1189.56 986.372C1189.56 989.01 1187.41 991.159 1184.77 991.159C1182.13 991.159 1179.98 989.01 1179.98 986.372ZM1151.44 986.372C1151.44 983.734 1153.58 981.586 1156.22 981.586C1158.88 981.586 1161.03 983.734 1161.03 986.372C1161.03 989.01 1158.88 991.159 1156.22 991.159C1153.58 991.159 1151.44 989.01 1151.44 986.372ZM1122.91 986.372C1122.91 983.734 1125.05 981.586 1127.69 981.586C1130.33 981.586 1132.48 983.734 1132.48 986.372C1132.48 989.01 1130.33 991.159 1127.69 991.159C1125.05 991.159 1122.91 989.01 1122.91 986.372ZM1094.36 986.372C1094.36 983.734 1096.51 981.586 1099.14 981.586C1101.8 981.586 1103.93 983.734 1103.93 986.372C1103.93 989.01 1101.8 991.159 1099.14 991.159C1096.51 991.159 1094.36 989.01 1094.36 986.372ZM1065.83 986.372C1065.83 983.734 1067.96 981.586 1070.61 981.586C1073.25 981.586 1075.4 983.734 1075.4 986.372C1075.4 989.01 1073.25 991.159 1070.61 991.159C1067.96 991.159 1065.83 989.01 1065.83 986.372ZM1037.28 986.372C1037.28 983.734 1039.43 981.586 1042.07 981.586C1044.72 981.586 1046.85 983.734 1046.85 986.372C1046.85 989.01 1044.72 991.159 1042.07 991.159C1039.43 991.159 1037.28 989.01 1037.28 986.372ZM1008.73 986.372C1008.73 983.734 1010.88 981.586 1013.54 981.586C1016.17 981.586 1018.32 983.734 1018.32 986.372C1018.32 989.01 1016.17 991.159 1013.54 991.159C1010.88 991.159 1008.73 989.01 1008.73 986.372ZM980.202 986.372C980.202 983.734 982.331 981.586 984.988 981.586C987.626 981.586 989.774 983.734 989.774 986.372C989.774 989.01 987.626 991.159 984.988 991.159C982.331 991.159 980.202 989.01 980.202 986.372ZM951.653 986.372C951.653 983.734 953.802 981.586 956.44 981.586C959.097 981.586 961.226 983.734 961.226 986.372C961.226 989.01 959.097 991.159 956.44 991.159C953.802 991.159 951.653 989.01 951.653 986.372ZM923.124 986.372C923.124 983.734 925.253 981.586 927.91 981.586C930.548 981.586 932.696 983.734 932.696 986.372C932.696 989.01 930.548 991.159 927.91 991.159C925.253 991.159 923.124 989.01 923.124 986.372ZM894.575 986.372C894.575 983.734 896.723 981.586 899.361 981.586C902.018 981.586 904.148 983.734 904.148 986.372C904.148 989.01 902.018 991.159 899.361 991.159C896.723 991.159 894.575 989.01 894.575 986.372ZM866.027 986.372C866.027 983.734 868.175 981.586 870.813 981.586C873.47 981.586 875.618 983.734 875.618 986.372C875.618 989.01 873.47 991.159 870.813 991.159C868.175 991.159 866.027 989.01 866.027 986.372ZM837.497 986.372C837.497 983.734 839.645 981.586 842.283 981.586C844.921 981.586 847.07 983.734 847.07 986.372C847.07 989.01 844.921 991.159 842.283 991.159C839.645 991.159 837.497 989.01 837.497 986.372ZM808.949 986.372C808.949 983.734 811.097 981.586 813.735 981.586C816.392 981.586 818.521 983.734 818.521 986.372C818.521 989.01 816.392 991.159 813.735 991.159C811.097 991.159 808.949 989.01 808.949 986.372ZM780.419 986.372C780.419 983.734 782.548 981.586 785.205 981.586C787.843 981.586 789.992 983.734 789.992 986.372C789.992 989.01 787.843 991.159 785.205 991.159C782.548 991.159 780.419 989.01 780.419 986.372ZM751.871 986.372C751.871 983.734 754.019 981.586 756.657 981.586C759.314 981.586 761.443 983.734 761.443 986.372C761.443 989.01 759.314 991.159 756.657 991.159C754.019 991.159 751.871 989.01 751.871 986.372ZM723.322 986.372C723.322 983.734 725.47 981.586 728.127 981.586C730.765 981.586 732.914 983.734 732.914 986.372C732.914 989.01 730.765 991.159 728.127 991.159C725.47 991.159 723.322 989.01 723.322 986.372ZM694.792 986.372C694.792 983.734 696.922 981.586 699.579 981.586C702.217 981.586 704.365 983.734 704.365 986.372C704.365 989.01 702.217 991.159 699.579 991.159C696.922 991.159 694.792 989.01 694.792 986.372ZM666.244 986.372C666.244 983.734 668.392 981.586 671.03 981.586C673.687 981.586 675.817 983.734 675.817 986.372C675.817 989.01 673.687 991.159 671.03 991.159C668.392 991.159 666.244 989.01 666.244 986.372ZM637.714 986.372C637.714 983.734 639.844 981.586 642.501 981.586C645.139 981.586 647.287 983.734 647.287 986.372C647.287 989.01 645.139 991.159 642.501 991.159C639.844 991.159 637.714 989.01 637.714 986.372ZM609.166 986.372C609.166 983.734 611.314 981.586 613.952 981.586C616.609 981.586 618.738 983.734 618.738 986.372C618.738 989.01 616.609 991.159 613.952 991.159C611.314 991.159 609.166 989.01 609.166 986.372ZM580.617 986.372C580.617 983.734 582.766 981.586 585.404 981.586C588.061 981.586 590.209 983.734 590.209 986.372C590.209 989.01 588.061 991.159 585.404 991.159C582.766 991.159 580.617 989.01 580.617 986.372ZM552.088 986.372C552.088 983.734 554.236 981.586 556.874 981.586C559.512 981.586 561.66 983.734 561.66 986.372C561.66 989.01 559.512 991.159 556.874 991.159C554.236 991.159 552.088 989.01 552.088 986.372ZM523.539 986.372C523.539 983.734 525.687 981.586 528.326 981.586C530.983 981.586 533.112 983.734 533.112 986.372C533.112 989.01 530.983 991.159 528.326 991.159C525.687 991.159 523.539 989.01 523.539 986.372ZM495.01 986.372C495.01 983.734 497.139 981.586 499.796 981.586C502.434 981.586 504.582 983.734 504.582 986.372C504.582 989.01 502.434 991.159 499.796 991.159C497.139 991.159 495.01 989.01 495.01 986.372ZM466.461 986.372C466.461 983.734 468.609 981.586 471.247 981.586C473.904 981.586 476.034 983.734 476.034 986.372C476.034 989.01 473.904 991.159 471.247 991.159C468.609 991.159 466.461 989.01 466.461 986.372ZM437.913 986.372C437.913 983.734 440.061 981.586 442.718 981.586C445.356 981.586 447.504 983.734 447.504 986.372C447.504 989.01 445.356 991.159 442.718 991.159C440.061 991.159 437.913 989.01 437.913 986.372ZM409.383 986.372C409.383 983.734 411.512 981.586 414.169 981.586C416.808 981.586 418.956 983.734 418.956 986.372C418.956 989.01 416.808 991.159 414.169 991.159C411.512 991.159 409.383 989.01 409.383 986.372ZM380.835 986.372C380.835 983.734 382.983 981.586 385.621 981.586C388.278 981.586 390.407 983.734 390.407 986.372C390.407 989.01 388.278 991.159 385.621 991.159C382.983 991.159 380.835 989.01 380.835 986.372ZM352.305 986.372C352.305 983.734 354.434 981.586 357.091 981.586C359.729 981.586 361.878 983.734 361.878 986.372C361.878 989.01 359.729 991.159 357.091 991.159C354.434 991.159 352.305 989.01 352.305 986.372ZM323.756 986.372C323.756 983.734 325.905 981.586 328.543 981.586C331.2 981.586 333.329 983.734 333.329 986.372C333.329 989.01 331.2 991.159 328.543 991.159C325.905 991.159 323.756 989.01 323.756 986.372ZM295.208 986.372C295.208 983.734 297.356 981.586 299.994 981.586C302.651 981.586 304.8 983.734 304.8 986.372C304.8 989.01 302.651 991.159 299.994 991.159C297.356 991.159 295.208 989.01 295.208 986.372Z" fill="#292D74"/>
<path d="M240.689 987.735C238.107 987.151 236.487 984.588 237.071 982.007C237.655 979.425 240.236 977.805 242.799 978.389C245.381 978.973 247.001 981.555 246.417 984.136C245.908 986.36 243.93 987.848 241.744 987.848C241.405 987.848 241.047 987.811 240.689 987.735ZM211.443 977.503C209.069 976.354 208.07 973.489 209.219 971.115C210.369 968.741 213.233 967.742 215.608 968.891C218.001 970.022 218.999 972.886 217.85 975.279C217.021 976.994 215.306 977.993 213.535 977.993C212.837 977.993 212.121 977.823 211.443 977.503ZM185.25 961.015C183.177 959.356 182.838 956.341 184.496 954.287C186.136 952.215 189.151 951.875 191.224 953.534C193.296 955.173 193.636 958.188 191.977 960.261C191.035 961.448 189.641 962.051 188.227 962.051C187.191 962.051 186.136 961.712 185.25 961.015ZM163.353 939.118C161.714 937.064 162.034 934.049 164.107 932.391C166.18 930.751 169.195 931.072 170.834 933.145C172.493 935.217 172.154 938.232 170.081 939.872C169.195 940.588 168.14 940.927 167.103 940.927C165.69 940.927 164.296 940.305 163.353 939.118ZM146.865 912.925C145.716 910.532 146.714 907.687 149.089 906.537C151.482 905.388 154.346 906.386 155.496 908.761C156.645 911.135 155.646 913.999 153.272 915.149C152.594 915.488 151.896 915.639 151.199 915.639C149.409 915.639 147.713 914.64 146.884 912.925H146.865ZM136.633 883.698C136.049 881.117 137.65 878.554 140.232 877.97C142.814 877.367 145.376 878.987 145.979 881.569C146.564 884.151 144.943 886.713 142.361 887.297C142.003 887.392 141.645 887.429 141.287 887.429C139.101 887.429 137.142 885.922 136.633 883.698Z" fill="#292D74"/>
<path d="M133.185 854.911C133.185 852.254 135.333 850.125 137.971 850.125C140.628 850.125 142.757 852.254 142.757 854.911C142.757 857.549 140.628 859.698 137.971 859.698C135.333 859.698 133.185 857.549 133.185 854.911Z" fill="#292D74"/>
<path d="M140.232 829.857C137.65 829.273 136.049 826.71 136.633 824.128C137.217 821.547 139.78 819.926 142.361 820.51C144.943 821.113 146.545 823.676 145.961 826.258C145.471 828.481 143.492 829.97 141.306 829.97C140.948 829.97 140.59 829.932 140.232 829.857ZM149.089 801.289C146.695 800.14 145.697 797.276 146.846 794.901C147.996 792.508 150.86 791.509 153.253 792.659C155.627 793.808 156.626 796.673 155.477 799.047C154.648 800.762 152.952 801.761 151.161 801.761C150.464 801.761 149.748 801.61 149.089 801.289ZM164.107 775.417C162.034 773.777 161.695 770.762 163.353 768.689C164.993 766.617 168.008 766.277 170.081 767.936C172.154 769.594 172.493 772.609 170.834 774.663C169.892 775.85 168.498 776.472 167.085 776.472C166.029 776.472 164.974 776.133 164.107 775.417ZM184.477 753.539C182.838 751.466 183.177 748.451 185.231 746.793C187.304 745.153 190.319 745.493 191.958 747.547C193.617 749.619 193.278 752.634 191.205 754.274C190.338 754.99 189.283 755.329 188.227 755.329C186.814 755.329 185.42 754.707 184.477 753.539ZM209.201 736.693C208.051 734.318 209.05 731.454 211.443 730.304C213.817 729.155 216.682 730.154 217.831 732.528C218.981 734.921 217.982 737.786 215.608 738.935C214.929 739.255 214.213 739.406 213.516 739.406C211.745 739.406 210.03 738.407 209.201 736.693ZM237.052 725.801C236.468 723.219 238.088 720.656 240.67 720.072C243.251 719.488 245.814 721.109 246.398 723.69C246.983 726.253 245.362 728.835 242.78 729.419C242.422 729.494 242.083 729.532 241.725 729.532C239.539 729.532 237.561 728.024 237.052 725.801Z" fill="#292D74"/>
<path d="M591.986 721.443C591.986 718.786 594.134 716.656 596.772 716.656C599.429 716.656 601.559 718.786 601.559 721.443C601.559 724.081 599.429 726.229 596.772 726.229C594.134 726.229 591.986 724.081 591.986 721.443ZM562.401 721.443C562.401 718.786 564.549 716.656 567.188 716.656C569.845 716.656 571.993 718.786 571.993 721.443C571.993 724.081 569.845 726.229 567.188 726.229C564.549 726.229 562.401 724.081 562.401 721.443ZM532.835 721.443C532.835 718.786 534.983 716.656 537.622 716.656C540.279 716.656 542.408 718.786 542.408 721.443C542.408 724.081 540.279 726.229 537.622 726.229C534.983 726.229 532.835 724.081 532.835 721.443ZM503.25 721.443C503.25 718.786 505.398 716.656 508.037 716.656C510.694 716.656 512.842 718.786 512.842 721.443C512.842 724.081 510.694 726.229 508.037 726.229C505.398 726.229 503.25 724.081 503.25 721.443ZM473.684 721.443C473.684 718.786 475.832 716.656 478.471 716.656C481.109 716.656 483.257 718.786 483.257 721.443C483.257 724.081 481.109 726.229 478.471 726.229C475.832 726.229 473.684 724.081 473.684 721.443ZM444.099 721.443C444.099 718.786 446.248 716.656 448.905 716.656C451.543 716.656 453.691 718.786 453.691 721.443C453.691 724.081 451.543 726.229 448.905 726.229C446.248 726.229 444.099 724.081 444.099 721.443ZM414.533 721.443C414.533 718.786 416.682 716.656 419.32 716.656C421.958 716.656 424.106 718.786 424.106 721.443C424.106 724.081 421.958 726.229 419.32 726.229C416.682 726.229 414.533 724.081 414.533 721.443ZM384.948 721.443C384.948 718.786 387.097 716.656 389.754 716.656C392.392 716.656 394.54 718.786 394.54 721.443C394.54 724.081 392.392 726.229 389.754 726.229C387.097 726.229 384.948 724.081 384.948 721.443ZM355.382 721.443C355.382 718.786 357.531 716.656 360.169 716.656C362.807 716.656 364.955 718.786 364.955 721.443C364.955 724.081 362.807 726.229 360.169 726.229C357.531 726.229 355.382 724.081 355.382 721.443ZM325.797 721.443C325.797 718.786 327.946 716.656 330.603 716.656C333.241 716.656 335.389 718.786 335.389 721.443C335.389 724.081 333.241 726.229 330.603 726.229C327.946 726.229 325.797 724.081 325.797 721.443ZM296.231 721.443C296.231 718.786 298.38 716.656 301.018 716.656C303.656 716.656 305.804 718.786 305.804 721.443C305.804 724.081 303.656 726.229 301.018 726.229C298.38 726.229 296.231 724.081 296.231 721.443Z" fill="#292D74"/>
<path d="M1092.78 719.029C1092.2 716.447 1093.8 713.884 1096.38 713.3C1098.96 712.697 1101.52 714.318 1102.13 716.899C1102.71 719.481 1101.09 722.044 1098.51 722.628C1098.15 722.722 1097.79 722.76 1097.44 722.76C1095.25 722.76 1093.29 721.252 1092.78 719.029ZM1121.35 710.172C1120.2 707.798 1121.2 704.934 1123.57 703.784C1125.97 702.635 1128.83 703.633 1129.98 706.008C1131.13 708.401 1130.13 711.246 1127.74 712.415C1127.08 712.735 1126.36 712.886 1125.66 712.886C1123.89 712.886 1122.18 711.887 1121.35 710.172ZM1147.22 695.154C1145.56 693.081 1145.9 690.085 1147.98 688.426C1150.03 686.768 1153.04 687.107 1154.7 689.18C1156.34 691.253 1156 694.268 1153.95 695.907C1153.06 696.623 1152.01 696.963 1150.95 696.963C1149.56 696.963 1148.16 696.341 1147.22 695.154ZM1169.1 674.783C1167.04 673.125 1166.71 670.11 1168.35 668.056C1170 665.983 1173.02 665.644 1175.09 667.283C1177.15 668.942 1177.48 671.957 1175.83 674.03C1174.88 675.217 1173.51 675.82 1172.1 675.82C1171.04 675.82 1169.98 675.481 1169.1 674.783ZM1185.95 650.06C1183.55 648.911 1182.55 646.046 1183.7 643.653C1184.85 641.279 1187.72 640.28 1190.09 641.43C1192.48 642.579 1193.48 645.443 1192.33 647.818C1191.5 649.533 1189.79 650.531 1188.02 650.531C1187.32 650.531 1186.6 650.38 1185.95 650.06ZM1196.84 622.209C1194.26 621.625 1192.63 619.043 1193.22 616.462C1193.8 613.88 1196.38 612.278 1198.95 612.862C1201.53 613.446 1203.15 616.009 1202.57 618.591C1202.06 620.814 1200.08 622.322 1197.89 622.322C1197.55 622.322 1197.2 622.284 1196.84 622.209Z" fill="#292D74"/>
<path d="M1193.23 557.297C1192.63 554.715 1194.25 552.152 1196.83 551.568C1199.42 550.984 1201.98 552.586 1202.56 555.167C1203.15 557.749 1201.54 560.312 1198.96 560.896C1198.61 560.99 1198.25 561.028 1197.89 561.028C1195.7 561.028 1193.72 559.52 1193.23 557.297ZM1183.72 530.105C1182.57 527.712 1183.57 524.847 1185.94 523.698C1188.32 522.548 1191.18 523.566 1192.33 525.94C1193.48 528.315 1192.48 531.179 1190.11 532.328C1189.43 532.649 1188.71 532.818 1188.02 532.818C1186.24 532.818 1184.53 531.82 1183.72 530.105ZM1168.36 505.721C1166.7 503.648 1167.04 500.633 1169.11 498.975C1171.17 497.335 1174.2 497.675 1175.84 499.729C1177.5 501.801 1177.16 504.816 1175.09 506.456C1174.2 507.172 1173.15 507.511 1172.09 507.511C1170.7 507.511 1169.3 506.889 1168.36 505.721ZM1147.97 485.332C1145.92 483.674 1145.58 480.659 1147.22 478.605C1148.88 476.532 1151.89 476.193 1153.95 477.851C1156.02 479.49 1156.36 482.505 1154.7 484.578C1153.76 485.765 1152.36 486.368 1150.97 486.368C1149.91 486.368 1148.86 486.029 1147.97 485.332ZM1123.59 469.974C1121.21 468.825 1120.21 465.96 1121.36 463.586C1122.51 461.193 1125.38 460.194 1127.75 461.344C1130.13 462.493 1131.14 465.357 1129.99 467.75C1129.17 469.446 1127.45 470.445 1125.68 470.445C1124.96 470.445 1124.27 470.294 1123.59 469.974ZM1096.4 460.458C1093.81 459.874 1092.21 457.311 1092.8 454.729C1093.38 452.148 1095.94 450.527 1098.53 451.111C1101.11 451.714 1102.71 454.277 1102.12 456.859C1101.63 459.082 1099.66 460.59 1097.47 460.59C1097.11 460.59 1096.75 460.533 1096.4 460.458Z" fill="#292D74"/>
<path d="M591.999 452.468C591.999 449.83 594.129 447.682 596.785 447.682C599.424 447.682 601.572 449.83 601.572 452.468C601.572 455.107 599.424 457.255 596.785 457.255C594.129 457.255 591.999 455.107 591.999 452.468ZM562.414 452.468C562.414 449.83 564.562 447.682 567.201 447.682C569.858 447.682 571.987 449.83 571.987 452.468C571.987 455.107 569.858 457.255 567.201 457.255C564.562 457.255 562.414 455.107 562.414 452.468ZM532.848 452.468C532.848 449.83 534.978 447.682 537.635 447.682C540.273 447.682 542.421 449.83 542.421 452.468C542.421 455.107 540.273 457.255 537.635 457.255C534.978 457.255 532.848 455.107 532.848 452.468ZM503.263 452.468C503.263 449.83 505.411 447.682 508.05 447.682C510.688 447.682 512.836 449.83 512.836 452.468C512.836 455.107 510.688 457.255 508.05 457.255C505.411 457.255 503.263 455.107 503.263 452.468ZM473.697 452.468C473.697 449.83 475.827 447.682 478.484 447.682C481.122 447.682 483.27 449.83 483.27 452.468C483.27 455.107 481.122 457.255 478.484 457.255C475.827 457.255 473.697 455.107 473.697 452.468ZM444.112 452.468C444.112 449.83 446.261 447.682 448.899 447.682C451.537 447.682 453.685 449.83 453.685 452.468C453.685 455.107 451.537 457.255 448.899 457.255C446.261 457.255 444.112 455.107 444.112 452.468ZM414.527 452.468C414.527 449.83 416.676 447.682 419.333 447.682C421.971 447.682 424.119 449.83 424.119 452.468C424.119 455.107 421.971 457.255 419.333 457.255C416.676 457.255 414.527 455.107 414.527 452.468ZM384.961 452.468C384.961 449.83 387.11 447.682 389.748 447.682C392.386 447.682 394.534 449.83 394.534 452.468C394.534 455.107 392.386 457.255 389.748 457.255C387.11 457.255 384.961 455.107 384.961 452.468ZM355.377 452.468C355.377 449.83 357.525 447.682 360.163 447.682C362.82 447.682 364.968 449.83 364.968 452.468C364.968 455.107 362.82 457.255 360.163 457.255C357.525 457.255 355.377 455.107 355.377 452.468ZM325.81 452.468C325.81 449.83 327.959 447.682 330.597 447.682C333.235 447.682 335.383 449.83 335.383 452.468C335.383 455.107 333.235 457.255 330.597 457.255C327.959 457.255 325.81 455.107 325.81 452.468ZM296.226 452.468C296.226 449.83 298.374 447.682 301.031 447.682C303.669 447.682 305.817 449.83 305.817 452.468C305.817 455.107 303.669 457.255 301.031 457.255C298.374 457.255 296.226 455.107 296.226 452.468Z" fill="#292D74"/>
<path d="M947.13 452.41C947.13 449.772 949.259 447.624 951.916 447.624C954.554 447.624 956.703 449.772 956.703 452.41C956.703 455.048 954.554 457.197 951.916 457.197C949.259 457.197 947.13 455.048 947.13 452.41ZM917.545 452.41C917.545 449.772 919.693 447.624 922.331 447.624C924.988 447.624 927.118 449.772 927.118 452.41C927.118 455.048 924.988 457.197 922.331 457.197C919.693 457.197 917.545 455.048 917.545 452.41ZM887.979 452.41C887.979 449.772 890.108 447.624 892.765 447.624C895.404 447.624 897.552 449.772 897.552 452.41C897.552 455.048 895.404 457.197 892.765 457.197C890.108 457.197 887.979 455.048 887.979 452.41ZM858.394 452.41C858.394 449.772 860.542 447.624 863.181 447.624C865.819 447.624 867.967 449.772 867.967 452.41C867.967 455.048 865.819 457.197 863.181 457.197C860.542 457.197 858.394 455.048 858.394 452.41ZM828.828 452.41C828.828 449.772 830.957 447.624 833.614 447.624C836.253 447.624 838.401 449.772 838.401 452.41C838.401 455.048 836.253 457.197 833.614 457.197C830.957 457.197 828.828 455.048 828.828 452.41ZM799.243 452.41C799.243 449.772 801.391 447.624 804.03 447.624C806.668 447.624 808.816 449.772 808.816 452.41C808.816 455.048 806.668 457.197 804.03 457.197C801.391 457.197 799.243 455.048 799.243 452.41ZM769.658 452.41C769.658 449.772 771.807 447.624 774.464 447.624C777.102 447.624 779.25 449.772 779.25 452.41C779.25 455.048 777.102 457.197 774.464 457.197C771.807 457.197 769.658 455.048 769.658 452.41ZM740.092 452.41C740.092 449.772 742.24 447.624 744.879 447.624C747.517 447.624 749.665 449.772 749.665 452.41C749.665 455.048 747.517 457.197 744.879 457.197C742.24 457.197 740.092 455.048 740.092 452.41ZM710.507 452.41C710.507 449.772 712.656 447.624 715.294 447.624C717.951 447.624 720.099 449.772 720.099 452.41C720.099 455.048 717.951 457.197 715.294 457.197C712.656 457.197 710.507 455.048 710.507 452.41ZM680.941 452.41C680.941 449.772 683.09 447.624 685.728 447.624C688.366 447.624 690.514 449.772 690.514 452.41C690.514 455.048 688.366 457.197 685.728 457.197C683.09 457.197 680.941 455.048 680.941 452.41ZM651.356 452.41C651.356 449.772 653.505 447.624 656.162 447.624C658.8 447.624 660.948 449.772 660.948 452.41C660.948 455.048 658.8 457.197 656.162 457.197C653.505 457.197 651.356 455.048 651.356 452.41Z" fill="#292D74"/>
<path d="M947.044 721.818C947.044 719.179 949.173 717.031 951.83 717.031C954.469 717.031 956.617 719.179 956.617 721.818C956.617 724.456 954.469 726.604 951.83 726.604C949.173 726.604 947.044 724.456 947.044 721.818ZM917.459 721.818C917.459 719.179 919.607 717.031 922.246 717.031C924.903 717.031 927.032 719.179 927.032 721.818C927.032 724.456 924.903 726.604 922.246 726.604C919.607 726.604 917.459 724.456 917.459 721.818ZM887.893 721.818C887.893 719.179 890.023 717.031 892.68 717.031C895.318 717.031 897.466 719.179 897.466 721.818C897.466 724.456 895.318 726.604 892.68 726.604C890.023 726.604 887.893 724.456 887.893 721.818ZM858.308 721.818C858.308 719.179 860.456 717.031 863.095 717.031C865.733 717.031 867.881 719.179 867.881 721.818C867.881 724.456 865.733 726.604 863.095 726.604C860.456 726.604 858.308 724.456 858.308 721.818ZM828.742 721.818C828.742 719.179 830.872 717.031 833.529 717.031C836.167 717.031 838.315 719.179 838.315 721.818C838.315 724.456 836.167 726.604 833.529 726.604C830.872 726.604 828.742 724.456 828.742 721.818ZM799.157 721.818C799.157 719.179 801.305 717.031 803.944 717.031C806.582 717.031 808.73 719.179 808.73 721.818C808.73 724.456 806.582 726.604 803.944 726.604C801.305 726.604 799.157 724.456 799.157 721.818ZM769.572 721.818C769.572 719.179 771.721 717.031 774.378 717.031C777.016 717.031 779.164 719.179 779.164 721.818C779.164 724.456 777.016 726.604 774.378 726.604C771.721 726.604 769.572 724.456 769.572 721.818ZM740.006 721.818C740.006 719.179 742.155 717.031 744.793 717.031C747.431 717.031 749.579 719.179 749.579 721.818C749.579 724.456 747.431 726.604 744.793 726.604C742.155 726.604 740.006 724.456 740.006 721.818ZM710.421 721.818C710.421 719.179 712.57 717.031 715.208 717.031C717.865 717.031 720.013 719.179 720.013 721.818C720.013 724.456 717.865 726.604 715.208 726.604C712.57 726.604 710.421 724.456 710.421 721.818ZM680.855 721.818C680.855 719.179 683.004 717.031 685.642 717.031C688.28 717.031 690.428 719.179 690.428 721.818C690.428 724.456 688.28 726.604 685.642 726.604C683.004 726.604 680.855 724.456 680.855 721.818ZM651.271 721.818C651.271 719.179 653.419 717.031 656.076 717.031C658.714 717.031 660.862 719.179 660.862 721.818C660.862 724.456 658.714 726.604 656.076 726.604C653.419 726.604 651.271 724.456 651.271 721.818Z" fill="#292D74"/>
<path d="M1730.28 986.366C1730.28 983.728 1732.41 981.58 1735.07 981.58C1737.7 981.58 1739.85 983.728 1739.85 986.366C1739.85 989.004 1737.7 991.153 1735.07 991.153C1732.41 991.153 1730.28 989.004 1730.28 986.366ZM1700.7 986.366C1700.7 983.728 1702.84 981.58 1705.48 981.58C1708.14 981.58 1710.27 983.728 1710.27 986.366C1710.27 989.004 1708.14 991.153 1705.48 991.153C1702.84 991.153 1700.7 989.004 1700.7 986.366ZM1671.13 986.366C1671.13 983.728 1673.26 981.58 1675.92 981.58C1678.55 981.58 1680.7 983.728 1680.7 986.366C1680.7 989.004 1678.55 991.153 1675.92 991.153C1673.26 991.153 1671.13 989.004 1671.13 986.366ZM1641.54 986.366C1641.54 983.728 1643.69 981.58 1646.33 981.58C1648.97 981.58 1651.12 983.728 1651.12 986.366C1651.12 989.004 1648.97 991.153 1646.33 991.153C1643.69 991.153 1641.54 989.004 1641.54 986.366ZM1611.98 986.366C1611.98 983.728 1614.11 981.58 1616.76 981.58C1619.4 981.58 1621.55 983.728 1621.55 986.366C1621.55 989.004 1619.4 991.153 1616.76 991.153C1614.11 991.153 1611.98 989.004 1611.98 986.366ZM1582.39 986.366C1582.39 983.728 1584.54 981.58 1587.18 981.58C1589.82 981.58 1591.97 983.728 1591.97 986.366C1591.97 989.004 1589.82 991.153 1587.18 991.153C1584.54 991.153 1582.39 989.004 1582.39 986.366ZM1552.81 986.366C1552.81 983.728 1554.96 981.58 1557.61 981.58C1560.25 981.58 1562.4 983.728 1562.4 986.366C1562.4 989.004 1560.25 991.153 1557.61 991.153C1554.96 991.153 1552.81 989.004 1552.81 986.366ZM1523.24 986.366C1523.24 983.728 1525.39 981.58 1528.03 981.58C1530.67 981.58 1532.82 983.728 1532.82 986.366C1532.82 989.004 1530.67 991.153 1528.03 991.153C1525.39 991.153 1523.24 989.004 1523.24 986.366ZM1493.66 986.366C1493.66 983.728 1495.81 981.58 1498.44 981.58C1501.1 981.58 1503.25 983.728 1503.25 986.366C1503.25 989.004 1501.1 991.153 1498.44 991.153C1495.81 991.153 1493.66 989.004 1493.66 986.366ZM1464.09 986.366C1464.09 983.728 1466.24 981.58 1468.88 981.58C1471.52 981.58 1473.66 983.728 1473.66 986.366C1473.66 989.004 1471.52 991.153 1468.88 991.153C1466.24 991.153 1464.09 989.004 1464.09 986.366ZM1434.51 986.366C1434.51 983.728 1436.66 981.58 1439.31 981.58C1441.95 981.58 1444.1 983.728 1444.1 986.366C1444.1 989.004 1441.95 991.153 1439.31 991.153C1436.66 991.153 1434.51 989.004 1434.51 986.366Z" fill="#292D74"/>
<path d="M1051.78 185.505C1051.78 182.867 1053.91 180.719 1056.56 180.719C1059.2 180.719 1061.35 182.867 1061.35 185.505C1061.35 188.143 1059.2 190.291 1056.56 190.291C1053.91 190.291 1051.78 188.143 1051.78 185.505ZM1022.19 185.505C1022.19 182.867 1024.34 180.719 1026.98 180.719C1029.64 180.719 1031.77 182.867 1031.77 185.505C1031.77 188.143 1029.64 190.291 1026.98 190.291C1024.34 190.291 1022.19 188.143 1022.19 185.505ZM992.627 185.505C992.627 182.867 994.756 180.719 997.413 180.719C1000.05 180.719 1002.2 182.867 1002.2 185.505C1002.2 188.143 1000.05 190.291 997.413 190.291C994.756 190.291 992.627 188.143 992.627 185.505ZM963.042 185.505C963.042 182.867 965.19 180.719 967.828 180.719C970.466 180.719 972.614 182.867 972.614 185.505C972.614 188.143 970.466 190.291 967.828 190.291C965.19 190.291 963.042 188.143 963.042 185.505ZM933.476 185.505C933.476 182.867 935.605 180.719 938.262 180.719C940.9 180.719 943.048 182.867 943.048 185.505C943.048 188.143 940.9 190.291 938.262 190.291C935.605 190.291 933.476 188.143 933.476 185.505ZM903.891 185.505C903.891 182.867 906.039 180.719 908.677 180.719C911.315 180.719 913.463 182.867 913.463 185.505C913.463 188.143 911.315 190.291 908.677 190.291C906.039 190.291 903.891 188.143 903.891 185.505ZM874.306 185.505C874.306 182.867 876.454 180.719 879.111 180.719C881.749 180.719 883.897 182.867 883.897 185.505C883.897 188.143 881.749 190.291 879.111 190.291C876.454 190.291 874.306 188.143 874.306 185.505ZM844.74 185.505C844.74 182.867 846.888 180.719 849.526 180.719C852.164 180.719 854.312 182.867 854.312 185.505C854.312 188.143 852.164 190.291 849.526 190.291C846.888 190.291 844.74 188.143 844.74 185.505ZM815.155 185.505C815.155 182.867 817.303 180.719 819.941 180.719C822.598 180.719 824.746 182.867 824.746 185.505C824.746 188.143 822.598 190.291 819.941 190.291C817.303 190.291 815.155 188.143 815.155 185.505ZM785.589 185.505C785.589 182.867 787.737 180.719 790.375 180.719C793.013 180.719 795.162 182.867 795.162 185.505C795.162 188.143 793.013 190.291 790.375 190.291C787.737 190.291 785.589 188.143 785.589 185.505ZM756.004 185.505C756.004 182.867 758.152 180.719 760.809 180.719C763.447 180.719 765.595 182.867 765.595 185.505C765.595 188.143 763.447 190.291 760.809 190.291C758.152 190.291 756.004 188.143 756.004 185.505Z" fill="#292D74"/>
<path d="M1064.2 452.41C1064.2 449.772 1066.35 447.624 1068.99 447.624C1071.62 447.624 1073.77 449.772 1073.77 452.41C1073.77 455.048 1071.62 457.197 1068.99 457.197C1066.35 457.197 1064.2 455.048 1064.2 452.41ZM1034.61 452.41C1034.61 449.772 1036.76 447.624 1039.4 447.624C1042.06 447.624 1044.21 449.772 1044.21 452.41C1044.21 455.048 1042.06 457.197 1039.4 457.197C1036.76 457.197 1034.61 455.048 1034.61 452.41ZM1005.05 452.41C1005.05 449.772 1007.2 447.624 1009.84 447.624C1012.47 447.624 1014.62 449.772 1014.62 452.41C1014.62 455.048 1012.47 457.197 1009.84 457.197C1007.2 457.197 1005.05 455.048 1005.05 452.41ZM975.464 452.41C975.464 449.772 977.612 447.624 980.269 447.624C982.907 447.624 985.055 449.772 985.055 452.41C985.055 455.048 982.907 457.197 980.269 457.197C977.612 457.197 975.464 455.048 975.464 452.41Z" fill="#292D74"/>
<path d="M1064.1 721.818C1064.1 719.179 1066.25 717.031 1068.89 717.031C1071.52 717.031 1073.67 719.179 1073.67 721.818C1073.67 724.456 1071.52 726.604 1068.89 726.604C1066.25 726.604 1064.1 724.456 1064.1 721.818ZM1034.52 721.818C1034.52 719.179 1036.66 717.031 1039.3 717.031C1041.96 717.031 1044.11 719.179 1044.11 721.818C1044.11 724.456 1041.96 726.604 1039.3 726.604C1036.66 726.604 1034.52 724.456 1034.52 721.818ZM1004.95 721.818C1004.95 719.179 1007.1 717.031 1009.74 717.031C1012.37 717.031 1014.52 719.179 1014.52 721.818C1014.52 724.456 1012.37 726.604 1009.74 726.604C1007.1 726.604 1004.95 724.456 1004.95 721.818ZM975.364 721.818C975.364 719.179 977.512 717.031 980.169 717.031C982.808 717.031 984.956 719.179 984.956 721.818C984.956 724.456 982.808 726.604 980.169 726.604C977.512 726.604 975.364 724.456 975.364 721.818Z" fill="#292D74"/>
<path d="M271.391 447.296C268.734 447.296 266.586 449.444 266.586 452.083C266.586 454.721 268.734 456.869 271.391 456.869C274.029 456.869 276.177 454.721 276.177 452.083C276.177 449.444 274.029 447.296 271.391 447.296Z" fill="#292D74"/>
<path d="M271.391 180.719C268.734 180.719 266.586 182.867 266.586 185.505C266.586 188.143 268.734 190.291 271.391 190.291C274.029 190.291 276.177 188.143 276.177 185.505C276.177 182.867 274.029 180.719 271.391 180.719Z" fill="#292D74"/>
<path d="M271.388 716.633C268.731 716.633 266.583 718.781 266.583 721.419C266.583 724.057 268.731 726.206 271.388 726.206C274.026 726.206 276.175 724.057 276.175 721.419C276.175 718.781 274.026 716.633 271.388 716.633Z" fill="#292D74"/>
<path d="M626.419 716.734C623.762 716.734 621.614 718.883 621.614 721.521C621.614 724.159 623.762 726.307 626.419 726.307C629.058 726.307 631.206 724.159 631.206 721.521C631.206 718.883 629.058 716.734 626.419 716.734Z" fill="#292D74"/>
<path d="M626.507 447.631C623.85 447.631 621.702 449.779 621.702 452.418C621.702 455.056 623.85 457.204 626.507 457.204C629.145 457.204 631.294 455.056 631.294 452.418C631.294 449.779 629.145 447.631 626.507 447.631Z" fill="#292D74"/>
<path d="M1200.66 583.156C1198 583.156 1195.86 585.304 1195.86 587.943C1195.86 590.581 1198 592.729 1200.66 592.729C1203.3 592.729 1205.45 590.581 1205.45 587.943C1205.45 585.304 1203.3 583.156 1200.66 583.156Z" fill="#292D74"/>
<path d="M271.326 981.578C268.669 981.578 266.521 983.726 266.521 986.364C266.521 989.003 268.669 991.151 271.326 991.151C273.964 991.151 276.112 989.003 276.112 986.364C276.112 983.726 273.964 981.578 271.326 981.578Z" fill="#292D74"/>
<path d="M240.693 453.834C238.111 453.25 236.49 450.687 237.075 448.087C237.659 445.524 240.24 443.904 242.803 444.488C245.385 445.072 247.005 447.635 246.421 450.216C245.912 452.44 243.934 453.947 241.748 453.947C241.409 453.947 241.051 453.91 240.693 453.834ZM211.447 443.602C209.073 442.453 208.074 439.588 209.223 437.214C210.373 434.821 213.237 433.822 215.611 434.972C218.005 436.121 219.003 438.985 217.854 441.36C217.025 443.074 215.31 444.073 213.539 444.073C212.841 444.073 212.125 443.922 211.447 443.602ZM185.254 427.114C183.181 425.455 182.842 422.44 184.5 420.368C186.14 418.314 189.155 417.974 191.227 419.614C193.3 421.272 193.639 424.287 191.981 426.36C191.039 427.528 189.645 428.15 188.231 428.15C187.195 428.15 186.14 427.811 185.254 427.114ZM163.357 405.217C161.718 403.144 162.038 400.129 164.111 398.49C166.184 396.832 169.199 397.171 170.838 399.244C172.497 401.316 172.157 404.313 170.085 405.971C169.199 406.668 168.163 407.026 167.107 407.026C165.694 407.026 164.3 406.404 163.357 405.217ZM146.869 379.024C145.719 376.631 146.718 373.767 149.093 372.617C151.486 371.468 154.331 372.466 155.499 374.86C156.63 377.234 155.65 380.098 153.257 381.248C152.579 381.568 151.881 381.719 151.184 381.719C149.394 381.719 147.698 380.72 146.869 379.024ZM136.637 349.797C136.053 347.216 137.654 344.634 140.236 344.05C142.818 343.466 145.38 345.086 145.964 347.668C146.567 350.249 144.947 352.812 142.365 353.396C142.007 353.472 141.649 353.509 141.291 353.509C139.105 353.509 137.146 352.002 136.637 349.797Z" fill="#292D74"/>
<path d="M133.188 318.995C133.188 316.338 135.337 314.19 137.975 314.19C140.632 314.19 142.78 316.338 142.78 318.995C142.78 321.633 140.632 323.781 137.975 323.781C135.337 323.781 133.188 321.633 133.188 318.995Z" fill="#292D74"/>
<path d="M140.242 293.959C137.66 293.356 136.04 290.793 136.643 288.23C137.227 285.648 139.79 284.028 142.371 284.612C144.953 285.196 146.554 287.759 145.97 290.341C145.48 292.564 143.502 294.072 141.316 294.072C140.958 294.072 140.6 294.034 140.242 293.959ZM149.098 265.372C146.724 264.242 145.706 261.378 146.856 258.984C148.005 256.61 150.87 255.611 153.263 256.761C155.637 257.91 156.636 260.775 155.486 263.149C154.657 264.864 152.961 265.862 151.171 265.862C150.474 265.862 149.758 265.712 149.098 265.372ZM164.117 239.519C162.044 237.86 161.705 234.845 163.363 232.791C165.003 230.719 168.018 230.379 170.09 232.038C172.163 233.677 172.502 236.692 170.844 238.765C169.902 239.952 168.508 240.555 167.094 240.555C166.058 240.555 165.003 240.216 164.117 239.519ZM184.487 217.622C182.848 215.568 183.187 212.553 185.241 210.895C187.314 209.237 190.329 209.576 191.987 211.649C193.626 213.721 193.287 216.718 191.233 218.376C190.348 219.092 189.292 219.431 188.237 219.431C186.824 219.431 185.448 218.809 184.487 217.622ZM209.21 200.795C208.061 198.401 209.06 195.556 211.453 194.388C213.827 193.257 216.691 194.256 217.841 196.63C218.99 199.004 217.992 201.869 215.598 203.018C214.939 203.357 214.223 203.508 213.526 203.508C211.754 203.508 210.039 202.509 209.21 200.795ZM237.062 189.903C236.477 187.321 238.098 184.758 240.68 184.174C243.261 183.59 245.824 185.192 246.408 187.773C246.992 190.355 245.372 192.918 242.79 193.502C242.432 193.596 242.074 193.634 241.735 193.634C239.549 193.634 237.57 192.126 237.062 189.903Z" fill="#292D74"/>
<path d="M727.148 185.505C727.148 182.867 729.296 180.719 731.953 180.719C734.591 180.719 736.739 182.867 736.739 185.505C736.739 188.162 734.591 190.291 731.953 190.291C729.296 190.291 727.148 188.162 727.148 185.505ZM698.373 185.505C698.373 182.867 700.521 180.719 703.159 180.719C705.797 180.719 707.946 182.867 707.946 185.505C707.946 188.162 705.797 190.291 703.159 190.291C700.521 190.291 698.373 188.162 698.373 185.505ZM669.598 185.505C669.598 182.867 671.728 180.719 674.385 180.719C677.023 180.719 679.171 182.867 679.171 185.505C679.171 188.162 677.023 190.291 674.385 190.291C671.728 190.291 669.598 188.162 669.598 185.505ZM640.805 185.505C640.805 182.867 642.953 180.719 645.591 180.719C648.248 180.719 650.396 182.867 650.396 185.505C650.396 188.162 648.248 190.291 645.591 190.291C642.953 190.291 640.805 188.162 640.805 185.505ZM612.03 185.505C612.03 182.867 614.178 180.719 616.817 180.719C619.474 180.719 621.603 182.867 621.603 185.505C621.603 188.162 619.474 190.291 616.817 190.291C614.178 190.291 612.03 188.162 612.03 185.505ZM583.256 185.505C583.256 182.867 585.404 180.719 588.042 180.719C590.68 180.719 592.828 182.867 592.828 185.505C592.828 188.162 590.68 190.291 588.042 190.291C585.404 190.291 583.256 188.162 583.256 185.505ZM554.462 185.505C554.462 182.867 556.61 180.719 559.267 180.719C561.906 180.719 564.054 182.867 564.054 185.505C564.054 188.162 561.906 190.291 559.267 190.291C556.61 190.291 554.462 188.162 554.462 185.505ZM525.688 185.505C525.688 182.867 527.836 180.719 530.474 180.719C533.131 180.719 535.26 182.867 535.26 185.505C535.26 188.162 533.131 190.291 530.474 190.291C527.836 190.291 525.688 188.162 525.688 185.505ZM496.913 185.505C496.913 182.867 499.061 180.719 501.699 180.719C504.338 180.719 506.486 182.867 506.486 185.505C506.486 188.162 504.338 190.291 501.699 190.291C499.061 190.291 496.913 188.162 496.913 185.505ZM468.138 185.505C468.138 182.867 470.268 180.719 472.925 180.719C475.563 180.719 477.711 182.867 477.711 185.505C477.711 188.162 475.563 190.291 472.925 190.291C470.268 190.291 468.138 188.162 468.138 185.505ZM439.345 185.505C439.345 182.867 441.493 180.719 444.131 180.719C446.788 180.719 448.937 182.867 448.937 185.505C448.937 188.162 446.788 190.291 444.131 190.291C441.493 190.291 439.345 188.162 439.345 185.505ZM410.57 185.505C410.57 182.867 412.719 180.719 415.357 180.719C418.014 180.719 420.143 182.867 420.143 185.505C420.143 188.162 418.014 190.291 415.357 190.291C412.719 190.291 410.57 188.162 410.57 185.505ZM381.796 185.505C381.796 182.867 383.944 180.719 386.582 180.719C389.22 180.719 391.368 182.867 391.368 185.505C391.368 188.162 389.22 190.291 386.582 190.291C383.944 190.291 381.796 188.162 381.796 185.505ZM353.002 185.505C353.002 182.867 355.151 180.719 357.808 180.719C360.446 180.719 362.594 182.867 362.594 185.505C362.594 188.162 360.446 190.291 357.808 190.291C355.151 190.291 353.002 188.162 353.002 185.505ZM324.228 185.505C324.228 182.867 326.376 180.719 329.014 180.719C331.671 180.719 333.8 182.867 333.8 185.505C333.8 188.162 331.671 190.291 329.014 190.291C326.376 190.291 324.228 188.162 324.228 185.505ZM295.453 185.505C295.453 182.867 297.582 180.719 300.239 180.719C302.878 180.719 305.026 182.867 305.026 185.505C305.026 188.162 302.878 190.291 300.239 190.291C297.582 190.291 295.453 188.162 295.453 185.505Z" fill="#292D74"/>
</g>
<path d="M43.6248 63.6776C39.9262 63.6776 36.9758 62.3083 34.7736 59.5697C32.5997 56.831 31.5127 53.1466 31.5127 48.5163C31.5127 43.886 32.6138 40.2016 34.816 37.4629C37.0182 34.7243 39.9686 33.355 43.6671 33.355C47.3939 33.355 50.3302 34.7243 52.4759 37.4629C54.6499 40.1733 55.7369 43.8578 55.7369 48.5163C55.7369 53.1466 54.6499 56.831 52.4759 59.5697C50.3302 62.3083 47.3798 63.6776 43.6248 63.6776ZM43.6671 58.765C47.7045 58.765 49.7232 55.3488 49.7232 48.5163C49.7232 45.2977 49.2291 42.7849 48.2409 40.978C47.2528 39.1711 45.7282 38.2676 43.6671 38.2676C41.5779 38.2676 40.025 39.1711 39.0086 40.978C38.0205 42.7849 37.5264 45.2977 37.5264 48.5163C37.5264 51.7349 38.0205 54.2477 39.0086 56.0546C40.025 57.8615 41.5779 58.765 43.6671 58.765ZM70.383 63.6776C66.6845 63.6776 63.7341 62.3083 61.5319 59.5697C59.3579 56.831 58.2709 53.1466 58.2709 48.5163C58.2709 43.886 59.372 40.2016 61.5742 37.4629C63.7764 34.7243 66.7268 33.355 70.4254 33.355C74.1522 33.355 77.0885 34.7243 79.2342 37.4629C81.4082 40.1733 82.4951 43.8578 82.4951 48.5163C82.4951 53.1466 81.4082 56.831 79.2342 59.5697C77.0885 62.3083 74.1381 63.6776 70.383 63.6776ZM70.4254 58.765C74.4628 58.765 76.4814 55.3488 76.4814 48.5163C76.4814 45.2977 75.9874 42.7849 74.9992 40.978C74.011 39.1711 72.4864 38.2676 70.4254 38.2676C68.3361 38.2676 66.7833 39.1711 65.7669 40.978C64.7787 42.7849 64.2846 45.2977 64.2846 48.5163C64.2846 51.7349 64.7787 54.2477 65.7669 56.0546C66.7833 57.8615 68.3361 58.765 70.4254 58.765ZM84.653 63C84.7095 61.2778 85.1189 59.6543 85.8812 58.1298C86.6435 56.5769 87.4622 55.3347 88.3375 54.4029C89.2409 53.4712 90.342 52.4972 91.6408 51.4808C92.0925 51.1138 92.7983 50.5773 93.7583 49.8715C94.7464 49.1657 95.4805 48.6151 95.9605 48.2199C96.4404 47.8246 96.9769 47.3305 97.5698 46.7376C98.1909 46.1165 98.6285 45.4953 98.8826 44.8742C99.1367 44.2248 99.2638 43.5472 99.2638 42.8414C99.2638 41.458 98.9108 40.3569 98.205 39.5381C97.4992 38.7193 96.511 38.31 95.2405 38.31C93.7724 38.31 92.6148 38.8182 91.7678 39.8345C90.949 40.8509 90.5255 42.305 90.4973 44.1966H85.0765C85.0765 40.8086 85.9376 38.1688 87.6599 36.2771C89.4103 34.3573 91.9796 33.3973 95.3676 33.3973C98.4168 33.3973 100.817 34.2867 102.567 36.0654C104.346 37.8441 105.235 40.0463 105.235 42.672C105.235 43.9707 105.037 45.1565 104.642 46.2294C104.275 47.274 103.682 48.234 102.864 49.1092C102.045 49.9844 101.311 50.6761 100.661 51.1843C100.012 51.6926 99.1085 52.3278 97.9509 53.0901C94.7888 55.1229 92.8407 56.8451 92.1066 58.2568H105.489V63H84.653Z" fill="white"/>
<path d="M891.398 148.465V76.9648L941.898 76.9648V84.8648L900.398 84.8648V107.465H938.098V115.065H900.398V140.165H943.098V148.465H891.398ZM969.805 148.465V118.165L943.905 76.9648H953.905L974.405 110.965H974.605L995.405 76.9648H1005.01L978.805 118.365V148.465H969.805ZM1008.69 148.465V76.9648L1059.19 76.9648V84.8648H1017.69V107.465H1055.39V115.065H1017.69V140.165H1060.39V148.465L1008.69 148.465Z" fill="white"/>
<path d="M404.065 407.047C397.732 414.047 389.265 417.547 378.665 417.547C368.065 417.547 359.565 414.047 353.165 407.047C346.832 400.047 343.665 391.114 343.665 380.247C343.665 369.38 346.832 360.447 353.165 353.447C359.565 346.447 368.065 342.947 378.665 342.947C389.265 342.947 397.732 346.447 404.065 353.447C410.465 360.447 413.665 369.38 413.665 380.247C413.665 391.114 410.465 400.047 404.065 407.047ZM359.665 401.447C364.198 406.914 370.532 409.647 378.665 409.647C386.798 409.647 393.132 406.914 397.665 401.447C402.198 395.98 404.465 388.914 404.465 380.247C404.465 371.58 402.198 364.514 397.665 359.047C393.132 353.514 386.798 350.747 378.665 350.747C370.532 350.747 364.198 353.514 359.665 359.047C355.132 364.514 352.865 371.58 352.865 380.247C352.865 388.914 355.132 395.98 359.665 401.447ZM420.392 416.047V344.547H468.892V352.447H429.392V374.747H462.292V382.347H429.392V416.047H420.392Z" fill="white"/>
<path d="M645.2 621.478V613.578H701.8V621.478H678V685.078H669V621.478H645.2ZM706.735 685.078V613.578H715.735V643.978H753.935V613.578H762.935V685.078H753.935V651.278H715.735V685.078H706.735ZM772.364 685.078V613.578H822.864V621.478H781.364V644.078H819.064V651.678H781.364V676.778H824.064V685.078H772.364Z" fill="white"/>
<path d="M1389.4 949.184V877.684H1398.9L1431.5 927.384L1436.7 936.584H1436.9V877.684H1445.3V949.184H1436.1L1403.3 899.384L1398 890.484H1397.8V949.184H1389.4ZM1454.74 949.184V877.684H1505.24V885.584H1463.74V908.184H1501.44V915.784H1463.74V940.884H1506.44V949.184H1454.74ZM1512.94 949.184V877.684H1563.44V885.584H1521.94V908.184H1559.64V915.784H1521.94V940.884H1564.64V949.184H1512.94ZM1571.15 949.184V877.684H1597.15C1607.62 877.684 1615.52 880.917 1620.85 887.384C1626.18 893.85 1628.85 902.617 1628.85 913.684C1628.85 924.684 1626.08 933.35 1620.55 939.684C1615.02 946.017 1606.98 949.184 1596.45 949.184H1571.15ZM1580.15 941.284H1596.15C1611.82 941.284 1619.65 932.084 1619.65 913.684C1619.65 894.884 1612.05 885.484 1596.85 885.484H1580.15V941.284ZM1635.51 949.184V877.684H1644.51V940.884H1682.01V949.184H1635.51ZM1686.88 949.184V877.684L1737.38 877.684V885.584H1695.88V908.184H1733.58V915.784H1695.88V940.884H1738.58V949.184H1686.88Z" fill="white"/>
</g>
<defs>
<clipPath id="clip0_1219_481">
<rect width="1920" height="1080" fill="white"/>
</clipPath>
</defs>
</svg>
