<svg width="397" height="388" viewBox="0 0 397 388" fill="none" xmlns="http://www.w3.org/2000/svg">
<g clip-path="url(#clip0_1219_699)">
<rect width="397" height="388" fill="#292D74"/>
<path d="M14.1964 25.6419C10.5784 25.6419 8.85041 23.6259 8.70641 21.0339H10.2904C10.5064 23.2119 11.8384 24.3459 14.2684 24.3459C16.0504 24.3459 17.3284 23.5359 17.3284 21.9339C17.3284 20.1699 15.7804 19.7559 13.4764 19.2519C11.2084 18.7479 9.26441 18.0999 9.26441 15.6699C9.26441 13.5459 11.0284 12.2679 13.6384 12.2679C16.8604 12.2679 18.1924 13.9059 18.5164 16.2819H16.9864C16.7524 14.4459 15.5644 13.5279 13.6744 13.5279C11.9284 13.5279 10.7764 14.2659 10.7764 15.5979C10.7764 17.0559 12.2164 17.4879 14.1424 17.8659C16.6444 18.3699 18.9304 18.9819 18.9304 21.8799C18.9304 24.2919 16.9684 25.6419 14.1964 25.6419ZM25.608 25.6419C21.954 25.6419 19.578 22.8519 19.578 18.9459C19.578 15.1659 21.846 12.2319 25.68 12.2319C28.686 12.2319 30.504 13.9599 30.846 16.3359H29.262C28.956 14.7339 27.678 13.6359 25.644 13.6359C22.818 13.6359 21.234 15.9219 21.234 18.9459C21.234 22.0959 22.98 24.2199 25.662 24.2199C28.092 24.2199 29.244 22.5639 29.406 20.6739H31.008C30.99 21.9519 30.378 23.3919 29.46 24.2919C28.56 25.1739 27.246 25.6419 25.608 25.6419ZM30.816 25.3899L35.55 12.5199H37.368L42.12 25.3899H40.356L38.988 21.4659H33.858L32.472 25.3899H30.816ZM35.856 15.8319L34.326 20.1519H38.538L37.062 15.8319C36.81 15.1119 36.486 14.0139 36.486 14.0139H36.45C36.45 14.0139 36.108 15.0939 35.856 15.8319ZM42.7939 25.3899V12.5199H44.4139V23.8959L51.1639 23.8959V25.3899L42.7939 25.3899ZM52.0407 25.3899V12.5199L61.1307 12.5199V13.9419H53.6607V18.0099H60.4467V19.3779H53.6607V23.8959L61.3467 23.8959V25.3899L52.0407 25.3899ZM62.4555 25.3899V23.6079H64.2015V25.3899H62.4555Z" fill="white"/>
<path d="M245.134 146.375H131.113" stroke="#D3BBDB" stroke-width="3"/>
<path d="M167.164 245.281H60.2628C32.9507 245.281 10.8099 223.14 10.8099 195.828V195.828C10.8099 168.516 32.9507 146.375 60.2627 146.375H386.282" stroke="#DA2F62" stroke-width="3"/>
<path d="M151.08 245.281H335.875C363.187 245.281 385.328 267.421 385.328 294.733V294.733C385.328 322.045 363.187 344.186 335.875 344.186H11.2471" stroke="#DA2F62" stroke-width="3"/>
<path d="M80.3889 135.525C75.3237 135.525 72.9045 132.703 72.7029 129.074H74.9205C75.2229 132.123 77.0877 133.711 80.4897 133.711C82.9845 133.711 84.7737 132.577 84.7737 130.334C84.7737 127.864 82.6065 127.285 79.3809 126.579C76.2057 125.874 73.4841 124.966 73.4841 121.564C73.4841 118.591 75.9537 116.802 79.6077 116.802C84.1185 116.802 85.9833 119.095 86.4369 122.421H84.2949C83.9673 119.851 82.3041 118.566 79.6581 118.566C77.2137 118.566 75.6009 119.599 75.6009 121.464C75.6009 123.505 77.6169 124.11 80.3133 124.639C83.8161 125.344 87.0165 126.201 87.0165 130.258C87.0165 133.635 84.2697 135.525 80.3889 135.525ZM96.3651 135.525C91.2495 135.525 87.9231 131.619 87.9231 126.151C87.9231 120.859 91.0983 116.751 96.4659 116.751C100.674 116.751 103.219 119.17 103.698 122.497H101.481C101.052 120.254 99.2631 118.717 96.4155 118.717C92.4591 118.717 90.2415 121.917 90.2415 126.151C90.2415 130.561 92.6859 133.534 96.4407 133.534C99.8427 133.534 101.455 131.216 101.682 128.57H103.925C103.9 130.359 103.043 132.375 101.758 133.635C100.498 134.87 98.6583 135.525 96.3651 135.525ZM103.656 135.172L110.284 117.154H112.829L119.482 135.172H117.012L115.097 129.679H107.915L105.975 135.172H103.656ZM110.712 121.791L108.57 127.839L114.467 127.839L112.401 121.791C112.048 120.783 111.594 119.246 111.594 119.246H111.544C111.544 119.246 111.065 120.758 110.712 121.791ZM120.425 135.172V117.154H122.693V133.081H132.143V135.172H120.425ZM133.371 135.172V117.154H146.097V119.145H135.639V124.84H145.139V126.756H135.639V133.081H146.399V135.172H133.371ZM147.952 135.172V132.678H150.396V135.172H147.952Z" fill="white"/>
<path d="M143.941 234.285C136.705 234.285 133.249 230.253 132.961 225.069H136.129C136.561 229.425 139.225 231.693 144.085 231.693C147.649 231.693 150.205 230.073 150.205 226.869C150.205 223.341 147.109 222.513 142.501 221.505C137.965 220.497 134.077 219.201 134.077 214.341C134.077 210.093 137.605 207.537 142.825 207.537C149.269 207.537 151.933 210.813 152.581 215.565H149.521C149.053 211.893 146.677 210.057 142.897 210.057C139.405 210.057 137.101 211.533 137.101 214.197C137.101 217.113 139.981 217.977 143.833 218.733C148.837 219.741 153.409 220.965 153.409 226.761C153.409 231.585 149.485 234.285 143.941 234.285ZM166.764 234.285C159.456 234.285 154.704 228.705 154.704 220.893C154.704 213.333 159.24 207.465 166.908 207.465C172.92 207.465 176.556 210.921 177.24 215.673H174.072C173.46 212.469 170.904 210.273 166.836 210.273C161.184 210.273 158.016 214.845 158.016 220.893C158.016 227.193 161.508 231.441 166.872 231.441C171.732 231.441 174.036 228.129 174.36 224.349H177.564C177.528 226.905 176.304 229.785 174.468 231.585C172.668 233.349 170.04 234.285 166.764 234.285ZM177.18 233.781L186.648 208.041H190.284L199.788 233.781H196.26L193.524 225.933H183.264L180.492 233.781H177.18ZM187.26 214.665L184.2 223.305H192.624L189.672 214.665C189.168 213.225 188.52 211.029 188.52 211.029H188.448C188.448 211.029 187.764 213.189 187.26 214.665ZM201.136 233.781V208.041L204.376 208.041V230.793L217.876 230.793V233.781L201.136 233.781ZM219.629 233.781V208.041H237.809V210.885H222.869V219.021H236.441V221.757H222.869V230.793H238.241V233.781H219.629ZM240.459 233.781V230.217H243.951V233.781H240.459Z" fill="white"/>
<path d="M212.002 330.28C202.957 330.28 198.637 325.24 198.277 318.76H202.237C202.777 324.205 206.107 327.04 212.182 327.04C216.637 327.04 219.832 325.015 219.832 321.01C219.832 316.6 215.962 315.565 210.202 314.305C204.532 313.045 199.672 311.425 199.672 305.35C199.672 300.04 204.082 296.845 210.607 296.845C218.662 296.845 221.992 300.94 222.802 306.88H218.977C218.392 302.29 215.422 299.995 210.697 299.995C206.332 299.995 203.452 301.84 203.452 305.17C203.452 308.815 207.052 309.895 211.867 310.84C218.122 312.1 223.837 313.63 223.837 320.875C223.837 326.905 218.932 330.28 212.002 330.28ZM240.531 330.28C231.396 330.28 225.456 323.305 225.456 313.54C225.456 304.09 231.126 296.755 240.711 296.755C248.226 296.755 252.771 301.075 253.626 307.015H249.666C248.901 303.01 245.706 300.265 240.621 300.265C233.556 300.265 229.596 305.98 229.596 313.54C229.596 321.415 233.961 326.725 240.666 326.725C246.741 326.725 249.621 322.585 250.026 317.86H254.031C253.986 321.055 252.456 324.655 250.161 326.905C247.911 329.11 244.626 330.28 240.531 330.28ZM253.551 329.65L265.386 297.475H269.931L281.811 329.65H277.401L273.981 319.84H261.156L257.691 329.65H253.551ZM266.151 305.755L262.326 316.555H272.856L269.166 305.755C268.536 303.955 267.726 301.21 267.726 301.21H267.636C267.636 301.21 266.781 303.91 266.151 305.755ZM283.496 329.65V297.475H287.546V325.915H304.421V329.65H283.496ZM306.613 329.65V297.475H329.338V301.03H310.663V311.2H327.628V314.62H310.663V325.915H329.878V329.65H306.613ZM332.65 329.65V325.195H337.015V329.65H332.65Z" fill="white"/>
</g>
<defs>
<clipPath id="clip0_1219_699">
<rect width="397" height="388" fill="white"/>
</clipPath>
</defs>
</svg>
