<svg width="1920" height="1080" viewBox="0 0 1920 1080" fill="none" xmlns="http://www.w3.org/2000/svg">
<g clip-path="url(#clip0_1009_8356)">
<rect width="1920" height="1080" fill="#DA2F62"/>
<mask id="mask0_1009_8356" style="mask-type:luminance" maskUnits="userSpaceOnUse" x="133" y="180" width="1954" height="812">
<path d="M2086.42 180.719H133.188V991.156H2086.42V180.719Z" fill="white"/>
</mask>
<g mask="url(#mask0_1009_8356)">
<path d="M1408.32 986.372C1408.32 983.734 1410.47 981.586 1413.1 981.586C1415.74 981.586 1417.89 983.734 1417.89 986.372C1417.89 989.01 1415.74 991.159 1413.1 991.159C1410.47 991.159 1408.32 989.01 1408.32 986.372ZM1379.77 986.372C1379.77 983.734 1381.92 981.586 1384.56 981.586C1387.21 981.586 1389.34 983.734 1389.34 986.372C1389.34 989.01 1387.21 991.159 1384.56 991.159C1381.92 991.159 1379.77 989.01 1379.77 986.372ZM1351.24 986.372C1351.24 983.734 1353.37 981.586 1356.03 981.586C1358.67 981.586 1360.81 983.734 1360.81 986.372C1360.81 989.01 1358.67 991.159 1356.03 991.159C1353.37 991.159 1351.24 989.01 1351.24 986.372ZM1322.69 986.372C1322.69 983.734 1324.84 981.586 1327.48 981.586C1330.12 981.586 1332.26 983.734 1332.26 986.372C1332.26 989.01 1330.12 991.159 1327.48 991.159C1324.84 991.159 1322.69 989.01 1322.69 986.372ZM1294.14 986.372C1294.14 983.734 1296.29 981.586 1298.95 981.586C1301.59 981.586 1303.74 983.734 1303.74 986.372C1303.74 989.01 1301.59 991.159 1298.95 991.159C1296.29 991.159 1294.14 989.01 1294.14 986.372ZM1265.61 986.372C1265.61 983.734 1267.74 981.586 1270.4 981.586C1273.04 981.586 1275.19 983.734 1275.19 986.372C1275.19 989.01 1273.04 991.159 1270.4 991.159C1267.74 991.159 1265.61 989.01 1265.61 986.372ZM1237.07 986.372C1237.07 983.734 1239.21 981.586 1241.85 981.586C1244.51 981.586 1246.66 983.734 1246.66 986.372C1246.66 989.01 1244.51 991.159 1241.85 991.159C1239.21 991.159 1237.07 989.01 1237.07 986.372ZM1208.54 986.372C1208.54 983.734 1210.67 981.586 1213.32 981.586C1215.96 981.586 1218.11 983.734 1218.11 986.372C1218.11 989.01 1215.96 991.159 1213.32 991.159C1210.67 991.159 1208.54 989.01 1208.54 986.372ZM1179.99 986.372C1179.99 983.734 1182.14 981.586 1184.77 981.586C1187.41 981.586 1189.56 983.734 1189.56 986.372C1189.56 989.01 1187.41 991.159 1184.77 991.159C1182.14 991.159 1179.99 989.01 1179.99 986.372ZM1151.44 986.372C1151.44 983.734 1153.59 981.586 1156.23 981.586C1158.88 981.586 1161.03 983.734 1161.03 986.372C1161.03 989.01 1158.88 991.159 1156.23 991.159C1153.59 991.159 1151.44 989.01 1151.44 986.372ZM1122.91 986.372C1122.91 983.734 1125.06 981.586 1127.7 981.586C1130.33 981.586 1132.48 983.734 1132.48 986.372C1132.48 989.01 1130.33 991.159 1127.7 991.159C1125.06 991.159 1122.91 989.01 1122.91 986.372ZM1094.36 986.372C1094.36 983.734 1096.51 981.586 1099.15 981.586C1101.8 981.586 1103.93 983.734 1103.93 986.372C1103.93 989.01 1101.8 991.159 1099.15 991.159C1096.51 991.159 1094.36 989.01 1094.36 986.372ZM1065.83 986.372C1065.83 983.734 1067.96 981.586 1070.62 981.586C1073.26 981.586 1075.4 983.734 1075.4 986.372C1075.4 989.01 1073.26 991.159 1070.62 991.159C1067.96 991.159 1065.83 989.01 1065.83 986.372ZM1037.28 986.372C1037.28 983.734 1039.43 981.586 1042.07 981.586C1044.73 981.586 1046.86 983.734 1046.86 986.372C1046.86 989.01 1044.73 991.159 1042.07 991.159C1039.43 991.159 1037.28 989.01 1037.28 986.372ZM1008.73 986.372C1008.73 983.734 1010.88 981.586 1013.54 981.586C1016.18 981.586 1018.33 983.734 1018.33 986.372C1018.33 989.01 1016.18 991.159 1013.54 991.159C1010.88 991.159 1008.73 989.01 1008.73 986.372ZM980.205 986.372C980.205 983.734 982.334 981.586 984.991 981.586C987.629 981.586 989.777 983.734 989.777 986.372C989.777 989.01 987.629 991.159 984.991 991.159C982.334 991.159 980.205 989.01 980.205 986.372ZM951.656 986.372C951.656 983.734 953.804 981.586 956.443 981.586C959.1 981.586 961.229 983.734 961.229 986.372C961.229 989.01 959.1 991.159 956.443 991.159C953.804 991.159 951.656 989.01 951.656 986.372ZM923.127 986.372C923.127 983.734 925.256 981.586 927.913 981.586C930.551 981.586 932.699 983.734 932.699 986.372C932.699 989.01 930.551 991.159 927.913 991.159C925.256 991.159 923.127 989.01 923.127 986.372ZM894.578 986.372C894.578 983.734 896.726 981.586 899.364 981.586C902.021 981.586 904.151 983.734 904.151 986.372C904.151 989.01 902.021 991.159 899.364 991.159C896.726 991.159 894.578 989.01 894.578 986.372ZM866.03 986.372C866.03 983.734 868.178 981.586 870.816 981.586C873.473 981.586 875.621 983.734 875.621 986.372C875.621 989.01 873.473 991.159 870.816 991.159C868.178 991.159 866.03 989.01 866.03 986.372ZM837.5 986.372C837.5 983.734 839.648 981.586 842.286 981.586C844.924 981.586 847.073 983.734 847.073 986.372C847.073 989.01 844.924 991.159 842.286 991.159C839.648 991.159 837.5 989.01 837.5 986.372ZM808.951 986.372C808.951 983.734 811.1 981.586 813.738 981.586C816.395 981.586 818.524 983.734 818.524 986.372C818.524 989.01 816.395 991.159 813.738 991.159C811.1 991.159 808.951 989.01 808.951 986.372ZM780.422 986.372C780.422 983.734 782.551 981.586 785.208 981.586C787.846 981.586 789.995 983.734 789.995 986.372C789.995 989.01 787.846 991.159 785.208 991.159C782.551 991.159 780.422 989.01 780.422 986.372ZM751.873 986.372C751.873 983.734 754.022 981.586 756.66 981.586C759.317 981.586 761.446 983.734 761.446 986.372C761.446 989.01 759.317 991.159 756.66 991.159C754.022 991.159 751.873 989.01 751.873 986.372ZM723.325 986.372C723.325 983.734 725.473 981.586 728.13 981.586C730.768 981.586 732.916 983.734 732.916 986.372C732.916 989.01 730.768 991.159 728.13 991.159C725.473 991.159 723.325 989.01 723.325 986.372ZM694.795 986.372C694.795 983.734 696.925 981.586 699.582 981.586C702.22 981.586 704.368 983.734 704.368 986.372C704.368 989.01 702.22 991.159 699.582 991.159C696.925 991.159 694.795 989.01 694.795 986.372ZM666.247 986.372C666.247 983.734 668.395 981.586 671.033 981.586C673.69 981.586 675.82 983.734 675.82 986.372C675.82 989.01 673.69 991.159 671.033 991.159C668.395 991.159 666.247 989.01 666.247 986.372ZM637.717 986.372C637.717 983.734 639.847 981.586 642.504 981.586C645.142 981.586 647.29 983.734 647.29 986.372C647.29 989.01 645.142 991.159 642.504 991.159C639.847 991.159 637.717 989.01 637.717 986.372ZM609.169 986.372C609.169 983.734 611.317 981.586 613.955 981.586C616.612 981.586 618.741 983.734 618.741 986.372C618.741 989.01 616.612 991.159 613.955 991.159C611.317 991.159 609.169 989.01 609.169 986.372ZM580.62 986.372C580.62 983.734 582.768 981.586 585.407 981.586C588.064 981.586 590.212 983.734 590.212 986.372C590.212 989.01 588.064 991.159 585.407 991.159C582.768 991.159 580.62 989.01 580.62 986.372ZM552.091 986.372C552.091 983.734 554.239 981.586 556.877 981.586C559.515 981.586 561.663 983.734 561.663 986.372C561.663 989.01 559.515 991.159 556.877 991.159C554.239 991.159 552.091 989.01 552.091 986.372ZM523.542 986.372C523.542 983.734 525.69 981.586 528.329 981.586C530.986 981.586 533.115 983.734 533.115 986.372C533.115 989.01 530.986 991.159 528.329 991.159C525.69 991.159 523.542 989.01 523.542 986.372ZM495.013 986.372C495.013 983.734 497.142 981.586 499.799 981.586C502.437 981.586 504.585 983.734 504.585 986.372C504.585 989.01 502.437 991.159 499.799 991.159C497.142 991.159 495.013 989.01 495.013 986.372ZM466.464 986.372C466.464 983.734 468.612 981.586 471.25 981.586C473.907 981.586 476.037 983.734 476.037 986.372C476.037 989.01 473.907 991.159 471.25 991.159C468.612 991.159 466.464 989.01 466.464 986.372ZM437.916 986.372C437.916 983.734 440.064 981.586 442.721 981.586C445.359 981.586 447.507 983.734 447.507 986.372C447.507 989.01 445.359 991.159 442.721 991.159C440.064 991.159 437.916 989.01 437.916 986.372ZM409.386 986.372C409.386 983.734 411.515 981.586 414.172 981.586C416.81 981.586 418.959 983.734 418.959 986.372C418.959 989.01 416.81 991.159 414.172 991.159C411.515 991.159 409.386 989.01 409.386 986.372ZM380.838 986.372C380.838 983.734 382.986 981.586 385.624 981.586C388.281 981.586 390.41 983.734 390.41 986.372C390.41 989.01 388.281 991.159 385.624 991.159C382.986 991.159 380.838 989.01 380.838 986.372ZM352.308 986.372C352.308 983.734 354.437 981.586 357.094 981.586C359.732 981.586 361.881 983.734 361.881 986.372C361.881 989.01 359.732 991.159 357.094 991.159C354.437 991.159 352.308 989.01 352.308 986.372ZM323.759 986.372C323.759 983.734 325.908 981.586 328.546 981.586C331.203 981.586 333.332 983.734 333.332 986.372C333.332 989.01 331.203 991.159 328.546 991.159C325.908 991.159 323.759 989.01 323.759 986.372ZM295.211 986.372C295.211 983.734 297.359 981.586 299.997 981.586C302.654 981.586 304.802 983.734 304.802 986.372C304.802 989.01 302.654 991.159 299.997 991.159C297.359 991.159 295.211 989.01 295.211 986.372Z" fill="#292D74"/>
<path d="M240.692 987.735C238.11 987.151 236.489 984.588 237.074 982.007C237.658 979.425 240.239 977.805 242.802 978.389C245.384 978.973 247.004 981.555 246.42 984.136C245.911 986.36 243.933 987.848 241.747 987.848C241.408 987.848 241.05 987.811 240.692 987.735ZM211.446 977.503C209.072 976.354 208.073 973.489 209.222 971.115C210.372 968.741 213.236 967.742 215.61 968.891C218.004 970.022 219.002 972.886 217.853 975.279C217.024 976.994 215.309 977.993 213.538 977.993C212.84 977.993 212.124 977.823 211.446 977.503ZM185.253 961.015C183.18 959.356 182.841 956.341 184.499 954.287C186.139 952.215 189.154 951.875 191.226 953.534C193.299 955.173 193.638 958.188 191.98 960.261C191.038 961.448 189.644 962.051 188.23 962.051C187.194 962.051 186.139 961.712 185.253 961.015ZM163.356 939.118C161.717 937.064 162.037 934.049 164.11 932.391C166.183 930.751 169.198 931.072 170.837 933.145C172.496 935.217 172.156 938.232 170.084 939.872C169.198 940.588 168.143 940.927 167.106 940.927C165.693 940.927 164.299 940.305 163.356 939.118ZM146.868 912.925C145.719 910.532 146.717 907.687 149.092 906.537C151.485 905.388 154.349 906.386 155.498 908.761C156.648 911.135 155.649 913.999 153.275 915.149C152.597 915.488 151.899 915.639 151.202 915.639C149.412 915.639 147.716 914.64 146.887 912.925H146.868ZM136.636 883.698C136.052 881.117 137.653 878.554 140.235 877.97C142.817 877.367 145.379 878.987 145.982 881.569C146.566 884.151 144.946 886.713 142.364 887.297C142.006 887.392 141.648 887.429 141.29 887.429C139.104 887.429 137.145 885.922 136.636 883.698Z" fill="#292D74"/>
<path d="M133.188 852.911C133.188 850.254 135.336 848.125 137.974 848.125C140.631 848.125 142.76 850.254 142.76 852.911C142.76 855.549 140.631 857.698 137.974 857.698C135.336 857.698 133.188 855.549 133.188 852.911Z" fill="#292D74"/>
<path d="M140.235 827.857C137.653 827.273 136.052 824.71 136.636 822.128C137.22 819.547 139.783 817.926 142.364 818.51C144.946 819.113 146.548 821.676 145.963 824.258C145.474 826.481 143.495 827.97 141.309 827.97C140.951 827.97 140.593 827.932 140.235 827.857ZM149.092 799.289C146.698 798.14 145.7 795.276 146.849 792.901C147.999 790.508 150.863 789.509 153.256 790.659C155.63 791.808 156.629 794.673 155.48 797.047C154.651 798.762 152.955 799.761 151.164 799.761C150.467 799.761 149.751 799.61 149.092 799.289ZM164.11 773.417C162.037 771.777 161.698 768.762 163.356 766.689C164.996 764.617 168.011 764.277 170.084 765.936C172.156 767.594 172.496 770.609 170.837 772.663C169.895 773.85 168.501 774.472 167.087 774.472C166.032 774.472 164.977 774.133 164.11 773.417ZM184.48 751.539C182.841 749.466 183.18 746.451 185.234 744.793C187.307 743.153 190.322 743.493 191.961 745.547C193.62 747.619 193.28 750.634 191.208 752.274C190.341 752.99 189.286 753.329 188.23 753.329C186.817 753.329 185.423 752.707 184.48 751.539ZM209.204 734.693C208.054 732.318 209.053 729.454 211.446 728.304C213.82 727.155 216.685 728.154 217.834 730.528C218.983 732.921 217.985 735.786 215.61 736.935C214.932 737.255 214.216 737.406 213.519 737.406C211.747 737.406 210.033 736.407 209.204 734.693ZM237.055 723.801C236.471 721.219 238.091 718.656 240.673 718.072C243.254 717.488 245.817 719.109 246.401 721.69C246.986 724.253 245.365 726.835 242.783 727.419C242.425 727.494 242.086 727.532 241.728 727.532C239.542 727.532 237.564 726.024 237.055 723.801Z" fill="#292D74"/>
<path d="M591.989 719.443C591.989 716.786 594.137 714.656 596.775 714.656C599.432 714.656 601.562 716.786 601.562 719.443C601.562 722.081 599.432 724.229 596.775 724.229C594.137 724.229 591.989 722.081 591.989 719.443ZM562.404 719.443C562.404 716.786 564.552 714.656 567.191 714.656C569.848 714.656 571.996 716.786 571.996 719.443C571.996 722.081 569.848 724.229 567.191 724.229C564.552 724.229 562.404 722.081 562.404 719.443ZM532.838 719.443C532.838 716.786 534.986 714.656 537.624 714.656C540.281 714.656 542.411 716.786 542.411 719.443C542.411 722.081 540.281 724.229 537.624 724.229C534.986 724.229 532.838 722.081 532.838 719.443ZM503.253 719.443C503.253 716.786 505.401 714.656 508.04 714.656C510.697 714.656 512.845 716.786 512.845 719.443C512.845 722.081 510.697 724.229 508.04 724.229C505.401 724.229 503.253 722.081 503.253 719.443ZM473.687 719.443C473.687 716.786 475.835 714.656 478.474 714.656C481.112 714.656 483.26 716.786 483.26 719.443C483.26 722.081 481.112 724.229 478.474 724.229C475.835 724.229 473.687 722.081 473.687 719.443ZM444.102 719.443C444.102 716.786 446.251 714.656 448.908 714.656C451.546 714.656 453.694 716.786 453.694 719.443C453.694 722.081 451.546 724.229 448.908 724.229C446.251 724.229 444.102 722.081 444.102 719.443ZM414.536 719.443C414.536 716.786 416.684 714.656 419.323 714.656C421.961 714.656 424.109 716.786 424.109 719.443C424.109 722.081 421.961 724.229 419.323 724.229C416.684 724.229 414.536 722.081 414.536 719.443ZM384.951 719.443C384.951 716.786 387.1 714.656 389.757 714.656C392.395 714.656 394.543 716.786 394.543 719.443C394.543 722.081 392.395 724.229 389.757 724.229C387.1 724.229 384.951 722.081 384.951 719.443ZM355.385 719.443C355.385 716.786 357.534 714.656 360.172 714.656C362.81 714.656 364.958 716.786 364.958 719.443C364.958 722.081 362.81 724.229 360.172 724.229C357.534 724.229 355.385 722.081 355.385 719.443ZM325.8 719.443C325.8 716.786 327.949 714.656 330.606 714.656C333.244 714.656 335.392 716.786 335.392 719.443C335.392 722.081 333.244 724.229 330.606 724.229C327.949 724.229 325.8 722.081 325.8 719.443ZM296.234 719.443C296.234 716.786 298.383 714.656 301.021 714.656C303.659 714.656 305.807 716.786 305.807 719.443C305.807 722.081 303.659 724.229 301.021 724.229C298.383 724.229 296.234 722.081 296.234 719.443Z" fill="#292D74"/>
<path d="M1092.78 717.029C1092.2 714.447 1093.8 711.884 1096.38 711.3C1098.96 710.697 1101.53 712.318 1102.13 714.899C1102.71 717.481 1101.09 720.044 1098.51 720.628C1098.15 720.722 1097.8 720.76 1097.44 720.76C1095.25 720.76 1093.29 719.252 1092.78 717.029ZM1121.35 708.172C1120.2 705.798 1121.2 702.934 1123.58 701.784C1125.97 700.635 1128.83 701.633 1129.98 704.008C1131.13 706.401 1130.13 709.246 1127.74 710.415C1127.08 710.735 1126.36 710.886 1125.67 710.886C1123.9 710.886 1122.18 709.887 1121.35 708.172ZM1147.22 693.154C1145.57 691.081 1145.91 688.085 1147.98 686.426C1150.03 684.768 1153.05 685.107 1154.71 687.18C1156.34 689.253 1156.01 692.268 1153.95 693.907C1153.07 694.623 1152.01 694.963 1150.96 694.963C1149.56 694.963 1148.17 694.341 1147.22 693.154ZM1169.1 672.783C1167.05 671.125 1166.71 668.11 1168.35 666.056C1170.01 663.983 1173.02 663.644 1175.09 665.283C1177.15 666.942 1177.49 669.957 1175.83 672.03C1174.89 673.217 1173.51 673.82 1172.1 673.82C1171.04 673.82 1169.99 673.481 1169.1 672.783ZM1185.95 648.06C1183.56 646.911 1182.56 644.046 1183.71 641.653C1184.86 639.279 1187.72 638.28 1190.09 639.43C1192.49 640.579 1193.49 643.443 1192.34 645.818C1191.51 647.533 1189.79 648.531 1188.02 648.531C1187.32 648.531 1186.61 648.38 1185.95 648.06ZM1196.84 620.209C1194.26 619.625 1192.64 617.043 1193.22 614.462C1193.81 611.88 1196.39 610.278 1198.95 610.862C1201.53 611.446 1203.15 614.009 1202.57 616.591C1202.06 618.814 1200.08 620.322 1197.9 620.322C1197.56 620.322 1197.2 620.284 1196.84 620.209Z" fill="#292D74"/>
<path d="M1193.24 557.297C1192.63 554.715 1194.26 552.152 1196.84 551.568C1199.42 550.984 1201.98 552.586 1202.57 555.167C1203.15 557.749 1201.55 560.312 1198.97 560.896C1198.61 560.99 1198.25 561.028 1197.89 561.028C1195.71 561.028 1193.73 559.52 1193.24 557.297ZM1183.72 530.105C1182.57 527.712 1183.57 524.847 1185.95 523.698C1188.32 522.548 1191.18 523.566 1192.33 525.94C1193.48 528.315 1192.48 531.179 1190.11 532.328C1189.43 532.649 1188.72 532.818 1188.02 532.818C1186.25 532.818 1184.53 531.82 1183.72 530.105ZM1168.36 505.721C1166.71 503.648 1167.04 500.633 1169.12 498.975C1171.17 497.335 1174.21 497.675 1175.84 499.729C1177.5 501.801 1177.16 504.816 1175.09 506.456C1174.21 507.172 1173.15 507.511 1172.09 507.511C1170.7 507.511 1169.31 506.889 1168.36 505.721ZM1147.97 485.332C1145.92 483.674 1145.58 480.659 1147.22 478.605C1148.88 476.532 1151.89 476.193 1153.95 477.851C1156.02 479.49 1156.36 482.505 1154.7 484.578C1153.76 485.765 1152.37 486.368 1150.97 486.368C1149.92 486.368 1148.86 486.029 1147.97 485.332ZM1123.59 469.974C1121.22 468.825 1120.22 465.96 1121.37 463.586C1122.52 461.193 1125.38 460.194 1127.76 461.344C1130.13 462.493 1131.15 465.357 1130 467.75C1129.17 469.446 1127.45 470.445 1125.68 470.445C1124.97 470.445 1124.27 470.294 1123.59 469.974ZM1096.4 460.458C1093.82 459.874 1092.22 457.311 1092.8 454.729C1093.38 452.148 1095.95 450.527 1098.53 451.111C1101.11 451.714 1102.71 454.277 1102.13 456.859C1101.64 459.082 1099.66 460.59 1097.47 460.59C1097.12 460.59 1096.76 460.533 1096.4 460.458Z" fill="#292D74"/>
<path d="M592 452.466C592 449.828 594.129 447.68 596.786 447.68C599.425 447.68 601.573 449.828 601.573 452.466C601.573 455.104 599.425 457.252 596.786 457.252C594.129 457.252 592 455.104 592 452.466ZM562.415 452.466C562.415 449.828 564.563 447.68 567.202 447.68C569.859 447.68 571.988 449.828 571.988 452.466C571.988 455.104 569.859 457.252 567.202 457.252C564.563 457.252 562.415 455.104 562.415 452.466ZM532.849 452.466C532.849 449.828 534.979 447.68 537.636 447.68C540.274 447.68 542.422 449.828 542.422 452.466C542.422 455.104 540.274 457.252 537.636 457.252C534.979 457.252 532.849 455.104 532.849 452.466ZM503.264 452.466C503.264 449.828 505.412 447.68 508.051 447.68C510.689 447.68 512.837 449.828 512.837 452.466C512.837 455.104 510.689 457.252 508.051 457.252C505.412 457.252 503.264 455.104 503.264 452.466ZM473.698 452.466C473.698 449.828 475.828 447.68 478.485 447.68C481.123 447.68 483.271 449.828 483.271 452.466C483.271 455.104 481.123 457.252 478.485 457.252C475.828 457.252 473.698 455.104 473.698 452.466ZM444.113 452.466C444.113 449.828 446.262 447.68 448.9 447.68C451.538 447.68 453.686 449.828 453.686 452.466C453.686 455.104 451.538 457.252 448.9 457.252C446.262 457.252 444.113 455.104 444.113 452.466ZM414.528 452.466C414.528 449.828 416.677 447.68 419.334 447.68C421.972 447.68 424.12 449.828 424.12 452.466C424.12 455.104 421.972 457.252 419.334 457.252C416.677 457.252 414.528 455.104 414.528 452.466ZM384.962 452.466C384.962 449.828 387.111 447.68 389.749 447.68C392.387 447.68 394.535 449.828 394.535 452.466C394.535 455.104 392.387 457.252 389.749 457.252C387.111 457.252 384.962 455.104 384.962 452.466ZM355.378 452.466C355.378 449.828 357.526 447.68 360.164 447.68C362.821 447.68 364.969 449.828 364.969 452.466C364.969 455.104 362.821 457.252 360.164 457.252C357.526 457.252 355.378 455.104 355.378 452.466ZM325.811 452.466C325.811 449.828 327.96 447.68 330.598 447.68C333.236 447.68 335.384 449.828 335.384 452.466C335.384 455.104 333.236 457.252 330.598 457.252C327.96 457.252 325.811 455.104 325.811 452.466ZM296.227 452.466C296.227 449.828 298.375 447.68 301.032 447.68C303.67 447.68 305.818 449.828 305.818 452.466C305.818 455.104 303.67 457.252 301.032 457.252C298.375 457.252 296.227 455.104 296.227 452.466Z" fill="#292D74"/>
<path d="M947.133 452.411C947.133 449.773 949.262 447.625 951.919 447.625C954.557 447.625 956.706 449.773 956.706 452.411C956.706 455.05 954.557 457.198 951.919 457.198C949.262 457.198 947.133 455.05 947.133 452.411ZM917.548 452.411C917.548 449.773 919.696 447.625 922.334 447.625C924.991 447.625 927.121 449.773 927.121 452.411C927.121 455.05 924.991 457.198 922.334 457.198C919.696 457.198 917.548 455.05 917.548 452.411ZM887.982 452.411C887.982 449.773 890.111 447.625 892.768 447.625C895.407 447.625 897.555 449.773 897.555 452.411C897.555 455.05 895.407 457.198 892.768 457.198C890.111 457.198 887.982 455.05 887.982 452.411ZM858.397 452.411C858.397 449.773 860.545 447.625 863.183 447.625C865.822 447.625 867.97 449.773 867.97 452.411C867.97 455.05 865.822 457.198 863.183 457.198C860.545 457.198 858.397 455.05 858.397 452.411ZM828.831 452.411C828.831 449.773 830.96 447.625 833.617 447.625C836.256 447.625 838.404 449.773 838.404 452.411C838.404 455.05 836.256 457.198 833.617 457.198C830.96 457.198 828.831 455.05 828.831 452.411ZM799.246 452.411C799.246 449.773 801.394 447.625 804.033 447.625C806.671 447.625 808.819 449.773 808.819 452.411C808.819 455.05 806.671 457.198 804.033 457.198C801.394 457.198 799.246 455.05 799.246 452.411ZM769.661 452.411C769.661 449.773 771.809 447.625 774.466 447.625C777.105 447.625 779.253 449.773 779.253 452.411C779.253 455.05 777.105 457.198 774.466 457.198C771.809 457.198 769.661 455.05 769.661 452.411ZM740.095 452.411C740.095 449.773 742.243 447.625 744.882 447.625C747.52 447.625 749.668 449.773 749.668 452.411C749.668 455.05 747.52 457.198 744.882 457.198C742.243 457.198 740.095 455.05 740.095 452.411ZM710.51 452.411C710.51 449.773 712.659 447.625 715.297 447.625C717.954 447.625 720.102 449.773 720.102 452.411C720.102 455.05 717.954 457.198 715.297 457.198C712.659 457.198 710.51 455.05 710.51 452.411ZM680.944 452.411C680.944 449.773 683.092 447.625 685.731 447.625C688.369 447.625 690.517 449.773 690.517 452.411C690.517 455.05 688.369 457.198 685.731 457.198C683.092 457.198 680.944 455.05 680.944 452.411ZM651.359 452.411C651.359 449.773 653.508 447.625 656.165 447.625C658.803 447.625 660.951 449.773 660.951 452.411C660.951 455.05 658.803 457.198 656.165 457.198C653.508 457.198 651.359 455.05 651.359 452.411Z" fill="#292D74"/>
<path d="M947.047 719.818C947.047 717.179 949.176 715.031 951.833 715.031C954.471 715.031 956.62 717.179 956.62 719.818C956.62 722.456 954.471 724.604 951.833 724.604C949.176 724.604 947.047 722.456 947.047 719.818ZM917.462 719.818C917.462 717.179 919.61 715.031 922.248 715.031C924.905 715.031 927.035 717.179 927.035 719.818C927.035 722.456 924.905 724.604 922.248 724.604C919.61 724.604 917.462 722.456 917.462 719.818ZM887.896 719.818C887.896 717.179 890.025 715.031 892.682 715.031C895.321 715.031 897.469 717.179 897.469 719.818C897.469 722.456 895.321 724.604 892.682 724.604C890.025 724.604 887.896 722.456 887.896 719.818ZM858.311 719.818C858.311 717.179 860.459 715.031 863.098 715.031C865.736 715.031 867.884 717.179 867.884 719.818C867.884 722.456 865.736 724.604 863.098 724.604C860.459 724.604 858.311 722.456 858.311 719.818ZM828.745 719.818C828.745 717.179 830.874 715.031 833.531 715.031C836.17 715.031 838.318 717.179 838.318 719.818C838.318 722.456 836.17 724.604 833.531 724.604C830.874 724.604 828.745 722.456 828.745 719.818ZM799.16 719.818C799.16 717.179 801.308 715.031 803.947 715.031C806.585 715.031 808.733 717.179 808.733 719.818C808.733 722.456 806.585 724.604 803.947 724.604C801.308 724.604 799.16 722.456 799.16 719.818ZM769.575 719.818C769.575 717.179 771.724 715.031 774.381 715.031C777.019 715.031 779.167 717.179 779.167 719.818C779.167 722.456 777.019 724.604 774.381 724.604C771.724 724.604 769.575 722.456 769.575 719.818ZM740.009 719.818C740.009 717.179 742.157 715.031 744.796 715.031C747.434 715.031 749.582 717.179 749.582 719.818C749.582 722.456 747.434 724.604 744.796 724.604C742.157 724.604 740.009 722.456 740.009 719.818ZM710.424 719.818C710.424 717.179 712.573 715.031 715.211 715.031C717.868 715.031 720.016 717.179 720.016 719.818C720.016 722.456 717.868 724.604 715.211 724.604C712.573 724.604 710.424 722.456 710.424 719.818ZM680.858 719.818C680.858 717.179 683.007 715.031 685.645 715.031C688.283 715.031 690.431 717.179 690.431 719.818C690.431 722.456 688.283 724.604 685.645 724.604C683.007 724.604 680.858 722.456 680.858 719.818ZM651.273 719.818C651.273 717.179 653.422 715.031 656.079 715.031C658.717 715.031 660.865 717.179 660.865 719.818C660.865 722.456 658.717 724.604 656.079 724.604C653.422 724.604 651.273 722.456 651.273 719.818Z" fill="#292D74"/>
<path d="M1730.28 986.364C1730.28 983.726 1732.41 981.578 1735.07 981.578C1737.71 981.578 1739.85 983.726 1739.85 986.364C1739.85 989.003 1737.71 991.151 1735.07 991.151C1732.41 991.151 1730.28 989.003 1730.28 986.364ZM1700.7 986.364C1700.7 983.726 1702.84 981.578 1705.48 981.578C1708.14 981.578 1710.27 983.726 1710.27 986.364C1710.27 989.003 1708.14 991.151 1705.48 991.151C1702.84 991.151 1700.7 989.003 1700.7 986.364ZM1671.13 986.364C1671.13 983.726 1673.26 981.578 1675.92 981.578C1678.55 981.578 1680.7 983.726 1680.7 986.364C1680.7 989.003 1678.55 991.151 1675.92 991.151C1673.26 991.151 1671.13 989.003 1671.13 986.364ZM1641.55 986.364C1641.55 983.726 1643.69 981.578 1646.33 981.578C1648.97 981.578 1651.12 983.726 1651.12 986.364C1651.12 989.003 1648.97 991.151 1646.33 991.151C1643.69 991.151 1641.55 989.003 1641.55 986.364ZM1611.98 986.364C1611.98 983.726 1614.11 981.578 1616.77 981.578C1619.4 981.578 1621.55 983.726 1621.55 986.364C1621.55 989.003 1619.4 991.151 1616.77 991.151C1614.11 991.151 1611.98 989.003 1611.98 986.364ZM1582.39 986.364C1582.39 983.726 1584.54 981.578 1587.18 981.578C1589.82 981.578 1591.97 983.726 1591.97 986.364C1591.97 989.003 1589.82 991.151 1587.18 991.151C1584.54 991.151 1582.39 989.003 1582.39 986.364ZM1552.81 986.364C1552.81 983.726 1554.96 981.578 1557.61 981.578C1560.25 981.578 1562.4 983.726 1562.4 986.364C1562.4 989.003 1560.25 991.151 1557.61 991.151C1554.96 991.151 1552.81 989.003 1552.81 986.364ZM1523.24 986.364C1523.24 983.726 1525.39 981.578 1528.03 981.578C1530.67 981.578 1532.82 983.726 1532.82 986.364C1532.82 989.003 1530.67 991.151 1528.03 991.151C1525.39 991.151 1523.24 989.003 1523.24 986.364ZM1493.66 986.364C1493.66 983.726 1495.81 981.578 1498.45 981.578C1501.1 981.578 1503.25 983.726 1503.25 986.364C1503.25 989.003 1501.1 991.151 1498.45 991.151C1495.81 991.151 1493.66 989.003 1493.66 986.364ZM1464.09 986.364C1464.09 983.726 1466.24 981.578 1468.88 981.578C1471.52 981.578 1473.67 983.726 1473.67 986.364C1473.67 989.003 1471.52 991.151 1468.88 991.151C1466.24 991.151 1464.09 989.003 1464.09 986.364ZM1434.51 986.364C1434.51 983.726 1436.66 981.578 1439.31 981.578C1441.95 981.578 1444.1 983.726 1444.1 986.364C1444.1 989.003 1441.95 991.151 1439.31 991.151C1436.66 991.151 1434.51 989.003 1434.51 986.364Z" fill="#292D74"/>
<path d="M1051.78 185.505C1051.78 182.867 1053.91 180.719 1056.57 180.719C1059.21 180.719 1061.35 182.867 1061.35 185.505C1061.35 188.143 1059.21 190.291 1056.57 190.291C1053.91 190.291 1051.78 188.143 1051.78 185.505ZM1022.2 185.505C1022.2 182.867 1024.34 180.719 1026.98 180.719C1029.64 180.719 1031.77 182.867 1031.77 185.505C1031.77 188.143 1029.64 190.291 1026.98 190.291C1024.34 190.291 1022.2 188.143 1022.2 185.505ZM992.63 185.505C992.63 182.867 994.76 180.719 997.417 180.719C1000.05 180.719 1002.2 182.867 1002.2 185.505C1002.2 188.143 1000.05 190.291 997.417 190.291C994.76 190.291 992.63 188.143 992.63 185.505ZM963.046 185.505C963.046 182.867 965.194 180.719 967.832 180.719C970.47 180.719 972.618 182.867 972.618 185.505C972.618 188.143 970.47 190.291 967.832 190.291C965.194 190.291 963.046 188.143 963.046 185.505ZM933.479 185.505C933.479 182.867 935.609 180.719 938.266 180.719C940.904 180.719 943.052 182.867 943.052 185.505C943.052 188.143 940.904 190.291 938.266 190.291C935.609 190.291 933.479 188.143 933.479 185.505ZM903.895 185.505C903.895 182.867 906.043 180.719 908.681 180.719C911.319 180.719 913.467 182.867 913.467 185.505C913.467 188.143 911.319 190.291 908.681 190.291C906.043 190.291 903.895 188.143 903.895 185.505ZM874.31 185.505C874.31 182.867 876.458 180.719 879.115 180.719C881.753 180.719 883.901 182.867 883.901 185.505C883.901 188.143 881.753 190.291 879.115 190.291C876.458 190.291 874.31 188.143 874.31 185.505ZM844.744 185.505C844.744 182.867 846.892 180.719 849.53 180.719C852.168 180.719 854.316 182.867 854.316 185.505C854.316 188.143 852.168 190.291 849.53 190.291C846.892 190.291 844.744 188.143 844.744 185.505ZM815.159 185.505C815.159 182.867 817.307 180.719 819.945 180.719C822.602 180.719 824.75 182.867 824.75 185.505C824.75 188.143 822.602 190.291 819.945 190.291C817.307 190.291 815.159 188.143 815.159 185.505ZM785.593 185.505C785.593 182.867 787.741 180.719 790.379 180.719C793.017 180.719 795.165 182.867 795.165 185.505C795.165 188.143 793.017 190.291 790.379 190.291C787.741 190.291 785.593 188.143 785.593 185.505ZM756.008 185.505C756.008 182.867 758.156 180.719 760.813 180.719C763.451 180.719 765.599 182.867 765.599 185.505C765.599 188.143 763.451 190.291 760.813 190.291C758.156 190.291 756.008 188.143 756.008 185.505Z" fill="#292D74"/>
<path d="M1064.2 452.411C1064.2 449.773 1066.35 447.625 1068.99 447.625C1071.63 447.625 1073.78 449.773 1073.78 452.411C1073.78 455.05 1071.63 457.198 1068.99 457.198C1066.35 457.198 1064.2 455.05 1064.2 452.411ZM1034.62 452.411C1034.62 449.773 1036.77 447.625 1039.41 447.625C1042.06 447.625 1044.21 449.773 1044.21 452.411C1044.21 455.05 1042.06 457.198 1039.41 457.198C1036.77 457.198 1034.62 455.05 1034.62 452.411ZM1005.05 452.411C1005.05 449.773 1007.2 447.625 1009.84 447.625C1012.48 447.625 1014.63 449.773 1014.63 452.411C1014.63 455.05 1012.48 457.198 1009.84 457.198C1007.2 457.198 1005.05 455.05 1005.05 452.411ZM975.469 452.411C975.469 449.773 977.617 447.625 980.274 447.625C982.912 447.625 985.06 449.773 985.06 452.411C985.06 455.05 982.912 457.198 980.274 457.198C977.617 457.198 975.469 455.05 975.469 452.411Z" fill="#292D74"/>
<path d="M1064.1 719.818C1064.1 717.179 1066.25 715.031 1068.89 715.031C1071.53 715.031 1073.68 717.179 1073.68 719.818C1073.68 722.456 1071.53 724.604 1068.89 724.604C1066.25 724.604 1064.1 722.456 1064.1 719.818ZM1034.52 719.818C1034.52 717.179 1036.67 715.031 1039.3 715.031C1041.96 715.031 1044.11 717.179 1044.11 719.818C1044.11 722.456 1041.96 724.604 1039.3 724.604C1036.67 724.604 1034.52 722.456 1034.52 719.818ZM1004.95 719.818C1004.95 717.179 1007.1 715.031 1009.74 715.031C1012.38 715.031 1014.52 717.179 1014.52 719.818C1014.52 722.456 1012.38 724.604 1009.74 724.604C1007.1 724.604 1004.95 722.456 1004.95 719.818ZM975.367 719.818C975.367 717.179 977.515 715.031 980.172 715.031C982.811 715.031 984.959 717.179 984.959 719.818C984.959 722.456 982.811 724.604 980.172 724.604C977.515 724.604 975.367 722.456 975.367 719.818Z" fill="#292D74"/>
<path d="M271.391 447.297C268.734 447.297 266.586 449.445 266.586 452.083C266.586 454.721 268.734 456.87 271.391 456.87C274.029 456.87 276.177 454.721 276.177 452.083C276.177 449.445 274.029 447.297 271.391 447.297Z" fill="#292D74"/>
<path d="M271.391 180.719C268.734 180.719 266.586 182.867 266.586 185.505C266.586 188.143 268.734 190.291 271.391 190.291C274.029 190.291 276.177 188.143 276.177 185.505C276.177 182.867 274.029 180.719 271.391 180.719Z" fill="#292D74"/>
<path d="M271.391 714.633C268.734 714.633 266.586 716.781 266.586 719.419C266.586 722.057 268.734 724.206 271.391 724.206C274.029 724.206 276.177 722.057 276.177 719.419C276.177 716.781 274.029 714.633 271.391 714.633Z" fill="#292D74"/>
<path d="M626.422 714.734C623.765 714.734 621.617 716.883 621.617 719.521C621.617 722.159 623.765 724.307 626.422 724.307C629.061 724.307 631.209 722.159 631.209 719.521C631.209 716.883 629.061 714.734 626.422 714.734Z" fill="#292D74"/>
<path d="M626.508 447.633C623.851 447.633 621.703 449.781 621.703 452.419C621.703 455.057 623.851 457.206 626.508 457.206C629.146 457.206 631.295 455.057 631.295 452.419C631.295 449.781 629.146 447.633 626.508 447.633Z" fill="#292D74"/>
<path d="M1200.66 581.156C1198.01 581.156 1195.86 583.304 1195.86 585.943C1195.86 588.581 1198.01 590.729 1200.66 590.729C1203.3 590.729 1205.45 588.581 1205.45 585.943C1205.45 583.304 1203.3 581.156 1200.66 581.156Z" fill="#292D74"/>
<path d="M271.329 981.578C268.672 981.578 266.523 983.726 266.523 986.364C266.523 989.003 268.672 991.151 271.329 991.151C273.967 991.151 276.115 989.003 276.115 986.364C276.115 983.726 273.967 981.578 271.329 981.578Z" fill="#292D74"/>
<path d="M240.692 453.833C238.11 453.249 236.489 450.686 237.074 448.086C237.658 445.523 240.239 443.903 242.802 444.487C245.384 445.071 247.004 447.634 246.42 450.215C245.911 452.439 243.933 453.946 241.747 453.946C241.408 453.946 241.05 453.909 240.692 453.833ZM211.446 443.601C209.072 442.452 208.073 439.587 209.222 437.213C210.372 434.82 213.236 433.821 215.61 434.971C218.004 436.12 219.002 438.984 217.853 441.359C217.024 443.073 215.309 444.072 213.538 444.072C212.84 444.072 212.124 443.921 211.446 443.601ZM185.253 427.113C183.18 425.454 182.841 422.439 184.499 420.367C186.139 418.313 189.154 417.973 191.226 419.613C193.299 421.271 193.638 424.286 191.98 426.359C191.038 427.527 189.644 428.149 188.23 428.149C187.194 428.149 186.139 427.81 185.253 427.113ZM163.356 405.216C161.717 403.143 162.037 400.128 164.11 398.489C166.183 396.831 169.198 397.17 170.837 399.243C172.496 401.315 172.156 404.312 170.084 405.97C169.198 406.667 168.162 407.025 167.106 407.025C165.693 407.025 164.299 406.403 163.356 405.216ZM146.868 379.023C145.719 376.63 146.717 373.766 149.092 372.616C151.485 371.467 154.33 372.465 155.498 374.859C156.629 377.233 155.649 380.097 153.256 381.247C152.578 381.567 151.88 381.718 151.183 381.718C149.393 381.718 147.697 380.719 146.868 379.023ZM136.636 349.796C136.052 347.215 137.653 344.633 140.235 344.049C142.817 343.465 145.379 345.085 145.963 347.667C146.566 350.248 144.946 352.811 142.364 353.395C142.006 353.471 141.648 353.508 141.29 353.508C139.104 353.508 137.145 352.001 136.636 349.796Z" fill="#292D74"/>
<path d="M133.188 318.993C133.188 316.336 135.336 314.188 137.974 314.188C140.631 314.188 142.779 316.336 142.779 318.993C142.779 321.631 140.631 323.779 137.974 323.779C135.336 323.779 133.188 321.631 133.188 318.993Z" fill="#292D74"/>
<path d="M140.241 293.959C137.659 293.356 136.039 290.793 136.642 288.231C137.226 285.649 139.789 284.029 142.37 284.613C144.952 285.197 146.553 287.76 145.969 290.341C145.479 292.565 143.501 294.072 141.315 294.072C140.957 294.072 140.599 294.035 140.241 293.959ZM149.097 265.373C146.723 264.242 145.706 261.378 146.855 258.985C148.004 256.611 150.869 255.612 153.262 256.761C155.636 257.911 156.635 260.775 155.485 263.15C154.656 264.864 152.96 265.863 151.17 265.863C150.473 265.863 149.757 265.712 149.097 265.373ZM164.116 239.519C162.043 237.861 161.704 234.846 163.362 232.792C165.002 230.719 168.017 230.38 170.09 232.038C172.162 233.678 172.502 236.693 170.843 238.766C169.901 239.953 168.507 240.556 167.093 240.556C166.057 240.556 165.002 240.217 164.116 239.519ZM184.486 217.623C182.847 215.569 183.186 212.554 185.24 210.895C187.313 209.237 190.328 209.576 191.986 211.649C193.626 213.722 193.286 216.718 191.232 218.376C190.347 219.093 189.291 219.432 188.236 219.432C186.823 219.432 185.447 218.81 184.486 217.623ZM209.209 200.795C208.06 198.402 209.059 195.557 211.452 194.388C213.826 193.258 216.69 194.256 217.84 196.631C218.989 199.005 217.991 201.869 215.597 203.019C214.938 203.358 214.222 203.509 213.525 203.509C211.753 203.509 210.039 202.51 209.209 200.795ZM237.061 189.903C236.476 187.322 238.097 184.759 240.679 184.175C243.26 183.591 245.823 185.192 246.407 187.774C246.991 190.356 245.371 192.918 242.789 193.503C242.431 193.597 242.073 193.634 241.734 193.634C239.548 193.634 237.569 192.127 237.061 189.903Z" fill="#292D74"/>
<path d="M727.148 185.505C727.148 182.867 729.296 180.719 731.953 180.719C734.591 180.719 736.739 182.867 736.739 185.505C736.739 188.162 734.591 190.291 731.953 190.291C729.296 190.291 727.148 188.162 727.148 185.505ZM698.373 185.505C698.373 182.867 700.521 180.719 703.159 180.719C705.797 180.719 707.946 182.867 707.946 185.505C707.946 188.162 705.797 190.291 703.159 190.291C700.521 190.291 698.373 188.162 698.373 185.505ZM669.598 185.505C669.598 182.867 671.728 180.719 674.385 180.719C677.023 180.719 679.171 182.867 679.171 185.505C679.171 188.162 677.023 190.291 674.385 190.291C671.728 190.291 669.598 188.162 669.598 185.505ZM640.805 185.505C640.805 182.867 642.953 180.719 645.591 180.719C648.248 180.719 650.396 182.867 650.396 185.505C650.396 188.162 648.248 190.291 645.591 190.291C642.953 190.291 640.805 188.162 640.805 185.505ZM612.03 185.505C612.03 182.867 614.178 180.719 616.817 180.719C619.474 180.719 621.603 182.867 621.603 185.505C621.603 188.162 619.474 190.291 616.817 190.291C614.178 190.291 612.03 188.162 612.03 185.505ZM583.256 185.505C583.256 182.867 585.404 180.719 588.042 180.719C590.68 180.719 592.828 182.867 592.828 185.505C592.828 188.162 590.68 190.291 588.042 190.291C585.404 190.291 583.256 188.162 583.256 185.505ZM554.462 185.505C554.462 182.867 556.61 180.719 559.267 180.719C561.906 180.719 564.054 182.867 564.054 185.505C564.054 188.162 561.906 190.291 559.267 190.291C556.61 190.291 554.462 188.162 554.462 185.505ZM525.688 185.505C525.688 182.867 527.836 180.719 530.474 180.719C533.131 180.719 535.26 182.867 535.26 185.505C535.26 188.162 533.131 190.291 530.474 190.291C527.836 190.291 525.688 188.162 525.688 185.505ZM496.913 185.505C496.913 182.867 499.061 180.719 501.699 180.719C504.338 180.719 506.486 182.867 506.486 185.505C506.486 188.162 504.338 190.291 501.699 190.291C499.061 190.291 496.913 188.162 496.913 185.505ZM468.138 185.505C468.138 182.867 470.268 180.719 472.925 180.719C475.563 180.719 477.711 182.867 477.711 185.505C477.711 188.162 475.563 190.291 472.925 190.291C470.268 190.291 468.138 188.162 468.138 185.505ZM439.345 185.505C439.345 182.867 441.493 180.719 444.131 180.719C446.788 180.719 448.937 182.867 448.937 185.505C448.937 188.162 446.788 190.291 444.131 190.291C441.493 190.291 439.345 188.162 439.345 185.505ZM410.57 185.505C410.57 182.867 412.719 180.719 415.357 180.719C418.014 180.719 420.143 182.867 420.143 185.505C420.143 188.162 418.014 190.291 415.357 190.291C412.719 190.291 410.57 188.162 410.57 185.505ZM381.796 185.505C381.796 182.867 383.944 180.719 386.582 180.719C389.22 180.719 391.368 182.867 391.368 185.505C391.368 188.162 389.22 190.291 386.582 190.291C383.944 190.291 381.796 188.162 381.796 185.505ZM353.002 185.505C353.002 182.867 355.151 180.719 357.808 180.719C360.446 180.719 362.594 182.867 362.594 185.505C362.594 188.162 360.446 190.291 357.808 190.291C355.151 190.291 353.002 188.162 353.002 185.505ZM324.228 185.505C324.228 182.867 326.376 180.719 329.014 180.719C331.671 180.719 333.8 182.867 333.8 185.505C333.8 188.162 331.671 190.291 329.014 190.291C326.376 190.291 324.228 188.162 324.228 185.505ZM295.453 185.505C295.453 182.867 297.582 180.719 300.239 180.719C302.878 180.719 305.026 182.867 305.026 185.505C305.026 188.162 302.878 190.291 300.239 190.291C297.582 190.291 295.453 188.162 295.453 185.505Z" fill="#292D74"/>
</g>
<path d="M43.6248 63.6776C39.9262 63.6776 36.9758 62.3083 34.7736 59.5697C32.5997 56.831 31.5127 53.1466 31.5127 48.5163C31.5127 43.886 32.6138 40.2016 34.816 37.4629C37.0182 34.7243 39.9686 33.355 43.6671 33.355C47.3939 33.355 50.3302 34.7243 52.4759 37.4629C54.6499 40.1733 55.7369 43.8578 55.7369 48.5163C55.7369 53.1466 54.6499 56.831 52.4759 59.5697C50.3302 62.3083 47.3798 63.6776 43.6248 63.6776ZM43.6671 58.765C47.7045 58.765 49.7232 55.3488 49.7232 48.5163C49.7232 45.2977 49.2291 42.7849 48.2409 40.978C47.2528 39.1711 45.7282 38.2676 43.6671 38.2676C41.5779 38.2676 40.025 39.1711 39.0086 40.978C38.0205 42.7849 37.5264 45.2977 37.5264 48.5163C37.5264 51.7349 38.0205 54.2477 39.0086 56.0546C40.025 57.8615 41.5779 58.765 43.6671 58.765ZM70.383 63.6776C66.6845 63.6776 63.7341 62.3083 61.5319 59.5697C59.3579 56.831 58.2709 53.1466 58.2709 48.5163C58.2709 43.886 59.372 40.2016 61.5742 37.4629C63.7764 34.7243 66.7268 33.355 70.4254 33.355C74.1522 33.355 77.0885 34.7243 79.2342 37.4629C81.4082 40.1733 82.4951 43.8578 82.4951 48.5163C82.4951 53.1466 81.4082 56.831 79.2342 59.5697C77.0885 62.3083 74.1381 63.6776 70.383 63.6776ZM70.4254 58.765C74.4628 58.765 76.4814 55.3488 76.4814 48.5163C76.4814 45.2977 75.9874 42.7849 74.9992 40.978C74.011 39.1711 72.4864 38.2676 70.4254 38.2676C68.3361 38.2676 66.7833 39.1711 65.7669 40.978C64.7787 42.7849 64.2846 45.2977 64.2846 48.5163C64.2846 51.7349 64.7787 54.2477 65.7669 56.0546C66.7833 57.8615 68.3361 58.765 70.4254 58.765ZM84.653 63C84.7095 61.2778 85.1189 59.6543 85.8812 58.1298C86.6435 56.5769 87.4622 55.3347 88.3375 54.4029C89.2409 53.4712 90.342 52.4972 91.6408 51.4808C92.0925 51.1138 92.7983 50.5773 93.7583 49.8715C94.7464 49.1657 95.4805 48.6151 95.9605 48.2199C96.4404 47.8246 96.9769 47.3305 97.5698 46.7376C98.1909 46.1165 98.6285 45.4953 98.8826 44.8742C99.1367 44.2248 99.2638 43.5472 99.2638 42.8414C99.2638 41.458 98.9108 40.3569 98.205 39.5381C97.4992 38.7193 96.511 38.31 95.2405 38.31C93.7724 38.31 92.6148 38.8182 91.7678 39.8345C90.949 40.8509 90.5255 42.305 90.4973 44.1966H85.0765C85.0765 40.8086 85.9376 38.1688 87.6599 36.2771C89.4103 34.3573 91.9796 33.3973 95.3676 33.3973C98.4168 33.3973 100.817 34.2867 102.567 36.0654C104.346 37.8441 105.235 40.0463 105.235 42.672C105.235 43.9707 105.037 45.1565 104.642 46.2294C104.275 47.274 103.682 48.234 102.864 49.1092C102.045 49.9844 101.311 50.6761 100.661 51.1843C100.012 51.6926 99.1085 52.3278 97.9509 53.0901C94.7888 55.1229 92.8407 56.8451 92.1066 58.2568H105.489V63H84.653Z" fill="white"/>
<path d="M891.395 148.664V77.1641L941.895 77.1641V85.0641L900.395 85.0641V107.664H938.095V115.264H900.395V140.364H943.095V148.664H891.395ZM969.802 148.664V118.364L943.902 77.1641H953.902L974.402 111.164H974.602L995.402 77.1641H1005L978.802 118.564V148.664H969.802ZM1008.69 148.664V77.1641L1059.19 77.1641V85.0641H1017.69V107.664H1055.39V115.264H1017.69V140.364H1060.39V148.664L1008.69 148.664Z" fill="white"/>
<path d="M404.064 407.164C397.731 414.164 389.264 417.664 378.664 417.664C368.064 417.664 359.564 414.164 353.164 407.164C346.831 400.164 343.664 391.231 343.664 380.364C343.664 369.497 346.831 360.564 353.164 353.564C359.564 346.564 368.064 343.064 378.664 343.064C389.264 343.064 397.731 346.564 404.064 353.564C410.464 360.564 413.664 369.497 413.664 380.364C413.664 391.231 410.464 400.164 404.064 407.164ZM359.664 401.564C364.197 407.031 370.531 409.764 378.664 409.764C386.797 409.764 393.131 407.031 397.664 401.564C402.197 396.097 404.464 389.031 404.464 380.364C404.464 371.697 402.197 364.631 397.664 359.164C393.131 353.631 386.797 350.864 378.664 350.864C370.531 350.864 364.197 353.631 359.664 359.164C355.131 364.631 352.864 371.697 352.864 380.364C352.864 389.031 355.131 396.097 359.664 401.564ZM420.391 416.164V344.664H468.891V352.564H429.391V374.864H462.291V382.464H429.391V416.164H420.391Z" fill="white"/>
<path d="M645.2 621.502V613.602H701.8V621.502H678V685.102H669V621.502H645.2ZM706.735 685.102V613.602H715.735V644.002H753.935V613.602H762.935V685.102H753.935V651.302H715.735V685.102H706.735ZM772.364 685.102V613.602H822.864V621.502H781.364V644.102H819.064V651.702H781.364V676.802H824.064V685.102H772.364Z" fill="white"/>
<path d="M1389.4 949.102V877.602H1398.9L1431.5 927.302L1436.7 936.502H1436.9V877.602H1445.3V949.102H1436.1L1403.3 899.302L1398 890.402H1397.8V949.102H1389.4ZM1454.74 949.102V877.602H1505.24V885.502H1463.74V908.102H1501.44V915.702H1463.74V940.802H1506.44V949.102H1454.74ZM1512.95 949.102V877.602H1563.45V885.502H1521.95V908.102H1559.65V915.702H1521.95V940.802H1564.65V949.102H1512.95ZM1571.15 949.102V877.602H1597.15C1607.62 877.602 1615.52 880.835 1620.85 887.302C1626.19 893.768 1628.85 902.535 1628.85 913.602C1628.85 924.602 1626.09 933.268 1620.55 939.602C1615.02 945.935 1606.99 949.102 1596.45 949.102H1571.15ZM1580.15 941.202H1596.15C1611.82 941.202 1619.65 932.002 1619.65 913.602C1619.65 894.802 1612.05 885.402 1596.85 885.402H1580.15V941.202ZM1635.51 949.102V877.602H1644.51V940.802H1682.01V949.102H1635.51ZM1686.88 949.102V877.602L1737.38 877.602V885.502H1695.88V908.102H1733.58V915.702H1695.88V940.802H1738.58V949.102H1686.88Z" fill="white"/>
</g>
<defs>
<clipPath id="clip0_1009_8356">
<rect width="1920" height="1080" fill="white"/>
</clipPath>
</defs>
</svg>
