<svg width="769" height="960" viewBox="0 0 769 960" fill="none" xmlns="http://www.w3.org/2000/svg">
<rect x="0.5" width="768" height="960" rx="31.25" fill="#CED7E9"/>
<path d="M367.102 832.859C531.855 832.859 665.414 699.3 665.414 534.547C665.414 369.793 531.855 236.234 367.102 236.234C202.348 236.234 68.7891 369.793 68.7891 534.547C68.7891 699.3 202.348 832.859 367.102 832.859Z" fill="#FDEFF5"/>
<path d="M362.144 539.117C369.33 539.117 375.156 533.291 375.156 526.105C375.156 518.919 369.33 513.094 362.144 513.094C354.958 513.094 349.133 518.919 349.133 526.105C349.133 533.291 354.958 539.117 362.144 539.117Z" fill="#FF4F6F"/>
<path d="M347.73 582.117C354.916 582.117 360.742 576.291 360.742 569.105C360.742 561.919 354.916 556.094 347.73 556.094C340.544 556.094 334.719 561.919 334.719 569.105C334.719 576.291 340.544 582.117 347.73 582.117Z" fill="#FF4F6F"/>
<path d="M404.668 560.578C411.854 560.578 417.679 554.752 417.679 547.566C417.679 540.38 411.854 534.555 404.668 534.555C397.482 534.555 391.656 540.38 391.656 547.566C391.656 554.752 397.482 560.578 404.668 560.578Z" fill="#FF4F6F"/>
<path d="M349.152 500.054C356.338 500.054 362.164 494.229 362.164 487.043C362.164 479.857 356.338 474.031 349.152 474.031C341.966 474.031 336.141 479.857 336.141 487.043C336.141 494.229 341.966 500.054 349.152 500.054Z" fill="#FF4F6F"/>
<path d="M308.699 565.757C315.885 565.757 321.71 559.932 321.71 552.746C321.71 545.56 315.885 539.734 308.699 539.734C301.513 539.734 295.688 545.56 295.688 552.746C295.688 559.932 301.513 565.757 308.699 565.757Z" fill="#FF4F6F"/>
<path d="M400.308 606.195C407.494 606.195 413.32 600.369 413.32 593.183C413.32 585.997 407.494 580.172 400.308 580.172C393.122 580.172 387.297 585.997 387.297 593.183C387.297 600.369 393.122 606.195 400.308 606.195Z" fill="#FF4F6F"/>
<path d="M393.113 492.164C400.299 492.164 406.124 486.338 406.124 479.152C406.124 471.966 400.299 466.141 393.113 466.141C385.927 466.141 380.102 471.966 380.102 479.152C380.102 486.338 385.927 492.164 393.113 492.164Z" fill="#FF4F6F"/>
<path d="M293.605 524.367C300.791 524.367 306.617 518.541 306.617 511.355C306.617 504.169 300.791 498.344 293.605 498.344C286.419 498.344 280.594 504.169 280.594 511.355C280.594 518.541 286.419 524.367 293.605 524.367Z" fill="#6684BF"/>
<path d="M368.058 630.546C375.244 630.546 381.07 624.721 381.07 617.535C381.07 610.349 375.244 604.523 368.058 604.523C360.872 604.523 355.047 610.349 355.047 617.535C355.047 624.721 360.872 630.546 368.058 630.546Z" fill="#FF4F6F"/>
<path d="M426.355 521.539C433.541 521.539 439.367 515.713 439.367 508.527C439.367 501.341 433.541 495.516 426.355 495.516C419.169 495.516 413.344 501.341 413.344 508.527C413.344 515.713 419.169 521.539 426.355 521.539Z" fill="#FF4F6F"/>
<path d="M306.511 481.867C313.697 481.867 319.523 476.041 319.523 468.855C319.523 461.669 313.697 455.844 306.511 455.844C299.325 455.844 293.5 461.669 293.5 468.855C293.5 476.041 299.325 481.867 306.511 481.867Z" fill="#FF4F6F"/>
<path d="M321.699 631.937C328.885 631.937 334.71 626.112 334.71 618.926C334.71 611.74 328.885 605.914 321.699 605.914C314.513 605.914 308.688 611.74 308.688 618.926C308.688 626.112 314.513 631.937 321.699 631.937Z" fill="#FF4F6F"/>
<path d="M463.074 563.015C470.26 563.015 476.085 557.19 476.085 550.004C476.085 542.818 470.26 536.992 463.074 536.992C455.888 536.992 450.062 542.818 450.062 550.004C450.062 557.19 455.888 563.015 463.074 563.015Z" fill="#FF4F6F"/>
<path d="M345.105 449.874C352.291 449.874 358.117 444.049 358.117 436.863C358.117 429.677 352.291 423.852 345.105 423.852C337.919 423.852 332.094 429.677 332.094 436.863C332.094 444.049 337.919 449.874 345.105 449.874Z" fill="#FF4F6F"/>
<path d="M277.277 605.078C284.463 605.078 290.289 599.252 290.289 592.066C290.289 584.88 284.463 579.055 277.277 579.055C270.091 579.055 264.266 584.88 264.266 592.066C264.266 599.252 270.091 605.078 277.277 605.078Z" fill="#FF4F6F"/>
<path d="M452.097 615.562C459.283 615.562 465.109 609.737 465.109 602.551C465.109 595.365 459.283 589.539 452.097 589.539C444.911 589.539 439.086 595.365 439.086 602.551C439.086 609.737 444.911 615.562 452.097 615.562Z" fill="#FF4F6F"/>
<path d="M399.996 442.523C407.182 442.523 413.007 436.697 413.007 429.511C413.007 422.325 407.182 416.5 399.996 416.5C392.81 416.5 386.984 422.325 386.984 429.511C386.984 436.697 392.81 442.523 399.996 442.523Z" fill="#FF4F6F"/>
<path d="M251.254 554.359C258.44 554.359 264.265 548.533 264.265 541.347C264.265 534.161 258.44 528.336 251.254 528.336C244.068 528.336 238.242 534.161 238.242 541.347C238.242 548.533 244.068 554.359 251.254 554.359Z" fill="#FF4F6F"/>
<path d="M411.91 658.265C419.096 658.265 424.921 652.44 424.921 645.254C424.921 638.068 419.096 632.242 411.91 632.242C404.724 632.242 398.898 638.068 398.898 645.254C398.898 652.44 404.724 658.265 411.91 658.265Z" fill="#FF4F6F"/>
<path d="M455.183 466.64C462.369 466.64 468.195 460.815 468.195 453.629C468.195 446.443 462.369 440.617 455.183 440.617C447.997 440.617 442.172 446.443 442.172 453.629C442.172 460.815 447.997 466.64 455.183 466.64Z" fill="#FF4F6F"/>
<path d="M255.465 492.749C262.651 492.749 268.476 486.924 268.476 479.738C268.476 472.552 262.651 466.727 255.465 466.727C248.279 466.727 242.453 472.552 242.453 479.738C242.453 486.924 248.279 492.749 255.465 492.749Z" fill="#FF4F6F"/>
<path d="M351.035 675.515C358.221 675.515 364.046 669.69 364.046 662.504C364.046 655.318 358.221 649.492 351.035 649.492C343.849 649.492 338.023 655.318 338.023 662.504C338.023 669.69 343.849 675.515 351.035 675.515Z" fill="#FF4F6F"/>
<path d="M492.863 519.249C500.049 519.249 505.874 513.424 505.874 506.238C505.874 499.052 500.049 493.227 492.863 493.227C485.677 493.227 479.852 499.052 479.852 506.238C479.852 513.424 485.677 519.249 492.863 519.249Z" fill="#FF4F6F"/>
<path d="M292.988 438.249C300.174 438.249 305.999 432.424 305.999 425.238C305.999 418.052 300.174 412.227 292.988 412.227C285.802 412.227 279.977 418.052 279.977 425.238C279.977 432.424 285.802 438.249 292.988 438.249Z" fill="#FF4F6F"/>
<path d="M285.699 658.343C292.885 658.343 298.71 652.518 298.71 645.332C298.71 638.146 292.885 632.32 285.699 632.32C278.513 632.32 272.688 638.146 272.688 645.332C272.688 652.518 278.513 658.343 285.699 658.343Z" fill="#FF4F6F"/>
<path d="M499.035 587.945C506.221 587.945 512.046 582.119 512.046 574.933C512.046 567.747 506.221 561.922 499.035 561.922C491.849 561.922 486.023 567.747 486.023 574.933C486.023 582.119 491.849 587.945 499.035 587.945Z" fill="#FF4F6F"/>
<path d="M356.722 408.523C363.908 408.523 369.734 402.697 369.734 395.511C369.734 388.325 363.908 382.5 356.722 382.5C349.536 382.5 343.711 388.325 343.711 395.511C343.711 402.697 349.536 408.523 356.722 408.523Z" fill="#FF4F6F"/>
<path d="M235.097 607.562C242.283 607.562 248.109 601.737 248.109 594.551C248.109 587.364 242.283 581.539 235.097 581.539C227.911 581.539 222.086 587.364 222.086 594.551C222.086 601.737 227.911 607.562 235.097 607.562Z" fill="#FF4F6F"/>
<path d="M467.988 654.015C475.174 654.015 480.999 648.19 480.999 641.004C480.999 633.818 475.174 627.992 467.988 627.992C460.802 627.992 454.977 633.818 454.977 641.004C454.977 648.19 460.802 654.015 467.988 654.015Z" fill="#FF4F6F"/>
<path d="M430.675 415.265C437.862 415.265 443.687 409.44 443.687 402.254C443.687 395.068 437.862 389.242 430.675 389.242C423.489 389.242 417.664 395.068 417.664 402.254C417.664 409.44 423.489 415.265 430.675 415.265Z" fill="#FF4F6F"/>
<path d="M215.879 534.515C223.065 534.515 228.89 528.69 228.89 521.504C228.89 514.318 223.065 508.492 215.879 508.492C208.693 508.492 202.867 514.318 202.867 521.504C202.867 528.69 208.693 534.515 215.879 534.515Z" fill="#FF4F6F"/>
<path d="M404.863 697.695C412.049 697.695 417.874 691.869 417.874 684.683C417.874 677.497 412.049 671.672 404.863 671.672C397.677 671.672 391.852 677.497 391.852 684.683C391.852 691.869 397.677 697.695 404.863 697.695Z" fill="#FF4F6F"/>
<path d="M494.316 460.39C501.502 460.39 507.328 454.565 507.328 447.379C507.328 440.193 501.502 434.367 494.316 434.367C487.13 434.367 481.305 440.193 481.305 447.379C481.305 454.565 487.13 460.39 494.316 460.39Z" fill="#FF4F6F"/>
<path d="M236.847 458.109C244.033 458.109 249.859 452.283 249.859 445.097C249.859 437.911 244.033 432.086 236.847 432.086C229.661 432.086 223.836 437.911 223.836 445.097C223.836 452.283 229.661 458.109 236.847 458.109Z" fill="#FF4F6F"/>
<path d="M324.699 704.234C331.885 704.234 337.71 698.408 337.71 691.222C337.71 684.036 331.885 678.211 324.699 678.211C317.513 678.211 311.688 684.036 311.688 691.222C311.688 698.408 317.513 704.234 324.699 704.234Z" fill="#FF4F6F"/>
<path d="M528.371 534.554C535.557 534.554 541.382 528.729 541.382 521.543C541.382 514.357 535.557 508.531 528.371 508.531C521.185 508.531 515.359 514.357 515.359 521.543C515.359 528.729 521.185 534.554 528.371 534.554Z" fill="#FF4F6F"/>
<path d="M295.722 399.945C302.908 399.945 308.734 394.119 308.734 386.933C308.734 379.747 302.908 373.922 295.722 373.922C288.536 373.922 282.711 379.747 282.711 386.933C282.711 394.119 288.536 399.945 295.722 399.945Z" fill="#FF4F6F"/>
<path d="M248.871 668.335C256.057 668.335 261.882 662.51 261.882 655.324C261.882 648.138 256.057 642.312 248.871 642.312C241.685 642.312 235.859 648.138 235.859 655.324C235.859 662.51 241.685 668.335 248.871 668.335Z" fill="#FF4F6F"/>
<path d="M520.511 619.218C527.697 619.218 533.523 613.393 533.523 606.207C533.523 599.021 527.697 593.195 520.511 593.195C513.325 593.195 507.5 599.021 507.5 606.207C507.5 613.393 513.325 619.218 520.511 619.218Z" fill="#FF4F6F"/>
<path d="M379.019 378.062C386.205 378.062 392.031 372.237 392.031 365.05C392.031 357.864 386.205 352.039 379.019 352.039C371.833 352.039 366.008 357.864 366.008 365.05C366.008 372.237 371.833 378.062 379.019 378.062Z" fill="#FF4F6F"/>
<path d="M199.121 596.671C206.307 596.671 212.132 590.846 212.132 583.66C212.132 576.474 206.307 570.648 199.121 570.648C191.935 570.648 186.109 576.474 186.109 583.66C186.109 590.846 191.935 596.671 199.121 596.671Z" fill="#FF4F6F"/>
<path d="M469.629 691.382C476.815 691.382 482.64 685.557 482.64 678.371C482.64 671.185 476.815 665.359 469.629 665.359C462.443 665.359 456.617 671.185 456.617 678.371C456.617 685.557 462.443 691.382 469.629 691.382Z" fill="#FF4F6F"/>
<path d="M465.324 401.414C472.51 401.414 478.335 395.588 478.335 388.402C478.335 381.216 472.51 375.391 465.324 375.391C458.138 375.391 452.312 381.216 452.312 388.402C452.312 395.588 458.138 401.414 465.324 401.414Z" fill="#FF4F6F"/>
<path d="M191.386 506.554C198.572 506.554 204.398 500.729 204.398 493.543C204.398 486.357 198.572 480.531 191.386 480.531C184.2 480.531 178.375 486.357 178.375 493.543C178.375 500.729 184.2 506.554 191.386 506.554Z" fill="#FF4F6F"/>
<path d="M386.621 730.023C393.807 730.023 399.632 724.197 399.632 717.011C399.632 709.825 393.807 704 386.621 704C379.435 704 373.609 709.825 373.609 717.011C373.609 724.197 379.435 730.023 386.621 730.023Z" fill="#FF4F6F"/>
<path d="M530.769 466.843C537.955 466.843 543.781 461.018 543.781 453.832C543.781 446.646 537.955 440.82 530.769 440.82C523.583 440.82 517.758 446.646 517.758 453.832C517.758 461.018 523.583 466.843 530.769 466.843Z" fill="#FF4F6F"/>
<path d="M230.801 421.664C237.987 421.664 243.812 415.838 243.812 408.652C243.812 401.466 237.987 395.641 230.801 395.641C223.614 395.641 217.789 401.466 217.789 408.652C217.789 415.838 223.614 421.664 230.801 421.664Z" fill="#FF4F6F"/>
<path d="M292.41 722.031C299.596 722.031 305.421 716.205 305.421 709.019C305.421 701.833 299.596 696.008 292.41 696.008C285.224 696.008 279.398 701.833 279.398 709.019C279.398 716.205 285.224 722.031 292.41 722.031Z" fill="#FF4F6F"/>
<path d="M555.879 559.078C563.065 559.078 568.89 553.252 568.89 546.066C568.89 538.88 563.065 533.055 555.879 533.055C548.693 533.055 542.867 538.88 542.867 546.066C542.867 553.252 548.693 559.078 555.879 559.078Z" fill="#FF4F6F"/>
<path d="M309.66 365.874C316.846 365.874 322.671 360.049 322.671 352.863C322.671 345.677 316.846 339.852 309.66 339.852C302.474 339.852 296.648 345.677 296.648 352.863C296.648 360.049 302.474 365.874 309.66 365.874Z" fill="#FF4F6F"/>
<path d="M212.105 666.578C219.291 666.578 225.117 660.752 225.117 653.566C225.117 646.38 219.291 640.555 212.105 640.555C204.919 640.555 199.094 646.38 199.094 653.566C199.094 660.752 204.919 666.578 212.105 666.578Z" fill="#FF4F6F"/>
<path d="M531.09 654.453C538.276 654.453 544.101 648.627 544.101 641.441C544.101 634.255 538.276 628.43 531.09 628.43C523.904 628.43 518.078 634.255 518.078 641.441C518.078 648.627 523.904 654.453 531.09 654.453Z" fill="#FF4F6F"/>
<path d="M408.715 356.273C415.901 356.273 421.726 350.447 421.726 343.261C421.726 336.075 415.901 330.25 408.715 330.25C401.529 330.25 395.703 336.075 395.703 343.261C395.703 350.447 401.529 356.273 408.715 356.273Z" fill="#6684BF"/>
<path d="M168.66 575.984C175.846 575.984 181.671 570.158 181.671 562.972C181.671 555.786 175.846 549.961 168.66 549.961C161.474 549.961 155.648 555.786 155.648 562.972C155.648 570.158 161.474 575.984 168.66 575.984Z" fill="#FF4F6F"/>
<path d="M460.308 727.038C467.494 727.038 473.32 721.213 473.32 714.027C473.32 706.841 467.494 701.016 460.308 701.016C453.122 701.016 447.297 706.841 447.297 714.027C447.297 721.213 453.122 727.038 460.308 727.038Z" fill="#6684BF"/>
<path d="M502.066 398.265C509.252 398.265 515.078 392.44 515.078 385.254C515.078 378.068 509.252 372.242 502.066 372.242C494.88 372.242 489.055 378.068 489.055 385.254C489.055 392.44 494.88 398.265 502.066 398.265Z" fill="#FF4F6F"/>
<path d="M176.105 472.953C183.291 472.953 189.117 467.127 189.117 459.941C189.117 452.755 183.291 446.93 176.105 446.93C168.919 446.93 163.094 452.755 163.094 459.941C163.094 467.127 168.919 472.953 176.105 472.953Z" fill="#FF4F6F"/>
<path d="M360.09 755.695C367.276 755.695 373.101 749.869 373.101 742.683C373.101 735.497 367.276 729.672 360.09 729.672C352.904 729.672 347.078 735.497 347.078 742.683C347.078 749.869 352.904 755.695 360.09 755.695Z" fill="#FF4F6F"/>
<path d="M563.933 483.242C571.119 483.242 576.945 477.416 576.945 470.23C576.945 463.044 571.119 457.219 563.933 457.219C556.747 457.219 550.922 463.044 550.922 470.23C550.922 477.416 556.747 483.242 563.933 483.242Z" fill="#FF4F6F"/>
<path d="M235.16 384.882C242.346 384.882 248.171 379.057 248.171 371.871C248.171 364.685 242.346 358.859 235.16 358.859C227.974 358.859 222.148 364.685 222.148 371.871C222.148 379.057 227.974 384.882 235.16 384.882Z" fill="#FF4F6F"/>
<path d="M256.222 730.289C263.408 730.289 269.234 724.463 269.234 717.277C269.234 710.091 263.408 704.266 256.222 704.266C249.036 704.266 243.211 710.091 243.211 717.277C243.211 724.463 249.036 730.289 256.222 730.289Z" fill="#FF4F6F"/>
<path d="M575.863 590.398C583.049 590.398 588.874 584.572 588.874 577.386C588.874 570.2 583.049 564.375 575.863 564.375C568.677 564.375 562.852 570.2 562.852 577.386C562.852 584.572 568.677 590.398 575.863 590.398Z" fill="#FF4F6F"/>
<path d="M332.496 336.468C339.682 336.468 345.507 330.643 345.507 323.457C345.507 316.271 339.682 310.445 332.496 310.445C325.31 310.445 319.484 316.271 319.484 323.457C319.484 330.643 325.31 336.468 332.496 336.468Z" fill="#FF4F6F"/>
<path d="M176.668 654.914C183.854 654.914 189.679 649.088 189.679 641.902C189.679 634.716 183.854 628.891 176.668 628.891C169.482 628.891 163.656 634.716 163.656 641.902C163.656 649.088 169.482 654.914 176.668 654.914Z" fill="#FF4F6F"/>
<path d="M532.043 691.812C539.229 691.812 545.054 685.987 545.054 678.8C545.054 671.614 539.229 665.789 532.043 665.789C524.857 665.789 519.031 671.614 519.031 678.8C519.031 685.987 524.857 691.812 532.043 691.812Z" fill="#FF4F6F"/>
<path d="M443.613 342.804C450.799 342.804 456.624 336.979 456.624 329.793C456.624 322.607 450.799 316.781 443.613 316.781C436.427 316.781 430.602 322.607 430.602 329.793C430.602 336.979 436.427 342.804 443.613 342.804Z" fill="#FF4F6F"/>
<path d="M144.168 547.562C151.354 547.562 157.179 541.737 157.179 534.551C157.179 527.364 151.354 521.539 144.168 521.539C136.982 521.539 131.156 527.364 131.156 534.551C131.156 541.737 136.982 547.562 144.168 547.562Z" fill="#6684BF"/>
<path d="M441.73 759.765C448.916 759.765 454.742 753.94 454.742 746.754C454.742 739.568 448.916 733.742 441.73 733.742C434.544 733.742 428.719 739.568 428.719 746.754C428.719 753.94 434.544 759.765 441.73 759.765Z" fill="#FF4F6F"/>
<path d="M539.215 404.679C546.401 404.679 552.226 398.854 552.226 391.668C552.226 384.482 546.401 378.656 539.215 378.656C532.029 378.656 526.203 384.482 526.203 391.668C526.203 398.854 532.029 404.679 539.215 404.679Z" fill="#FF4F6F"/>
<path d="M169.605 435.734C176.791 435.734 182.617 429.908 182.617 422.722C182.617 415.536 176.791 409.711 169.605 409.711C162.419 409.711 156.594 415.536 156.594 422.722C156.594 429.908 162.419 435.734 169.605 435.734Z" fill="#FF4F6F"/>
<path d="M327.168 774.406C334.354 774.406 340.179 768.58 340.179 761.394C340.179 754.208 334.354 748.383 327.168 748.383C319.982 748.383 314.156 754.208 314.156 761.394C314.156 768.58 319.982 774.406 327.168 774.406Z" fill="#FF4F6F"/>
<path d="M592.754 507.992C599.94 507.992 605.765 502.166 605.765 494.98C605.765 487.794 599.94 481.969 592.754 481.969C585.568 481.969 579.742 487.794 579.742 494.98C579.742 502.166 585.568 507.992 592.754 507.992Z" fill="#FF4F6F"/>
<path d="M248.761 349.312C255.947 349.312 261.773 343.487 261.773 336.301C261.773 329.114 255.947 323.289 248.761 323.289C241.575 323.289 235.75 329.114 235.75 336.301C235.75 343.487 241.575 349.312 248.761 349.312Z" fill="#FF4F6F"/>
<path d="M218.051 729.476C225.237 729.476 231.062 723.651 231.062 716.465C231.062 709.279 225.237 703.453 218.051 703.453C210.864 703.453 205.039 709.279 205.039 716.465C205.039 723.651 210.864 729.476 218.051 729.476Z" fill="#FF4F6F"/>
<path d="M588.019 626.718C595.205 626.718 601.031 620.893 601.031 613.707C601.031 606.521 595.205 600.695 588.019 600.695C580.833 600.695 575.008 606.521 575.008 613.707C575.008 620.893 580.833 626.718 588.019 626.718Z" fill="#FF4F6F"/>
<path d="M362.621 312.687C369.807 312.687 375.632 306.862 375.632 299.676C375.632 292.489 369.807 286.664 362.621 286.664C355.435 286.664 349.609 292.489 349.609 299.676C349.609 306.862 355.435 312.687 362.621 312.687Z" fill="#FF4F6F"/>
<path d="M144.004 634.531C151.19 634.531 157.015 628.705 157.015 621.519C157.015 614.333 151.19 608.508 144.004 608.508C136.818 608.508 130.992 614.333 130.992 621.519C130.992 628.705 136.818 634.531 144.004 634.531Z" fill="#FF4F6F"/>
<path d="M523.949 729.562C531.135 729.562 536.96 723.737 536.96 716.551C536.96 709.365 531.135 703.539 523.949 703.539C516.763 703.539 510.938 709.365 510.938 716.551C510.938 723.737 516.763 729.562 523.949 729.562Z" fill="#FF4F6F"/>
<path d="M482.051 337.64C489.237 337.64 495.062 331.815 495.062 324.629C495.062 317.443 489.237 311.617 482.051 311.617C474.865 311.617 469.039 317.443 469.039 324.629C469.039 331.815 474.865 337.64 482.051 337.64Z" fill="#FF4F6F"/>
<path d="M126.254 513.054C133.44 513.054 139.265 507.229 139.265 500.043C139.265 492.857 133.44 487.031 126.254 487.031C119.068 487.031 113.242 492.857 113.242 500.043C113.242 507.229 119.068 513.054 126.254 513.054Z" fill="#FF4F6F"/>
<path d="M415.293 788.367C422.479 788.367 428.304 782.541 428.304 775.355C428.304 768.169 422.479 762.344 415.293 762.344C408.107 762.344 402.281 768.169 402.281 775.355C402.281 782.541 408.107 788.367 415.293 788.367Z" fill="#FF4F6F"/>
<path d="M575.207 419.937C582.393 419.937 588.218 414.112 588.218 406.926C588.218 399.739 582.393 393.914 575.207 393.914C568.021 393.914 562.195 399.739 562.195 406.926C562.195 414.112 568.021 419.937 575.207 419.937Z" fill="#FF4F6F"/>
<path d="M171.8 396.546C178.987 396.546 184.812 390.721 184.812 383.535C184.812 376.349 178.987 370.523 171.8 370.523C164.614 370.523 158.789 376.349 158.789 383.535C158.789 390.721 164.614 396.546 171.8 396.546Z" fill="#FF4F6F"/>
<path d="M289.472 785.664C296.658 785.664 302.484 779.838 302.484 772.652C302.484 765.466 296.658 759.641 289.472 759.641C282.286 759.641 276.461 765.466 276.461 772.652C276.461 779.838 282.286 785.664 289.472 785.664Z" fill="#FF4F6F"/>
<path d="M616.176 539.742C623.362 539.742 629.187 533.916 629.187 526.73C629.187 519.544 623.362 513.719 616.176 513.719C608.99 513.719 603.164 519.544 603.164 526.73C603.164 533.916 608.99 539.742 616.176 539.742Z" fill="#FF4F6F"/>
<path d="M270.738 316.398C277.924 316.398 283.749 310.572 283.749 303.386C283.749 296.2 277.924 290.375 270.738 290.375C263.552 290.375 257.727 296.2 257.727 303.386C257.727 310.572 263.552 316.398 270.738 316.398Z" fill="#FF4F6F"/>
<path d="M179.496 719.968C186.682 719.968 192.507 714.143 192.507 706.957C192.507 699.771 186.682 693.945 179.496 693.945C172.31 693.945 166.484 699.771 166.484 706.957C166.484 714.143 172.31 719.968 179.496 719.968Z" fill="#FF4F6F"/>
<path d="M592.175 666.312C599.362 666.312 605.187 660.487 605.187 653.3C605.187 646.114 599.362 640.289 592.175 640.289C584.989 640.289 579.164 646.114 579.164 653.3C579.164 660.487 584.989 666.312 592.175 666.312Z" fill="#FF4F6F"/>
<path d="M388.636 281.749C395.822 281.749 401.648 275.924 401.648 268.738C401.648 261.552 395.822 255.727 388.636 255.727C381.45 255.727 375.625 261.552 375.625 268.738C375.625 275.924 381.45 281.749 388.636 281.749Z" fill="#FF4F6F"/>
<path d="M115.324 606.539C122.51 606.539 128.335 600.713 128.335 593.527C128.335 586.341 122.51 580.516 115.324 580.516C108.138 580.516 102.312 586.341 102.312 593.527C102.312 600.713 108.138 606.539 115.324 606.539Z" fill="#FF4F6F"/>
<path d="M507.261 766.171C514.447 766.171 520.273 760.346 520.273 753.16C520.273 745.974 514.447 740.148 507.261 740.148C500.075 740.148 494.25 745.974 494.25 753.16C494.25 760.346 500.075 766.171 507.261 766.171Z" fill="#FF4F6F"/>
<path d="M522.254 340.906C529.44 340.906 535.265 335.08 535.265 327.894C535.265 320.708 529.44 314.883 522.254 314.883C515.068 314.883 509.242 320.708 509.242 327.894C509.242 335.08 515.068 340.906 522.254 340.906Z" fill="#FF4F6F"/>
<path d="M115.621 474.015C122.807 474.015 128.632 468.19 128.632 461.004C128.632 453.818 122.807 447.992 115.621 447.992C108.435 447.992 102.609 453.818 102.609 461.004C102.609 468.19 108.435 474.015 115.621 474.015Z" fill="#FF4F6F"/>
<path d="M382.074 811.726C389.26 811.726 395.085 805.901 395.085 798.715C395.085 791.529 389.26 785.703 382.074 785.703C374.888 785.703 369.062 791.529 369.062 798.715C369.062 805.901 374.888 811.726 382.074 811.726Z" fill="#FF4F6F"/>
<path d="M608.566 443.32C615.752 443.32 621.578 437.494 621.578 430.308C621.578 423.122 615.752 417.297 608.566 417.297C601.38 417.297 595.555 423.122 595.555 430.308C595.555 437.494 601.38 443.32 608.566 443.32Z" fill="#FF4F6F"/>
<path d="M182.465 357.078C189.651 357.078 195.476 351.252 195.476 344.066C195.476 336.88 189.651 331.055 182.465 331.055C175.279 331.055 169.453 336.88 169.453 344.066C169.453 351.252 175.279 357.078 182.465 357.078Z" fill="#FF4F6F"/>
<path d="M248.574 789.117C255.76 789.117 261.585 783.291 261.585 776.105C261.585 768.919 255.76 763.094 248.574 763.094C241.388 763.094 235.562 768.919 235.562 776.105C235.562 783.291 241.388 789.117 248.574 789.117Z" fill="#FF4F6F"/>
<path d="M633.355 577.156C640.541 577.156 646.367 571.33 646.367 564.144C646.367 556.958 640.541 551.133 633.355 551.133C626.169 551.133 620.344 556.958 620.344 564.144C620.344 571.33 626.169 577.156 633.355 577.156Z" fill="#6684BF"/>
<path d="M300.168 287.406C307.354 287.406 313.179 281.58 313.179 274.394C313.179 267.208 307.354 261.383 300.168 261.383C292.982 261.383 287.156 267.208 287.156 274.394C287.156 281.58 292.982 287.406 300.168 287.406Z" fill="#FF4F6F"/>
<path d="M142.136 702.101C149.322 702.101 155.148 696.276 155.148 689.09C155.148 681.904 149.322 676.078 142.136 676.078C134.95 676.078 129.125 681.904 129.125 689.09C129.125 696.276 134.95 702.101 142.136 702.101Z" fill="#FF4F6F"/>
<path d="M497.853 136.275C495.529 136.275 494.031 135.085 493.989 132.747H496.215C496.299 134.049 496.873 134.455 497.839 134.455C498.511 134.455 499.295 134.119 499.295 133.153C499.295 132.201 498.595 131.991 497.321 131.683C495.571 131.263 494.241 130.605 494.241 128.533C494.241 126.447 495.753 125.425 497.755 125.425C499.715 125.425 501.129 126.461 501.185 128.547H499.029C498.959 127.609 498.427 127.161 497.671 127.161C496.943 127.161 496.369 127.525 496.369 128.281C496.369 129.135 497.111 129.359 498.553 129.695C500.093 130.045 501.451 130.773 501.451 132.929C501.451 135.127 500.023 136.275 497.853 136.275ZM506.916 136.219C504.522 136.219 503.486 134.889 503.486 132.453V125.607H505.754V132.495C505.754 133.671 506.034 134.371 506.888 134.371C507.672 134.371 507.98 133.643 507.98 132.453V125.607H510.276V132.453C510.276 134.875 509.254 136.219 506.916 136.219ZM516.176 136.261C513.712 136.261 512.298 134.245 512.298 130.857C512.298 127.469 513.726 125.425 516.232 125.425C518.304 125.425 519.536 126.797 519.676 129.079H517.394C517.38 127.903 516.862 127.315 516.19 127.315C515.042 127.315 514.622 128.547 514.622 130.857C514.622 133.181 515.126 134.371 516.162 134.371C516.946 134.371 517.422 133.797 517.464 132.369H519.732C519.606 134.861 518.5 136.261 516.176 136.261ZM525.281 136.261C522.817 136.261 521.403 134.245 521.403 130.857C521.403 127.469 522.831 125.425 525.337 125.425C527.409 125.425 528.641 126.797 528.781 129.079H526.499C526.485 127.903 525.967 127.315 525.295 127.315C524.147 127.315 523.727 128.547 523.727 130.857C523.727 133.181 524.231 134.371 525.267 134.371C526.051 134.371 526.527 133.797 526.569 132.369H528.837C528.711 134.861 527.605 136.261 525.281 136.261ZM537.635 134.063V136.023H530.747V125.607H537.579V127.511H533.015V129.709H536.963V131.515H533.015V134.063H537.635ZM543.38 136.275C541.056 136.275 539.558 135.085 539.516 132.747H541.742C541.826 134.049 542.4 134.455 543.366 134.455C544.038 134.455 544.822 134.119 544.822 133.153C544.822 132.201 544.122 131.991 542.848 131.683C541.098 131.263 539.768 130.605 539.768 128.533C539.768 126.447 541.28 125.425 543.282 125.425C545.242 125.425 546.656 126.461 546.712 128.547H544.556C544.486 127.609 543.954 127.161 543.198 127.161C542.47 127.161 541.896 127.525 541.896 128.281C541.896 129.135 542.638 129.359 544.08 129.695C545.62 130.045 546.978 130.773 546.978 132.929C546.978 135.127 545.55 136.275 543.38 136.275ZM552.486 136.275C550.162 136.275 548.664 135.085 548.622 132.747H550.848C550.932 134.049 551.506 134.455 552.472 134.455C553.144 134.455 553.928 134.119 553.928 133.153C553.928 132.201 553.228 131.991 551.954 131.683C550.204 131.263 548.874 130.605 548.874 128.533C548.874 126.447 550.386 125.425 552.388 125.425C554.348 125.425 555.762 126.461 555.818 128.547H553.662C553.592 127.609 553.06 127.161 552.304 127.161C551.576 127.161 551.002 127.525 551.002 128.281C551.002 129.135 551.744 129.359 553.186 129.695C554.726 130.045 556.084 130.773 556.084 132.929C556.084 135.127 554.656 136.275 552.486 136.275ZM564.265 131.767H560.331V136.023H558.063V125.607H564.881V127.539H560.331V129.919H564.265V131.767ZM570.655 136.219C568.261 136.219 567.225 134.889 567.225 132.453V125.607H569.493V132.495C569.493 133.671 569.773 134.371 570.627 134.371C571.411 134.371 571.719 133.643 571.719 132.453V125.607H574.015V132.453C574.015 134.875 572.993 136.219 570.655 136.219ZM576.638 136.023V125.607H578.92V134.063H582.98V136.023H576.638ZM497.783 150.275C495.291 150.275 494.073 148.231 494.073 144.857C494.073 141.469 495.277 139.425 497.783 139.425C500.275 139.425 501.465 141.469 501.465 144.857C501.465 148.231 500.261 150.275 497.783 150.275ZM497.797 148.399C498.847 148.399 499.141 147.125 499.141 144.857C499.141 142.561 498.847 141.273 497.797 141.273C496.747 141.273 496.397 142.561 496.397 144.857C496.397 147.125 496.747 148.399 497.797 148.399ZM503.444 150.023V139.607H505.852L507.126 142.925C507.56 144.045 508.33 146.397 508.33 146.397H508.4C508.4 146.397 508.232 143.905 508.232 142.617V139.607H510.318V150.023H507.91L506.65 146.761C506.216 145.627 505.446 143.247 505.446 143.247H505.376C505.376 143.247 505.544 145.753 505.544 147.041V150.023H503.444ZM516.176 150.261C513.712 150.261 512.298 148.245 512.298 144.857C512.298 141.469 513.726 139.425 516.232 139.425C518.304 139.425 519.536 140.797 519.676 143.079H517.394C517.38 141.903 516.862 141.315 516.19 141.315C515.042 141.315 514.622 142.547 514.622 144.857C514.622 147.181 515.126 148.371 516.162 148.371C516.946 148.371 517.422 147.797 517.464 146.369H519.732C519.606 148.861 518.5 150.261 516.176 150.261ZM525.099 150.275C522.607 150.275 521.389 148.231 521.389 144.857C521.389 141.469 522.593 139.425 525.099 139.425C527.591 139.425 528.781 141.469 528.781 144.857C528.781 148.231 527.577 150.275 525.099 150.275ZM525.113 148.399C526.163 148.399 526.457 147.125 526.457 144.857C526.457 142.561 526.163 141.273 525.113 141.273C524.063 141.273 523.713 142.561 523.713 144.857C523.713 147.125 524.063 148.399 525.113 148.399ZM531.111 150.023V139.607H533.393V148.063H537.453V150.023H531.111ZM543.31 150.275C540.818 150.275 539.6 148.231 539.6 144.857C539.6 141.469 540.804 139.425 543.31 139.425C545.802 139.425 546.992 141.469 546.992 144.857C546.992 148.231 545.788 150.275 543.31 150.275ZM543.324 148.399C544.374 148.399 544.668 147.125 544.668 144.857C544.668 142.561 544.374 141.273 543.324 141.273C542.274 141.273 541.924 142.561 541.924 144.857C541.924 147.125 542.274 148.399 543.324 148.399ZM552.206 150.261C549.826 150.261 548.538 148.329 548.538 144.857C548.538 141.497 550.092 139.425 552.416 139.425C554.488 139.425 555.734 140.615 555.944 142.785H553.704C553.62 141.777 553.214 141.301 552.5 141.301C551.436 141.301 550.834 142.435 550.834 144.857C550.834 147.321 551.338 148.399 552.542 148.399C553.34 148.399 553.942 147.601 553.942 146.495V146.173H552.85V144.451H556.07V150.023H554.446L554.39 148.777H554.362C553.984 149.771 553.116 150.261 552.206 150.261ZM562.627 150.023H560.359V146.159L557.783 139.607H560.219L560.737 141.133C561.059 142.085 561.465 144.297 561.465 144.297H561.549C561.549 144.297 561.955 142.085 562.305 141.133L562.865 139.607H565.189L562.627 146.089V150.023ZM576.274 150.023V139.607H579.592C581.818 139.607 583.414 141.301 583.414 144.885C583.414 148.385 582.028 150.023 579.452 150.023H576.274ZM578.542 148.105H579.214C580.53 148.105 581.104 147.321 581.104 144.885C581.104 142.449 580.446 141.525 579.214 141.525H578.542V148.105ZM590.265 150.023L588.613 146.187H587.689V150.023H585.379V139.607H588.851C591.245 139.607 592.421 140.979 592.421 142.953C592.421 144.283 591.861 145.277 590.825 145.795L592.757 150.023H590.265ZM587.689 141.539V144.381H588.795C589.733 144.381 590.139 143.891 590.139 142.953C590.139 142.029 589.733 141.539 588.767 141.539H587.689ZM597.971 150.219C595.577 150.219 594.541 148.889 594.541 146.453V139.607H596.809V146.495C596.809 147.671 597.089 148.371 597.943 148.371C598.727 148.371 599.035 147.643 599.035 146.453V139.607H601.331V146.453C601.331 148.875 600.309 150.219 597.971 150.219ZM606.838 150.261C604.458 150.261 603.17 148.329 603.17 144.857C603.17 141.497 604.724 139.425 607.048 139.425C609.12 139.425 610.366 140.615 610.576 142.785H608.336C608.252 141.777 607.846 141.301 607.132 141.301C606.068 141.301 605.466 142.435 605.466 144.857C605.466 147.321 605.97 148.399 607.174 148.399C607.972 148.399 608.574 147.601 608.574 146.495V146.173H607.482V144.451H610.702V150.023H609.078L609.022 148.777H608.994C608.616 149.771 607.748 150.261 606.838 150.261ZM497.419 164.023V157.205H495.165V155.679C496.649 155.637 497.643 155.021 497.895 153.537H499.715V164.023H497.419ZM505.502 159.473V156.995H508.218V159.473H505.502ZM505.502 164.023V161.545H508.218V164.023H505.502ZM519.48 164.023H512.466C512.466 162.749 512.788 161.923 513.362 161.167C514.132 160.145 515.574 159.123 516.232 158.465C516.764 157.933 517.128 157.359 517.128 156.659C517.128 155.819 516.764 155.273 515.966 155.273C515.658 155.273 515.322 155.371 515.084 155.693C514.818 156.043 514.748 156.533 514.734 157.149H512.578C512.578 156.155 512.732 155.427 513.11 154.783C513.614 153.943 514.636 153.425 516.064 153.425C518.304 153.425 519.452 154.755 519.452 156.589C519.452 157.737 519.046 158.493 518.5 159.123C517.632 160.131 516.036 161.139 515.448 162.119C515.448 162.133 519.48 162.119 519.48 162.119V164.023ZM528.739 158.857C528.739 162.231 527.577 164.275 525.099 164.275C522.607 164.275 521.431 162.231 521.431 158.857C521.431 155.469 522.593 153.425 525.099 153.425C527.591 153.425 528.739 155.469 528.739 158.857ZM523.741 158.857C523.741 161.125 524.063 162.399 525.113 162.399C526.163 162.399 526.429 161.125 526.429 158.857C526.429 156.561 526.163 155.273 525.113 155.273C524.063 155.273 523.741 156.561 523.741 158.857Z" fill="#344899"/>
<path d="M500.527 901.744H496.593V906H494.325V895.584H501.143V897.516H496.593V899.896H500.527V901.744ZM508.33 906L507.896 903.9H505.67L505.236 906H503.052L505.53 895.584H508.204L510.696 906H508.33ZM506.23 901.212L506.006 902.262H507.56L507.35 901.212C507.07 899.812 506.832 897.628 506.832 897.628H506.79C506.79 897.628 506.482 899.994 506.23 901.212ZM518.808 906H513.152V904.194H514.832V897.39H513.152V895.584H518.808V897.39H517.114V904.194H518.808V906ZM522.005 906V895.584H524.287V904.04H528.347V906H522.005ZM537.635 904.04V906H530.747V895.584H537.579V897.488H533.015V899.686H536.963V901.492H533.015V904.04H537.635ZM539.852 906V895.584H543.17C545.396 895.584 546.992 897.278 546.992 900.862C546.992 904.362 545.606 906 543.03 906H539.852ZM542.12 904.082H542.792C544.108 904.082 544.682 903.298 544.682 900.862C544.682 898.426 544.024 897.502 542.792 897.502H542.12V904.082ZM497.783 920.252C495.291 920.252 494.073 918.208 494.073 914.834C494.073 911.446 495.277 909.402 497.783 909.402C500.275 909.402 501.465 911.446 501.465 914.834C501.465 918.208 500.261 920.252 497.783 920.252ZM497.797 918.376C498.847 918.376 499.141 917.102 499.141 914.834C499.141 912.538 498.847 911.25 497.797 911.25C496.747 911.25 496.397 912.538 496.397 914.834C496.397 917.102 496.747 918.376 497.797 918.376ZM503.444 920V909.584H505.852L507.126 912.902C507.56 914.022 508.33 916.374 508.33 916.374H508.4C508.4 916.374 508.232 913.882 508.232 912.594V909.584H510.318V920H507.91L506.65 916.738C506.216 915.604 505.446 913.224 505.446 913.224H505.376C505.376 913.224 505.544 915.73 505.544 917.018V920H503.444ZM516.176 920.238C513.712 920.238 512.298 918.222 512.298 914.834C512.298 911.446 513.726 909.402 516.232 909.402C518.304 909.402 519.536 910.774 519.676 913.056H517.394C517.38 911.88 516.862 911.292 516.19 911.292C515.042 911.292 514.622 912.524 514.622 914.834C514.622 917.158 515.126 918.348 516.162 918.348C516.946 918.348 517.422 917.774 517.464 916.346H519.732C519.606 918.838 518.5 920.238 516.176 920.238ZM525.099 920.252C522.607 920.252 521.389 918.208 521.389 914.834C521.389 911.446 522.593 909.402 525.099 909.402C527.591 909.402 528.781 911.446 528.781 914.834C528.781 918.208 527.577 920.252 525.099 920.252ZM525.113 918.376C526.163 918.376 526.457 917.102 526.457 914.834C526.457 912.538 526.163 911.25 525.113 911.25C524.063 911.25 523.713 912.538 523.713 914.834C523.713 917.102 524.063 918.376 525.113 918.376ZM531.111 920V909.584H533.393V918.04H537.453V920H531.111ZM543.31 920.252C540.818 920.252 539.6 918.208 539.6 914.834C539.6 911.446 540.804 909.402 543.31 909.402C545.802 909.402 546.992 911.446 546.992 914.834C546.992 918.208 545.788 920.252 543.31 920.252ZM543.324 918.376C544.374 918.376 544.668 917.102 544.668 914.834C544.668 912.538 544.374 911.25 543.324 911.25C542.274 911.25 541.924 912.538 541.924 914.834C541.924 917.102 542.274 918.376 543.324 918.376ZM552.206 920.238C549.826 920.238 548.538 918.306 548.538 914.834C548.538 911.474 550.092 909.402 552.416 909.402C554.488 909.402 555.734 910.592 555.944 912.762H553.704C553.62 911.754 553.214 911.278 552.5 911.278C551.436 911.278 550.834 912.412 550.834 914.834C550.834 917.298 551.338 918.376 552.542 918.376C553.34 918.376 553.942 917.578 553.942 916.472V916.15H552.85V914.428H556.07V920H554.446L554.39 918.754H554.362C553.984 919.748 553.116 920.238 552.206 920.238ZM562.627 920H560.359V916.136L557.783 909.584H560.219L560.737 911.11C561.059 912.062 561.465 914.274 561.465 914.274H561.549C561.549 914.274 561.955 912.062 562.305 911.11L562.865 909.584H565.189L562.627 916.066V920ZM576.274 920V909.584H579.592C581.818 909.584 583.414 911.278 583.414 914.862C583.414 918.362 582.028 920 579.452 920H576.274ZM578.542 918.082H579.214C580.53 918.082 581.104 917.298 581.104 914.862C581.104 912.426 580.446 911.502 579.214 911.502H578.542V918.082ZM590.265 920L588.613 916.164H587.689V920H585.379V909.584H588.851C591.245 909.584 592.421 910.956 592.421 912.93C592.421 914.26 591.861 915.254 590.825 915.772L592.757 920H590.265ZM587.689 911.516V914.358H588.795C589.733 914.358 590.139 913.868 590.139 912.93C590.139 912.006 589.733 911.516 588.767 911.516H587.689ZM597.971 920.196C595.577 920.196 594.541 918.866 594.541 916.43V909.584H596.809V916.472C596.809 917.648 597.089 918.348 597.943 918.348C598.727 918.348 599.035 917.62 599.035 916.43V909.584H601.331V916.43C601.331 918.852 600.309 920.196 597.971 920.196ZM606.838 920.238C604.458 920.238 603.17 918.306 603.17 914.834C603.17 911.474 604.724 909.402 607.048 909.402C609.12 909.402 610.366 910.592 610.576 912.762H608.336C608.252 911.754 607.846 911.278 607.132 911.278C606.068 911.278 605.466 912.412 605.466 914.834C605.466 917.298 605.97 918.376 607.174 918.376C607.972 918.376 608.574 917.578 608.574 916.472V916.15H607.482V914.428H610.702V920H609.078L609.022 918.754H608.994C608.616 919.748 607.748 920.238 606.838 920.238ZM497.419 934V927.182H495.165V925.656C496.649 925.614 497.643 924.998 497.895 923.514H499.715V934H497.419ZM503.192 927.07C503.192 924.9 504.69 923.402 506.762 923.402C507.84 923.402 508.75 923.752 509.38 924.41C510.206 925.278 510.556 926.734 510.556 928.75C510.556 930.528 510.346 932.082 509.618 933.02C508.988 933.832 508.12 934.238 506.846 934.238C504.886 934.238 503.654 933.034 503.444 931.522H505.628C505.74 931.998 506.104 932.516 506.79 932.516C507.378 932.516 507.798 932.32 508.078 931.718C508.302 931.256 508.358 930.486 508.4 929.506H508.372C507.882 930.262 507.336 930.724 506.426 930.724C504.606 930.724 503.192 929.394 503.192 927.07ZM508.274 927.07C508.274 925.852 507.714 925.11 506.832 925.11C505.908 925.11 505.362 925.88 505.362 927.056C505.362 928.288 505.88 929.03 506.832 929.03C507.7 929.03 508.274 928.33 508.274 927.07ZM514.608 929.45V926.972H517.324V929.45H514.608ZM514.608 934V931.522H517.324V934H514.608ZM528.585 934H521.571C521.571 932.726 521.893 931.9 522.467 931.144C523.237 930.122 524.679 929.1 525.337 928.442C525.869 927.91 526.233 927.336 526.233 926.636C526.233 925.796 525.869 925.25 525.071 925.25C524.763 925.25 524.427 925.348 524.189 925.67C523.923 926.02 523.853 926.51 523.839 927.126H521.683C521.683 926.132 521.837 925.404 522.215 924.76C522.719 923.92 523.741 923.402 525.169 923.402C527.409 923.402 528.557 924.732 528.557 926.566C528.557 927.714 528.151 928.47 527.605 929.1C526.737 930.108 525.141 931.116 524.553 932.096C524.553 932.11 528.585 932.096 528.585 932.096V934ZM537.845 928.834C537.845 932.208 536.683 934.252 534.205 934.252C531.713 934.252 530.537 932.208 530.537 928.834C530.537 925.446 531.699 923.402 534.205 923.402C536.697 923.402 537.845 925.446 537.845 928.834ZM532.847 928.834C532.847 931.102 533.169 932.376 534.219 932.376C535.269 932.376 535.535 931.102 535.535 928.834C535.535 926.538 535.269 925.25 534.219 925.25C533.169 925.25 532.847 926.538 532.847 928.834Z" fill="#DA2F62"/>
<path d="M409.258 347.081C411.594 347.081 413.488 345.188 413.488 342.852C413.488 340.516 411.594 338.622 409.258 338.622C406.922 338.622 405.028 340.516 405.028 342.852C405.028 345.188 406.922 347.081 409.258 347.081ZM494.723 173.699V256.45H496.309V173.699H494.723ZM494.723 256.45C494.723 258.436 494.146 261.396 492.566 263.834C491.011 266.233 488.491 268.13 484.495 268.13V269.716C489.102 269.716 492.092 267.481 493.897 264.696C495.677 261.95 496.309 258.674 496.309 256.45H494.723ZM484.495 268.13H418.945V269.716H484.495V268.13ZM418.945 268.13C415.755 268.13 413.098 268.973 411.243 270.857C409.391 272.739 408.465 275.534 408.465 279.171H410.051C410.051 275.785 410.911 273.455 412.374 271.97C413.834 270.486 416.02 269.716 418.945 269.716V268.13ZM408.465 279.171V342.852H410.051V279.171H408.465Z" fill="#6684BF"/>
<path d="M442.328 747.153C444.664 747.153 446.558 749.047 446.558 751.383C446.558 753.719 444.664 755.613 442.328 755.613C439.992 755.613 438.098 753.719 438.098 751.383C438.098 749.047 439.992 747.153 442.328 747.153ZM495.48 807.504C495.48 806.209 495.087 804.753 494.089 803.632C493.108 802.53 491.461 801.659 488.755 801.659V800.073C491.829 800.073 493.94 801.079 495.274 802.577C496.589 804.054 497.066 805.918 497.066 807.504H495.48ZM488.755 801.659H450.905V800.073H488.755V801.659ZM450.905 801.659C447.205 801.659 444.789 800.79 443.327 799.149C441.881 797.525 441.535 795.321 441.535 793.058H443.121C443.121 795.221 443.467 796.921 444.512 798.094C445.541 799.25 447.413 800.073 450.905 800.073V801.659ZM441.535 793.058V751.383H443.121V793.058H441.535ZM495.48 879.714V853.594H497.066V879.714H495.48ZM495.48 853.594V807.504H497.066V853.594H495.48Z" fill="#FF4F6F"/>
<path d="M39.6211 46.36C37.2051 46.36 35.2211 45.528 33.6691 43.864C32.1331 42.184 31.3651 40.056 31.3651 37.48C31.3651 34.888 32.1171 32.744 33.6211 31.048C35.1251 29.352 37.1171 28.504 39.5971 28.504C41.6451 28.504 43.2851 29.048 44.5171 30.136C45.7651 31.208 46.4851 32.592 46.6771 34.288H43.2211C43.0611 33.408 42.6611 32.712 42.0211 32.2C41.3971 31.688 40.5891 31.432 39.5971 31.432C38.0771 31.432 36.9171 31.992 36.1171 33.112C35.3171 34.232 34.9171 35.688 34.9171 37.48C34.9171 39.256 35.3411 40.704 36.1891 41.824C37.0531 42.944 38.1971 43.504 39.6211 43.504C40.6291 43.504 41.4691 43.232 42.1411 42.688C42.8131 42.128 43.2051 41.392 43.3171 40.48H46.7251C46.6291 42.096 45.9971 43.448 44.8291 44.536C43.5331 45.752 41.7971 46.36 39.6211 46.36ZM48.2993 46V28.84H51.5633V46H48.2993ZM53.7123 46V33.688H56.9763V46H53.7123ZM53.7123 31.768V28.84H56.9763V31.768H53.7123ZM62.2714 33.688V35.368H62.3434C63.1914 34.024 64.4074 33.352 65.9914 33.352C67.2554 33.352 68.2794 33.784 69.0634 34.648C69.8474 35.496 70.2394 36.6 70.2394 37.96V46H66.9754V38.44C66.9754 37.768 66.7834 37.224 66.3994 36.808C66.0314 36.392 65.5114 36.184 64.8394 36.184C64.1194 36.184 63.5194 36.448 63.0394 36.976C62.5754 37.504 62.3434 38.184 62.3434 39.016V46H59.0794V33.688H62.2714ZM72.2513 46V33.688H75.5153V46H72.2513ZM72.2513 31.768V28.84H75.5153V31.768H72.2513ZM83.3305 46.36C81.4265 46.36 79.8985 45.744 78.7465 44.512C77.5945 43.28 77.0185 41.728 77.0185 39.856C77.0185 37.984 77.5785 36.432 78.6985 35.2C79.8345 33.968 81.3225 33.352 83.1625 33.352C84.7145 33.352 85.9785 33.76 86.9545 34.576C87.9305 35.392 88.5305 36.488 88.7545 37.864H85.5625C85.4505 37.304 85.1945 36.848 84.7945 36.496C84.3945 36.144 83.8985 35.968 83.3065 35.968C82.3465 35.968 81.6105 36.312 81.0985 37C80.5865 37.688 80.3305 38.64 80.3305 39.856C80.3305 41.056 80.5785 42.008 81.0745 42.712C81.5705 43.4 82.2985 43.744 83.2585 43.744C84.6825 43.744 85.5065 43.048 85.7305 41.656H88.8745C88.7625 43.016 88.2105 44.144 87.2185 45.04C86.2265 45.92 84.9305 46.36 83.3305 46.36ZM98.2846 46C98.1246 45.792 97.9966 45.336 97.9006 44.632H97.8526C97.5006 45.16 97.0526 45.568 96.5086 45.856C95.9646 46.144 95.2046 46.288 94.2286 46.288C92.9326 46.288 91.8926 45.96 91.1086 45.304C90.3246 44.648 89.9326 43.72 89.9326 42.52C89.9326 41.272 90.3646 40.36 91.2286 39.784C92.0926 39.192 93.3086 38.784 94.8766 38.56C96.0286 38.4 96.8126 38.24 97.2286 38.08C97.6446 37.904 97.8526 37.6 97.8526 37.168C97.8526 36.72 97.6766 36.368 97.3246 36.112C96.9726 35.84 96.4606 35.704 95.7886 35.704C94.3006 35.704 93.5086 36.28 93.4126 37.432H90.5086C90.5566 36.264 91.0286 35.296 91.9246 34.528C92.8206 33.76 94.1166 33.376 95.8126 33.376C99.2686 33.376 100.997 34.888 100.997 37.912V44.176C100.997 45.104 101.141 45.672 101.429 45.88V46H98.2846ZM95.0206 44.008C95.9166 44.008 96.6206 43.776 97.1326 43.312C97.6606 42.848 97.9246 42.296 97.9246 41.656V39.808C97.5726 40.016 96.8126 40.256 95.6446 40.528C94.7166 40.736 94.0606 40.976 93.6766 41.248C93.2926 41.504 93.1006 41.904 93.1006 42.448C93.1006 43.488 93.7406 44.008 95.0206 44.008ZM103.12 46V28.84H106.384V46H103.12ZM111.94 31.768V28.84H125.74V31.768H120.58V46H117.1V31.768H111.94ZM128.692 33.688V35.656H128.764C129.148 34.936 129.572 34.408 130.036 34.072C130.5 33.72 131.084 33.544 131.788 33.544C132.124 33.544 132.38 33.576 132.556 33.64V36.496H132.484C131.38 36.384 130.492 36.624 129.82 37.216C129.148 37.808 128.812 38.736 128.812 40V46H125.548V33.688H128.692ZM133.962 46V33.688H137.226V46H133.962ZM133.962 31.768V28.84H137.226V31.768H133.962ZM147.081 46C146.921 45.792 146.793 45.336 146.697 44.632H146.649C146.297 45.16 145.849 45.568 145.305 45.856C144.761 46.144 144.001 46.288 143.025 46.288C141.729 46.288 140.689 45.96 139.905 45.304C139.121 44.648 138.729 43.72 138.729 42.52C138.729 41.272 139.161 40.36 140.025 39.784C140.889 39.192 142.105 38.784 143.673 38.56C144.825 38.4 145.609 38.24 146.025 38.08C146.441 37.904 146.649 37.6 146.649 37.168C146.649 36.72 146.473 36.368 146.121 36.112C145.769 35.84 145.257 35.704 144.585 35.704C143.097 35.704 142.305 36.28 142.209 37.432H139.305C139.353 36.264 139.825 35.296 140.721 34.528C141.617 33.76 142.913 33.376 144.609 33.376C148.065 33.376 149.793 34.888 149.793 37.912V44.176C149.793 45.104 149.937 45.672 150.225 45.88V46H147.081ZM143.817 44.008C144.713 44.008 145.417 43.776 145.929 43.312C146.457 42.848 146.721 42.296 146.721 41.656V39.808C146.369 40.016 145.609 40.256 144.441 40.528C143.513 40.736 142.857 40.976 142.473 41.248C142.089 41.504 141.897 41.904 141.897 42.448C141.897 43.488 142.537 44.008 143.817 44.008ZM151.917 46V28.84H155.181V46H151.917ZM162.321 46.36C160.561 46.36 159.185 45.976 158.193 45.208C157.201 44.424 156.657 43.36 156.561 42.016H159.585C159.793 43.376 160.689 44.056 162.273 44.056C162.993 44.056 163.545 43.928 163.929 43.672C164.329 43.416 164.529 43.072 164.529 42.64C164.529 42.48 164.497 42.336 164.433 42.208C164.385 42.08 164.289 41.968 164.145 41.872C164.017 41.76 163.897 41.672 163.785 41.608C163.689 41.544 163.513 41.48 163.257 41.416C163.001 41.352 162.801 41.304 162.657 41.272C162.529 41.24 162.297 41.2 161.961 41.152C161.641 41.088 161.417 41.04 161.289 41.008C160.617 40.88 160.065 40.752 159.633 40.624C159.217 40.48 158.777 40.28 158.313 40.024C157.849 39.752 157.497 39.392 157.257 38.944C157.033 38.48 156.921 37.928 156.921 37.288C156.921 36.008 157.385 35.032 158.313 34.36C159.257 33.688 160.465 33.352 161.937 33.352C163.521 33.352 164.761 33.72 165.657 34.456C166.569 35.176 167.089 36.168 167.217 37.432H164.265C164.137 36.232 163.345 35.632 161.889 35.632C161.233 35.632 160.713 35.752 160.329 35.992C159.961 36.232 159.777 36.568 159.777 37C159.777 37.144 159.801 37.28 159.849 37.408C159.913 37.52 160.009 37.624 160.137 37.72C160.281 37.8 160.417 37.872 160.545 37.936C160.673 37.984 160.857 38.04 161.097 38.104C161.337 38.152 161.545 38.2 161.721 38.248C161.897 38.28 162.137 38.328 162.441 38.392C162.745 38.44 162.985 38.48 163.161 38.512C163.673 38.624 164.089 38.728 164.409 38.824C164.745 38.904 165.129 39.048 165.561 39.256C165.993 39.448 166.329 39.672 166.569 39.928C166.825 40.168 167.041 40.504 167.217 40.936C167.409 41.352 167.505 41.84 167.505 42.4C167.505 43.616 167.025 44.584 166.065 45.304C165.121 46.008 163.873 46.36 162.321 46.36ZM172.289 35.944V33.688H173.969V32.584C173.969 31.144 174.465 30.12 175.457 29.512C176.449 28.904 177.777 28.688 179.441 28.864V31.384C178.625 31.352 178.049 31.424 177.713 31.6C177.393 31.776 177.233 32.168 177.233 32.776V33.688H179.441V35.944H177.233V46H173.969V35.944H172.289ZM191.043 44.512C189.843 45.744 188.299 46.36 186.411 46.36C184.523 46.36 182.979 45.744 181.779 44.512C180.579 43.264 179.979 41.712 179.979 39.856C179.979 38 180.579 36.456 181.779 35.224C182.979 33.976 184.523 33.352 186.411 33.352C188.299 33.352 189.843 33.976 191.043 35.224C192.243 36.456 192.843 38 192.843 39.856C192.843 41.712 192.243 43.264 191.043 44.512ZM186.411 43.864C187.387 43.864 188.147 43.504 188.691 42.784C189.251 42.048 189.531 41.072 189.531 39.856C189.531 38.64 189.251 37.664 188.691 36.928C188.147 36.192 187.387 35.824 186.411 35.824C185.419 35.824 184.651 36.192 184.107 36.928C183.563 37.648 183.291 38.624 183.291 39.856C183.291 41.072 183.563 42.048 184.107 42.784C184.651 43.504 185.419 43.864 186.411 43.864ZM197.505 33.688V35.656H197.577C197.961 34.936 198.385 34.408 198.849 34.072C199.313 33.72 199.897 33.544 200.601 33.544C200.937 33.544 201.193 33.576 201.369 33.64V36.496H201.297C200.193 36.384 199.305 36.624 198.633 37.216C197.961 37.808 197.625 38.736 197.625 40V46H194.361V33.688H197.505ZM32.1091 75V57.84H44.7331V60.768H35.5891V64.608H43.6051V67.464H35.5891V72.096H44.8051V75H32.1091ZM45.8404 75L50.3284 68.472L46.3204 62.688H50.0404L52.2244 66.216H52.2724L54.3364 62.688H57.7204L53.9044 68.448L58.2964 75H54.4084L52.1284 70.92H52.0804L49.4164 75H45.8404ZM59.5482 79.032V62.688H62.6922V64.224H62.7642C63.6762 62.976 64.8842 62.352 66.3882 62.352C68.0042 62.352 69.3002 62.952 70.2762 64.152C71.2522 65.352 71.7402 66.92 71.7402 68.856C71.7402 70.84 71.2522 72.424 70.2762 73.608C69.3002 74.776 68.0122 75.36 66.4122 75.36C64.8122 75.36 63.6282 74.776 62.8602 73.608H62.8122V79.032H59.5482ZM65.7162 72.648C66.5482 72.648 67.2042 72.32 67.6842 71.664C68.1802 71.008 68.4282 70.104 68.4282 68.952C68.4282 67.72 68.1962 66.752 67.7322 66.048C67.2682 65.344 66.5562 64.992 65.5962 64.992C64.6202 64.992 63.9002 65.36 63.4362 66.096C62.9722 66.816 62.7402 67.768 62.7402 68.952C62.7402 70.088 62.9962 70.992 63.5082 71.664C64.0202 72.32 64.7562 72.648 65.7162 72.648ZM79.0431 75.36C77.0591 75.36 75.4991 74.752 74.3631 73.536C73.2271 72.304 72.6591 70.736 72.6591 68.832C72.6591 66.992 73.2271 65.456 74.3631 64.224C75.4991 62.976 76.9551 62.352 78.7311 62.352C80.6671 62.352 82.1631 63.024 83.2191 64.368C84.2751 65.712 84.8031 67.512 84.8031 69.768H75.8751C76.0031 70.744 76.3311 71.504 76.8591 72.048C77.3871 72.576 78.1071 72.84 79.0191 72.84C80.2191 72.84 81.0111 72.336 81.3951 71.328H84.6111C84.3711 72.48 83.7631 73.44 82.7871 74.208C81.8111 74.976 80.5631 75.36 79.0431 75.36ZM78.7791 64.872C77.1951 64.872 76.2431 65.752 75.9231 67.512H81.3951C81.3471 66.728 81.0831 66.096 80.6031 65.616C80.1231 65.12 79.5151 64.872 78.7791 64.872ZM89.4578 62.688V64.656H89.5298C89.9138 63.936 90.3378 63.408 90.8018 63.072C91.2658 62.72 91.8498 62.544 92.5538 62.544C92.8898 62.544 93.1458 62.576 93.3218 62.64V65.496H93.2498C92.1458 65.384 91.2578 65.624 90.5858 66.216C89.9138 66.808 89.5778 67.736 89.5778 69V75H86.3138V62.688H89.4578ZM94.7279 75V62.688H97.9919V75H94.7279ZM94.7279 60.768V57.84H97.9919V60.768H94.7279ZM100.095 75V62.688H103.239V64.344H103.311C104.095 63.016 105.287 62.352 106.887 62.352C107.655 62.352 108.335 62.552 108.927 62.952C109.535 63.336 109.991 63.856 110.295 64.512H110.343C111.239 63.072 112.471 62.352 114.039 62.352C115.319 62.352 116.311 62.744 117.015 63.528C117.735 64.296 118.095 65.36 118.095 66.72V75H114.831V67.272C114.831 65.864 114.199 65.16 112.935 65.16C112.247 65.16 111.703 65.408 111.303 65.904C110.919 66.384 110.727 67.032 110.727 67.848V75H107.463V67.272C107.463 65.864 106.831 65.16 105.567 65.16C104.911 65.16 104.375 65.408 103.959 65.904C103.559 66.384 103.359 67.032 103.359 67.848V75H100.095ZM125.895 75.36C123.911 75.36 122.351 74.752 121.215 73.536C120.079 72.304 119.511 70.736 119.511 68.832C119.511 66.992 120.079 65.456 121.215 64.224C122.351 62.976 123.807 62.352 125.583 62.352C127.519 62.352 129.015 63.024 130.071 64.368C131.127 65.712 131.655 67.512 131.655 69.768H122.727C122.855 70.744 123.183 71.504 123.711 72.048C124.239 72.576 124.959 72.84 125.871 72.84C127.071 72.84 127.863 72.336 128.247 71.328H131.463C131.223 72.48 130.615 73.44 129.639 74.208C128.663 74.976 127.415 75.36 125.895 75.36ZM125.631 64.872C124.047 64.872 123.095 65.752 122.775 67.512H128.247C128.199 66.728 127.935 66.096 127.455 65.616C126.975 65.12 126.367 64.872 125.631 64.872ZM136.357 62.688V64.368H136.429C137.277 63.024 138.493 62.352 140.077 62.352C141.341 62.352 142.365 62.784 143.149 63.648C143.933 64.496 144.325 65.6 144.325 66.96V75H141.061V67.44C141.061 66.768 140.869 66.224 140.485 65.808C140.117 65.392 139.597 65.184 138.925 65.184C138.205 65.184 137.605 65.448 137.125 65.976C136.661 66.504 136.429 67.184 136.429 68.016V75H133.165V62.688H136.357ZM145.383 64.848V62.688H147.087V58.848H150.279V62.688H152.391V64.848H150.279V71.376C150.279 72.192 150.687 72.6 151.503 72.6L152.463 72.576V74.976C151.967 75.008 151.287 75.024 150.423 75.024C149.479 75.024 148.687 74.8 148.047 74.352C147.407 73.888 147.087 73.128 147.087 72.072V64.848H145.383ZM161.941 75C161.781 74.792 161.653 74.336 161.557 73.632H161.509C161.157 74.16 160.709 74.568 160.165 74.856C159.621 75.144 158.861 75.288 157.885 75.288C156.589 75.288 155.549 74.96 154.765 74.304C153.981 73.648 153.589 72.72 153.589 71.52C153.589 70.272 154.021 69.36 154.885 68.784C155.749 68.192 156.965 67.784 158.533 67.56C159.685 67.4 160.469 67.24 160.885 67.08C161.301 66.904 161.509 66.6 161.509 66.168C161.509 65.72 161.333 65.368 160.981 65.112C160.629 64.84 160.117 64.704 159.445 64.704C157.957 64.704 157.165 65.28 157.069 66.432H154.165C154.213 65.264 154.685 64.296 155.581 63.528C156.477 62.76 157.773 62.376 159.469 62.376C162.925 62.376 164.653 63.888 164.653 66.912V73.176C164.653 74.104 164.797 74.672 165.085 74.88V75H161.941ZM158.677 73.008C159.573 73.008 160.277 72.776 160.789 72.312C161.317 71.848 161.581 71.296 161.581 70.656V68.808C161.229 69.016 160.469 69.256 159.301 69.528C158.373 69.736 157.717 69.976 157.333 70.248C156.949 70.504 156.757 70.904 156.757 71.448C156.757 72.488 157.397 73.008 158.677 73.008ZM166.776 75V57.84H170.04V75H166.776ZM45.6451 101.888C44.1411 103.552 42.1411 104.384 39.6451 104.384C37.1491 104.384 35.1411 103.552 33.6211 101.888C32.1171 100.208 31.3651 98.064 31.3651 95.456C31.3651 92.848 32.1171 90.704 33.6211 89.024C35.1411 87.344 37.1491 86.504 39.6451 86.504C42.1411 86.504 44.1411 87.344 45.6451 89.024C47.1491 90.704 47.9011 92.848 47.9011 95.456C47.9011 98.064 47.1491 100.208 45.6451 101.888ZM36.1411 99.824C36.9731 100.96 38.1491 101.528 39.6691 101.528C41.1891 101.528 42.3491 100.968 43.1491 99.848C43.9491 98.712 44.3491 97.248 44.3491 95.456C44.3491 93.664 43.9491 92.2 43.1491 91.064C42.3491 89.928 41.1891 89.36 39.6691 89.36C38.1491 89.36 36.9731 89.928 36.1411 91.064C35.3251 92.2 34.9171 93.664 34.9171 95.456C34.9171 97.232 35.3251 98.688 36.1411 99.824ZM52.7324 91.688V93.368H52.8044C53.6524 92.024 54.8684 91.352 56.4524 91.352C57.7164 91.352 58.7404 91.784 59.5244 92.648C60.3084 93.496 60.7004 94.6 60.7004 95.96V104H57.4364V96.44C57.4364 95.768 57.2444 95.224 56.8604 94.808C56.4924 94.392 55.9724 94.184 55.3004 94.184C54.5804 94.184 53.9804 94.448 53.5004 94.976C53.0364 95.504 52.8044 96.184 52.8044 97.016V104H49.5404V91.688H52.7324ZM68.4243 104.36C66.5203 104.36 64.9923 103.744 63.8403 102.512C62.6883 101.28 62.1123 99.728 62.1123 97.856C62.1123 95.984 62.6723 94.432 63.7923 93.2C64.9283 91.968 66.4163 91.352 68.2563 91.352C69.8083 91.352 71.0723 91.76 72.0483 92.576C73.0243 93.392 73.6243 94.488 73.8483 95.864H70.6563C70.5443 95.304 70.2883 94.848 69.8883 94.496C69.4883 94.144 68.9923 93.968 68.4003 93.968C67.4403 93.968 66.7043 94.312 66.1923 95C65.6803 95.688 65.4243 96.64 65.4243 97.856C65.4243 99.056 65.6723 100.008 66.1683 100.712C66.6643 101.4 67.3923 101.744 68.3523 101.744C69.7763 101.744 70.6003 101.048 70.8243 99.656H73.9683C73.8563 101.016 73.3043 102.144 72.3123 103.04C71.3203 103.92 70.0243 104.36 68.4243 104.36ZM85.8559 102.512C84.6559 103.744 83.1119 104.36 81.2239 104.36C79.3359 104.36 77.7919 103.744 76.5919 102.512C75.3919 101.264 74.7919 99.712 74.7919 97.856C74.7919 96 75.3919 94.456 76.5919 93.224C77.7919 91.976 79.3359 91.352 81.2239 91.352C83.1119 91.352 84.6559 91.976 85.8559 93.224C87.0559 94.456 87.6559 96 87.6559 97.856C87.6559 99.712 87.0559 101.264 85.8559 102.512ZM81.2239 101.864C82.1999 101.864 82.9599 101.504 83.5039 100.784C84.0639 100.048 84.3439 99.072 84.3439 97.856C84.3439 96.64 84.0639 95.664 83.5039 94.928C82.9599 94.192 82.1999 93.824 81.2239 93.824C80.2319 93.824 79.4639 94.192 78.9199 94.928C78.3759 95.648 78.1039 96.624 78.1039 97.856C78.1039 99.072 78.3759 100.048 78.9199 100.784C79.4639 101.504 80.2319 101.864 81.2239 101.864ZM89.2212 104V86.84H92.4852V104H89.2212ZM105.098 102.512C103.898 103.744 102.354 104.36 100.466 104.36C98.5781 104.36 97.0341 103.744 95.8341 102.512C94.6341 101.264 94.0341 99.712 94.0341 97.856C94.0341 96 94.6341 94.456 95.8341 93.224C97.0341 91.976 98.5781 91.352 100.466 91.352C102.354 91.352 103.898 91.976 105.098 93.224C106.298 94.456 106.898 96 106.898 97.856C106.898 99.712 106.298 101.264 105.098 102.512ZM100.466 101.864C101.442 101.864 102.202 101.504 102.746 100.784C103.306 100.048 103.586 99.072 103.586 97.856C103.586 96.64 103.306 95.664 102.746 94.928C102.202 94.192 101.442 93.824 100.466 93.824C99.4741 93.824 98.7061 94.192 98.1621 94.928C97.6181 95.648 97.3461 96.624 97.3461 97.856C97.3461 99.072 97.6181 100.048 98.1621 100.784C98.7061 101.504 99.4741 101.864 100.466 101.864ZM113.839 108.2C112.175 108.2 110.839 107.864 109.831 107.192C108.839 106.52 108.255 105.576 108.079 104.36H111.319C111.639 105.272 112.463 105.728 113.791 105.728C115.615 105.728 116.527 104.872 116.527 103.16V101.816H116.455C115.607 102.776 114.535 103.256 113.239 103.256C111.783 103.256 110.511 102.72 109.423 101.648C108.351 100.576 107.815 99.152 107.815 97.376C107.815 95.552 108.311 94.096 109.303 93.008C110.295 91.904 111.575 91.352 113.143 91.352C114.631 91.352 115.767 91.896 116.551 92.984H116.599V91.688H119.743V103.064C119.743 104.664 119.255 105.912 118.279 106.808C117.287 107.736 115.807 108.2 113.839 108.2ZM113.791 100.64C114.767 100.64 115.495 100.328 115.975 99.704C116.455 99.08 116.695 98.28 116.695 97.304C116.695 96.344 116.439 95.552 115.927 94.928C115.431 94.288 114.711 93.968 113.767 93.968C112.935 93.968 112.263 94.272 111.751 94.88C111.255 95.488 111.007 96.304 111.007 97.328C111.007 98.368 111.255 99.184 111.751 99.776C112.263 100.352 112.943 100.64 113.791 100.64ZM122.109 108.032V105.464H123.261C124.477 105.464 125.085 104.904 125.085 103.784C125.085 103.24 124.773 102.128 124.149 100.448L120.837 91.688H124.269L126.093 97.232L126.885 99.92H126.933C127.157 98.88 127.397 97.984 127.653 97.232L129.381 91.688H132.669L128.373 104.312C127.893 105.72 127.349 106.688 126.741 107.216C126.149 107.76 125.245 108.032 124.029 108.032H122.109ZM138.07 104V86.84H144.766C147.038 86.84 148.862 87.664 150.238 89.312C151.614 90.944 152.302 93.04 152.302 95.6C152.302 98.56 151.39 100.808 149.566 102.344C148.238 103.448 146.542 104 144.478 104H138.07ZM141.55 101H144.238C145.822 101 146.974 100.544 147.694 99.632C148.414 98.704 148.774 97.36 148.774 95.6C148.774 93.84 148.39 92.44 147.622 91.4C146.87 90.344 145.774 89.816 144.334 89.816H141.55V101ZM157.075 91.688V93.656H157.147C157.531 92.936 157.955 92.408 158.419 92.072C158.883 91.72 159.467 91.544 160.171 91.544C160.507 91.544 160.763 91.576 160.939 91.64V94.496H160.867C159.763 94.384 158.875 94.624 158.203 95.216C157.531 95.808 157.195 96.736 157.195 98V104H153.931V91.688H157.075ZM173.265 104H170.121V102.56H170.049C169.601 103.168 169.105 103.616 168.561 103.904C168.033 104.192 167.353 104.336 166.521 104.336C165.177 104.336 164.129 103.936 163.377 103.136C162.625 102.336 162.249 101.256 162.249 99.896V91.688H165.489V99.344C165.489 100.832 166.169 101.576 167.529 101.576C168.281 101.576 168.881 101.32 169.329 100.808C169.777 100.296 170.001 99.624 170.001 98.792V91.688H173.265V104ZM180.8 108.2C179.136 108.2 177.8 107.864 176.792 107.192C175.8 106.52 175.216 105.576 175.04 104.36H178.28C178.6 105.272 179.424 105.728 180.752 105.728C182.576 105.728 183.488 104.872 183.488 103.16V101.816H183.416C182.568 102.776 181.496 103.256 180.2 103.256C178.744 103.256 177.472 102.72 176.384 101.648C175.312 100.576 174.776 99.152 174.776 97.376C174.776 95.552 175.272 94.096 176.264 93.008C177.256 91.904 178.536 91.352 180.104 91.352C181.592 91.352 182.728 91.896 183.512 92.984H183.56V91.688H186.704V103.064C186.704 104.664 186.216 105.912 185.24 106.808C184.248 107.736 182.768 108.2 180.8 108.2ZM180.752 100.64C181.728 100.64 182.456 100.328 182.936 99.704C183.416 99.08 183.656 98.28 183.656 97.304C183.656 96.344 183.4 95.552 182.888 94.928C182.392 94.288 181.672 93.968 180.728 93.968C179.896 93.968 179.224 94.272 178.712 94.88C178.216 95.488 177.968 96.304 177.968 97.328C177.968 98.368 178.216 99.184 178.712 99.776C179.224 100.352 179.904 100.64 180.752 100.64ZM193.798 104.36C192.038 104.36 190.662 103.976 189.67 103.208C188.678 102.424 188.134 101.36 188.038 100.016H191.062C191.27 101.376 192.166 102.056 193.75 102.056C194.47 102.056 195.022 101.928 195.406 101.672C195.806 101.416 196.006 101.072 196.006 100.64C196.006 100.48 195.974 100.336 195.91 100.208C195.862 100.08 195.766 99.968 195.622 99.872C195.494 99.76 195.374 99.672 195.262 99.608C195.166 99.544 194.99 99.48 194.734 99.416C194.478 99.352 194.278 99.304 194.134 99.272C194.006 99.24 193.774 99.2 193.438 99.152C193.118 99.088 192.894 99.04 192.766 99.008C192.094 98.88 191.542 98.752 191.11 98.624C190.694 98.48 190.254 98.28 189.79 98.024C189.326 97.752 188.974 97.392 188.734 96.944C188.51 96.48 188.398 95.928 188.398 95.288C188.398 94.008 188.862 93.032 189.79 92.36C190.734 91.688 191.942 91.352 193.414 91.352C194.998 91.352 196.238 91.72 197.134 92.456C198.046 93.176 198.566 94.168 198.694 95.432H195.742C195.614 94.232 194.822 93.632 193.366 93.632C192.71 93.632 192.19 93.752 191.806 93.992C191.438 94.232 191.254 94.568 191.254 95C191.254 95.144 191.278 95.28 191.326 95.408C191.39 95.52 191.486 95.624 191.614 95.72C191.758 95.8 191.894 95.872 192.022 95.936C192.15 95.984 192.334 96.04 192.574 96.104C192.814 96.152 193.022 96.2 193.198 96.248C193.374 96.28 193.614 96.328 193.918 96.392C194.222 96.44 194.462 96.48 194.638 96.512C195.15 96.624 195.566 96.728 195.886 96.824C196.222 96.904 196.606 97.048 197.038 97.256C197.47 97.448 197.806 97.672 198.046 97.928C198.302 98.168 198.518 98.504 198.694 98.936C198.886 99.352 198.982 99.84 198.982 100.4C198.982 101.616 198.502 102.584 197.542 103.304C196.598 104.008 195.35 104.36 193.798 104.36Z" fill="#344899"/>
</svg>
