<svg width="397" height="388" viewBox="0 0 397 388" fill="none" xmlns="http://www.w3.org/2000/svg">
<rect width="397" height="388" fill="#4773CD"/>
<path d="M156.978 37.0703V11.3303L160.398 11.3303L172.134 29.2223L174.006 32.5343H174.078V11.3303H177.102V37.0703H173.79L161.982 19.1423L160.074 15.9383H160.002V37.0703H156.978ZM180.499 37.0703V11.3303L198.679 11.3303V14.1743L183.739 14.1743V22.3103H197.311V25.0463H183.739V34.0823H199.111V37.0703H180.499ZM206.206 37.0703L199.546 11.3303H202.93L206.998 28.0703L207.97 32.4263H208.042C208.45 30.6023 208.81 29.1263 209.122 27.9983L213.766 11.3303L217.258 11.3303L221.758 27.9983L222.802 32.4263H222.874C223.282 30.5783 223.618 29.1263 223.882 28.0703L228.166 11.3303H231.442L224.278 37.0703L221.182 37.0703L216.466 18.9263L215.53 15.0023H215.458C215.098 16.6103 214.774 17.9183 214.486 18.9263L209.446 37.0703H206.206Z" fill="white"/>
<path d="M9.10219 37.0703L18.5702 11.3303H22.2062L31.7102 37.0703H28.1822L25.4462 29.2223L15.1862 29.2223L12.4142 37.0703H9.10219ZM19.1822 17.9543L16.1222 26.5943H24.5462L21.5942 17.9543L20.4422 14.3183H20.3702C19.9142 15.7583 19.5182 16.9703 19.1822 17.9543Z" fill="white"/>
<path d="M112.713 203.383V203.383C112.713 171.898 138.237 146.375 169.721 146.375H226.734" stroke="#D3BBDB" stroke-width="3"/>
<path d="M190.686 146.375H300.087C327.399 146.375 349.539 124.234 349.539 96.9222V96.9222C349.539 69.6102 327.399 47.4694 300.087 47.4694L8.3125 47.4694" stroke="#D3BBDB" stroke-width="3"/>
<path d="M171.824 132.83C169.544 135.35 166.496 136.61 162.68 136.61C158.864 136.61 155.804 135.35 153.5 132.83C151.22 130.31 150.08 127.094 150.08 123.182C150.08 119.27 151.22 116.054 153.5 113.534C155.804 111.014 158.864 109.754 162.68 109.754C166.496 109.754 169.544 111.014 171.824 113.534C174.128 116.054 175.28 119.27 175.28 123.182C175.28 127.094 174.128 130.31 171.824 132.83ZM155.84 130.814C157.472 132.782 159.752 133.766 162.68 133.766C165.608 133.766 167.888 132.782 169.52 130.814C171.152 128.846 171.968 126.302 171.968 123.182C171.968 120.062 171.152 117.518 169.52 115.55C167.888 113.558 165.608 112.562 162.68 112.562C159.752 112.562 157.472 113.558 155.84 115.55C154.208 117.518 153.392 120.062 153.392 123.182C153.392 126.302 154.208 128.846 155.84 130.814ZM177.702 136.07V110.33H181.122L192.858 128.222L194.73 131.534H194.802V110.33H197.826V136.07H194.514L182.706 118.142L180.798 114.938H180.726V136.07H177.702ZM207.751 136.07L217.219 110.33H220.855L230.359 136.07H226.831L224.095 128.222L213.835 128.222L211.063 136.07H207.751ZM217.831 116.954L214.771 125.594H223.195L220.243 116.954L219.091 113.318H219.019C218.563 114.758 218.167 115.97 217.831 116.954Z" fill="white"/>
<path d="M110.702 262.648V236.908H120.062C123.83 236.908 126.674 238.072 128.594 240.4C130.514 242.728 131.474 245.884 131.474 249.868C131.474 253.828 130.478 256.948 128.486 259.228C126.494 261.508 123.602 262.648 119.81 262.648H110.702ZM113.942 259.804H119.702C125.342 259.804 128.162 256.492 128.162 249.868C128.162 243.1 125.426 239.716 119.954 239.716H113.942V259.804ZM133.871 262.648V236.908H152.051V239.752H137.111V247.888H150.683V250.624H137.111V259.66H152.483V262.648H133.871ZM165.386 263.152C161.762 263.152 158.846 261.904 156.638 259.408C154.43 256.912 153.326 253.696 153.326 249.76C153.326 245.872 154.418 242.668 156.602 240.148C158.81 237.604 161.786 236.332 165.53 236.332C168.458 236.332 170.822 237.088 172.622 238.6C174.422 240.112 175.502 242.092 175.862 244.54H172.694C172.382 242.908 171.59 241.6 170.318 240.616C169.07 239.632 167.45 239.14 165.458 239.14C162.698 239.14 160.538 240.136 158.978 242.128C157.418 244.096 156.638 246.64 156.638 249.76C156.638 252.928 157.442 255.484 159.05 257.428C160.682 259.348 162.83 260.308 165.494 260.308C167.798 260.308 169.574 259.636 170.822 258.292C172.094 256.948 172.814 255.256 172.982 253.216H176.186C176.162 254.488 175.862 255.796 175.286 257.14C174.734 258.46 174.002 259.564 173.09 260.452C171.242 262.252 168.674 263.152 165.386 263.152ZM175.802 262.648L185.27 236.908L188.906 236.908L198.41 262.648H194.882L192.146 254.8H181.886L179.114 262.648H175.802ZM185.882 243.532L182.822 252.172H191.246L188.294 243.532L187.142 239.896H187.07C186.614 241.336 186.218 242.548 185.882 243.532ZM199.758 262.648V236.908H209.118C212.886 236.908 215.73 238.072 217.65 240.4C219.57 242.728 220.53 245.884 220.53 249.868C220.53 253.828 219.534 256.948 217.542 259.228C215.55 261.508 212.658 262.648 208.866 262.648H199.758ZM202.998 259.804H208.758C214.398 259.804 217.218 256.492 217.218 249.868C217.218 243.1 214.482 239.716 209.01 239.716H202.998V259.804ZM222.927 262.648V236.908H241.107V239.752H226.167V247.888H239.739V250.624H226.167V259.66H241.539V262.648H222.927ZM252.89 263.152C249.434 263.152 246.77 262.3 244.898 260.596C243.05 258.892 242.054 256.672 241.91 253.936H245.078C245.51 258.352 248.162 260.56 253.034 260.56C254.882 260.56 256.358 260.152 257.462 259.336C258.59 258.496 259.154 257.296 259.154 255.736C259.154 255.04 259.022 254.428 258.758 253.9C258.494 253.372 258.17 252.94 257.786 252.604C257.426 252.268 256.874 251.956 256.13 251.668C255.386 251.38 254.69 251.152 254.042 250.984C253.418 250.816 252.554 250.612 251.45 250.372C250.13 250.084 249.038 249.796 248.174 249.508C247.31 249.196 246.446 248.776 245.582 248.248C244.718 247.72 244.07 247.048 243.638 246.232C243.23 245.392 243.026 244.384 243.026 243.208C243.026 241.096 243.818 239.44 245.402 238.24C247.01 237.016 249.134 236.404 251.774 236.404C257.558 236.404 260.81 239.08 261.53 244.432H258.47C258.23 242.608 257.546 241.24 256.418 240.328C255.29 239.392 253.766 238.924 251.846 238.924C250.07 238.924 248.654 239.284 247.598 240.004C246.566 240.724 246.05 241.744 246.05 243.064C246.05 243.64 246.158 244.156 246.374 244.612C246.614 245.044 246.914 245.416 247.274 245.728C247.658 246.016 248.15 246.28 248.75 246.52C249.374 246.76 249.986 246.964 250.586 247.132C251.186 247.276 251.918 247.432 252.782 247.6C253.982 247.84 254.966 248.068 255.734 248.284C256.502 248.476 257.354 248.776 258.29 249.184C259.226 249.592 259.946 250.06 260.45 250.588C260.978 251.116 261.422 251.812 261.782 252.676C262.166 253.516 262.358 254.5 262.358 255.628C262.358 257.98 261.482 259.828 259.73 261.172C258.002 262.492 255.722 263.152 252.89 263.152ZM263.933 252.388V249.328H274.301V252.388H263.933ZM297.422 259.408C295.142 261.928 292.094 263.188 288.278 263.188C284.462 263.188 281.402 261.928 279.098 259.408C276.818 256.888 275.678 253.672 275.678 249.76C275.678 245.848 276.818 242.632 279.098 240.112C281.402 237.592 284.462 236.332 288.278 236.332C292.094 236.332 295.142 237.592 297.422 240.112C299.726 242.632 300.878 245.848 300.878 249.76C300.878 253.672 299.726 256.888 297.422 259.408ZM281.438 257.392C283.07 259.36 285.35 260.344 288.278 260.344C291.206 260.344 293.486 259.36 295.118 257.392C296.75 255.424 297.566 252.88 297.566 249.76C297.566 246.64 296.75 244.096 295.118 242.128C293.486 240.136 291.206 239.14 288.278 239.14C285.35 239.14 283.07 240.136 281.438 242.128C279.806 244.096 278.99 246.64 278.99 249.76C278.99 252.88 279.806 255.424 281.438 257.392ZM303.3 262.648V236.908H306.54V259.66H320.04V262.648H303.3ZM321.794 262.648V236.908H331.154C334.922 236.908 337.766 238.072 339.686 240.4C341.606 242.728 342.566 245.884 342.566 249.868C342.566 253.828 341.57 256.948 339.578 259.228C337.586 261.508 334.694 262.648 330.902 262.648H321.794ZM325.034 259.804H330.794C336.434 259.804 339.254 256.492 339.254 249.868C339.254 243.1 336.518 239.716 331.046 239.716H325.034V259.804Z" fill="white"/>
<path d="M35.6933 327.359L35.6933 301.619H39.8333L48.1853 323.003H48.2573L56.5373 301.619H60.7493V327.359H57.6533V306.191H57.5813C57.1253 307.535 56.7413 308.615 56.4293 309.431L49.3733 327.359H46.8893L39.8333 309.431L38.6813 306.191H38.6093V327.359H35.6933ZM71.4081 327.359V316.451L62.0841 301.619H65.6841L73.0641 313.859H73.1361L80.6241 301.619H84.0801L74.6481 316.523V327.359H71.4081ZM93.6772 327.863C90.2212 327.863 87.5572 327.011 85.6852 325.307C83.8372 323.603 82.8412 321.383 82.6972 318.647H85.8652C86.2972 323.063 88.9492 325.271 93.8212 325.271C95.6692 325.271 97.1452 324.863 98.2492 324.047C99.3772 323.207 99.9412 322.007 99.9412 320.447C99.9412 319.751 99.8092 319.139 99.5452 318.611C99.2812 318.083 98.9572 317.651 98.5732 317.315C98.2132 316.979 97.6612 316.667 96.9172 316.379C96.1732 316.091 95.4772 315.863 94.8292 315.695C94.2052 315.527 93.3412 315.323 92.2372 315.083C90.9172 314.795 89.8252 314.507 88.9612 314.219C88.0972 313.907 87.2332 313.487 86.3692 312.959C85.5052 312.431 84.8572 311.759 84.4252 310.943C84.0172 310.103 83.8132 309.095 83.8132 307.919C83.8132 305.807 84.6052 304.151 86.1892 302.951C87.7972 301.727 89.9212 301.115 92.5612 301.115C98.3452 301.115 101.597 303.791 102.317 309.143H99.2572C99.0172 307.319 98.3332 305.951 97.2052 305.039C96.0772 304.103 94.5532 303.635 92.6332 303.635C90.8572 303.635 89.4412 303.995 88.3852 304.715C87.3532 305.435 86.8372 306.455 86.8372 307.775C86.8372 308.351 86.9452 308.867 87.1612 309.323C87.4012 309.755 87.7012 310.127 88.0612 310.439C88.4452 310.727 88.9372 310.991 89.5372 311.231C90.1612 311.471 90.7732 311.675 91.3732 311.843C91.9732 311.987 92.7052 312.143 93.5692 312.311C94.7692 312.551 95.7532 312.779 96.5212 312.995C97.2892 313.187 98.1412 313.487 99.0772 313.895C100.013 314.303 100.733 314.771 101.237 315.299C101.765 315.827 102.209 316.523 102.569 317.387C102.953 318.227 103.145 319.211 103.145 320.339C103.145 322.691 102.269 324.539 100.517 325.883C98.7892 327.203 96.5092 327.863 93.6772 327.863ZM102.527 304.463V301.619H122.903V304.463H114.335V327.359H111.095V304.463H102.527ZM124.679 327.359V301.619H142.859V304.463H127.919V312.599H141.491V315.335H127.919V324.371H143.291V327.359H124.679ZM145.634 327.359V301.619H157.658C159.914 301.619 161.738 302.267 163.13 303.563C164.546 304.859 165.254 306.563 165.254 308.675C165.254 311.963 163.766 314.087 160.79 315.047V315.155C162.062 315.611 162.962 316.331 163.49 317.315C164.042 318.275 164.378 319.739 164.498 321.707C164.738 324.995 165.134 326.831 165.686 327.215V327.359H162.194C161.93 327.143 161.738 326.687 161.618 325.991C161.522 325.295 161.402 323.831 161.258 321.599C161.138 319.727 160.67 318.407 159.854 317.639C159.062 316.871 157.79 316.487 156.038 316.487H148.874V327.359H145.634ZM148.874 304.427V313.859H156.506C158.282 313.859 159.626 313.451 160.538 312.635C161.45 311.795 161.906 310.631 161.906 309.143C161.906 307.535 161.498 306.347 160.682 305.579C159.866 304.811 158.534 304.427 156.686 304.427H148.874ZM174.493 327.359V316.451L165.169 301.619H168.769L176.149 313.859H176.221L183.709 301.619H187.165L177.733 316.523V327.359H174.493Z" fill="white"/>
<path d="M370.241 95.0872V101.863C370.228 105.507 372.066 107.236 375.02 107.242C378.121 107.242 379.748 105.341 379.748 102.055V95.1L370.241 95.0872ZM382.575 91.8586L382.562 102.604C382.562 105.309 381.656 107.395 380.067 108.729C378.804 109.807 377.107 110.458 375.16 110.452C370.439 110.452 367.593 107.74 367.599 102.112V95.0808L356.797 95.0681V91.8203L382.575 91.8522V91.8586Z" fill="#292D74"/>
<path d="M381.026 118.888L375.015 136.071L372.329 135.133L377.261 121.013L369.573 118.32L365.087 131.152L362.503 130.246L366.988 117.421L358.445 114.435L353.366 128.963L350.539 127.974L356.696 110.383L381.026 118.888Z" fill="#292D74"/>
<path d="M357.648 140.718L352.614 146.467C350.234 149.179 350.406 151.725 352.601 153.646C354.962 155.713 357.099 155.675 359.601 152.829L364.756 146.946L357.654 140.718H357.648ZM368.999 146.359L361.062 155.413C358.069 158.827 353.903 159.254 350.731 156.472C348.371 154.405 347.599 151.904 348.881 148.905L348.798 148.835C346.361 150.194 344.459 149.632 341.416 147.303C338.111 144.789 337.039 144.426 336.483 144.56L336.375 144.464L338.678 141.835C339.387 141.739 340.191 142.294 343.636 144.93C346.648 147.233 348.651 146.978 350.929 144.374L355.657 138.983L347.471 131.805L349.609 129.367L368.987 146.359H368.999Z" fill="#292D74"/>
<path d="M340.466 152.1L337.633 153.529C335.278 149.829 331.871 149.005 327.532 151.2C324.348 152.808 322.791 155.412 324.24 158.277C325.835 161.429 328.974 160.771 333.549 159.591C338.06 158.442 342.118 157.843 344.313 162.188C346.234 165.984 344.23 169.864 339.566 172.218C333.804 175.128 329.944 173.405 327.219 169.449L329.957 168.064C332.037 171.134 334.985 171.701 338.366 169.998C341.486 168.422 342.877 166.061 341.678 163.681C340.363 161.078 337.396 161.601 333.613 162.666C328.687 164.025 324.048 164.995 321.426 159.814C319.25 155.501 321.534 151.315 326.492 148.814C332.962 145.547 337.869 147.589 340.472 152.094" fill="#292D74"/>
<path d="M316.248 167.12L309.523 167.931C305.905 168.365 304.412 170.4 304.763 173.335C305.133 176.411 307.226 177.795 310.487 177.4L317.391 176.564L316.248 167.114V167.12ZM320.951 178.969L310.283 180.258C307.596 180.584 305.414 179.939 303.902 178.523C302.677 177.4 301.828 175.798 301.598 173.865C301.031 169.175 303.372 166.023 308.955 165.353L315.936 164.511L314.641 153.772L317.863 153.383L320.951 178.976V178.969Z" fill="#292D74"/>
<path d="M298.372 180.575H280.168V177.723H295.131V169.574H281.54V166.837H295.131V157.789H279.734V154.797H298.372V180.575Z" fill="#292D74"/>
<path d="M278.917 167.7C278.917 175.274 274.374 181.15 266.698 181.15C260.675 181.15 257.038 177.685 256.349 172.932H259.52C260.133 176.141 262.691 178.336 266.768 178.336C272.428 178.336 275.599 173.755 275.599 167.7C275.599 161.645 272.103 157.133 266.73 157.133C261.862 157.133 259.558 160.451 259.233 164.235H256.023C256.062 161.676 257.287 158.792 259.124 156.987C260.93 155.219 263.559 154.281 266.839 154.281C274.157 154.281 278.917 159.871 278.917 167.693" fill="#292D74"/>
<path d="M256.343 180.575H235.938V177.723H244.519V154.797H247.761V177.723H256.343V180.575Z" fill="#292D74"/>
<path d="M234.107 154.797H230.859V180.575H234.107V154.797Z" fill="#292D74"/>
<path d="M229.461 180.575H225.964L219.622 161.394C219.226 160.208 218.614 157.936 218.614 157.936H218.543C218.543 157.936 217.931 160.246 217.535 161.394L211.263 180.575H207.875L216.923 154.797H220.49L229.467 180.575H229.461Z" fill="#292D74"/>
<path d="M206.521 180.575H188.317V177.723H203.279V169.574H189.682V166.837H203.279V157.789H187.883V154.797H206.521V180.575Z" fill="#292D74"/>
<path d="M112.711 203.383L112.711 226.547" stroke="#D3BBDB" stroke-width="3"/>
<path d="M112.711 271.273V293.938" stroke="#D3BBDB" stroke-width="3"/>
<circle cx="113.68" cy="358.734" r="20.0938" stroke="#D3BBDB" stroke-width="3"/>
</svg>
