<svg width="398" height="388" viewBox="0 0 398 388" fill="none" xmlns="http://www.w3.org/2000/svg">
<g clip-path="url(#clip0_1109_439)">
<rect width="397" height="388" transform="translate(0.5)" fill="#DA2F62"/>
<mask id="mask0_1109_439" style="mask-type:luminance" maskUnits="userSpaceOnUse" x="10" y="44" width="789" height="328">
<path d="M798.169 44.6719H10.5V371.492H798.169V44.6719Z" fill="white"/>
</mask>
<g mask="url(#mask0_1109_439)">
<path d="M363.582 369.571C363.582 368.507 364.448 367.641 365.52 367.641C366.584 367.641 367.45 368.507 367.45 369.571C367.45 370.635 366.584 371.501 365.52 371.501C364.448 371.501 363.582 370.635 363.582 369.571ZM352.077 369.571C352.077 368.507 352.936 367.641 354.007 367.641C355.071 367.641 355.937 368.507 355.937 369.571C355.937 370.635 355.071 371.501 354.007 371.501C352.936 371.501 352.077 370.635 352.077 369.571ZM340.565 369.571C340.565 368.507 341.431 367.641 342.495 367.641C343.566 367.641 344.425 368.507 344.425 369.571C344.425 370.635 343.566 371.501 342.495 371.501C341.431 371.501 340.565 370.635 340.565 369.571ZM329.06 369.571C329.06 368.507 329.918 367.641 330.99 367.641C332.054 367.641 332.92 368.507 332.92 369.571C332.92 370.635 332.054 371.501 330.99 371.501C329.918 371.501 329.06 370.635 329.06 369.571ZM317.547 369.571C317.547 368.507 318.413 367.641 319.477 367.641C320.549 367.641 321.407 368.507 321.407 369.571C321.407 370.635 320.549 371.501 319.477 371.501C318.413 371.501 317.547 370.635 317.547 369.571ZM306.034 369.571C306.034 368.507 306.901 367.641 307.965 367.641C309.036 367.641 309.902 368.507 309.902 369.571C309.902 370.635 309.036 371.501 307.965 371.501C306.901 371.501 306.034 370.635 306.034 369.571ZM294.529 369.571C294.529 368.507 295.396 367.641 296.46 367.641C297.523 367.641 298.39 368.507 298.39 369.571C298.39 370.635 297.523 371.501 296.46 371.501C295.396 371.501 294.529 370.635 294.529 369.571ZM283.017 369.571C283.017 368.507 283.883 367.641 284.947 367.641C286.018 367.641 286.877 368.507 286.877 369.571C286.877 370.635 286.018 371.501 284.947 371.501C283.883 371.501 283.017 370.635 283.017 369.571ZM271.512 369.571C271.512 368.507 272.371 367.641 273.442 367.641C274.506 367.641 275.372 368.507 275.372 369.571C275.372 370.635 274.506 371.501 273.442 371.501C272.371 371.501 271.512 370.635 271.512 369.571ZM259.999 369.571C259.999 368.507 260.866 367.641 261.929 367.641C263.001 367.641 263.86 368.507 263.86 369.571C263.86 370.635 263.001 371.501 261.929 371.501C260.866 371.501 259.999 370.635 259.999 369.571ZM248.487 369.571C248.487 368.507 249.353 367.641 250.424 367.641C251.488 367.641 252.355 368.507 252.355 369.571C252.355 370.635 251.488 371.501 250.424 371.501C249.353 371.501 248.487 370.635 248.487 369.571ZM236.982 369.571C236.982 368.507 237.84 367.641 238.912 367.641C239.976 367.641 240.842 368.507 240.842 369.571C240.842 370.635 239.976 371.501 238.912 371.501C237.84 371.501 236.982 370.635 236.982 369.571ZM225.469 369.571C225.469 368.507 226.335 367.641 227.399 367.641C228.471 367.641 229.33 368.507 229.33 369.571C229.33 370.635 228.471 371.501 227.399 371.501C226.335 371.501 225.469 370.635 225.469 369.571ZM213.964 369.571C213.964 368.507 214.823 367.641 215.894 367.641C216.958 367.641 217.825 368.507 217.825 369.571C217.825 370.635 216.958 371.501 215.894 371.501C214.823 371.501 213.964 370.635 213.964 369.571ZM202.452 369.571C202.452 368.507 203.318 367.641 204.382 367.641C205.453 367.641 206.312 368.507 206.312 369.571C206.312 370.635 205.453 371.501 204.382 371.501C203.318 371.501 202.452 370.635 202.452 369.571ZM190.939 369.571C190.939 368.507 191.805 367.641 192.869 367.641C193.941 367.641 194.807 368.507 194.807 369.571C194.807 370.635 193.941 371.501 192.869 371.501C191.805 371.501 190.939 370.635 190.939 369.571ZM179.434 369.571C179.434 368.507 180.3 367.641 181.364 367.641C182.428 367.641 183.294 368.507 183.294 369.571C183.294 370.635 182.428 371.501 181.364 371.501C180.3 371.501 179.434 370.635 179.434 369.571ZM167.922 369.571C167.922 368.507 168.788 367.641 169.852 367.641C170.923 367.641 171.782 368.507 171.782 369.571C171.782 370.635 170.923 371.501 169.852 371.501C168.788 371.501 167.922 370.635 167.922 369.571ZM156.417 369.571C156.417 368.507 157.275 367.641 158.347 367.641C159.411 367.641 160.277 368.507 160.277 369.571C160.277 370.635 159.411 371.501 158.347 371.501C157.275 371.501 156.417 370.635 156.417 369.571ZM144.904 369.571C144.904 368.507 145.77 367.641 146.834 367.641C147.906 367.641 148.764 368.507 148.764 369.571C148.764 370.635 147.906 371.501 146.834 371.501C145.77 371.501 144.904 370.635 144.904 369.571ZM133.391 369.571C133.391 368.507 134.258 367.641 135.329 367.641C136.393 367.641 137.259 368.507 137.259 369.571C137.259 370.635 136.393 371.501 135.329 371.501C134.258 371.501 133.391 370.635 133.391 369.571ZM121.886 369.571C121.886 368.507 122.745 367.641 123.817 367.641C124.88 367.641 125.747 368.507 125.747 369.571C125.747 370.635 124.88 371.501 123.817 371.501C122.745 371.501 121.886 370.635 121.886 369.571ZM110.374 369.571C110.374 368.507 111.24 367.641 112.304 367.641C113.376 367.641 114.234 368.507 114.234 369.571C114.234 370.635 113.376 371.501 112.304 371.501C111.24 371.501 110.374 370.635 110.374 369.571ZM98.8689 369.571C98.8689 368.507 99.7276 367.641 100.799 367.641C101.863 367.641 102.729 368.507 102.729 369.571C102.729 370.635 101.863 371.501 100.799 371.501C99.7276 371.501 98.8689 370.635 98.8689 369.571ZM87.3563 369.571C87.3563 368.507 88.2226 367.641 89.2865 367.641C90.3579 367.641 91.2166 368.507 91.2166 369.571C91.2166 370.635 90.3579 371.501 89.2865 371.501C88.2226 371.501 87.3563 370.635 87.3563 369.571ZM75.8438 369.571C75.8438 368.507 76.71 367.641 77.7739 367.641C78.8454 367.641 79.7117 368.507 79.7117 369.571C79.7117 370.635 78.8454 371.501 77.7739 371.501C76.71 371.501 75.8438 370.635 75.8438 369.571Z" fill="#292D74"/>
<path d="M53.8542 370.12C52.8131 369.884 52.1596 368.851 52.3952 367.81C52.6308 366.769 53.6718 366.115 54.7053 366.351C55.7464 366.586 56.3999 367.628 56.1643 368.669C55.9591 369.565 55.1612 370.166 54.2797 370.166C54.143 370.166 53.9986 370.15 53.8542 370.12ZM42.0605 365.994C41.103 365.53 40.7002 364.375 41.1638 363.418C41.6273 362.46 42.7824 362.057 43.7399 362.521C44.7049 362.977 45.1077 364.132 44.6441 365.097C44.3098 365.789 43.6183 366.191 42.904 366.191C42.6228 366.191 42.334 366.123 42.0605 365.994ZM31.4978 359.345C30.6619 358.676 30.5251 357.46 31.1938 356.632C31.8549 355.796 33.0708 355.659 33.9067 356.328C34.7426 356.989 34.8793 358.205 34.2106 359.041C33.8307 359.519 33.2683 359.762 32.6984 359.762C32.2805 359.762 31.8549 359.626 31.4978 359.345ZM22.6677 350.514C22.0065 349.686 22.1357 348.47 22.9716 347.802C23.8075 347.14 25.0234 347.27 25.6845 348.106C26.3532 348.941 26.2164 350.157 25.3805 350.818C25.0234 351.107 24.5978 351.244 24.1799 351.244C23.6099 351.244 23.0476 350.993 22.6677 350.514ZM16.0185 339.952C15.5549 338.987 15.9577 337.839 16.9152 337.376C17.8803 336.912 19.0353 337.315 19.4989 338.272C19.9624 339.23 19.5596 340.385 18.6022 340.848C18.3286 340.985 18.0474 341.046 17.7663 341.046C17.0444 341.046 16.3604 340.643 16.0261 339.952H16.0185ZM11.8922 328.166C11.6566 327.125 12.3025 326.091 13.3436 325.855C14.3847 325.612 15.4182 326.266 15.6613 327.307C15.8969 328.348 15.2434 329.381 14.2023 329.617C14.0579 329.655 13.9135 329.67 13.7692 329.67C12.8877 329.67 12.0974 329.062 11.8922 328.166Z" fill="#292D74"/>
<path d="M10.5 315.735C10.5 314.663 11.3663 313.805 12.4302 313.805C13.5016 313.805 14.3603 314.663 14.3603 315.735C14.3603 316.799 13.5016 317.665 12.4302 317.665C11.3663 317.665 10.5 316.799 10.5 315.735Z" fill="#292D74"/>
<path d="M13.3436 305.64C12.3025 305.405 11.6566 304.371 11.8922 303.33C12.1278 302.289 13.1612 301.636 14.2023 301.871C15.2434 302.115 15.8893 303.148 15.6537 304.189C15.4562 305.086 14.6583 305.686 13.7768 305.686C13.6324 305.686 13.488 305.671 13.3436 305.64ZM16.9152 294.12C15.9501 293.657 15.5473 292.502 16.0109 291.544C16.4744 290.579 17.6295 290.176 18.5946 290.64C19.552 291.103 19.9548 292.259 19.4913 293.216C19.1569 293.908 18.473 294.31 17.7511 294.31C17.4699 294.31 17.1811 294.25 16.9152 294.12ZM22.9716 283.687C22.1357 283.026 21.9989 281.81 22.6677 280.974C23.3288 280.138 24.5446 280.001 25.3805 280.67C26.2164 281.339 26.3532 282.555 25.6845 283.383C25.3045 283.862 24.7422 284.112 24.1723 284.112C23.7467 284.112 23.3212 283.976 22.9716 283.687ZM31.1862 274.864C30.5251 274.028 30.6619 272.813 31.4902 272.144C32.3261 271.483 33.5419 271.619 34.203 272.448C34.8717 273.284 34.735 274.5 33.8991 275.161C33.5495 275.449 33.124 275.586 32.6984 275.586C32.1285 275.586 31.5662 275.335 31.1862 274.864ZM41.1562 268.071C40.6926 267.113 41.0954 265.958 42.0605 265.495C43.0179 265.031 44.173 265.434 44.6365 266.391C45.1001 267.356 44.6973 268.511 43.7399 268.975C43.4663 269.104 43.1775 269.165 42.8964 269.165C42.182 269.165 41.4905 268.762 41.1562 268.071ZM52.3876 263.678C52.152 262.637 52.8055 261.604 53.8466 261.368C54.8877 261.133 55.9211 261.786 56.1567 262.827C56.3923 263.861 55.7388 264.902 54.6977 265.137C54.5533 265.168 54.4165 265.183 54.2721 265.183C53.3907 265.183 52.5928 264.575 52.3876 263.678Z" fill="#292D74"/>
<path d="M195.525 261.93C195.525 260.859 196.391 260 197.455 260C198.527 260 199.385 260.859 199.385 261.93C199.385 262.994 198.527 263.86 197.455 263.86C196.391 263.86 195.525 262.994 195.525 261.93ZM183.595 261.93C183.595 260.859 184.461 260 185.525 260C186.596 260 187.462 260.859 187.462 261.93C187.462 262.994 186.596 263.86 185.525 263.86C184.461 263.86 183.595 262.994 183.595 261.93ZM171.672 261.93C171.672 260.859 172.538 260 173.602 260C174.673 260 175.532 260.859 175.532 261.93C175.532 262.994 174.673 263.86 173.602 263.86C172.538 263.86 171.672 262.994 171.672 261.93ZM159.741 261.93C159.741 260.859 160.607 260 161.671 260C162.743 260 163.609 260.859 163.609 261.93C163.609 262.994 162.743 263.86 161.671 263.86C160.607 263.86 159.741 262.994 159.741 261.93ZM147.818 261.93C147.818 260.859 148.684 260 149.748 260C150.812 260 151.678 260.859 151.678 261.93C151.678 262.994 150.812 263.86 149.748 263.86C148.684 263.86 147.818 262.994 147.818 261.93ZM135.888 261.93C135.888 260.859 136.754 260 137.825 260C138.889 260 139.756 260.859 139.756 261.93C139.756 262.994 138.889 263.86 137.825 263.86C136.754 263.86 135.888 262.994 135.888 261.93ZM123.965 261.93C123.965 260.859 124.831 260 125.895 260C126.959 260 127.825 260.859 127.825 261.93C127.825 262.994 126.959 263.86 125.895 263.86C124.831 263.86 123.965 262.994 123.965 261.93ZM112.034 261.93C112.034 260.859 112.9 260 113.972 260C115.036 260 115.902 260.859 115.902 261.93C115.902 262.994 115.036 263.86 113.972 263.86C112.9 263.86 112.034 262.994 112.034 261.93ZM100.111 261.93C100.111 260.859 100.978 260 102.041 260C103.105 260 103.972 260.859 103.972 261.93C103.972 262.994 103.105 263.86 102.041 263.86C100.978 263.86 100.111 262.994 100.111 261.93ZM88.1807 261.93C88.1807 260.859 89.047 260 90.1185 260C91.1824 260 92.0487 260.859 92.0487 261.93C92.0487 262.994 91.1824 263.86 90.1185 263.86C89.047 263.86 88.1807 262.994 88.1807 261.93ZM76.2578 261.93C76.2578 260.859 77.1241 260 78.188 260C79.2518 260 80.1181 260.859 80.1181 261.93C80.1181 262.994 79.2518 263.86 78.188 263.86C77.1241 263.86 76.2578 262.994 76.2578 261.93Z" fill="#292D74"/>
<path d="M326.611 260.955C326.375 259.914 327.021 258.881 328.062 258.645C329.103 258.402 330.137 259.056 330.38 260.097C330.616 261.138 329.962 262.171 328.921 262.407C328.777 262.445 328.632 262.46 328.488 262.46C327.606 262.46 326.816 261.852 326.611 260.955ZM338.131 257.384C337.668 256.426 338.07 255.271 339.028 254.808C339.993 254.344 341.148 254.747 341.611 255.704C342.075 256.669 341.672 257.817 340.707 258.288C340.441 258.417 340.152 258.478 339.871 258.478C339.157 258.478 338.465 258.075 338.131 257.384ZM348.565 251.327C347.896 250.491 348.033 249.283 348.869 248.614C349.697 247.946 350.913 248.082 351.581 248.918C352.243 249.754 352.106 250.97 351.277 251.631C350.92 251.92 350.495 252.057 350.069 252.057C349.507 252.057 348.945 251.806 348.565 251.327ZM357.387 243.113C356.559 242.444 356.422 241.228 357.083 240.4C357.752 239.564 358.968 239.427 359.804 240.088C360.632 240.757 360.769 241.973 360.1 242.809C359.72 243.287 359.165 243.531 358.595 243.531C358.17 243.531 357.744 243.394 357.387 243.113ZM364.181 233.143C363.216 232.679 362.813 231.524 363.276 230.559C363.74 229.602 364.895 229.199 365.852 229.662C366.818 230.126 367.22 231.281 366.757 232.238C366.422 232.93 365.731 233.333 365.017 233.333C364.735 233.333 364.447 233.272 364.181 233.143ZM368.573 221.911C367.532 221.676 366.878 220.635 367.114 219.594C367.349 218.553 368.391 217.907 369.424 218.142C370.465 218.378 371.119 219.411 370.883 220.452C370.678 221.349 369.88 221.957 368.998 221.957C368.862 221.957 368.717 221.942 368.573 221.911Z" fill="#292D74"/>
<path d="M367.122 196.533C366.879 195.492 367.532 194.458 368.573 194.223C369.614 193.987 370.648 194.633 370.883 195.674C371.119 196.715 370.473 197.749 369.432 197.984C369.287 198.022 369.143 198.037 368.999 198.037C368.117 198.037 367.319 197.429 367.122 196.533ZM363.284 185.567C362.821 184.602 363.223 183.447 364.181 182.984C365.138 182.52 366.293 182.93 366.757 183.888C367.221 184.845 366.818 186.001 365.86 186.464C365.587 186.593 365.298 186.662 365.017 186.662C364.302 186.662 363.611 186.259 363.284 185.567ZM357.091 175.734C356.422 174.898 356.559 173.682 357.395 173.014C358.223 172.353 359.447 172.489 360.108 173.318C360.777 174.154 360.64 175.369 359.804 176.031C359.447 176.319 359.021 176.456 358.596 176.456C358.033 176.456 357.471 176.205 357.091 175.734ZM348.869 167.512C348.041 166.843 347.904 165.627 348.565 164.799C349.234 163.963 350.449 163.826 351.278 164.495C352.114 165.156 352.25 166.372 351.582 167.208C351.202 167.687 350.639 167.93 350.077 167.93C349.652 167.93 349.226 167.793 348.869 167.512ZM339.036 161.319C338.078 160.855 337.675 159.7 338.139 158.743C338.602 157.778 339.758 157.375 340.715 157.838C341.672 158.302 342.083 159.457 341.619 160.422C341.285 161.106 340.593 161.509 339.879 161.509C339.59 161.509 339.309 161.448 339.036 161.319ZM328.07 157.481C327.029 157.246 326.383 156.212 326.619 155.171C326.854 154.13 327.888 153.477 328.929 153.712C329.97 153.955 330.616 154.989 330.38 156.03C330.183 156.927 329.385 157.534 328.503 157.534C328.359 157.534 328.215 157.512 328.07 157.481Z" fill="#292D74"/>
<path d="M195.533 154.258C195.533 153.194 196.391 152.328 197.463 152.328C198.527 152.328 199.393 153.194 199.393 154.258C199.393 155.322 198.527 156.188 197.463 156.188C196.391 156.188 195.533 155.322 195.533 154.258ZM183.602 154.258C183.602 153.194 184.468 152.328 185.532 152.328C186.604 152.328 187.462 153.194 187.462 154.258C187.462 155.322 186.604 156.188 185.532 156.188C184.468 156.188 183.602 155.322 183.602 154.258ZM171.679 154.258C171.679 153.194 172.538 152.328 173.609 152.328C174.673 152.328 175.54 153.194 175.54 154.258C175.54 155.322 174.673 156.188 173.609 156.188C172.538 156.188 171.679 155.322 171.679 154.258ZM159.749 154.258C159.749 153.194 160.615 152.328 161.679 152.328C162.743 152.328 163.609 153.194 163.609 154.258C163.609 155.322 162.743 156.188 161.679 156.188C160.615 156.188 159.749 155.322 159.749 154.258ZM147.826 154.258C147.826 153.194 148.684 152.328 149.756 152.328C150.82 152.328 151.686 153.194 151.686 154.258C151.686 155.322 150.82 156.188 149.756 156.188C148.684 156.188 147.826 155.322 147.826 154.258ZM135.895 154.258C135.895 153.194 136.762 152.328 137.825 152.328C138.889 152.328 139.756 153.194 139.756 154.258C139.756 155.322 138.889 156.188 137.825 156.188C136.762 156.188 135.895 155.322 135.895 154.258ZM123.965 154.258C123.965 153.194 124.831 152.328 125.902 152.328C126.966 152.328 127.833 153.194 127.833 154.258C127.833 155.322 126.966 156.188 125.902 156.188C124.831 156.188 123.965 155.322 123.965 154.258ZM112.042 154.258C112.042 153.194 112.908 152.328 113.972 152.328C115.036 152.328 115.902 153.194 115.902 154.258C115.902 155.322 115.036 156.188 113.972 156.188C112.908 156.188 112.042 155.322 112.042 154.258ZM100.111 154.258C100.111 153.194 100.978 152.328 102.041 152.328C103.113 152.328 103.979 153.194 103.979 154.258C103.979 155.322 103.113 156.188 102.041 156.188C100.978 156.188 100.111 155.322 100.111 154.258ZM88.1883 154.258C88.1883 153.194 89.0546 152.328 90.1185 152.328C91.1824 152.328 92.0487 153.194 92.0487 154.258C92.0487 155.322 91.1824 156.188 90.1185 156.188C89.0546 156.188 88.1883 155.322 88.1883 154.258ZM76.2578 154.258C76.2578 153.194 77.1241 152.328 78.1956 152.328C79.2594 152.328 80.1257 153.194 80.1257 154.258C80.1257 155.322 79.2594 156.188 78.1956 156.188C77.1241 156.188 76.2578 155.322 76.2578 154.258Z" fill="#292D74"/>
<path d="M314.89 154.235C314.89 153.171 315.749 152.305 316.82 152.305C317.884 152.305 318.75 153.171 318.75 154.235C318.75 155.299 317.884 156.165 316.82 156.165C315.749 156.165 314.89 155.299 314.89 154.235ZM302.96 154.235C302.96 153.171 303.826 152.305 304.89 152.305C305.954 152.305 306.82 153.171 306.82 154.235C306.82 155.299 305.954 156.165 304.89 156.165C303.826 156.165 302.96 155.299 302.96 154.235ZM291.037 154.235C291.037 153.171 291.895 152.305 292.967 152.305C294.031 152.305 294.897 153.171 294.897 154.235C294.897 155.299 294.031 156.165 292.967 156.165C291.895 156.165 291.037 155.299 291.037 154.235ZM279.106 154.235C279.106 153.171 279.972 152.305 281.036 152.305C282.1 152.305 282.966 153.171 282.966 154.235C282.966 155.299 282.1 156.165 281.036 156.165C279.972 156.165 279.106 155.299 279.106 154.235ZM267.176 154.235C267.176 153.171 268.042 152.305 269.113 152.305C270.177 152.305 271.044 153.171 271.044 154.235C271.044 155.299 270.177 156.165 269.113 156.165C268.042 156.165 267.176 155.299 267.176 154.235ZM255.253 154.235C255.253 153.171 256.119 152.305 257.183 152.305C258.247 152.305 259.113 153.171 259.113 154.235C259.113 155.299 258.247 156.165 257.183 156.165C256.119 156.165 255.253 155.299 255.253 154.235ZM243.322 154.235C243.322 153.171 244.188 152.305 245.252 152.305C246.324 152.305 247.19 153.171 247.19 154.235C247.19 155.299 246.324 156.165 245.252 156.165C244.188 156.165 243.322 155.299 243.322 154.235ZM231.399 154.235C231.399 153.171 232.266 152.305 233.329 152.305C234.393 152.305 235.26 153.171 235.26 154.235C235.26 155.299 234.393 156.165 233.329 156.165C232.266 156.165 231.399 155.299 231.399 154.235ZM219.469 154.235C219.469 153.171 220.335 152.305 221.407 152.305C222.47 152.305 223.337 153.171 223.337 154.235C223.337 155.299 222.47 156.165 221.407 156.165C220.335 156.165 219.469 155.299 219.469 154.235Z" fill="#292D74"/>
<path d="M314.851 262.071C314.851 261.007 315.71 260.141 316.781 260.141C317.845 260.141 318.711 261.007 318.711 262.071C318.711 263.135 317.845 264.001 316.781 264.001C315.71 264.001 314.851 263.135 314.851 262.071ZM302.921 262.071C302.921 261.007 303.787 260.141 304.851 260.141C305.915 260.141 306.781 261.007 306.781 262.071C306.781 263.135 305.915 264.001 304.851 264.001C303.787 264.001 302.921 263.135 302.921 262.071ZM290.998 262.071C290.998 261.007 291.856 260.141 292.928 260.141C293.992 260.141 294.858 261.007 294.858 262.071C294.858 263.135 293.992 264.001 292.928 264.001C291.856 264.001 290.998 263.135 290.998 262.071ZM279.067 262.071C279.067 261.007 279.933 260.141 280.997 260.141C282.061 260.141 282.927 261.007 282.927 262.071C282.927 263.135 282.061 264.001 280.997 264.001C279.933 264.001 279.067 263.135 279.067 262.071ZM267.137 262.071C267.137 261.007 268.003 260.141 269.074 260.141C270.138 260.141 271.005 261.007 271.005 262.071C271.005 263.135 270.138 264.001 269.074 264.001C268.003 264.001 267.137 263.135 267.137 262.071ZM255.214 262.071C255.214 261.007 256.08 260.141 257.144 260.141C258.208 260.141 259.074 261.007 259.074 262.071C259.074 263.135 258.208 264.001 257.144 264.001C256.08 264.001 255.214 263.135 255.214 262.071ZM243.283 262.071C243.283 261.007 244.149 260.141 245.213 260.141C246.285 260.141 247.151 261.007 247.151 262.071C247.151 263.135 246.285 264.001 245.213 264.001C244.149 264.001 243.283 263.135 243.283 262.071ZM231.36 262.071C231.36 261.007 232.227 260.141 233.29 260.141C234.354 260.141 235.221 261.007 235.221 262.071C235.221 263.135 234.354 264.001 233.29 264.001C232.227 264.001 231.36 263.135 231.36 262.071ZM219.43 262.071C219.43 261.007 220.296 260.141 221.367 260.141C222.431 260.141 223.298 261.007 223.298 262.071C223.298 263.135 222.431 264.001 221.367 264.001C220.296 264.001 219.43 263.135 219.43 262.071Z" fill="#292D74"/>
<path d="M66.2424 152.164C65.171 152.164 64.3047 153.03 64.3047 154.094C64.3047 155.158 65.171 156.024 66.2424 156.024C67.3063 156.024 68.1726 155.158 68.1726 154.094C68.1726 153.03 67.3063 152.164 66.2424 152.164Z" fill="#292D74"/>
<path d="M66.2424 44.6719C65.171 44.6719 64.3047 45.5382 64.3047 46.602C64.3047 47.6659 65.171 48.5322 66.2424 48.5322C67.3063 48.5322 68.1726 47.6659 68.1726 46.602C68.1726 45.5382 67.3063 44.6719 66.2424 44.6719Z" fill="#292D74"/>
<path d="M66.2424 259.977C65.171 259.977 64.3047 260.843 64.3047 261.907C64.3047 262.971 65.171 263.837 66.2424 263.837C67.3063 263.837 68.1726 262.971 68.1726 261.907C68.1726 260.843 67.3063 259.977 66.2424 259.977Z" fill="#292D74"/>
<path d="M209.414 260.023C208.343 260.023 207.477 260.89 207.477 261.954C207.477 263.017 208.343 263.884 209.414 263.884C210.478 263.884 211.344 263.017 211.344 261.954C211.344 260.89 210.478 260.023 209.414 260.023Z" fill="#292D74"/>
<path d="M209.446 152.305C208.374 152.305 207.508 153.171 207.508 154.235C207.508 155.299 208.374 156.165 209.446 156.165C210.509 156.165 211.376 155.299 211.376 154.235C211.376 153.171 210.509 152.305 209.446 152.305Z" fill="#292D74"/>
<path d="M370.125 206.148C369.054 206.148 368.188 207.015 368.188 208.079C368.188 209.142 369.054 210.009 370.125 210.009C371.189 210.009 372.055 209.142 372.055 208.079C372.055 207.015 371.189 206.148 370.125 206.148Z" fill="#292D74"/>
<path d="M66.2112 367.625C65.1397 367.625 64.2734 368.491 64.2734 369.555C64.2734 370.619 65.1397 371.485 66.2112 371.485C67.2751 371.485 68.1414 370.619 68.1414 369.555C68.1414 368.491 67.2751 367.625 66.2112 367.625Z" fill="#292D74"/>
<path d="M53.8542 154.805C52.8131 154.569 52.1596 153.536 52.3952 152.487C52.6308 151.453 53.6718 150.8 54.7053 151.035C55.7464 151.271 56.3999 152.304 56.1643 153.346C55.9591 154.242 55.1612 154.85 54.2797 154.85C54.143 154.85 53.9986 154.835 53.8542 154.805ZM42.0605 150.678C41.103 150.215 40.7002 149.06 41.1638 148.102C41.6273 147.137 42.7824 146.734 43.7399 147.198C44.7049 147.661 45.1077 148.816 44.6441 149.774C44.3098 150.465 43.6183 150.868 42.904 150.868C42.6228 150.868 42.334 150.807 42.0605 150.678ZM31.4978 144.029C30.6619 143.36 30.5251 142.145 31.1938 141.309C31.8549 140.48 33.0708 140.344 33.9067 141.005C34.7426 141.673 34.8793 142.889 34.2106 143.725C33.8307 144.196 33.2683 144.447 32.6984 144.447C32.2805 144.447 31.8549 144.31 31.4978 144.029ZM22.6677 135.199C22.0065 134.363 22.1357 133.147 22.9716 132.486C23.8075 131.817 25.0234 131.954 25.6845 132.79C26.3532 133.626 26.2164 134.834 25.3805 135.503C25.0234 135.784 24.6054 135.928 24.1799 135.928C23.6099 135.928 23.0476 135.678 22.6677 135.199ZM16.0185 124.636C15.5549 123.671 15.9577 122.516 16.9152 122.053C17.8803 121.589 19.0277 121.992 19.4989 122.957C19.9548 123.914 19.5596 125.069 18.5946 125.533C18.321 125.662 18.0398 125.723 17.7587 125.723C17.0368 125.723 16.3528 125.32 16.0185 124.636ZM11.8922 112.85C11.6566 111.809 12.3025 110.768 13.3436 110.532C14.3847 110.297 15.4182 110.95 15.6537 111.991C15.8969 113.033 15.2434 114.066 14.2023 114.302C14.0579 114.332 13.9135 114.347 13.7692 114.347C12.8877 114.347 12.0974 113.739 11.8922 112.85Z" fill="#292D74"/>
<path d="M10.5 100.438C10.5 99.3663 11.3663 98.5 12.4302 98.5C13.5016 98.5 14.3679 99.3663 14.3679 100.438C14.3679 101.502 13.5016 102.368 12.4302 102.368C11.3663 102.368 10.5 101.502 10.5 100.438Z" fill="#292D74"/>
<path d="M13.346 90.3362C12.3049 90.093 11.6514 89.0595 11.8946 88.0261C12.1301 86.985 13.1636 86.3315 14.2047 86.5671C15.2457 86.8026 15.8917 87.8361 15.6561 88.8772C15.4585 89.7739 14.6606 90.3818 13.7791 90.3818C13.6347 90.3818 13.4904 90.3666 13.346 90.3362ZM16.9175 78.8084C15.9601 78.3525 15.5497 77.1974 16.0132 76.2323C16.4768 75.2749 17.6318 74.8721 18.5969 75.3356C19.5544 75.7992 19.9572 76.9542 19.4936 77.9117C19.1593 78.6032 18.4753 79.006 17.7534 79.006C17.4723 79.006 17.1835 78.9452 16.9175 78.8084ZM22.974 68.3825C22.1381 67.7138 22.0013 66.4979 22.67 65.6696C23.3311 64.8337 24.547 64.697 25.3829 65.3657C26.2188 66.0268 26.3556 67.2426 25.6868 68.0785C25.3069 68.5573 24.7446 68.8005 24.1746 68.8005C23.7567 68.8005 23.3311 68.6637 22.974 68.3825ZM31.1886 59.5524C30.5275 58.7241 30.6642 57.5083 31.4925 56.8395C32.3284 56.1708 33.5443 56.3076 34.213 57.1435C34.8741 57.9794 34.7373 59.1876 33.909 59.8564C33.5519 60.1451 33.1263 60.2819 32.7008 60.2819C32.1309 60.2819 31.5761 60.0311 31.1886 59.5524ZM41.1585 52.7664C40.695 51.8014 41.0977 50.6539 42.0628 50.1828C43.0203 49.7268 44.1754 50.1296 44.6389 51.087C45.1024 52.0445 44.6997 53.1996 43.7346 53.6631C43.4686 53.7999 43.1799 53.8607 42.8987 53.8607C42.1844 53.8607 41.4929 53.458 41.1585 52.7664ZM52.3899 48.3742C52.1544 47.3331 52.8079 46.2996 53.849 46.0641C54.89 45.8285 55.9235 46.4744 56.1591 47.5155C56.3946 48.5566 55.7411 49.59 54.7001 49.8256C54.5557 49.8636 54.4113 49.8788 54.2745 49.8788C53.393 49.8788 52.5951 49.2709 52.3899 48.3742Z" fill="#292D74"/>
<path d="M250.024 46.602C250.024 45.5382 250.891 44.6719 251.962 44.6719C253.026 44.6719 253.892 45.5382 253.892 46.602C253.892 47.6735 253.026 48.5322 251.962 48.5322C250.891 48.5322 250.024 47.6735 250.024 46.602ZM238.421 46.602C238.421 45.5382 239.287 44.6719 240.351 44.6719C241.415 44.6719 242.281 45.5382 242.281 46.602C242.281 47.6735 241.415 48.5322 240.351 48.5322C239.287 48.5322 238.421 47.6735 238.421 46.602ZM226.817 46.602C226.817 45.5382 227.676 44.6719 228.747 44.6719C229.811 44.6719 230.677 45.5382 230.677 46.602C230.677 47.6735 229.811 48.5322 228.747 48.5322C227.676 48.5322 226.817 47.6735 226.817 46.602ZM215.205 46.602C215.205 45.5382 216.072 44.6719 217.136 44.6719C218.207 44.6719 219.073 45.5382 219.073 46.602C219.073 47.6735 218.207 48.5322 217.136 48.5322C216.072 48.5322 215.205 47.6735 215.205 46.602ZM203.602 46.602C203.602 45.5382 204.468 44.6719 205.532 44.6719C206.603 44.6719 207.462 45.5382 207.462 46.602C207.462 47.6735 206.603 48.5322 205.532 48.5322C204.468 48.5322 203.602 47.6735 203.602 46.602ZM191.998 46.602C191.998 45.5382 192.864 44.6719 193.928 44.6719C194.992 44.6719 195.858 45.5382 195.858 46.602C195.858 47.6735 194.992 48.5322 193.928 48.5322C192.864 48.5322 191.998 47.6735 191.998 46.602ZM180.387 46.602C180.387 45.5382 181.253 44.6719 182.324 44.6719C183.388 44.6719 184.254 45.5382 184.254 46.602C184.254 47.6735 183.388 48.5322 182.324 48.5322C181.253 48.5322 180.387 47.6735 180.387 46.602ZM168.783 46.602C168.783 45.5382 169.649 44.6719 170.713 44.6719C171.784 44.6719 172.643 45.5382 172.643 46.602C172.643 47.6735 171.784 48.5322 170.713 48.5322C169.649 48.5322 168.783 47.6735 168.783 46.602ZM157.179 46.602C157.179 45.5382 158.045 44.6719 159.109 44.6719C160.173 44.6719 161.039 45.5382 161.039 46.602C161.039 47.6735 160.173 48.5322 159.109 48.5322C158.045 48.5322 157.179 47.6735 157.179 46.602ZM145.575 46.602C145.575 45.5382 146.434 44.6719 147.505 44.6719C148.569 44.6719 149.436 45.5382 149.436 46.602C149.436 47.6735 148.569 48.5322 147.505 48.5322C146.434 48.5322 145.575 47.6735 145.575 46.602ZM133.964 46.602C133.964 45.5382 134.83 44.6719 135.894 44.6719C136.966 44.6719 137.832 45.5382 137.832 46.602C137.832 47.6735 136.966 48.5322 135.894 48.5322C134.83 48.5322 133.964 47.6735 133.964 46.602ZM122.36 46.602C122.36 45.5382 123.226 44.6719 124.29 44.6719C125.362 44.6719 126.22 45.5382 126.22 46.602C126.22 47.6735 125.362 48.5322 124.29 48.5322C123.226 48.5322 122.36 47.6735 122.36 46.602ZM110.756 46.602C110.756 45.5382 111.623 44.6719 112.687 44.6719C113.75 44.6719 114.617 45.5382 114.617 46.602C114.617 47.6735 113.75 48.5322 112.687 48.5322C111.623 48.5322 110.756 47.6735 110.756 46.602ZM99.145 46.602C99.145 45.5382 100.011 44.6719 101.083 44.6719C102.147 44.6719 103.013 45.5382 103.013 46.602C103.013 47.6735 102.147 48.5322 101.083 48.5322C100.011 48.5322 99.145 47.6735 99.145 46.602ZM87.5413 46.602C87.5413 45.5382 88.4076 44.6719 89.4714 44.6719C90.5429 44.6719 91.4016 45.5382 91.4016 46.602C91.4016 47.6735 90.5429 48.5322 89.4714 48.5322C88.4076 48.5322 87.5413 47.6735 87.5413 46.602ZM75.9375 46.602C75.9375 45.5382 76.7962 44.6719 77.8677 44.6719C78.9315 44.6719 79.7978 45.5382 79.7978 46.602C79.7978 47.6735 78.9315 48.5322 77.8677 48.5322C76.7962 48.5322 75.9375 47.6735 75.9375 46.602Z" fill="#292D74"/>
</g>
<path d="M278.03 141.018C275.75 143.538 272.702 144.798 268.886 144.798C265.07 144.798 262.01 143.538 259.706 141.018C257.426 138.498 256.286 135.282 256.286 131.37C256.286 127.458 257.426 124.242 259.706 121.722C262.01 119.202 265.07 117.942 268.886 117.942C272.702 117.942 275.75 119.202 278.03 121.722C280.334 124.242 281.486 127.458 281.486 131.37C281.486 135.282 280.334 138.498 278.03 141.018ZM262.046 139.002C263.678 140.97 265.958 141.954 268.886 141.954C271.814 141.954 274.094 140.97 275.726 139.002C277.358 137.034 278.174 134.49 278.174 131.37C278.174 128.25 277.358 125.706 275.726 123.738C274.094 121.746 271.814 120.75 268.886 120.75C265.958 120.75 263.678 121.746 262.046 123.738C260.414 125.706 259.598 128.25 259.598 131.37C259.598 134.49 260.414 137.034 262.046 139.002ZM283.908 144.258V118.518H301.368V121.362H287.148V129.39H298.992V132.126H287.148V144.258H283.908Z" fill="white"/>
<path d="M172.717 36.6641V10.9241L190.897 10.9241V13.7681L175.957 13.7681V21.9041L189.529 21.9041V24.6401L175.957 24.6401V33.6761H191.329V36.6641H172.717ZM200.943 36.6641V25.7561L191.619 10.9241H195.219L202.599 23.1641H202.671L210.159 10.9241H213.615L204.183 25.8281V36.6641L200.943 36.6641ZM214.942 36.6641V10.9241L233.122 10.9241V13.7681L218.182 13.7681V21.9041L231.754 21.9041V24.6401L218.182 24.6401V33.6761L233.554 33.6761V36.6641L214.942 36.6641Z" fill="white"/>
<path d="M98.9604 229.19V226.346H119.336V229.19H110.768V252.086H107.528V229.19H98.9604ZM121.113 252.086V226.346H124.353V237.29H138.105V226.346H141.345V252.086H138.105V239.918H124.353V252.086H121.113ZM144.739 252.086V226.346L162.919 226.346V229.19H147.979V237.326L161.551 237.326V240.062L147.979 240.062V249.098L163.351 249.098V252.086L144.739 252.086Z" fill="white"/>
<path d="M241.496 359.562V333.822H244.916L256.652 351.714L258.524 355.026H258.596V333.822H261.62V359.562H258.308L246.5 341.634L244.592 338.43H244.52V359.562H241.496ZM265.017 359.562V333.822H283.197V336.666H268.257V344.802H281.829V347.538H268.257V356.574H283.629V359.562H265.017ZM285.972 359.562V333.822H304.152V336.666H289.212V344.802H302.784V347.538H289.212V356.574H304.584V359.562H285.972ZM306.926 359.562V333.822H316.286C320.054 333.822 322.898 334.986 324.818 337.314C326.738 339.642 327.698 342.798 327.698 346.782C327.698 350.742 326.702 353.862 324.71 356.142C322.718 358.422 319.826 359.562 316.034 359.562H306.926ZM310.166 356.718H315.926C321.566 356.718 324.386 353.406 324.386 346.782C324.386 340.014 321.65 336.63 316.178 336.63H310.166V356.718ZM330.096 359.562V333.822H333.336V356.574H346.836V359.562H330.096ZM348.589 359.562V333.822H366.769V336.666H351.829V344.802H365.401V347.538H351.829V356.574H367.201V359.562H348.589Z" fill="white"/>
</g>
<defs>
<clipPath id="clip0_1109_439">
<rect width="397" height="388" fill="white" transform="translate(0.5)"/>
</clipPath>
</defs>
</svg>
