<svg width="1921" height="1080" viewBox="0 0 1921 1080" fill="none" xmlns="http://www.w3.org/2000/svg">
<rect width="1920" height="1080" transform="translate(0.5)" fill="#CED7E9"/>
<path d="M44.1248 63.6776C40.4262 63.6776 37.4758 62.3083 35.2736 59.5697C33.0997 56.831 32.0127 53.1466 32.0127 48.5163C32.0127 43.886 33.1138 40.2016 35.316 37.4629C37.5182 34.7243 40.4686 33.355 44.1671 33.355C47.8939 33.355 50.8302 34.7243 52.9759 37.4629C55.1499 40.1733 56.2369 43.8578 56.2369 48.5163C56.2369 53.1466 55.1499 56.831 52.9759 59.5697C50.8302 62.3083 47.8798 63.6776 44.1248 63.6776ZM44.1671 58.765C48.2045 58.765 50.2232 55.3488 50.2232 48.5163C50.2232 45.2977 49.7291 42.7849 48.7409 40.978C47.7528 39.1711 46.2282 38.2676 44.1671 38.2676C42.0779 38.2676 40.525 39.1711 39.5086 40.978C38.5205 42.7849 38.0264 45.2977 38.0264 48.5163C38.0264 51.7349 38.5205 54.2477 39.5086 56.0546C40.525 57.8615 42.0779 58.765 44.1671 58.765ZM70.883 63.6776C67.1845 63.6776 64.2341 62.3083 62.0319 59.5697C59.8579 56.831 58.7709 53.1466 58.7709 48.5163C58.7709 43.886 59.872 40.2016 62.0742 37.4629C64.2764 34.7243 67.2268 33.355 70.9254 33.355C74.6522 33.355 77.5885 34.7243 79.7342 37.4629C81.9082 40.1733 82.9951 43.8578 82.9951 48.5163C82.9951 53.1466 81.9082 56.831 79.7342 59.5697C77.5885 62.3083 74.6381 63.6776 70.883 63.6776ZM70.9254 58.765C74.9628 58.765 76.9814 55.3488 76.9814 48.5163C76.9814 45.2977 76.4874 42.7849 75.4992 40.978C74.511 39.1711 72.9864 38.2676 70.9254 38.2676C68.8361 38.2676 67.2833 39.1711 66.2669 40.978C65.2787 42.7849 64.7846 45.2977 64.7846 48.5163C64.7846 51.7349 65.2787 54.2477 66.2669 56.0546C67.2833 57.8615 68.8361 58.765 70.9254 58.765ZM96.3284 63.6353C92.6581 63.6353 89.8489 62.7035 87.9008 60.8401C85.9527 58.9485 84.9504 56.3793 84.8939 53.1324H90.3994C90.6253 57.0569 92.5311 59.0191 96.1167 59.0191C97.726 59.0191 98.9824 58.6097 99.8858 57.791C100.789 56.9439 101.241 55.7864 101.241 54.3182C101.241 52.9066 100.789 51.8055 99.8858 51.0149C98.9824 50.2244 97.6554 49.8291 95.9049 49.8291H94.1262V45.4671H95.7779C97.1896 45.4671 98.3189 45.1283 99.1659 44.4507C100.041 43.7731 100.479 42.8273 100.479 41.6133C100.479 40.4557 100.112 39.5381 99.3776 38.8605C98.6436 38.1547 97.6413 37.8017 96.3708 37.8017C94.7897 37.8017 93.5616 38.2676 92.6863 39.1993C91.8393 40.131 91.3876 41.3874 91.3311 42.9684H85.8256C85.9386 40.0322 86.8985 37.7029 88.7054 35.9807C90.5124 34.2585 93.0675 33.3973 96.3708 33.3973C99.42 33.3973 101.834 34.1032 103.613 35.5148C105.42 36.9265 106.323 38.8323 106.323 41.2321C106.323 44.2248 104.671 46.2576 101.368 47.3305V47.4152C105.293 48.3751 107.255 50.8032 107.255 54.6994C107.255 57.5792 106.224 59.7955 104.163 61.3484C102.102 62.873 99.4906 63.6353 96.3284 63.6353Z" fill="#344899"/>
<mask id="mask0_1009_8394" style="mask-type:luminance" maskUnits="userSpaceOnUse" x="1133" y="388" width="557" height="617">
<path d="M1689.35 433.924L1133.77 388.906V1004.22H1689.35V433.924Z" fill="white"/>
</mask>
<g mask="url(#mask0_1009_8394)">
<path d="M1227.64 715.069H1543.99C1618.85 715.069 1679.76 654.157 1679.76 579.298C1679.76 504.439 1618.85 443.547 1543.99 443.547H1143.38V961.64" stroke="#2E499E" stroke-width="2"/>
<path d="M1227.64 723.796H1543.99C1623.66 723.796 1688.49 658.967 1688.49 579.3C1688.49 499.634 1623.66 434.805 1543.99 434.805H1134.64V961.64" stroke="#2E499E" stroke-width="2"/>
</g>
<path d="M30.4141 286.437H1567.4C1634.64 286.437 1689.35 231.766 1689.35 164.558C1689.35 97.3503 1634.64 42.6797 1567.4 42.6797H215.174" stroke="#2E499E" stroke-width="2"/>
<path d="M30.4141 295.164H1567.41C1639.45 295.164 1698.09 236.584 1698.09 164.558C1698.09 92.533 1639.47 33.9531 1567.41 33.9531L215.178 33.9546" stroke="#2E499E" stroke-width="2"/>
<path d="M1794.75 994.55H263.326C188.615 994.55 127.844 933.759 127.844 859.068C127.844 784.377 188.615 723.586 263.326 723.566H780.041M780.041 714.859H263.326C188.615 714.859 127.844 654.068 127.844 579.377C127.844 504.686 188.635 443.875 263.326 443.875H780.041M780.041 435.148H263.326C183.818 435.148 119.117 499.849 119.117 579.357C119.117 646.743 165.574 703.467 228.142 719.203C165.574 734.958 119.117 791.682 119.117 859.068C119.117 938.596 183.818 1003.28 263.326 1003.28H1794.75" stroke="#2E499E" stroke-width="2" stroke-miterlimit="10"/>
<path d="M217.809 147.531H216.809V148.531H217.809V147.531ZM217.809 76.0312V75.0312H216.809V76.0312H217.809ZM267.509 85.7312L266.738 86.3675L267.509 85.7312ZM267.209 138.031L267.962 138.689L267.209 138.031ZM226.809 139.631H225.809V140.631H226.809V139.631ZM226.809 83.8312V82.8312H225.809V83.8312H226.809ZM218.809 147.531V76.0312H216.809V147.531H218.809ZM217.809 77.0312H243.809V75.0312H217.809V77.0312ZM243.809 77.0312C254.058 77.0312 261.641 80.1871 266.738 86.3675L268.281 85.095C262.711 78.342 254.494 75.0312 243.809 75.0312V77.0312ZM266.738 86.3675C271.882 92.6047 274.509 101.122 274.509 112.031H276.509C276.509 100.807 273.803 91.7912 268.281 85.095L266.738 86.3675ZM274.509 112.031C274.509 122.865 271.787 131.272 266.456 137.373L267.962 138.689C273.699 132.124 276.509 123.197 276.509 112.031H274.509ZM266.456 137.373C261.159 143.436 253.433 146.531 243.109 146.531V148.531C253.853 148.531 262.193 145.293 267.962 138.689L266.456 137.373ZM243.109 146.531H217.809V148.531H243.109V146.531ZM226.809 140.631H242.809V138.631H226.809V140.631ZM242.809 140.631C250.843 140.631 257.036 138.265 261.196 133.38C265.329 128.525 267.309 121.35 267.309 112.031H265.309C265.309 121.113 263.373 127.738 259.673 132.083C255.999 136.398 250.443 138.631 242.809 138.631V140.631ZM267.309 112.031C267.309 102.523 265.392 95.2056 261.387 90.2525C257.35 85.2588 251.326 82.8312 243.509 82.8312V84.8312C250.892 84.8312 256.269 87.1037 259.832 91.51C263.427 95.9569 265.309 102.74 265.309 112.031H267.309ZM243.509 82.8312H226.809V84.8312H243.509V82.8312ZM225.809 83.8312V139.631H227.809V83.8312H225.809ZM282.169 147.531H281.169V148.531H282.169V147.531ZM282.169 76.0312V75.0312H281.169V76.0312H282.169ZM332.669 76.0312H333.669V75.0312H332.669V76.0312ZM332.669 83.9312V84.9312H333.669V83.9312H332.669ZM291.169 83.9312V82.9312H290.169V83.9312H291.169ZM291.169 106.531H290.169V107.531H291.169V106.531ZM328.869 106.531H329.869V105.531H328.869V106.531ZM328.869 114.131V115.131H329.869V114.131H328.869ZM291.169 114.131V113.131H290.169V114.131H291.169ZM291.169 139.231H290.169V140.231H291.169V139.231ZM333.869 139.231H334.869V138.231H333.869V139.231ZM333.869 147.531V148.531H334.869V147.531H333.869ZM283.169 147.531V76.0312H281.169V147.531H283.169ZM282.169 77.0312H332.669V75.0312H282.169V77.0312ZM331.669 76.0312V83.9312H333.669V76.0312H331.669ZM332.669 82.9312H291.169V84.9312H332.669V82.9312ZM290.169 83.9312V106.531H292.169V83.9312H290.169ZM291.169 107.531H328.869V105.531H291.169V107.531ZM327.869 106.531V114.131H329.869V106.531H327.869ZM328.869 113.131L291.169 113.131V115.131L328.869 115.131V113.131ZM290.169 114.131V139.231H292.169V114.131H290.169ZM291.169 140.231H333.869V138.231L291.169 138.231V140.231ZM332.869 139.231V147.531H334.869V139.231H332.869ZM333.869 146.531H282.169V148.531H333.869V146.531ZM340.376 147.531H339.376V148.531H340.376V147.531ZM340.376 76.0312V75.0312H339.376V76.0312H340.376ZM387.176 82.9312L386.41 83.5747L386.417 83.582L387.176 82.9312ZM386.176 112.031L386.864 112.757L386.176 112.031ZM349.376 117.531V116.531H348.376V117.531H349.376ZM349.376 147.531V148.531H350.376V147.531H349.376ZM349.376 83.8312V82.8312H348.376V83.8312H349.376ZM349.376 110.231H348.376V111.231H349.376V110.231ZM379.276 106.731L378.598 105.996L378.589 106.005L379.276 106.731ZM379.276 87.2312L378.599 87.9676L378.609 87.9771L378.62 87.9863L379.276 87.2312ZM341.376 147.531V76.0312H339.376V147.531H341.376ZM340.376 77.0312L370.176 77.0312V75.0312L340.376 75.0312V77.0312ZM370.176 77.0312C377.425 77.0312 382.779 79.2543 386.41 83.5747L387.941 82.2878C383.84 77.4082 377.86 75.0312 370.176 75.0312V77.0312ZM386.417 83.582C389.448 87.1182 390.976 91.4148 390.976 96.5312H392.976C392.976 90.981 391.304 86.2109 387.935 82.2805L386.417 83.582ZM390.976 96.5312C390.976 102.997 389.108 107.873 385.488 111.306L386.864 112.757C390.977 108.856 392.976 103.399 392.976 96.5312H390.976ZM385.488 111.306C381.875 114.732 376.398 116.531 368.876 116.531V118.531C376.687 118.531 382.744 116.664 386.864 112.757L385.488 111.306ZM368.876 116.531H349.376V118.531H368.876V116.531ZM348.376 117.531V147.531H350.376V117.531H348.376ZM349.376 146.531L340.376 146.531V148.531L349.376 148.531V146.531ZM348.376 83.8312V110.231H350.376V83.8312H348.376ZM349.376 111.231H368.176V109.231H349.376V111.231ZM368.176 111.231C373.25 111.231 377.241 110.032 379.963 107.458L378.589 106.005C376.377 108.097 372.968 109.231 368.176 109.231V111.231ZM379.953 107.467C382.736 104.904 384.076 101.345 384.076 96.9312H382.076C382.076 100.918 380.882 103.892 378.598 105.996L379.953 107.467ZM384.076 96.9312C384.076 92.4595 382.74 88.9153 379.931 86.4762L378.62 87.9863C380.878 89.9472 382.076 92.8697 382.076 96.9312H384.076ZM379.952 86.4949C377.242 84.0041 373.432 82.8312 368.676 82.8312V84.8312C373.12 84.8312 376.376 85.925 378.599 87.9676L379.952 86.4949ZM368.676 82.8312H349.376V84.8312H368.676V82.8312ZM396.63 147.531H395.63V148.531H396.63V147.531ZM396.63 76.0312V75.0312H395.63V76.0312H396.63ZM408.13 76.0312L409.061 75.6674L408.813 75.0312H408.13V76.0312ZM431.33 135.431L430.398 135.795L430.647 136.431H431.33V135.431ZM431.53 135.431V136.431H432.215L432.462 135.792L431.53 135.431ZM454.53 76.0312V75.0312H453.845L453.597 75.6702L454.53 76.0312ZM466.23 76.0312H467.23V75.0312H466.23V76.0312ZM466.23 147.531V148.531H467.23V147.531H466.23ZM457.63 147.531H456.63V148.531H457.63V147.531ZM457.63 88.7312H458.63V87.7312H457.63V88.7312ZM457.43 88.7312V87.7312H456.713L456.483 88.41L457.43 88.7312ZM454.23 97.7312L455.16 98.0975L455.164 98.0884L454.23 97.7312ZM434.63 147.531V148.531H435.311L435.56 147.897L434.63 147.531ZM427.73 147.531L426.799 147.897L427.049 148.531H427.73V147.531ZM408.13 97.7312L407.187 98.0663L407.193 98.082L407.199 98.0975L408.13 97.7312ZM404.93 88.7312L405.872 88.3962L405.635 87.7312H404.93V88.7312ZM404.73 88.7312V87.7312H403.73V88.7312H404.73ZM404.73 147.531V148.531H405.73V147.531H404.73ZM397.63 147.531V76.0312H395.63V147.531H397.63ZM396.63 77.0312H408.13V75.0312H396.63V77.0312ZM407.198 76.3951L430.398 135.795L432.261 135.067L409.061 75.6674L407.198 76.3951ZM431.33 136.431H431.53V134.431H431.33V136.431ZM432.462 135.792L455.462 76.3923L453.597 75.6702L430.597 135.07L432.462 135.792ZM454.53 77.0312H466.23V75.0312H454.53V77.0312ZM465.23 76.0312V147.531H467.23V76.0312H465.23ZM466.23 146.531H457.63V148.531H466.23V146.531ZM458.63 147.531V88.7312H456.63V147.531H458.63ZM457.63 87.7312H457.43V89.7312H457.63V87.7312ZM456.483 88.41C455.218 92.1377 454.156 95.1243 453.296 97.3741L455.164 98.0884C456.037 95.8049 457.108 92.7915 458.377 89.0525L456.483 88.41ZM453.299 97.365L433.699 147.165L435.56 147.897L455.16 98.0975L453.299 97.365ZM434.63 146.531L427.73 146.531V148.531L434.63 148.531V146.531ZM428.66 147.165L409.06 97.365L407.199 98.0975L426.799 147.897L428.66 147.165ZM409.072 97.3962L405.872 88.3962L403.987 89.0663L407.187 98.0663L409.072 97.3962ZM404.93 87.7312H404.73V89.7312H404.93V87.7312ZM403.73 88.7312V147.531H405.73V88.7312H403.73ZM404.73 146.531H396.63V148.531H404.73V146.531ZM469.938 147.531L468.999 147.186L468.504 148.531H469.938V147.531ZM496.237 76.0312V75.0312H495.54L495.299 75.686L496.237 76.0312ZM506.337 76.0312L507.276 75.6849L507.034 75.0312H506.337V76.0312ZM532.737 147.531V148.531H534.173L533.676 147.185L532.737 147.531ZM522.938 147.531L521.993 147.86L522.227 148.531H522.938V147.531ZM515.337 125.731L516.282 125.402L516.048 124.731H515.337V125.731ZM486.837 125.731V124.731H486.13L485.895 125.398L486.837 125.731ZM479.138 147.531V148.531H479.845L480.08 147.864L479.138 147.531ZM497.938 94.4312L498.88 94.7651L498.884 94.7544L497.938 94.4312ZM489.438 118.431L488.495 118.097L488.022 119.431H489.438V118.431ZM512.837 118.431V119.431H514.236L513.784 118.108L512.837 118.431ZM504.638 94.4312L503.684 94.7333L503.688 94.744L503.691 94.7546L504.638 94.4312ZM501.438 84.3312L502.391 84.0292L502.17 83.3312H501.438V84.3312ZM501.237 84.3312V83.3312H500.505L500.284 84.0294L501.237 84.3312ZM470.876 147.876L497.176 76.3765L495.299 75.686L468.999 147.186L470.876 147.876ZM496.237 77.0312H506.337V75.0312H496.237V77.0312ZM505.399 76.3776L531.799 147.878L533.676 147.185L507.276 75.6849L505.399 76.3776ZM532.737 146.531H522.938V148.531H532.737V146.531ZM523.882 147.202L516.282 125.402L514.393 126.06L521.993 147.86L523.882 147.202ZM515.337 124.731L486.837 124.731V126.731L515.337 126.731V124.731ZM485.895 125.398L478.195 147.198L480.08 147.864L487.78 126.064L485.895 125.398ZM479.138 146.531H469.938V148.531H479.138V146.531ZM496.995 94.0974L488.495 118.097L490.38 118.765L498.88 94.7651L496.995 94.0974ZM489.438 119.431L512.837 119.431V117.431L489.438 117.431V119.431ZM513.784 118.108L505.584 94.1079L503.691 94.7546L511.891 118.755L513.784 118.108ZM505.591 94.1292L502.391 84.0292L500.484 84.6333L503.684 94.7333L505.591 94.1292ZM501.438 83.3312H501.237V85.3312H501.438V83.3312ZM500.284 84.0294C499.019 88.0251 497.921 91.3842 496.991 94.1081L498.884 94.7544C499.82 92.0116 500.923 88.6374 502.191 84.6331L500.284 84.0294ZM536.481 147.531H535.481V148.531H536.481V147.531ZM536.481 76.0312V75.0312H535.481V76.0312H536.481ZM583.281 82.9312L582.516 83.5747L582.522 83.582L583.281 82.9312ZM582.281 112.031L582.969 112.757H582.969L582.281 112.031ZM545.481 117.531V116.531H544.481V117.531H545.481ZM545.481 147.531V148.531H546.481V147.531H545.481ZM545.481 83.8312V82.8312H544.481V83.8312H545.481ZM545.481 110.231H544.481V111.231H545.481V110.231ZM575.381 106.731L574.704 105.996L574.694 106.005L575.381 106.731ZM575.381 87.2312L574.705 87.9676L574.715 87.9771L574.726 87.9863L575.381 87.2312ZM537.481 147.531V76.0312H535.481V147.531H537.481ZM536.481 77.0312H566.281V75.0312H536.481V77.0312ZM566.281 77.0312C573.531 77.0312 578.884 79.2543 582.516 83.5747L584.047 82.2878C579.945 77.4082 573.965 75.0312 566.281 75.0312V77.0312ZM582.522 83.582C585.553 87.1182 587.081 91.4148 587.081 96.5312H589.081C589.081 90.981 587.409 86.2109 584.04 82.2805L582.522 83.582ZM587.081 96.5312C587.081 102.997 585.213 107.873 581.593 111.306L582.969 112.757C587.083 108.856 589.081 103.399 589.081 96.5312H587.081ZM581.593 111.306C577.98 114.732 572.504 116.531 564.981 116.531V118.531C572.792 118.531 578.849 116.664 582.969 112.757L581.593 111.306ZM564.981 116.531H545.481V118.531H564.981V116.531ZM544.481 117.531V147.531H546.481V117.531H544.481ZM545.481 146.531H536.481V148.531H545.481V146.531ZM544.481 83.8312V110.231H546.481V83.8312H544.481ZM545.481 111.231H564.281V109.231H545.481V111.231ZM564.281 111.231C569.355 111.231 573.347 110.032 576.068 107.458L574.694 106.005C572.482 108.097 569.074 109.231 564.281 109.231V111.231ZM576.059 107.467C578.842 104.904 580.181 101.345 580.181 96.9312H578.181C578.181 100.918 576.987 103.892 574.704 105.996L576.059 107.467ZM580.181 96.9312C580.181 92.4595 578.846 88.9153 576.037 86.4762L574.726 87.9863C576.984 89.9472 578.181 92.8697 578.181 96.9312H580.181ZM576.058 86.4949C573.347 84.0041 569.537 82.8312 564.781 82.8312V84.8312C569.225 84.8312 572.482 85.925 574.705 87.9676L576.058 86.4949ZM564.781 82.8312H545.481V84.8312H564.781V82.8312Z" fill="#2E499E"/>
<path d="M423.169 681.602H422.169V682.602H423.169V681.602ZM423.169 610.102V609.102H422.169V610.102H423.169ZM469.969 617.002L469.203 617.645L469.209 617.652L469.969 617.002ZM468.969 646.102L469.657 646.827L468.969 646.102ZM432.169 651.602V650.602H431.169V651.602H432.169ZM432.169 681.602V682.602H433.169V681.602H432.169ZM432.169 617.902V616.902H431.169V617.902H432.169ZM432.169 644.302H431.169V645.302H432.169V644.302ZM462.069 640.802L461.391 640.066L461.382 640.075L462.069 640.802ZM462.069 621.302L461.392 622.038L461.402 622.047L461.413 622.057L462.069 621.302ZM424.169 681.602V610.102H422.169V681.602H424.169ZM423.169 611.102H452.969V609.102H423.169V611.102ZM452.969 611.102C460.218 611.102 465.572 613.325 469.203 617.645L470.734 616.358C466.633 611.478 460.653 609.102 452.969 609.102V611.102ZM469.209 617.652C472.241 621.189 473.769 625.485 473.769 630.602H475.769C475.769 625.051 474.097 620.281 470.728 616.351L469.209 617.652ZM473.769 630.602C473.769 637.067 471.901 641.943 468.281 645.376L469.657 646.827C473.77 642.927 475.769 637.469 475.769 630.602H473.769ZM468.281 645.376C464.668 648.802 459.191 650.602 451.669 650.602V652.602C459.48 652.602 465.537 650.734 469.657 646.827L468.281 645.376ZM451.669 650.602H432.169V652.602H451.669V650.602ZM431.169 651.602V681.602H433.169V651.602H431.169ZM432.169 680.602H423.169V682.602H432.169V680.602ZM431.169 617.902V644.302H433.169V617.902H431.169ZM432.169 645.302H450.969V643.302H432.169V645.302ZM450.969 645.302C456.043 645.302 460.034 644.103 462.756 641.528L461.382 640.075C459.17 642.167 455.761 643.302 450.969 643.302V645.302ZM462.746 641.537C465.529 638.974 466.869 635.415 466.869 631.002H464.869C464.869 634.988 463.675 637.963 461.391 640.066L462.746 641.537ZM466.869 631.002C466.869 626.53 465.533 622.986 462.724 620.547L461.413 622.057C463.671 624.017 464.869 626.94 464.869 631.002H466.869ZM462.745 620.565C460.035 618.074 456.225 616.902 451.469 616.902V618.902C455.913 618.902 459.169 619.995 461.392 622.038L462.745 620.565ZM451.469 616.902H432.169V618.902H451.469V616.902ZM468.254 681.602L467.315 681.256L466.821 682.602H468.254V681.602ZM494.554 610.102V609.102H493.856L493.615 609.756L494.554 610.102ZM504.654 610.102L505.592 609.755L505.351 609.102H504.654V610.102ZM531.054 681.602V682.602H532.489L531.992 681.255L531.054 681.602ZM521.254 681.602L520.31 681.931L520.544 682.602H521.254V681.602ZM513.654 659.802L514.598 659.472L514.364 658.802H513.654V659.802ZM485.154 659.802V658.802H484.447L484.211 659.469L485.154 659.802ZM477.454 681.602V682.602H478.161L478.397 681.935L477.454 681.602ZM496.254 628.502L497.197 628.835L497.2 628.825L496.254 628.502ZM487.754 652.502L486.811 652.168L486.339 653.502H487.754V652.502ZM511.154 652.502V653.502H512.552L512.1 652.178L511.154 652.502ZM502.954 628.502L502.001 628.804L502.004 628.814L502.008 628.825L502.954 628.502ZM499.754 618.402L500.707 618.1L500.486 617.402H499.754V618.402ZM499.554 618.402V617.402H498.822L498.601 618.1L499.554 618.402ZM469.192 681.947L495.492 610.447L493.615 609.756L467.315 681.256L469.192 681.947ZM494.554 611.102H504.654V609.102H494.554V611.102ZM503.716 610.448L530.116 681.948L531.992 681.255L505.592 609.755L503.716 610.448ZM531.054 680.602H521.254V682.602H531.054V680.602ZM522.198 681.272L514.598 659.472L512.71 660.131L520.31 681.931L522.198 681.272ZM513.654 658.802H485.154V660.802H513.654V658.802ZM484.211 659.469L476.511 681.269L478.397 681.935L486.097 660.135L484.211 659.469ZM477.454 680.602H468.254V682.602H477.454V680.602ZM495.311 628.168L486.811 652.168L488.697 652.835L497.197 628.835L495.311 628.168ZM487.754 653.502H511.154V651.502H487.754V653.502ZM512.1 652.178L503.9 628.178L502.008 628.825L510.208 652.825L512.1 652.178ZM503.907 628.2L500.707 618.1L498.801 618.704L502.001 628.804L503.907 628.2ZM499.754 617.402H499.554V619.402H499.754V617.402ZM498.601 618.1C497.335 622.095 496.238 625.455 495.308 628.178L497.2 628.825C498.137 626.082 499.239 622.708 500.507 618.703L498.601 618.1ZM521.313 618.002H520.313V619.002H521.313V618.002ZM521.313 610.102V609.102H520.313V610.102H521.313ZM577.913 610.102H578.913V609.102H577.913V610.102ZM577.913 618.002V619.002H578.913V618.002H577.913ZM554.113 618.002V617.002H553.113V618.002H554.113ZM554.113 681.602V682.602H555.113V681.602H554.113ZM545.113 681.602H544.113V682.602H545.113V681.602ZM545.113 618.002H546.113V617.002H545.113V618.002ZM522.313 618.002V610.102H520.313V618.002H522.313ZM521.313 611.102H577.913V609.102H521.313V611.102ZM576.913 610.102V618.002H578.913V610.102H576.913ZM577.913 617.002H554.113V619.002H577.913V617.002ZM553.113 618.002V681.602H555.113V618.002H553.113ZM554.113 680.602H545.113V682.602H554.113V680.602ZM546.113 681.602V618.002H544.113V681.602H546.113ZM545.113 617.002H521.313V619.002H545.113V617.002ZM583.048 681.602H582.048V682.602H583.048V681.602ZM583.048 610.102V609.102H582.048V610.102H583.048ZM592.048 610.102H593.048V609.102H592.048V610.102ZM592.048 681.602V682.602H593.048V681.602H592.048ZM584.048 681.602V610.102H582.048V681.602H584.048ZM583.048 611.102H592.048V609.102H583.048V611.102ZM591.048 610.102V681.602H593.048V610.102H591.048ZM592.048 680.602H583.048V682.602H592.048V680.602ZM601.602 681.602H600.602V682.602H601.602V681.602ZM601.602 610.102V609.102H600.602V610.102H601.602ZM652.102 610.102H653.102V609.102H652.102V610.102ZM652.102 618.002V619.002H653.102V618.002H652.102ZM610.602 618.002V617.002H609.602V618.002H610.602ZM610.602 640.602H609.602V641.602H610.602V640.602ZM648.302 640.602H649.302V639.602H648.302V640.602ZM648.302 648.202V649.202H649.302V648.202H648.302ZM610.602 648.202V647.202H609.602V648.202H610.602ZM610.602 673.302H609.602V674.302H610.602V673.302ZM653.302 673.302H654.302V672.302H653.302V673.302ZM653.302 681.602V682.602H654.302V681.602H653.302ZM602.602 681.602V610.102H600.602V681.602H602.602ZM601.602 611.102H652.102V609.102H601.602V611.102ZM651.102 610.102V618.002H653.102V610.102H651.102ZM652.102 617.002H610.602V619.002H652.102V617.002ZM609.602 618.002V640.602H611.602V618.002H609.602ZM610.602 641.602H648.302V639.602H610.602V641.602ZM647.302 640.602V648.202H649.302V640.602H647.302ZM648.302 647.202H610.602V649.202H648.302V647.202ZM609.602 648.202V673.302H611.602V648.202H609.602ZM610.602 674.302H653.302V672.302H610.602V674.302ZM652.302 673.302V681.602H654.302V673.302H652.302ZM653.302 680.602H601.602V682.602H653.302V680.602ZM659.809 681.602H658.809V682.602H659.809V681.602ZM659.809 610.102V609.102H658.809V610.102H659.809ZM669.309 610.102L670.146 609.553L669.849 609.102H669.309V610.102ZM701.909 659.802L702.78 659.31L702.764 659.281L702.746 659.253L701.909 659.802ZM707.109 669.002L706.239 669.494L706.526 670.002H707.109V669.002ZM707.309 669.002V670.002H708.309V669.002H707.309ZM707.309 610.102V609.102H706.309V610.102H707.309ZM715.709 610.102H716.709V609.102H715.709V610.102ZM715.709 681.602V682.602H716.709V681.602H715.709ZM706.509 681.602L705.674 682.152L705.971 682.602H706.509V681.602ZM673.709 631.802L672.85 632.313L672.862 632.333L672.874 632.352L673.709 631.802ZM668.409 622.902L669.269 622.39L668.978 621.902H668.409V622.902ZM668.209 622.902V621.902H667.209V622.902H668.209ZM668.209 681.602V682.602H669.209V681.602H668.209ZM660.809 681.602V610.102H658.809V681.602H660.809ZM659.809 611.102H669.309V609.102H659.809V611.102ZM668.473 610.65L701.073 660.35L702.746 659.253L670.146 609.553L668.473 610.65ZM701.039 660.294L706.239 669.494L707.98 668.51L702.78 659.31L701.039 660.294ZM707.109 670.002H707.309V668.002H707.109V670.002ZM708.309 669.002V610.102H706.309V669.002H708.309ZM707.309 611.102H715.709V609.102H707.309V611.102ZM714.709 610.102V681.602H716.709V610.102H714.709ZM715.709 680.602H706.509V682.602H715.709V680.602ZM707.345 681.052L674.544 631.252L672.874 632.352L705.674 682.152L707.345 681.052ZM674.569 631.29L669.269 622.39L667.55 623.413L672.85 632.313L674.569 631.29ZM668.409 621.902H668.209V623.902H668.409V621.902ZM667.209 622.902V681.602H669.209V622.902H667.209ZM668.209 680.602H659.809V682.602H668.209V680.602ZM720.645 618.002H719.645V619.002H720.645V618.002ZM720.645 610.102V609.102H719.645V610.102H720.645ZM777.245 610.102H778.245V609.102H777.245V610.102ZM777.245 618.002V619.002H778.245V618.002H777.245ZM753.445 618.002V617.002H752.445V618.002H753.445ZM753.445 681.602V682.602H754.445V681.602H753.445ZM744.445 681.602H743.445V682.602H744.445V681.602ZM744.445 618.002H745.445V617.002H744.445V618.002ZM721.645 618.002V610.102H719.645V618.002H721.645ZM720.645 611.102L777.245 611.102V609.102L720.645 609.102V611.102ZM776.245 610.102V618.002H778.245V610.102H776.245ZM777.245 617.002L753.445 617.002V619.002L777.245 619.002V617.002ZM752.445 618.002V681.602H754.445V618.002H752.445ZM753.445 680.602H744.445V682.602H753.445V680.602ZM745.445 681.602V618.002H743.445V681.602H745.445ZM744.445 617.002H720.645V619.002H744.445V617.002Z" fill="#2E499E"/>
<path d="M1134.77 400.719L1133.83 400.374L1133.33 401.719H1134.77V400.719ZM1161.07 329.219V328.219H1160.37L1160.13 328.874L1161.07 329.219ZM1171.17 329.219L1172.1 328.872L1171.86 328.219H1171.17V329.219ZM1197.57 400.719V401.719H1199L1198.5 400.372L1197.57 400.719ZM1187.77 400.719L1186.82 401.048L1187.06 401.719H1187.77V400.719ZM1180.17 378.919L1181.11 378.59L1180.88 377.919H1180.17V378.919ZM1151.67 378.919V377.919H1150.96L1150.72 378.586L1151.67 378.919ZM1143.97 400.719V401.719H1144.67L1144.91 401.052L1143.97 400.719ZM1162.77 347.619L1163.71 347.953L1163.71 347.942L1162.77 347.619ZM1154.27 371.619L1153.32 371.285L1152.85 372.619H1154.27V371.619ZM1177.67 371.619V372.619H1179.06L1178.61 371.295L1177.67 371.619ZM1169.47 347.619L1168.51 347.921L1168.52 347.931L1168.52 347.942L1169.47 347.619ZM1166.27 337.519L1167.22 337.217L1167 336.519H1166.27V337.519ZM1166.07 337.519V336.519H1165.33L1165.11 337.217L1166.07 337.519ZM1135.7 401.064L1162 329.564L1160.13 328.874L1133.83 400.374L1135.7 401.064ZM1161.07 330.219H1171.17V328.219H1161.07V330.219ZM1170.23 329.565L1196.63 401.065L1198.5 400.372L1172.1 328.872L1170.23 329.565ZM1197.57 399.719H1187.77V401.719H1197.57V399.719ZM1188.71 400.39L1181.11 378.59L1179.22 379.248L1186.82 401.048L1188.71 400.39ZM1180.17 377.919H1151.67V379.919H1180.17V377.919ZM1150.72 378.586L1143.02 400.386L1144.91 401.052L1152.61 379.252L1150.72 378.586ZM1143.97 399.719H1134.77V401.719H1143.97V399.719ZM1161.82 347.285L1153.32 371.285L1155.21 371.953L1163.71 347.953L1161.82 347.285ZM1154.27 372.619H1177.67V370.619H1154.27V372.619ZM1178.61 371.295L1170.41 347.295L1168.52 347.942L1176.72 371.942L1178.61 371.295ZM1170.42 347.317L1167.22 337.217L1165.31 337.821L1168.51 347.921L1170.42 347.317ZM1166.27 336.519H1166.07V338.519H1166.27V336.519ZM1165.11 337.217C1163.85 341.213 1162.75 344.572 1161.82 347.296L1163.71 347.942C1164.65 345.199 1165.75 341.825 1167.02 337.821L1165.11 337.217ZM1201.31 400.719H1200.31V401.719H1201.31V400.719ZM1201.31 329.219V328.219H1200.31V329.219H1201.31ZM1210.81 329.219L1211.65 328.67L1211.35 328.219H1210.81V329.219ZM1243.41 378.919L1244.28 378.427L1244.26 378.398L1244.25 378.37L1243.41 378.919ZM1248.61 388.119L1247.74 388.611L1248.03 389.119H1248.61V388.119ZM1248.81 388.119V389.119H1249.81V388.119H1248.81ZM1248.81 329.219V328.219H1247.81V329.219H1248.81ZM1257.21 329.219H1258.21V328.219H1257.21V329.219ZM1257.21 400.719V401.719H1258.21V400.719H1257.21ZM1248.01 400.719L1247.17 401.269L1247.47 401.719H1248.01V400.719ZM1215.21 350.919L1214.35 351.43L1214.36 351.45L1214.37 351.469L1215.21 350.919ZM1209.91 342.019L1210.77 341.507L1210.48 341.019H1209.91V342.019ZM1209.71 342.019V341.019H1208.71V342.019H1209.71ZM1209.71 400.719V401.719H1210.71V400.719H1209.71ZM1202.31 400.719V329.219H1200.31V400.719H1202.31ZM1201.31 330.219H1210.81V328.219H1201.31V330.219ZM1209.97 329.767L1242.57 379.467L1244.25 378.37L1211.65 328.67L1209.97 329.767ZM1242.54 379.411L1247.74 388.611L1249.48 387.627L1244.28 378.427L1242.54 379.411ZM1248.61 389.119H1248.81V387.119H1248.61V389.119ZM1249.81 388.119V329.219H1247.81V388.119H1249.81ZM1248.81 330.219H1257.21V328.219H1248.81V330.219ZM1256.21 329.219V400.719H1258.21V329.219H1256.21ZM1257.21 399.719H1248.01V401.719H1257.21V399.719ZM1248.84 400.169L1216.04 350.369L1214.37 351.469L1247.17 401.269L1248.84 400.169ZM1216.07 350.407L1210.77 341.507L1209.05 342.53L1214.35 351.43L1216.07 350.407ZM1209.91 341.019H1209.71V343.019H1209.91V341.019ZM1208.71 342.019V400.719H1210.71V342.019H1208.71ZM1209.71 399.719H1201.31V401.719H1209.71V399.719ZM1266.65 400.719H1265.65V401.719H1266.65V400.719ZM1266.65 329.219V328.219H1265.65V329.219H1266.65ZM1316.35 338.919L1315.57 339.555L1316.35 338.919ZM1316.05 391.219L1316.8 391.877L1316.05 391.219ZM1275.65 392.819H1274.65V393.819H1275.65V392.819ZM1275.65 337.019V336.019H1274.65V337.019H1275.65ZM1267.65 400.719V329.219H1265.65V400.719H1267.65ZM1266.65 330.219H1292.65V328.219H1266.65V330.219ZM1292.65 330.219C1302.89 330.219 1310.48 333.375 1315.57 339.555L1317.12 338.282C1311.55 331.53 1303.33 328.219 1292.65 328.219V330.219ZM1315.57 339.555C1320.72 345.792 1323.35 354.309 1323.35 365.219H1325.35C1325.35 353.995 1322.64 344.979 1317.12 338.282L1315.57 339.555ZM1323.35 365.219C1323.35 376.053 1320.62 384.46 1315.29 390.561L1316.8 391.877C1322.53 385.311 1325.35 376.385 1325.35 365.219H1323.35ZM1315.29 390.561C1310 396.624 1302.27 399.719 1291.95 399.719V401.719C1302.69 401.719 1311.03 398.48 1316.8 391.877L1315.29 390.561ZM1291.95 399.719H1266.65V401.719H1291.95V399.719ZM1275.65 393.819H1291.65V391.819H1275.65V393.819ZM1291.65 393.819C1299.68 393.819 1305.87 391.452 1310.03 386.567C1314.17 381.712 1316.15 374.537 1316.15 365.219H1314.15C1314.15 374.3 1312.21 380.925 1308.51 385.27C1304.84 389.585 1299.28 391.819 1291.65 391.819V393.819ZM1316.15 365.219C1316.15 355.71 1314.23 348.393 1310.22 343.44C1306.19 338.446 1300.16 336.019 1292.35 336.019V338.019C1299.73 338.019 1305.11 340.291 1308.67 344.697C1312.26 349.144 1314.15 355.927 1314.15 365.219H1316.15ZM1292.35 336.019H1275.65V338.019H1292.35V336.019ZM1274.65 337.019V392.819H1276.65V337.019H1274.65Z" fill="#2E499E"/>
<path d="M1470.38 962.562H1469.38V963.562H1470.38V962.562ZM1470.38 891.062V890.062H1469.38V891.062H1470.38ZM1479.38 891.062H1480.38V890.062H1479.38V891.062ZM1479.38 962.562V963.562H1480.38V962.562H1479.38ZM1471.38 962.562V891.062H1469.38V962.562H1471.38ZM1470.38 892.062H1479.38V890.062H1470.38V892.062ZM1478.38 891.062V962.562H1480.38V891.062H1478.38ZM1479.38 961.562H1470.38V963.562H1479.38V961.562ZM1488.93 962.562H1487.93V963.562H1488.93V962.562ZM1488.93 891.062V890.062H1487.93V891.062H1488.93ZM1500.43 891.062L1501.36 890.699L1501.11 890.062H1500.43V891.062ZM1523.63 950.462L1522.7 950.826L1522.95 951.462H1523.63V950.462ZM1523.83 950.462V951.462H1524.52L1524.76 950.824L1523.83 950.462ZM1546.83 891.062V890.062H1546.15L1545.9 890.701L1546.83 891.062ZM1558.53 891.062H1559.53V890.062H1558.53V891.062ZM1558.53 962.562V963.562H1559.53V962.562H1558.53ZM1549.93 962.562H1548.93V963.562H1549.93V962.562ZM1549.93 903.762H1550.93V902.762H1549.93V903.762ZM1549.73 903.762V902.762H1549.01L1548.78 903.441L1549.73 903.762ZM1546.53 912.762L1547.46 913.129L1547.46 913.12L1546.53 912.762ZM1526.93 962.562V963.562H1527.61L1527.86 962.929L1526.93 962.562ZM1520.03 962.562L1519.1 962.929L1519.35 963.562H1520.03V962.562ZM1500.43 912.762L1499.49 913.098L1499.49 913.113L1499.5 913.129L1500.43 912.762ZM1497.23 903.762L1498.17 903.427L1497.94 902.762H1497.23V903.762ZM1497.03 903.762V902.762H1496.03V903.762H1497.03ZM1497.03 962.562V963.562H1498.03V962.562H1497.03ZM1489.93 962.562V891.062H1487.93V962.562H1489.93ZM1488.93 892.062H1500.43V890.062H1488.93V892.062ZM1499.5 891.426L1522.7 950.826L1524.56 950.099L1501.36 890.699L1499.5 891.426ZM1523.63 951.462H1523.83V949.462H1523.63V951.462ZM1524.76 950.824L1547.76 891.424L1545.9 890.701L1522.9 950.101L1524.76 950.824ZM1546.83 892.062H1558.53V890.062H1546.83V892.062ZM1557.53 891.062V962.562H1559.53V891.062H1557.53ZM1558.53 961.562H1549.93V963.562H1558.53V961.562ZM1550.93 962.562V903.762H1548.93V962.562H1550.93ZM1549.93 902.762H1549.73V904.762H1549.93V902.762ZM1548.78 903.441C1547.52 907.169 1546.46 910.156 1545.6 912.405L1547.46 913.12C1548.34 910.836 1549.41 907.823 1550.68 904.084L1548.78 903.441ZM1545.6 912.396L1526 962.196L1527.86 962.929L1547.46 913.129L1545.6 912.396ZM1526.93 961.562H1520.03V963.562H1526.93V961.562ZM1520.96 962.196L1501.36 912.396L1499.5 913.129L1519.1 962.929L1520.96 962.196ZM1501.37 912.427L1498.17 903.427L1496.29 904.098L1499.49 913.098L1501.37 912.427ZM1497.23 902.762H1497.03V904.762H1497.23V902.762ZM1496.03 903.762V962.562H1498.03V903.762H1496.03ZM1497.03 961.562H1488.93V963.562H1497.03V961.562ZM1567.94 962.562H1566.94V963.562H1567.94V962.562ZM1567.94 891.062V890.062H1566.94V891.062H1567.94ZM1614.74 897.962L1613.97 898.606L1613.98 898.613L1614.74 897.962ZM1613.74 927.062L1614.43 927.788L1613.74 927.062ZM1576.94 932.562V931.562H1575.94V932.562H1576.94ZM1576.94 962.562V963.562H1577.94V962.562H1576.94ZM1576.94 898.862V897.862H1575.94V898.862H1576.94ZM1576.94 925.262H1575.94V926.262H1576.94V925.262ZM1606.84 921.762L1606.16 921.027L1606.15 921.036L1606.84 921.762ZM1606.84 902.262L1606.16 902.999L1606.17 903.008L1606.18 903.018L1606.84 902.262ZM1568.94 962.562V891.062H1566.94V962.562H1568.94ZM1567.94 892.062H1597.74V890.062H1567.94V892.062ZM1597.74 892.062C1604.99 892.062 1610.34 894.286 1613.97 898.606L1615.5 897.319C1611.4 892.439 1605.42 890.062 1597.74 890.062V892.062ZM1613.98 898.613C1617.01 902.149 1618.54 906.446 1618.54 911.562H1620.54C1620.54 906.012 1618.87 901.242 1615.5 897.312L1613.98 898.613ZM1618.54 911.562C1618.54 918.028 1616.67 922.904 1613.05 926.337L1614.43 927.788C1618.54 923.887 1620.54 918.43 1620.54 911.562H1618.54ZM1613.05 926.337C1609.44 929.763 1603.96 931.562 1596.44 931.562V933.562C1604.25 933.562 1610.31 931.695 1614.43 927.788L1613.05 926.337ZM1596.44 931.562H1576.94V933.562H1596.44V931.562ZM1575.94 932.562V962.562H1577.94V932.562H1575.94ZM1576.94 961.562H1567.94V963.562H1576.94V961.562ZM1575.94 898.862V925.262H1577.94V898.862H1575.94ZM1576.94 926.262H1595.74V924.262H1576.94V926.262ZM1595.74 926.262C1600.81 926.262 1604.8 925.064 1607.53 922.489L1606.15 921.036C1603.94 923.128 1600.53 924.262 1595.74 924.262V926.262ZM1607.52 922.498C1610.3 919.935 1611.64 916.376 1611.64 911.962H1609.64C1609.64 915.949 1608.44 918.924 1606.16 921.027L1607.52 922.498ZM1611.64 911.962C1611.64 907.491 1610.3 903.947 1607.49 901.507L1606.18 903.018C1608.44 904.978 1609.64 907.901 1609.64 911.962H1611.64ZM1607.51 901.526C1604.8 899.035 1600.99 897.862 1596.24 897.862V899.862C1600.68 899.862 1603.94 900.956 1606.16 902.999L1607.51 901.526ZM1596.24 897.862H1576.94V899.862H1596.24V897.862ZM1613.02 962.562L1612.08 962.217L1611.59 963.562H1613.02V962.562ZM1639.32 891.062V890.062H1638.63L1638.38 890.717L1639.32 891.062ZM1649.42 891.062L1650.36 890.716L1650.12 890.062H1649.42V891.062ZM1675.82 962.562V963.562H1677.26L1676.76 962.216L1675.82 962.562ZM1666.02 962.562L1665.08 962.892L1665.31 963.562H1666.02V962.562ZM1658.42 940.763L1659.37 940.433L1659.13 939.763H1658.42V940.763ZM1629.92 940.763V939.763H1629.22L1628.98 940.429L1629.92 940.763ZM1622.22 962.562V963.562H1622.93L1623.17 962.896L1622.22 962.562ZM1641.02 909.462L1641.97 909.796L1641.97 909.786L1641.02 909.462ZM1632.52 933.462L1631.58 933.129L1631.11 934.462H1632.52V933.462ZM1655.92 933.462V934.462H1657.32L1656.87 933.139L1655.92 933.462ZM1647.72 909.462L1646.77 909.765L1646.77 909.775L1646.78 909.786L1647.72 909.462ZM1644.52 899.362L1645.48 899.06L1645.26 898.362H1644.52V899.362ZM1644.32 899.362V898.362H1643.59L1643.37 899.061L1644.32 899.362ZM1613.96 962.908L1640.26 891.408L1638.38 890.717L1612.08 962.217L1613.96 962.908ZM1639.32 892.062H1649.42V890.062H1639.32V892.062ZM1648.49 891.409L1674.89 962.909L1676.76 962.216L1650.36 890.716L1648.49 891.409ZM1675.82 961.562H1666.02V963.562H1675.82V961.562ZM1666.97 962.233L1659.37 940.433L1657.48 941.092L1665.08 962.892L1666.97 962.233ZM1658.42 939.763H1629.92V941.763H1658.42V939.763ZM1628.98 940.429L1621.28 962.229L1623.17 962.896L1630.87 941.096L1628.98 940.429ZM1622.22 961.562H1613.02V963.562H1622.22V961.562ZM1640.08 909.129L1631.58 933.129L1633.47 933.796L1641.97 909.796L1640.08 909.129ZM1632.52 934.462H1655.92V932.462H1632.52V934.462ZM1656.87 933.139L1648.67 909.139L1646.78 909.786L1654.98 933.786L1656.87 933.139ZM1648.68 909.16L1645.48 899.06L1643.57 899.665L1646.77 909.765L1648.68 909.16ZM1644.52 898.362H1644.32V900.362H1644.52V898.362ZM1643.37 899.061C1642.1 903.056 1641.01 906.415 1640.08 909.139L1641.97 909.786C1642.91 907.043 1644.01 903.669 1645.28 899.664L1643.37 899.061ZM1682.55 953.562L1681.8 954.225L1682.55 953.562ZM1682.45 900.062L1681.7 899.407L1681.7 899.408L1682.45 900.062ZM1726.95 895.762L1727.59 894.997L1726.95 895.762ZM1735.95 912.262V913.262H1737.11L1736.94 912.117L1735.95 912.262ZM1727.15 912.262L1726.17 912.45L1726.32 913.262H1727.15V912.262ZM1720.55 901.362L1719.93 902.148L1719.94 902.153L1720.55 901.362ZM1689.05 905.562L1689.84 906.184L1689.84 906.179L1689.05 905.562ZM1689.25 948.062L1688.48 948.7L1688.49 948.71L1689.25 948.062ZM1721.95 950.462L1721.23 949.775L1721.22 949.782L1721.95 950.462ZM1727.95 936.362V935.362H1727.03L1726.95 936.28L1727.95 936.362ZM1736.85 936.362L1737.85 936.381L1737.87 935.362H1736.85V936.362ZM1734.35 947.262L1733.43 946.869L1733.43 946.877L1734.35 947.262ZM1728.25 956.463L1727.55 955.746L1727.55 955.746L1728.25 956.463ZM1706.85 962.963C1697.04 962.963 1689.23 959.598 1683.3 952.9L1681.8 954.225C1688.14 961.393 1696.53 964.963 1706.85 964.963V962.963ZM1683.3 952.9C1677.36 946.182 1674.35 937.498 1674.35 926.763H1672.35C1672.35 937.893 1675.48 947.077 1681.8 954.225L1683.3 952.9ZM1674.35 926.763C1674.35 916.161 1677.32 907.506 1683.21 900.717L1681.7 899.408C1675.45 906.619 1672.35 915.764 1672.35 926.763H1674.35ZM1683.21 900.718C1689.13 893.896 1697.11 890.462 1707.25 890.462V888.462C1696.6 888.462 1688.04 892.096 1681.7 899.407L1683.21 900.718ZM1707.25 890.462C1715.21 890.462 1721.53 892.514 1726.31 896.528L1727.59 894.997C1722.37 890.611 1715.56 888.462 1707.25 888.462V890.462ZM1726.31 896.528C1731.11 900.562 1734 905.836 1734.96 912.408L1736.94 912.117C1735.91 905.089 1732.79 899.363 1727.59 894.997L1726.31 896.528ZM1735.95 911.262H1727.15V913.262H1735.95V911.262ZM1728.13 912.075C1727.22 907.311 1724.9 903.459 1721.16 900.572L1719.94 902.153C1723.27 904.732 1725.35 908.148 1726.17 912.45L1728.13 912.075ZM1721.17 900.577C1717.49 897.673 1712.75 896.262 1707.05 896.262V898.262C1712.42 898.262 1716.68 899.586 1719.93 902.148L1721.17 900.577ZM1707.05 896.262C1699.11 896.262 1692.81 899.146 1688.26 904.946L1689.84 906.179C1693.96 900.912 1699.66 898.262 1707.05 898.262V896.262ZM1688.27 904.941C1683.76 910.624 1681.55 917.926 1681.55 926.763H1683.55C1683.55 918.265 1685.67 911.434 1689.84 906.184L1688.27 904.941ZM1681.55 926.763C1681.55 935.734 1683.83 943.079 1688.48 948.7L1690.02 947.425C1685.74 942.246 1683.55 935.391 1683.55 926.763H1681.55ZM1688.49 948.71C1693.23 954.281 1699.48 957.062 1707.15 957.062V955.062C1700.03 955.062 1694.34 952.51 1690.01 947.415L1688.49 948.71ZM1707.15 957.062C1713.75 957.062 1718.98 955.13 1722.68 951.143L1721.22 949.782C1717.99 953.262 1713.35 955.062 1707.15 955.062V957.062ZM1722.68 951.15C1726.38 947.234 1728.46 942.312 1728.95 936.445L1726.95 936.28C1726.5 941.746 1724.59 946.225 1721.23 949.775L1722.68 951.15ZM1727.95 937.362H1736.85V935.362H1727.95V937.362ZM1735.85 936.344C1735.79 939.73 1734.99 943.236 1733.43 946.869L1735.27 947.656C1736.91 943.822 1737.78 940.062 1737.85 936.381L1735.85 936.344ZM1733.43 946.877C1731.94 950.435 1729.98 953.384 1727.55 955.746L1728.95 957.179C1731.59 954.607 1733.7 951.424 1735.27 947.648L1733.43 946.877ZM1727.55 955.746C1722.65 960.518 1715.8 962.963 1706.85 962.963V964.963C1716.17 964.963 1723.58 962.407 1728.95 957.179L1727.55 955.746ZM1735.91 898.962H1734.91V899.962H1735.91V898.962ZM1735.91 891.062V890.062H1734.91V891.062H1735.91ZM1792.51 891.062H1793.51V890.062H1792.51V891.062ZM1792.51 898.962V899.962H1793.51V898.962H1792.51ZM1768.71 898.962V897.962H1767.71V898.962H1768.71ZM1768.71 962.562V963.562H1769.71V962.562H1768.71ZM1759.71 962.562H1758.71V963.562H1759.71V962.562ZM1759.71 898.962H1760.71V897.962H1759.71V898.962ZM1736.91 898.962V891.062H1734.91V898.962H1736.91ZM1735.91 892.062H1792.51V890.062H1735.91V892.062ZM1791.51 891.062V898.962H1793.51V891.062H1791.51ZM1792.51 897.962H1768.71V899.962H1792.51V897.962ZM1767.71 898.962V962.562H1769.71V898.962H1767.71ZM1768.71 961.562H1759.71V963.562H1768.71V961.562ZM1760.71 962.562V898.962H1758.71V962.562H1760.71ZM1759.71 897.962H1735.91V899.962H1759.71V897.962Z" fill="#2E499E"/>
</svg>
