<svg width="389" height="581" viewBox="0 0 389 581" fill="none" xmlns="http://www.w3.org/2000/svg">
<rect x="0.5" y="0.296875" width="388" height="580" rx="15.7878" fill="#CED7E9"/>
<path d="M15.652 20.6475C14.2427 20.6475 13.0853 20.1622 12.18 19.1915C11.284 18.2115 10.836 16.9702 10.836 15.4675C10.836 13.9555 11.2747 12.7048 12.152 11.7155C13.0293 10.7262 14.1913 10.2315 15.638 10.2315C16.8327 10.2315 17.7893 10.5488 18.508 11.1835C19.236 11.8088 19.656 12.6162 19.768 13.6055H17.752C17.6587 13.0922 17.4253 12.6862 17.052 12.3875C16.688 12.0888 16.2167 11.9395 15.638 11.9395C14.7513 11.9395 14.0747 12.2662 13.608 12.9195C13.1413 13.5728 12.908 14.4222 12.908 15.4675C12.908 16.5035 13.1553 17.3482 13.65 18.0015C14.154 18.6548 14.8213 18.9815 15.652 18.9815C16.24 18.9815 16.73 18.8228 17.122 18.5055C17.514 18.1788 17.7427 17.7495 17.808 17.2175H19.796C19.74 18.1602 19.3713 18.9488 18.69 19.5835C17.934 20.2928 16.9213 20.6475 15.652 20.6475ZM20.7143 20.4375V10.4275H22.6183V20.4375H20.7143ZM23.8719 20.4375V13.2555H25.7759V20.4375H23.8719ZM23.8719 12.1355V10.4275H25.7759V12.1355H23.8719ZM28.8647 13.2555V14.2355H28.9067C29.4014 13.4515 30.1107 13.0595 31.0347 13.0595C31.7721 13.0595 32.3694 13.3115 32.8267 13.8155C33.2841 14.3102 33.5127 14.9542 33.5127 15.7475V20.4375H31.6087V16.0275C31.6087 15.6355 31.4967 15.3182 31.2727 15.0755C31.0581 14.8328 30.7547 14.7115 30.3627 14.7115C29.9427 14.7115 29.5927 14.8655 29.3127 15.1735C29.0421 15.4815 28.9067 15.8782 28.9067 16.3635V20.4375H27.0027V13.2555H28.8647ZM34.6863 20.4375V13.2555H36.5903V20.4375H34.6863ZM34.6863 12.1355V10.4275H36.5903V12.1355H34.6863ZM41.1492 20.6475C40.0385 20.6475 39.1472 20.2882 38.4752 19.5695C37.8032 18.8508 37.4672 17.9455 37.4672 16.8535C37.4672 15.7615 37.7938 14.8562 38.4472 14.1375C39.1098 13.4188 39.9778 13.0595 41.0512 13.0595C41.9565 13.0595 42.6938 13.2975 43.2632 13.7735C43.8325 14.2495 44.1825 14.8888 44.3132 15.6915H42.4512C42.3858 15.3648 42.2365 15.0988 42.0032 14.8935C41.7698 14.6882 41.4805 14.5855 41.1352 14.5855C40.5752 14.5855 40.1458 14.7862 39.8472 15.1875C39.5485 15.5888 39.3992 16.1442 39.3992 16.8535C39.3992 17.5535 39.5438 18.1088 39.8332 18.5195C40.1225 18.9208 40.5472 19.1215 41.1072 19.1215C41.9378 19.1215 42.4185 18.7155 42.5492 17.9035H44.3832C44.3178 18.6968 43.9958 19.3548 43.4172 19.8775C42.8385 20.3908 42.0825 20.6475 41.1492 20.6475ZM49.8724 20.4375C49.779 20.3162 49.7044 20.0502 49.6484 19.6395H49.6204C49.415 19.9475 49.1537 20.1855 48.8364 20.3535C48.519 20.5215 48.0757 20.6055 47.5064 20.6055C46.7504 20.6055 46.1437 20.4142 45.6864 20.0315C45.229 19.6488 45.0004 19.1075 45.0004 18.4075C45.0004 17.6795 45.2524 17.1475 45.7564 16.8115C46.2604 16.4662 46.9697 16.2282 47.8844 16.0975C48.5564 16.0042 49.0137 15.9108 49.2564 15.8175C49.499 15.7148 49.6204 15.5375 49.6204 15.2855C49.6204 15.0242 49.5177 14.8188 49.3124 14.6695C49.107 14.5108 48.8084 14.4315 48.4164 14.4315C47.5484 14.4315 47.0864 14.7675 47.0304 15.4395H45.3364C45.3644 14.7582 45.6397 14.1935 46.1624 13.7455C46.685 13.2975 47.441 13.0735 48.4304 13.0735C50.4464 13.0735 51.4544 13.9555 51.4544 15.7195V19.3735C51.4544 19.9148 51.5384 20.2462 51.7064 20.3675V20.4375H49.8724ZM47.9684 19.2755C48.491 19.2755 48.9017 19.1402 49.2004 18.8695C49.5084 18.5988 49.6624 18.2768 49.6624 17.9035V16.8255C49.457 16.9468 49.0137 17.0868 48.3324 17.2455C47.791 17.3668 47.4084 17.5068 47.1844 17.6655C46.9604 17.8148 46.8484 18.0482 46.8484 18.3655C46.8484 18.9722 47.2217 19.2755 47.9684 19.2755ZM52.6928 20.4375V10.4275H54.5968V20.4375H52.6928ZM57.8379 12.1355V10.4275H65.8879V12.1355H62.8779V20.4375H60.8479V12.1355H57.8379ZM67.6102 13.2555V14.4035H67.6522C67.8762 13.9835 68.1235 13.6755 68.3942 13.4795C68.6648 13.2742 69.0055 13.1715 69.4162 13.1715C69.6122 13.1715 69.7615 13.1902 69.8642 13.2275V14.8935H69.8222C69.1782 14.8282 68.6602 14.9682 68.2682 15.3135C67.8762 15.6588 67.6802 16.2002 67.6802 16.9375V20.4375H65.7762V13.2555H67.6102ZM70.6844 20.4375V13.2555H72.5884V20.4375H70.6844ZM70.6844 12.1355V10.4275H72.5884V12.1355H70.6844ZM78.3372 20.4375C78.2439 20.3162 78.1692 20.0502 78.1132 19.6395H78.0852C77.8799 19.9475 77.6186 20.1855 77.3012 20.3535C76.9839 20.5215 76.5406 20.6055 75.9712 20.6055C75.2152 20.6055 74.6086 20.4142 74.1512 20.0315C73.6939 19.6488 73.4652 19.1075 73.4652 18.4075C73.4652 17.6795 73.7172 17.1475 74.2212 16.8115C74.7252 16.4662 75.4346 16.2282 76.3492 16.0975C77.0212 16.0042 77.4786 15.9108 77.7212 15.8175C77.9639 15.7148 78.0852 15.5375 78.0852 15.2855C78.0852 15.0242 77.9826 14.8188 77.7772 14.6695C77.5719 14.5108 77.2732 14.4315 76.8812 14.4315C76.0132 14.4315 75.5512 14.7675 75.4952 15.4395H73.8012C73.8292 14.7582 74.1046 14.1935 74.6272 13.7455C75.1499 13.2975 75.9059 13.0735 76.8952 13.0735C78.9112 13.0735 79.9192 13.9555 79.9192 15.7195V19.3735C79.9192 19.9148 80.0032 20.2462 80.1712 20.3675V20.4375H78.3372ZM76.4332 19.2755C76.9559 19.2755 77.3666 19.1402 77.6652 18.8695C77.9732 18.5988 78.1272 18.2768 78.1272 17.9035V16.8255C77.9219 16.9468 77.4786 17.0868 76.7972 17.2455C76.2559 17.3668 75.8732 17.5068 75.6492 17.6655C75.4252 17.8148 75.3132 18.0482 75.3132 18.3655C75.3132 18.9722 75.6866 19.2755 76.4332 19.2755ZM81.1577 20.4375V10.4275H83.0617V20.4375H81.1577ZM87.2272 20.6475C86.2006 20.6475 85.3979 20.4235 84.8192 19.9755C84.2406 19.5182 83.9232 18.8975 83.8672 18.1135H85.6312C85.7526 18.9068 86.2752 19.3035 87.1992 19.3035C87.6192 19.3035 87.9412 19.2288 88.1652 19.0795C88.3986 18.9302 88.5152 18.7295 88.5152 18.4775C88.5152 18.3842 88.4966 18.3002 88.4592 18.2255C88.4312 18.1508 88.3752 18.0855 88.2912 18.0295C88.2166 17.9642 88.1466 17.9128 88.0812 17.8755C88.0252 17.8382 87.9226 17.8008 87.7732 17.7635C87.6239 17.7262 87.5072 17.6982 87.4232 17.6795C87.3486 17.6608 87.2132 17.6375 87.0172 17.6095C86.8306 17.5722 86.6999 17.5442 86.6252 17.5255C86.2332 17.4508 85.9112 17.3762 85.6592 17.3015C85.4166 17.2175 85.1599 17.1008 84.8892 16.9515C84.6186 16.7928 84.4132 16.5828 84.2732 16.3215C84.1426 16.0508 84.0772 15.7288 84.0772 15.3555C84.0772 14.6088 84.3479 14.0395 84.8892 13.6475C85.4399 13.2555 86.1446 13.0595 87.0032 13.0595C87.9272 13.0595 88.6506 13.2742 89.1732 13.7035C89.7052 14.1235 90.0086 14.7022 90.0832 15.4395H88.3612C88.2866 14.7395 87.8246 14.3895 86.9752 14.3895C86.5926 14.3895 86.2892 14.4595 86.0652 14.5995C85.8506 14.7395 85.7432 14.9355 85.7432 15.1875C85.7432 15.2715 85.7572 15.3508 85.7852 15.4255C85.8226 15.4908 85.8786 15.5515 85.9532 15.6075C86.0372 15.6542 86.1166 15.6962 86.1912 15.7335C86.2659 15.7615 86.3732 15.7942 86.5132 15.8315C86.6532 15.8595 86.7746 15.8875 86.8772 15.9155C86.9799 15.9342 87.1199 15.9622 87.2972 15.9995C87.4746 16.0275 87.6146 16.0508 87.7172 16.0695C88.0159 16.1348 88.2586 16.1955 88.4452 16.2515C88.6412 16.2982 88.8652 16.3822 89.1172 16.5035C89.3692 16.6155 89.5652 16.7462 89.7052 16.8955C89.8546 17.0355 89.9806 17.2315 90.0832 17.4835C90.1952 17.7262 90.2512 18.0108 90.2512 18.3375C90.2512 19.0468 89.9712 19.6115 89.4112 20.0315C88.8606 20.4422 88.1326 20.6475 87.2272 20.6475ZM93.0417 14.5715V13.2555H94.0217V12.6115C94.0217 11.7715 94.311 11.1742 94.8897 10.8195C95.4684 10.4648 96.243 10.3388 97.2137 10.4415V11.9115C96.7377 11.8928 96.4017 11.9348 96.2057 12.0375C96.019 12.1402 95.9257 12.3688 95.9257 12.7235V13.2555H97.2137V14.5715H95.9257V20.4375H94.0217V14.5715H93.0417ZM103.982 19.5695C103.282 20.2882 102.381 20.6475 101.28 20.6475C100.178 20.6475 99.2777 20.2882 98.5777 19.5695C97.8777 18.8415 97.5277 17.9362 97.5277 16.8535C97.5277 15.7708 97.8777 14.8702 98.5777 14.1515C99.2777 13.4235 100.178 13.0595 101.28 13.0595C102.381 13.0595 103.282 13.4235 103.982 14.1515C104.682 14.8702 105.032 15.7708 105.032 16.8535C105.032 17.9362 104.682 18.8415 103.982 19.5695ZM101.28 19.1915C101.849 19.1915 102.292 18.9815 102.61 18.5615C102.936 18.1322 103.1 17.5628 103.1 16.8535C103.1 16.1442 102.936 15.5748 102.61 15.1455C102.292 14.7162 101.849 14.5015 101.28 14.5015C100.701 14.5015 100.253 14.7162 99.9357 15.1455C99.6184 15.5655 99.4597 16.1348 99.4597 16.8535C99.4597 17.5628 99.6184 18.1322 99.9357 18.5615C100.253 18.9815 100.701 19.1915 101.28 19.1915ZM107.751 13.2555V14.4035H107.793C108.017 13.9835 108.264 13.6755 108.535 13.4795C108.805 13.2742 109.146 13.1715 109.557 13.1715C109.753 13.1715 109.902 13.1902 110.005 13.2275V14.8935H109.963C109.319 14.8282 108.801 14.9682 108.409 15.3135C108.017 15.6588 107.821 16.2002 107.821 16.9375V20.4375H105.917V13.2555H107.751ZM11.27 35.4375V25.4275H18.634V27.1355H13.3V29.3755H17.976V31.0415H13.3V33.7435H18.676V35.4375H11.27ZM19.28 35.4375L21.898 31.6295L19.56 28.2555H21.73L23.004 30.3135H23.032L24.236 28.2555H26.21L23.984 31.6155L26.546 35.4375H24.278L22.948 33.0575H22.92L21.366 35.4375H19.28ZM27.2762 37.7895V28.2555H29.1102V29.1515H29.1522C29.6842 28.4235 30.3888 28.0595 31.2662 28.0595C32.2088 28.0595 32.9648 28.4095 33.5342 29.1095C34.1035 29.8095 34.3882 30.7242 34.3882 31.8535C34.3882 33.0108 34.1035 33.9348 33.5342 34.6255C32.9648 35.3068 32.2135 35.6475 31.2802 35.6475C30.3468 35.6475 29.6562 35.3068 29.2082 34.6255H29.1802V37.7895H27.2762ZM30.8742 34.0655C31.3595 34.0655 31.7422 33.8742 32.0222 33.4915C32.3115 33.1088 32.4562 32.5815 32.4562 31.9095C32.4562 31.1908 32.3208 30.6262 32.0502 30.2155C31.7795 29.8048 31.3642 29.5995 30.8042 29.5995C30.2348 29.5995 29.8148 29.8142 29.5442 30.2435C29.2735 30.6635 29.1382 31.2188 29.1382 31.9095C29.1382 32.5722 29.2875 33.0995 29.5862 33.4915C29.8848 33.8742 30.3142 34.0655 30.8742 34.0655ZM38.6482 35.6475C37.4909 35.6475 36.5809 35.2928 35.9182 34.5835C35.2555 33.8648 34.9242 32.9502 34.9242 31.8395C34.9242 30.7662 35.2555 29.8702 35.9182 29.1515C36.5809 28.4235 37.4302 28.0595 38.4662 28.0595C39.5955 28.0595 40.4682 28.4515 41.0842 29.2355C41.7002 30.0195 42.0082 31.0695 42.0082 32.3855H36.8002C36.8749 32.9548 37.0662 33.3982 37.3742 33.7155C37.6822 34.0235 38.1022 34.1775 38.6342 34.1775C39.3342 34.1775 39.7962 33.8835 40.0202 33.2955H41.8962C41.7562 33.9675 41.4015 34.5275 40.8322 34.9755C40.2629 35.4235 39.5349 35.6475 38.6482 35.6475ZM38.4942 29.5295C37.5702 29.5295 37.0149 30.0428 36.8282 31.0695H40.0202C39.9922 30.6122 39.8382 30.2435 39.5582 29.9635C39.2782 29.6742 38.9235 29.5295 38.4942 29.5295ZM44.7234 28.2555V29.4035H44.7654C44.9894 28.9835 45.2368 28.6755 45.5074 28.4795C45.7781 28.2742 46.1188 28.1715 46.5294 28.1715C46.7254 28.1715 46.8748 28.1902 46.9774 28.2275V29.8935H46.9354C46.2914 29.8282 45.7734 29.9682 45.3814 30.3135C44.9894 30.6588 44.7934 31.2002 44.7934 31.9375V35.4375H42.8894V28.2555H44.7234ZM47.7976 35.4375V28.2555H49.7016V35.4375H47.7976ZM47.7976 27.1355V25.4275H49.7016V27.1355H47.7976ZM50.9285 35.4375V28.2555H52.7625V29.2215H52.8045C53.2618 28.4468 53.9572 28.0595 54.8905 28.0595C55.3385 28.0595 55.7352 28.1762 56.0805 28.4095C56.4352 28.6335 56.7012 28.9368 56.8785 29.3195H56.9065C57.4292 28.4795 58.1478 28.0595 59.0625 28.0595C59.8092 28.0595 60.3878 28.2882 60.7985 28.7455C61.2185 29.1935 61.4285 29.8142 61.4285 30.6075V35.4375H59.5245V30.9295C59.5245 30.1082 59.1558 29.6975 58.4185 29.6975C58.0172 29.6975 57.6998 29.8422 57.4665 30.1315C57.2425 30.4115 57.1305 30.7895 57.1305 31.2655V35.4375H55.2265V30.9295C55.2265 30.1082 54.8578 29.6975 54.1205 29.6975C53.7378 29.6975 53.4252 29.8422 53.1825 30.1315C52.9492 30.4115 52.8325 30.7895 52.8325 31.2655V35.4375H50.9285ZM65.9783 35.6475C64.8209 35.6475 63.9109 35.2928 63.2483 34.5835C62.5856 33.8648 62.2543 32.9502 62.2543 31.8395C62.2543 30.7662 62.5856 29.8702 63.2483 29.1515C63.9109 28.4235 64.7603 28.0595 65.7963 28.0595C66.9256 28.0595 67.7983 28.4515 68.4143 29.2355C69.0303 30.0195 69.3383 31.0695 69.3383 32.3855H64.1303C64.2049 32.9548 64.3963 33.3982 64.7043 33.7155C65.0123 34.0235 65.4323 34.1775 65.9643 34.1775C66.6643 34.1775 67.1263 33.8835 67.3503 33.2955H69.2263C69.0863 33.9675 68.7316 34.5275 68.1623 34.9755C67.5929 35.4235 66.8649 35.6475 65.9783 35.6475ZM65.8243 29.5295C64.9003 29.5295 64.3449 30.0428 64.1583 31.0695H67.3503C67.3223 30.6122 67.1683 30.2435 66.8883 29.9635C66.6083 29.6742 66.2536 29.5295 65.8243 29.5295ZM72.0815 28.2555V29.2355H72.1235C72.6182 28.4515 73.3275 28.0595 74.2515 28.0595C74.9888 28.0595 75.5862 28.3115 76.0435 28.8155C76.5008 29.3102 76.7295 29.9542 76.7295 30.7475V35.4375H74.8255V31.0275C74.8255 30.6355 74.7135 30.3182 74.4895 30.0755C74.2748 29.8328 73.9715 29.7115 73.5795 29.7115C73.1595 29.7115 72.8095 29.8655 72.5295 30.1735C72.2588 30.4815 72.1235 30.8782 72.1235 31.3635V35.4375H70.2195V28.2555H72.0815ZM77.3464 29.5155V28.2555H78.3404V26.0155H80.2024V28.2555H81.4344V29.5155H80.2024V33.3235C80.2024 33.7995 80.4404 34.0375 80.9164 34.0375L81.4764 34.0235V35.4235C81.1871 35.4422 80.7904 35.4515 80.2864 35.4515C79.7357 35.4515 79.2737 35.3208 78.9004 35.0595C78.5271 34.7888 78.3404 34.3455 78.3404 33.7295V29.5155H77.3464ZM87.0052 35.4375C86.9119 35.3162 86.8372 35.0502 86.7812 34.6395H86.7532C86.5479 34.9475 86.2865 35.1855 85.9692 35.3535C85.6519 35.5215 85.2085 35.6055 84.6392 35.6055C83.8832 35.6055 83.2765 35.4142 82.8192 35.0315C82.3619 34.6488 82.1332 34.1075 82.1332 33.4075C82.1332 32.6795 82.3852 32.1475 82.8892 31.8115C83.3932 31.4662 84.1025 31.2282 85.0172 31.0975C85.6892 31.0042 86.1465 30.9108 86.3892 30.8175C86.6319 30.7148 86.7532 30.5375 86.7532 30.2855C86.7532 30.0242 86.6505 29.8188 86.4452 29.6695C86.2399 29.5108 85.9412 29.4315 85.5492 29.4315C84.6812 29.4315 84.2192 29.7675 84.1632 30.4395H82.4692C82.4972 29.7582 82.7725 29.1935 83.2952 28.7455C83.8179 28.2975 84.5739 28.0735 85.5632 28.0735C87.5792 28.0735 88.5872 28.9555 88.5872 30.7195V34.3735C88.5872 34.9148 88.6712 35.2462 88.8392 35.3675V35.4375H87.0052ZM85.1012 34.2755C85.6239 34.2755 86.0345 34.1402 86.3332 33.8695C86.6412 33.5988 86.7952 33.2768 86.7952 32.9035V31.8255C86.5899 31.9468 86.1465 32.0868 85.4652 32.2455C84.9239 32.3668 84.5412 32.5068 84.3172 32.6655C84.0932 32.8148 83.9812 33.0482 83.9812 33.3655C83.9812 33.9722 84.3545 34.2755 85.1012 34.2755ZM89.8256 35.4375V25.4275H91.7296V35.4375H89.8256ZM19.166 49.2055C18.2887 50.1762 17.122 50.6615 15.666 50.6615C14.21 50.6615 13.0387 50.1762 12.152 49.2055C11.2747 48.2255 10.836 46.9748 10.836 45.4535C10.836 43.9322 11.2747 42.6815 12.152 41.7015C13.0387 40.7215 14.21 40.2315 15.666 40.2315C17.122 40.2315 18.2887 40.7215 19.166 41.7015C20.0433 42.6815 20.482 43.9322 20.482 45.4535C20.482 46.9748 20.0433 48.2255 19.166 49.2055ZM13.622 48.0015C14.1073 48.6642 14.7933 48.9955 15.68 48.9955C16.5667 48.9955 17.2433 48.6688 17.71 48.0155C18.1767 47.3528 18.41 46.4988 18.41 45.4535C18.41 44.4082 18.1767 43.5542 17.71 42.8915C17.2433 42.2288 16.5667 41.8975 15.68 41.8975C14.7933 41.8975 14.1073 42.2288 13.622 42.8915C13.146 43.5542 12.908 44.4082 12.908 45.4535C12.908 46.4895 13.146 47.3388 13.622 48.0015ZM23.3003 43.2555V44.2355H23.3423C23.8369 43.4515 24.5463 43.0595 25.4703 43.0595C26.2076 43.0595 26.8049 43.3115 27.2623 43.8155C27.7196 44.3102 27.9483 44.9542 27.9483 45.7475V50.4375H26.0443V46.0275C26.0443 45.6355 25.9323 45.3182 25.7083 45.0755C25.4936 44.8328 25.1903 44.7115 24.7983 44.7115C24.3783 44.7115 24.0283 44.8655 23.7483 45.1735C23.4776 45.4815 23.3423 45.8782 23.3423 46.3635V50.4375H21.4383V43.2555H23.3003ZM32.4539 50.6475C31.3432 50.6475 30.4519 50.2882 29.7799 49.5695C29.1079 48.8508 28.7719 47.9455 28.7719 46.8535C28.7719 45.7615 29.0985 44.8562 29.7519 44.1375C30.4145 43.4188 31.2825 43.0595 32.3559 43.0595C33.2612 43.0595 33.9985 43.2975 34.5679 43.7735C35.1372 44.2495 35.4872 44.8888 35.6179 45.6915H33.7559C33.6905 45.3648 33.5412 45.0988 33.3079 44.8935C33.0745 44.6882 32.7852 44.5855 32.4399 44.5855C31.8799 44.5855 31.4505 44.7862 31.1519 45.1875C30.8532 45.5888 30.7039 46.1442 30.7039 46.8535C30.7039 47.5535 30.8485 48.1088 31.1379 48.5195C31.4272 48.9208 31.8519 49.1215 32.4119 49.1215C33.2425 49.1215 33.7232 48.7155 33.8539 47.9035H35.6879C35.6225 48.6968 35.3005 49.3548 34.7219 49.8775C34.1432 50.3908 33.3872 50.6475 32.4539 50.6475ZM42.6223 49.5695C41.9223 50.2882 41.0217 50.6475 39.9203 50.6475C38.819 50.6475 37.9183 50.2882 37.2183 49.5695C36.5183 48.8415 36.1683 47.9362 36.1683 46.8535C36.1683 45.7708 36.5183 44.8702 37.2183 44.1515C37.9183 43.4235 38.819 43.0595 39.9203 43.0595C41.0217 43.0595 41.9223 43.4235 42.6223 44.1515C43.3223 44.8702 43.6723 45.7708 43.6723 46.8535C43.6723 47.9362 43.3223 48.8415 42.6223 49.5695ZM39.9203 49.1915C40.4897 49.1915 40.933 48.9815 41.2503 48.5615C41.577 48.1322 41.7403 47.5628 41.7403 46.8535C41.7403 46.1442 41.577 45.5748 41.2503 45.1455C40.933 44.7162 40.4897 44.5015 39.9203 44.5015C39.3417 44.5015 38.8937 44.7162 38.5763 45.1455C38.259 45.5655 38.1003 46.1348 38.1003 46.8535C38.1003 47.5628 38.259 48.1322 38.5763 48.5615C38.8937 48.9815 39.3417 49.1915 39.9203 49.1915ZM44.5854 50.4375V40.4275H46.4894V50.4375H44.5854ZM53.847 49.5695C53.147 50.2882 52.2463 50.6475 51.145 50.6475C50.0436 50.6475 49.143 50.2882 48.443 49.5695C47.743 48.8415 47.393 47.9362 47.393 46.8535C47.393 45.7708 47.743 44.8702 48.443 44.1515C49.143 43.4235 50.0436 43.0595 51.145 43.0595C52.2463 43.0595 53.147 43.4235 53.847 44.1515C54.547 44.8702 54.897 45.7708 54.897 46.8535C54.897 47.9362 54.547 48.8415 53.847 49.5695ZM51.145 49.1915C51.7143 49.1915 52.1576 48.9815 52.475 48.5615C52.8016 48.1322 52.965 47.5628 52.965 46.8535C52.965 46.1442 52.8016 45.5748 52.475 45.1455C52.1576 44.7162 51.7143 44.5015 51.145 44.5015C50.5663 44.5015 50.1183 44.7162 49.801 45.1455C49.4836 45.5655 49.325 46.1348 49.325 46.8535C49.325 47.5628 49.4836 48.1322 49.801 48.5615C50.1183 48.9815 50.5663 49.1915 51.145 49.1915ZM58.946 52.8875C57.9753 52.8875 57.196 52.6915 56.608 52.2995C56.0293 51.9075 55.6887 51.3568 55.586 50.6475H57.476C57.6627 51.1795 58.1433 51.4455 58.918 51.4455C59.982 51.4455 60.514 50.9462 60.514 49.9475V49.1635H60.472C59.9773 49.7235 59.352 50.0035 58.596 50.0035C57.7467 50.0035 57.0047 49.6908 56.37 49.0655C55.7447 48.4402 55.432 47.6095 55.432 46.5735C55.432 45.5095 55.7213 44.6602 56.3 44.0255C56.8787 43.3815 57.6253 43.0595 58.54 43.0595C59.408 43.0595 60.0707 43.3768 60.528 44.0115H60.556V43.2555H62.39V49.8915C62.39 50.8248 62.1053 51.5528 61.536 52.0755C60.9573 52.6168 60.094 52.8875 58.946 52.8875ZM58.918 48.4775C59.4873 48.4775 59.912 48.2955 60.192 47.9315C60.472 47.5675 60.612 47.1008 60.612 46.5315C60.612 45.9715 60.4627 45.5095 60.164 45.1455C59.8747 44.7722 59.4547 44.5855 58.904 44.5855C58.4187 44.5855 58.0267 44.7628 57.728 45.1175C57.4387 45.4722 57.294 45.9482 57.294 46.5455C57.294 47.1522 57.4387 47.6282 57.728 47.9735C58.0267 48.3095 58.4233 48.4775 58.918 48.4775ZM63.77 52.7895V51.2915H64.442C65.1513 51.2915 65.506 50.9648 65.506 50.3115C65.506 49.9942 65.324 49.3455 64.96 48.3655L63.028 43.2555H65.03L66.094 46.4895L66.556 48.0575H66.584C66.7147 47.4508 66.8547 46.9282 67.004 46.4895L68.012 43.2555H69.93L67.424 50.6195C67.144 51.4408 66.8267 52.0055 66.472 52.3135C66.1267 52.6308 65.5993 52.7895 64.89 52.7895H63.77ZM73.0805 50.4375V40.4275H76.9865C78.3119 40.4275 79.3759 40.9082 80.1785 41.8695C80.9812 42.8215 81.3825 44.0442 81.3825 45.5375C81.3825 47.2642 80.8505 48.5755 79.7865 49.4715C79.0119 50.1155 78.0225 50.4375 76.8185 50.4375H73.0805ZM75.1105 48.6875H76.6785C77.6025 48.6875 78.2745 48.4215 78.6945 47.8895C79.1145 47.3482 79.3245 46.5642 79.3245 45.5375C79.3245 44.5108 79.1005 43.6942 78.6525 43.0875C78.2139 42.4715 77.5745 42.1635 76.7345 42.1635H75.1105V48.6875ZM84.1668 43.2555V44.4035H84.2088C84.4328 43.9835 84.6801 43.6755 84.9508 43.4795C85.2215 43.2742 85.5621 43.1715 85.9728 43.1715C86.1688 43.1715 86.3181 43.1902 86.4208 43.2275V44.8935H86.3788C85.7348 44.8282 85.2168 44.9682 84.8248 45.3135C84.4328 45.6588 84.2368 46.2002 84.2368 46.9375V50.4375H82.3328V43.2555H84.1668ZM93.611 50.4375H91.777V49.5975H91.735C91.4737 49.9522 91.1843 50.2135 90.867 50.3815C90.559 50.5495 90.1623 50.6335 89.677 50.6335C88.893 50.6335 88.2817 50.4002 87.843 49.9335C87.4043 49.4668 87.185 48.8368 87.185 48.0435V43.2555H89.075V47.7215C89.075 48.5895 89.4717 49.0235 90.265 49.0235C90.7037 49.0235 91.0537 48.8742 91.315 48.5755C91.5763 48.2768 91.707 47.8848 91.707 47.3995V43.2555H93.611V50.4375ZM98.0066 52.8875C97.0359 52.8875 96.2566 52.6915 95.6686 52.2995C95.0899 51.9075 94.7492 51.3568 94.6466 50.6475H96.5366C96.7232 51.1795 97.2039 51.4455 97.9786 51.4455C99.0426 51.4455 99.5746 50.9462 99.5746 49.9475V49.1635H99.5326C99.0379 49.7235 98.4126 50.0035 97.6566 50.0035C96.8072 50.0035 96.0652 49.6908 95.4306 49.0655C94.8052 48.4402 94.4926 47.6095 94.4926 46.5735C94.4926 45.5095 94.7819 44.6602 95.3606 44.0255C95.9392 43.3815 96.6859 43.0595 97.6006 43.0595C98.4686 43.0595 99.1312 43.3768 99.5886 44.0115H99.6166V43.2555H101.451V49.8915C101.451 50.8248 101.166 51.5528 100.597 52.0755C100.018 52.6168 99.1546 52.8875 98.0066 52.8875ZM97.9786 48.4775C98.5479 48.4775 98.9726 48.2955 99.2526 47.9315C99.5326 47.5675 99.6726 47.1008 99.6726 46.5315C99.6726 45.9715 99.5232 45.5095 99.2246 45.1455C98.9352 44.7722 98.5152 44.5855 97.9646 44.5855C97.4792 44.5855 97.0872 44.7628 96.7886 45.1175C96.4992 45.4722 96.3546 45.9482 96.3546 46.5455C96.3546 47.1522 96.4992 47.6282 96.7886 47.9735C97.0872 48.3095 97.4839 48.4775 97.9786 48.4775ZM105.589 50.6475C104.562 50.6475 103.759 50.4235 103.181 49.9755C102.602 49.5182 102.285 48.8975 102.229 48.1135H103.993C104.114 48.9068 104.637 49.3035 105.561 49.3035C105.981 49.3035 106.303 49.2288 106.527 49.0795C106.76 48.9302 106.877 48.7295 106.877 48.4775C106.877 48.3842 106.858 48.3002 106.821 48.2255C106.793 48.1508 106.737 48.0855 106.653 48.0295C106.578 47.9642 106.508 47.9128 106.443 47.8755C106.387 47.8382 106.284 47.8008 106.135 47.7635C105.985 47.7262 105.869 47.6982 105.785 47.6795C105.71 47.6608 105.575 47.6375 105.379 47.6095C105.192 47.5722 105.061 47.5442 104.987 47.5255C104.595 47.4508 104.273 47.3762 104.021 47.3015C103.778 47.2175 103.521 47.1008 103.251 46.9515C102.98 46.7928 102.775 46.5828 102.635 46.3215C102.504 46.0508 102.439 45.7288 102.439 45.3555C102.439 44.6088 102.709 44.0395 103.251 43.6475C103.801 43.2555 104.506 43.0595 105.365 43.0595C106.289 43.0595 107.012 43.2742 107.535 43.7035C108.067 44.1235 108.37 44.7022 108.445 45.4395H106.723C106.648 44.7395 106.186 44.3895 105.337 44.3895C104.954 44.3895 104.651 44.4595 104.427 44.5995C104.212 44.7395 104.105 44.9355 104.105 45.1875C104.105 45.2715 104.119 45.3508 104.147 45.4255C104.184 45.4908 104.24 45.5515 104.315 45.6075C104.399 45.6542 104.478 45.6962 104.553 45.7335C104.627 45.7615 104.735 45.7942 104.875 45.8315C105.015 45.8595 105.136 45.8875 105.239 45.9155C105.341 45.9342 105.481 45.9622 105.659 45.9995C105.836 46.0275 105.976 46.0508 106.079 46.0695C106.377 46.1348 106.62 46.1955 106.807 46.2515C107.003 46.2982 107.227 46.3822 107.479 46.5035C107.731 46.6155 107.927 46.7462 108.067 46.8955C108.216 47.0355 108.342 47.2315 108.445 47.4835C108.557 47.7262 108.613 48.0108 108.613 48.3375C108.613 49.0468 108.333 49.6115 107.773 50.0315C107.222 50.4422 106.494 50.6475 105.589 50.6475Z" fill="#344899"/>
<path d="M184.483 488.568C273.772 488.568 346.154 416.186 346.154 326.897C346.154 237.609 273.772 165.227 184.483 165.227C95.195 165.227 22.8125 237.609 22.8125 326.897C22.8125 416.186 95.195 488.568 184.483 488.568Z" fill="#FDEFF5"/>
<path d="M181.802 329.369C185.696 329.369 188.853 326.212 188.853 322.317C188.853 318.423 185.696 315.266 181.802 315.266C177.907 315.266 174.75 318.423 174.75 322.317C174.75 326.212 177.907 329.369 181.802 329.369Z" fill="#FF4F6F"/>
<path d="M173.989 352.681C177.884 352.681 181.041 349.524 181.041 345.63C181.041 341.735 177.884 338.578 173.989 338.578C170.095 338.578 166.938 341.735 166.938 345.63C166.938 349.524 170.095 352.681 173.989 352.681Z" fill="#FF4F6F"/>
<path d="M204.841 341.002C208.735 341.002 211.892 337.844 211.892 333.95C211.892 330.056 208.735 326.898 204.841 326.898C200.946 326.898 197.789 330.056 197.789 333.95C197.789 337.844 200.946 341.002 204.841 341.002Z" fill="#FF4F6F"/>
<path d="M174.755 308.205C178.649 308.205 181.806 305.048 181.806 301.153C181.806 297.259 178.649 294.102 174.755 294.102C170.86 294.102 167.703 297.259 167.703 301.153C167.703 305.048 170.86 308.205 174.755 308.205Z" fill="#FF4F6F"/>
<path d="M152.833 343.806C156.727 343.806 159.884 340.649 159.884 336.755C159.884 332.86 156.727 329.703 152.833 329.703C148.938 329.703 145.781 332.86 145.781 336.755C145.781 340.649 148.938 343.806 152.833 343.806Z" fill="#FF4F6F"/>
<path d="M202.481 365.728C206.376 365.728 209.533 362.571 209.533 358.677C209.533 354.782 206.376 351.625 202.481 351.625C198.587 351.625 195.43 354.782 195.43 358.677C195.43 362.571 198.587 365.728 202.481 365.728Z" fill="#FF4F6F"/>
<path d="M198.583 303.923C202.477 303.923 205.634 300.766 205.634 296.872C205.634 292.977 202.477 289.82 198.583 289.82C194.688 289.82 191.531 292.977 191.531 296.872C191.531 300.766 194.688 303.923 198.583 303.923Z" fill="#FF4F6F"/>
<path d="M144.653 321.377C148.548 321.377 151.705 318.219 151.705 314.325C151.705 310.431 148.548 307.273 144.653 307.273C140.759 307.273 137.602 310.431 137.602 314.325C137.602 318.219 140.759 321.377 144.653 321.377Z" fill="#6684BF"/>
<path d="M184.997 378.931C188.891 378.931 192.048 375.774 192.048 371.88C192.048 367.985 188.891 364.828 184.997 364.828C181.102 364.828 177.945 367.985 177.945 371.88C177.945 375.774 181.102 378.931 184.997 378.931Z" fill="#FF4F6F"/>
<path d="M216.598 319.845C220.493 319.845 223.65 316.688 223.65 312.794C223.65 308.899 220.493 305.742 216.598 305.742C212.704 305.742 209.547 308.899 209.547 312.794C209.547 316.688 212.704 319.845 216.598 319.845Z" fill="#FF4F6F"/>
<path d="M151.653 298.353C155.548 298.353 158.705 295.196 158.705 291.302C158.705 287.407 155.548 284.25 151.653 284.25C147.759 284.25 144.602 287.407 144.602 291.302C144.602 295.196 147.759 298.353 151.653 298.353Z" fill="#FF4F6F"/>
<path d="M159.872 379.681C163.766 379.681 166.923 376.524 166.923 372.63C166.923 368.735 163.766 365.578 159.872 365.578C155.977 365.578 152.82 368.735 152.82 372.63C152.82 376.524 155.977 379.681 159.872 379.681Z" fill="#FF4F6F"/>
<path d="M236.489 342.322C240.384 342.322 243.541 339.165 243.541 335.27C243.541 331.376 240.384 328.219 236.489 328.219C232.595 328.219 229.438 331.376 229.438 335.27C229.438 339.165 232.595 342.322 236.489 342.322Z" fill="#FF4F6F"/>
<path d="M172.567 281.002C176.462 281.002 179.619 277.844 179.619 273.95C179.619 270.056 176.462 266.898 172.567 266.898C168.673 266.898 165.516 270.056 165.516 273.95C165.516 277.844 168.673 281.002 172.567 281.002Z" fill="#FF4F6F"/>
<path d="M135.802 365.127C139.696 365.127 142.853 361.969 142.853 358.075C142.853 354.181 139.696 351.023 135.802 351.023C131.907 351.023 128.75 354.181 128.75 358.075C128.75 361.969 131.907 365.127 135.802 365.127Z" fill="#FF4F6F"/>
<path d="M230.544 370.806C234.438 370.806 237.595 367.649 237.595 363.755C237.595 359.86 234.438 356.703 230.544 356.703C226.649 356.703 223.492 359.86 223.492 363.755C223.492 367.649 226.649 370.806 230.544 370.806Z" fill="#FF4F6F"/>
<path d="M202.309 277.025C206.204 277.025 209.361 273.868 209.361 269.973C209.361 266.079 206.204 262.922 202.309 262.922C198.415 262.922 195.258 266.079 195.258 269.973C195.258 273.868 198.415 277.025 202.309 277.025Z" fill="#FF4F6F"/>
<path d="M121.7 337.634C125.594 337.634 128.752 334.477 128.752 330.583C128.752 326.688 125.594 323.531 121.7 323.531C117.806 323.531 114.648 326.688 114.648 330.583C114.648 334.477 117.806 337.634 121.7 337.634Z" fill="#FF4F6F"/>
<path d="M208.77 393.947C212.665 393.947 215.822 390.79 215.822 386.895C215.822 383.001 212.665 379.844 208.77 379.844C204.876 379.844 201.719 383.001 201.719 386.895C201.719 390.79 204.876 393.947 208.77 393.947Z" fill="#FF4F6F"/>
<path d="M232.223 290.095C236.118 290.095 239.275 286.938 239.275 283.044C239.275 279.149 236.118 275.992 232.223 275.992C228.329 275.992 225.172 279.149 225.172 283.044C225.172 286.938 228.329 290.095 232.223 290.095Z" fill="#FF4F6F"/>
<path d="M123.981 304.244C127.876 304.244 131.033 301.087 131.033 297.192C131.033 293.298 127.876 290.141 123.981 290.141C120.087 290.141 116.93 293.298 116.93 297.192C116.93 301.087 120.087 304.244 123.981 304.244Z" fill="#FF4F6F"/>
<path d="M175.77 403.291C179.665 403.291 182.822 400.134 182.822 396.239C182.822 392.345 179.665 389.188 175.77 389.188C171.876 389.188 168.719 392.345 168.719 396.239C168.719 400.134 171.876 403.291 175.77 403.291Z" fill="#FF4F6F"/>
<path d="M252.645 318.603C256.54 318.603 259.697 315.446 259.697 311.552C259.697 307.657 256.54 304.5 252.645 304.5C248.751 304.5 245.594 307.657 245.594 311.552C245.594 315.446 248.751 318.603 252.645 318.603Z" fill="#FF4F6F"/>
<path d="M144.325 274.705C148.219 274.705 151.377 271.548 151.377 267.653C151.377 263.759 148.219 260.602 144.325 260.602C140.431 260.602 137.273 263.759 137.273 267.653C137.273 271.548 140.431 274.705 144.325 274.705Z" fill="#FF4F6F"/>
<path d="M140.372 393.986C144.266 393.986 147.423 390.829 147.423 386.934C147.423 383.04 144.266 379.883 140.372 379.883C136.477 379.883 133.32 383.04 133.32 386.934C133.32 390.829 136.477 393.986 140.372 393.986Z" fill="#FF4F6F"/>
<path d="M255.981 355.838C259.876 355.838 263.033 352.68 263.033 348.786C263.033 344.891 259.876 341.734 255.981 341.734C252.087 341.734 248.93 344.891 248.93 348.786C248.93 352.68 252.087 355.838 255.981 355.838Z" fill="#FF4F6F"/>
<path d="M178.864 258.595C182.759 258.595 185.916 255.438 185.916 251.544C185.916 247.649 182.759 244.492 178.864 244.492C174.97 244.492 171.812 247.649 171.812 251.544C171.812 255.438 174.97 258.595 178.864 258.595Z" fill="#FF4F6F"/>
<path d="M112.942 366.47C116.837 366.47 119.994 363.313 119.994 359.419C119.994 355.524 116.837 352.367 112.942 352.367C109.048 352.367 105.891 355.524 105.891 359.419C105.891 363.313 109.048 366.47 112.942 366.47Z" fill="#FF4F6F"/>
<path d="M239.161 391.642C243.055 391.642 246.213 388.485 246.213 384.591C246.213 380.696 243.055 377.539 239.161 377.539C235.266 377.539 232.109 380.696 232.109 384.591C232.109 388.485 235.266 391.642 239.161 391.642Z" fill="#FF4F6F"/>
<path d="M218.934 262.259C222.829 262.259 225.986 259.102 225.986 255.208C225.986 251.313 222.829 248.156 218.934 248.156C215.04 248.156 211.883 251.313 211.883 255.208C211.883 259.102 215.04 262.259 218.934 262.259Z" fill="#FF4F6F"/>
<path d="M102.52 326.884C106.415 326.884 109.572 323.727 109.572 319.833C109.572 315.938 106.415 312.781 102.52 312.781C98.6258 312.781 95.4688 315.938 95.4688 319.833C95.4688 323.727 98.6258 326.884 102.52 326.884Z" fill="#FF4F6F"/>
<path d="M204.95 415.314C208.844 415.314 212.002 412.157 212.002 408.262C212.002 404.368 208.844 401.211 204.95 401.211C201.056 401.211 197.898 404.368 197.898 408.262C197.898 412.157 201.056 415.314 204.95 415.314Z" fill="#FF4F6F"/>
<path d="M253.427 286.713C257.321 286.713 260.478 283.555 260.478 279.661C260.478 275.766 257.321 272.609 253.427 272.609C249.532 272.609 246.375 275.766 246.375 279.661C246.375 283.555 249.532 286.713 253.427 286.713Z" fill="#FF4F6F"/>
<path d="M113.895 285.478C117.79 285.478 120.947 282.321 120.947 278.427C120.947 274.532 117.79 271.375 113.895 271.375C110.001 271.375 106.844 274.532 106.844 278.427C106.844 282.321 110.001 285.478 113.895 285.478Z" fill="#FF4F6F"/>
<path d="M161.505 418.861C165.399 418.861 168.556 415.704 168.556 411.809C168.556 407.915 165.399 404.758 161.505 404.758C157.61 404.758 154.453 407.915 154.453 411.809C154.453 415.704 157.61 418.861 161.505 418.861Z" fill="#FF4F6F"/>
<path d="M271.888 326.9C275.782 326.9 278.939 323.743 278.939 319.848C278.939 315.954 275.782 312.797 271.888 312.797C267.993 312.797 264.836 315.954 264.836 319.848C264.836 323.743 267.993 326.9 271.888 326.9Z" fill="#FF4F6F"/>
<path d="M145.794 253.955C149.688 253.955 152.845 250.798 152.845 246.903C152.845 243.009 149.688 239.852 145.794 239.852C141.899 239.852 138.742 243.009 138.742 246.903C138.742 250.798 141.899 253.955 145.794 253.955Z" fill="#FF4F6F"/>
<path d="M120.411 399.4C124.305 399.4 127.463 396.243 127.463 392.348C127.463 388.454 124.305 385.297 120.411 385.297C116.516 385.297 113.359 388.454 113.359 392.348C113.359 396.243 116.516 399.4 120.411 399.4Z" fill="#FF4F6F"/>
<path d="M267.622 372.783C271.516 372.783 274.673 369.626 274.673 365.731C274.673 361.837 271.516 358.68 267.622 358.68C263.727 358.68 260.57 361.837 260.57 365.731C260.57 369.626 263.727 372.783 267.622 372.783Z" fill="#FF4F6F"/>
<path d="M190.942 242.095C194.837 242.095 197.994 238.938 197.994 235.044C197.994 231.149 194.837 227.992 190.942 227.992C187.048 227.992 183.891 231.149 183.891 235.044C183.891 238.938 187.048 242.095 190.942 242.095Z" fill="#FF4F6F"/>
<path d="M93.45 360.564C97.3445 360.564 100.502 357.407 100.502 353.513C100.502 349.618 97.3445 346.461 93.45 346.461C89.5555 346.461 86.3984 349.618 86.3984 353.513C86.3984 357.407 89.5555 360.564 93.45 360.564Z" fill="#FF4F6F"/>
<path d="M240.052 411.892C243.946 411.892 247.103 408.735 247.103 404.841C247.103 400.946 243.946 397.789 240.052 397.789C236.157 397.789 233 400.946 233 404.841C233 408.735 236.157 411.892 240.052 411.892Z" fill="#FF4F6F"/>
<path d="M237.716 254.744C241.61 254.744 244.767 251.587 244.767 247.692C244.767 243.798 241.61 240.641 237.716 240.641C233.821 240.641 230.664 243.798 230.664 247.692C230.664 251.587 233.821 254.744 237.716 254.744Z" fill="#FF4F6F"/>
<path d="M89.2625 311.728C93.157 311.728 96.3141 308.571 96.3141 304.677C96.3141 300.782 93.157 297.625 89.2625 297.625C85.368 297.625 82.2109 300.782 82.2109 304.677C82.2109 308.571 85.368 311.728 89.2625 311.728Z" fill="#FF4F6F"/>
<path d="M195.067 432.838C198.962 432.838 202.119 429.68 202.119 425.786C202.119 421.891 198.962 418.734 195.067 418.734C191.173 418.734 188.016 421.891 188.016 425.786C188.016 429.68 191.173 432.838 195.067 432.838Z" fill="#FF4F6F"/>
<path d="M273.184 290.205C277.079 290.205 280.236 287.048 280.236 283.153C280.236 279.259 277.079 276.102 273.184 276.102C269.29 276.102 266.133 279.259 266.133 283.153C266.133 287.048 269.29 290.205 273.184 290.205Z" fill="#FF4F6F"/>
<path d="M110.614 265.728C114.509 265.728 117.666 262.571 117.666 258.677C117.666 254.782 114.509 251.625 110.614 251.625C106.72 251.625 103.562 254.782 103.562 258.677C103.562 262.571 106.72 265.728 110.614 265.728Z" fill="#FF4F6F"/>
<path d="M144.005 428.509C147.899 428.509 151.056 425.352 151.056 421.458C151.056 417.563 147.899 414.406 144.005 414.406C140.11 414.406 136.953 417.563 136.953 421.458C136.953 425.352 140.11 428.509 144.005 428.509Z" fill="#FF4F6F"/>
<path d="M286.794 340.189C290.688 340.189 293.845 337.032 293.845 333.138C293.845 329.243 290.688 326.086 286.794 326.086C282.899 326.086 279.742 329.243 279.742 333.138C279.742 337.032 282.899 340.189 286.794 340.189Z" fill="#FF4F6F"/>
<path d="M153.356 235.486C157.251 235.486 160.408 232.329 160.408 228.434C160.408 224.54 157.251 221.383 153.356 221.383C149.462 221.383 146.305 224.54 146.305 228.434C146.305 232.329 149.462 235.486 153.356 235.486Z" fill="#FF4F6F"/>
<path d="M100.481 398.447C104.376 398.447 107.533 395.29 107.533 391.395C107.533 387.501 104.376 384.344 100.481 384.344C96.5868 384.344 93.4297 387.501 93.4297 391.395C93.4297 395.29 96.5868 398.447 100.481 398.447Z" fill="#FF4F6F"/>
<path d="M273.356 391.884C277.251 391.884 280.408 388.727 280.408 384.833C280.408 380.938 277.251 377.781 273.356 377.781C269.462 377.781 266.305 380.938 266.305 384.833C266.305 388.727 269.462 391.884 273.356 391.884Z" fill="#FF4F6F"/>
<path d="M207.036 230.283C210.93 230.283 214.088 227.126 214.088 223.231C214.088 219.337 210.93 216.18 207.036 216.18C203.141 216.18 199.984 219.337 199.984 223.231C199.984 227.126 203.141 230.283 207.036 230.283Z" fill="#6684BF"/>
<path d="M76.9344 349.353C80.8289 349.353 83.9859 346.196 83.9859 342.302C83.9859 338.407 80.8289 335.25 76.9344 335.25C73.0399 335.25 69.8828 338.407 69.8828 342.302C69.8828 346.196 73.0399 349.353 76.9344 349.353Z" fill="#FF4F6F"/>
<path d="M234.997 431.212C238.891 431.212 242.048 428.055 242.048 424.161C242.048 420.266 238.891 417.109 234.997 417.109C231.102 417.109 227.945 420.266 227.945 424.161C227.945 428.055 231.102 431.212 234.997 431.212Z" fill="#6684BF"/>
<path d="M257.63 253.041C261.524 253.041 264.681 249.884 264.681 245.989C264.681 242.095 261.524 238.938 257.63 238.938C253.735 238.938 250.578 242.095 250.578 245.989C250.578 249.884 253.735 253.041 257.63 253.041Z" fill="#FF4F6F"/>
<path d="M80.9734 293.517C84.8679 293.517 88.025 290.36 88.025 286.466C88.025 282.571 84.8679 279.414 80.9734 279.414C77.079 279.414 73.9219 282.571 73.9219 286.466C73.9219 290.36 77.079 293.517 80.9734 293.517Z" fill="#FF4F6F"/>
<path d="M180.684 446.744C184.579 446.744 187.736 443.587 187.736 439.692C187.736 435.798 184.579 432.641 180.684 432.641C176.79 432.641 173.633 435.798 173.633 439.692C173.633 443.587 176.79 446.744 180.684 446.744Z" fill="#FF4F6F"/>
<path d="M291.153 299.088C295.048 299.088 298.205 295.93 298.205 292.036C298.205 288.141 295.048 284.984 291.153 284.984C287.259 284.984 284.102 288.141 284.102 292.036C284.102 295.93 287.259 299.088 291.153 299.088Z" fill="#FF4F6F"/>
<path d="M112.981 245.783C116.876 245.783 120.033 242.626 120.033 238.731C120.033 234.837 116.876 231.68 112.981 231.68C109.087 231.68 105.93 234.837 105.93 238.731C105.93 242.626 109.087 245.783 112.981 245.783Z" fill="#FF4F6F"/>
<path d="M124.388 432.978C128.282 432.978 131.439 429.821 131.439 425.927C131.439 422.032 128.282 418.875 124.388 418.875C120.493 418.875 117.336 422.032 117.336 425.927C117.336 429.821 120.493 432.978 124.388 432.978Z" fill="#FF4F6F"/>
<path d="M297.622 357.166C301.516 357.166 304.673 354.009 304.673 350.114C304.673 346.22 301.516 343.062 297.622 343.062C293.727 343.062 290.57 346.22 290.57 350.114C290.57 354.009 293.727 357.166 297.622 357.166Z" fill="#FF4F6F"/>
<path d="M165.731 219.541C169.626 219.541 172.783 216.384 172.783 212.489C172.783 208.595 169.626 205.438 165.731 205.438C161.837 205.438 158.68 208.595 158.68 212.489C158.68 216.384 161.837 219.541 165.731 219.541Z" fill="#FF4F6F"/>
<path d="M81.2781 392.134C85.1726 392.134 88.3297 388.977 88.3297 385.083C88.3297 381.188 85.1726 378.031 81.2781 378.031C77.3837 378.031 74.2266 381.188 74.2266 385.083C74.2266 388.977 77.3837 392.134 81.2781 392.134Z" fill="#FF4F6F"/>
<path d="M273.872 412.127C277.766 412.127 280.923 408.969 280.923 405.075C280.923 401.181 277.766 398.023 273.872 398.023C269.977 398.023 266.82 401.181 266.82 405.075C266.82 408.969 269.977 412.127 273.872 412.127Z" fill="#FF4F6F"/>
<path d="M225.942 222.986C229.837 222.986 232.994 219.829 232.994 215.934C232.994 212.04 229.837 208.883 225.942 208.883C222.048 208.883 218.891 212.04 218.891 215.934C218.891 219.829 222.048 222.986 225.942 222.986Z" fill="#FF4F6F"/>
<path d="M63.6609 333.955C67.5554 333.955 70.7125 330.798 70.7125 326.903C70.7125 323.009 67.5554 319.852 63.6609 319.852C59.7665 319.852 56.6094 323.009 56.6094 326.903C56.6094 330.798 59.7665 333.955 63.6609 333.955Z" fill="#6684BF"/>
<path d="M224.934 448.955C228.829 448.955 231.986 445.798 231.986 441.903C231.986 438.009 228.829 434.852 224.934 434.852C221.04 434.852 217.883 438.009 217.883 441.903C217.883 445.798 221.04 448.955 224.934 448.955Z" fill="#FF4F6F"/>
<path d="M277.762 256.509C281.657 256.509 284.814 253.352 284.814 249.458C284.814 245.563 281.657 242.406 277.762 242.406C273.868 242.406 270.711 245.563 270.711 249.458C270.711 253.352 273.868 256.509 277.762 256.509Z" fill="#FF4F6F"/>
<path d="M77.45 273.345C81.3445 273.345 84.5016 270.188 84.5016 266.294C84.5016 262.399 81.3445 259.242 77.45 259.242C73.5555 259.242 70.3984 262.399 70.3984 266.294C70.3984 270.188 73.5555 273.345 77.45 273.345Z" fill="#FF4F6F"/>
<path d="M162.841 456.892C166.735 456.892 169.892 453.735 169.892 449.841C169.892 445.946 166.735 442.789 162.841 442.789C158.946 442.789 155.789 445.946 155.789 449.841C155.789 453.735 158.946 456.892 162.841 456.892Z" fill="#FF4F6F"/>
<path d="M306.778 312.509C310.673 312.509 313.83 309.352 313.83 305.458C313.83 301.563 310.673 298.406 306.778 298.406C302.884 298.406 299.727 301.563 299.727 305.458C299.727 309.352 302.884 312.509 306.778 312.509Z" fill="#FF4F6F"/>
<path d="M120.348 226.509C124.243 226.509 127.4 223.352 127.4 219.458C127.4 215.563 124.243 212.406 120.348 212.406C116.454 212.406 113.297 215.563 113.297 219.458C113.297 223.352 116.454 226.509 120.348 226.509Z" fill="#FF4F6F"/>
<path d="M103.708 432.541C107.602 432.541 110.759 429.384 110.759 425.489C110.759 421.595 107.602 418.438 103.708 418.438C99.8133 418.438 96.6562 421.595 96.6562 425.489C96.6562 429.384 99.8133 432.541 103.708 432.541Z" fill="#FF4F6F"/>
<path d="M304.208 376.853C308.102 376.853 311.259 373.696 311.259 369.802C311.259 365.907 308.102 362.75 304.208 362.75C300.313 362.75 297.156 365.907 297.156 369.802C297.156 373.696 300.313 376.853 304.208 376.853Z" fill="#FF4F6F"/>
<path d="M182.052 206.658C185.946 206.658 189.103 203.501 189.103 199.606C189.103 195.712 185.946 192.555 182.052 192.555C178.157 192.555 175 195.712 175 199.606C175 203.501 178.157 206.658 182.052 206.658Z" fill="#FF4F6F"/>
<path d="M63.575 381.088C67.4695 381.088 70.6266 377.93 70.6266 374.036C70.6266 370.141 67.4695 366.984 63.575 366.984C59.6805 366.984 56.5234 370.141 56.5234 374.036C56.5234 377.93 59.6805 381.088 63.575 381.088Z" fill="#FF4F6F"/>
<path d="M269.489 432.588C273.384 432.588 276.541 429.43 276.541 425.536C276.541 421.641 273.384 418.484 269.489 418.484C265.595 418.484 262.438 421.641 262.438 425.536C262.438 429.43 265.595 432.588 269.489 432.588Z" fill="#FF4F6F"/>
<path d="M246.778 220.189C250.673 220.189 253.83 217.032 253.83 213.138C253.83 209.243 250.673 206.086 246.778 206.086C242.884 206.086 239.727 209.243 239.727 213.138C239.727 217.032 242.884 220.189 246.778 220.189Z" fill="#FF4F6F"/>
<path d="M53.9578 315.252C57.8523 315.252 61.0094 312.094 61.0094 308.2C61.0094 304.306 57.8523 301.148 53.9578 301.148C50.0633 301.148 46.9062 304.306 46.9062 308.2C46.9062 312.094 50.0633 315.252 53.9578 315.252Z" fill="#FF4F6F"/>
<path d="M210.606 464.455C214.501 464.455 217.658 461.298 217.658 457.403C217.658 453.509 214.501 450.352 210.606 450.352C206.712 450.352 203.555 453.509 203.555 457.403C203.555 461.298 206.712 464.455 210.606 464.455Z" fill="#FF4F6F"/>
<path d="M297.27 264.783C301.165 264.783 304.322 261.626 304.322 257.731C304.322 253.837 301.165 250.68 297.27 250.68C293.376 250.68 290.219 253.837 290.219 257.731C290.219 261.626 293.376 264.783 297.27 264.783Z" fill="#FF4F6F"/>
<path d="M78.6375 252.111C82.532 252.111 85.6891 248.954 85.6891 245.059C85.6891 241.165 82.532 238.008 78.6375 238.008C74.743 238.008 71.5859 241.165 71.5859 245.059C71.5859 248.954 74.743 252.111 78.6375 252.111Z" fill="#FF4F6F"/>
<path d="M142.419 462.986C146.313 462.986 149.47 459.829 149.47 455.934C149.47 452.04 146.313 448.883 142.419 448.883C138.524 448.883 135.367 452.04 135.367 455.934C135.367 459.829 138.524 462.986 142.419 462.986Z" fill="#FF4F6F"/>
<path d="M319.466 329.713C323.36 329.713 326.517 326.555 326.517 322.661C326.517 318.766 323.36 315.609 319.466 315.609C315.571 315.609 312.414 318.766 312.414 322.661C312.414 326.555 315.571 329.713 319.466 329.713Z" fill="#FF4F6F"/>
<path d="M132.263 208.673C136.157 208.673 139.314 205.516 139.314 201.622C139.314 197.727 136.157 194.57 132.263 194.57C128.368 194.57 125.211 197.727 125.211 201.622C125.211 205.516 128.368 208.673 132.263 208.673Z" fill="#FF4F6F"/>
<path d="M82.8094 427.384C86.7038 427.384 89.8609 424.227 89.8609 420.333C89.8609 416.438 86.7038 413.281 82.8094 413.281C78.9149 413.281 75.7578 416.438 75.7578 420.333C75.7578 424.227 78.9149 427.384 82.8094 427.384Z" fill="#FF4F6F"/>
<path d="M306.466 398.306C310.36 398.306 313.517 395.149 313.517 391.255C313.517 387.36 310.36 384.203 306.466 384.203C302.571 384.203 299.414 387.36 299.414 391.255C299.414 395.149 302.571 398.306 306.466 398.306Z" fill="#FF4F6F"/>
<path d="M196.153 189.9C200.048 189.9 203.205 186.743 203.205 182.848C203.205 178.954 200.048 175.797 196.153 175.797C192.259 175.797 189.102 178.954 189.102 182.848C189.102 186.743 192.259 189.9 196.153 189.9Z" fill="#FF4F6F"/>
<path d="M48.0281 365.916C51.9226 365.916 55.0797 362.759 55.0797 358.864C55.0797 354.97 51.9226 351.812 48.0281 351.812C44.1337 351.812 40.9766 354.97 40.9766 358.864C40.9766 362.759 44.1337 365.916 48.0281 365.916Z" fill="#FF4F6F"/>
<path d="M260.442 452.431C264.337 452.431 267.494 449.274 267.494 445.38C267.494 441.485 264.337 438.328 260.442 438.328C256.548 438.328 253.391 441.485 253.391 445.38C253.391 449.274 256.548 452.431 260.442 452.431Z" fill="#FF4F6F"/>
<path d="M268.567 221.947C272.462 221.947 275.619 218.79 275.619 214.895C275.619 211.001 272.462 207.844 268.567 207.844C264.673 207.844 261.516 211.001 261.516 214.895C261.516 218.79 264.673 221.947 268.567 221.947Z" fill="#FF4F6F"/>
<path d="M48.1922 294.088C52.0867 294.088 55.2438 290.93 55.2438 287.036C55.2438 283.141 52.0867 279.984 48.1922 279.984C44.2977 279.984 41.1406 283.141 41.1406 287.036C41.1406 290.93 44.2977 294.088 48.1922 294.088Z" fill="#FF4F6F"/>
<path d="M192.598 477.111C196.493 477.111 199.65 473.954 199.65 470.059C199.65 466.165 196.493 463.008 192.598 463.008C188.704 463.008 185.547 466.165 185.547 470.059C185.547 473.954 188.704 477.111 192.598 477.111Z" fill="#FF4F6F"/>
<path d="M315.348 277.455C319.243 277.455 322.4 274.298 322.4 270.403C322.4 266.509 319.243 263.352 315.348 263.352C311.454 263.352 308.297 266.509 308.297 270.403C308.297 274.298 311.454 277.455 315.348 277.455Z" fill="#FF4F6F"/>
<path d="M84.4187 230.713C88.3132 230.713 91.4703 227.555 91.4703 223.661C91.4703 219.766 88.3132 216.609 84.4187 216.609C80.5243 216.609 77.3672 219.766 77.3672 223.661C77.3672 227.555 80.5243 230.713 84.4187 230.713Z" fill="#FF4F6F"/>
<path d="M120.247 464.861C124.141 464.861 127.298 461.704 127.298 457.809C127.298 453.915 124.141 450.758 120.247 450.758C116.352 450.758 113.195 453.915 113.195 457.809C113.195 461.704 116.352 464.861 120.247 464.861Z" fill="#FF4F6F"/>
<path d="M328.786 349.994C332.68 349.994 335.838 346.837 335.838 342.942C335.838 339.048 332.68 335.891 328.786 335.891C324.891 335.891 321.734 339.048 321.734 342.942C321.734 346.837 324.891 349.994 328.786 349.994Z" fill="#6684BF"/>
<path d="M148.216 192.955C152.11 192.955 155.267 189.798 155.267 185.903C155.267 182.009 152.11 178.852 148.216 178.852C144.321 178.852 141.164 182.009 141.164 185.903C141.164 189.798 144.321 192.955 148.216 192.955Z" fill="#FF4F6F"/>
<path d="M62.5594 417.697C66.4539 417.697 69.6109 414.54 69.6109 410.645C69.6109 406.751 66.4539 403.594 62.5594 403.594C58.6649 403.594 55.5078 406.751 55.5078 410.645C55.5078 414.54 58.6649 417.697 62.5594 417.697Z" fill="#FF4F6F"/>
<path d="M254.18 96.0261C252.354 96.0261 251.177 95.0911 251.144 93.2541H252.893C252.959 94.2771 253.41 94.5961 254.169 94.5961C254.697 94.5961 255.313 94.3321 255.313 93.5731C255.313 92.8251 254.763 92.6601 253.762 92.4181C252.387 92.0881 251.342 91.5711 251.342 89.9431C251.342 88.3041 252.53 87.5011 254.103 87.5011C255.643 87.5011 256.754 88.3151 256.798 89.9541H255.104C255.049 89.2171 254.631 88.8651 254.037 88.8651C253.465 88.8651 253.014 89.1511 253.014 89.7451C253.014 90.4161 253.597 90.5921 254.73 90.8561C255.94 91.1311 257.007 91.7031 257.007 93.3971C257.007 95.1241 255.885 96.0261 254.18 96.0261ZM261.301 95.9821C259.42 95.9821 258.606 94.9371 258.606 93.0231V87.6441H260.388V93.0561C260.388 93.9801 260.608 94.5301 261.279 94.5301C261.895 94.5301 262.137 93.9581 262.137 93.0231V87.6441H263.941V93.0231C263.941 94.9261 263.138 95.9821 261.301 95.9821ZM268.577 96.0151C266.641 96.0151 265.53 94.4311 265.53 91.7691C265.53 89.1071 266.652 87.5011 268.621 87.5011C270.249 87.5011 271.217 88.5791 271.327 90.3721H269.534C269.523 89.4481 269.116 88.9861 268.588 88.9861C267.686 88.9861 267.356 89.9541 267.356 91.7691C267.356 93.5951 267.752 94.5301 268.566 94.5301C269.182 94.5301 269.556 94.0791 269.589 92.9571H271.371C271.272 94.9151 270.403 96.0151 268.577 96.0151ZM275.731 96.0151C273.795 96.0151 272.684 94.4311 272.684 91.7691C272.684 89.1071 273.806 87.5011 275.775 87.5011C277.403 87.5011 278.371 88.5791 278.481 90.3721H276.688C276.677 89.4481 276.27 88.9861 275.742 88.9861C274.84 88.9861 274.51 89.9541 274.51 91.7691C274.51 93.5951 274.906 94.5301 275.72 94.5301C276.336 94.5301 276.71 94.0791 276.743 92.9571H278.525C278.426 94.9151 277.557 96.0151 275.731 96.0151ZM285.437 94.2881V95.8281H280.025V87.6441H285.393V89.1401H281.807V90.8671H284.909V92.2861H281.807V94.2881H285.437ZM289.952 96.0261C288.126 96.0261 286.949 95.0911 286.916 93.2541H288.665C288.731 94.2771 289.182 94.5961 289.941 94.5961C290.469 94.5961 291.085 94.3321 291.085 93.5731C291.085 92.8251 290.535 92.6601 289.534 92.4181C288.159 92.0881 287.114 91.5711 287.114 89.9431C287.114 88.3041 288.302 87.5011 289.875 87.5011C291.415 87.5011 292.526 88.3151 292.57 89.9541H290.876C290.821 89.2171 290.403 88.8651 289.809 88.8651C289.237 88.8651 288.786 89.1511 288.786 89.7451C288.786 90.4161 289.369 90.5921 290.502 90.8561C291.712 91.1311 292.779 91.7031 292.779 93.3971C292.779 95.1241 291.657 96.0261 289.952 96.0261ZM297.106 96.0261C295.28 96.0261 294.103 95.0911 294.07 93.2541H295.819C295.885 94.2771 296.336 94.5961 297.095 94.5961C297.623 94.5961 298.239 94.3321 298.239 93.5731C298.239 92.8251 297.689 92.6601 296.688 92.4181C295.313 92.0881 294.268 91.5711 294.268 89.9431C294.268 88.3041 295.456 87.5011 297.029 87.5011C298.569 87.5011 299.68 88.3151 299.724 89.9541H298.03C297.975 89.2171 297.557 88.8651 296.963 88.8651C296.391 88.8651 295.94 89.1511 295.94 89.7451C295.94 90.4161 296.523 90.5921 297.656 90.8561C298.866 91.1311 299.933 91.7031 299.933 93.3971C299.933 95.1241 298.811 96.0261 297.106 96.0261ZM306.361 92.4841H303.27V95.8281H301.488V87.6441H306.845V89.1621H303.27V91.0321H306.361V92.4841ZM311.381 95.9821C309.5 95.9821 308.686 94.9371 308.686 93.0231V87.6441H310.468V93.0561C310.468 93.9801 310.688 94.5301 311.359 94.5301C311.975 94.5301 312.217 93.9581 312.217 93.0231V87.6441H314.021V93.0231C314.021 94.9261 313.218 95.9821 311.381 95.9821ZM316.083 95.8281V87.6441H317.876V94.2881H321.066V95.8281H316.083ZM254.125 107.026C252.167 107.026 251.21 105.42 251.21 102.769C251.21 100.107 252.156 98.5011 254.125 98.5011C256.083 98.5011 257.018 100.107 257.018 102.769C257.018 105.42 256.072 107.026 254.125 107.026ZM254.136 105.552C254.961 105.552 255.192 104.551 255.192 102.769C255.192 100.965 254.961 99.9531 254.136 99.9531C253.311 99.9531 253.036 100.965 253.036 102.769C253.036 104.551 253.311 105.552 254.136 105.552ZM258.573 106.828V98.6441H260.465L261.466 101.251C261.807 102.131 262.412 103.979 262.412 103.979H262.467C262.467 103.979 262.335 102.021 262.335 101.009V98.6441H263.974V106.828H262.082L261.092 104.265C260.751 103.374 260.146 101.504 260.146 101.504H260.091C260.091 101.504 260.223 103.473 260.223 104.485V106.828H258.573ZM268.577 107.015C266.641 107.015 265.53 105.431 265.53 102.769C265.53 100.107 266.652 98.5011 268.621 98.5011C270.249 98.5011 271.217 99.5791 271.327 101.372H269.534C269.523 100.448 269.116 99.9861 268.588 99.9861C267.686 99.9861 267.356 100.954 267.356 102.769C267.356 104.595 267.752 105.53 268.566 105.53C269.182 105.53 269.556 105.079 269.589 103.957H271.371C271.272 105.915 270.403 107.015 268.577 107.015ZM275.588 107.026C273.63 107.026 272.673 105.42 272.673 102.769C272.673 100.107 273.619 98.5011 275.588 98.5011C277.546 98.5011 278.481 100.107 278.481 102.769C278.481 105.42 277.535 107.026 275.588 107.026ZM275.599 105.552C276.424 105.552 276.655 104.551 276.655 102.769C276.655 100.965 276.424 99.9531 275.599 99.9531C274.774 99.9531 274.499 100.965 274.499 102.769C274.499 104.551 274.774 105.552 275.599 105.552ZM280.311 106.828V98.6441H282.104V105.288H285.294V106.828H280.311ZM289.897 107.026C287.939 107.026 286.982 105.42 286.982 102.769C286.982 100.107 287.928 98.5011 289.897 98.5011C291.855 98.5011 292.79 100.107 292.79 102.769C292.79 105.42 291.844 107.026 289.897 107.026ZM289.908 105.552C290.733 105.552 290.964 104.551 290.964 102.769C290.964 100.965 290.733 99.9531 289.908 99.9531C289.083 99.9531 288.808 100.965 288.808 102.769C288.808 104.551 289.083 105.552 289.908 105.552ZM296.886 107.015C295.016 107.015 294.004 105.497 294.004 102.769C294.004 100.129 295.225 98.5011 297.051 98.5011C298.679 98.5011 299.658 99.4361 299.823 101.141H298.063C297.997 100.349 297.678 99.9751 297.117 99.9751C296.281 99.9751 295.808 100.866 295.808 102.769C295.808 104.705 296.204 105.552 297.15 105.552C297.777 105.552 298.25 104.925 298.25 104.056V103.803H297.392V102.45H299.922V106.828H298.646L298.602 105.849H298.58C298.283 106.63 297.601 107.015 296.886 107.015ZM305.074 106.828H303.292V103.792L301.268 98.6441H303.182L303.589 99.8431C303.842 100.591 304.161 102.329 304.161 102.329H304.227C304.227 102.329 304.546 100.591 304.821 99.8431L305.261 98.6441H307.087L305.074 103.737V106.828ZM315.797 106.828V98.6441H318.404C320.153 98.6441 321.407 99.9751 321.407 102.791C321.407 105.541 320.318 106.828 318.294 106.828H315.797ZM317.579 105.321H318.107C319.141 105.321 319.592 104.705 319.592 102.791C319.592 100.877 319.075 100.151 318.107 100.151H317.579V105.321ZM326.79 106.828L325.492 103.814H324.766V106.828H322.951V98.6441H325.679C327.56 98.6441 328.484 99.7221 328.484 101.273C328.484 102.318 328.044 103.099 327.23 103.506L328.748 106.828H326.79ZM324.766 100.162V102.395H325.635C326.372 102.395 326.691 102.01 326.691 101.273C326.691 100.547 326.372 100.162 325.613 100.162H324.766ZM332.844 106.982C330.963 106.982 330.149 105.937 330.149 104.023V98.6441H331.931V104.056C331.931 104.98 332.151 105.53 332.822 105.53C333.438 105.53 333.68 104.958 333.68 104.023V98.6441H335.484V104.023C335.484 105.926 334.681 106.982 332.844 106.982ZM339.812 107.015C337.942 107.015 336.93 105.497 336.93 102.769C336.93 100.129 338.151 98.5011 339.977 98.5011C341.605 98.5011 342.584 99.4361 342.749 101.141H340.989C340.923 100.349 340.604 99.9751 340.043 99.9751C339.207 99.9751 338.734 100.866 338.734 102.769C338.734 104.705 339.13 105.552 340.076 105.552C340.703 105.552 341.176 104.925 341.176 104.056V103.803H340.318V102.45H342.848V106.828H341.572L341.528 105.849H341.506C341.209 106.63 340.527 107.015 339.812 107.015ZM253.839 117.828V112.471H252.068V111.272C253.234 111.239 254.015 110.755 254.213 109.589H255.643V117.828H253.839ZM260.19 114.253V112.306H262.324V114.253H260.19ZM260.19 117.828V115.881H262.324V117.828H260.19ZM271.173 117.828H265.662C265.662 116.827 265.915 116.178 266.366 115.584C266.971 114.781 268.104 113.978 268.621 113.461C269.039 113.043 269.325 112.592 269.325 112.042C269.325 111.382 269.039 110.953 268.412 110.953C268.17 110.953 267.906 111.03 267.719 111.283C267.51 111.558 267.455 111.943 267.444 112.427H265.75C265.75 111.646 265.871 111.074 266.168 110.568C266.564 109.908 267.367 109.501 268.489 109.501C270.249 109.501 271.151 110.546 271.151 111.987C271.151 112.889 270.832 113.483 270.403 113.978C269.721 114.77 268.467 115.562 268.005 116.332C268.005 116.343 271.173 116.332 271.173 116.332V117.828ZM278.448 113.769C278.448 116.42 277.535 118.026 275.588 118.026C273.63 118.026 272.706 116.42 272.706 113.769C272.706 111.107 273.619 109.501 275.588 109.501C277.546 109.501 278.448 111.107 278.448 113.769ZM274.521 113.769C274.521 115.551 274.774 116.552 275.599 116.552C276.424 116.552 276.633 115.551 276.633 113.769C276.633 111.965 276.424 110.953 275.599 110.953C274.774 110.953 274.521 111.965 274.521 113.769Z" fill="#344899"/>
<path d="M256.281 530.125H253.19V533.469H251.408V525.285H256.765V526.803H253.19V528.673H256.281V530.125ZM262.412 533.469L262.071 531.819H260.322L259.981 533.469H258.265L260.212 525.285H262.313L264.271 533.469H262.412ZM260.762 529.707L260.586 530.532H261.807L261.642 529.707C261.422 528.607 261.235 526.891 261.235 526.891H261.202C261.202 526.891 260.96 528.75 260.762 529.707ZM270.645 533.469H266.201V532.05H267.521V526.704H266.201V525.285H270.645V526.704H269.314V532.05H270.645V533.469ZM273.157 533.469V525.285H274.95V531.929H278.14V533.469H273.157ZM285.437 531.929V533.469H280.025V525.285H285.393V526.781H281.807V528.508H284.909V529.927H281.807V531.929H285.437ZM287.18 533.469V525.285H289.787C291.536 525.285 292.79 526.616 292.79 529.432C292.79 532.182 291.701 533.469 289.677 533.469H287.18ZM288.962 531.962H289.49C290.524 531.962 290.975 531.346 290.975 529.432C290.975 527.518 290.458 526.792 289.49 526.792H288.962V531.962ZM254.125 544.667C252.167 544.667 251.21 543.061 251.21 540.41C251.21 537.748 252.156 536.142 254.125 536.142C256.083 536.142 257.018 537.748 257.018 540.41C257.018 543.061 256.072 544.667 254.125 544.667ZM254.136 543.193C254.961 543.193 255.192 542.192 255.192 540.41C255.192 538.606 254.961 537.594 254.136 537.594C253.311 537.594 253.036 538.606 253.036 540.41C253.036 542.192 253.311 543.193 254.136 543.193ZM258.573 544.469V536.285H260.465L261.466 538.892C261.807 539.772 262.412 541.62 262.412 541.62H262.467C262.467 541.62 262.335 539.662 262.335 538.65V536.285H263.974V544.469H262.082L261.092 541.906C260.751 541.015 260.146 539.145 260.146 539.145H260.091C260.091 539.145 260.223 541.114 260.223 542.126V544.469H258.573ZM268.577 544.656C266.641 544.656 265.53 543.072 265.53 540.41C265.53 537.748 266.652 536.142 268.621 536.142C270.249 536.142 271.217 537.22 271.327 539.013H269.534C269.523 538.089 269.116 537.627 268.588 537.627C267.686 537.627 267.356 538.595 267.356 540.41C267.356 542.236 267.752 543.171 268.566 543.171C269.182 543.171 269.556 542.72 269.589 541.598H271.371C271.272 543.556 270.403 544.656 268.577 544.656ZM275.588 544.667C273.63 544.667 272.673 543.061 272.673 540.41C272.673 537.748 273.619 536.142 275.588 536.142C277.546 536.142 278.481 537.748 278.481 540.41C278.481 543.061 277.535 544.667 275.588 544.667ZM275.599 543.193C276.424 543.193 276.655 542.192 276.655 540.41C276.655 538.606 276.424 537.594 275.599 537.594C274.774 537.594 274.499 538.606 274.499 540.41C274.499 542.192 274.774 543.193 275.599 543.193ZM280.311 544.469V536.285H282.104V542.929H285.294V544.469H280.311ZM289.897 544.667C287.939 544.667 286.982 543.061 286.982 540.41C286.982 537.748 287.928 536.142 289.897 536.142C291.855 536.142 292.79 537.748 292.79 540.41C292.79 543.061 291.844 544.667 289.897 544.667ZM289.908 543.193C290.733 543.193 290.964 542.192 290.964 540.41C290.964 538.606 290.733 537.594 289.908 537.594C289.083 537.594 288.808 538.606 288.808 540.41C288.808 542.192 289.083 543.193 289.908 543.193ZM296.886 544.656C295.016 544.656 294.004 543.138 294.004 540.41C294.004 537.77 295.225 536.142 297.051 536.142C298.679 536.142 299.658 537.077 299.823 538.782H298.063C297.997 537.99 297.678 537.616 297.117 537.616C296.281 537.616 295.808 538.507 295.808 540.41C295.808 542.346 296.204 543.193 297.15 543.193C297.777 543.193 298.25 542.566 298.25 541.697V541.444H297.392V540.091H299.922V544.469H298.646L298.602 543.49H298.58C298.283 544.271 297.601 544.656 296.886 544.656ZM305.074 544.469H303.292V541.433L301.268 536.285H303.182L303.589 537.484C303.842 538.232 304.161 539.97 304.161 539.97H304.227C304.227 539.97 304.546 538.232 304.821 537.484L305.261 536.285H307.087L305.074 541.378V544.469ZM315.797 544.469V536.285H318.404C320.153 536.285 321.407 537.616 321.407 540.432C321.407 543.182 320.318 544.469 318.294 544.469H315.797ZM317.579 542.962H318.107C319.141 542.962 319.592 542.346 319.592 540.432C319.592 538.518 319.075 537.792 318.107 537.792H317.579V542.962ZM326.79 544.469L325.492 541.455H324.766V544.469H322.951V536.285H325.679C327.56 536.285 328.484 537.363 328.484 538.914C328.484 539.959 328.044 540.74 327.23 541.147L328.748 544.469H326.79ZM324.766 537.803V540.036H325.635C326.372 540.036 326.691 539.651 326.691 538.914C326.691 538.188 326.372 537.803 325.613 537.803H324.766ZM332.844 544.623C330.963 544.623 330.149 543.578 330.149 541.664V536.285H331.931V541.697C331.931 542.621 332.151 543.171 332.822 543.171C333.438 543.171 333.68 542.599 333.68 541.664V536.285H335.484V541.664C335.484 543.567 334.681 544.623 332.844 544.623ZM339.812 544.656C337.942 544.656 336.93 543.138 336.93 540.41C336.93 537.77 338.151 536.142 339.977 536.142C341.605 536.142 342.584 537.077 342.749 538.782H340.989C340.923 537.99 340.604 537.616 340.043 537.616C339.207 537.616 338.734 538.507 338.734 540.41C338.734 542.346 339.13 543.193 340.076 543.193C340.703 543.193 341.176 542.566 341.176 541.697V541.444H340.318V540.091H342.848V544.469H341.572L341.528 543.49H341.506C341.209 544.271 340.527 544.656 339.812 544.656ZM253.839 555.469V550.112H252.068V548.913C253.234 548.88 254.015 548.396 254.213 547.23H255.643V555.469H253.839ZM258.375 550.024C258.375 548.319 259.552 547.142 261.18 547.142C262.027 547.142 262.742 547.417 263.237 547.934C263.886 548.616 264.161 549.76 264.161 551.344C264.161 552.741 263.996 553.962 263.424 554.699C262.929 555.337 262.247 555.656 261.246 555.656C259.706 555.656 258.738 554.71 258.573 553.522H260.289C260.377 553.896 260.663 554.303 261.202 554.303C261.664 554.303 261.994 554.149 262.214 553.676C262.39 553.313 262.434 552.708 262.467 551.938H262.445C262.06 552.532 261.631 552.895 260.916 552.895C259.486 552.895 258.375 551.85 258.375 550.024ZM262.368 550.024C262.368 549.067 261.928 548.484 261.235 548.484C260.509 548.484 260.08 549.089 260.08 550.013C260.08 550.981 260.487 551.564 261.235 551.564C261.917 551.564 262.368 551.014 262.368 550.024ZM267.345 551.894V549.947H269.479V551.894H267.345ZM267.345 555.469V553.522H269.479V555.469H267.345ZM278.327 555.469H272.816C272.816 554.468 273.069 553.819 273.52 553.225C274.125 552.422 275.258 551.619 275.775 551.102C276.193 550.684 276.479 550.233 276.479 549.683C276.479 549.023 276.193 548.594 275.566 548.594C275.324 548.594 275.06 548.671 274.873 548.924C274.664 549.199 274.609 549.584 274.598 550.068H272.904C272.904 549.287 273.025 548.715 273.322 548.209C273.718 547.549 274.521 547.142 275.643 547.142C277.403 547.142 278.305 548.187 278.305 549.628C278.305 550.53 277.986 551.124 277.557 551.619C276.875 552.411 275.621 553.203 275.159 553.973C275.159 553.984 278.327 553.973 278.327 553.973V555.469ZM285.602 551.41C285.602 554.061 284.689 555.667 282.742 555.667C280.784 555.667 279.86 554.061 279.86 551.41C279.86 548.748 280.773 547.142 282.742 547.142C284.7 547.142 285.602 548.748 285.602 551.41ZM281.675 551.41C281.675 553.192 281.928 554.193 282.753 554.193C283.578 554.193 283.787 553.192 283.787 551.41C283.787 549.606 283.578 548.594 282.753 548.594C281.928 548.594 281.675 549.606 281.675 551.41Z" fill="#DA2F62"/>
<path d="M207.289 225.3C208.555 225.3 209.581 224.274 209.581 223.008C209.581 221.742 208.555 220.716 207.289 220.716C206.023 220.716 204.997 221.742 204.997 223.008C204.997 224.274 206.023 225.3 207.289 225.3ZM253.607 131.335V176.182H254.466V131.335H253.607ZM253.607 176.182C253.607 177.258 253.294 178.863 252.438 180.184C251.595 181.484 250.23 182.512 248.064 182.512V183.372C250.561 183.372 252.181 182.161 253.159 180.652C254.124 179.163 254.466 177.388 254.466 176.182H253.607ZM248.064 182.512H212.539V183.372H248.064V182.512ZM212.539 182.512C210.81 182.512 209.37 182.969 208.365 183.99C207.361 185.01 206.859 186.525 206.859 188.496H207.719C207.719 186.661 208.185 185.399 208.978 184.593C209.769 183.789 210.954 183.372 212.539 183.372V182.512ZM206.859 188.496V223.008H207.719V188.496H206.859Z" fill="#6684BF"/>
<path d="M225.211 442.122C226.477 442.122 227.503 443.148 227.503 444.414C227.503 445.68 226.477 446.706 225.211 446.706C223.945 446.706 222.919 445.68 222.919 444.414C222.919 443.148 223.945 442.122 225.211 442.122ZM254.016 474.829C254.016 474.127 253.804 473.338 253.263 472.73C252.731 472.134 251.838 471.661 250.372 471.661V470.802C252.038 470.802 253.182 471.347 253.905 472.159C254.618 472.96 254.876 473.969 254.876 474.829H254.016ZM250.372 471.661H229.859V470.802H250.372V471.661ZM229.859 471.661C227.854 471.661 226.544 471.19 225.752 470.301C224.969 469.421 224.781 468.227 224.781 467H225.641C225.641 468.172 225.828 469.093 226.394 469.729C226.952 470.356 227.967 470.802 229.859 470.802V471.661ZM224.781 467V444.414H225.641V467H224.781ZM254.016 513.963V499.808H254.876V513.963H254.016ZM254.016 499.808V474.829H254.876V499.808H254.016Z" fill="#FF4F6F"/>
</svg>
