<svg width="1920" height="1080" viewBox="0 0 1920 1080" fill="none" xmlns="http://www.w3.org/2000/svg">
<rect width="1920" height="1080" fill="#CED7E9"/>
<path d="M43.6248 63.6776C39.9262 63.6776 36.9758 62.3083 34.7736 59.5697C32.5997 56.831 31.5127 53.1466 31.5127 48.5163C31.5127 43.886 32.6138 40.2016 34.816 37.4629C37.0182 34.7243 39.9686 33.355 43.6671 33.355C47.3939 33.355 50.3302 34.7243 52.4759 37.4629C54.6499 40.1733 55.7369 43.8578 55.7369 48.5163C55.7369 53.1466 54.6499 56.831 52.4759 59.5697C50.3302 62.3083 47.3798 63.6776 43.6248 63.6776ZM43.6671 58.765C47.7045 58.765 49.7232 55.3488 49.7232 48.5163C49.7232 45.2977 49.2291 42.7849 48.2409 40.978C47.2528 39.1711 45.7282 38.2676 43.6671 38.2676C41.5779 38.2676 40.025 39.1711 39.0086 40.978C38.0205 42.7849 37.5264 45.2977 37.5264 48.5163C37.5264 51.7349 38.0205 54.2477 39.0086 56.0546C40.025 57.8615 41.5779 58.765 43.6671 58.765ZM70.383 63.6776C66.6845 63.6776 63.7341 62.3083 61.5319 59.5697C59.3579 56.831 58.2709 53.1466 58.2709 48.5163C58.2709 43.886 59.372 40.2016 61.5742 37.4629C63.7764 34.7243 66.7268 33.355 70.4254 33.355C74.1522 33.355 77.0885 34.7243 79.2342 37.4629C81.4082 40.1733 82.4951 43.8578 82.4951 48.5163C82.4951 53.1466 81.4082 56.831 79.2342 59.5697C77.0885 62.3083 74.1381 63.6776 70.383 63.6776ZM70.4254 58.765C74.4628 58.765 76.4814 55.3488 76.4814 48.5163C76.4814 45.2977 75.9874 42.7849 74.9992 40.978C74.011 39.1711 72.4864 38.2676 70.4254 38.2676C68.3361 38.2676 66.7833 39.1711 65.7669 40.978C64.7787 42.7849 64.2846 45.2977 64.2846 48.5163C64.2846 51.7349 64.7787 54.2477 65.7669 56.0546C66.7833 57.8615 68.3361 58.765 70.4254 58.765ZM95.8284 63.6353C92.1581 63.6353 89.3489 62.7035 87.4008 60.8401C85.4527 58.9485 84.4504 56.3793 84.3939 53.1324H89.8994C90.1253 57.0569 92.0311 59.0191 95.6167 59.0191C97.226 59.0191 98.4824 58.6097 99.3858 57.791C100.289 56.9439 100.741 55.7864 100.741 54.3182C100.741 52.9066 100.289 51.8055 99.3858 51.0149C98.4824 50.2244 97.1554 49.8291 95.4049 49.8291H93.6262V45.4671H95.2779C96.6896 45.4671 97.8189 45.1283 98.6659 44.4507C99.5411 43.7731 99.9787 42.8273 99.9787 41.6133C99.9787 40.4557 99.6117 39.5381 98.8776 38.8605C98.1436 38.1547 97.1413 37.8017 95.8708 37.8017C94.2897 37.8017 93.0616 38.2676 92.1863 39.1993C91.3393 40.131 90.8876 41.3874 90.8311 42.9684H85.3256C85.4386 40.0322 86.3985 37.7029 88.2054 35.9807C90.0124 34.2585 92.5675 33.3973 95.8708 33.3973C98.92 33.3973 101.334 34.1032 103.113 35.5148C104.92 36.9265 105.823 38.8323 105.823 41.2321C105.823 44.2248 104.171 46.2576 100.868 47.3305V47.4152C104.793 48.3751 106.755 50.8032 106.755 54.6994C106.755 57.5792 105.724 59.7955 103.663 61.3484C101.602 62.873 98.9906 63.6353 95.8284 63.6353Z" fill="#344899"/>
<mask id="mask0_1219_515" style="mask-type:luminance" maskUnits="userSpaceOnUse" x="1133" y="404" width="556" height="616">
<path d="M1688.85 449.312L1133.27 404.295V1019.61H1688.85V449.312Z" fill="white"/>
</mask>
<g mask="url(#mask0_1219_515)">
<path d="M1227.16 719.453H1384.31H1543.48C1618.34 719.453 1679.26 657.541 1679.26 582.682C1679.26 507.823 1618.34 457.931 1543.48 457.931H1142.88V949.82" stroke="#2E499E" stroke-width="2"/>
<path d="M1227.24 727.182H1543.52C1623.17 727.182 1686.98 662.353 1686.98 582.687C1686.98 503.02 1623.17 450.191 1543.52 450.191H1134.26V949.872" stroke="#2E499E" stroke-width="2"/>
</g>
<path d="M29.916 300.899H1566.9C1634.15 300.899 1688.86 243.097 1688.86 172.04C1688.86 100.982 1634.15 43.1802 1566.9 43.1802H214.676" stroke="#2E499E" stroke-width="2"/>
<path d="M29.916 310.125H1566.91C1638.95 310.125 1697.59 248.19 1697.59 172.039C1697.59 95.8883 1638.97 33.9531 1566.91 33.9531L214.68 33.9547" stroke="#2E499E" stroke-width="2"/>
<path d="M1797.82 983.235H266.396C191.686 983.235 130.914 924.732 130.914 852.852C130.914 780.973 191.686 727.47 266.396 727.451H783.111M783.111 719.072H266.396C191.686 719.072 130.914 660.569 130.914 588.69C130.914 516.811 191.705 458.289 266.396 458.289H783.111M783.111 449.891H266.396C186.888 449.891 122.188 512.156 122.188 588.671C122.188 653.52 168.645 708.109 231.213 723.252C168.645 738.415 122.188 788.003 122.188 852.852C122.188 929.387 186.888 991.633 266.396 991.633H1797.82" stroke="#2E499E" stroke-width="2" stroke-miterlimit="10"/>
<path d="M217.477 148.465H216.477V149.465H217.477V148.465ZM217.477 76.9648V75.9648H216.477V76.9648H217.477ZM267.177 86.6648L266.406 87.3011L267.177 86.6648ZM266.877 138.965L267.63 139.623L266.877 138.965ZM226.477 140.565H225.477V141.565H226.477V140.565ZM226.477 84.7648V83.7648H225.477V84.7648H226.477ZM218.477 148.465V76.9648H216.477V148.465H218.477ZM217.477 77.9648H243.477V75.9648H217.477V77.9648ZM243.477 77.9648C253.726 77.9648 261.309 81.1207 266.406 87.3011L267.949 86.0286C262.379 79.2756 254.162 75.9648 243.477 75.9648V77.9648ZM266.406 87.3011C271.55 93.5383 274.177 102.055 274.177 112.965H276.177C276.177 101.741 273.471 92.7248 267.949 86.0286L266.406 87.3011ZM274.177 112.965C274.177 123.799 271.455 132.206 266.124 138.307L267.63 139.623C273.367 133.057 276.177 124.131 276.177 112.965H274.177ZM266.124 138.307C260.827 144.37 253.101 147.465 242.777 147.465V149.465C253.521 149.465 261.861 146.226 267.63 139.623L266.124 138.307ZM242.777 147.465H217.477V149.465H242.777V147.465ZM226.477 141.565H242.477V139.565H226.477V141.565ZM242.477 141.565C250.511 141.565 256.704 139.199 260.864 134.313C264.997 129.458 266.977 122.283 266.977 112.965H264.977C264.977 122.046 263.041 128.671 259.341 133.017C255.667 137.331 250.111 139.565 242.477 139.565V141.565ZM266.977 112.965C266.977 103.456 265.06 96.1392 261.055 91.1861C257.017 86.1924 250.994 83.7648 243.177 83.7648V85.7648C250.56 85.7648 255.937 88.0373 259.5 92.4436C263.095 96.8905 264.977 103.674 264.977 112.965H266.977ZM243.177 83.7648H226.477V85.7648H243.177V83.7648ZM225.477 84.7648V140.565H227.477V84.7648H225.477ZM281.837 148.465H280.837V149.465H281.837V148.465ZM281.837 76.9648V75.9648H280.837V76.9648H281.837ZM332.337 76.9648H333.337V75.9648H332.337V76.9648ZM332.337 84.8648V85.8648H333.337V84.8648H332.337ZM290.837 84.8648V83.8648H289.837V84.8648H290.837ZM290.837 107.465H289.837V108.465H290.837V107.465ZM328.537 107.465H329.537V106.465H328.537V107.465ZM328.537 115.065V116.065H329.537V115.065H328.537ZM290.837 115.065V114.065H289.837V115.065H290.837ZM290.837 140.165H289.837V141.165H290.837V140.165ZM333.537 140.165H334.537V139.165H333.537V140.165ZM333.537 148.465V149.465H334.537V148.465H333.537ZM282.837 148.465V76.9648H280.837V148.465H282.837ZM281.837 77.9648H332.337V75.9648H281.837V77.9648ZM331.337 76.9648V84.8648H333.337V76.9648H331.337ZM332.337 83.8648H290.837V85.8648H332.337V83.8648ZM289.837 84.8648V107.465H291.837V84.8648H289.837ZM290.837 108.465H328.537V106.465H290.837V108.465ZM327.537 107.465V115.065H329.537V107.465H327.537ZM328.537 114.065L290.837 114.065V116.065L328.537 116.065V114.065ZM289.837 115.065V140.165H291.837V115.065H289.837ZM290.837 141.165H333.537V139.165L290.837 139.165V141.165ZM332.537 140.165V148.465H334.537V140.165H332.537ZM333.537 147.465H281.837V149.465H333.537V147.465ZM340.044 148.465H339.044V149.465H340.044V148.465ZM340.044 76.9648V75.9648H339.044V76.9648H340.044ZM386.844 83.8648L386.078 84.5083L386.085 84.5156L386.844 83.8648ZM385.844 112.965L386.532 113.69L385.844 112.965ZM349.044 118.465V117.465H348.044V118.465H349.044ZM349.044 148.465V149.465H350.044V148.465H349.044ZM349.044 84.7648V83.7648H348.044V84.7648H349.044ZM349.044 111.165H348.044V112.165H349.044V111.165ZM378.944 107.665L378.266 106.929L378.257 106.938L378.944 107.665ZM378.944 88.1648L378.267 88.9012L378.277 88.9107L378.288 88.9199L378.944 88.1648ZM341.044 148.465V76.9648H339.044V148.465H341.044ZM340.044 77.9648L369.844 77.9648V75.9648L340.044 75.9648V77.9648ZM369.844 77.9648C377.093 77.9648 382.447 80.1879 386.078 84.5083L387.609 83.2214C383.508 78.3418 377.528 75.9648 369.844 75.9648V77.9648ZM386.085 84.5156C389.116 88.0518 390.644 92.3484 390.644 97.4648H392.644C392.644 91.9146 390.972 87.1445 387.603 83.214L386.085 84.5156ZM390.644 97.4648C390.644 103.93 388.776 108.807 385.156 112.239L386.532 113.69C390.645 109.79 392.644 104.333 392.644 97.4648H390.644ZM385.156 112.239C381.543 115.665 376.066 117.465 368.544 117.465V119.465C376.355 119.465 382.412 117.598 386.532 113.69L385.156 112.239ZM368.544 117.465H349.044V119.465H368.544V117.465ZM348.044 118.465V148.465H350.044V118.465H348.044ZM349.044 147.465L340.044 147.465V149.465L349.044 149.465V147.465ZM348.044 84.7648V111.165H350.044V84.7648H348.044ZM349.044 112.165H367.844V110.165H349.044V112.165ZM367.844 112.165C372.918 112.165 376.909 110.966 379.631 108.391L378.257 106.938C376.045 109.03 372.636 110.165 367.844 110.165V112.165ZM379.621 108.4C382.404 105.837 383.744 102.278 383.744 97.8648H381.744C381.744 101.852 380.55 104.826 378.266 106.929L379.621 108.4ZM383.744 97.8648C383.744 93.3931 382.408 89.8489 379.599 87.4098L378.288 88.9199C380.546 90.8807 381.744 93.8033 381.744 97.8648H383.744ZM379.62 87.4285C376.91 84.9377 373.1 83.7648 368.344 83.7648V85.7648C372.788 85.7648 376.044 86.8586 378.267 88.9012L379.62 87.4285ZM368.344 83.7648H349.044V85.7648H368.344V83.7648ZM396.298 148.465H395.298V149.465H396.298V148.465ZM396.298 76.9648V75.9648H395.298V76.9648H396.298ZM407.798 76.9648L408.729 76.601L408.481 75.9648H407.798V76.9648ZM430.998 136.365L430.066 136.729L430.315 137.365H430.998V136.365ZM431.198 136.365V137.365H431.883L432.13 136.726L431.198 136.365ZM454.198 76.9648V75.9648H453.513L453.265 76.6038L454.198 76.9648ZM465.898 76.9648H466.898V75.9648H465.898V76.9648ZM465.898 148.465V149.465H466.898V148.465H465.898ZM457.298 148.465H456.298V149.465H457.298V148.465ZM457.298 89.6648H458.298V88.6648H457.298V89.6648ZM457.098 89.6648V88.6648H456.381L456.151 89.3435L457.098 89.6648ZM453.898 98.6648L454.828 99.0311L454.832 99.022L453.898 98.6648ZM434.298 148.465V149.465H434.979L435.228 148.831L434.298 148.465ZM427.398 148.465L426.467 148.831L426.717 149.465H427.398V148.465ZM407.798 98.6648L406.855 98.9999L406.861 99.0156L406.867 99.0311L407.798 98.6648ZM404.598 89.6648L405.54 89.3298L405.303 88.6648H404.598V89.6648ZM404.398 89.6648V88.6648H403.398V89.6648H404.398ZM404.398 148.465V149.465H405.398V148.465H404.398ZM397.298 148.465V76.9648H395.298V148.465H397.298ZM396.298 77.9648H407.798V75.9648H396.298V77.9648ZM406.866 77.3286L430.066 136.729L431.929 136.001L408.729 76.601L406.866 77.3286ZM430.998 137.365H431.198V135.365H430.998V137.365ZM432.13 136.726L455.13 77.3259L453.265 76.6038L430.265 136.004L432.13 136.726ZM454.198 77.9648H465.898V75.9648H454.198V77.9648ZM464.898 76.9648V148.465H466.898V76.9648H464.898ZM465.898 147.465H457.298V149.465H465.898V147.465ZM458.298 148.465V89.6648H456.298V148.465H458.298ZM457.298 88.6648H457.098V90.6648H457.298V88.6648ZM456.151 89.3435C454.886 93.0713 453.824 96.0579 452.964 98.3077L454.832 99.022C455.705 96.7385 456.776 93.7251 458.045 89.9861L456.151 89.3435ZM452.967 98.2986L433.367 148.099L435.228 148.831L454.828 99.0311L452.967 98.2986ZM434.298 147.465L427.398 147.465V149.465L434.298 149.465V147.465ZM428.328 148.099L408.728 98.2986L406.867 99.0311L426.467 148.831L428.328 148.099ZM408.74 98.3298L405.54 89.3298L403.655 89.9999L406.855 98.9999L408.74 98.3298ZM404.598 88.6648H404.398V90.6648H404.598V88.6648ZM403.398 89.6648V148.465H405.398V89.6648H403.398ZM404.398 147.465H396.298V149.465H404.398V147.465ZM469.605 148.465L468.667 148.12L468.172 149.465H469.605V148.465ZM495.905 76.9648V75.9648H495.208L494.967 76.6196L495.905 76.9648ZM506.005 76.9648L506.944 76.6185L506.702 75.9648H506.005V76.9648ZM532.405 148.465V149.465H533.841L533.344 148.118L532.405 148.465ZM522.605 148.465L521.661 148.794L521.895 149.465H522.605V148.465ZM515.005 126.665L515.95 126.336L515.716 125.665H515.005V126.665ZM486.505 126.665V125.665H485.798L485.563 126.332L486.505 126.665ZM478.805 148.465V149.465H479.513L479.748 148.798L478.805 148.465ZM497.605 95.3648L498.548 95.6987L498.552 95.688L497.605 95.3648ZM489.105 119.365L488.163 119.031L487.69 120.365H489.105V119.365ZM512.505 119.365V120.365H513.904L513.452 119.042L512.505 119.365ZM504.305 95.3648L503.352 95.6669L503.356 95.6776L503.359 95.6882L504.305 95.3648ZM501.105 85.2648L502.059 84.9628L501.838 84.2648H501.105V85.2648ZM500.905 85.2648V84.2648H500.173L499.952 84.9629L500.905 85.2648ZM470.544 148.81L496.844 77.3101L494.967 76.6196L468.667 148.12L470.544 148.81ZM495.905 77.9648H506.005V75.9648H495.905V77.9648ZM505.067 77.3112L531.467 148.811L533.344 148.118L506.944 76.6185L505.067 77.3112ZM532.405 147.465H522.605V149.465H532.405V147.465ZM523.55 148.136L515.95 126.336L514.061 126.994L521.661 148.794L523.55 148.136ZM515.005 125.665L486.505 125.665V127.665L515.005 127.665V125.665ZM485.563 126.332L477.863 148.132L479.748 148.798L487.448 126.998L485.563 126.332ZM478.805 147.465H469.605V149.465H478.805V147.465ZM496.663 95.031L488.163 119.031L490.048 119.699L498.548 95.6987L496.663 95.031ZM489.105 120.365L512.505 120.365V118.365L489.105 118.365V120.365ZM513.452 119.042L505.252 95.0415L503.359 95.6882L511.559 119.688L513.452 119.042ZM505.259 95.0628L502.059 84.9628L500.152 85.5669L503.352 95.6669L505.259 95.0628ZM501.105 84.2648H500.905V86.2648H501.105V84.2648ZM499.952 84.9629C498.687 88.9587 497.589 92.3178 496.659 95.0417L498.552 95.688C499.488 92.9452 500.591 89.571 501.859 85.5667L499.952 84.9629ZM536.149 148.465H535.149V149.465H536.149V148.465ZM536.149 76.9648V75.9648H535.149V76.9648H536.149ZM582.949 83.8648L582.184 84.5083L582.19 84.5156L582.949 83.8648ZM581.949 112.965L582.637 113.69H582.637L581.949 112.965ZM545.149 118.465V117.465H544.149V118.465H545.149ZM545.149 148.465V149.465H546.149V148.465H545.149ZM545.149 84.7648V83.7648H544.149V84.7648H545.149ZM545.149 111.165H544.149V112.165H545.149V111.165ZM575.049 107.665L574.372 106.929L574.362 106.938L575.049 107.665ZM575.049 88.1648L574.373 88.9012L574.383 88.9107L574.394 88.9199L575.049 88.1648ZM537.149 148.465V76.9648H535.149V148.465H537.149ZM536.149 77.9648H565.949V75.9648H536.149V77.9648ZM565.949 77.9648C573.199 77.9648 578.552 80.1879 582.184 84.5083L583.715 83.2214C579.613 78.3418 573.633 75.9648 565.949 75.9648V77.9648ZM582.19 84.5156C585.221 88.0518 586.749 92.3484 586.749 97.4648H588.749C588.749 91.9146 587.077 87.1445 583.708 83.214L582.19 84.5156ZM586.749 97.4648C586.749 103.93 584.881 108.807 581.261 112.239L582.637 113.69C586.751 109.79 588.749 104.333 588.749 97.4648H586.749ZM581.261 112.239C577.648 115.665 572.172 117.465 564.649 117.465V119.465C572.46 119.465 578.517 117.598 582.637 113.69L581.261 112.239ZM564.649 117.465H545.149V119.465H564.649V117.465ZM544.149 118.465V148.465H546.149V118.465H544.149ZM545.149 147.465H536.149V149.465H545.149V147.465ZM544.149 84.7648V111.165H546.149V84.7648H544.149ZM545.149 112.165H563.949V110.165H545.149V112.165ZM563.949 112.165C569.023 112.165 573.015 110.966 575.736 108.391L574.362 106.938C572.15 109.03 568.742 110.165 563.949 110.165V112.165ZM575.727 108.4C578.51 105.837 579.849 102.278 579.849 97.8648H577.849C577.849 101.852 576.655 104.826 574.372 106.929L575.727 108.4ZM579.849 97.8648C579.849 93.3931 578.514 89.8489 575.705 87.4098L574.394 88.9199C576.652 90.8807 577.849 93.8033 577.849 97.8648H579.849ZM575.726 87.4285C573.015 84.9377 569.205 83.7648 564.449 83.7648V85.7648C568.893 85.7648 572.15 86.8586 574.373 88.9012L575.726 87.4285ZM564.449 83.7648H545.149V85.7648H564.449V83.7648Z" fill="#2E499E"/>
<path d="M396.669 685.078H395.669V686.078H396.669V685.078ZM396.669 613.578V612.578H395.669V613.578H396.669ZM443.469 620.478L442.703 621.122L442.709 621.129L443.469 620.478ZM442.469 649.578L443.157 650.304L442.469 649.578ZM405.669 655.078V654.078H404.669V655.078H405.669ZM405.669 685.078V686.078H406.669V685.078H405.669ZM405.669 621.378V620.378H404.669V621.378H405.669ZM405.669 647.778H404.669V648.778H405.669V647.778ZM435.569 644.278L434.891 643.543L434.882 643.552L435.569 644.278ZM435.569 624.778L434.892 625.514L434.902 625.524L434.913 625.533L435.569 624.778ZM397.669 685.078V613.578H395.669V685.078H397.669ZM396.669 614.578H426.469V612.578H396.669V614.578ZM426.469 614.578C433.718 614.578 439.072 616.801 442.703 621.122L444.234 619.835C440.133 614.955 434.153 612.578 426.469 612.578V614.578ZM442.709 621.129C445.741 624.665 447.269 628.962 447.269 634.078H449.269C449.269 628.528 447.597 623.758 444.228 619.827L442.709 621.129ZM447.269 634.078C447.269 640.544 445.401 645.42 441.781 648.853L443.157 650.304C447.27 646.403 449.269 640.946 449.269 634.078H447.269ZM441.781 648.853C438.168 652.279 432.691 654.078 425.169 654.078V656.078C432.98 656.078 439.037 654.211 443.157 650.304L441.781 648.853ZM425.169 654.078H405.669V656.078H425.169V654.078ZM404.669 655.078V685.078H406.669V655.078H404.669ZM405.669 684.078H396.669V686.078H405.669V684.078ZM404.669 621.378V647.778H406.669V621.378H404.669ZM405.669 648.778H424.469V646.778H405.669V648.778ZM424.469 648.778C429.543 648.778 433.534 647.579 436.256 645.005L434.882 643.552C432.67 645.644 429.261 646.778 424.469 646.778V648.778ZM436.246 645.014C439.029 642.45 440.369 638.891 440.369 634.478H438.369C438.369 638.465 437.175 641.439 434.891 643.543L436.246 645.014ZM440.369 634.478C440.369 630.006 439.033 626.462 436.224 624.023L434.913 625.533C437.171 627.494 438.369 630.417 438.369 634.478H440.369ZM436.245 624.042C433.535 621.551 429.725 620.378 424.969 620.378V622.378C429.413 622.378 432.669 623.472 434.892 625.514L436.245 624.042ZM424.969 620.378H405.669V622.378H424.969V620.378ZM441.754 685.078L440.815 684.733L440.321 686.078H441.754V685.078ZM468.054 613.578V612.578H467.356L467.115 613.233L468.054 613.578ZM478.154 613.578L479.092 613.232L478.851 612.578H478.154V613.578ZM504.554 685.078V686.078H505.989L505.492 684.732L504.554 685.078ZM494.754 685.078L493.81 685.407L494.044 686.078H494.754V685.078ZM487.154 663.278L488.098 662.949L487.864 662.278H487.154V663.278ZM458.654 663.278V662.278H457.947L457.711 662.945L458.654 663.278ZM450.954 685.078V686.078H451.661L451.897 685.411L450.954 685.078ZM469.754 631.978L470.697 632.312L470.7 632.301L469.754 631.978ZM461.254 655.978L460.311 655.644L459.839 656.978H461.254V655.978ZM484.654 655.978V656.978H486.052L485.6 655.655L484.654 655.978ZM476.454 631.978L475.501 632.28L475.504 632.291L475.508 632.301L476.454 631.978ZM473.254 621.878L474.207 621.576L473.986 620.878H473.254V621.878ZM473.054 621.878V620.878H472.322L472.101 621.576L473.054 621.878ZM442.692 685.423L468.992 613.923L467.115 613.233L440.815 684.733L442.692 685.423ZM468.054 614.578H478.154V612.578H468.054V614.578ZM477.216 613.924L503.616 685.424L505.492 684.732L479.092 613.232L477.216 613.924ZM504.554 684.078H494.754V686.078H504.554V684.078ZM495.698 684.749L488.098 662.949L486.21 663.607L493.81 685.407L495.698 684.749ZM487.154 662.278H458.654V664.278H487.154V662.278ZM457.711 662.945L450.011 684.745L451.897 685.411L459.597 663.611L457.711 662.945ZM450.954 684.078H441.754V686.078H450.954V684.078ZM468.811 631.644L460.311 655.644L462.197 656.312L470.697 632.312L468.811 631.644ZM461.254 656.978H484.654V654.978H461.254V656.978ZM485.6 655.655L477.4 631.655L475.508 632.301L483.708 656.301L485.6 655.655ZM477.407 631.676L474.207 621.576L472.301 622.18L475.501 632.28L477.407 631.676ZM473.254 620.878H473.054V622.878H473.254V620.878ZM472.101 621.576C470.835 625.572 469.738 628.931 468.808 631.655L470.7 632.301C471.637 629.559 472.739 626.184 474.007 622.18L472.101 621.576ZM494.813 621.478H493.813V622.478H494.813V621.478ZM494.813 613.578V612.578H493.813V613.578H494.813ZM551.413 613.578H552.413V612.578H551.413V613.578ZM551.413 621.478V622.478H552.413V621.478H551.413ZM527.613 621.478V620.478H526.613V621.478H527.613ZM527.613 685.078V686.078H528.613V685.078H527.613ZM518.613 685.078H517.613V686.078H518.613V685.078ZM518.613 621.478H519.613V620.478H518.613V621.478ZM495.813 621.478V613.578H493.813V621.478H495.813ZM494.813 614.578H551.413V612.578H494.813V614.578ZM550.413 613.578V621.478H552.413V613.578H550.413ZM551.413 620.478H527.613V622.478H551.413V620.478ZM526.613 621.478V685.078H528.613V621.478H526.613ZM527.613 684.078H518.613V686.078H527.613V684.078ZM519.613 685.078V621.478H517.613V685.078H519.613ZM518.613 620.478H494.813V622.478H518.613V620.478ZM556.548 685.078H555.548V686.078H556.548V685.078ZM556.548 613.578V612.578H555.548V613.578H556.548ZM565.548 613.578H566.548V612.578H565.548V613.578ZM565.548 685.078V686.078H566.548V685.078H565.548ZM557.548 685.078V613.578H555.548V685.078H557.548ZM556.548 614.578H565.548V612.578H556.548V614.578ZM564.548 613.578V685.078H566.548V613.578H564.548ZM565.548 684.078H556.548V686.078H565.548V684.078ZM575.102 685.078H574.102V686.078H575.102V685.078ZM575.102 613.578V612.578H574.102V613.578H575.102ZM625.602 613.578H626.602V612.578H625.602V613.578ZM625.602 621.478V622.478H626.602V621.478H625.602ZM584.102 621.478V620.478H583.102V621.478H584.102ZM584.102 644.078H583.102V645.078H584.102V644.078ZM621.802 644.078H622.802V643.078H621.802V644.078ZM621.802 651.678V652.678H622.802V651.678H621.802ZM584.102 651.678V650.678H583.102V651.678H584.102ZM584.102 676.778H583.102V677.778H584.102V676.778ZM626.802 676.778H627.802V675.778H626.802V676.778ZM626.802 685.078V686.078H627.802V685.078H626.802ZM576.102 685.078V613.578H574.102V685.078H576.102ZM575.102 614.578H625.602V612.578H575.102V614.578ZM624.602 613.578V621.478H626.602V613.578H624.602ZM625.602 620.478H584.102V622.478H625.602V620.478ZM583.102 621.478V644.078H585.102V621.478H583.102ZM584.102 645.078H621.802V643.078H584.102V645.078ZM620.802 644.078V651.678H622.802V644.078H620.802ZM621.802 650.678H584.102V652.678H621.802V650.678ZM583.102 651.678V676.778H585.102V651.678H583.102ZM584.102 677.778H626.802V675.778H584.102V677.778ZM625.802 676.778V685.078H627.802V676.778H625.802ZM626.802 684.078H575.102V686.078H626.802V684.078ZM633.309 685.078H632.309V686.078H633.309V685.078ZM633.309 613.578V612.578H632.309V613.578H633.309ZM642.809 613.578L643.646 613.03L643.349 612.578H642.809V613.578ZM675.409 663.278L676.28 662.786L676.264 662.757L676.246 662.73L675.409 663.278ZM680.609 672.478L679.739 672.97L680.026 673.478H680.609V672.478ZM680.809 672.478V673.478H681.809V672.478H680.809ZM680.809 613.578V612.578H679.809V613.578H680.809ZM689.209 613.578H690.209V612.578H689.209V613.578ZM689.209 685.078V686.078H690.209V685.078H689.209ZM680.009 685.078L679.174 685.628L679.471 686.078H680.009V685.078ZM647.209 635.278L646.35 635.79L646.362 635.809L646.374 635.828L647.209 635.278ZM641.909 626.378L642.769 625.866L642.478 625.378H641.909V626.378ZM641.709 626.378V625.378H640.709V626.378H641.709ZM641.709 685.078V686.078H642.709V685.078H641.709ZM634.309 685.078V613.578H632.309V685.078H634.309ZM633.309 614.578H642.809V612.578H633.309V614.578ZM641.973 614.127L674.573 663.827L676.246 662.73L643.646 613.03L641.973 614.127ZM674.539 663.77L679.739 672.97L681.48 671.986L676.28 662.786L674.539 663.77ZM680.609 673.478H680.809V671.478H680.609V673.478ZM681.809 672.478V613.578H679.809V672.478H681.809ZM680.809 614.578H689.209V612.578H680.809V614.578ZM688.209 613.578V685.078H690.209V613.578H688.209ZM689.209 684.078H680.009V686.078H689.209V684.078ZM680.845 684.528L648.044 634.728L646.374 635.828L679.174 685.628L680.845 684.528ZM648.069 634.766L642.769 625.866L641.05 626.89L646.35 635.79L648.069 634.766ZM641.909 625.378H641.709V627.378H641.909V625.378ZM640.709 626.378V685.078H642.709V626.378H640.709ZM641.709 684.078H633.309V686.078H641.709V684.078ZM694.145 621.478H693.145V622.478H694.145V621.478ZM694.145 613.578V612.578H693.145V613.578H694.145ZM750.745 613.578H751.745V612.578H750.745V613.578ZM750.745 621.478V622.478H751.745V621.478H750.745ZM726.945 621.478V620.478H725.945V621.478H726.945ZM726.945 685.078V686.078H727.945V685.078H726.945ZM717.945 685.078H716.945V686.078H717.945V685.078ZM717.945 621.478H718.945V620.478H717.945V621.478ZM695.145 621.478V613.578H693.145V621.478H695.145ZM694.145 614.578L750.745 614.578V612.578L694.145 612.578V614.578ZM749.745 613.578V621.478H751.745V613.578H749.745ZM750.745 620.478L726.945 620.478V622.478L750.745 622.478V620.478ZM725.945 621.478V685.078H727.945V621.478H725.945ZM726.945 684.078H717.945V686.078H726.945V684.078ZM718.945 685.078V621.478H716.945V685.078H718.945ZM717.945 620.478H694.145V622.478H717.945V620.478Z" fill="#2E499E"/>
<path d="M1134.27 416.047L1133.33 415.702L1132.83 417.047H1134.27V416.047ZM1160.57 344.547V343.547H1159.87L1159.63 344.202L1160.57 344.547ZM1170.67 344.547L1171.6 344.2L1171.36 343.547H1170.67V344.547ZM1197.07 416.047V417.047H1198.5L1198 415.701L1197.07 416.047ZM1187.27 416.047L1186.32 416.376L1186.56 417.047H1187.27V416.047ZM1179.67 394.247L1180.61 393.918L1180.38 393.247H1179.67V394.247ZM1151.17 394.247V393.247H1150.46L1150.22 393.914L1151.17 394.247ZM1143.47 416.047V417.047H1144.17L1144.41 416.38L1143.47 416.047ZM1162.27 362.947L1163.21 363.281L1163.21 363.27L1162.27 362.947ZM1153.77 386.947L1152.82 386.613L1152.35 387.947H1153.77V386.947ZM1177.17 386.947V387.947H1178.56L1178.11 386.624L1177.17 386.947ZM1168.97 362.947L1168.01 363.249L1168.02 363.26L1168.02 363.27L1168.97 362.947ZM1165.77 352.847L1166.72 352.545L1166.5 351.847H1165.77V352.847ZM1165.57 352.847V351.847H1164.83L1164.61 352.545L1165.57 352.847ZM1135.2 416.392L1161.5 344.892L1159.63 344.202L1133.33 415.702L1135.2 416.392ZM1160.57 345.547H1170.67V343.547H1160.57V345.547ZM1169.73 344.893L1196.13 416.393L1198 415.701L1171.6 344.2L1169.73 344.893ZM1197.07 415.047H1187.27V417.047H1197.07V415.047ZM1188.21 415.718L1180.61 393.918L1178.72 394.576L1186.32 416.376L1188.21 415.718ZM1179.67 393.247H1151.17V395.247H1179.67V393.247ZM1150.22 393.914L1142.52 415.714L1144.41 416.38L1152.11 394.58L1150.22 393.914ZM1143.47 415.047H1134.27V417.047H1143.47V415.047ZM1161.32 362.613L1152.82 386.613L1154.71 387.281L1163.21 363.281L1161.32 362.613ZM1153.77 387.947H1177.17V385.947H1153.77V387.947ZM1178.11 386.624L1169.91 362.624L1168.02 363.27L1176.22 387.27L1178.11 386.624ZM1169.92 362.645L1166.72 352.545L1164.81 353.149L1168.01 363.249L1169.92 362.645ZM1165.77 351.847H1165.57V353.847H1165.77V351.847ZM1164.61 352.545C1163.35 356.541 1162.25 359.9 1161.32 362.624L1163.21 363.27C1164.15 360.527 1165.25 357.153 1166.52 353.149L1164.61 352.545ZM1200.81 416.047H1199.81V417.047H1200.81V416.047ZM1200.81 344.547V343.547H1199.81V344.547H1200.81ZM1210.31 344.547L1211.15 343.998L1210.85 343.547H1210.31V344.547ZM1242.91 394.247L1243.78 393.755L1243.76 393.726L1243.75 393.698L1242.91 394.247ZM1248.11 403.447L1247.24 403.939L1247.53 404.447H1248.11V403.447ZM1248.31 403.447V404.447H1249.31V403.447H1248.31ZM1248.31 344.547V343.547H1247.31V344.547H1248.31ZM1256.71 344.547H1257.71V343.547H1256.71V344.547ZM1256.71 416.047V417.047H1257.71V416.047H1256.71ZM1247.51 416.047L1246.67 416.597L1246.97 417.047H1247.51V416.047ZM1214.71 366.247L1213.85 366.759L1213.86 366.778L1213.87 366.797L1214.71 366.247ZM1209.41 357.347L1210.27 356.835L1209.98 356.347H1209.41V357.347ZM1209.21 357.347V356.347H1208.21V357.347H1209.21ZM1209.21 416.047V417.047H1210.21V416.047H1209.21ZM1201.81 416.047V344.547H1199.81V416.047H1201.81ZM1200.81 345.547H1210.31V343.547H1200.81V345.547ZM1209.47 345.095L1242.07 394.795L1243.75 393.698L1211.15 343.998L1209.47 345.095ZM1242.04 394.739L1247.24 403.939L1248.98 402.955L1243.78 393.755L1242.04 394.739ZM1248.11 404.447H1248.31V402.447H1248.11V404.447ZM1249.31 403.447V344.547H1247.31V403.447H1249.31ZM1248.31 345.547H1256.71V343.547H1248.31V345.547ZM1255.71 344.547V416.047H1257.71V344.547H1255.71ZM1256.71 415.047H1247.51V417.047H1256.71V415.047ZM1248.34 415.497L1215.54 365.697L1213.87 366.797L1246.67 416.597L1248.34 415.497ZM1215.57 365.735L1210.27 356.835L1208.55 357.859L1213.85 366.759L1215.57 365.735ZM1209.41 356.347H1209.21V358.347H1209.41V356.347ZM1208.21 357.347V416.047H1210.21V357.347H1208.21ZM1209.21 415.047H1200.81V417.047H1209.21V415.047ZM1266.15 416.047H1265.15V417.047H1266.15V416.047ZM1266.15 344.547V343.547H1265.15V344.547H1266.15ZM1315.85 354.247L1315.07 354.883L1315.85 354.247ZM1315.55 406.547L1316.3 407.205L1315.55 406.547ZM1275.15 408.147H1274.15V409.147H1275.15V408.147ZM1275.15 352.347V351.347H1274.15V352.347H1275.15ZM1267.15 416.047V344.547H1265.15V416.047H1267.15ZM1266.15 345.547H1292.15V343.547H1266.15V345.547ZM1292.15 345.547C1302.39 345.547 1309.98 348.703 1315.07 354.883L1316.62 353.611C1311.05 346.858 1302.83 343.547 1292.15 343.547V345.547ZM1315.07 354.883C1320.22 361.12 1322.85 369.637 1322.85 380.547H1324.85C1324.85 369.323 1322.14 360.307 1316.62 353.611L1315.07 354.883ZM1322.85 380.547C1322.85 391.381 1320.12 399.788 1314.79 405.889L1316.3 407.205C1322.03 400.639 1324.85 391.713 1324.85 380.547H1322.85ZM1314.79 405.889C1309.5 411.952 1301.77 415.047 1291.45 415.047V417.047C1302.19 417.047 1310.53 413.808 1316.3 407.205L1314.79 405.889ZM1291.45 415.047H1266.15V417.047H1291.45V415.047ZM1275.15 409.147H1291.15V407.147H1275.15V409.147ZM1291.15 409.147C1299.18 409.147 1305.37 406.781 1309.53 401.895C1313.67 397.041 1315.65 389.865 1315.65 380.547H1313.65C1313.65 389.629 1311.71 396.253 1308.01 400.599C1304.34 404.913 1298.78 407.147 1291.15 407.147V409.147ZM1315.65 380.547C1315.65 371.038 1313.73 363.721 1309.72 358.768C1305.69 353.774 1299.66 351.347 1291.85 351.347V353.347C1299.23 353.347 1304.61 355.619 1308.17 360.026C1311.76 364.473 1313.65 371.256 1313.65 380.547H1315.65ZM1291.85 351.347H1275.15V353.347H1291.85V351.347ZM1274.15 352.347V408.147H1276.15V352.347H1274.15Z" fill="#2E499E"/>
<path d="M1469.28 949.184H1468.28V950.184H1469.28V949.184ZM1469.28 877.684V876.684H1468.28V877.684H1469.28ZM1478.28 877.684H1479.28V876.684H1478.28V877.684ZM1478.28 949.184V950.184H1479.28V949.184H1478.28ZM1470.28 949.184V877.684H1468.28V949.184H1470.28ZM1469.28 878.684H1478.28V876.684H1469.28V878.684ZM1477.28 877.684V949.184H1479.28V877.684H1477.28ZM1478.28 948.184H1469.28V950.184H1478.28V948.184ZM1487.83 949.184H1486.83V950.184H1487.83V949.184ZM1487.83 877.684V876.684H1486.83V877.684H1487.83ZM1499.33 877.684L1500.26 877.32L1500.01 876.684H1499.33V877.684ZM1522.53 937.084L1521.6 937.447L1521.85 938.084H1522.53V937.084ZM1522.73 937.084V938.084H1523.41L1523.66 937.445L1522.73 937.084ZM1545.73 877.684V876.684H1545.04L1544.8 877.323L1545.73 877.684ZM1557.43 877.684H1558.43V876.684H1557.43V877.684ZM1557.43 949.184V950.184H1558.43V949.184H1557.43ZM1548.83 949.184H1547.83V950.184H1548.83V949.184ZM1548.83 890.384H1549.83V889.384H1548.83V890.384ZM1548.63 890.384V889.384H1547.91L1547.68 890.062L1548.63 890.384ZM1545.43 899.384L1546.36 899.75L1546.36 899.741L1545.43 899.384ZM1525.83 949.184V950.184H1526.51L1526.76 949.55L1525.83 949.184ZM1518.93 949.184L1518 949.55L1518.25 950.184H1518.93V949.184ZM1499.33 899.384L1498.39 899.719L1498.39 899.734L1498.4 899.75L1499.33 899.384ZM1496.13 890.384L1497.07 890.049L1496.83 889.384H1496.13V890.384ZM1495.93 890.384V889.384H1494.93V890.384H1495.93ZM1495.93 949.184V950.184H1496.93V949.184H1495.93ZM1488.83 949.184V877.684H1486.83V949.184H1488.83ZM1487.83 878.684H1499.33V876.684H1487.83V878.684ZM1498.4 878.047L1521.6 937.447L1523.46 936.72L1500.26 877.32L1498.4 878.047ZM1522.53 938.084H1522.73V936.084H1522.53V938.084ZM1523.66 937.445L1546.66 878.045L1544.8 877.323L1521.8 936.723L1523.66 937.445ZM1545.73 878.684H1557.43V876.684H1545.73V878.684ZM1556.43 877.684V949.184H1558.43V877.684H1556.43ZM1557.43 948.184H1548.83V950.184H1557.43V948.184ZM1549.83 949.184V890.384H1547.83V949.184H1549.83ZM1548.83 889.384H1548.63V891.384H1548.83V889.384ZM1547.68 890.062C1546.42 893.79 1545.36 896.777 1544.49 899.026L1546.36 899.741C1547.24 897.457 1548.31 894.444 1549.58 890.705L1547.68 890.062ZM1544.5 899.017L1524.9 948.817L1526.76 949.55L1546.36 899.75L1544.5 899.017ZM1525.83 948.184H1518.93V950.184H1525.83V948.184ZM1519.86 948.817L1500.26 899.017L1498.4 899.75L1518 949.55L1519.86 948.817ZM1500.27 899.049L1497.07 890.049L1495.19 890.719L1498.39 899.719L1500.27 899.049ZM1496.13 889.384H1495.93V891.384H1496.13V889.384ZM1494.93 890.384V949.184H1496.93V890.384H1494.93ZM1495.93 948.184H1487.83V950.184H1495.93V948.184ZM1566.84 949.184H1565.84V950.184H1566.84V949.184ZM1566.84 877.684V876.684H1565.84V877.684H1566.84ZM1613.64 884.584L1612.87 885.227L1612.88 885.234L1613.64 884.584ZM1612.64 913.684L1613.32 914.409L1612.64 913.684ZM1575.84 919.184V918.184H1574.84V919.184H1575.84ZM1575.84 949.184V950.184H1576.84V949.184H1575.84ZM1575.84 885.484V884.484H1574.84V885.484H1575.84ZM1575.84 911.884H1574.84V912.884H1575.84V911.884ZM1605.74 908.384L1605.06 907.648L1605.05 907.657L1605.74 908.384ZM1605.74 888.884L1605.06 889.62L1605.07 889.629L1605.08 889.639L1605.74 888.884ZM1567.84 949.184V877.684H1565.84V949.184H1567.84ZM1566.84 878.684H1596.64V876.684H1566.84V878.684ZM1596.64 878.684C1603.89 878.684 1609.24 880.907 1612.87 885.227L1614.4 883.94C1610.3 879.061 1604.32 876.684 1596.64 876.684V878.684ZM1612.88 885.234C1615.91 888.771 1617.44 893.067 1617.44 898.184H1619.44C1619.44 892.633 1617.76 887.863 1614.4 883.933L1612.88 885.234ZM1617.44 898.184C1617.44 904.649 1615.57 909.525 1611.95 912.958L1613.32 914.409C1617.44 910.509 1619.44 905.051 1619.44 898.184H1617.44ZM1611.95 912.958C1608.34 916.384 1602.86 918.184 1595.34 918.184V920.184C1603.15 920.184 1609.2 918.316 1613.32 914.409L1611.95 912.958ZM1595.34 918.184H1575.84V920.184H1595.34V918.184ZM1574.84 919.184V949.184H1576.84V919.184H1574.84ZM1575.84 948.184H1566.84V950.184H1575.84V948.184ZM1574.84 885.484V911.884H1576.84V885.484H1574.84ZM1575.84 912.884H1594.64V910.884H1575.84V912.884ZM1594.64 912.884C1599.71 912.884 1603.7 911.685 1606.42 909.11L1605.05 907.657C1602.84 909.749 1599.43 910.884 1594.64 910.884V912.884ZM1606.41 909.119C1609.2 906.556 1610.54 902.997 1610.54 898.584H1608.54C1608.54 902.57 1607.34 905.545 1605.06 907.648L1606.41 909.119ZM1610.54 898.584C1610.54 894.112 1609.2 890.568 1606.39 888.129L1605.08 889.639C1607.34 891.599 1608.54 894.522 1608.54 898.584H1610.54ZM1606.41 888.147C1603.7 885.656 1599.89 884.484 1595.14 884.484V886.484C1599.58 886.484 1602.84 887.577 1605.06 889.62L1606.41 888.147ZM1595.14 884.484H1575.84V886.484H1595.14V884.484ZM1611.92 949.184L1610.98 948.838L1610.49 950.184H1611.92V949.184ZM1638.22 877.684V876.684H1637.52L1637.28 877.338L1638.22 877.684ZM1648.32 877.684L1649.26 877.337L1649.02 876.684H1648.32V877.684ZM1674.72 949.184V950.184H1676.16L1675.66 948.837L1674.72 949.184ZM1664.92 949.184L1663.98 949.513L1664.21 950.184H1664.92V949.184ZM1657.32 927.384L1658.27 927.054L1658.03 926.384H1657.32V927.384ZM1628.82 927.384V926.384H1628.11L1627.88 927.051L1628.82 927.384ZM1621.12 949.184V950.184H1621.83L1622.06 949.517L1621.12 949.184ZM1639.92 896.084L1640.86 896.417L1640.87 896.407L1639.92 896.084ZM1631.42 920.084L1630.48 919.75L1630.01 921.084H1631.42V920.084ZM1654.82 920.084V921.084H1656.22L1655.77 919.76L1654.82 920.084ZM1646.62 896.084L1645.67 896.386L1645.67 896.396L1645.68 896.407L1646.62 896.084ZM1643.42 885.984L1644.38 885.682L1644.15 884.984H1643.42V885.984ZM1643.22 885.984V884.984H1642.49L1642.27 885.682L1643.22 885.984ZM1612.86 949.529L1639.16 878.029L1637.28 877.338L1610.98 948.838L1612.86 949.529ZM1638.22 878.684H1648.32V876.684H1638.22V878.684ZM1647.38 878.03L1673.78 949.53L1675.66 948.837L1649.26 877.337L1647.38 878.03ZM1674.72 948.184H1664.92V950.184H1674.72V948.184ZM1665.87 948.854L1658.27 927.054L1656.38 927.713L1663.98 949.513L1665.87 948.854ZM1657.32 926.384H1628.82V928.384H1657.32V926.384ZM1627.88 927.051L1620.18 948.851L1622.06 949.517L1629.76 927.717L1627.88 927.051ZM1621.12 948.184H1611.92V950.184H1621.12V948.184ZM1638.98 895.75L1630.48 919.75L1632.36 920.417L1640.86 896.417L1638.98 895.75ZM1631.42 921.084H1654.82V919.084H1631.42V921.084ZM1655.77 919.76L1647.57 895.76L1645.68 896.407L1653.88 920.407L1655.77 919.76ZM1647.58 895.782L1644.38 885.682L1642.47 886.286L1645.67 896.386L1647.58 895.782ZM1643.42 884.984H1643.22V886.984H1643.42V884.984ZM1642.27 885.682C1641 889.677 1639.91 893.037 1638.98 895.76L1640.87 896.407C1641.8 893.664 1642.91 890.29 1644.18 886.285L1642.27 885.682ZM1681.45 940.184L1680.7 940.846L1681.45 940.184ZM1681.35 886.684L1680.59 886.028L1680.59 886.029L1681.35 886.684ZM1725.85 882.384L1726.49 881.618L1725.85 882.384ZM1734.85 898.884V899.884H1736.01L1735.84 898.738L1734.85 898.884ZM1726.05 898.884L1725.07 899.071L1725.22 899.884H1726.05V898.884ZM1719.45 887.984L1718.83 888.769L1718.84 888.775L1719.45 887.984ZM1687.95 892.184L1688.73 892.805L1688.74 892.8L1687.95 892.184ZM1688.15 934.684L1687.38 935.321L1687.39 935.331L1688.15 934.684ZM1720.85 937.084L1720.12 936.396L1720.12 936.403L1720.85 937.084ZM1726.85 922.984V921.984H1725.93L1725.85 922.902L1726.85 922.984ZM1735.75 922.984L1736.75 923.002L1736.77 921.984H1735.75V922.984ZM1733.25 933.884L1732.33 933.49L1732.33 933.498L1733.25 933.884ZM1727.15 943.084L1726.45 942.367L1726.45 942.367L1727.15 943.084ZM1705.75 949.584C1695.94 949.584 1688.12 946.22 1682.2 939.521L1680.7 940.846C1687.04 948.014 1695.43 951.584 1705.75 951.584V949.584ZM1682.2 939.521C1676.26 932.803 1673.25 924.12 1673.25 913.384H1671.25C1671.25 924.514 1674.38 933.698 1680.7 940.846L1682.2 939.521ZM1673.25 913.384C1673.25 902.782 1676.22 894.127 1682.11 887.339L1680.59 886.029C1674.34 893.24 1671.25 902.385 1671.25 913.384H1673.25ZM1682.11 887.339C1688.03 880.517 1696 877.084 1706.15 877.084V875.084C1695.5 875.084 1686.94 878.717 1680.59 886.028L1682.11 887.339ZM1706.15 877.084C1714.11 877.084 1720.43 879.135 1725.21 883.149L1726.49 881.618C1721.27 877.232 1714.46 875.084 1706.15 875.084V877.084ZM1725.21 883.149C1730.01 887.183 1732.89 892.457 1733.86 899.029L1735.84 898.738C1734.81 891.71 1731.69 885.984 1726.49 881.618L1725.21 883.149ZM1734.85 897.884H1726.05V899.884H1734.85V897.884ZM1727.03 898.696C1726.12 893.932 1723.79 890.08 1720.06 887.193L1718.84 888.775C1722.17 891.353 1724.25 894.769 1725.07 899.071L1727.03 898.696ZM1720.07 887.198C1716.39 884.294 1711.65 882.884 1705.95 882.884V884.884C1711.32 884.884 1715.58 886.207 1718.83 888.769L1720.07 887.198ZM1705.95 882.884C1698.01 882.884 1691.7 885.767 1687.16 891.567L1688.74 892.8C1692.86 887.533 1698.56 884.884 1705.95 884.884V882.884ZM1687.17 891.562C1682.66 897.245 1680.45 904.547 1680.45 913.384H1682.45C1682.45 904.886 1684.57 898.055 1688.73 892.805L1687.17 891.562ZM1680.45 913.384C1680.45 922.355 1682.73 929.7 1687.38 935.321L1688.92 934.046C1684.64 928.868 1682.45 922.012 1682.45 913.384H1680.45ZM1687.39 935.331C1692.12 940.902 1698.38 943.684 1706.05 943.684V941.684C1698.92 941.684 1693.24 939.132 1688.91 934.036L1687.39 935.331ZM1706.05 943.684C1712.65 943.684 1717.88 941.751 1721.58 937.764L1720.12 936.403C1716.89 939.883 1712.25 941.684 1706.05 941.684V943.684ZM1721.58 937.771C1725.28 933.855 1727.36 928.933 1727.85 923.066L1725.85 922.902C1725.4 928.367 1723.48 932.846 1720.12 936.396L1721.58 937.771ZM1726.85 923.984H1735.75V921.984H1726.85V923.984ZM1734.75 922.965C1734.69 926.351 1733.89 929.857 1732.33 933.49L1734.17 934.278C1735.81 930.443 1736.68 926.683 1736.75 923.002L1734.75 922.965ZM1732.33 933.498C1730.84 937.056 1728.88 940.005 1726.45 942.367L1727.85 943.8C1730.49 941.228 1732.59 938.045 1734.17 934.269L1732.33 933.498ZM1726.45 942.367C1721.55 947.139 1714.7 949.584 1705.75 949.584V951.584C1715.07 951.584 1722.48 949.028 1727.85 943.8L1726.45 942.367ZM1734.81 885.584H1733.81V886.584H1734.81V885.584ZM1734.81 877.684V876.684H1733.81V877.684H1734.81ZM1791.41 877.684H1792.41V876.684H1791.41V877.684ZM1791.41 885.584V886.584H1792.41V885.584H1791.41ZM1767.61 885.584V884.584H1766.61V885.584H1767.61ZM1767.61 949.184V950.184H1768.61V949.184H1767.61ZM1758.61 949.184H1757.61V950.184H1758.61V949.184ZM1758.61 885.584H1759.61V884.584H1758.61V885.584ZM1735.81 885.584V877.684H1733.81V885.584H1735.81ZM1734.81 878.684H1791.41V876.684H1734.81V878.684ZM1790.41 877.684V885.584H1792.41V877.684H1790.41ZM1791.41 884.584H1767.61V886.584H1791.41V884.584ZM1766.61 885.584V949.184H1768.61V885.584H1766.61ZM1767.61 948.184H1758.61V950.184H1767.61V948.184ZM1759.61 949.184V885.584H1757.61V949.184H1759.61ZM1758.61 884.584H1734.81V886.584H1758.61V884.584Z" fill="#2E499E"/>
</svg>
