<svg width="1564" height="876" viewBox="0 0 1564 876" fill="none" xmlns="http://www.w3.org/2000/svg">
<path d="M7.33594 110.328H1435.41C1504.06 110.328 1559.71 165.977 1559.71 234.628V245.559C1559.71 314.21 1504.06 369.859 1435.41 369.859H131.636C62.9845 369.859 7.33594 425.507 7.33594 494.159C7.33594 562.81 62.9845 618.458 131.636 618.458H1435.41C1504.06 618.458 1559.71 674.107 1559.71 742.758V747.405C1559.71 816.057 1504.06 871.705 1435.41 871.705H7.33594" stroke="#344899" stroke-width="8" stroke-miterlimit="10"/>
<path d="M6.98906 73.1406L6.98906 1.64062L37.2891 1.64062C44.8224 1.64062 50.5557 3.70729 54.4891 7.84062C57.5557 11.0406 59.0891 15.1073 59.0891 20.0406C59.0891 27.6406 55.2557 32.6406 47.5891 35.0406V35.3406C51.8557 36.3406 55.3224 38.3406 57.9891 41.3406C60.6557 44.274 61.9891 48.0406 61.9891 52.6406C61.9891 58.1073 60.2557 62.674 56.7891 66.3406C52.5891 70.874 46.6224 73.1406 38.8891 73.1406H6.98906ZM15.9891 65.0406H38.4891C43.4224 65.0406 47.1557 63.8406 49.6891 61.4406C51.8224 59.174 52.8891 56.4073 52.8891 53.1406C52.8891 48.8073 51.5224 45.5073 48.7891 43.2406C46.0557 40.974 42.4224 39.8406 37.8891 39.8406L15.9891 39.8406L15.9891 65.0406ZM15.9891 32.2406L36.1891 32.2406C40.5224 32.2406 43.9224 31.2073 46.3891 29.1406C48.8557 27.074 50.0891 24.2073 50.0891 20.5406C50.0891 17.074 48.9557 14.374 46.6891 12.4406C44.4891 10.4406 41.3891 9.44062 37.3891 9.44062L15.9891 9.44062L15.9891 32.2406ZM67.3445 73.1406L67.3445 1.64062L100.745 1.64062C107.011 1.64062 112.078 3.44062 115.945 7.04062C119.878 10.6406 121.845 15.374 121.845 21.2406C121.845 30.374 117.711 36.274 109.445 38.9406V39.2406C112.978 40.5073 115.478 42.5073 116.945 45.2406C118.478 47.9073 119.411 51.974 119.745 57.4406C120.411 66.574 121.511 71.674 123.045 72.7406V73.1406H113.345C112.611 72.5406 112.078 71.274 111.745 69.3406C111.478 67.4073 111.145 63.3406 110.745 57.1406C110.411 51.9406 109.111 48.274 106.845 46.1406C104.645 44.0073 101.111 42.9406 96.2445 42.9406H76.3445L76.3445 73.1406H67.3445ZM76.3445 9.44062V35.6406H97.5445C102.478 35.6406 106.211 34.5073 108.745 32.2406C111.278 29.9073 112.545 26.674 112.545 22.5406C112.545 18.074 111.411 14.774 109.145 12.6406C106.878 10.5073 103.178 9.44062 98.0445 9.44062L76.3445 9.44062ZM186.474 64.1406C180.141 71.1406 171.674 74.6406 161.074 74.6406C150.474 74.6406 141.974 71.1406 135.574 64.1406C129.241 57.1406 126.074 48.2073 126.074 37.3406C126.074 26.474 129.241 17.5406 135.574 10.5406C141.974 3.54062 150.474 0.0406244 161.074 0.0406244C171.674 0.0406244 180.141 3.54062 186.474 10.5406C192.874 17.5406 196.074 26.474 196.074 37.3406C196.074 48.2073 192.874 57.1406 186.474 64.1406ZM142.074 58.5406C146.608 64.0073 152.941 66.7406 161.074 66.7406C169.208 66.7406 175.541 64.0073 180.074 58.5406C184.608 53.074 186.874 46.0073 186.874 37.3406C186.874 28.674 184.608 21.6073 180.074 16.1406C175.541 10.6073 169.208 7.84062 161.074 7.84062C152.941 7.84062 146.608 10.6073 142.074 16.1406C137.541 21.6073 135.274 28.674 135.274 37.3406C135.274 46.0073 137.541 53.074 142.074 58.5406ZM193.586 73.1406L219.886 1.64062L229.986 1.64062L256.386 73.1406H246.586L238.986 51.3406H210.486L202.786 73.1406H193.586ZM221.586 20.0406L213.086 44.0406H236.486L228.286 20.0406L225.086 9.94062H224.886C223.619 13.9406 222.519 17.3073 221.586 20.0406ZM260.13 73.1406V1.64062L286.13 1.64062C296.596 1.64062 304.496 4.87396 309.83 11.3406C315.163 17.8073 317.83 26.574 317.83 37.6406C317.83 48.6406 315.063 57.3073 309.53 63.6406C303.996 69.974 295.963 73.1406 285.43 73.1406H260.13ZM269.13 65.2406H285.13C300.796 65.2406 308.63 56.0406 308.63 37.6406C308.63 18.8406 301.03 9.44062 285.83 9.44062L269.13 9.44062V65.2406Z" fill="#344899"/>
<path d="M1135.92 332.797V261.297H1161.92C1172.39 261.297 1180.29 264.53 1185.62 270.997C1190.95 277.464 1193.62 286.23 1193.62 297.297C1193.62 308.297 1190.85 316.964 1185.32 323.297C1179.79 329.63 1171.75 332.797 1161.22 332.797H1135.92ZM1144.92 324.897H1160.92C1176.59 324.897 1184.42 315.697 1184.42 297.297C1184.42 278.497 1176.82 269.097 1161.62 269.097H1144.92V324.897ZM1257.98 323.797C1251.65 330.797 1243.18 334.297 1232.58 334.297C1221.98 334.297 1213.48 330.797 1207.08 323.797C1200.75 316.797 1197.58 307.864 1197.58 296.997C1197.58 286.13 1200.75 277.197 1207.08 270.197C1213.48 263.197 1221.98 259.697 1232.58 259.697C1243.18 259.697 1251.65 263.197 1257.98 270.197C1264.38 277.197 1267.58 286.13 1267.58 296.997C1267.58 307.864 1264.38 316.797 1257.98 323.797ZM1213.58 318.197C1218.11 323.664 1224.45 326.397 1232.58 326.397C1240.71 326.397 1247.05 323.664 1251.58 318.197C1256.11 312.73 1258.38 305.664 1258.38 296.997C1258.38 288.33 1256.11 281.264 1251.58 275.797C1247.05 270.264 1240.71 267.497 1232.58 267.497C1224.45 267.497 1218.11 270.264 1213.58 275.797C1209.05 281.264 1206.78 288.33 1206.78 296.997C1206.78 305.664 1209.05 312.73 1213.58 318.197ZM1274.31 332.797V261.297L1324.81 261.297V269.197L1283.31 269.197V291.797L1321.01 291.797V299.397H1283.31V324.497H1326.01V332.797H1274.31ZM1357.54 334.197C1347.94 334.197 1340.54 331.83 1335.34 327.097C1330.2 322.364 1327.44 316.197 1327.04 308.597L1335.84 308.597C1337.04 320.864 1344.4 326.997 1357.94 326.997C1363.07 326.997 1367.17 325.864 1370.24 323.597C1373.37 321.264 1374.94 317.93 1374.94 313.597C1374.94 311.664 1374.57 309.964 1373.84 308.497C1373.1 307.03 1372.2 305.83 1371.14 304.897C1370.14 303.964 1368.6 303.097 1366.54 302.297C1364.47 301.497 1362.54 300.864 1360.74 300.397C1359 299.93 1356.6 299.364 1353.54 298.697C1349.87 297.897 1346.84 297.097 1344.44 296.297C1342.04 295.43 1339.64 294.264 1337.24 292.797C1334.84 291.33 1333.04 289.464 1331.84 287.197C1330.7 284.864 1330.14 282.064 1330.14 278.797C1330.14 272.93 1332.34 268.33 1336.74 264.997C1341.2 261.597 1347.1 259.897 1354.44 259.897C1370.5 259.897 1379.54 267.33 1381.54 282.197H1373.04C1372.37 277.13 1370.47 273.33 1367.34 270.797C1364.2 268.197 1359.97 266.897 1354.64 266.897C1349.7 266.897 1345.77 267.897 1342.84 269.897C1339.97 271.897 1338.54 274.73 1338.54 278.397C1338.54 279.997 1338.84 281.43 1339.44 282.697C1340.1 283.897 1340.94 284.93 1341.94 285.797C1343 286.597 1344.37 287.33 1346.04 287.997C1347.77 288.664 1349.47 289.23 1351.14 289.697C1352.8 290.097 1354.84 290.53 1357.24 290.997C1360.57 291.664 1363.3 292.297 1365.44 292.897C1367.57 293.43 1369.94 294.264 1372.54 295.397C1375.14 296.53 1377.14 297.83 1378.54 299.297C1380 300.764 1381.24 302.697 1382.24 305.097C1383.3 307.43 1383.84 310.164 1383.84 313.297C1383.84 319.83 1381.4 324.964 1376.54 328.697C1371.74 332.364 1365.4 334.197 1357.54 334.197Z" fill="#344899"/>
<path d="M462.071 518.056V510.156H518.671V518.056H494.871V581.656H485.871V518.056H462.071ZM523.606 581.656V510.156H532.606V540.556H570.806V510.156H579.806V581.656H570.806V547.856H532.606V581.656H523.606ZM589.435 581.656V510.156H598.435V581.656H589.435ZM607.989 581.656V510.156H617.489L650.089 559.856L655.289 569.056H655.489V510.156H663.889V581.656H654.689L621.889 531.856L616.589 522.956H616.389V581.656H607.989ZM729.325 581.656L726.725 572.256H726.525C721.325 579.523 713.892 583.156 704.225 583.156C694.225 583.156 686.125 579.723 679.925 572.856C673.725 565.99 670.625 557.09 670.625 546.156C670.625 535.223 673.625 526.256 679.625 519.256C685.692 512.19 694.158 508.656 705.025 508.656C713.158 508.656 719.725 510.723 724.725 514.856C729.792 518.923 732.925 524.523 734.125 531.656H724.825C723.825 526.79 721.625 523.056 718.225 520.456C714.825 517.79 710.358 516.456 704.825 516.456C696.558 516.456 690.325 519.19 686.125 524.656C681.925 530.123 679.825 537.29 679.825 546.156C679.825 554.89 682.125 561.956 686.725 567.356C691.325 572.69 697.258 575.356 704.525 575.356C711.525 575.356 716.858 573.29 720.525 569.156C724.258 565.023 726.125 559.756 726.125 553.356V551.656H704.625V543.856H735.125V581.656H729.325ZM769.544 583.056C759.944 583.056 752.544 580.69 747.344 575.956C742.21 571.223 739.444 565.056 739.044 557.456H747.844C749.044 569.723 756.41 575.856 769.944 575.856C775.077 575.856 779.177 574.723 782.244 572.456C785.377 570.123 786.944 566.79 786.944 562.456C786.944 560.523 786.577 558.823 785.844 557.356C785.11 555.89 784.21 554.69 783.144 553.756C782.144 552.823 780.61 551.956 778.544 551.156C776.477 550.356 774.544 549.723 772.744 549.256C771.01 548.79 768.61 548.223 765.544 547.556C761.877 546.756 758.844 545.956 756.444 545.156C754.044 544.29 751.644 543.123 749.244 541.656C746.844 540.19 745.044 538.323 743.844 536.056C742.71 533.723 742.144 530.923 742.144 527.656C742.144 521.79 744.344 517.19 748.744 513.856C753.21 510.456 759.11 508.756 766.444 508.756C782.51 508.756 791.544 516.19 793.544 531.056H785.044C784.377 525.99 782.477 522.19 779.344 519.656C776.21 517.056 771.977 515.756 766.644 515.756C761.71 515.756 757.777 516.756 754.844 518.756C751.977 520.756 750.544 523.59 750.544 527.256C750.544 528.856 750.844 530.29 751.444 531.556C752.11 532.756 752.944 533.79 753.944 534.656C755.01 535.456 756.377 536.19 758.044 536.856C759.777 537.523 761.477 538.09 763.144 538.556C764.81 538.956 766.844 539.39 769.244 539.856C772.577 540.523 775.31 541.156 777.444 541.756C779.577 542.29 781.944 543.123 784.544 544.256C787.144 545.39 789.144 546.69 790.544 548.156C792.01 549.623 793.244 551.556 794.244 553.956C795.31 556.29 795.844 559.023 795.844 562.156C795.844 568.69 793.41 573.823 788.544 577.556C783.744 581.223 777.41 583.056 769.544 583.056Z" fill="#344899"/>
<path d="M835.489 834.742V763.242H861.489C871.956 763.242 879.856 766.476 885.189 772.942C890.522 779.409 893.189 788.176 893.189 799.242C893.189 810.242 890.422 818.909 884.889 825.242C879.356 831.576 871.322 834.742 860.789 834.742H835.489ZM844.489 826.842H860.489C876.156 826.842 883.989 817.642 883.989 799.242C883.989 780.442 876.389 771.042 861.189 771.042H844.489V826.842ZM900.048 834.742V763.242H909.048V834.742H900.048ZM918.602 834.742V763.242H967.102V771.142H927.602V793.442H960.502V801.042H927.602V834.742H918.602ZM972.415 834.742V763.242H1020.91V771.142H981.415V793.442H1014.31V801.042H981.415V834.742H972.415ZM1026.23 834.742V763.242H1076.73V771.142H1035.23V793.742H1072.93V801.342H1035.23V826.442H1077.93V834.742H1026.23ZM1084.43 834.742V763.242H1117.83C1124.1 763.242 1129.17 765.042 1133.03 768.642C1136.97 772.242 1138.93 776.976 1138.93 782.842C1138.93 791.976 1134.8 797.876 1126.53 800.542V800.842C1130.07 802.109 1132.57 804.109 1134.03 806.842C1135.57 809.509 1136.5 813.576 1136.83 819.042C1137.5 828.176 1138.6 833.276 1140.13 834.342V834.742H1130.43C1129.7 834.142 1129.17 832.876 1128.83 830.942C1128.57 829.009 1128.23 824.942 1127.83 818.742C1127.5 813.542 1126.2 809.876 1123.93 807.742C1121.73 805.609 1118.2 804.542 1113.33 804.542H1093.43V834.742H1084.43ZM1093.43 771.042V797.242H1114.63C1119.57 797.242 1123.3 796.109 1125.83 793.842C1128.37 791.509 1129.63 788.276 1129.63 784.142C1129.63 779.676 1128.5 776.376 1126.23 774.242C1123.97 772.109 1120.27 771.042 1115.13 771.042H1093.43ZM1145.86 834.742V763.242L1196.36 763.242V771.142L1154.86 771.142V793.742H1192.56V801.342H1154.86V826.442H1197.56V834.742H1145.86ZM1204.07 834.742V763.242H1213.57L1246.17 812.942L1251.37 822.142H1251.57V763.242H1259.97V834.742H1250.77L1217.97 784.942L1212.67 776.042H1212.47V834.742H1204.07ZM1264.91 771.142V763.242H1321.51V771.142H1297.71V834.742H1288.71V771.142H1264.91ZM1326.44 834.742V763.242H1335.44V826.442H1372.94V834.742H1326.44ZM1387.47 834.742V804.442L1361.57 763.242H1371.57L1392.07 797.242H1392.27L1413.07 763.242H1422.67L1396.47 804.642V834.742H1387.47Z" fill="#344899"/>
</svg>
