<svg width="398" height="388" viewBox="0 0 398 388" fill="none" xmlns="http://www.w3.org/2000/svg">
<rect width="397" height="388" transform="translate(0.757812)" fill="white"/>
<path d="M243.435 145.688V119.947H252.795C256.563 119.947 259.407 121.111 261.327 123.439C263.247 125.767 264.207 128.923 264.207 132.907C264.207 136.867 263.211 139.987 261.219 142.267C259.227 144.547 256.335 145.688 252.543 145.688H243.435ZM246.675 142.843H252.435C258.075 142.843 260.895 139.531 260.895 132.907C260.895 126.139 258.159 122.755 252.687 122.755H246.675V142.843ZM287.376 142.447C285.096 144.967 282.048 146.228 278.232 146.228C274.416 146.228 271.356 144.967 269.052 142.447C266.772 139.927 265.632 136.711 265.632 132.799C265.632 128.887 266.772 125.671 269.052 123.151C271.356 120.631 274.416 119.371 278.232 119.371C282.048 119.371 285.096 120.631 287.376 123.151C289.68 125.671 290.832 128.887 290.832 132.799C290.832 136.711 289.68 139.927 287.376 142.447ZM271.392 140.431C273.024 142.399 275.304 143.383 278.232 143.383C281.16 143.383 283.44 142.399 285.072 140.431C286.704 138.463 287.52 135.919 287.52 132.799C287.52 129.679 286.704 127.135 285.072 125.167C283.44 123.175 281.16 122.179 278.232 122.179C275.304 122.179 273.024 123.175 271.392 125.167C269.76 127.135 268.944 129.679 268.944 132.799C268.944 135.919 269.76 138.463 271.392 140.431ZM293.254 145.688V119.947H311.434V122.791H296.494V130.927H310.066V133.663H296.494V142.699H311.866V145.688H293.254ZM323.217 146.192C319.761 146.192 317.097 145.339 315.225 143.635C313.377 141.931 312.381 139.711 312.237 136.975H315.405C315.837 141.391 318.489 143.599 323.361 143.599C325.209 143.599 326.685 143.191 327.789 142.375C328.917 141.535 329.481 140.335 329.481 138.775C329.481 138.079 329.349 137.467 329.085 136.939C328.821 136.411 328.497 135.979 328.113 135.643C327.753 135.307 327.201 134.995 326.457 134.707C325.713 134.419 325.017 134.191 324.369 134.023C323.745 133.855 322.881 133.651 321.777 133.411C320.457 133.123 319.365 132.835 318.501 132.547C317.637 132.235 316.773 131.815 315.909 131.287C315.045 130.759 314.397 130.087 313.965 129.271C313.557 128.431 313.353 127.423 313.353 126.247C313.353 124.135 314.145 122.479 315.729 121.279C317.337 120.055 319.461 119.443 322.101 119.443C327.885 119.443 331.137 122.119 331.857 127.471H328.797C328.557 125.647 327.873 124.279 326.745 123.367C325.617 122.431 324.093 121.963 322.173 121.963C320.397 121.963 318.981 122.323 317.925 123.043C316.893 123.763 316.377 124.783 316.377 126.103C316.377 126.679 316.485 127.195 316.701 127.651C316.941 128.083 317.241 128.455 317.601 128.767C317.985 129.055 318.477 129.319 319.077 129.559C319.701 129.799 320.313 130.003 320.913 130.171C321.513 130.315 322.245 130.471 323.109 130.639C324.309 130.879 325.293 131.107 326.061 131.323C326.829 131.515 327.681 131.815 328.617 132.223C329.553 132.631 330.273 133.099 330.777 133.627C331.305 134.155 331.749 134.851 332.109 135.715C332.493 136.555 332.685 137.539 332.685 138.667C332.685 141.019 331.809 142.867 330.057 144.211C328.329 145.531 326.049 146.192 323.217 146.192Z" fill="#344899"/>
<path d="M11.912 37.0703L11.912 11.3303L22.82 11.3303C25.532 11.3303 27.596 12.0743 29.012 13.5623C30.116 14.7143 30.668 16.1783 30.668 17.9543C30.668 20.6903 29.288 22.4903 26.528 23.3543V23.4623C28.064 23.8223 29.312 24.5423 30.272 25.6223C31.232 26.6783 31.712 28.0343 31.712 29.6903C31.712 31.6583 31.088 33.3023 29.84 34.6223C28.328 36.2543 26.18 37.0703 23.396 37.0703H11.912ZM15.152 34.1543H23.252C25.028 34.1543 26.372 33.7223 27.284 32.8583C28.052 32.0423 28.436 31.0463 28.436 29.8703C28.436 28.3103 27.944 27.1223 26.96 26.3063C25.976 25.4903 24.668 25.0823 23.036 25.0823H15.152V34.1543ZM15.152 22.3463H22.424C23.984 22.3463 25.208 21.9743 26.096 21.2303C26.984 20.4863 27.428 19.4543 27.428 18.1343C27.428 16.8863 27.02 15.9143 26.204 15.2183C25.412 14.4983 24.296 14.1383 22.856 14.1383L15.152 14.1383L15.152 22.3463ZM33.64 37.0703V11.3303L45.664 11.3303C47.92 11.3303 49.744 11.9783 51.136 13.2743C52.552 14.5703 53.26 16.2743 53.26 18.3863C53.26 21.6743 51.772 23.7983 48.796 24.7583V24.8663C50.068 25.3223 50.968 26.0423 51.496 27.0263C52.048 27.9863 52.384 29.4503 52.504 31.4183C52.744 34.7063 53.14 36.5423 53.692 36.9263V37.0703H50.2C49.936 36.8543 49.744 36.3983 49.624 35.7023C49.528 35.0063 49.408 33.5423 49.264 31.3103C49.144 29.4383 48.676 28.1183 47.86 27.3503C47.068 26.5823 45.796 26.1983 44.044 26.1983L36.88 26.1983V37.0703H33.64ZM36.88 14.1383V23.5703L44.512 23.5703C46.288 23.5703 47.632 23.1623 48.544 22.3463C49.456 21.5063 49.912 20.3423 49.912 18.8543C49.912 17.2463 49.504 16.0583 48.688 15.2903C47.872 14.5223 46.54 14.1383 44.692 14.1383L36.88 14.1383ZM76.5267 33.8303C74.2467 36.3503 71.1987 37.6103 67.3827 37.6103C63.5667 37.6103 60.5067 36.3503 58.2027 33.8303C55.9227 31.3103 54.7827 28.0943 54.7827 24.1823C54.7827 20.2703 55.9227 17.0543 58.2027 14.5343C60.5067 12.0143 63.5667 10.7543 67.3827 10.7543C71.1987 10.7543 74.2467 12.0143 76.5267 14.5343C78.8307 17.0543 79.9827 20.2703 79.9827 24.1823C79.9827 28.0943 78.8307 31.3103 76.5267 33.8303ZM60.5427 31.8143C62.1747 33.7823 64.4547 34.7663 67.3827 34.7663C70.3107 34.7663 72.5907 33.7823 74.2227 31.8143C75.8547 29.8463 76.6707 27.3023 76.6707 24.1823C76.6707 21.0623 75.8547 18.5183 74.2227 16.5503C72.5907 14.5583 70.3107 13.5623 67.3827 13.5623C64.4547 13.5623 62.1747 14.5583 60.5427 16.5503C58.9107 18.5183 58.0947 21.0623 58.0947 24.1823C58.0947 27.3023 58.9107 29.8463 60.5427 31.8143ZM79.0869 37.0703L88.5549 11.3303L92.1909 11.3303L101.695 37.0703H98.1669L95.4309 29.2223L85.1709 29.2223L82.3989 37.0703H79.0869ZM89.1669 17.9543L86.1069 26.5943H94.5309L91.5789 17.9543L90.4269 14.3183H90.3549C89.8989 15.7583 89.5029 16.9703 89.1669 17.9543ZM103.043 37.0703V11.3303L112.403 11.3303C116.171 11.3303 119.015 12.4943 120.935 14.8223C122.855 17.1503 123.815 20.3063 123.815 24.2903C123.815 28.2503 122.819 31.3703 120.827 33.6503C118.835 35.9303 115.943 37.0703 112.151 37.0703H103.043ZM106.283 34.2263H112.043C117.683 34.2263 120.503 30.9143 120.503 24.2903C120.503 17.5223 117.767 14.1383 112.295 14.1383H106.283V34.2263Z" fill="#344899"/>
<path d="M179.158 268.297H65.1742C35.1779 268.297 10.861 243.98 10.861 213.984V213.984C10.861 183.987 35.1778 159.67 65.1742 159.67H207.813" stroke="#344899" stroke-width="4"/>
<path d="M147.198 159.672H334.704C364.7 159.672 389.017 135.355 389.017 105.359V105.359C389.017 75.3623 364.7 51.0454 334.704 51.0454L11.3828 51.0454" stroke="#344899" stroke-width="4"/>
<path d="M11.375 376.922H334.7C364.696 376.922 389.013 352.605 389.013 322.609V322.609C389.013 292.612 364.696 268.295 334.7 268.295H103.663" stroke="#344899" stroke-width="4"/>
<path d="M101.74 231.401V228.557H122.116V231.401H113.548V254.297H110.308V231.401H101.74ZM123.892 254.297V228.557H127.132V239.501H140.884V228.557H144.124V254.297H140.884V242.129H127.132V254.297H123.892ZM147.591 254.297V228.557H150.831V254.297H147.591ZM154.27 254.297V228.557H157.69L169.426 246.449L171.298 249.761H171.37V228.557H174.394V254.297H171.082L159.274 236.369L157.366 233.165H157.294V254.297H154.27ZM197.951 254.297L197.015 250.913H196.943C195.071 253.529 192.395 254.837 188.915 254.837C185.315 254.837 182.399 253.601 180.167 251.129C177.935 248.657 176.819 245.453 176.819 241.517C176.819 237.581 177.899 234.353 180.059 231.833C182.243 229.289 185.291 228.017 189.203 228.017C192.131 228.017 194.495 228.761 196.295 230.249C198.119 231.713 199.247 233.729 199.679 236.297H196.331C195.971 234.545 195.179 233.201 193.955 232.265C192.731 231.305 191.123 230.825 189.131 230.825C186.155 230.825 183.911 231.809 182.399 233.777C180.887 235.745 180.131 238.325 180.131 241.517C180.131 244.661 180.959 247.205 182.615 249.149C184.271 251.069 186.407 252.029 189.023 252.029C191.543 252.029 193.463 251.285 194.783 249.797C196.127 248.309 196.799 246.413 196.799 244.109V243.497L189.059 243.497V240.689L200.039 240.689V254.297L197.951 254.297ZM212.43 254.801C208.974 254.801 206.31 253.949 204.438 252.245C202.59 250.541 201.594 248.321 201.45 245.585H204.618C205.05 250.001 207.702 252.209 212.574 252.209C214.422 252.209 215.898 251.801 217.002 250.985C218.13 250.145 218.694 248.945 218.694 247.385C218.694 246.689 218.562 246.077 218.298 245.549C218.034 245.021 217.71 244.589 217.326 244.253C216.966 243.917 216.414 243.605 215.67 243.317C214.926 243.029 214.23 242.801 213.582 242.633C212.958 242.465 212.094 242.261 210.99 242.021C209.67 241.733 208.578 241.445 207.714 241.157C206.85 240.845 205.986 240.425 205.122 239.897C204.258 239.369 203.61 238.697 203.178 237.881C202.77 237.041 202.566 236.033 202.566 234.857C202.566 232.745 203.358 231.089 204.942 229.889C206.55 228.665 208.674 228.053 211.314 228.053C217.098 228.053 220.35 230.729 221.07 236.081H218.01C217.77 234.257 217.086 232.889 215.958 231.977C214.83 231.041 213.306 230.573 211.386 230.573C209.61 230.573 208.194 230.933 207.138 231.653C206.106 232.373 205.59 233.393 205.59 234.713C205.59 235.289 205.698 235.805 205.914 236.261C206.154 236.693 206.454 237.065 206.814 237.377C207.198 237.665 207.69 237.929 208.29 238.169C208.914 238.409 209.526 238.613 210.126 238.781C210.726 238.925 211.458 239.081 212.322 239.249C213.522 239.489 214.506 239.717 215.274 239.933C216.042 240.125 216.894 240.425 217.83 240.833C218.766 241.241 219.486 241.709 219.99 242.237C220.518 242.765 220.962 243.461 221.322 244.325C221.706 245.165 221.898 246.149 221.898 247.277C221.898 249.629 221.022 251.477 219.27 252.821C217.542 254.141 215.262 254.801 212.43 254.801Z" fill="#344899"/>
<path d="M112.49 362.922V337.182H121.85C125.618 337.182 128.462 338.346 130.382 340.674C132.302 343.002 133.262 346.158 133.262 350.142C133.262 354.102 132.266 357.222 130.274 359.502C128.282 361.782 125.39 362.922 121.598 362.922H112.49ZM115.73 360.078H121.49C127.13 360.078 129.95 356.766 129.95 350.142C129.95 343.374 127.214 339.99 121.742 339.99H115.73V360.078ZM135.731 362.922V337.182H138.971V362.922H135.731ZM142.411 362.922V337.182H159.871V340.026H145.651V348.054H157.495V350.79H145.651V362.922H142.411ZM161.783 362.922V337.182H179.243V340.026H165.023V348.054H176.867V350.79H165.023V362.922H161.783ZM181.156 362.922V337.182H199.336V340.026H184.396V348.162H197.968V350.898H184.396V359.934H199.768V362.922H181.156ZM202.11 362.922V337.182H214.134C216.39 337.182 218.214 337.83 219.606 339.126C221.022 340.422 221.73 342.126 221.73 344.238C221.73 347.526 220.242 349.65 217.266 350.61V350.718C218.538 351.174 219.438 351.894 219.966 352.878C220.518 353.838 220.854 355.302 220.974 357.27C221.214 360.558 221.61 362.394 222.162 362.778V362.922H218.67C218.406 362.706 218.214 362.25 218.094 361.554C217.998 360.858 217.878 359.394 217.734 357.162C217.614 355.29 217.146 353.97 216.33 353.202C215.538 352.434 214.266 352.05 212.514 352.05H205.35V362.922H202.11ZM205.35 339.99V349.422H212.982C214.758 349.422 216.102 349.014 217.014 348.198C217.926 347.358 218.382 346.194 218.382 344.706C218.382 343.098 217.974 341.91 217.158 341.142C216.342 340.374 215.01 339.99 213.162 339.99H205.35ZM224.225 362.922V337.182H242.405V340.026H227.465V348.162H241.037V350.898H227.465V359.934H242.837V362.922H224.225ZM245.18 362.922V337.182H248.6L260.336 355.074L262.208 358.386H262.28V337.182H265.304V362.922H261.992L250.184 344.994L248.276 341.79H248.204V362.922H245.18ZM267.081 340.026V337.182L287.457 337.182V340.026H278.889V362.922H275.649V340.026H267.081ZM289.233 362.922V337.182H292.473V359.934L305.973 359.934V362.922L289.233 362.922ZM311.202 362.922V352.014L301.878 337.182H305.478L312.858 349.422H312.93L320.418 337.182H323.874L314.442 352.086V362.922H311.202Z" fill="#344899"/>
</svg>
