<svg width="397" height="388" viewBox="0 0 397 388" fill="none" xmlns="http://www.w3.org/2000/svg">
<rect width="397" height="388" fill="#CED7E9"/>
<path d="M233.431 272.213H339.962C365.178 272.213 385.695 251.695 385.695 226.48C385.695 201.265 365.178 180.754 339.962 180.754H214.064V355.267" stroke="#2E499E" stroke-width="1.25"/>
<path d="M233.398 275.148H339.957C366.792 275.148 388.628 253.311 388.628 226.476C388.628 199.642 366.792 177.805 339.957 177.805H210.803V355.262" stroke="#2E499E" stroke-width="1.25"/>
<path d="M9.98898 129.64H338.56C361.212 129.64 379.64 111.225 379.64 88.5864C379.64 65.9483 361.212 47.5332 338.56 47.5332H9.98818" stroke="#2E499E" stroke-width="1.25"/>
<path d="M10.0168 132.579H338.748C363.015 132.579 382.768 112.847 382.768 88.5865C382.768 64.3256 363.022 44.5938 338.748 44.5938H10.0098" stroke="#2E499E" stroke-width="1.25"/>
<path d="M386.887 366.233H58.5749C33.4096 366.233 12.9395 345.756 12.9395 320.597C12.9395 295.439 33.4096 274.962 58.5749 274.955L185.378 274.954M185.378 272.022L58.5749 272.022C33.4096 272.022 12.9395 251.546 12.9395 226.387C12.9395 201.228 33.4162 180.745 58.5749 180.745L185.378 180.744M185.378 177.805L58.5749 177.805C31.7935 177.805 10 199.599 10 226.38C10 249.078 25.6485 268.185 46.7238 273.485C25.6485 278.792 10 297.899 10 320.597C10 347.385 31.7935 369.172 58.5749 369.172H386.887" stroke="#2E499E" stroke-width="1.25" stroke-miterlimit="10"/>
<path d="M243.058 169.383L242.448 169.158L242.127 170.033H243.058V169.383ZM252.526 143.643V142.993H252.073L251.916 143.418L252.526 143.643ZM256.162 143.643L256.772 143.418L256.615 142.993H256.162V143.643ZM265.666 169.383V170.033H266.599L266.276 169.158L265.666 169.383ZM262.138 169.383L261.525 169.597L261.677 170.033H262.138V169.383ZM259.402 161.535L260.016 161.321L259.864 160.885H259.402V161.535ZM249.142 161.535V160.885H248.683L248.53 161.318L249.142 161.535ZM246.37 169.383V170.033H246.83L246.983 169.599L246.37 169.383ZM253.138 150.267L253.751 150.484L253.754 150.477L253.138 150.267ZM250.078 158.907L249.466 158.69L249.159 159.557H250.078V158.907ZM258.502 158.907V159.557H259.411L259.118 158.697L258.502 158.907ZM255.55 150.267L256.166 150.057L256.164 150.052L255.55 150.267ZM254.398 146.631L255.022 146.447L254.884 145.981H254.398V146.631ZM254.326 146.631V145.981H253.851L253.707 146.435L254.326 146.631ZM243.669 169.607L253.137 143.867L251.916 143.418L242.448 169.158L243.669 169.607ZM252.526 144.293H256.162V142.993H252.526V144.293ZM255.553 143.868L265.057 169.608L266.276 169.158L256.772 143.418L255.553 143.868ZM265.666 168.733H262.138V170.033H265.666V168.733ZM262.752 169.169L260.016 161.321L258.789 161.749L261.525 169.597L262.752 169.169ZM259.402 160.885H249.142V162.185H259.402V160.885ZM248.53 161.318L245.758 169.166L246.983 169.599L249.755 161.751L248.53 161.318ZM246.37 168.733H243.058V170.033H246.37V168.733ZM252.526 150.05L249.466 158.69L250.691 159.124L253.751 150.484L252.526 150.05ZM250.078 159.557H258.502V158.257H250.078V159.557ZM259.118 158.697L256.166 150.057L254.935 150.477L257.887 159.117L259.118 158.697ZM256.164 150.052C255.916 149.344 255.631 148.444 255.407 147.717C255.295 147.354 255.198 147.037 255.13 146.809C255.096 146.696 255.069 146.605 255.05 146.543C255.041 146.511 255.034 146.487 255.029 146.471C255.027 146.463 255.025 146.457 255.024 146.453C255.023 146.451 255.023 146.449 255.022 146.448C255.022 146.448 255.022 146.447 255.022 146.447C255.022 146.447 255.022 146.447 255.022 146.447C255.022 146.447 255.022 146.447 255.022 146.447C255.022 146.447 255.022 146.447 254.398 146.631C253.775 146.815 253.775 146.815 253.775 146.815C253.775 146.815 253.775 146.815 253.775 146.815C253.775 146.815 253.775 146.815 253.775 146.815C253.775 146.816 253.775 146.816 253.776 146.817C253.776 146.818 253.776 146.819 253.777 146.821C253.778 146.826 253.78 146.832 253.783 146.84C253.788 146.857 253.795 146.882 253.804 146.913C253.823 146.977 253.851 147.069 253.885 147.183C253.954 147.413 254.051 147.734 254.164 148.101C254.39 148.831 254.681 149.75 254.937 150.482L256.164 150.052ZM254.398 145.981H254.326V147.281H254.398V145.981ZM254.326 146.631C253.707 146.435 253.707 146.435 253.707 146.435C253.707 146.435 253.707 146.435 253.707 146.435C253.707 146.435 253.707 146.435 253.707 146.435C253.707 146.435 253.707 146.436 253.706 146.436C253.706 146.437 253.706 146.439 253.705 146.441C253.704 146.445 253.702 146.451 253.699 146.459C253.694 146.475 253.686 146.499 253.677 146.53C253.657 146.591 253.628 146.681 253.593 146.794C253.521 147.019 253.42 147.334 253.303 147.696C253.069 148.419 252.774 149.324 252.523 150.057L253.754 150.477C254.007 149.734 254.306 148.82 254.54 148.095C254.657 147.732 254.759 147.415 254.831 147.189C254.867 147.076 254.896 146.986 254.916 146.923C254.925 146.892 254.933 146.868 254.938 146.852C254.941 146.844 254.943 146.838 254.944 146.833C254.945 146.831 254.945 146.83 254.946 146.829C254.946 146.828 254.946 146.828 254.946 146.827C254.946 146.827 254.946 146.827 254.946 146.827C254.946 146.827 254.946 146.827 254.946 146.827C254.946 146.827 254.946 146.827 254.326 146.631ZM267.374 169.383H266.724V170.033H267.374V169.383ZM267.374 143.643V142.993H266.724V143.643H267.374ZM270.794 143.643L271.338 143.286L271.145 142.993H270.794V143.643ZM282.53 161.535L283.076 161.181L283.074 161.178L282.53 161.535ZM284.402 164.847L283.823 165.142L284.004 165.497H284.402V164.847ZM284.474 164.847V165.497H285.124V164.847H284.474ZM284.474 143.643V142.993H283.824V143.643H284.474ZM287.498 143.643H288.148V142.993H287.498V143.643ZM287.498 169.383V170.033H288.148V169.383H287.498ZM284.186 169.383L283.643 169.74L283.836 170.033H284.186V169.383ZM272.378 151.455L271.835 151.812L271.835 151.812L272.378 151.455ZM270.47 148.251L271.038 147.935L270.853 147.601H270.47V148.251ZM270.398 148.251V147.601H269.748V148.251H270.398ZM270.398 169.383V170.033H271.048V169.383H270.398ZM268.024 169.383V143.643H266.724V169.383H268.024ZM267.374 144.293H270.794V142.993H267.374V144.293ZM270.251 143.999L281.987 161.891L283.074 161.178L271.338 143.286L270.251 143.999ZM281.985 161.889C282.403 162.533 282.862 163.344 283.219 164.001C283.397 164.328 283.549 164.614 283.655 164.818C283.709 164.92 283.751 165.001 283.779 165.057C283.794 165.085 283.805 165.106 283.812 165.121C283.816 165.128 283.819 165.133 283.82 165.137C283.821 165.138 283.822 165.14 283.822 165.141C283.823 165.141 283.823 165.141 283.823 165.142C283.823 165.142 283.823 165.142 283.823 165.142C283.823 165.142 283.823 165.142 283.823 165.142C283.823 165.142 283.823 165.142 284.402 164.847C284.981 164.552 284.981 164.552 284.981 164.552C284.981 164.552 284.981 164.552 284.981 164.552C284.981 164.552 284.981 164.552 284.981 164.551C284.981 164.551 284.981 164.551 284.981 164.55C284.98 164.549 284.979 164.548 284.978 164.546C284.976 164.541 284.973 164.536 284.969 164.528C284.961 164.513 284.95 164.49 284.935 164.461C284.905 164.404 284.862 164.32 284.807 164.215C284.698 164.006 284.543 163.714 284.361 163.38C283.999 162.714 283.521 161.868 283.076 161.181L281.985 161.889ZM284.402 165.497H284.474V164.197H284.402V165.497ZM285.124 164.847V143.643H283.824V164.847H285.124ZM284.474 144.293H287.498V142.993H284.474V144.293ZM286.848 143.643V169.383H288.148V143.643H286.848ZM287.498 168.733L284.186 168.733V170.033L287.498 170.033V168.733ZM284.729 169.025L272.921 151.097L271.835 151.812L283.643 169.74L284.729 169.025ZM272.921 151.098C272.518 150.483 272.048 149.695 271.676 149.054C271.491 148.735 271.331 148.455 271.218 148.254C271.161 148.154 271.116 148.074 271.085 148.019C271.07 147.992 271.058 147.971 271.05 147.956C271.046 147.949 271.043 147.944 271.041 147.94C271.04 147.939 271.04 147.937 271.039 147.936C271.039 147.936 271.039 147.936 271.039 147.935C271.039 147.935 271.038 147.935 271.038 147.935C271.038 147.935 271.038 147.935 271.038 147.935C271.038 147.935 271.038 147.935 270.47 148.251C269.902 148.566 269.902 148.567 269.902 148.567C269.902 148.567 269.902 148.567 269.902 148.567C269.902 148.567 269.902 148.567 269.902 148.567C269.902 148.567 269.903 148.568 269.903 148.568C269.904 148.569 269.904 148.571 269.905 148.573C269.908 148.576 269.911 148.582 269.915 148.59C269.923 148.604 269.935 148.626 269.951 148.654C269.983 148.711 270.029 148.792 270.086 148.894C270.201 149.098 270.363 149.382 270.552 149.707C270.926 150.353 271.411 151.166 271.835 151.812L272.921 151.098ZM270.47 147.601H270.398V148.901H270.47V147.601ZM269.748 148.251V169.383H271.048V148.251H269.748ZM270.398 168.733H267.374V170.033H270.398V168.733ZM291.255 169.383H290.605V170.033H291.255V169.383ZM291.255 143.643V142.993H290.605V143.643H291.255ZM294.495 166.539H293.845V167.189H294.495V166.539ZM294.495 146.451V145.801H293.845V146.451H294.495ZM291.905 169.383V143.643H290.605V169.383H291.905ZM291.255 144.293H300.615V142.993H291.255V144.293ZM300.615 144.293C304.327 144.293 306.982 145.545 308.723 147.648C310.48 149.77 311.377 152.844 311.377 156.603H312.677C312.677 152.658 311.738 149.251 309.724 146.819C307.695 144.368 304.644 142.993 300.615 142.993V144.293ZM311.377 156.603C311.377 160.352 310.422 163.376 308.608 165.454C306.806 167.519 304.083 168.733 300.363 168.733V170.033C304.383 170.033 307.493 168.709 309.587 166.309C311.67 163.923 312.677 160.557 312.677 156.603H311.377ZM300.363 168.733H291.255V170.033H300.363V168.733ZM294.495 167.189H300.255V165.889H294.495V167.189ZM300.255 167.189C303.429 167.189 305.754 166.161 307.264 164.241C308.751 162.35 309.365 159.696 309.365 156.603H308.065C308.065 159.557 307.473 161.872 306.242 163.437C305.034 164.973 303.13 165.889 300.255 165.889V167.189ZM309.365 156.603C309.365 153.521 308.819 150.82 307.405 148.877C305.963 146.893 303.695 145.801 300.507 145.801V147.101C303.368 147.101 305.204 148.06 306.353 149.641C307.532 151.261 308.065 153.636 308.065 156.603H309.365ZM300.507 145.801H294.495V147.101H300.507V145.801ZM293.845 146.451V166.539H295.145V146.451H293.845Z" fill="#344899"/>
<path d="M10.8905 36.6641H10.2405V37.3141H10.8905V36.6641ZM10.8905 10.9241V10.2741H10.2405V10.9241H10.8905ZM14.1305 33.8201H13.4805V34.4701H14.1305V33.8201ZM14.1305 13.7321V13.0821H13.4805V13.7321H14.1305ZM11.5405 36.6641L11.5405 10.9241H10.2405L10.2405 36.6641H11.5405ZM10.8905 11.5741L20.2505 11.5741V10.2741L10.8905 10.2741V11.5741ZM20.2505 11.5741C23.9619 11.5741 26.6171 12.8267 28.3584 14.9296C30.1156 17.0517 31.0125 20.1249 31.0125 23.8841H32.3125C32.3125 19.9393 31.3734 16.5324 29.3597 14.1005C27.33 11.6494 24.2791 10.2741 20.2505 10.2741V11.5741ZM31.0125 23.8841C31.0125 27.6335 30.0574 30.6576 28.2434 32.7356C26.4411 34.8001 23.7184 36.0141 19.9985 36.0141V37.3141C24.0186 37.3141 27.128 35.99 29.2227 33.5905C31.3056 31.2046 32.3125 27.8386 32.3125 23.8841H31.0125ZM19.9985 36.0141H10.8905V37.3141H19.9985V36.0141ZM14.1305 34.4701H19.8905V33.1701H14.1305V34.4701ZM19.8905 34.4701C23.0641 34.4701 25.3894 33.4419 26.8994 31.5219C28.3865 29.631 29.0005 26.9774 29.0005 23.8841H27.7005C27.7005 26.8387 27.1085 29.1531 25.8776 30.7182C24.6696 32.2542 22.7649 33.1701 19.8905 33.1701V34.4701ZM29.0005 23.8841C29.0005 20.8027 28.4539 18.1016 27.0402 16.1578C25.5979 14.1745 23.33 13.0821 20.1425 13.0821V14.3821C23.0031 14.3821 24.8392 15.3416 25.9888 16.9224C27.1671 18.5425 27.7005 20.9174 27.7005 23.8841H29.0005ZM20.1425 13.0821L14.1305 13.0821V14.3821L20.1425 14.3821V13.0821ZM13.4805 13.7321L13.4805 33.8201H14.7805L14.7805 13.7321H13.4805ZM34.4199 36.6641H33.7699V37.3141H34.4199V36.6641ZM34.4199 10.9241V10.2741H33.7699V10.9241H34.4199ZM52.5999 10.9241H53.2499V10.2741H52.5999V10.9241ZM52.5999 13.7681V14.4181H53.2499V13.7681H52.5999ZM37.6599 13.7681V13.1181L37.0099 13.1181V13.7681L37.6599 13.7681ZM37.6599 21.9041H37.0099V22.5541H37.6599V21.9041ZM51.2319 21.9041H51.8819V21.2541H51.2319V21.9041ZM51.2319 24.6401V25.2901H51.8819V24.6401H51.2319ZM37.6599 24.6401V23.9901H37.0099V24.6401H37.6599ZM37.6599 33.6761H37.0099V34.3261H37.6599V33.6761ZM53.0319 33.6761H53.6819V33.0261H53.0319V33.6761ZM53.0319 36.6641V37.3141H53.6819V36.6641H53.0319ZM35.0699 36.6641V10.9241H33.7699V36.6641H35.0699ZM34.4199 11.5741L52.5999 11.5741V10.2741L34.4199 10.2741V11.5741ZM51.9499 10.9241V13.7681H53.2499V10.9241H51.9499ZM52.5999 13.1181L37.6599 13.1181V14.4181L52.5999 14.4181V13.1181ZM37.0099 13.7681V21.9041H38.3099V13.7681L37.0099 13.7681ZM37.6599 22.5541H51.2319V21.2541H37.6599V22.5541ZM50.5819 21.9041V24.6401H51.8819V21.9041H50.5819ZM51.2319 23.9901H37.6599V25.2901H51.2319V23.9901ZM37.0099 24.6401V33.6761H38.3099V24.6401H37.0099ZM37.6599 34.3261L53.0319 34.3261V33.0261L37.6599 33.0261V34.3261ZM52.3819 33.6761V36.6641H53.6819V33.6761H52.3819ZM53.0319 36.0141L34.4199 36.0141V37.3141L53.0319 37.3141V36.0141ZM55.7344 36.6641H55.0844V37.3141H55.7344V36.6641ZM55.7344 10.9241V10.2741H55.0844V10.9241H55.7344ZM72.5824 13.4081L72.0849 13.8264L72.0889 13.8311L72.5824 13.4081ZM58.9744 25.8641V25.2141H58.3244V25.8641H58.9744ZM58.9744 36.6641V37.3141H59.6244V36.6641H58.9744ZM58.9744 13.7321V13.0821H58.3244V13.7321H58.9744ZM58.9744 23.2361H58.3244V23.8861H58.9744V23.2361ZM56.3844 36.6641L56.3844 10.9241H55.0844L55.0844 36.6641H56.3844ZM55.7344 11.5741L66.4624 11.5741V10.2741L55.7344 10.2741V11.5741ZM66.4624 11.5741C69.0154 11.5741 70.9026 12.4204 72.0849 13.8264L73.0799 12.9897C71.5982 11.2277 69.3095 10.2741 66.4624 10.2741V11.5741ZM72.0889 13.8311C73.0631 14.9676 73.6604 16.5076 73.6604 18.3041H74.9604C74.9604 16.2125 74.2618 14.3685 73.0759 12.985L72.0889 13.8311ZM73.6604 18.3041C73.6604 20.539 73.0234 22.236 71.8121 23.38C70.5951 24.5294 68.6998 25.2141 65.9944 25.2141V26.5141C68.905 26.5141 71.1678 25.7767 72.7047 24.3251C74.2474 22.8681 74.9604 20.7851 74.9604 18.3041H73.6604ZM65.9944 25.2141H58.9744V26.5141H65.9944V25.2141ZM58.3244 25.8641L58.3244 36.6641H59.6244L59.6244 25.8641H58.3244ZM58.9744 36.0141H55.7344V37.3141H58.9744V36.0141ZM58.3244 13.7321V23.2361H59.6244V13.7321L58.3244 13.7321ZM58.9744 23.8861H65.7424V22.5861H58.9744V23.8861ZM65.7424 23.8861C67.6627 23.8861 69.1857 23.4009 70.2316 22.4241C71.2841 21.441 71.7564 20.0509 71.7564 18.4481H70.4564C70.4564 19.7972 70.0647 20.8011 69.3442 21.474C68.6171 22.1532 67.4582 22.5861 65.7424 22.5861V23.8861ZM71.7564 18.4481C71.7564 16.7624 71.2323 15.3881 70.176 14.4443C69.1315 13.5112 67.659 13.0821 65.9224 13.0821V14.3821C67.4619 14.3821 68.5814 14.763 69.3099 15.4138C70.0265 16.0541 70.4564 17.0377 70.4564 18.4481H71.7564ZM65.9224 13.0821L58.9744 13.0821V14.3821L65.9224 14.3821V13.0821ZM76.3458 36.6641H75.6958V37.3141H76.3458V36.6641ZM76.3458 10.9241V10.2741H75.6958V10.9241H76.3458ZM80.4858 10.9241L81.0913 10.6876L80.9298 10.2741H80.4858V10.9241ZM88.8378 32.3081L88.2324 32.5445L88.3939 32.9581H88.8378V32.3081ZM88.9098 32.3081V32.9581H89.3552L89.516 32.5428L88.9098 32.3081ZM97.1898 10.9241V10.2741H96.7445L96.5837 10.6894L97.1898 10.9241ZM101.402 10.9241H102.052V10.2741H101.402V10.9241ZM101.402 36.6641V37.3141H102.052V36.6641H101.402ZM98.3058 36.6641H97.6558V37.3141H98.3058V36.6641ZM98.3058 15.4961H98.9558V14.8461H98.3058V15.4961ZM98.2338 15.4961V14.8461H97.768L97.6183 15.2872L98.2338 15.4961ZM97.0818 18.7361L97.6867 18.9741L97.689 18.9682L97.0818 18.7361ZM90.0258 36.6641V37.3141H90.4685L90.6307 36.9021L90.0258 36.6641ZM87.5418 36.6641L86.937 36.9021L87.0991 37.3141H87.5418V36.6641ZM80.4858 18.7361L79.88 18.9717L79.881 18.9741L80.4858 18.7361ZM79.3338 15.4961L79.9505 15.2905L79.8023 14.8461H79.3338V15.4961ZM79.2618 15.4961V14.8461H78.6118V15.4961H79.2618ZM79.2618 36.6641V37.3141H79.9118V36.6641H79.2618ZM76.9958 36.6641V10.9241H75.6958V36.6641H76.9958ZM76.3458 11.5741H80.4858V10.2741L76.3458 10.2741V11.5741ZM79.8804 11.1605L88.2324 32.5445L89.4433 32.0716L81.0913 10.6876L79.8804 11.1605ZM88.8378 32.9581H88.9098V31.6581H88.8378V32.9581ZM89.516 32.5428L97.796 11.1588L96.5837 10.6894L88.3037 32.0734L89.516 32.5428ZM97.1898 11.5741H101.402V10.2741H97.1898V11.5741ZM100.752 10.9241V36.6641H102.052V10.9241H100.752ZM101.402 36.0141H98.3058V37.3141H101.402V36.0141ZM98.9558 36.6641V15.4961H97.6558V36.6641H98.9558ZM98.3058 14.8461H98.2338V16.1461H98.3058V14.8461ZM98.2338 15.4961C97.6183 15.2872 97.6183 15.2872 97.6183 15.2872C97.6183 15.2872 97.6183 15.2873 97.6183 15.2873C97.6183 15.2873 97.6182 15.2874 97.6182 15.2875C97.6181 15.2878 97.618 15.2881 97.6178 15.2886C97.6175 15.2895 97.617 15.2909 97.6164 15.2928C97.6151 15.2966 97.6132 15.3022 97.6107 15.3097C97.6056 15.3246 97.5981 15.3467 97.5883 15.3752C97.5688 15.4324 97.5404 15.5155 97.5049 15.6192C97.4337 15.8265 97.334 16.1156 97.2197 16.4427C96.9905 17.0988 96.7051 17.9013 96.4747 18.5039L97.689 18.9682C97.9266 18.3468 98.2172 17.5293 98.447 16.8714C98.5622 16.5416 98.6627 16.2502 98.7344 16.0412C98.7703 15.9367 98.799 15.8528 98.8187 15.7949C98.8286 15.766 98.8362 15.7435 98.8414 15.7283C98.844 15.7207 98.846 15.7149 98.8473 15.711C98.848 15.709 98.8485 15.7075 98.8488 15.7065C98.849 15.706 98.8491 15.7056 98.8492 15.7053C98.8493 15.7052 98.8493 15.7051 98.8493 15.705C98.8493 15.705 98.8493 15.705 98.8494 15.7049C98.8494 15.7049 98.8494 15.7049 98.2338 15.4961ZM96.477 18.498L89.421 36.426L90.6307 36.9021L97.6867 18.9741L96.477 18.498ZM90.0258 36.0141H87.5418V37.3141H90.0258V36.0141ZM88.1467 36.426L81.0907 18.498L79.881 18.9741L86.937 36.9021L88.1467 36.426ZM81.0916 18.5005C80.8441 17.8639 80.5592 17.0631 80.3349 16.4169C80.223 16.0947 80.1268 15.8128 80.0586 15.6114C80.0245 15.5108 79.9974 15.4304 79.9788 15.3752C79.9696 15.3476 79.9624 15.3263 79.9576 15.312C79.9553 15.3048 79.9534 15.2994 79.9522 15.2958C79.9516 15.294 79.9512 15.2927 79.9509 15.2918C79.9507 15.2913 79.9506 15.291 79.9506 15.2908C79.9505 15.2907 79.9505 15.2906 79.9505 15.2906C79.9505 15.2905 79.9505 15.2905 79.9505 15.2905C79.9505 15.2905 79.9505 15.2905 79.3338 15.4961C78.7172 15.7016 78.7172 15.7016 78.7172 15.7017C78.7172 15.7017 78.7172 15.7017 78.7172 15.7017C78.7173 15.7018 78.7173 15.7019 78.7173 15.702C78.7174 15.7023 78.7175 15.7027 78.7177 15.7032C78.718 15.7042 78.7185 15.7056 78.7192 15.7076C78.7205 15.7114 78.7223 15.717 78.7248 15.7244C78.7298 15.7392 78.737 15.761 78.7465 15.7891C78.7654 15.8453 78.7928 15.9268 78.8273 16.0287C78.8964 16.2324 78.9937 16.5174 79.1068 16.8433C79.3324 17.4931 79.6236 18.3122 79.88 18.9717L81.0916 18.5005ZM79.3338 14.8461H79.2618V16.1461H79.3338V14.8461ZM78.6118 15.4961V36.6641H79.9118V15.4961H78.6118ZM79.2618 36.0141H76.3458V37.3141H79.2618V36.0141ZM103.097 36.6641L102.487 36.4397L102.165 37.3141H103.097V36.6641ZM112.565 10.9241V10.2741H112.111L111.955 10.6997L112.565 10.9241ZM116.201 10.9241L116.81 10.6989L116.654 10.2741H116.201V10.9241ZM125.705 36.6641V37.3141H126.638L126.314 36.4389L125.705 36.6641ZM122.177 36.6641L121.563 36.878L121.715 37.3141H122.177V36.6641ZM119.441 28.8161L120.054 28.6021L119.902 28.1661H119.441V28.8161ZM109.181 28.8161V28.1661H108.721L108.568 28.5996L109.181 28.8161ZM106.409 36.6641V37.3141H106.868L107.022 36.8805L106.409 36.6641ZM113.177 17.5481L113.789 17.7651L113.792 17.7581L113.177 17.5481ZM110.117 26.1881L109.504 25.9711L109.197 26.8381H110.117V26.1881ZM118.541 26.1881V26.8381H119.45L119.156 25.9779L118.541 26.1881ZM115.589 17.5481L116.204 17.3379L116.202 17.3333L115.589 17.5481ZM114.437 13.9121L115.06 13.7281L114.923 13.2621H114.437V13.9121ZM114.365 13.9121V13.2621H113.889L113.745 13.7158L114.365 13.9121ZM103.707 36.8885L113.175 11.1485L111.955 10.6997L102.487 36.4397L103.707 36.8885ZM112.565 11.5741L116.201 11.5741V10.2741L112.565 10.2741V11.5741ZM115.591 11.1492L125.095 36.8892L126.314 36.4389L116.81 10.6989L115.591 11.1492ZM125.705 36.0141H122.177V37.3141H125.705V36.0141ZM122.79 36.4501L120.054 28.6021L118.827 29.03L121.563 36.878L122.79 36.4501ZM119.441 28.1661H109.181V29.4661H119.441V28.1661ZM108.568 28.5996L105.796 36.4476L107.022 36.8805L109.794 29.0325L108.568 28.5996ZM106.409 36.0141H103.097V37.3141H106.409V36.0141ZM112.564 17.3311L109.504 25.9711L110.729 26.4051L113.789 17.7651L112.564 17.3311ZM110.117 26.8381H118.541V25.5381L110.117 25.5381V26.8381ZM119.156 25.9779L116.204 17.3379L114.974 17.7582L117.926 26.3982L119.156 25.9779ZM116.202 17.3333C115.954 16.6252 115.669 15.7257 115.445 14.9984C115.333 14.6357 115.237 14.3178 115.168 14.0906C115.134 13.9771 115.107 13.8862 115.088 13.8239C115.079 13.7927 115.072 13.7686 115.067 13.7524C115.065 13.7443 115.063 13.7382 115.062 13.7341C115.061 13.7321 115.061 13.7305 115.06 13.7295C115.06 13.729 115.06 13.7287 115.06 13.7284C115.06 13.7283 115.06 13.7282 115.06 13.7282C115.06 13.7281 115.06 13.7281 115.06 13.7281C115.06 13.7281 115.06 13.7281 114.437 13.9121C113.813 14.096 113.813 14.096 113.813 14.0961C113.813 14.0961 113.813 14.0961 113.813 14.0962C113.813 14.0962 113.813 14.0964 113.813 14.0965C113.813 14.0968 113.814 14.0972 113.814 14.0978C113.814 14.0989 113.815 14.1005 113.815 14.1027C113.816 14.107 113.818 14.1134 113.821 14.1217C113.826 14.1384 113.833 14.1629 113.842 14.1946C113.861 14.258 113.889 14.3499 113.923 14.4647C113.992 14.6943 114.089 15.0154 114.203 15.3818C114.428 16.1125 114.719 17.0309 114.975 17.7628L116.202 17.3333ZM114.437 13.2621H114.365V14.5621H114.437V13.2621ZM114.365 13.9121C113.745 13.7158 113.745 13.7158 113.745 13.7158C113.745 13.7159 113.745 13.7159 113.745 13.7159C113.745 13.716 113.745 13.7161 113.745 13.7162C113.745 13.7164 113.745 13.7168 113.744 13.7173C113.744 13.7183 113.744 13.7199 113.743 13.7219C113.742 13.726 113.74 13.7321 113.737 13.7401C113.732 13.7562 113.725 13.78 113.715 13.8109C113.695 13.8726 113.667 13.9625 113.631 14.075C113.559 14.3 113.458 14.6154 113.341 14.9768C113.107 15.7004 112.812 16.6053 112.562 17.338L113.792 17.7581C114.046 17.0148 114.344 16.1017 114.578 15.3763C114.695 15.0132 114.797 14.6964 114.869 14.4703C114.905 14.3572 114.934 14.2668 114.954 14.2046C114.964 14.1735 114.971 14.1495 114.976 14.1332C114.979 14.1251 114.981 14.1189 114.982 14.1147C114.983 14.1126 114.983 14.111 114.984 14.1099C114.984 14.1094 114.984 14.109 114.984 14.1087C114.984 14.1086 114.984 14.1085 114.984 14.1084C114.984 14.1084 114.984 14.1083 114.984 14.1083C114.984 14.1083 114.984 14.1083 114.365 13.9121ZM127.412 36.6641H126.762V37.3141H127.412V36.6641ZM127.412 10.9241V10.2741H126.762V10.9241H127.412ZM144.26 13.4081L143.763 13.8264L143.767 13.8311L144.26 13.4081ZM130.652 25.8641V25.2141H130.002V25.8641H130.652ZM130.652 36.6641V37.3141H131.302V36.6641H130.652ZM130.652 13.7321V13.0821H130.002V13.7321H130.652ZM130.652 23.2361H130.002V23.8861H130.652V23.2361ZM128.062 36.6641V10.9241H126.762V36.6641H128.062ZM127.412 11.5741L138.14 11.5741V10.2741L127.412 10.2741V11.5741ZM138.14 11.5741C140.693 11.5741 142.581 12.4204 143.763 13.8264L144.758 12.9897C143.276 11.2277 140.987 10.2741 138.14 10.2741V11.5741ZM143.767 13.8311C144.741 14.9676 145.338 16.5076 145.338 18.3041H146.638C146.638 16.2125 145.94 14.3685 144.754 12.985L143.767 13.8311ZM145.338 18.3041C145.338 20.539 144.701 22.236 143.49 23.38C142.273 24.5294 140.378 25.2141 137.672 25.2141V26.5141C140.583 26.5141 142.846 25.7767 144.383 24.3251C145.925 22.8681 146.638 20.7851 146.638 18.3041H145.338ZM137.672 25.2141H130.652V26.5141H137.672V25.2141ZM130.002 25.8641V36.6641H131.302V25.8641H130.002ZM130.652 36.0141L127.412 36.0141V37.3141L130.652 37.3141V36.0141ZM130.002 13.7321V23.2361H131.302V13.7321H130.002ZM130.652 23.8861H137.42V22.5861H130.652V23.8861ZM137.42 23.8861C139.341 23.8861 140.864 23.4009 141.91 22.4241C142.962 21.441 143.434 20.0509 143.434 18.4481H142.134C142.134 19.7972 141.743 20.8011 141.022 21.474C140.295 22.1532 139.136 22.5861 137.42 22.5861V23.8861ZM143.434 18.4481C143.434 16.7624 142.91 15.3881 141.854 14.4443C140.809 13.5112 139.337 13.0821 137.6 13.0821V14.3821C139.14 14.3821 140.259 14.763 140.988 15.4138C141.704 16.0541 142.134 17.0377 142.134 18.4481H143.434ZM137.6 13.0821L130.652 13.0821V14.3821L137.6 14.3821V13.0821Z" fill="#344899"/>
<path d="M54.7946 263.344H54.1446V263.994H54.7946V263.344ZM54.7946 237.604V236.954H54.1446V237.604H54.7946ZM71.6426 240.088L71.1451 240.506L71.1491 240.511L71.6426 240.088ZM58.0346 252.544V251.894H57.3846V252.544H58.0346ZM58.0346 263.344L58.0346 263.994H58.6846L58.6846 263.344H58.0346ZM58.0346 240.412V239.762H57.3846V240.412H58.0346ZM58.0346 249.916H57.3846V250.566H58.0346V249.916ZM55.4446 263.344L55.4446 237.604H54.1446L54.1446 263.344H55.4446ZM54.7946 238.254H65.5226V236.954H54.7946V238.254ZM65.5226 238.254C68.0755 238.254 69.9628 239.1 71.1451 240.506L72.1401 239.669C70.6584 237.907 68.3696 236.954 65.5226 236.954V238.254ZM71.1491 240.511C72.1232 241.647 72.7206 243.187 72.7206 244.984H74.0206C74.0206 242.892 73.3219 241.048 72.1361 239.665L71.1491 240.511ZM72.7206 244.984C72.7206 247.219 72.0836 248.916 70.8723 250.06C69.6552 251.209 67.76 251.894 65.0546 251.894V253.194C67.9652 253.194 70.2279 252.456 71.7649 251.005C73.3076 249.548 74.0206 247.465 74.0206 244.984H72.7206ZM65.0546 251.894H58.0346V253.194H65.0546V251.894ZM57.3846 252.544V263.344H58.6846V252.544H57.3846ZM58.0346 262.694H54.7946V263.994H58.0346L58.0346 262.694ZM57.3846 240.412V249.916H58.6846V240.412H57.3846ZM58.0346 250.566H64.8026V249.266H58.0346V250.566ZM64.8026 250.566C66.7228 250.566 68.2459 250.081 69.2918 249.104C70.3443 248.121 70.8166 246.731 70.8166 245.128H69.5166C69.5166 246.477 69.1249 247.481 68.4044 248.154C67.6773 248.833 66.5183 249.266 64.8026 249.266V250.566ZM70.8166 245.128C70.8166 243.442 70.2925 242.068 69.2361 241.124C68.1916 240.191 66.7191 239.762 64.9826 239.762V241.062C66.522 241.062 67.6415 241.443 68.37 242.093C69.0867 242.734 69.5166 243.717 69.5166 245.128H70.8166ZM64.9826 239.762H58.0346V241.062H64.9826V239.762ZM71.3852 263.344L70.7752 263.119L70.4536 263.994H71.3852V263.344ZM80.8532 237.604V236.954H80.3997L80.2432 237.379L80.8532 237.604ZM84.4892 237.604L85.099 237.379L84.9421 236.954H84.4892V237.604ZM93.9932 263.344V263.994H94.9261L94.603 263.119L93.9932 263.344ZM90.4652 263.344L89.8515 263.558L90.0035 263.994H90.4652V263.344ZM87.7292 255.496L88.343 255.282L88.191 254.846H87.7292V255.496ZM77.4692 255.496V254.846H77.0095L76.8563 255.279L77.4692 255.496ZM74.6972 263.344V263.994H75.157L75.3101 263.56L74.6972 263.344ZM81.4652 244.228L82.078 244.445L82.0804 244.438L81.4652 244.228ZM78.4052 252.868L77.7925 252.651L77.4855 253.518H78.4052V252.868ZM86.8292 252.868V253.518H87.7382L87.4443 252.658L86.8292 252.868ZM83.8772 244.228L84.4923 244.018L84.4907 244.013L83.8772 244.228ZM82.7252 240.592L83.3487 240.408L83.2111 239.942H82.7252V240.592ZM82.6532 240.592V239.942H82.1773L82.0336 240.396L82.6532 240.592ZM71.9953 263.568L81.4633 237.828L80.2432 237.379L70.7752 263.119L71.9953 263.568ZM80.8532 238.254H84.4892V236.954H80.8532V238.254ZM83.8795 237.829L93.3835 263.569L94.603 263.119L85.099 237.379L83.8795 237.829ZM93.9932 262.694H90.4652V263.994H93.9932V262.694ZM91.079 263.13L88.343 255.282L87.1155 255.71L89.8515 263.558L91.079 263.13ZM87.7292 254.846H77.4692V256.146H87.7292V254.846ZM76.8563 255.279L74.0843 263.127L75.3101 263.56L78.0821 255.712L76.8563 255.279ZM74.6972 262.694H71.3852V263.994H74.6972V262.694ZM80.8525 244.011L77.7925 252.651L79.0179 253.085L82.0779 244.445L80.8525 244.011ZM78.4052 253.518H86.8292V252.218H78.4052V253.518ZM87.4443 252.658L84.4923 244.018L83.2621 244.438L86.2141 253.078L87.4443 252.658ZM84.4907 244.013C84.2429 243.305 83.9578 242.405 83.7333 241.678C83.6214 241.315 83.5251 240.998 83.4569 240.77C83.4227 240.657 83.3956 240.566 83.3771 240.504C83.3678 240.472 83.3607 240.448 83.3559 240.432C83.3535 240.424 83.3516 240.418 83.3504 240.414C83.3498 240.412 83.3494 240.41 83.3491 240.409C83.3489 240.409 83.3488 240.408 83.3488 240.408C83.3487 240.408 83.3487 240.408 83.3487 240.408C83.3487 240.408 83.3487 240.408 83.3487 240.408C83.3487 240.408 83.3487 240.408 82.7252 240.592C82.1018 240.776 82.1018 240.776 82.1018 240.776C82.1018 240.776 82.1018 240.776 82.1019 240.776C82.1019 240.776 82.1019 240.776 82.1019 240.776C82.102 240.776 82.1022 240.777 82.1023 240.777C82.1027 240.779 82.1031 240.78 82.1038 240.782C82.1051 240.787 82.1069 240.793 82.1094 240.801C82.1143 240.818 82.1216 240.843 82.1311 240.874C82.1499 240.938 82.1774 241.03 82.2119 241.144C82.2808 241.374 82.3781 241.695 82.4911 242.061C82.7167 242.792 83.0076 243.711 83.2637 244.442L84.4907 244.013ZM82.7252 239.942H82.6532V241.242H82.7252V239.942ZM82.6532 240.592C82.0336 240.396 82.0336 240.396 82.0336 240.396C82.0336 240.396 82.0335 240.396 82.0335 240.396C82.0335 240.396 82.0335 240.396 82.0334 240.396C82.0334 240.396 82.0332 240.397 82.0331 240.397C82.0328 240.398 82.0323 240.4 82.0316 240.402C82.0303 240.406 82.0284 240.412 82.0259 240.42C82.0208 240.436 82.0132 240.46 82.0034 240.491C81.9838 240.552 81.9552 240.642 81.9193 240.755C81.8474 240.98 81.7464 241.295 81.6297 241.656C81.396 242.38 81.1003 243.285 80.8501 244.018L82.0804 244.438C82.3342 243.695 82.6325 242.781 82.8668 242.056C82.984 241.693 83.0855 241.376 83.1577 241.15C83.1938 241.037 83.2226 240.947 83.2423 240.884C83.2522 240.853 83.2598 240.829 83.265 240.813C83.2676 240.805 83.2696 240.799 83.2709 240.794C83.2715 240.792 83.272 240.791 83.2724 240.79C83.2726 240.789 83.2727 240.789 83.2728 240.788C83.2728 240.788 83.2728 240.788 83.2729 240.788C83.2729 240.788 83.2729 240.788 83.2729 240.788C83.2729 240.788 83.2729 240.788 82.6532 240.592ZM90.8466 240.448H90.1966V241.098H90.8466V240.448ZM90.8466 237.604V236.954H90.1966V237.604H90.8466ZM111.223 237.604H111.873V236.954H111.223V237.604ZM111.223 240.448V241.098H111.873V240.448H111.223ZM102.655 240.448V239.798H102.005V240.448H102.655ZM102.655 263.344V263.994H103.305V263.344H102.655ZM99.4146 263.344H98.7646V263.994H99.4146V263.344ZM99.4146 240.448H100.065V239.798H99.4146V240.448ZM91.4966 240.448V237.604H90.1966V240.448H91.4966ZM90.8466 238.254H111.223V236.954H90.8466V238.254ZM110.573 237.604V240.448H111.873V237.604H110.573ZM111.223 239.798H102.655V241.098H111.223V239.798ZM102.005 240.448V263.344H103.305V240.448H102.005ZM102.655 262.694H99.4146V263.994H102.655V262.694ZM100.065 263.344V240.448H98.7646V263.344H100.065ZM99.4146 239.798H90.8466V241.098H99.4146V239.798ZM113.431 263.344H112.781V263.994H113.431V263.344ZM113.431 237.604V236.954H112.781V237.604H113.431ZM116.671 237.604H117.321V236.954H116.671V237.604ZM116.671 263.344V263.994H117.321V263.344H116.671ZM114.081 263.344V237.604H112.781V263.344H114.081ZM113.431 238.254H116.671V236.954H113.431V238.254ZM116.021 237.604V263.344H117.321V237.604H116.021ZM116.671 262.694H113.431V263.994H116.671V262.694ZM120.471 263.344H119.821V263.994H120.471V263.344ZM120.471 237.604V236.954H119.821V237.604H120.471ZM138.651 237.604H139.301V236.954H138.651V237.604ZM138.651 240.448V241.098H139.301V240.448H138.651ZM123.711 240.448V239.798H123.061V240.448H123.711ZM123.711 248.584H123.061V249.234H123.711V248.584ZM137.283 248.584H137.933V247.934H137.283V248.584ZM137.283 251.32V251.97H137.933V251.32H137.283ZM123.711 251.32V250.67H123.061V251.32H123.711ZM123.711 260.356H123.061V261.006H123.711V260.356ZM139.083 260.356H139.733V259.706H139.083V260.356ZM139.083 263.344V263.994H139.733V263.344H139.083ZM121.121 263.344V237.604H119.821V263.344H121.121ZM120.471 238.254L138.651 238.254V236.954L120.471 236.954V238.254ZM138.001 237.604V240.448H139.301V237.604H138.001ZM138.651 239.798L123.711 239.798V241.098L138.651 241.098V239.798ZM123.061 240.448V248.584H124.361V240.448H123.061ZM123.711 249.234H137.283V247.934H123.711V249.234ZM136.633 248.584V251.32H137.933V248.584H136.633ZM137.283 250.67H123.711V251.97H137.283V250.67ZM123.061 251.32V260.356H124.361V251.32H123.061ZM123.711 261.006H139.083V259.706H123.711V261.006ZM138.433 260.356V263.344H139.733V260.356H138.433ZM139.083 262.694H120.471V263.994H139.083V262.694ZM141.785 263.344H141.135V263.994H141.785V263.344ZM141.785 237.604V236.954H141.135V237.604H141.785ZM145.205 237.604L145.749 237.247L145.556 236.954H145.205V237.604ZM156.941 255.496L157.487 255.142L157.485 255.139L156.941 255.496ZM158.813 258.808L158.234 259.103L158.415 259.458H158.813V258.808ZM158.885 258.808V259.458H159.535V258.808H158.885ZM158.885 237.604V236.954H158.235V237.604H158.885ZM161.909 237.604H162.559V236.954H161.909V237.604ZM161.909 263.344V263.994H162.559V263.344H161.909ZM158.597 263.344L158.054 263.701L158.247 263.994H158.597V263.344ZM146.789 245.416L146.246 245.773L146.246 245.773L146.789 245.416ZM144.881 242.212L145.449 241.896L145.264 241.562H144.881V242.212ZM144.809 242.212V241.562H144.159V242.212H144.809ZM144.809 263.344V263.994H145.459V263.344H144.809ZM142.435 263.344V237.604H141.135V263.344H142.435ZM141.785 238.254H145.205V236.954H141.785V238.254ZM144.662 237.96L156.398 255.852L157.485 255.139L145.749 237.247L144.662 237.96ZM156.396 255.849C156.814 256.494 157.273 257.305 157.63 257.962C157.808 258.289 157.96 258.575 158.066 258.779C158.12 258.881 158.162 258.962 158.19 259.018C158.205 259.046 158.216 259.067 158.223 259.081C158.227 259.089 158.23 259.094 158.231 259.098C158.232 259.099 158.233 259.101 158.233 259.102C158.234 259.102 158.234 259.102 158.234 259.102C158.234 259.103 158.234 259.103 158.234 259.103C158.234 259.103 158.234 259.103 158.234 259.103C158.234 259.103 158.234 259.103 158.813 258.808C159.392 258.513 159.392 258.513 159.392 258.513C159.392 258.513 159.392 258.513 159.392 258.513C159.392 258.513 159.392 258.512 159.392 258.512C159.392 258.512 159.392 258.512 159.392 258.511C159.391 258.51 159.39 258.508 159.389 258.506C159.387 258.502 159.384 258.497 159.38 258.489C159.372 258.474 159.361 258.451 159.346 258.422C159.316 258.364 159.273 258.281 159.218 258.176C159.109 257.967 158.954 257.675 158.772 257.341C158.41 256.675 157.932 255.829 157.487 255.142L156.396 255.849ZM158.813 259.458H158.885V258.158H158.813V259.458ZM159.535 258.808V237.604H158.235V258.808H159.535ZM158.885 238.254H161.909V236.954H158.885V238.254ZM161.259 237.604V263.344H162.559V237.604H161.259ZM161.909 262.694H158.597V263.994H161.909V262.694ZM159.14 262.986L147.332 245.058L146.246 245.773L158.054 263.701L159.14 262.986ZM147.332 245.059C146.929 244.444 146.459 243.656 146.087 243.015C145.902 242.696 145.742 242.416 145.629 242.215C145.572 242.115 145.527 242.035 145.496 241.98C145.481 241.953 145.469 241.932 145.461 241.917C145.457 241.91 145.454 241.905 145.452 241.901C145.451 241.899 145.451 241.898 145.45 241.897C145.45 241.897 145.45 241.897 145.45 241.896C145.449 241.896 145.449 241.896 145.449 241.896C145.449 241.896 145.449 241.896 145.449 241.896C145.449 241.896 145.449 241.896 144.881 242.212C144.313 242.527 144.313 242.527 144.313 242.527C144.313 242.527 144.313 242.528 144.313 242.528C144.313 242.528 144.313 242.528 144.313 242.528C144.313 242.528 144.314 242.529 144.314 242.529C144.314 242.53 144.315 242.532 144.316 242.533C144.319 242.537 144.322 242.543 144.326 242.55C144.334 242.565 144.346 242.587 144.362 242.615C144.394 242.672 144.44 242.753 144.497 242.855C144.612 243.059 144.774 243.343 144.963 243.668C145.337 244.314 145.822 245.127 146.246 245.773L147.332 245.059ZM144.881 241.562H144.809V242.862H144.881V241.562ZM144.159 242.212V263.344H145.459V242.212H144.159ZM144.809 262.694H141.785V263.994H144.809V262.694ZM164.046 240.448H163.396V241.098H164.046V240.448ZM164.046 237.604V236.954H163.396V237.604H164.046ZM184.422 237.604H185.072V236.954H184.422V237.604ZM184.422 240.448V241.098H185.072V240.448H184.422ZM175.854 240.448V239.798H175.204V240.448H175.854ZM175.854 263.344V263.994H176.504V263.344H175.854ZM172.614 263.344H171.964V263.994H172.614V263.344ZM172.614 240.448H173.264V239.798H172.614V240.448ZM164.696 240.448V237.604H163.396V240.448H164.696ZM164.046 238.254H184.422V236.954H164.046V238.254ZM183.772 237.604V240.448H185.072V237.604H183.772ZM184.422 239.798H175.854V241.098H184.422V239.798ZM175.204 240.448V263.344H176.504V240.448H175.204ZM175.854 262.694H172.614V263.994H175.854V262.694ZM173.264 263.344V240.448H171.964V263.344H173.264ZM172.614 239.798H164.046V241.098H172.614V239.798Z" fill="#344899"/>
<path d="M268.565 358.25H267.915V358.9H268.565V358.25ZM268.565 332.51V331.86H267.915V332.51H268.565ZM271.805 332.51H272.455V331.86H271.805V332.51ZM271.805 358.25V358.9H272.455V358.25H271.805ZM269.215 358.25V332.51H267.915V358.25H269.215ZM268.565 333.16H271.805V331.86H268.565V333.16ZM271.155 332.51V358.25H272.455V332.51H271.155ZM271.805 357.6H268.565V358.9H271.805V357.6ZM275.604 358.25H274.954V358.9H275.604V358.25ZM275.604 332.51V331.86H274.954V332.51H275.604ZM279.744 332.51L280.35 332.274L280.188 331.86H279.744V332.51ZM288.096 353.894L287.491 354.13L287.652 354.544H288.096V353.894ZM288.168 353.894V354.544H288.614L288.774 354.129L288.168 353.894ZM296.448 332.51V331.86H296.003L295.842 332.275L296.448 332.51ZM300.66 332.51H301.31V331.86H300.66V332.51ZM300.66 358.25V358.9H301.31V358.25H300.66ZM297.564 358.25H296.914V358.9H297.564V358.25ZM297.564 337.082H298.214V336.432H297.564V337.082ZM297.492 337.082V336.432H297.026L296.877 336.873L297.492 337.082ZM296.34 340.322L296.945 340.56L296.947 340.554L296.34 340.322ZM289.284 358.25V358.9H289.727L289.889 358.488L289.284 358.25ZM286.8 358.25L286.195 358.488L286.358 358.9H286.8V358.25ZM279.744 340.322L279.138 340.558L279.139 340.56L279.744 340.322ZM278.592 337.082L279.209 336.876L279.061 336.432H278.592V337.082ZM278.52 337.082V336.432H277.87V337.082H278.52ZM278.52 358.25V358.9H279.17V358.25H278.52ZM276.254 358.25V332.51H274.954V358.25H276.254ZM275.604 333.16H279.744V331.86H275.604V333.16ZM279.139 332.746L287.491 354.13L288.702 353.658L280.35 332.274L279.139 332.746ZM288.096 354.544H288.168V353.244H288.096V354.544ZM288.774 354.129L297.054 332.745L295.842 332.275L287.562 353.659L288.774 354.129ZM296.448 333.16H300.66V331.86H296.448V333.16ZM300.01 332.51V358.25H301.31V332.51H300.01ZM300.66 357.6H297.564V358.9H300.66V357.6ZM298.214 358.25V337.082H296.914V358.25H298.214ZM297.564 336.432H297.492V337.732H297.564V336.432ZM297.492 337.082C296.877 336.873 296.877 336.873 296.877 336.873C296.877 336.873 296.877 336.873 296.877 336.873C296.877 336.873 296.877 336.873 296.877 336.873C296.877 336.874 296.876 336.874 296.876 336.875C296.876 336.875 296.875 336.877 296.875 336.879C296.874 336.883 296.872 336.888 296.869 336.896C296.864 336.911 296.857 336.933 296.847 336.961C296.827 337.018 296.799 337.101 296.763 337.205C296.692 337.412 296.592 337.701 296.478 338.029C296.249 338.685 295.964 339.487 295.733 340.09L296.947 340.554C297.185 339.933 297.476 339.115 297.705 338.457C297.821 338.128 297.921 337.836 297.993 337.627C298.029 337.523 298.057 337.439 298.077 337.381C298.087 337.352 298.095 337.329 298.1 337.314C298.102 337.307 298.104 337.301 298.106 337.297C298.106 337.295 298.107 337.293 298.107 337.292C298.107 337.292 298.108 337.292 298.108 337.291C298.108 337.291 298.108 337.291 298.108 337.291C298.108 337.291 298.108 337.291 298.108 337.291C298.108 337.291 298.108 337.291 297.492 337.082ZM295.735 340.084L288.679 358.012L289.889 358.488L296.945 340.56L295.735 340.084ZM289.284 357.6H286.8V358.9H289.284V357.6ZM287.405 358.012L280.349 340.084L279.139 340.56L286.195 358.488L287.405 358.012ZM280.35 340.086C280.103 339.45 279.818 338.649 279.593 338.003C279.481 337.681 279.385 337.399 279.317 337.197C279.283 337.097 279.256 337.016 279.237 336.961C279.228 336.934 279.221 336.912 279.216 336.898C279.214 336.891 279.212 336.885 279.211 336.882C279.21 336.88 279.21 336.879 279.209 336.878C279.209 336.877 279.209 336.877 279.209 336.877C279.209 336.877 279.209 336.877 279.209 336.877C279.209 336.876 279.209 336.876 279.209 336.876C279.209 336.876 279.209 336.876 278.592 337.082C277.976 337.288 277.976 337.288 277.976 337.288C277.976 337.288 277.976 337.288 277.976 337.288C277.976 337.288 277.976 337.288 277.976 337.288C277.976 337.288 277.976 337.289 277.976 337.289C277.976 337.29 277.977 337.292 277.978 337.293C277.979 337.297 277.981 337.303 277.983 337.31C277.988 337.325 277.995 337.347 278.005 337.375C278.024 337.431 278.051 337.513 278.086 337.615C278.155 337.818 278.252 338.103 278.365 338.429C278.591 339.079 278.882 339.898 279.138 340.558L280.35 340.086ZM278.592 336.432H278.52V337.732H278.592V336.432ZM277.87 337.082V358.25H279.17V337.082H277.87ZM278.52 357.6H275.604V358.9H278.52V357.6ZM304.407 358.25H303.757V358.9H304.407V358.25ZM304.407 332.51V331.86H303.757V332.51H304.407ZM321.255 334.994L320.758 335.412L320.762 335.417L321.255 334.994ZM307.647 347.45V346.8H306.997V347.45H307.647ZM307.647 358.25V358.9H308.297V358.25H307.647ZM307.647 335.318V334.668H306.997V335.318H307.647ZM307.647 344.822H306.997V345.472H307.647V344.822ZM305.057 358.25V332.51H303.757V358.25H305.057ZM304.407 333.16H315.135V331.86H304.407V333.16ZM315.135 333.16C317.688 333.16 319.575 334.006 320.758 335.412L321.753 334.576C320.271 332.814 317.982 331.86 315.135 331.86V333.16ZM320.762 335.417C321.736 336.554 322.333 338.094 322.333 339.89H323.633C323.633 337.798 322.934 335.954 321.749 334.571L320.762 335.417ZM322.333 339.89C322.333 342.125 321.696 343.822 320.485 344.966C319.268 346.115 317.372 346.8 314.667 346.8V348.1C317.578 348.1 319.84 347.363 321.377 345.911C322.92 344.454 323.633 342.371 323.633 339.89H322.333ZM314.667 346.8H307.647V348.1H314.667V346.8ZM306.997 347.45V358.25H308.297V347.45H306.997ZM307.647 357.6H304.407V358.9H307.647V357.6ZM306.997 335.318V344.822H308.297V335.318H306.997ZM307.647 345.472H314.415V344.172H307.647V345.472ZM314.415 345.472C316.335 345.472 317.858 344.987 318.904 344.01C319.957 343.027 320.429 341.637 320.429 340.034H319.129C319.129 341.383 318.737 342.387 318.017 343.06C317.29 343.739 316.131 344.172 314.415 344.172V345.472ZM320.429 340.034C320.429 338.348 319.905 336.974 318.849 336.03C317.804 335.097 316.332 334.668 314.595 334.668V335.968C316.135 335.968 317.254 336.349 317.983 337C318.699 337.64 319.129 338.624 319.129 340.034H320.429ZM314.595 334.668H307.647V335.968H314.595V334.668ZM320.998 358.25L320.388 358.026L320.066 358.9H320.998V358.25ZM330.466 332.51V331.86H330.012L329.856 332.286L330.466 332.51ZM334.102 332.51L334.711 332.285L334.555 331.86H334.102V332.51ZM343.606 358.25V358.9H344.539L344.215 358.025L343.606 358.25ZM340.078 358.25L339.464 358.464L339.616 358.9H340.078V358.25ZM337.342 350.402L337.956 350.188L337.803 349.752H337.342V350.402ZM327.082 350.402V349.752H326.622L326.469 350.186L327.082 350.402ZM324.31 358.25V358.9H324.77L324.923 358.466L324.31 358.25ZM331.078 339.134L331.69 339.351L331.693 339.344L331.078 339.134ZM328.018 347.774L327.405 347.557L327.098 348.424H328.018V347.774ZM336.442 347.774V348.424H337.351L337.057 347.564L336.442 347.774ZM333.49 339.134L334.105 338.924L334.103 338.919L333.49 339.134ZM332.338 335.498L332.961 335.314L332.824 334.848H332.338V335.498ZM332.266 335.498V334.848H331.79L331.646 335.302L332.266 335.498ZM321.608 358.474L331.076 332.734L329.856 332.286L320.388 358.026L321.608 358.474ZM330.466 333.16H334.102V331.86H330.466V333.16ZM333.492 332.735L342.996 358.475L344.215 358.025L334.711 332.285L333.492 332.735ZM343.606 357.6H340.078V358.9H343.606V357.6ZM340.692 358.036L337.956 350.188L336.728 350.616L339.464 358.464L340.692 358.036ZM337.342 349.752H327.082V351.052H337.342V349.752ZM326.469 350.186L323.697 358.034L324.923 358.466L327.695 350.618L326.469 350.186ZM324.31 357.6H320.998V358.9H324.31V357.6ZM330.465 338.917L327.405 347.557L328.63 347.991L331.69 339.351L330.465 338.917ZM328.018 348.424H336.442V347.124H328.018V348.424ZM337.057 347.564L334.105 338.924L332.875 339.344L335.827 347.984L337.057 347.564ZM334.103 338.919C333.855 338.211 333.57 337.312 333.346 336.584C333.234 336.222 333.138 335.904 333.069 335.677C333.035 335.563 333.008 335.472 332.99 335.41C332.98 335.379 332.973 335.355 332.968 335.338C332.966 335.33 332.964 335.324 332.963 335.32C332.962 335.318 332.962 335.316 332.962 335.315C332.961 335.315 332.961 335.315 332.961 335.314C332.961 335.314 332.961 335.314 332.961 335.314C332.961 335.314 332.961 335.314 332.961 335.314C332.961 335.314 332.961 335.314 332.338 335.498C331.714 335.682 331.714 335.682 331.714 335.682C331.714 335.682 331.714 335.682 331.714 335.682C331.714 335.682 331.714 335.682 331.714 335.682C331.715 335.683 331.715 335.683 331.715 335.684C331.715 335.685 331.716 335.686 331.716 335.689C331.718 335.693 331.719 335.699 331.722 335.708C331.727 335.724 331.734 335.749 331.744 335.781C331.762 335.844 331.79 335.936 331.824 336.051C331.893 336.28 331.991 336.601 332.104 336.968C332.329 337.698 332.62 338.617 332.876 339.349L334.103 338.919ZM332.338 334.848H332.266V336.148H332.338V334.848ZM332.266 335.498C331.646 335.302 331.646 335.302 331.646 335.302C331.646 335.302 331.646 335.302 331.646 335.302C331.646 335.302 331.646 335.302 331.646 335.302C331.646 335.302 331.646 335.303 331.646 335.303C331.645 335.304 331.645 335.306 331.644 335.308C331.643 335.312 331.641 335.318 331.638 335.326C331.633 335.342 331.626 335.366 331.616 335.397C331.596 335.459 331.568 335.548 331.532 335.661C331.46 335.886 331.359 336.201 331.242 336.563C331.008 337.286 330.713 338.191 330.463 338.924L331.693 339.344C331.947 338.601 332.245 337.688 332.479 336.962C332.597 336.599 332.698 336.282 332.77 336.056C332.806 335.943 332.835 335.853 332.855 335.791C332.865 335.759 332.872 335.735 332.878 335.719C332.88 335.711 332.882 335.705 332.883 335.701C332.884 335.699 332.885 335.697 332.885 335.696C332.885 335.695 332.885 335.695 332.885 335.695C332.885 335.695 332.885 335.694 332.885 335.694C332.885 335.694 332.885 335.694 332.885 335.694C332.885 335.694 332.885 335.694 332.266 335.498ZM365.612 340.142V340.792H366.362L366.255 340.049L365.612 340.142ZM362.444 340.142L361.805 340.264L361.906 340.792H362.444V340.142ZM362.732 348.818V348.168H362.135L362.084 348.762L362.732 348.818ZM365.936 348.818L366.586 348.827L366.595 348.168H365.936V348.818ZM362.84 356.054L363.295 356.518L363.295 356.518L362.84 356.054ZM355.136 358.104C351.658 358.104 348.824 356.782 346.852 354.556C344.874 352.324 343.726 349.138 343.726 345.362H342.426C342.426 349.398 343.654 352.908 345.879 355.419C348.11 357.936 351.306 359.404 355.136 359.404V358.104ZM343.726 345.362C343.726 341.708 344.822 338.512 346.793 336.239C348.756 333.976 351.625 332.584 355.28 332.584V331.284C351.267 331.284 348.033 332.826 345.811 335.387C343.598 337.938 342.426 341.456 342.426 345.362H343.726ZM355.28 332.584C358.159 332.584 360.416 333.41 362.027 334.755C363.638 336.1 364.647 338.001 364.968 340.235L366.255 340.049C365.893 337.531 364.742 335.328 362.86 333.757C360.979 332.186 358.413 331.284 355.28 331.284V332.584ZM365.612 339.492H362.444V340.792H365.612V339.492ZM363.082 340.02C362.749 338.276 361.88 336.782 360.52 335.727C359.163 334.674 357.36 334.092 355.208 334.092V335.392C357.124 335.392 358.633 335.908 359.723 336.754C360.812 337.598 361.526 338.804 361.805 340.264L363.082 340.02ZM355.208 334.092C352.187 334.092 349.793 335.323 348.168 337.381C346.557 339.423 345.738 342.232 345.738 345.362H347.038C347.038 342.444 347.803 339.943 349.189 338.187C350.561 336.447 352.576 335.392 355.208 335.392V334.092ZM345.738 345.362C345.738 348.628 346.643 351.423 348.305 353.415C349.977 355.418 352.376 356.56 355.244 356.56V355.26C352.748 355.26 350.719 354.278 349.303 352.582C347.879 350.875 347.038 348.396 347.038 345.362H345.738ZM355.244 356.56C357.834 356.56 359.803 355.671 361.162 354.227C362.51 352.795 363.208 350.872 363.379 348.874L362.084 348.762C361.932 350.544 361.316 352.167 360.216 353.336C359.127 354.493 357.514 355.26 355.244 355.26V356.56ZM362.732 349.468H365.936V348.168H362.732V349.468ZM365.286 348.809C365.252 351.194 364.098 353.911 362.385 355.59L363.295 356.518C365.254 354.597 366.547 351.554 366.586 348.827L365.286 348.809ZM362.385 355.59C360.737 357.204 358.291 358.104 355.136 358.104V359.404C358.533 359.404 361.342 358.432 363.295 356.518L362.385 355.59ZM365.957 335.354H365.307V336.004H365.957V335.354ZM365.957 332.51V331.86H365.307V332.51H365.957ZM386.333 332.51H386.983V331.86H386.333V332.51ZM386.333 335.354V336.004H386.983V335.354H386.333ZM377.765 335.354V334.704H377.115V335.354H377.765ZM377.765 358.25V358.9H378.415V358.25H377.765ZM374.525 358.25H373.875V358.9H374.525V358.25ZM374.525 335.354H375.175V334.704H374.525V335.354ZM366.607 335.354V332.51H365.307V335.354H366.607ZM365.957 333.16H386.333V331.86H365.957V333.16ZM385.683 332.51V335.354H386.983V332.51H385.683ZM386.333 334.704H377.765V336.004H386.333V334.704ZM377.115 335.354V358.25H378.415V335.354H377.115ZM377.765 357.6H374.525V358.9H377.765V357.6ZM375.175 358.25V335.354H373.875V358.25H375.175ZM374.525 334.704H365.957V336.004H374.525V334.704Z" fill="#344899"/>
</svg>
