<svg width="397" height="388" viewBox="0 0 397 388" fill="none" xmlns="http://www.w3.org/2000/svg">
<g clip-path="url(#clip0_1219_607)">
<rect width="397" height="388" fill="#DA2F62"/>
<mask id="mask0_1219_607" style="mask-type:luminance" maskUnits="userSpaceOnUse" x="10" y="44" width="788" height="328">
<path d="M797.669 44.6719H10V371.492H797.669V44.6719Z" fill="white"/>
</mask>
<g mask="url(#mask0_1219_607)">
<path d="M363.085 369.567C363.085 368.503 363.951 367.637 365.023 367.637C366.087 367.637 366.953 368.503 366.953 369.567C366.953 370.631 366.087 371.497 365.023 371.497C363.951 371.497 363.085 370.631 363.085 369.567ZM351.58 369.567C351.58 368.503 352.439 367.637 353.51 367.637C354.574 367.637 355.44 368.503 355.44 369.567C355.44 370.631 354.574 371.497 353.51 371.497C352.439 371.497 351.58 370.631 351.58 369.567ZM340.067 369.567C340.067 368.503 340.934 367.637 341.998 367.637C343.069 367.637 343.928 368.503 343.928 369.567C343.928 370.631 343.069 371.497 341.998 371.497C340.934 371.497 340.067 370.631 340.067 369.567ZM328.562 369.567C328.562 368.503 329.421 367.637 330.493 367.637C331.557 367.637 332.423 368.503 332.423 369.567C332.423 370.631 331.557 371.497 330.493 371.497C329.421 371.497 328.562 370.631 328.562 369.567ZM317.05 369.567C317.05 368.503 317.916 367.637 318.98 367.637C320.052 367.637 320.91 368.503 320.91 369.567C320.91 370.631 320.052 371.497 318.98 371.497C317.916 371.497 317.05 370.631 317.05 369.567ZM305.537 369.567C305.537 368.503 306.404 367.637 307.468 367.637C308.539 367.637 309.405 368.503 309.405 369.567C309.405 370.631 308.539 371.497 307.468 371.497C306.404 371.497 305.537 370.631 305.537 369.567ZM294.032 369.567C294.032 368.503 294.899 367.637 295.963 367.637C297.026 367.637 297.893 368.503 297.893 369.567C297.893 370.631 297.026 371.497 295.963 371.497C294.899 371.497 294.032 370.631 294.032 369.567ZM282.52 369.567C282.52 368.503 283.386 367.637 284.45 367.637C285.521 367.637 286.38 368.503 286.38 369.567C286.38 370.631 285.521 371.497 284.45 371.497C283.386 371.497 282.52 370.631 282.52 369.567ZM271.015 369.567C271.015 368.503 271.874 367.637 272.945 367.637C274.009 367.637 274.875 368.503 274.875 369.567C274.875 370.631 274.009 371.497 272.945 371.497C271.874 371.497 271.015 370.631 271.015 369.567ZM259.502 369.567C259.502 368.503 260.369 367.637 261.432 367.637C262.504 367.637 263.363 368.503 263.363 369.567C263.363 370.631 262.504 371.497 261.432 371.497C260.369 371.497 259.502 370.631 259.502 369.567ZM247.99 369.567C247.99 368.503 248.856 367.637 249.927 367.637C250.991 367.637 251.858 368.503 251.858 369.567C251.858 370.631 250.991 371.497 249.927 371.497C248.856 371.497 247.99 370.631 247.99 369.567ZM236.485 369.567C236.485 368.503 237.343 367.637 238.415 367.637C239.479 367.637 240.345 368.503 240.345 369.567C240.345 370.631 239.479 371.497 238.415 371.497C237.343 371.497 236.485 370.631 236.485 369.567ZM224.972 369.567C224.972 368.503 225.838 367.637 226.902 367.637C227.974 367.637 228.832 368.503 228.832 369.567C228.832 370.631 227.974 371.497 226.902 371.497C225.838 371.497 224.972 370.631 224.972 369.567ZM213.467 369.567C213.467 368.503 214.326 367.637 215.397 367.637C216.461 367.637 217.327 368.503 217.327 369.567C217.327 370.631 216.461 371.497 215.397 371.497C214.326 371.497 213.467 370.631 213.467 369.567ZM201.955 369.567C201.955 368.503 202.821 367.637 203.885 367.637C204.956 367.637 205.815 368.503 205.815 369.567C205.815 370.631 204.956 371.497 203.885 371.497C202.821 371.497 201.955 370.631 201.955 369.567ZM190.442 369.567C190.442 368.503 191.308 367.637 192.372 367.637C193.444 367.637 194.31 368.503 194.31 369.567C194.31 370.631 193.444 371.497 192.372 371.497C191.308 371.497 190.442 370.631 190.442 369.567ZM178.937 369.567C178.937 368.503 179.803 367.637 180.867 367.637C181.931 367.637 182.797 368.503 182.797 369.567C182.797 370.631 181.931 371.497 180.867 371.497C179.803 371.497 178.937 370.631 178.937 369.567ZM167.424 369.567C167.424 368.503 168.291 367.637 169.355 367.637C170.426 367.637 171.285 368.503 171.285 369.567C171.285 370.631 170.426 371.497 169.355 371.497C168.291 371.497 167.424 370.631 167.424 369.567ZM155.919 369.567C155.919 368.503 156.778 367.637 157.85 367.637C158.914 367.637 159.78 368.503 159.78 369.567C159.78 370.631 158.914 371.497 157.85 371.497C156.778 371.497 155.919 370.631 155.919 369.567ZM144.407 369.567C144.407 368.503 145.273 367.637 146.337 367.637C147.409 367.637 148.267 368.503 148.267 369.567C148.267 370.631 147.409 371.497 146.337 371.497C145.273 371.497 144.407 370.631 144.407 369.567ZM132.894 369.567C132.894 368.503 133.761 367.637 134.832 367.637C135.896 367.637 136.762 368.503 136.762 369.567C136.762 370.631 135.896 371.497 134.832 371.497C133.761 371.497 132.894 370.631 132.894 369.567ZM121.389 369.567C121.389 368.503 122.248 367.637 123.32 367.637C124.383 367.637 125.25 368.503 125.25 369.567C125.25 370.631 124.383 371.497 123.32 371.497C122.248 371.497 121.389 370.631 121.389 369.567ZM109.877 369.567C109.877 368.503 110.743 367.637 111.807 367.637C112.878 367.637 113.737 368.503 113.737 369.567C113.737 370.631 112.878 371.497 111.807 371.497C110.743 371.497 109.877 370.631 109.877 369.567ZM98.3718 369.567C98.3718 368.503 99.2305 367.637 100.302 367.637C101.366 367.637 102.232 368.503 102.232 369.567C102.232 370.631 101.366 371.497 100.302 371.497C99.2305 371.497 98.3718 370.631 98.3718 369.567ZM86.8592 369.567C86.8592 368.503 87.7255 367.637 88.7894 367.637C89.8609 367.637 90.7196 368.503 90.7196 369.567C90.7196 370.631 89.8609 371.497 88.7894 371.497C87.7255 371.497 86.8592 370.631 86.8592 369.567ZM75.3467 369.567C75.3467 368.503 76.213 367.637 77.2768 367.637C78.3483 367.637 79.2146 368.503 79.2146 369.567C79.2146 370.631 78.3483 371.497 77.2768 371.497C76.213 371.497 75.3467 370.631 75.3467 369.567Z" fill="#292D74"/>
<path d="M53.3552 370.117C52.3141 369.881 51.6606 368.848 51.8962 367.806C52.1317 366.765 53.1728 366.112 54.2063 366.347C55.2473 366.583 55.9009 367.624 55.6653 368.665C55.4601 369.562 54.6622 370.162 53.7807 370.162C53.6439 370.162 53.4996 370.147 53.3552 370.117ZM41.5614 365.99C40.604 365.527 40.2012 364.372 40.6647 363.414C41.1283 362.457 42.2833 362.054 43.2408 362.518C44.2059 362.973 44.6087 364.129 44.1451 365.094C43.8108 365.785 43.1192 366.188 42.4049 366.188C42.1238 366.188 41.835 366.119 41.5614 365.99ZM30.9987 359.341C30.1628 358.672 30.0261 357.457 30.6948 356.628C31.3559 355.792 32.5717 355.656 33.4076 356.324C34.2435 356.985 34.3803 358.201 33.7116 359.037C33.3317 359.516 32.7693 359.759 32.1994 359.759C31.7814 359.759 31.3559 359.622 30.9987 359.341ZM22.1686 350.511C21.5075 349.683 21.6367 348.467 22.4726 347.798C23.3085 347.137 24.5243 347.266 25.1855 348.102C25.8542 348.938 25.7174 350.154 24.8815 350.815C24.5243 351.104 24.0988 351.241 23.6808 351.241C23.1109 351.241 22.5486 350.99 22.1686 350.511ZM15.5195 339.948C15.0559 338.983 15.4587 337.836 16.4161 337.372C17.3812 336.909 18.5363 337.311 18.9998 338.269C19.4634 339.226 19.0606 340.381 18.1031 340.845C17.8296 340.982 17.5484 341.043 17.2672 341.043C16.5453 341.043 15.8614 340.64 15.5271 339.948H15.5195ZM11.3932 328.162C11.1576 327.121 11.8035 326.088 12.8446 325.852C13.8857 325.609 14.9191 326.262 15.1623 327.303C15.3979 328.345 14.7444 329.378 13.7033 329.614C13.5589 329.652 13.4145 329.667 13.2701 329.667C12.3886 329.667 11.5983 329.059 11.3932 328.162Z" fill="#292D74"/>
<path d="M10.0029 315.738C10.0029 314.667 10.8692 313.808 11.9331 313.808C13.0046 313.808 13.8633 314.667 13.8633 315.738C13.8633 316.802 13.0046 317.668 11.9331 317.668C10.8692 317.668 10.0029 316.802 10.0029 315.738Z" fill="#292D74"/>
<path d="M12.8446 305.641C11.8035 305.406 11.1576 304.372 11.3932 303.331C11.6287 302.29 12.6622 301.637 13.7033 301.872C14.7444 302.115 15.3903 303.149 15.1547 304.19C14.9571 305.086 14.1592 305.687 13.2777 305.687C13.1334 305.687 12.989 305.672 12.8446 305.641ZM16.4161 294.121C15.4511 293.658 15.0483 292.502 15.5119 291.545C15.9754 290.58 17.1305 290.177 18.0955 290.641C19.053 291.104 19.4558 292.259 18.9922 293.217C18.6579 293.908 17.974 294.311 17.252 294.311C16.9709 294.311 16.6821 294.25 16.4161 294.121ZM22.4726 283.688C21.6367 283.026 21.4999 281.811 22.1686 280.975C22.8298 280.139 24.0456 280.002 24.8815 280.671C25.7174 281.339 25.8542 282.555 25.1855 283.384C24.8055 283.862 24.2432 284.113 23.6732 284.113C23.2477 284.113 22.8222 283.976 22.4726 283.688ZM30.6872 274.865C30.0261 274.029 30.1628 272.813 30.9911 272.145C31.827 271.483 33.0429 271.62 33.704 272.449C34.3727 273.284 34.2359 274.5 33.4 275.161C33.0505 275.45 32.6249 275.587 32.1994 275.587C31.6295 275.587 31.0671 275.336 30.6872 274.865ZM40.6571 268.071C40.1936 267.114 40.5964 265.959 41.5614 265.495C42.5189 265.032 43.674 265.435 44.1375 266.392C44.6011 267.357 44.1983 268.512 43.2408 268.976C42.9673 269.105 42.6785 269.166 42.3973 269.166C41.683 269.166 40.9915 268.763 40.6571 268.071ZM51.8886 263.679C51.653 262.638 52.3065 261.605 53.3476 261.369C54.3886 261.134 55.4221 261.787 55.6577 262.828C55.8933 263.862 55.2397 264.903 54.1987 265.138C54.0543 265.169 53.9175 265.184 53.7731 265.184C52.8916 265.184 52.0937 264.576 51.8886 263.679Z" fill="#292D74"/>
<path d="M195.024 261.926C195.024 260.855 195.89 259.996 196.954 259.996C198.026 259.996 198.884 260.855 198.884 261.926C198.884 262.99 198.026 263.856 196.954 263.856C195.89 263.856 195.024 262.99 195.024 261.926ZM183.094 261.926C183.094 260.855 183.96 259.996 185.024 259.996C186.095 259.996 186.961 260.855 186.961 261.926C186.961 262.99 186.095 263.856 185.024 263.856C183.96 263.856 183.094 262.99 183.094 261.926ZM171.171 261.926C171.171 260.855 172.037 259.996 173.101 259.996C174.172 259.996 175.031 260.855 175.031 261.926C175.031 262.99 174.172 263.856 173.101 263.856C172.037 263.856 171.171 262.99 171.171 261.926ZM159.24 261.926C159.24 260.855 160.106 259.996 161.17 259.996C162.242 259.996 163.108 260.855 163.108 261.926C163.108 262.99 162.242 263.856 161.17 263.856C160.106 263.856 159.24 262.99 159.24 261.926ZM147.317 261.926C147.317 260.855 148.183 259.996 149.247 259.996C150.311 259.996 151.177 260.855 151.177 261.926C151.177 262.99 150.311 263.856 149.247 263.856C148.183 263.856 147.317 262.99 147.317 261.926ZM135.387 261.926C135.387 260.855 136.253 259.996 137.324 259.996C138.388 259.996 139.255 260.855 139.255 261.926C139.255 262.99 138.388 263.856 137.324 263.856C136.253 263.856 135.387 262.99 135.387 261.926ZM123.464 261.926C123.464 260.855 124.33 259.996 125.394 259.996C126.458 259.996 127.324 260.855 127.324 261.926C127.324 262.99 126.458 263.856 125.394 263.856C124.33 263.856 123.464 262.99 123.464 261.926ZM111.533 261.926C111.533 260.855 112.4 259.996 113.471 259.996C114.535 259.996 115.401 260.855 115.401 261.926C115.401 262.99 114.535 263.856 113.471 263.856C112.4 263.856 111.533 262.99 111.533 261.926ZM99.6103 261.926C99.6103 260.855 100.477 259.996 101.54 259.996C102.604 259.996 103.471 260.855 103.471 261.926C103.471 262.99 102.604 263.856 101.54 263.856C100.477 263.856 99.6103 262.99 99.6103 261.926ZM87.6798 261.926C87.6798 260.855 88.546 259.996 89.6175 259.996C90.6814 259.996 91.5477 260.855 91.5477 261.926C91.5477 262.99 90.6814 263.856 89.6175 263.856C88.546 263.856 87.6798 262.99 87.6798 261.926ZM75.7568 261.926C75.7568 260.855 76.6231 259.996 77.687 259.996C78.7509 259.996 79.6172 260.855 79.6172 261.926C79.6172 262.99 78.7509 263.856 77.687 263.856C76.6231 263.856 75.7568 262.99 75.7568 261.926Z" fill="#292D74"/>
<path d="M326.111 260.955C325.875 259.914 326.521 258.881 327.562 258.645C328.603 258.402 329.637 259.056 329.88 260.097C330.116 261.138 329.462 262.171 328.421 262.407C328.277 262.445 328.132 262.46 327.988 262.46C327.106 262.46 326.316 261.852 326.111 260.955ZM337.631 257.384C337.168 256.426 337.57 255.271 338.528 254.808C339.493 254.344 340.648 254.747 341.111 255.704C341.575 256.669 341.172 257.817 340.207 258.288C339.941 258.417 339.652 258.478 339.371 258.478C338.657 258.478 337.965 258.075 337.631 257.384ZM348.065 251.327C347.396 250.491 347.533 249.283 348.369 248.614C349.197 247.946 350.413 248.082 351.081 248.918C351.743 249.754 351.606 250.97 350.777 251.631C350.42 251.92 349.995 252.057 349.569 252.057C349.007 252.057 348.445 251.806 348.065 251.327ZM356.887 243.113C356.059 242.444 355.922 241.228 356.583 240.4C357.252 239.564 358.468 239.427 359.304 240.088C360.132 240.757 360.269 241.973 359.6 242.809C359.22 243.287 358.665 243.531 358.095 243.531C357.67 243.531 357.244 243.394 356.887 243.113ZM363.681 233.143C362.716 232.679 362.313 231.524 362.776 230.559C363.24 229.602 364.395 229.199 365.352 229.662C366.318 230.126 366.72 231.281 366.257 232.238C365.922 232.93 365.231 233.333 364.517 233.333C364.235 233.333 363.947 233.272 363.681 233.143ZM368.073 221.911C367.032 221.676 366.378 220.635 366.614 219.594C366.849 218.553 367.891 217.907 368.924 218.142C369.965 218.378 370.619 219.411 370.383 220.452C370.178 221.349 369.38 221.957 368.498 221.957C368.362 221.957 368.217 221.942 368.073 221.911Z" fill="#292D74"/>
<path d="M366.622 196.533C366.379 195.492 367.032 194.458 368.073 194.223C369.114 193.987 370.148 194.633 370.383 195.674C370.619 196.715 369.973 197.749 368.932 197.984C368.787 198.022 368.643 198.037 368.499 198.037C367.617 198.037 366.819 197.429 366.622 196.533ZM362.784 185.567C362.321 184.602 362.723 183.447 363.681 182.984C364.638 182.52 365.793 182.93 366.257 183.888C366.721 184.845 366.318 186.001 365.36 186.464C365.087 186.593 364.798 186.662 364.517 186.662C363.802 186.662 363.111 186.259 362.784 185.567ZM356.591 175.734C355.922 174.898 356.059 173.682 356.895 173.014C357.723 172.353 358.947 172.489 359.608 173.318C360.277 174.154 360.14 175.369 359.304 176.031C358.947 176.319 358.521 176.456 358.096 176.456C357.533 176.456 356.971 176.205 356.591 175.734ZM348.369 167.512C347.541 166.843 347.404 165.627 348.065 164.799C348.734 163.963 349.949 163.826 350.778 164.495C351.614 165.156 351.75 166.372 351.082 167.208C350.702 167.687 350.139 167.93 349.577 167.93C349.152 167.93 348.726 167.793 348.369 167.512ZM338.536 161.319C337.578 160.855 337.175 159.7 337.639 158.743C338.102 157.778 339.258 157.375 340.215 157.838C341.172 158.302 341.583 159.457 341.119 160.422C340.785 161.106 340.093 161.509 339.379 161.509C339.09 161.509 338.809 161.448 338.536 161.319ZM327.57 157.481C326.529 157.246 325.883 156.212 326.119 155.171C326.354 154.13 327.388 153.477 328.429 153.712C329.47 153.955 330.116 154.989 329.88 156.03C329.683 156.927 328.885 157.534 328.003 157.534C327.859 157.534 327.715 157.512 327.57 157.481Z" fill="#292D74"/>
<path d="M195.032 154.26C195.032 153.196 195.89 152.33 196.962 152.33C198.026 152.33 198.892 153.196 198.892 154.26C198.892 155.324 198.026 156.19 196.962 156.19C195.89 156.19 195.032 155.324 195.032 154.26ZM183.101 154.26C183.101 153.196 183.967 152.33 185.031 152.33C186.103 152.33 186.961 153.196 186.961 154.26C186.961 155.324 186.103 156.19 185.031 156.19C183.967 156.19 183.101 155.324 183.101 154.26ZM171.178 154.26C171.178 153.196 172.037 152.33 173.108 152.33C174.172 152.33 175.039 153.196 175.039 154.26C175.039 155.324 174.172 156.19 173.108 156.19C172.037 156.19 171.178 155.324 171.178 154.26ZM159.248 154.26C159.248 153.196 160.114 152.33 161.178 152.33C162.242 152.33 163.108 153.196 163.108 154.26C163.108 155.324 162.242 156.19 161.178 156.19C160.114 156.19 159.248 155.324 159.248 154.26ZM147.325 154.26C147.325 153.196 148.183 152.33 149.255 152.33C150.319 152.33 151.185 153.196 151.185 154.26C151.185 155.324 150.319 156.19 149.255 156.19C148.183 156.19 147.325 155.324 147.325 154.26ZM135.394 154.26C135.394 153.196 136.261 152.33 137.324 152.33C138.388 152.33 139.255 153.196 139.255 154.26C139.255 155.324 138.388 156.19 137.324 156.19C136.261 156.19 135.394 155.324 135.394 154.26ZM123.464 154.26C123.464 153.196 124.33 152.33 125.402 152.33C126.465 152.33 127.332 153.196 127.332 154.26C127.332 155.324 126.465 156.19 125.402 156.19C124.33 156.19 123.464 155.324 123.464 154.26ZM111.541 154.26C111.541 153.196 112.407 152.33 113.471 152.33C114.535 152.33 115.401 153.196 115.401 154.26C115.401 155.324 114.535 156.19 113.471 156.19C112.407 156.19 111.541 155.324 111.541 154.26ZM99.6103 154.26C99.6103 153.196 100.477 152.33 101.54 152.33C102.612 152.33 103.478 153.196 103.478 154.26C103.478 155.324 102.612 156.19 101.54 156.19C100.477 156.19 99.6103 155.324 99.6103 154.26ZM87.6874 154.26C87.6874 153.196 88.5537 152.33 89.6175 152.33C90.6814 152.33 91.5477 153.196 91.5477 154.26C91.5477 155.324 90.6814 156.19 89.6175 156.19C88.5537 156.19 87.6874 155.324 87.6874 154.26ZM75.7568 154.26C75.7568 153.196 76.6231 152.33 77.6946 152.33C78.7585 152.33 79.6248 153.196 79.6248 154.26C79.6248 155.324 78.7585 156.19 77.6946 156.19C76.6231 156.19 75.7568 155.324 75.7568 154.26Z" fill="#292D74"/>
<path d="M314.388 154.234C314.388 153.17 315.247 152.304 316.318 152.304C317.382 152.304 318.249 153.17 318.249 154.234C318.249 155.298 317.382 156.165 316.318 156.165C315.247 156.165 314.388 155.298 314.388 154.234ZM302.458 154.234C302.458 153.17 303.324 152.304 304.388 152.304C305.452 152.304 306.318 153.17 306.318 154.234C306.318 155.298 305.452 156.165 304.388 156.165C303.324 156.165 302.458 155.298 302.458 154.234ZM290.535 154.234C290.535 153.17 291.393 152.304 292.465 152.304C293.529 152.304 294.395 153.17 294.395 154.234C294.395 155.298 293.529 156.165 292.465 156.165C291.393 156.165 290.535 155.298 290.535 154.234ZM278.604 154.234C278.604 153.17 279.471 152.304 280.534 152.304C281.598 152.304 282.465 153.17 282.465 154.234C282.465 155.298 281.598 156.165 280.534 156.165C279.471 156.165 278.604 155.298 278.604 154.234ZM266.674 154.234C266.674 153.17 267.54 152.304 268.611 152.304C269.675 152.304 270.542 153.17 270.542 154.234C270.542 155.298 269.675 156.165 268.611 156.165C267.54 156.165 266.674 155.298 266.674 154.234ZM254.751 154.234C254.751 153.17 255.617 152.304 256.681 152.304C257.745 152.304 258.611 153.17 258.611 154.234C258.611 155.298 257.745 156.165 256.681 156.165C255.617 156.165 254.751 155.298 254.751 154.234ZM242.82 154.234C242.82 153.17 243.687 152.304 244.75 152.304C245.822 152.304 246.688 153.17 246.688 154.234C246.688 155.298 245.822 156.165 244.75 156.165C243.687 156.165 242.82 155.298 242.82 154.234ZM230.897 154.234C230.897 153.17 231.764 152.304 232.827 152.304C233.891 152.304 234.758 153.17 234.758 154.234C234.758 155.298 233.891 156.165 232.827 156.165C231.764 156.165 230.897 155.298 230.897 154.234ZM218.967 154.234C218.967 153.17 219.833 152.304 220.905 152.304C221.968 152.304 222.835 153.17 222.835 154.234C222.835 155.298 221.968 156.165 220.905 156.165C219.833 156.165 218.967 155.298 218.967 154.234Z" fill="#292D74"/>
<path d="M314.354 262.072C314.354 261.008 315.213 260.141 316.284 260.141C317.348 260.141 318.214 261.008 318.214 262.072C318.214 263.135 317.348 264.002 316.284 264.002C315.213 264.002 314.354 263.135 314.354 262.072ZM302.423 262.072C302.423 261.008 303.29 260.141 304.354 260.141C305.418 260.141 306.284 261.008 306.284 262.072C306.284 263.135 305.418 264.002 304.354 264.002C303.29 264.002 302.423 263.135 302.423 262.072ZM290.501 262.072C290.501 261.008 291.359 260.141 292.431 260.141C293.495 260.141 294.361 261.008 294.361 262.072C294.361 263.135 293.495 264.002 292.431 264.002C291.359 264.002 290.501 263.135 290.501 262.072ZM278.57 262.072C278.57 261.008 279.436 260.141 280.5 260.141C281.564 260.141 282.43 261.008 282.43 262.072C282.43 263.135 281.564 264.002 280.5 264.002C279.436 264.002 278.57 263.135 278.57 262.072ZM266.64 262.072C266.64 261.008 267.506 260.141 268.577 260.141C269.641 260.141 270.507 261.008 270.507 262.072C270.507 263.135 269.641 264.002 268.577 264.002C267.506 264.002 266.64 263.135 266.64 262.072ZM254.717 262.072C254.717 261.008 255.583 260.141 256.647 260.141C257.711 260.141 258.577 261.008 258.577 262.072C258.577 263.135 257.711 264.002 256.647 264.002C255.583 264.002 254.717 263.135 254.717 262.072ZM242.786 262.072C242.786 261.008 243.652 260.141 244.716 260.141C245.788 260.141 246.654 261.008 246.654 262.072C246.654 263.135 245.788 264.002 244.716 264.002C243.652 264.002 242.786 263.135 242.786 262.072ZM230.863 262.072C230.863 261.008 231.729 260.141 232.793 260.141C233.857 260.141 234.723 261.008 234.723 262.072C234.723 263.135 233.857 264.002 232.793 264.002C231.729 264.002 230.863 263.135 230.863 262.072ZM218.933 262.072C218.933 261.008 219.799 260.141 220.87 260.141C221.934 260.141 222.801 261.008 222.801 262.072C222.801 263.135 221.934 264.002 220.87 264.002C219.799 264.002 218.933 263.135 218.933 262.072Z" fill="#292D74"/>
<path d="M65.7444 152.167C64.6729 152.167 63.8066 153.034 63.8066 154.097C63.8066 155.161 64.6729 156.028 65.7444 156.028C66.8083 156.028 67.6746 155.161 67.6746 154.097C67.6746 153.034 66.8083 152.167 65.7444 152.167Z" fill="#292D74"/>
<path d="M65.7444 44.6719C64.6729 44.6719 63.8066 45.5382 63.8066 46.602C63.8066 47.6659 64.6729 48.5322 65.7444 48.5322C66.8083 48.5322 67.6746 47.6659 67.6746 46.602C67.6746 45.5382 66.8083 44.6719 65.7444 44.6719Z" fill="#292D74"/>
<path d="M65.7444 259.979C64.6729 259.979 63.8066 260.845 63.8066 261.909C63.8066 262.973 64.6729 263.839 65.7444 263.839C66.8083 263.839 67.6746 262.973 67.6746 261.909C67.6746 260.845 66.8083 259.979 65.7444 259.979Z" fill="#292D74"/>
<path d="M208.911 260.022C207.84 260.022 206.974 260.888 206.974 261.952C206.974 263.016 207.84 263.882 208.911 263.882C209.975 263.882 210.842 263.016 210.842 261.952C210.842 260.888 209.975 260.022 208.911 260.022Z" fill="#292D74"/>
<path d="M208.946 152.304C207.874 152.304 207.008 153.17 207.008 154.234C207.008 155.298 207.874 156.165 208.946 156.165C210.009 156.165 210.876 155.298 210.876 154.234C210.876 153.17 210.009 152.304 208.946 152.304Z" fill="#292D74"/>
<path d="M369.625 206.148C368.554 206.148 367.688 207.015 367.688 208.079C367.688 209.142 368.554 210.009 369.625 210.009C370.689 210.009 371.555 209.142 371.555 208.079C371.555 207.015 370.689 206.148 369.625 206.148Z" fill="#292D74"/>
<path d="M65.7102 367.628C64.6388 367.628 63.7725 368.495 63.7725 369.559C63.7725 370.622 64.6388 371.489 65.7102 371.489C66.7741 371.489 67.6404 370.622 67.6404 369.559C67.6404 368.495 66.7741 367.628 65.7102 367.628Z" fill="#292D74"/>
<path d="M53.3552 154.806C52.3141 154.57 51.6606 153.537 51.8962 152.488C52.1317 151.455 53.1728 150.801 54.2063 151.037C55.2473 151.272 55.9009 152.306 55.6653 153.347C55.4601 154.243 54.6622 154.851 53.7807 154.851C53.6439 154.851 53.4996 154.836 53.3552 154.806ZM41.5614 150.679C40.604 150.216 40.2012 149.061 40.6647 148.103C41.1283 147.138 42.2833 146.736 43.2408 147.199C44.2059 147.663 44.6087 148.818 44.1451 149.775C43.8108 150.467 43.1192 150.869 42.4049 150.869C42.1238 150.869 41.835 150.809 41.5614 150.679ZM30.9987 144.03C30.1628 143.362 30.0261 142.146 30.6948 141.31C31.3559 140.482 32.5717 140.345 33.4076 141.006C34.2435 141.675 34.3803 142.89 33.7116 143.726C33.3317 144.197 32.7693 144.448 32.1994 144.448C31.7814 144.448 31.3559 144.311 30.9987 144.03ZM22.1686 135.2C21.5075 134.364 21.6367 133.148 22.4726 132.487C23.3085 131.819 24.5243 131.955 25.1855 132.791C25.8542 133.627 25.7174 134.835 24.8815 135.504C24.5243 135.785 24.1064 135.93 23.6808 135.93C23.1109 135.93 22.5486 135.679 22.1686 135.2ZM15.5195 124.638C15.0559 123.672 15.4587 122.517 16.4161 122.054C17.3812 121.59 18.5287 121.993 18.9998 122.958C19.4558 123.916 19.0606 125.071 18.0955 125.534C17.822 125.663 17.5408 125.724 17.2596 125.724C16.5377 125.724 15.8538 125.321 15.5195 124.638ZM11.3932 112.851C11.1576 111.81 11.8035 110.769 12.8446 110.534C13.8857 110.298 14.9191 110.952 15.1547 111.993C15.3979 113.034 14.7444 114.067 13.7033 114.303C13.5589 114.333 13.4145 114.348 13.2701 114.348C12.3886 114.348 11.5983 113.74 11.3932 112.851Z" fill="#292D74"/>
<path d="M10.0029 100.438C10.0029 99.367 10.8692 98.5007 11.9331 98.5007C13.0046 98.5007 13.8709 99.367 13.8709 100.438C13.8709 101.502 13.0046 102.369 11.9331 102.369C10.8692 102.369 10.0029 101.502 10.0029 100.438Z" fill="#292D74"/>
<path d="M12.847 90.3345C11.8059 90.0913 11.1524 89.0578 11.3955 88.0244C11.6311 86.9833 12.6646 86.3298 13.7056 86.5653C14.7467 86.8009 15.3926 87.8344 15.1571 88.8755C14.9595 89.7721 14.1616 90.3801 13.2801 90.3801C13.1357 90.3801 12.9913 90.3649 12.847 90.3345ZM16.4185 78.8067C15.461 78.3508 15.0507 77.1957 15.5142 76.2306C15.9778 75.2731 17.1328 74.8704 18.0979 75.3339C19.0554 75.7975 19.4581 76.9525 18.9946 77.91C18.6602 78.6015 17.9763 79.0043 17.2544 79.0043C16.9732 79.0043 16.6845 78.9435 16.4185 78.8067ZM22.475 68.3808C21.6391 67.7121 21.5023 66.4962 22.171 65.6679C22.8321 64.832 24.048 64.6953 24.8839 65.364C25.7198 66.0251 25.8565 67.2409 25.1878 68.0768C24.8079 68.5556 24.2455 68.7987 23.6756 68.7987C23.2577 68.7987 22.8321 68.662 22.475 68.3808ZM30.6895 59.5507C30.0284 58.7224 30.1652 57.5065 30.9935 56.8378C31.8294 56.1691 33.0453 56.3059 33.714 57.1418C34.3751 57.9777 34.2383 59.1859 33.41 59.8547C33.0529 60.1434 32.6273 60.2802 32.2018 60.2802C31.6318 60.2802 31.0771 60.0294 30.6895 59.5507ZM40.6595 52.7647C40.196 51.7997 40.5987 50.6522 41.5638 50.1811C42.5213 49.7251 43.6763 50.1279 44.1399 51.0853C44.6034 52.0428 44.2007 53.1979 43.2356 53.6614C42.9696 53.7982 42.6809 53.859 42.3997 53.859C41.6854 53.859 40.9939 53.4562 40.6595 52.7647ZM51.8909 48.3725C51.6553 47.3314 52.3089 46.2979 53.3499 46.0624C54.391 45.8268 55.4245 46.4727 55.6601 47.5138C55.8956 48.5549 55.2421 49.5883 54.201 49.8239C54.0567 49.8619 53.9123 49.8771 53.7755 49.8771C52.894 49.8771 52.0961 49.2692 51.8909 48.3725Z" fill="#292D74"/>
<path d="M249.527 46.602C249.527 45.5382 250.394 44.6719 251.465 44.6719C252.529 44.6719 253.395 45.5382 253.395 46.602C253.395 47.6735 252.529 48.5322 251.465 48.5322C250.394 48.5322 249.527 47.6735 249.527 46.602ZM237.923 46.602C237.923 45.5382 238.79 44.6719 239.854 44.6719C240.918 44.6719 241.784 45.5382 241.784 46.602C241.784 47.6735 240.918 48.5322 239.854 48.5322C238.79 48.5322 237.923 47.6735 237.923 46.602ZM226.32 46.602C226.32 45.5382 227.178 44.6719 228.25 44.6719C229.314 44.6719 230.18 45.5382 230.18 46.602C230.18 47.6735 229.314 48.5322 228.25 48.5322C227.178 48.5322 226.32 47.6735 226.32 46.602ZM214.708 46.602C214.708 45.5382 215.575 44.6719 216.639 44.6719C217.71 44.6719 218.576 45.5382 218.576 46.602C218.576 47.6735 217.71 48.5322 216.639 48.5322C215.575 48.5322 214.708 47.6735 214.708 46.602ZM203.105 46.602C203.105 45.5382 203.971 44.6719 205.035 44.6719C206.106 44.6719 206.965 45.5382 206.965 46.602C206.965 47.6735 206.106 48.5322 205.035 48.5322C203.971 48.5322 203.105 47.6735 203.105 46.602ZM191.501 46.602C191.501 45.5382 192.367 44.6719 193.431 44.6719C194.495 44.6719 195.361 45.5382 195.361 46.602C195.361 47.6735 194.495 48.5322 193.431 48.5322C192.367 48.5322 191.501 47.6735 191.501 46.602ZM179.889 46.602C179.889 45.5382 180.756 44.6719 181.827 44.6719C182.891 44.6719 183.757 45.5382 183.757 46.602C183.757 47.6735 182.891 48.5322 181.827 48.5322C180.756 48.5322 179.889 47.6735 179.889 46.602ZM168.286 46.602C168.286 45.5382 169.152 44.6719 170.216 44.6719C171.287 44.6719 172.146 45.5382 172.146 46.602C172.146 47.6735 171.287 48.5322 170.216 48.5322C169.152 48.5322 168.286 47.6735 168.286 46.602ZM156.682 46.602C156.682 45.5382 157.548 44.6719 158.612 44.6719C159.676 44.6719 160.542 45.5382 160.542 46.602C160.542 47.6735 159.676 48.5322 158.612 48.5322C157.548 48.5322 156.682 47.6735 156.682 46.602ZM145.078 46.602C145.078 45.5382 145.937 44.6719 147.008 44.6719C148.072 44.6719 148.939 45.5382 148.939 46.602C148.939 47.6735 148.072 48.5322 147.008 48.5322C145.937 48.5322 145.078 47.6735 145.078 46.602ZM133.467 46.602C133.467 45.5382 134.333 44.6719 135.397 44.6719C136.468 44.6719 137.335 45.5382 137.335 46.602C137.335 47.6735 136.468 48.5322 135.397 48.5322C134.333 48.5322 133.467 47.6735 133.467 46.602ZM121.863 46.602C121.863 45.5382 122.729 44.6719 123.793 44.6719C124.865 44.6719 125.723 45.5382 125.723 46.602C125.723 47.6735 124.865 48.5322 123.793 48.5322C122.729 48.5322 121.863 47.6735 121.863 46.602ZM110.259 46.602C110.259 45.5382 111.126 44.6719 112.189 44.6719C113.253 44.6719 114.12 45.5382 114.12 46.602C114.12 47.6735 113.253 48.5322 112.189 48.5322C111.126 48.5322 110.259 47.6735 110.259 46.602ZM98.648 46.602C98.648 45.5382 99.5142 44.6719 100.586 44.6719C101.65 44.6719 102.516 45.5382 102.516 46.602C102.516 47.6735 101.65 48.5322 100.586 48.5322C99.5142 48.5322 98.648 47.6735 98.648 46.602ZM87.0442 46.602C87.0442 45.5382 87.9105 44.6719 88.9743 44.6719C90.0458 44.6719 90.9045 45.5382 90.9045 46.602C90.9045 47.6735 90.0458 48.5322 88.9743 48.5322C87.9105 48.5322 87.0442 47.6735 87.0442 46.602ZM75.4404 46.602C75.4404 45.5382 76.2991 44.6719 77.3706 44.6719C78.4345 44.6719 79.3008 45.5382 79.3008 46.602C79.3008 47.6735 78.4345 48.5322 77.3706 48.5322C76.2991 48.5322 75.4404 47.6735 75.4404 46.602Z" fill="#292D74"/>
</g>
<path d="M277.53 141.017C275.25 143.537 272.202 144.797 268.386 144.797C264.57 144.797 261.51 143.537 259.206 141.017C256.926 138.497 255.786 135.281 255.786 131.369C255.786 127.457 256.926 124.241 259.206 121.721C261.51 119.201 264.57 117.941 268.386 117.941C272.202 117.941 275.25 119.201 277.53 121.721C279.834 124.241 280.986 127.457 280.986 131.369C280.986 135.281 279.834 138.497 277.53 141.017ZM261.546 139.001C263.178 140.969 265.458 141.953 268.386 141.953C271.314 141.953 273.594 140.969 275.226 139.001C276.858 137.033 277.674 134.489 277.674 131.369C277.674 128.249 276.858 125.705 275.226 123.737C273.594 121.745 271.314 120.749 268.386 120.749C265.458 120.749 263.178 121.745 261.546 123.737C259.914 125.705 259.098 128.249 259.098 131.369C259.098 134.489 259.914 137.033 261.546 139.001ZM283.408 144.257V118.517H300.868V121.361H286.648V129.389H298.492V132.125H286.648V144.257H283.408Z" fill="white"/>
<path d="M172.217 36.6631V10.9231L190.397 10.9231V13.7671L175.457 13.7671V21.9031L189.029 21.9031V24.6391L175.457 24.6391V33.6751H190.829V36.6631H172.217ZM200.443 36.6631V25.7551L191.119 10.9231H194.719L202.099 23.1631H202.171L209.659 10.9231H213.115L203.683 25.8271V36.6631L200.443 36.6631ZM214.442 36.6631V10.9231L232.622 10.9231V13.7671L217.682 13.7671V21.9031L231.254 21.9031V24.6391L217.682 24.6391V33.6751L233.054 33.6751V36.6631L214.442 36.6631Z" fill="white"/>
<path d="M98.4604 229.189V226.345H118.836V229.189H110.268V252.085H107.028V229.189H98.4604ZM120.613 252.085V226.345H123.853V237.289H137.605V226.345H140.845V252.085H137.605V239.917H123.853V252.085H120.613ZM144.239 252.085V226.345L162.419 226.345V229.189H147.479V237.325L161.051 237.325V240.061L147.479 240.061V249.097L162.851 249.097V252.085L144.239 252.085Z" fill="white"/>
<path d="M240.996 359.562V333.822H244.416L256.152 351.714L258.024 355.026H258.096V333.822H261.12V359.562H257.808L246 341.634L244.092 338.43H244.02V359.562H240.996ZM264.517 359.562V333.822H282.697V336.666H267.757V344.802H281.329V347.538H267.757V356.574H283.129V359.562H264.517ZM285.472 359.562V333.822H303.652V336.666H288.712V344.802H302.284V347.538H288.712V356.574H304.084V359.562H285.472ZM306.426 359.562V333.822H315.786C319.554 333.822 322.398 334.986 324.318 337.314C326.238 339.642 327.198 342.798 327.198 346.782C327.198 350.742 326.202 353.862 324.21 356.142C322.218 358.422 319.326 359.562 315.534 359.562H306.426ZM309.666 356.718H315.426C321.066 356.718 323.886 353.406 323.886 346.782C323.886 340.014 321.15 336.63 315.678 336.63H309.666V356.718ZM329.596 359.562V333.822H332.836V356.574H346.336V359.562H329.596ZM348.089 359.562V333.822H366.269V336.666H351.329V344.802H364.901V347.538H351.329V356.574H366.701V359.562H348.089Z" fill="white"/>
</g>
<defs>
<clipPath id="clip0_1219_607">
<rect width="397" height="388" fill="white"/>
</clipPath>
</defs>
</svg>
