<svg width="388" height="580" viewBox="0 0 388 580" fill="none" xmlns="http://www.w3.org/2000/svg">
<g clip-path="url(#clip0_1102_2614)">
<rect width="388" height="580" rx="15.7878" fill="#4773CD"/>
<path d="M11.024 55.6484L19.856 9.88844H25.488L21.712 29.3444H44.496L48.272 9.88844H53.968L45.136 55.6484H39.44L43.6 33.9524H20.816L16.656 55.6484H11.024ZM55.7625 14.8804L56.7225 9.88844H91.4745L90.5145 14.8804H75.9225L68.0505 55.6484H62.4185L70.2905 14.8804H55.7625ZM91.015 14.8804L91.975 9.88844H126.727L125.767 14.8804H111.175L103.303 55.6484H97.671L105.543 14.8804H91.015Z" fill="#D3BBDB"/>
<path d="M12.9028 77.6484V67.6384H14.9328V71.5584H18.8668V67.6384H20.8968V77.6484H18.8668V73.2384H14.9328V77.6484H12.9028ZM28.6481 77.6484H26.8141V76.8084H26.7721C26.5108 77.1631 26.2214 77.4244 25.9041 77.5924C25.5961 77.7604 25.1994 77.8444 24.7141 77.8444C23.9301 77.8444 23.3188 77.6111 22.8801 77.1444C22.4414 76.6778 22.2221 76.0478 22.2221 75.2544V70.4664H24.1121V74.9324C24.1121 75.8004 24.5088 76.2344 25.3021 76.2344C25.7408 76.2344 26.0908 76.0851 26.3521 75.7864C26.6134 75.4878 26.7441 75.0958 26.7441 74.6104V70.4664H28.6481V77.6484ZM31.7417 70.4664V71.4464H31.7837C32.2783 70.6624 32.9877 70.2704 33.9117 70.2704C34.649 70.2704 35.2463 70.5224 35.7037 71.0264C36.161 71.5211 36.3897 72.1651 36.3897 72.9584V77.6484H34.4857V73.2384C34.4857 72.8464 34.3737 72.5291 34.1497 72.2864C33.935 72.0438 33.6317 71.9224 33.2397 71.9224C32.8197 71.9224 32.4697 72.0764 32.1897 72.3844C31.919 72.6924 31.7837 73.0891 31.7837 73.5744V77.6484H29.8797V70.4664H31.7417ZM37.0065 71.7264V70.4664H38.0005V68.2264H39.8625V70.4664H41.0945V71.7264H39.8625V75.5344C39.8625 76.0104 40.1005 76.2484 40.5765 76.2484L41.1365 76.2344V77.6344C40.8472 77.6531 40.4505 77.6624 39.9465 77.6624C39.3959 77.6624 38.9339 77.5318 38.5605 77.2704C38.1872 76.9998 38.0005 76.5564 38.0005 75.9404V71.7264H37.0065ZM42.075 77.6484V70.4664H43.979V77.6484H42.075ZM42.075 69.3464V67.6384H43.979V69.3464H42.075ZM47.0678 70.4664V71.4464H47.1098C47.6045 70.6624 48.3138 70.2704 49.2378 70.2704C49.9752 70.2704 50.5725 70.5224 51.0298 71.0264C51.4872 71.5211 51.7158 72.1651 51.7158 72.9584V77.6484H49.8118V73.2384C49.8118 72.8464 49.6998 72.5291 49.4758 72.2864C49.2612 72.0438 48.9578 71.9224 48.5658 71.9224C48.1458 71.9224 47.7958 72.0764 47.5158 72.3844C47.2452 72.6924 47.1098 73.0891 47.1098 73.5744V77.6484H45.2058V70.4664H47.0678ZM56.0534 80.0984C55.0828 80.0984 54.3034 79.9024 53.7154 79.5104C53.1368 79.1184 52.7961 78.5678 52.6934 77.8584H54.5834C54.7701 78.3904 55.2508 78.6564 56.0254 78.6564C57.0894 78.6564 57.6214 78.1571 57.6214 77.1584V76.3744H57.5794C57.0848 76.9344 56.4594 77.2144 55.7034 77.2144C54.8541 77.2144 54.1121 76.9018 53.4774 76.2764C52.8521 75.6511 52.5394 74.8204 52.5394 73.7844C52.5394 72.7204 52.8288 71.8711 53.4074 71.2364C53.9861 70.5924 54.7328 70.2704 55.6474 70.2704C56.5154 70.2704 57.1781 70.5878 57.6354 71.2224H57.6634V70.4664H59.4974V77.1024C59.4974 78.0358 59.2128 78.7638 58.6434 79.2864C58.0648 79.8278 57.2014 80.0984 56.0534 80.0984ZM56.0254 75.6884C56.5948 75.6884 57.0194 75.5064 57.2994 75.1424C57.5794 74.7784 57.7194 74.3118 57.7194 73.7424C57.7194 73.1824 57.5701 72.7204 57.2714 72.3564C56.9821 71.9831 56.5621 71.7964 56.0114 71.7964C55.5261 71.7964 55.1341 71.9738 54.8354 72.3284C54.5461 72.6831 54.4014 73.1591 54.4014 73.7564C54.4014 74.3631 54.5461 74.8391 54.8354 75.1844C55.1341 75.5204 55.5308 75.6884 56.0254 75.6884ZM60.3034 71.7264V70.4664H61.2974V68.2264H63.1594V70.4664H64.3914V71.7264H63.1594V75.5344C63.1594 76.0104 63.3974 76.2484 63.8734 76.2484L64.4334 76.2344V77.6344C64.1441 77.6531 63.7474 77.6624 63.2434 77.6624C62.6928 77.6624 62.2308 77.5318 61.8574 77.2704C61.4841 76.9998 61.2974 76.5564 61.2974 75.9404V71.7264H60.3034ZM65.3719 77.6484V70.4664H67.2759V77.6484H65.3719ZM65.3719 69.3464V67.6384H67.2759V69.3464H65.3719ZM70.3647 70.4664V71.4464H70.4067C70.9014 70.6624 71.6107 70.2704 72.5347 70.2704C73.2721 70.2704 73.8694 70.5224 74.3267 71.0264C74.7841 71.5211 75.0127 72.1651 75.0127 72.9584V77.6484H73.1087V73.2384C73.1087 72.8464 72.9967 72.5291 72.7727 72.2864C72.5581 72.0438 72.2547 71.9224 71.8627 71.9224C71.4427 71.9224 71.0927 72.0764 70.8127 72.3844C70.5421 72.6924 70.4067 73.0891 70.4067 73.5744V77.6484H68.5027V70.4664H70.3647ZM79.9099 79.4824C79.2005 78.0451 78.8459 76.5658 78.8459 75.0444C78.8459 72.1511 79.9985 69.5004 82.3039 67.0924H83.9979C82.9805 68.2778 82.1779 69.5751 81.5899 70.9844C81.0019 72.3938 80.7079 73.8264 80.7079 75.2824C80.7079 76.7011 80.9552 78.1011 81.4499 79.4824H79.9099ZM82.7357 77.6484L84.6677 67.6384H86.6697L85.9137 71.5724H89.5957L90.3517 67.6384H92.3537L90.4217 77.6484H88.4197L89.2737 73.2244H85.5917L84.7377 77.6484H82.7357ZM93.0009 69.3324L93.3229 67.6384H101.107L100.785 69.3324H97.8869L96.2769 77.6484H94.2749L95.8849 69.3324H93.0009ZM101.259 69.3324L101.581 67.6384H109.365L109.043 69.3324H106.145L104.535 77.6484H102.533L104.143 69.3324H101.259ZM111.585 67.0924C112.295 68.5298 112.649 70.0091 112.649 71.5304C112.649 74.4238 111.497 77.0744 109.191 79.4824H107.497C108.515 78.2971 109.317 76.9998 109.905 75.5904C110.493 74.1811 110.787 72.7484 110.787 71.2924C110.787 69.8738 110.54 68.4738 110.045 67.0924H111.585ZM20.2388 92.6484L20.1688 91.3044H20.1408C19.5248 92.3404 18.5868 92.8584 17.3268 92.8584C15.8615 92.8584 14.6901 92.3731 13.8128 91.4024C12.9448 90.4318 12.5108 89.1904 12.5108 87.6784C12.5108 85.9611 13.0568 84.5984 14.1488 83.5904C14.9888 82.8251 16.0621 82.4424 17.3688 82.4424C18.5915 82.4424 19.5668 82.7458 20.2948 83.3524C21.0321 83.9591 21.4848 84.7711 21.6528 85.7884H19.6648C19.5435 85.2844 19.2915 84.8831 18.9088 84.5844C18.5261 84.2764 18.0268 84.1224 17.4108 84.1224C16.5055 84.1224 15.8055 84.4538 15.3108 85.1164C14.8255 85.7791 14.5828 86.6331 14.5828 87.6784C14.5828 88.7144 14.8348 89.5638 15.3388 90.2264C15.8521 90.8891 16.5335 91.2204 17.3828 91.2204C18.1295 91.2204 18.7455 90.9918 19.2308 90.5344C19.7161 90.0678 19.9588 89.5404 19.9588 88.9524V88.8964H17.5508V87.3284H21.7648V92.6484H20.2388ZM26.4041 92.8584C25.2467 92.8584 24.3367 92.5038 23.6741 91.7944C23.0114 91.0758 22.6801 90.1611 22.6801 89.0504C22.6801 87.9771 23.0114 87.0811 23.6741 86.3624C24.3367 85.6344 25.1861 85.2704 26.2221 85.2704C27.3514 85.2704 28.2241 85.6624 28.8401 86.4464C29.4561 87.2304 29.7641 88.2804 29.7641 89.5964H24.5561C24.6307 90.1658 24.8221 90.6091 25.1301 90.9264C25.4381 91.2344 25.8581 91.3884 26.3901 91.3884C27.0901 91.3884 27.5521 91.0944 27.7761 90.5064H29.6521C29.5121 91.1784 29.1574 91.7384 28.5881 92.1864C28.0187 92.6344 27.2907 92.8584 26.4041 92.8584ZM26.2501 86.7404C25.3261 86.7404 24.7707 87.2538 24.5841 88.2804H27.7761C27.7481 87.8231 27.5941 87.4544 27.3141 87.1744C27.0341 86.8851 26.6794 86.7404 26.2501 86.7404ZM32.5073 85.4664V86.4464H32.5493C33.044 85.6624 33.7533 85.2704 34.6773 85.2704C35.4146 85.2704 36.012 85.5224 36.4693 86.0264C36.9266 86.5211 37.1553 87.1651 37.1553 87.9584V92.6484H35.2513V88.2384C35.2513 87.8464 35.1393 87.5291 34.9153 87.2864C34.7006 87.0438 34.3973 86.9224 34.0053 86.9224C33.5853 86.9224 33.2353 87.0764 32.9553 87.3844C32.6846 87.6924 32.5493 88.0891 32.5493 88.5744V92.6484H30.6453V85.4664H32.5073ZM41.7029 92.8584C40.5456 92.8584 39.6356 92.5038 38.9729 91.7944C38.3102 91.0758 37.9789 90.1611 37.9789 89.0504C37.9789 87.9771 38.3102 87.0811 38.9729 86.3624C39.6356 85.6344 40.4849 85.2704 41.5209 85.2704C42.6502 85.2704 43.5229 85.6624 44.1389 86.4464C44.7549 87.2304 45.0629 88.2804 45.0629 89.5964H39.8549C39.9296 90.1658 40.1209 90.6091 40.4289 90.9264C40.7369 91.2344 41.1569 91.3884 41.6889 91.3884C42.3889 91.3884 42.8509 91.0944 43.0749 90.5064H44.9509C44.8109 91.1784 44.4562 91.7384 43.8869 92.1864C43.3176 92.6344 42.5896 92.8584 41.7029 92.8584ZM41.5489 86.7404C40.6249 86.7404 40.0696 87.2538 39.8829 88.2804H43.0749C43.0469 87.8231 42.8929 87.4544 42.6129 87.1744C42.3329 86.8851 41.9782 86.7404 41.5489 86.7404ZM52.3277 92.8724C50.9744 92.8724 49.9244 92.5878 49.1777 92.0184C48.431 91.4398 48.039 90.6184 48.0017 89.5544H49.9897C50.055 90.1518 50.265 90.5811 50.6197 90.8424C50.9837 91.1038 51.525 91.2344 52.2437 91.2344C52.813 91.2344 53.2797 91.1318 53.6437 90.9264C54.0077 90.7118 54.1897 90.3851 54.1897 89.9464C54.1897 89.7878 54.1664 89.6478 54.1197 89.5264C54.0824 89.3958 53.9984 89.2838 53.8677 89.1904C53.737 89.0878 53.625 89.0084 53.5317 88.9524C53.4384 88.8871 53.2657 88.8218 53.0137 88.7564C52.7617 88.6818 52.5704 88.6304 52.4397 88.6024C52.309 88.5651 52.0664 88.5044 51.7117 88.4204C51.2824 88.3178 50.9277 88.2291 50.6477 88.1544C50.377 88.0798 50.0737 87.9631 49.7377 87.8044C49.411 87.6458 49.1497 87.4731 48.9537 87.2864C48.767 87.0904 48.6084 86.8384 48.4777 86.5304C48.347 86.2131 48.2817 85.8538 48.2817 85.4524C48.2817 84.4911 48.6317 83.7538 49.3317 83.2404C50.041 82.7178 50.9697 82.4564 52.1177 82.4564C53.2564 82.4564 54.1664 82.7271 54.8477 83.2684C55.529 83.8098 55.907 84.5798 55.9817 85.5784H54.0357C53.9797 85.0931 53.7744 84.7198 53.4197 84.4584C53.0744 84.1971 52.6357 84.0664 52.1037 84.0664C51.553 84.0664 51.1144 84.1738 50.7877 84.3884C50.461 84.6031 50.2977 84.8878 50.2977 85.2424C50.2977 85.6251 50.4564 85.9051 50.7737 86.0824C51.1004 86.2598 51.6697 86.4371 52.4817 86.6144C52.967 86.7171 53.3637 86.8151 53.6717 86.9084C53.9797 86.9924 54.311 87.1184 54.6657 87.2864C55.0297 87.4451 55.3097 87.6224 55.5057 87.8184C55.711 88.0144 55.879 88.2758 56.0097 88.6024C56.1497 88.9198 56.2197 89.2884 56.2197 89.7084C56.2197 90.6978 55.8604 91.4724 55.1417 92.0324C54.423 92.5924 53.485 92.8724 52.3277 92.8724ZM63.3821 91.7804C62.6821 92.4991 61.7814 92.8584 60.6801 92.8584C59.5788 92.8584 58.6781 92.4991 57.9781 91.7804C57.2781 91.0524 56.9281 90.1471 56.9281 89.0644C56.9281 87.9818 57.2781 87.0811 57.9781 86.3624C58.6781 85.6344 59.5788 85.2704 60.6801 85.2704C61.7814 85.2704 62.6821 85.6344 63.3821 86.3624C64.0821 87.0811 64.4321 87.9818 64.4321 89.0644C64.4321 90.1471 64.0821 91.0524 63.3821 91.7804ZM60.6801 91.4024C61.2494 91.4024 61.6928 91.1924 62.0101 90.7724C62.3368 90.3431 62.5001 89.7738 62.5001 89.0644C62.5001 88.3551 62.3368 87.7858 62.0101 87.3564C61.6928 86.9271 61.2494 86.7124 60.6801 86.7124C60.1014 86.7124 59.6534 86.9271 59.3361 87.3564C59.0188 87.7764 58.8601 88.3458 58.8601 89.0644C58.8601 89.7738 59.0188 90.3431 59.3361 90.7724C59.6534 91.1924 60.1014 91.4024 60.6801 91.4024ZM65.3172 92.6484V85.4664H67.1512V86.4324H67.1932C67.6505 85.6578 68.3458 85.2704 69.2792 85.2704C69.7272 85.2704 70.1238 85.3871 70.4692 85.6204C70.8238 85.8444 71.0898 86.1478 71.2672 86.5304H71.2952C71.8178 85.6904 72.5365 85.2704 73.4512 85.2704C74.1978 85.2704 74.7765 85.4991 75.1872 85.9564C75.6072 86.4044 75.8172 87.0251 75.8172 87.8184V92.6484H73.9132V88.1404C73.9132 87.3191 73.5445 86.9084 72.8072 86.9084C72.4058 86.9084 72.0885 87.0531 71.8552 87.3424C71.6312 87.6224 71.5192 88.0004 71.5192 88.4764V92.6484H69.6152V88.1404C69.6152 87.3191 69.2465 86.9084 68.5092 86.9084C68.1265 86.9084 67.8138 87.0531 67.5712 87.3424C67.3378 87.6224 67.2212 88.0004 67.2212 88.4764V92.6484H65.3172ZM81.515 92.6484C81.4216 92.5271 81.347 92.2611 81.291 91.8504H81.263C81.0576 92.1584 80.7963 92.3964 80.479 92.5644C80.1616 92.7324 79.7183 92.8164 79.149 92.8164C78.393 92.8164 77.7863 92.6251 77.329 92.2424C76.8716 91.8598 76.643 91.3184 76.643 90.6184C76.643 89.8904 76.895 89.3584 77.399 89.0224C77.903 88.6771 78.6123 88.4391 79.527 88.3084C80.199 88.2151 80.6563 88.1218 80.899 88.0284C81.1416 87.9258 81.263 87.7484 81.263 87.4964C81.263 87.2351 81.1603 87.0298 80.955 86.8804C80.7496 86.7218 80.451 86.6424 80.059 86.6424C79.191 86.6424 78.729 86.9784 78.673 87.6504H76.979C77.007 86.9691 77.2823 86.4044 77.805 85.9564C78.3276 85.5084 79.0836 85.2844 80.073 85.2844C82.089 85.2844 83.097 86.1664 83.097 87.9304V91.5844C83.097 92.1258 83.181 92.4571 83.349 92.5784V92.6484H81.515ZM79.611 91.4864C80.1336 91.4864 80.5443 91.3511 80.843 91.0804C81.151 90.8098 81.305 90.4878 81.305 90.1144V89.0364C81.0996 89.1578 80.6563 89.2978 79.975 89.4564C79.4336 89.5778 79.051 89.7178 78.827 89.8764C78.603 90.0258 78.491 90.2591 78.491 90.5764C78.491 91.1831 78.8643 91.4864 79.611 91.4864ZM83.7507 86.7264V85.4664H84.7447V83.2264H86.6067V85.4664H87.8387V86.7264H86.6067V90.5344C86.6067 91.0104 86.8447 91.2484 87.3207 91.2484L87.8807 91.2344V92.6344C87.5914 92.6531 87.1947 92.6624 86.6907 92.6624C86.14 92.6624 85.678 92.5318 85.3047 92.2704C84.9314 91.9998 84.7447 91.5564 84.7447 90.9404V86.7264H83.7507ZM88.8191 92.6484V85.4664H90.7231V92.6484H88.8191ZM88.8191 84.3464V82.6384H90.7231V84.3464H88.8191ZM95.282 92.8584C94.1713 92.8584 93.28 92.4991 92.608 91.7804C91.936 91.0618 91.6 90.1564 91.6 89.0644C91.6 87.9724 91.9267 87.0671 92.58 86.3484C93.2427 85.6298 94.1107 85.2704 95.184 85.2704C96.0893 85.2704 96.8267 85.5084 97.396 85.9844C97.9653 86.4604 98.3153 87.0998 98.446 87.9024H96.584C96.5187 87.5758 96.3693 87.3098 96.136 87.1044C95.9027 86.8991 95.6133 86.7964 95.268 86.7964C94.708 86.7964 94.2787 86.9971 93.98 87.3984C93.6813 87.7998 93.532 88.3551 93.532 89.0644C93.532 89.7644 93.6767 90.3198 93.966 90.7304C94.2553 91.1318 94.68 91.3324 95.24 91.3324C96.0707 91.3324 96.5513 90.9264 96.682 90.1144H98.516C98.4507 90.9078 98.1287 91.5658 97.55 92.0884C96.9713 92.6018 96.2153 92.8584 95.282 92.8584ZM12.9168 107.648V97.6384H14.9468V107.648H12.9168ZM18.2065 100.466V101.446H18.2485C18.7432 100.662 19.4525 100.27 20.3765 100.27C21.1138 100.27 21.7112 100.522 22.1685 101.026C22.6258 101.521 22.8545 102.165 22.8545 102.958V107.648H20.9505V103.238C20.9505 102.846 20.8385 102.529 20.6145 102.286C20.3998 102.044 20.0965 101.922 19.7045 101.922C19.2845 101.922 18.9345 102.076 18.6545 102.384C18.3838 102.692 18.2485 103.089 18.2485 103.574V107.648H16.3445V100.466H18.2065ZM26.9401 107.858C25.9134 107.858 25.1108 107.634 24.5321 107.186C23.9534 106.729 23.6361 106.108 23.5801 105.324H25.3441C25.4654 106.118 25.9881 106.514 26.9121 106.514C27.3321 106.514 27.6541 106.44 27.8781 106.29C28.1114 106.141 28.2281 105.94 28.2281 105.688C28.2281 105.595 28.2094 105.511 28.1721 105.436C28.1441 105.362 28.0881 105.296 28.0041 105.24C27.9294 105.175 27.8594 105.124 27.7941 105.086C27.7381 105.049 27.6354 105.012 27.4861 104.974C27.3368 104.937 27.2201 104.909 27.1361 104.89C27.0614 104.872 26.9261 104.848 26.7301 104.82C26.5434 104.783 26.4128 104.755 26.3381 104.736C25.9461 104.662 25.6241 104.587 25.3721 104.512C25.1294 104.428 24.8728 104.312 24.6021 104.162C24.3314 104.004 24.1261 103.794 23.9861 103.532C23.8554 103.262 23.7901 102.94 23.7901 102.566C23.7901 101.82 24.0608 101.25 24.6021 100.858C25.1528 100.466 25.8574 100.27 26.7161 100.27C27.6401 100.27 28.3634 100.485 28.8861 100.914C29.4181 101.334 29.7214 101.913 29.7961 102.65H28.0741C27.9994 101.95 27.5374 101.6 26.6881 101.6C26.3054 101.6 26.0021 101.67 25.7781 101.81C25.5634 101.95 25.4561 102.146 25.4561 102.398C25.4561 102.482 25.4701 102.562 25.4981 102.636C25.5354 102.702 25.5914 102.762 25.6661 102.818C25.7501 102.865 25.8294 102.907 25.9041 102.944C25.9788 102.972 26.0861 103.005 26.2261 103.042C26.3661 103.07 26.4874 103.098 26.5901 103.126C26.6928 103.145 26.8328 103.173 27.0101 103.21C27.1874 103.238 27.3274 103.262 27.4301 103.28C27.7288 103.346 27.9714 103.406 28.1581 103.462C28.3541 103.509 28.5781 103.593 28.8301 103.714C29.0821 103.826 29.2781 103.957 29.4181 104.106C29.5674 104.246 29.6934 104.442 29.7961 104.694C29.9081 104.937 29.9641 105.222 29.9641 105.548C29.9641 106.258 29.6841 106.822 29.1241 107.242C28.5734 107.653 27.8454 107.858 26.9401 107.858ZM30.2663 101.726V100.466H31.2603V98.2264H33.1223V100.466H34.3543V101.726H33.1223V105.534C33.1223 106.01 33.3603 106.248 33.8363 106.248L34.3963 106.234V107.634C34.107 107.653 33.7103 107.662 33.2063 107.662C32.6556 107.662 32.1936 107.532 31.8203 107.27C31.447 107 31.2603 106.556 31.2603 105.94V101.726H30.2663ZM39.9251 107.648C39.8318 107.527 39.7571 107.261 39.7011 106.85H39.6731C39.4678 107.158 39.2064 107.396 38.8891 107.564C38.5718 107.732 38.1284 107.816 37.5591 107.816C36.8031 107.816 36.1964 107.625 35.7391 107.242C35.2818 106.86 35.0531 106.318 35.0531 105.618C35.0531 104.89 35.3051 104.358 35.8091 104.022C36.3131 103.677 37.0224 103.439 37.9371 103.308C38.6091 103.215 39.0664 103.122 39.3091 103.028C39.5518 102.926 39.6731 102.748 39.6731 102.496C39.6731 102.235 39.5704 102.03 39.3651 101.88C39.1598 101.722 38.8611 101.642 38.4691 101.642C37.6011 101.642 37.1391 101.978 37.0831 102.65H35.3891C35.4171 101.969 35.6924 101.404 36.2151 100.956C36.7378 100.508 37.4938 100.284 38.4831 100.284C40.4991 100.284 41.5071 101.166 41.5071 102.93V106.584C41.5071 107.126 41.5911 107.457 41.7591 107.578V107.648H39.9251ZM38.0211 106.486C38.5438 106.486 38.9544 106.351 39.2531 106.08C39.5611 105.81 39.7151 105.488 39.7151 105.114V104.036C39.5098 104.158 39.0664 104.298 38.3851 104.456C37.8438 104.578 37.4611 104.718 37.2371 104.876C37.0131 105.026 36.9011 105.259 36.9011 105.576C36.9011 106.183 37.2744 106.486 38.0211 106.486ZM46.7216 107.858C45.7509 107.858 45.0369 107.49 44.5796 106.752H44.5516V107.648H42.7176V97.6384H44.6216V101.334H44.6636C45.1209 100.625 45.7882 100.27 46.6656 100.27C47.5709 100.27 48.3129 100.625 48.8916 101.334C49.4702 102.034 49.7596 102.944 49.7596 104.064C49.7596 105.222 49.4796 106.146 48.9196 106.836C48.3596 107.518 47.6269 107.858 46.7216 107.858ZM46.3016 106.262C46.7869 106.262 47.1602 106.071 47.4216 105.688C47.6922 105.306 47.8276 104.764 47.8276 104.064C47.8276 103.374 47.6876 102.828 47.4076 102.426C47.1369 102.016 46.7449 101.81 46.2316 101.81C45.1302 101.81 44.5796 102.576 44.5796 104.106C44.5796 104.769 44.7336 105.296 45.0416 105.688C45.3496 106.071 45.7696 106.262 46.3016 106.262ZM50.6473 107.648V100.466H52.5513V107.648H50.6473ZM50.6473 99.3464V97.6384H52.5513V99.3464H50.6473ZM53.8061 107.648V97.6384H55.7101V107.648H53.8061ZM56.9637 107.648V100.466H58.8677V107.648H56.9637ZM56.9637 99.3464V97.6384H58.8677V99.3464H56.9637ZM59.6745 101.726V100.466H60.6685V98.2264H62.5305V100.466H63.7625V101.726H62.5305V105.534C62.5305 106.01 62.7685 106.248 63.2445 106.248L63.8045 106.234V107.634C63.5152 107.653 63.1185 107.662 62.6145 107.662C62.0638 107.662 61.6018 107.532 61.2285 107.27C60.8552 107 60.6685 106.556 60.6685 105.94V101.726H59.6745ZM65.0337 110V108.502H65.7057C66.415 108.502 66.7697 108.176 66.7697 107.522C66.7697 107.205 66.5877 106.556 66.2237 105.576L64.2917 100.466H66.2937L67.3577 103.7L67.8197 105.268H67.8477C67.9783 104.662 68.1183 104.139 68.2677 103.7L69.2757 100.466H71.1937L68.6877 107.83C68.4077 108.652 68.0903 109.216 67.7357 109.524C67.3903 109.842 66.863 110 66.1537 110H65.0337Z" fill="white"/>
<path d="M168.532 339.444C170.251 339.444 171.639 338.955 172.579 338.036C173.541 337.095 174.187 335.592 174.209 334.257H172.527C172.358 336.234 171.147 337.963 168.591 337.963C165.771 337.963 163.935 335.746 163.935 332.456C163.935 329.166 165.602 326.912 168.569 326.912C170.706 326.912 172.05 328.057 172.373 329.735H174.04C173.68 327.254 171.771 325.445 168.606 325.445C164.574 325.445 162.188 328.509 162.188 332.456C162.188 336.402 164.684 339.451 168.525 339.451" fill="#D3BBDB"/>
<path d="M181.898 333.5L183.866 328.386L185.871 333.5H181.898ZM182.897 325.898L183.33 326.985L179.394 337.008C178.997 338.044 178.314 338.438 177.484 338.497V339.248H182.427V338.497C180.708 338.402 180.172 337.971 180.627 336.804L181.538 334.433H186.231L187.156 336.804C187.611 337.971 187.082 338.402 185.357 338.497V339.248H190.96V338.497C190.13 338.438 189.447 338.008 189.051 337.008L184.718 325.898H182.904H182.897Z" fill="#D3BBDB"/>
<path d="M199.002 339.622C200.323 339.622 201.462 338.908 201.976 337.726H202.035L202.321 339.323H203.606V331.919H199.332V333.553H201.755V334.377C201.755 336.464 200.977 337.952 199.185 337.952C197.107 337.952 196.079 336.092 196.079 332.386C196.079 328.68 197.063 326.711 199.185 326.711C200.72 326.711 201.55 327.498 201.609 329.395H203.555C203.4 326.499 201.741 325.055 199.148 325.055C196.027 325.055 194.133 327.965 194.133 332.386C194.133 336.807 195.837 339.622 199.016 339.622" fill="#D3BBDB"/>
<path d="M214.962 339.444C216.688 339.444 218.068 338.955 219.008 338.036C219.97 337.095 220.617 335.592 220.639 334.257H218.957C218.788 336.234 217.576 337.963 215.021 337.963C212.201 337.963 210.365 335.746 210.365 332.456C210.365 329.166 212.032 326.912 214.999 326.912C217.136 326.912 218.48 328.057 218.803 329.735H220.47C220.11 327.254 218.201 325.445 215.036 325.445C211.004 325.445 208.617 328.509 208.617 332.456C208.617 336.402 211.114 339.451 214.955 339.451" fill="#D3BBDB"/>
<path d="M228.336 333.5L230.304 328.386L232.309 333.5H228.336ZM229.342 325.898L229.775 326.985L225.839 337.008C225.442 338.044 224.76 338.438 223.93 338.497V339.248H228.872V338.497C227.154 338.402 226.617 337.971 227.073 336.804L227.983 334.433H232.676L233.601 336.804C234.057 337.971 233.528 338.402 231.802 338.497V339.248H237.405V338.497C236.575 338.438 235.892 338.008 235.496 337.008L231.163 325.898H229.349H229.342Z" fill="#D3BBDB"/>
<path d="M245.439 339.622C246.761 339.622 247.899 338.908 248.413 337.726H248.472L248.758 339.323H250.043V331.919H245.769V333.553H248.193V334.377C248.193 336.464 247.414 337.952 245.615 337.952C243.537 337.952 242.509 336.092 242.509 332.386C242.509 328.68 243.493 326.711 245.615 326.711C247.15 326.711 247.98 327.498 248.038 329.395H249.984C249.83 326.499 248.17 325.055 245.578 325.055C242.457 325.055 240.562 327.965 240.562 332.386C240.562 336.807 242.266 339.622 245.446 339.622" fill="#D3BBDB"/>
<path d="M261.415 339.444C263.134 339.444 264.522 338.955 265.462 338.036C266.424 337.095 267.07 335.592 267.092 334.257H265.41C265.241 336.234 264.03 337.963 261.474 337.963C258.654 337.963 256.818 335.746 256.818 332.456C256.818 329.166 258.485 326.912 261.452 326.912C263.589 326.912 264.933 328.057 265.256 329.735H266.923C266.563 327.254 264.654 325.445 261.489 325.445C257.457 325.445 255.07 328.509 255.07 332.456C255.07 336.402 257.567 339.451 261.408 339.451" fill="#D3BBDB"/>
<path d="M274.781 333.5L276.749 328.386L278.754 333.5H274.781ZM275.787 325.898L276.221 326.985L272.284 337.008C271.888 338.044 271.205 338.438 270.375 338.497V339.248H275.317V338.497C273.599 338.402 273.063 337.971 273.518 336.804L274.429 334.433H279.121L280.047 336.804C280.502 337.971 279.973 338.402 278.247 338.497V339.248H283.851V338.497C283.021 338.438 282.338 338.008 281.941 337.008L277.608 325.898H275.795H275.787Z" fill="#D3BBDB"/>
<path d="M291.892 339.623C293.214 339.623 294.352 338.908 294.866 337.726H294.925L295.211 339.324H296.496V331.92H292.222V333.554H294.646V334.378C294.646 336.464 293.867 337.952 292.068 337.952C289.99 337.952 288.962 336.092 288.962 332.387C288.962 328.681 289.946 326.711 292.068 326.711C293.603 326.711 294.433 327.499 294.491 329.403H296.437C296.283 326.507 294.624 325.062 292.031 325.062C288.91 325.062 287.016 327.973 287.016 332.394C287.016 336.814 288.719 339.63 291.899 339.63" fill="#D3BBDB"/>
<path d="M307.134 339.444C308.852 339.444 310.24 338.955 311.18 338.036C312.142 337.095 312.789 335.592 312.811 334.257H311.129C310.96 336.234 309.748 337.963 307.193 337.963C304.373 337.963 302.537 335.746 302.537 332.456C302.537 329.166 304.204 326.912 307.171 326.912C309.308 326.912 310.652 328.057 310.975 329.735H312.642C312.282 327.254 310.372 325.445 307.207 325.445C303.176 325.445 300.789 328.509 300.789 332.456C300.789 336.402 303.286 339.451 307.127 339.451" fill="#D3BBDB"/>
<path d="M320.492 333.5L322.46 328.386L324.465 333.5H320.492ZM321.49 325.898L321.924 326.985L317.987 337.008C317.591 338.044 316.908 338.438 316.078 338.497V339.248H321.02V338.497C319.302 338.402 318.766 337.971 319.221 336.804L320.132 334.433H324.824L325.75 336.804C326.205 337.971 325.676 338.402 323.95 338.497V339.248H329.554V338.497C328.724 338.438 328.041 338.008 327.644 337.008L323.312 325.898H321.498H321.49Z" fill="#D3BBDB"/>
<path d="M337.603 339.622C338.925 339.622 340.063 338.908 340.577 337.726H340.636L340.922 339.323H342.208V331.919H337.934V333.553H340.357V334.377C340.357 336.464 339.579 337.952 337.787 337.952C335.709 337.952 334.68 336.092 334.68 332.386C334.68 328.68 335.664 326.711 337.787 326.711C339.322 326.711 340.151 327.498 340.21 329.395H342.156C342.002 326.499 340.342 325.055 337.75 325.055C334.629 325.055 332.734 327.965 332.734 332.386C332.734 336.807 334.438 339.622 337.618 339.622" fill="#D3BBDB"/>
<path d="M361.125 564.711H162.579C152.628 564.711 144.565 556.14 144.565 545.563V359.211C144.565 348.633 136.502 340.062 126.551 340.062H48.0625" stroke="#D3BBDB" stroke-miterlimit="10"/>
<path d="M361.058 104.656H162.579C152.628 104.656 144.565 113.125 144.565 123.576V307.706C144.565 318.157 136.502 326.625 126.551 326.625H48.0625" stroke="#D3BBDB" stroke-miterlimit="10"/>
<path d="M41.5725 282.26C41.5725 280.455 40.1012 278.992 38.2863 278.992C36.4713 278.992 35 280.455 35 282.26V302.255C35 304.06 36.4713 305.523 38.2863 305.523C40.1012 305.523 41.5725 304.06 41.5725 302.255V282.26Z" fill="#D3BBDB"/>
<path d="M41.5725 308.799C41.5725 306.994 40.1012 305.531 38.2863 305.531C36.4713 305.531 35 306.994 35 308.799V353.363C35 355.168 36.4713 356.632 38.2863 356.632C40.1012 356.632 41.5725 355.168 41.5725 353.363V308.799Z" fill="#D3BBDB"/>
<path d="M41.5799 326.625H35V340.047H41.5799" fill="#344899"/>
<path d="M344.492 336.938H346.872V339.257H344.492V336.938Z" fill="#D3BBDB"/>
<path d="M347.555 336.938H349.934V339.257H347.555V336.938Z" fill="#D3BBDB"/>
<path d="M350.625 336.938H353.004V339.257H350.625V336.938Z" fill="#D3BBDB"/>
<path d="M283.524 221.668H216.139H174.523C168.978 221.668 164.484 217.204 164.484 211.696C164.484 206.188 168.978 201.724 174.523 201.724H224.371H282.297H332.146C337.69 201.724 342.185 197.26 342.185 191.752C342.185 186.244 337.69 181.78 332.146 181.78H290.53H216.131H174.515C168.971 181.78 164.477 177.316 164.477 171.808C164.477 166.3 168.971 161.836 174.515 161.836H342.185" stroke="#CED7E9" stroke-width="1.17971" stroke-miterlimit="10" stroke-linecap="round"/>
<path d="M265.294 227.432C268.559 227.432 271.206 224.803 271.206 221.56C271.206 218.317 268.559 215.688 265.294 215.688C262.03 215.688 259.383 218.317 259.383 221.56C259.383 224.803 262.03 227.432 265.294 227.432Z" fill="#CED7E9"/>
<path d="M245.287 227.432C248.551 227.432 251.198 224.803 251.198 221.56C251.198 218.317 248.551 215.688 245.287 215.688C242.022 215.688 239.375 218.317 239.375 221.56C239.375 224.803 242.022 227.432 245.287 227.432Z" fill="#CED7E9"/>
<path d="M225.271 227.432C228.536 227.432 231.183 224.803 231.183 221.56C231.183 218.317 228.536 215.688 225.271 215.688C222.006 215.688 219.359 218.317 219.359 221.56C219.359 224.803 222.006 227.432 225.271 227.432Z" fill="#CED7E9"/>
<path d="M205.263 227.432C208.528 227.432 211.175 224.803 211.175 221.56C211.175 218.317 208.528 215.688 205.263 215.688C201.998 215.688 199.352 218.317 199.352 221.56C199.352 224.803 201.998 227.432 205.263 227.432Z" fill="#CED7E9"/>
<path d="M185.248 227.432C188.512 227.432 191.159 224.803 191.159 221.56C191.159 218.317 188.512 215.688 185.248 215.688C181.983 215.688 179.336 218.317 179.336 221.56C179.336 224.803 181.983 227.432 185.248 227.432Z" fill="#CED7E9"/>
<path d="M325.333 207.557C328.598 207.557 331.245 204.928 331.245 201.685C331.245 198.442 328.598 195.812 325.333 195.812C322.069 195.812 319.422 198.442 319.422 201.685C319.422 204.928 322.069 207.557 325.333 207.557Z" fill="#CED7E9"/>
<path d="M305.326 207.557C308.591 207.557 311.237 204.928 311.237 201.685C311.237 198.442 308.591 195.812 305.326 195.812C302.061 195.812 299.414 198.442 299.414 201.685C299.414 204.928 302.061 207.557 305.326 207.557Z" fill="#CED7E9"/>
<path d="M285.31 207.557C288.575 207.557 291.222 204.928 291.222 201.685C291.222 198.442 288.575 195.812 285.31 195.812C282.045 195.812 279.398 198.442 279.398 201.685C279.398 204.928 282.045 207.557 285.31 207.557Z" fill="#CED7E9"/>
<path d="M265.294 207.557C268.559 207.557 271.206 204.928 271.206 201.685C271.206 198.442 268.559 195.812 265.294 195.812C262.03 195.812 259.383 198.442 259.383 201.685C259.383 204.928 262.03 207.557 265.294 207.557Z" fill="#CED7E9"/>
<path d="M245.287 207.557C248.551 207.557 251.198 204.928 251.198 201.685C251.198 198.442 248.551 195.812 245.287 195.812C242.022 195.812 239.375 198.442 239.375 201.685C239.375 204.928 242.022 207.557 245.287 207.557Z" fill="#CED7E9"/>
<path d="M225.271 207.557C228.536 207.557 231.183 204.928 231.183 201.685C231.183 198.442 228.536 195.812 225.271 195.812C222.006 195.812 219.359 198.442 219.359 201.685C219.359 204.928 222.006 207.557 225.271 207.557Z" fill="#CED7E9"/>
<path d="M205.263 207.557C208.528 207.557 211.175 204.928 211.175 201.685C211.175 198.442 208.528 195.812 205.263 195.812C201.998 195.812 199.352 198.442 199.352 201.685C199.352 204.928 201.998 207.557 205.263 207.557Z" fill="#CED7E9"/>
<path d="M185.248 207.557C188.512 207.557 191.159 204.928 191.159 201.685C191.159 198.442 188.512 195.812 185.248 195.812C181.983 195.812 179.336 198.442 179.336 201.685C179.336 204.928 181.983 207.557 185.248 207.557Z" fill="#CED7E9"/>
<path d="M325.333 187.698C328.598 187.698 331.245 185.069 331.245 181.825C331.245 178.582 328.598 175.953 325.333 175.953C322.069 175.953 319.422 178.582 319.422 181.825C319.422 185.069 322.069 187.698 325.333 187.698Z" fill="#CED7E9"/>
<path d="M305.326 187.698C308.591 187.698 311.237 185.069 311.237 181.825C311.237 178.582 308.591 175.953 305.326 175.953C302.061 175.953 299.414 178.582 299.414 181.825C299.414 185.069 302.061 187.698 305.326 187.698Z" fill="#CED7E9"/>
<path d="M285.31 187.698C288.575 187.698 291.222 185.069 291.222 181.825C291.222 178.582 288.575 175.953 285.31 175.953C282.045 175.953 279.398 178.582 279.398 181.825C279.398 185.069 282.045 187.698 285.31 187.698Z" fill="#CED7E9"/>
<path d="M265.294 187.698C268.559 187.698 271.206 185.069 271.206 181.825C271.206 178.582 268.559 175.953 265.294 175.953C262.03 175.953 259.383 178.582 259.383 181.825C259.383 185.069 262.03 187.698 265.294 187.698Z" fill="#CED7E9"/>
<path d="M245.287 187.698C248.551 187.698 251.198 185.069 251.198 181.825C251.198 178.582 248.551 175.953 245.287 175.953C242.022 175.953 239.375 178.582 239.375 181.825C239.375 185.069 242.022 187.698 245.287 187.698Z" fill="#CED7E9"/>
<path d="M225.271 187.698C228.536 187.698 231.183 185.069 231.183 181.825C231.183 178.582 228.536 175.953 225.271 175.953C222.006 175.953 219.359 178.582 219.359 181.825C219.359 185.069 222.006 187.698 225.271 187.698Z" fill="#CED7E9"/>
<path d="M205.263 187.698C208.528 187.698 211.175 185.069 211.175 181.825C211.175 178.582 208.528 175.953 205.263 175.953C201.998 175.953 199.352 178.582 199.352 181.825C199.352 185.069 201.998 187.698 205.263 187.698Z" fill="#CED7E9"/>
<path d="M185.248 187.698C188.512 187.698 191.159 185.069 191.159 181.825C191.159 178.582 188.512 175.953 185.248 175.953C181.983 175.953 179.336 178.582 179.336 181.825C179.336 185.069 181.983 187.698 185.248 187.698Z" fill="#CED7E9"/>
<path d="M325.333 167.831C328.598 167.831 331.245 165.201 331.245 161.958C331.245 158.715 328.598 156.086 325.333 156.086C322.069 156.086 319.422 158.715 319.422 161.958C319.422 165.201 322.069 167.831 325.333 167.831Z" fill="#CED7E9"/>
<path d="M305.326 167.831C308.591 167.831 311.237 165.201 311.237 161.958C311.237 158.715 308.591 156.086 305.326 156.086C302.061 156.086 299.414 158.715 299.414 161.958C299.414 165.201 302.061 167.831 305.326 167.831Z" fill="#CED7E9"/>
<path d="M285.31 167.831C288.575 167.831 291.222 165.201 291.222 161.958C291.222 158.715 288.575 156.086 285.31 156.086C282.045 156.086 279.398 158.715 279.398 161.958C279.398 165.201 282.045 167.831 285.31 167.831Z" fill="#CED7E9"/>
<path d="M265.294 167.831C268.559 167.831 271.206 165.201 271.206 161.958C271.206 158.715 268.559 156.086 265.294 156.086C262.03 156.086 259.383 158.715 259.383 161.958C259.383 165.201 262.03 167.831 265.294 167.831Z" fill="#CED7E9"/>
<path d="M245.287 167.831C248.551 167.831 251.198 165.201 251.198 161.958C251.198 158.715 248.551 156.086 245.287 156.086C242.022 156.086 239.375 158.715 239.375 161.958C239.375 165.201 242.022 167.831 245.287 167.831Z" fill="#CED7E9"/>
<path d="M225.271 167.831C228.536 167.831 231.183 165.201 231.183 161.958C231.183 158.715 228.536 156.086 225.271 156.086C222.006 156.086 219.359 158.715 219.359 161.958C219.359 165.201 222.006 167.831 225.271 167.831Z" fill="#CED7E9"/>
<path d="M205.263 167.831C208.528 167.831 211.175 165.201 211.175 161.958C211.175 158.715 208.528 156.086 205.263 156.086C201.998 156.086 199.352 158.715 199.352 161.958C199.352 165.201 201.998 167.831 205.263 167.831Z" fill="#CED7E9"/>
<path d="M185.248 167.831C188.512 167.831 191.159 165.201 191.159 161.958C191.159 158.715 188.512 156.086 185.248 156.086C181.983 156.086 179.336 158.715 179.336 161.958C179.336 165.201 181.983 167.831 185.248 167.831Z" fill="#CED7E9"/>
<path d="M165.24 217.557C168.505 217.557 171.151 214.928 171.151 211.685C171.151 208.442 168.505 205.812 165.24 205.812C161.975 205.812 159.328 208.442 159.328 211.685C159.328 214.928 161.975 217.557 165.24 217.557Z" fill="#CED7E9"/>
<path d="M165.24 176.706C168.505 176.706 171.151 174.076 171.151 170.833C171.151 167.59 168.505 164.961 165.24 164.961C161.975 164.961 159.328 167.59 159.328 170.833C159.328 174.076 161.975 176.706 165.24 176.706Z" fill="#CED7E9"/>
<path d="M342.193 195.565C345.458 195.565 348.104 192.936 348.104 189.693C348.104 186.449 345.458 183.82 342.193 183.82C338.928 183.82 336.281 186.449 336.281 189.693C336.281 192.936 338.928 195.565 342.193 195.565Z" fill="#CED7E9"/>
<path d="M342.191 505.15H290.536H216.138H174.522C168.978 505.15 164.483 500.686 164.483 495.178C164.483 489.67 168.978 485.206 174.522 485.206H224.371H282.297H332.145C337.69 485.206 342.184 480.741 342.184 475.234C342.184 469.726 337.69 465.262 332.145 465.262H290.529H216.131H174.515C168.97 465.262 164.476 460.797 164.476 455.29C164.476 449.782 168.97 445.318 174.515 445.318H224.363H282.29H332.138C337.682 445.318 342.177 440.853 342.177 435.346C342.177 429.838 337.682 425.374 332.138 425.374H290.522H216.124H174.507C168.963 425.374 164.469 420.909 164.469 415.402C164.469 409.894 168.963 405.43 174.507 405.43H342.177" stroke="url(#paint0_linear_1102_2614)" stroke-width="1.17971" stroke-miterlimit="10" stroke-linecap="round"/>
<path d="M325.333 511.549C328.598 511.549 331.245 508.92 331.245 505.677C331.245 502.434 328.598 499.805 325.333 499.805C322.069 499.805 319.422 502.434 319.422 505.677C319.422 508.92 322.069 511.549 325.333 511.549Z" fill="#CED7E9"/>
<path d="M305.326 511.549C308.591 511.549 311.237 508.92 311.237 505.677C311.237 502.434 308.591 499.805 305.326 499.805C302.061 499.805 299.414 502.434 299.414 505.677C299.414 508.92 302.061 511.549 305.326 511.549Z" fill="#CED7E9"/>
<path d="M285.31 511.549C288.575 511.549 291.222 508.92 291.222 505.677C291.222 502.434 288.575 499.805 285.31 499.805C282.045 499.805 279.398 502.434 279.398 505.677C279.398 508.92 282.045 511.549 285.31 511.549Z" fill="#CED7E9"/>
<path d="M265.294 511.549C268.559 511.549 271.206 508.92 271.206 505.677C271.206 502.434 268.559 499.805 265.294 499.805C262.03 499.805 259.383 502.434 259.383 505.677C259.383 508.92 262.03 511.549 265.294 511.549Z" fill="#CED7E9"/>
<path d="M245.287 511.549C248.551 511.549 251.198 508.92 251.198 505.677C251.198 502.434 248.551 499.805 245.287 499.805C242.022 499.805 239.375 502.434 239.375 505.677C239.375 508.92 242.022 511.549 245.287 511.549Z" fill="#CED7E9"/>
<path d="M225.271 511.549C228.536 511.549 231.183 508.92 231.183 505.677C231.183 502.434 228.536 499.805 225.271 499.805C222.006 499.805 219.359 502.434 219.359 505.677C219.359 508.92 222.006 511.549 225.271 511.549Z" fill="#CED7E9"/>
<path d="M205.263 511.549C208.528 511.549 211.175 508.92 211.175 505.677C211.175 502.434 208.528 499.805 205.263 499.805C201.998 499.805 199.352 502.434 199.352 505.677C199.352 508.92 201.998 511.549 205.263 511.549Z" fill="#CED7E9"/>
<path d="M185.248 511.549C188.512 511.549 191.159 508.92 191.159 505.677C191.159 502.434 188.512 499.805 185.248 499.805C181.983 499.805 179.336 502.434 179.336 505.677C179.336 508.92 181.983 511.549 185.248 511.549Z" fill="#CED7E9"/>
<path d="M325.333 490.276C328.598 490.276 331.245 487.647 331.245 484.404C331.245 481.16 328.598 478.531 325.333 478.531C322.069 478.531 319.422 481.16 319.422 484.404C319.422 487.647 322.069 490.276 325.333 490.276Z" fill="#CED7E9"/>
<path d="M305.326 490.276C308.591 490.276 311.237 487.647 311.237 484.404C311.237 481.16 308.591 478.531 305.326 478.531C302.061 478.531 299.414 481.16 299.414 484.404C299.414 487.647 302.061 490.276 305.326 490.276Z" fill="#CED7E9"/>
<path d="M285.31 490.276C288.575 490.276 291.222 487.647 291.222 484.404C291.222 481.16 288.575 478.531 285.31 478.531C282.045 478.531 279.398 481.16 279.398 484.404C279.398 487.647 282.045 490.276 285.31 490.276Z" fill="#CED7E9"/>
<path d="M265.294 490.276C268.559 490.276 271.206 487.647 271.206 484.404C271.206 481.16 268.559 478.531 265.294 478.531C262.03 478.531 259.383 481.16 259.383 484.404C259.383 487.647 262.03 490.276 265.294 490.276Z" fill="#CED7E9"/>
<path d="M245.287 490.276C248.551 490.276 251.198 487.647 251.198 484.404C251.198 481.16 248.551 478.531 245.287 478.531C242.022 478.531 239.375 481.16 239.375 484.404C239.375 487.647 242.022 490.276 245.287 490.276Z" fill="#CED7E9"/>
<path d="M225.271 490.276C228.536 490.276 231.183 487.647 231.183 484.404C231.183 481.16 228.536 478.531 225.271 478.531C222.006 478.531 219.359 481.16 219.359 484.404C219.359 487.647 222.006 490.276 225.271 490.276Z" fill="#CED7E9"/>
<path d="M205.263 490.276C208.528 490.276 211.175 487.647 211.175 484.404C211.175 481.16 208.528 478.531 205.263 478.531C201.998 478.531 199.352 481.16 199.352 484.404C199.352 487.647 201.998 490.276 205.263 490.276Z" fill="#CED7E9"/>
<path d="M185.248 490.276C188.512 490.276 191.159 487.647 191.159 484.404C191.159 481.16 188.512 478.531 185.248 478.531C181.983 478.531 179.336 481.16 179.336 484.404C179.336 487.647 181.983 490.276 185.248 490.276Z" fill="#CED7E9"/>
<path d="M325.333 471.026C328.598 471.026 331.245 468.397 331.245 465.154C331.245 461.91 328.598 459.281 325.333 459.281C322.069 459.281 319.422 461.91 319.422 465.154C319.422 468.397 322.069 471.026 325.333 471.026Z" fill="#CED7E9"/>
<path d="M305.326 471.026C308.591 471.026 311.237 468.397 311.237 465.154C311.237 461.91 308.591 459.281 305.326 459.281C302.061 459.281 299.414 461.91 299.414 465.154C299.414 468.397 302.061 471.026 305.326 471.026Z" fill="#CED7E9"/>
<path d="M285.31 471.026C288.575 471.026 291.222 468.397 291.222 465.154C291.222 461.91 288.575 459.281 285.31 459.281C282.045 459.281 279.398 461.91 279.398 465.154C279.398 468.397 282.045 471.026 285.31 471.026Z" fill="#CED7E9"/>
<path d="M265.294 471.026C268.559 471.026 271.206 468.397 271.206 465.154C271.206 461.91 268.559 459.281 265.294 459.281C262.03 459.281 259.383 461.91 259.383 465.154C259.383 468.397 262.03 471.026 265.294 471.026Z" fill="#CED7E9"/>
<path d="M245.287 471.026C248.551 471.026 251.198 468.397 251.198 465.154C251.198 461.91 248.551 459.281 245.287 459.281C242.022 459.281 239.375 461.91 239.375 465.154C239.375 468.397 242.022 471.026 245.287 471.026Z" fill="#CED7E9"/>
<path d="M225.271 471.026C228.536 471.026 231.183 468.397 231.183 465.154C231.183 461.91 228.536 459.281 225.271 459.281C222.006 459.281 219.359 461.91 219.359 465.154C219.359 468.397 222.006 471.026 225.271 471.026Z" fill="#CED7E9"/>
<path d="M205.263 471.026C208.528 471.026 211.175 468.397 211.175 465.154C211.175 461.91 208.528 459.281 205.263 459.281C201.998 459.281 199.352 461.91 199.352 465.154C199.352 468.397 201.998 471.026 205.263 471.026Z" fill="#CED7E9"/>
<path d="M185.248 471.026C188.512 471.026 191.159 468.397 191.159 465.154C191.159 461.91 188.512 459.281 185.248 459.281C181.983 459.281 179.336 461.91 179.336 465.154C179.336 468.397 181.983 471.026 185.248 471.026Z" fill="#CED7E9"/>
<path d="M325.333 451.159C328.598 451.159 331.245 448.53 331.245 445.286C331.245 442.043 328.598 439.414 325.333 439.414C322.069 439.414 319.422 442.043 319.422 445.286C319.422 448.53 322.069 451.159 325.333 451.159Z" fill="url(#paint1_linear_1102_2614)"/>
<path d="M305.326 451.159C308.591 451.159 311.237 448.53 311.237 445.286C311.237 442.043 308.591 439.414 305.326 439.414C302.061 439.414 299.414 442.043 299.414 445.286C299.414 448.53 302.061 451.159 305.326 451.159Z" fill="url(#paint2_linear_1102_2614)"/>
<path d="M285.31 451.159C288.575 451.159 291.222 448.53 291.222 445.286C291.222 442.043 288.575 439.414 285.31 439.414C282.045 439.414 279.398 442.043 279.398 445.286C279.398 448.53 282.045 451.159 285.31 451.159Z" fill="url(#paint3_linear_1102_2614)"/>
<path d="M265.294 451.159C268.559 451.159 271.206 448.53 271.206 445.286C271.206 442.043 268.559 439.414 265.294 439.414C262.03 439.414 259.383 442.043 259.383 445.286C259.383 448.53 262.03 451.159 265.294 451.159Z" fill="#CED7E9"/>
<path d="M245.287 451.159C248.551 451.159 251.198 448.53 251.198 445.286C251.198 442.043 248.551 439.414 245.287 439.414C242.022 439.414 239.375 442.043 239.375 445.286C239.375 448.53 242.022 451.159 245.287 451.159Z" fill="#CED7E9"/>
<path d="M225.271 451.159C228.536 451.159 231.183 448.53 231.183 445.286C231.183 442.043 228.536 439.414 225.271 439.414C222.006 439.414 219.359 442.043 219.359 445.286C219.359 448.53 222.006 451.159 225.271 451.159Z" fill="#CED7E9"/>
<path d="M205.263 451.159C208.528 451.159 211.175 448.53 211.175 445.286C211.175 442.043 208.528 439.414 205.263 439.414C201.998 439.414 199.352 442.043 199.352 445.286C199.352 448.53 201.998 451.159 205.263 451.159Z" fill="#CED7E9"/>
<path d="M185.248 451.159C188.512 451.159 191.159 448.53 191.159 445.286C191.159 442.043 188.512 439.414 185.248 439.414C181.983 439.414 179.336 442.043 179.336 445.286C179.336 448.53 181.983 451.159 185.248 451.159Z" fill="#CED7E9"/>
<path d="M325.333 431.299C328.598 431.299 331.245 428.67 331.245 425.427C331.245 422.184 328.598 419.555 325.333 419.555C322.069 419.555 319.422 422.184 319.422 425.427C319.422 428.67 322.069 431.299 325.333 431.299Z" fill="#FF8FA3"/>
<path d="M305.326 431.299C308.591 431.299 311.237 428.67 311.237 425.427C311.237 422.184 308.591 419.555 305.326 419.555C302.061 419.555 299.414 422.184 299.414 425.427C299.414 428.67 302.061 431.299 305.326 431.299Z" fill="#FF8FA3"/>
<path d="M285.31 431.299C288.575 431.299 291.222 428.67 291.222 425.427C291.222 422.184 288.575 419.555 285.31 419.555C282.045 419.555 279.398 422.184 279.398 425.427C279.398 428.67 282.045 431.299 285.31 431.299Z" fill="#FF8FA3"/>
<path d="M265.294 431.299C268.559 431.299 271.206 428.67 271.206 425.427C271.206 422.184 268.559 419.555 265.294 419.555C262.03 419.555 259.383 422.184 259.383 425.427C259.383 428.67 262.03 431.299 265.294 431.299Z" fill="#FF8FA3"/>
<path d="M245.287 431.299C248.551 431.299 251.198 428.67 251.198 425.427C251.198 422.184 248.551 419.555 245.287 419.555C242.022 419.555 239.375 422.184 239.375 425.427C239.375 428.67 242.022 431.299 245.287 431.299Z" fill="#FF8FA3"/>
<path d="M225.271 431.299C228.536 431.299 231.183 428.67 231.183 425.427C231.183 422.184 228.536 419.555 225.271 419.555C222.006 419.555 219.359 422.184 219.359 425.427C219.359 428.67 222.006 431.299 225.271 431.299Z" fill="#FF8FA3"/>
<path d="M205.263 431.299C208.528 431.299 211.175 428.67 211.175 425.427C211.175 422.184 208.528 419.555 205.263 419.555C201.998 419.555 199.352 422.184 199.352 425.427C199.352 428.67 201.998 431.299 205.263 431.299Z" fill="#FF8FA3"/>
<path d="M185.248 431.299C188.512 431.299 191.159 428.67 191.159 425.427C191.159 422.184 188.512 419.555 185.248 419.555C181.983 419.555 179.336 422.184 179.336 425.427C179.336 428.67 181.983 431.299 185.248 431.299Z" fill="#FF8FA3"/>
<path d="M325.333 411.424C328.598 411.424 331.245 408.795 331.245 405.552C331.245 402.309 328.598 399.68 325.333 399.68C322.069 399.68 319.422 402.309 319.422 405.552C319.422 408.795 322.069 411.424 325.333 411.424Z" fill="#FF8FA3"/>
<path d="M305.326 411.424C308.591 411.424 311.237 408.795 311.237 405.552C311.237 402.309 308.591 399.68 305.326 399.68C302.061 399.68 299.414 402.309 299.414 405.552C299.414 408.795 302.061 411.424 305.326 411.424Z" fill="#FF8FA3"/>
<path d="M285.31 411.424C288.575 411.424 291.222 408.795 291.222 405.552C291.222 402.309 288.575 399.68 285.31 399.68C282.045 399.68 279.398 402.309 279.398 405.552C279.398 408.795 282.045 411.424 285.31 411.424Z" fill="#FF8FA3"/>
<path d="M265.294 411.424C268.559 411.424 271.206 408.795 271.206 405.552C271.206 402.309 268.559 399.68 265.294 399.68C262.03 399.68 259.383 402.309 259.383 405.552C259.383 408.795 262.03 411.424 265.294 411.424Z" fill="#FF8FA3"/>
<path d="M245.287 411.424C248.551 411.424 251.198 408.795 251.198 405.552C251.198 402.309 248.551 399.68 245.287 399.68C242.022 399.68 239.375 402.309 239.375 405.552C239.375 408.795 242.022 411.424 245.287 411.424Z" fill="#FF8FA3"/>
<path d="M225.271 411.424C228.536 411.424 231.183 408.795 231.183 405.552C231.183 402.309 228.536 399.68 225.271 399.68C222.006 399.68 219.359 402.309 219.359 405.552C219.359 408.795 222.006 411.424 225.271 411.424Z" fill="#FF8FA3"/>
<path d="M205.263 411.424C208.528 411.424 211.175 408.795 211.175 405.552C211.175 402.309 208.528 399.68 205.263 399.68C201.998 399.68 199.352 402.309 199.352 405.552C199.352 408.795 201.998 411.424 205.263 411.424Z" fill="#FF8FA3"/>
<path d="M185.248 411.424C188.512 411.424 191.159 408.795 191.159 405.552C191.159 402.309 188.512 399.68 185.248 399.68C181.983 399.68 179.336 402.309 179.336 405.552C179.336 408.795 181.983 411.424 185.248 411.424Z" fill="#FF8FA3"/>
<path d="M165.24 502.026C168.505 502.026 171.151 499.397 171.151 496.154C171.151 492.91 168.505 490.281 165.24 490.281C161.975 490.281 159.328 492.91 159.328 496.154C159.328 499.397 161.975 502.026 165.24 502.026Z" fill="#CED7E9"/>
<path d="M165.24 461.159C168.505 461.159 171.151 458.53 171.151 455.286C171.151 452.043 168.505 449.414 165.24 449.414C161.975 449.414 159.328 452.043 159.328 455.286C159.328 458.53 161.975 461.159 165.24 461.159Z" fill="#CED7E9"/>
<path d="M165.24 420.299C168.505 420.299 171.151 417.67 171.151 414.427C171.151 411.184 168.505 408.555 165.24 408.555C161.975 408.555 159.328 411.184 159.328 414.427C159.328 417.67 161.975 420.299 165.24 420.299Z" fill="#FF8FA3"/>
<path d="M342.193 480.034C345.458 480.034 348.104 477.405 348.104 474.161C348.104 470.918 345.458 468.289 342.193 468.289C338.928 468.289 336.281 470.918 336.281 474.161C336.281 477.405 338.928 480.034 342.193 480.034Z" fill="#CED7E9"/>
<path d="M342.193 439.167C345.458 439.167 348.104 436.537 348.104 433.294C348.104 430.051 345.458 427.422 342.193 427.422C338.928 427.422 336.281 430.051 336.281 433.294C336.281 436.537 338.928 439.167 342.193 439.167Z" fill="url(#paint4_linear_1102_2614)"/>
<path d="M169.625 321.361V306.852H200.777V321.361" stroke="white" stroke-miterlimit="10"/>
<path d="M185.195 306.852L185.195 223.109" stroke="white" stroke-miterlimit="10"/>
<path d="M186.665 222.948C187.147 222.174 186.905 221.158 186.126 220.679C185.346 220.201 184.323 220.44 183.841 221.215C183.359 221.989 183.601 223.005 184.38 223.484C185.16 223.963 186.183 223.723 186.665 222.948Z" fill="white"/>
<path d="M185.312 357.28L185.312 404.852" stroke="white" stroke-miterlimit="10"/>
<path d="M183.843 405.013C183.361 405.787 183.602 406.803 184.382 407.282C185.162 407.76 186.185 407.521 186.666 406.746C187.148 405.972 186.907 404.956 186.127 404.477C185.348 403.998 184.325 404.238 183.843 405.013Z" fill="white"/>
<path d="M201.221 342.945V357.455H170.062V342.945" stroke="white" stroke-miterlimit="10"/>
<path d="M166.896 536L165.598 532.986H164.872V536H163.057V527.816H165.785C167.666 527.816 168.59 528.894 168.59 530.445C168.59 531.49 168.15 532.271 167.336 532.678L168.854 536H166.896ZM164.872 529.334V531.567H165.741C166.478 531.567 166.797 531.182 166.797 530.445C166.797 529.719 166.478 529.334 165.719 529.334H164.872ZM175.139 536H170.695V534.581H172.015V529.235H170.695V527.816H175.139V529.235H173.808V534.581H175.139V536ZM180.137 536.198C178.311 536.198 177.134 535.263 177.101 533.426H178.85C178.916 534.449 179.367 534.768 180.126 534.768C180.654 534.768 181.27 534.504 181.27 533.745C181.27 532.997 180.72 532.832 179.719 532.59C178.344 532.26 177.299 531.743 177.299 530.115C177.299 528.476 178.487 527.673 180.06 527.673C181.6 527.673 182.711 528.487 182.755 530.126H181.061C181.006 529.389 180.588 529.037 179.994 529.037C179.422 529.037 178.971 529.323 178.971 529.917C178.971 530.588 179.554 530.764 180.687 531.028C181.897 531.303 182.964 531.875 182.964 533.569C182.964 535.296 181.842 536.198 180.137 536.198ZM188.413 536L186.785 532.37L186.301 533.107V536H184.519V527.816H186.301V529.411C186.301 530.016 186.279 530.599 186.257 531.017L188.281 527.816H190.162L187.951 530.995L190.283 536H188.413ZM204.559 527.816L202.535 536H200.533L198.509 527.816H200.368L201.127 531.633C201.347 532.733 201.534 534.394 201.534 534.394H201.567C201.567 534.394 201.809 532.601 202.007 531.633L202.832 527.816H204.559ZM209.832 536L209.491 534.35H207.742L207.401 536H205.685L207.632 527.816H209.733L211.691 536H209.832ZM208.182 532.238L208.006 533.063H209.227L209.062 532.238C208.842 531.138 208.655 529.422 208.655 529.422H208.622C208.622 529.422 208.38 531.281 208.182 532.238ZM216.976 536L215.678 532.986H214.952V536H213.137V527.816H215.865C217.746 527.816 218.67 528.894 218.67 530.445C218.67 531.49 218.23 532.271 217.416 532.678L218.934 536H216.976ZM214.952 529.334V531.567H215.821C216.558 531.567 216.877 531.182 216.877 530.445C216.877 529.719 216.558 529.334 215.799 529.334H214.952ZM225.219 536H220.775V534.581H222.095V529.235H220.775V527.816H225.219V529.235H223.888V534.581H225.219V536ZM231.295 536L230.954 534.35H229.205L228.864 536H227.148L229.095 527.816H231.196L233.154 536H231.295ZM229.645 532.238L229.469 533.063H230.69L230.525 532.238C230.305 531.138 230.118 529.422 230.118 529.422H230.085C230.085 529.422 229.843 531.281 229.645 532.238ZM234.61 536V527.816H236.502L237.503 530.423C237.844 531.303 238.449 533.151 238.449 533.151H238.504C238.504 533.151 238.372 531.193 238.372 530.181V527.816H240.011V536H238.119L237.129 533.437C236.788 532.546 236.183 530.676 236.183 530.676H236.128C236.128 530.676 236.26 532.645 236.26 533.657V536H234.61ZM247.287 529.334H245.351V536H243.558V529.334H241.633V527.816H247.287V529.334Z" fill="white"/>
<path d="M165.807 550.176C164.091 550.176 162.837 549.186 162.815 547.459H163.849C163.882 548.614 164.564 549.307 165.774 549.307C166.764 549.307 167.457 548.691 167.457 547.591C167.457 546.601 166.874 546.073 165.609 546.073H165.114V545.259H165.598C166.764 545.259 167.237 544.698 167.237 543.862C167.237 543.004 166.588 542.454 165.73 542.454C164.685 542.454 164.102 543.169 164.091 544.148H163.068C163.079 542.674 164.069 541.629 165.763 541.629C167.182 541.629 168.271 542.476 168.271 543.873C168.271 544.775 167.742 545.347 166.973 545.6V545.633C168.062 545.919 168.546 546.645 168.546 547.679C168.546 549.263 167.347 550.176 165.807 550.176ZM173.137 550.176C172.257 550.176 171.641 549.868 171.168 549.406C170.354 548.625 170.09 547.481 170.09 545.864C170.09 544.599 170.354 543.455 170.871 542.74C171.388 542.036 172.103 541.629 173.115 541.629C174.688 541.629 175.425 542.674 175.568 543.642H174.523C174.446 543.103 174.017 542.498 173.137 542.498C171.663 542.498 171.146 543.73 171.091 545.897H171.113C171.63 545.039 172.279 544.665 173.225 544.665C174.666 544.665 175.744 545.886 175.755 547.393C175.766 548.922 174.644 550.176 173.137 550.176ZM173.115 549.329C174.105 549.329 174.765 548.537 174.765 547.426C174.765 546.315 174.083 545.523 173.082 545.523C171.993 545.523 171.289 546.326 171.289 547.415C171.289 548.537 172.059 549.329 173.115 549.329ZM187.225 550.176C185.432 550.176 184.431 548.482 184.431 545.908C184.431 543.323 185.366 541.64 187.225 541.64C189.084 541.64 190.019 543.323 190.019 545.908C190.019 548.482 189.018 550.176 187.225 550.176ZM187.236 549.186C188.391 549.186 188.864 547.91 188.864 545.908C188.864 543.895 188.413 542.608 187.236 542.608C186.059 542.608 185.575 543.895 185.575 545.908C185.575 547.91 186.07 549.186 187.236 549.186ZM196.041 550L194.457 546.623H193.016V550H191.883V541.816H194.809C196.217 541.816 197.174 542.806 197.174 544.203C197.174 545.391 196.58 546.194 195.612 546.491L197.306 550H196.041ZM193.016 542.795V545.71H194.589C195.59 545.71 196.052 545.226 196.052 544.247C196.052 543.279 195.579 542.795 194.644 542.795H193.016ZM205.96 550V541.816H207.412L208.171 545.479C208.38 546.469 208.666 548.68 208.666 548.68H208.699C208.699 548.68 209.007 546.469 209.205 545.479L209.953 541.816H211.416V550H210.448V545.611C210.448 544.665 210.558 542.608 210.558 542.608H210.514C210.514 542.608 210.217 544.555 210.052 545.424L209.172 550H208.182L207.302 545.424C207.137 544.555 206.84 542.608 206.84 542.608H206.796C206.796 542.608 206.906 544.665 206.906 545.611V550H205.96ZM215.843 550.176C214.05 550.176 213.049 548.482 213.049 545.908C213.049 543.323 213.984 541.64 215.843 541.64C217.702 541.64 218.637 543.323 218.637 545.908C218.637 548.482 217.636 550.176 215.843 550.176ZM215.854 549.186C217.009 549.186 217.482 547.91 217.482 545.908C217.482 543.895 217.031 542.608 215.854 542.608C214.677 542.608 214.193 543.895 214.193 545.908C214.193 547.91 214.688 549.186 215.854 549.186ZM224.658 550L223.074 546.623H221.633V550H220.5V541.816H223.426C224.834 541.816 225.791 542.806 225.791 544.203C225.791 545.391 225.197 546.194 224.229 546.491L225.923 550H224.658ZM221.633 542.795V545.71H223.206C224.207 545.71 224.669 545.226 224.669 544.247C224.669 543.279 224.196 542.795 223.261 542.795H221.633ZM232.747 548.977V550H227.654V541.816H232.681V542.806H228.776V545.281H232.296V546.216H228.776V548.977H232.747ZM247.298 542.806H245.021V550H243.888V542.806H241.622V541.816H247.298V542.806ZM253.275 550L251.691 546.623H250.25V550H249.117V541.816H252.043C253.451 541.816 254.408 542.806 254.408 544.203C254.408 545.391 253.814 546.194 252.846 546.491L254.54 550H253.275ZM250.25 542.795V545.71H251.823C252.824 545.71 253.286 545.226 253.286 544.247C253.286 543.279 252.813 542.795 251.878 542.795H250.25ZM260.847 550H256.689V549.109H258.207V542.718H256.689V541.816H260.847V542.718H259.329V549.109H260.847V550ZM266.176 546.634H264.559V550H263.426V541.816H266.286C267.793 541.816 268.695 542.806 268.695 544.214C268.695 545.721 267.837 546.634 266.176 546.634ZM264.559 542.795V545.721H266.066C267.067 545.721 267.573 545.16 267.573 544.247C267.573 543.29 267.012 542.795 266.11 542.795H264.559ZM270.58 550V541.816H271.702V548.977H275.585V550H270.58ZM282.827 548.977V550H277.734V541.816H282.761V542.806H278.856V545.281H282.376V546.216H278.856V548.977H282.827ZM290.224 542.806H287.947V550H286.814V542.806H284.548V541.816H290.224V542.806ZM303.355 550L301.771 546.623H300.33V550H299.197V541.816H302.123C303.531 541.816 304.488 542.806 304.488 544.203C304.488 545.391 303.894 546.194 302.926 546.491L304.62 550H303.355ZM300.33 542.795V545.71H301.903C302.904 545.71 303.366 545.226 303.366 544.247C303.366 543.279 302.893 542.795 301.958 542.795H300.33ZM311.444 548.977V550H306.351V541.816H311.378V542.806H307.473V545.281H310.993V546.216H307.473V548.977H311.444ZM316.256 546.634H314.639V550H313.506V541.816H316.366C317.873 541.816 318.775 542.806 318.775 544.214C318.775 545.721 317.917 546.634 316.256 546.634ZM314.639 542.795V545.721H316.146C317.147 545.721 317.653 545.16 317.653 544.247C317.653 543.29 317.092 542.795 316.19 542.795H314.639ZM325.753 548.977V550H320.66V541.816H325.687V542.806H321.782V545.281H325.302V546.216H321.782V548.977H325.753ZM332.049 550L331.455 547.723H329.09L328.485 550H327.363L329.64 541.816H330.96L333.259 550H332.049ZM329.882 544.742L329.321 546.843H331.235L330.685 544.742C330.476 543.939 330.3 542.894 330.3 542.894H330.278C330.278 542.894 330.08 543.983 329.882 544.742ZM340.304 542.806H338.027V550H336.894V542.806H334.628V541.816H340.304V542.806ZM344.697 550.165C342.75 550.165 341.727 549.021 341.661 547.349H342.772C342.882 548.691 343.542 549.263 344.719 549.263C345.643 549.263 346.358 548.768 346.358 547.778C346.358 546.711 345.819 546.48 344.213 546.095C343.014 545.809 341.936 545.325 341.936 543.851C341.936 542.487 343.003 541.662 344.499 541.662C346.226 541.662 347.084 542.619 347.227 544.071H346.138C346.028 543.026 345.445 542.542 344.499 542.542C343.608 542.542 342.992 542.982 342.992 543.796C342.992 544.687 343.586 544.918 344.961 545.226C346.248 545.512 347.458 545.996 347.458 547.745C347.458 549.274 346.303 550.165 344.697 550.165Z" fill="white"/>
<path d="M163.068 127.633V119.449H164.96L165.961 122.056C166.302 122.936 166.907 124.784 166.907 124.784H166.962C166.962 124.784 166.83 122.826 166.83 121.814V119.449H168.469V127.633H166.577L165.587 125.07C165.246 124.179 164.641 122.309 164.641 122.309H164.586C164.586 122.309 164.718 124.278 164.718 125.29V127.633H163.068ZM172.928 127.831C170.97 127.831 170.013 126.225 170.013 123.574C170.013 120.912 170.959 119.306 172.928 119.306C174.886 119.306 175.821 120.912 175.821 123.574C175.821 126.225 174.875 127.831 172.928 127.831ZM172.939 126.357C173.764 126.357 173.995 125.356 173.995 123.574C173.995 121.77 173.764 120.758 172.939 120.758C172.114 120.758 171.839 121.77 171.839 123.574C171.839 125.356 172.114 126.357 172.939 126.357ZM181.204 127.633L179.906 124.619H179.18V127.633H177.365V119.449H180.093C181.974 119.449 182.898 120.527 182.898 122.078C182.898 123.123 182.458 123.904 181.644 124.311L183.162 127.633H181.204ZM179.18 120.967V123.2H180.049C180.786 123.2 181.105 122.815 181.105 122.078C181.105 121.352 180.786 120.967 180.027 120.967H179.18ZM184.167 127.633V119.449H186.587L186.895 121.935C187.027 122.991 187.203 125.884 187.203 125.884H187.258C187.258 125.884 187.412 122.991 187.533 121.935L187.819 119.449H190.283V127.633H188.765V125.664C188.765 124.399 188.886 120.725 188.886 120.725H188.82C188.82 120.725 188.457 123.904 188.325 124.927L187.962 127.633H186.466L186.07 124.927C185.916 123.904 185.575 120.725 185.575 120.725H185.509C185.509 120.725 185.663 124.399 185.663 125.664V127.633H184.167ZM195.524 127.633L195.183 125.983H193.434L193.093 127.633H191.377L193.324 119.449H195.425L197.383 127.633H195.524ZM193.874 123.871L193.698 124.696H194.919L194.754 123.871C194.534 122.771 194.347 121.055 194.347 121.055H194.314C194.314 121.055 194.072 122.914 193.874 123.871ZM199.114 127.633V119.449H200.907V126.093H204.097V127.633H199.114ZM218.868 119.449L216.844 127.633H214.842L212.818 119.449H214.677L215.436 123.266C215.656 124.366 215.843 126.027 215.843 126.027H215.876C215.876 126.027 216.118 124.234 216.316 123.266L217.141 119.449H218.868ZM224.141 127.633L223.8 125.983H222.051L221.71 127.633H219.994L221.941 119.449H224.042L226 127.633H224.141ZM222.491 123.871L222.315 124.696H223.536L223.371 123.871C223.151 122.771 222.964 121.055 222.964 121.055H222.931C222.931 121.055 222.689 122.914 222.491 123.871ZM231.284 127.633L229.986 124.619H229.26V127.633H227.445V119.449H230.173C232.054 119.449 232.978 120.527 232.978 122.078C232.978 123.123 232.538 123.904 231.724 124.311L233.242 127.633H231.284ZM229.26 120.967V123.2H230.129C230.866 123.2 231.185 122.815 231.185 122.078C231.185 121.352 230.866 120.967 230.107 120.967H229.26ZM239.527 127.633H235.083V126.214H236.403V120.868H235.083V119.449H239.527V120.868H238.196V126.214H239.527V127.633ZM245.604 127.633L245.263 125.983H243.514L243.173 127.633H241.457L243.404 119.449H245.505L247.463 127.633H245.604ZM243.954 123.871L243.778 124.696H244.999L244.834 123.871C244.614 122.771 244.427 121.055 244.427 121.055H244.394C244.394 121.055 244.152 122.914 243.954 123.871ZM248.919 127.633V119.449H250.811L251.812 122.056C252.153 122.936 252.758 124.784 252.758 124.784H252.813C252.813 124.784 252.681 122.826 252.681 121.814V119.449H254.32V127.633H252.428L251.438 125.07C251.097 124.179 250.492 122.309 250.492 122.309H250.437C250.437 122.309 250.569 124.278 250.569 125.29V127.633H248.919ZM261.595 120.967H259.659V127.633H257.866V120.967H255.941V119.449H261.595V120.967Z" fill="white"/>
<path d="M165.774 141.633V135.748H163.629V135.044C165.158 135.011 165.884 134.461 166.016 133.394H166.841V141.633H165.774ZM171.278 138.96V138.036H174.556V138.96H171.278ZM180.115 141.809C178.399 141.809 177.145 140.819 177.123 139.092H178.157C178.19 140.247 178.872 140.94 180.082 140.94C181.072 140.94 181.765 140.324 181.765 139.224C181.765 138.234 181.182 137.706 179.917 137.706H179.422V136.892H179.906C181.072 136.892 181.545 136.331 181.545 135.495C181.545 134.637 180.896 134.087 180.038 134.087C178.993 134.087 178.41 134.802 178.399 135.781H177.376C177.387 134.307 178.377 133.262 180.071 133.262C181.49 133.262 182.579 134.109 182.579 135.506C182.579 136.408 182.051 136.98 181.281 137.233V137.266C182.37 137.552 182.854 138.278 182.854 139.312C182.854 140.896 181.655 141.809 180.115 141.809ZM187.181 141.798C185.531 141.798 184.431 140.797 184.332 139.532H185.377C185.542 140.324 186.092 140.885 187.159 140.885C188.248 140.885 188.941 140.049 188.941 138.905C188.941 137.739 188.182 137.068 187.247 137.068C186.378 137.068 185.828 137.464 185.531 137.838H184.519L185.366 133.449H189.546V134.373H186.114L185.608 136.925H185.63C186.07 136.474 186.642 136.177 187.445 136.177C188.765 136.177 190.019 137.145 190.019 138.927C190.019 140.665 188.809 141.798 187.181 141.798ZM204.372 134.439H202.095V141.633H200.962V134.439H198.696V133.449H204.372V134.439ZM210.349 141.633L208.765 138.256H207.324V141.633H206.191V133.449H209.117C210.525 133.449 211.482 134.439 211.482 135.836C211.482 137.024 210.888 137.827 209.92 138.124L211.614 141.633H210.349ZM207.324 134.428V137.343H208.897C209.898 137.343 210.36 136.859 210.36 135.88C210.36 134.912 209.887 134.428 208.952 134.428H207.324ZM217.922 141.633H213.764V140.742H215.282V134.351H213.764V133.449H217.922V134.351H216.404V140.742H217.922V141.633ZM223.25 138.267H221.633V141.633H220.5V133.449H223.36C224.867 133.449 225.769 134.439 225.769 135.847C225.769 137.354 224.911 138.267 223.25 138.267ZM221.633 134.428V137.354H223.14C224.141 137.354 224.647 136.793 224.647 135.88C224.647 134.923 224.086 134.428 223.184 134.428H221.633ZM227.654 141.633V133.449H228.776V140.61H232.659V141.633H227.654ZM239.901 140.61V141.633H234.808V133.449H239.835V134.439H235.93V136.914H239.45V137.849H235.93V140.61H239.901ZM247.298 134.439H245.021V141.633H243.888V134.439H241.622V133.449H247.298V134.439ZM260.429 141.633L258.845 138.256H257.404V141.633H256.271V133.449H259.197C260.605 133.449 261.562 134.439 261.562 135.836C261.562 137.024 260.968 137.827 260 138.124L261.694 141.633H260.429ZM257.404 134.428V137.343H258.977C259.978 137.343 260.44 136.859 260.44 135.88C260.44 134.912 259.967 134.428 259.032 134.428H257.404ZM268.519 140.61V141.633H263.426V133.449H268.453V134.439H264.548V136.914H268.068V137.849H264.548V140.61H268.519ZM273.33 138.267H271.713V141.633H270.58V133.449H273.44C274.947 133.449 275.849 134.439 275.849 135.847C275.849 137.354 274.991 138.267 273.33 138.267ZM271.713 134.428V137.354H273.22C274.221 137.354 274.727 136.793 274.727 135.88C274.727 134.923 274.166 134.428 273.264 134.428H271.713ZM282.827 140.61V141.633H277.734V133.449H282.761V134.439H278.856V136.914H282.376V137.849H278.856V140.61H282.827ZM289.124 141.633L288.53 139.356H286.165L285.56 141.633H284.438L286.715 133.449H288.035L290.334 141.633H289.124ZM286.957 136.375L286.396 138.476H288.31L287.76 136.375C287.551 135.572 287.375 134.527 287.375 134.527H287.353C287.353 134.527 287.155 135.616 286.957 136.375ZM297.378 134.439H295.101V141.633H293.968V134.439H291.702V133.449H297.378V134.439ZM301.771 141.798C299.824 141.798 298.801 140.654 298.735 138.982H299.846C299.956 140.324 300.616 140.896 301.793 140.896C302.717 140.896 303.432 140.401 303.432 139.411C303.432 138.344 302.893 138.113 301.287 137.728C300.088 137.442 299.01 136.958 299.01 135.484C299.01 134.12 300.077 133.295 301.573 133.295C303.3 133.295 304.158 134.252 304.301 135.704H303.212C303.102 134.659 302.519 134.175 301.573 134.175C300.682 134.175 300.066 134.615 300.066 135.429C300.066 136.32 300.66 136.551 302.035 136.859C303.322 137.145 304.532 137.629 304.532 139.378C304.532 140.907 303.377 141.798 301.771 141.798Z" fill="white"/>
<path d="M215.019 306.857H213.083V313.523H211.29V306.857H209.365V305.339H215.019V306.857ZM220.479 313.523L219.181 310.509H218.455V313.523H216.64V305.339H219.368C221.249 305.339 222.173 306.417 222.173 307.968C222.173 309.013 221.733 309.794 220.919 310.201L222.437 313.523H220.479ZM218.455 306.857V309.09H219.324C220.061 309.09 220.38 308.705 220.38 307.968C220.38 307.242 220.061 306.857 219.302 306.857H218.455ZM228.723 313.523H224.279V312.104H225.599V306.758H224.279V305.339H228.723V306.758H227.392V312.104H228.723V313.523ZM233.996 310.619H232.764V313.523H230.949V305.339H233.677C235.69 305.339 236.548 306.461 236.548 308.023C236.548 309.563 235.679 310.619 233.996 310.619ZM232.764 306.857V309.2H233.6C234.359 309.2 234.744 308.782 234.744 308.023C234.744 307.242 234.37 306.857 233.6 306.857H232.764ZM238.389 313.523V305.339H240.182V311.983H243.372V313.523H238.389ZM250.67 311.983V313.523H245.258V305.339H250.626V306.835H247.04V308.562H250.142V309.981H247.04V311.983H250.67ZM257.945 306.857H256.009V313.523H254.216V306.857H252.291V305.339H257.945V306.857ZM270.56 313.523L269.262 310.509H268.536V313.523H266.721V305.339H269.449C271.33 305.339 272.254 306.417 272.254 307.968C272.254 309.013 271.814 309.794 271 310.201L272.518 313.523H270.56ZM268.536 306.857V309.09H269.405C270.142 309.09 270.461 308.705 270.461 307.968C270.461 307.242 270.142 306.857 269.383 306.857H268.536ZM279.287 311.983V313.523H273.875V305.339H279.243V306.835H275.657V308.562H278.759V309.981H275.657V311.983H279.287ZM284.076 310.619H282.844V313.523H281.029V305.339H283.757C285.77 305.339 286.628 306.461 286.628 308.023C286.628 309.563 285.759 310.619 284.076 310.619ZM282.844 306.857V309.2H283.68C284.439 309.2 284.824 308.782 284.824 308.023C284.824 307.242 284.45 306.857 283.68 306.857H282.844ZM293.595 311.983V313.523H288.183V305.339H293.551V306.835H289.965V308.562H293.067V309.981H289.965V311.983H293.595ZM299.188 313.523L298.847 311.873H297.098L296.757 313.523H295.041L296.988 305.339H299.089L301.047 313.523H299.188ZM297.538 309.761L297.362 310.586H298.583L298.418 309.761C298.198 308.661 298.011 306.945 298.011 306.945H297.978C297.978 306.945 297.736 308.804 297.538 309.761ZM308.025 306.857H306.089V313.523H304.296V306.857H302.371V305.339H308.025V306.857ZM312.418 313.721C310.592 313.721 309.415 312.786 309.382 310.949H311.131C311.197 311.972 311.648 312.291 312.407 312.291C312.935 312.291 313.551 312.027 313.551 311.268C313.551 310.52 313.001 310.355 312 310.113C310.625 309.783 309.58 309.266 309.58 307.638C309.58 305.999 310.768 305.196 312.341 305.196C313.881 305.196 314.992 306.01 315.036 307.649H313.342C313.287 306.912 312.869 306.56 312.275 306.56C311.703 306.56 311.252 306.846 311.252 307.44C311.252 308.111 311.835 308.287 312.968 308.551C314.178 308.826 315.245 309.398 315.245 311.092C315.245 312.819 314.123 313.721 312.418 313.721Z" fill="white"/>
<path d="M22.6401 359.271C22.6401 361.207 21.0561 362.318 18.3941 362.318C15.7321 362.318 14.1261 361.196 14.1261 359.227C14.1261 357.599 15.2041 356.631 16.9971 356.521V358.314C16.0731 358.325 15.6111 358.732 15.6111 359.26C15.6111 360.162 16.5791 360.492 18.3941 360.492C20.2201 360.492 21.1551 360.096 21.1551 359.282C21.1551 358.666 20.7041 358.292 19.5821 358.259V356.477C21.5401 356.576 22.6401 357.445 22.6401 359.271ZM22.4531 351.336H18.9441V353.195H22.4531V354.977H14.2691V353.195H17.4591V351.336H14.2691V349.565H22.4531V351.336ZM22.4531 343.983L19.4391 345.281V346.007H22.4531V347.822H14.2691V345.094C14.2691 343.213 15.3471 342.289 16.8981 342.289C17.9431 342.289 18.7241 342.729 19.1311 343.543L22.4531 342.025V343.983ZM15.7871 346.007H18.0201V345.138C18.0201 344.401 17.6351 344.082 16.8981 344.082C16.1721 344.082 15.7871 344.401 15.7871 345.16V346.007ZM22.6511 337.951C22.6511 339.909 21.0451 340.866 18.3941 340.866C15.7321 340.866 14.1261 339.92 14.1261 337.951C14.1261 335.993 15.7321 335.058 18.3941 335.058C21.0451 335.058 22.6511 336.004 22.6511 337.951ZM21.1771 337.94C21.1771 337.115 20.1761 336.884 18.3941 336.884C16.5901 336.884 15.5781 337.115 15.5781 337.94C15.5781 338.765 16.5901 339.04 18.3941 339.04C20.1761 339.04 21.1771 338.765 21.1771 337.94ZM22.4531 333.866H14.2691V331.446L16.7551 331.138C17.8111 331.006 20.7041 330.83 20.7041 330.83V330.775C20.7041 330.775 17.8111 330.621 16.7551 330.5L14.2691 330.214V327.75H22.4531V329.268H20.4841C19.2191 329.268 15.5451 329.147 15.5451 329.147V329.213C15.5451 329.213 18.7241 329.576 19.7471 329.708L22.4531 330.071V331.567L19.7471 331.963C18.7241 332.117 15.5451 332.458 15.5451 332.458V332.524C15.5451 332.524 19.2191 332.37 20.4841 332.37H22.4531V333.866ZM22.6511 323.643C22.6511 325.601 21.0451 326.558 18.3941 326.558C15.7321 326.558 14.1261 325.612 14.1261 323.643C14.1261 321.685 15.7321 320.75 18.3941 320.75C21.0451 320.75 22.6511 321.696 22.6511 323.643ZM21.1771 323.632C21.1771 322.807 20.1761 322.576 18.3941 322.576C16.5901 322.576 15.5781 322.807 15.5781 323.632C15.5781 324.457 16.5901 324.732 18.3941 324.732C20.1761 324.732 21.1771 324.457 21.1771 323.632ZM22.6511 316.433C22.6511 318.259 21.7161 319.436 19.8791 319.469V317.72C20.9021 317.654 21.2211 317.203 21.2211 316.444C21.2211 315.916 20.9571 315.3 20.1981 315.3C19.4501 315.3 19.2851 315.85 19.0431 316.851C18.7131 318.226 18.1961 319.271 16.5681 319.271C14.9291 319.271 14.1261 318.083 14.1261 316.51C14.1261 314.97 14.9401 313.859 16.5791 313.815V315.509C15.8421 315.564 15.4901 315.982 15.4901 316.576C15.4901 317.148 15.7761 317.599 16.3701 317.599C17.0411 317.599 17.2171 317.016 17.4811 315.883C17.7561 314.673 18.3281 313.606 20.0221 313.606C21.7491 313.606 22.6511 314.728 22.6511 316.433ZM22.6511 309.334C22.6511 311.292 21.0451 312.249 18.3941 312.249C15.7321 312.249 14.1261 311.303 14.1261 309.334C14.1261 307.376 15.7321 306.441 18.3941 306.441C21.0451 306.441 22.6511 307.387 22.6511 309.334ZM21.1771 309.323C21.1771 308.498 20.1761 308.267 18.3941 308.267C16.5901 308.267 15.5781 308.498 15.5781 309.323C15.5781 310.148 16.5901 310.423 18.3941 310.423C20.1761 310.423 21.1771 310.148 21.1771 309.323ZM22.4531 305.249H14.2691V302.829L16.7551 302.521C17.8111 302.389 20.7041 302.213 20.7041 302.213V302.158C20.7041 302.158 17.8111 302.004 16.7551 301.883L14.2691 301.597V299.133H22.4531V300.651H20.4841C19.2191 300.651 15.5451 300.53 15.5451 300.53V300.596C15.5451 300.596 18.7241 300.959 19.7471 301.091L22.4531 301.454V302.95L19.7471 303.346C18.7241 303.5 15.5451 303.841 15.5451 303.841V303.907C15.5451 303.907 19.2191 303.753 20.4841 303.753H22.4531V305.249ZM20.9131 292.33H22.4531V297.742H14.2691V292.374H15.7651V295.96H17.4921V292.858H18.9111V295.96H20.9131V292.33ZM20.5061 277.912V278.605H22.4531V280.343H20.5061L20.5061 283.544H18.9111L14.1811 280.365V278.605H19.1861V277.912H20.5061ZM19.2301 282.499H19.2521C19.2521 282.499 19.1861 281.828 19.1861 281.432V280.343H17.1951C16.7331 280.343 15.8861 280.288 15.8861 280.288V280.31C15.8861 280.31 16.6341 280.673 17.0851 280.959L18.2291 281.685C18.6581 281.96 19.2301 282.499 19.2301 282.499Z" fill="white"/>
</g>
<defs>
<linearGradient id="paint0_linear_1102_2614" x1="253.33" y1="405.43" x2="253.33" y2="448.413" gradientUnits="userSpaceOnUse">
<stop stop-color="#FF97B4"/>
<stop offset="1" stop-color="#CED7E9"/>
</linearGradient>
<linearGradient id="paint1_linear_1102_2614" x1="319.422" y1="445.286" x2="331.245" y2="445.286" gradientUnits="userSpaceOnUse">
<stop stop-color="#CED7E9"/>
<stop offset="1" stop-color="#FF97B4"/>
</linearGradient>
<linearGradient id="paint2_linear_1102_2614" x1="299.414" y1="445.286" x2="319.726" y2="445.286" gradientUnits="userSpaceOnUse">
<stop stop-color="#CED7E9"/>
<stop offset="1" stop-color="#FF97B4"/>
</linearGradient>
<linearGradient id="paint3_linear_1102_2614" x1="279.398" y1="445.286" x2="303.714" y2="445.286" gradientUnits="userSpaceOnUse">
<stop stop-color="#CED7E9"/>
<stop offset="1" stop-color="#FF97B4"/>
</linearGradient>
<linearGradient id="paint4_linear_1102_2614" x1="343.279" y1="439.167" x2="339.645" y2="429.064" gradientUnits="userSpaceOnUse">
<stop stop-color="#CED7E9"/>
<stop offset="1" stop-color="#FF97B4"/>
</linearGradient>
<clipPath id="clip0_1102_2614">
<rect width="388" height="580" rx="15.7878" fill="white"/>
</clipPath>
</defs>
</svg>
